<svg width="29" height="28" viewBox="0 0 29 28" fill="none" xmlns="http://www.w3.org/2000/svg">
<path fill-rule="evenodd" clip-rule="evenodd" d="M0.821078 7.88257C0.821078 6.4431 1.9495 5.32852 3.64891 5.32852C5.34833 5.32852 8.83496 5.28992 8.83496 5.28992C8.83496 5.28992 8.78176 4.09094 8.78176 2.56606C8.78176 1.04152 10.1647 0 11.8228 0C13.4811 0 21.6962 0.0687829 22.5023 0.0687829C23.3083 0.0687829 23.9623 0.363639 24.8659 1.04135C25.7693 1.7194 27.1352 2.85268 27.8116 3.60775C28.4879 4.36281 28.7734 4.80364 28.7734 5.42663C28.7734 6.04979 28.7734 18.6096 28.763 20.0648C28.7527 21.5202 27.3934 22.5961 25.7839 22.6173C24.1744 22.6386 20.7182 22.6386 20.7182 22.6386C20.7182 22.6386 20.7992 23.7149 20.7992 25.2372C20.7992 26.7596 19.3898 27.9493 17.7883 27.9913C16.1869 28.0333 5.2793 27.9072 3.7249 27.9493C2.17049 27.9913 0.773438 26.7839 0.773438 25.304C0.773438 23.824 0.821078 9.32186 0.821078 7.88257ZM3.73063 8.55941L3.53034 24.4863C3.52914 24.5762 3.54605 24.6655 3.5801 24.7489C3.61414 24.8323 3.66463 24.9082 3.72865 24.9723C3.79267 25.0363 3.86894 25.0871 3.95303 25.1218C4.03712 25.1565 4.12736 25.1744 4.21852 25.1745L17.0698 25.2122C17.1604 25.2133 17.2503 25.1963 17.334 25.1622C17.4178 25.1282 17.4937 25.0778 17.5572 25.014C17.6207 24.9503 17.6705 24.8745 17.7036 24.7913C17.7366 24.7081 17.7523 24.6192 17.7497 24.5299L17.7118 23.0046C17.711 22.9595 17.7011 22.915 17.6828 22.8737C17.6644 22.8323 17.6379 22.795 17.6048 22.7638C17.5717 22.7327 17.5327 22.7083 17.49 22.6921C17.4473 22.676 17.4018 22.6683 17.356 22.6696C17.356 22.6696 13.5542 22.7794 11.8327 22.7199C10.111 22.6602 8.9339 21.5523 8.93337 20.0585C8.93285 18.5646 8.9339 8.19869 8.9339 8.19869C8.93399 8.15357 8.92501 8.10888 8.90748 8.0672C8.88994 8.02553 8.8642 7.9877 8.83175 7.95591C8.79929 7.92411 8.76077 7.89899 8.7184 7.88198C8.67604 7.86497 8.63067 7.85643 8.58494 7.85684L4.43446 7.8709C4.24922 7.87218 4.07184 7.94495 3.94029 8.07363C3.80875 8.20231 3.73349 8.37668 3.73063 8.55941ZM22.2493 2.51168C21.9596 2.26297 21.7249 2.3676 21.7249 2.74702V5.70673C21.7249 5.89644 21.8803 6.05099 22.0721 6.05202L25.7004 6.06934C26.0837 6.07123 26.1596 5.87106 25.8701 5.62234L22.2493 2.51168ZM12.2333 2.65697C12.1875 2.65656 12.1421 2.66506 12.0997 2.68199C12.0572 2.69891 12.0186 2.72393 11.986 2.7556C11.9533 2.78728 11.9274 2.82499 11.9095 2.86657C11.8917 2.90816 11.8824 2.95281 11.8821 2.99797L11.7732 19.5146C11.7725 19.582 11.7855 19.6489 11.8112 19.7113C11.8369 19.7738 11.875 19.8305 11.9232 19.8784C11.9713 19.9262 12.0287 19.9641 12.0918 19.9899C12.1549 20.0157 12.2227 20.0289 12.291 20.0286L25.3661 19.9967C25.4593 19.9963 25.5486 19.96 25.615 19.8955C25.6813 19.831 25.7196 19.7435 25.7215 19.6516L25.9419 8.94467C25.9432 8.89983 25.9353 8.85521 25.9187 8.81345C25.9021 8.77169 25.8772 8.73364 25.8454 8.70158C25.8136 8.66951 25.7756 8.64408 25.7336 8.62679C25.6917 8.6095 25.6466 8.6007 25.6012 8.60092C25.6012 8.60092 21.0506 8.60813 20.2489 8.60813C19.4472 8.60813 18.9388 8.22699 18.9388 7.49629C18.9388 6.76558 18.9235 3.04256 18.9235 3.04256C18.9228 2.95106 18.8857 2.86348 18.8201 2.79873C18.7546 2.73397 18.6659 2.69723 18.5731 2.69642L12.2333 2.65697Z" fill="#040404"/>
</svg>
