<svg width="24" height="28" viewBox="0 0 24 28" fill="none" xmlns="http://www.w3.org/2000/svg">
<path d="M21.2493 3.19727H21.2295V4.84429H21.2524C21.5275 4.84429 21.7128 5.09277 21.7128 5.36727V25.8026C21.7128 26.0771 21.5275 26.255 21.2524 26.255H4.66072V4.84429H15.5126V3.19727H2.31474C1.09527 3.19727 0.106934 4.1856 0.106934 5.40445V25.7927C0.106934 27.0115 1.09527 27.9999 2.31474 27.9999H21.2499C22.4694 27.9999 23.4571 27.0115 23.4571 25.7927V5.40445C23.4571 4.1856 22.4688 3.19727 21.2493 3.19727ZM2.91703 26.2562H2.31164C2.03713 26.2562 1.85124 26.0777 1.85124 25.8032V5.36727C1.85124 5.09277 2.03713 4.84429 2.31164 4.84429H2.91765L2.91703 26.2562Z" fill="#1A1A1A"/>
<path d="M8.00574 9.30149H13.7771C14.4055 9.30149 14.916 8.81693 14.916 8.18737C14.916 7.55843 14.4055 7.07324 13.7771 7.07324H8.00574C7.37618 7.07324 6.86621 7.55843 6.86621 8.18737C6.86621 8.81631 7.3768 9.30149 8.00574 9.30149Z" fill="#1A1A1A"/>
<path d="M8.00574 14.3393H18.3328C18.963 14.3393 19.4729 13.8058 19.4729 13.1769C19.4729 12.5479 18.963 12.0144 18.3328 12.0144H8.00574C7.37618 12.0144 6.86621 12.5479 6.86621 13.1769C6.86621 13.8064 7.3768 14.3393 8.00574 14.3393Z" fill="#1A1A1A"/>
<path d="M8.00574 19.2802H18.3328C18.963 19.2802 19.4729 18.7467 19.4729 18.1172C19.4729 17.4882 18.963 16.9553 18.3328 16.9553H8.00574C7.37618 16.9553 6.86621 17.4882 6.86621 18.1172C6.86621 18.7473 7.3768 19.2802 8.00574 19.2802Z" fill="#1A1A1A"/>
<path d="M13.7639 24.1247H18.3214C18.951 24.1247 19.4603 23.6402 19.4603 23.0106C19.4603 22.381 18.951 21.8965 18.3214 21.8965H13.7639C13.1344 21.8965 12.625 22.381 12.625 23.0106C12.625 23.6402 13.1356 24.1247 13.7639 24.1247Z" fill="#1A1A1A"/>
<path d="M17.593 9.65101C17.7454 9.90754 18.0286 10.0643 18.3279 10.0643C18.6259 10.0643 18.9072 9.90754 19.0609 9.65101L19.9315 8.22086C20.0115 8.08888 20.0666 7.93706 20.0666 7.78339V0.894771C20.066 0.425078 19.6614 0 19.1917 0H17.4752C17.0043 0 16.5786 0.425078 16.5786 0.894771V7.78339C16.5786 7.93768 16.6431 8.08888 16.7224 8.22086L17.593 9.65101Z" fill="#1A1A1A"/>
</svg>
