<svg width="57" height="59" viewBox="0 0 57 59" fill="none" xmlns="http://www.w3.org/2000/svg">
<path d="M24.4909 48.9258H10.9492C6.67818 48.9258 4.85547 47.1031 4.85547 42.832V10.332C4.85547 6.06099 6.67818 4.23828 10.9492 4.23828H25.168V10.332C25.168 16.8808 28.7755 20.4883 35.3242 20.4883H41.418V26.582C41.418 27.7033 42.328 28.6133 43.4492 28.6133C44.5705 28.6133 45.4805 27.7033 45.4805 26.582V18.457C45.4805 17.9181 45.2666 17.4008 44.8847 17.0216L28.6347 0.771618C28.2528 0.389743 27.7382 0.175781 27.1992 0.175781H10.9492C4.40047 0.175781 0.792969 3.78328 0.792969 10.332V42.832C0.792969 49.3808 4.40047 52.9883 10.9492 52.9883H24.4909C25.6121 52.9883 26.5221 52.0783 26.5221 50.957C26.5221 49.8358 25.6121 48.9258 24.4909 48.9258ZM29.2305 10.332V7.11184L38.5443 16.4258H35.3242C31.0532 16.4258 29.2305 14.6031 29.2305 10.332ZM32.6159 24.5508C33.7371 24.5508 34.6471 25.4608 34.6471 26.582C34.6471 27.7033 33.7371 28.6133 32.6159 28.6133H13.6576C12.5363 28.6133 11.6263 27.7033 11.6263 26.582C11.6263 25.4608 12.5363 24.5508 13.6576 24.5508H32.6159ZM26.5221 37.4154C26.5221 38.5366 25.6121 39.4466 24.4909 39.4466H13.6576C12.5363 39.4466 11.6263 38.5366 11.6263 37.4154C11.6263 36.2941 12.5363 35.3841 13.6576 35.3841H24.4909C25.6121 35.3841 26.5221 36.2941 26.5221 37.4154ZM43.4492 32.6758C36.3561 32.6758 30.5846 38.4472 30.5846 45.5404C30.5846 52.6335 36.3561 58.405 43.4492 58.405C50.5423 58.405 56.3138 52.6335 56.3138 45.5404C56.3138 38.4472 50.5423 32.6758 43.4492 32.6758ZM43.4492 54.3425C38.5959 54.3425 34.6471 50.3937 34.6471 45.5404C34.6471 40.687 38.5959 36.7383 43.4492 36.7383C48.3026 36.7383 52.2513 40.687 52.2513 45.5404C52.2513 50.3937 48.3026 54.3425 43.4492 54.3425ZM48.2701 41.8462C49.0637 42.6397 49.0637 43.9262 48.2701 44.7197L43.7554 49.2346C43.3735 49.6137 42.8588 49.8277 42.3199 49.8277C41.7809 49.8277 41.2635 49.6137 40.8844 49.2318L38.6283 46.9758C37.8348 46.1822 37.8348 44.8958 38.6283 44.1022C39.4218 43.3114 40.7084 43.3087 41.5019 44.1022L42.3225 44.9229L45.4018 41.8462C46.1926 41.0553 47.4766 41.0553 48.2701 41.8462Z" fill="#A148F9"/>
</svg>
