<svg width="24" height="28" viewBox="0 0 24 28" fill="none" xmlns="http://www.w3.org/2000/svg">
<path d="M19.8629 5.91183C18.3538 4.40273 16.4232 3.311 14.2597 2.83347L14.4083 0L8.81722 2.94585L7.32392 3.7363L7.04688 3.88144L7.48853 4.1183L9.57541 5.24169L14.0067 7.62617L14.1312 5.28232C15.6769 5.69499 17.0536 6.51443 18.1575 7.61409C19.7948 9.25137 20.802 11.5034 20.802 14.0003C20.802 15.2803 20.5372 16.4929 20.0597 17.5925L22.2674 18.5513C22.8731 17.1588 23.2103 15.618 23.2103 14.0003C23.2146 10.8449 21.9302 7.97912 19.8629 5.91183Z" fill="white"/>
<path d="M13.9745 22.7587L9.5393 20.3737L9.41505 22.7181C7.86958 22.3049 6.48872 21.486 5.38906 20.3864C3.75145 18.7486 2.74416 16.4971 2.74416 14.0008C2.74416 12.7196 3.00906 11.5113 3.48659 10.4079L1.27886 9.44922C0.673141 10.8454 0.335938 12.3872 0.335938 14.0008C0.335938 17.1551 1.61601 20.025 3.68336 22.0886C5.19246 23.5977 7.12315 24.6889 9.28626 25.1622L9.13773 28.0005L14.7251 25.054L16.2265 24.2636L16.4993 24.119L16.0619 23.8821L13.9745 22.7587Z" fill="white"/>
</svg>
