<svg width="27" height="28" viewBox="0 0 27 28" fill="none" xmlns="http://www.w3.org/2000/svg">
<path d="M5.25 28H2.625C1.92881 28 1.26113 27.7234 0.768845 27.2312C0.276562 26.7389 0 26.0712 0 25.375L0 11.375C0 10.6788 0.276562 10.0111 0.768845 9.51884C1.26113 9.02656 1.92881 8.75 2.625 8.75H8.47C8.70206 8.75 8.92462 8.84219 9.08872 9.00628C9.25281 9.17038 9.345 9.39294 9.345 9.625C9.345 9.85706 9.25281 10.0796 9.08872 10.2437C8.92462 10.4078 8.70206 10.5 8.47 10.5H2.625C2.39294 10.5 2.17038 10.5922 2.00628 10.7563C1.84219 10.9204 1.75 11.1429 1.75 11.375V25.375C1.75 25.6071 1.84219 25.8296 2.00628 25.9937C2.17038 26.1578 2.39294 26.25 2.625 26.25H5.25C5.48206 26.25 5.70462 26.3422 5.86872 26.5063C6.03281 26.6704 6.125 26.8929 6.125 27.125C6.125 27.3571 6.03281 27.5796 5.86872 27.7437C5.70462 27.9078 5.48206 28 5.25 28Z" fill="white"/>
<path d="M25.375 28H8.75C8.51794 28 8.29538 27.9078 8.13128 27.7437C7.96719 27.5796 7.875 27.3571 7.875 27.125C7.875 26.8929 7.96719 26.6704 8.13128 26.5063C8.29538 26.3422 8.51794 26.25 8.75 26.25H25.375C25.6071 26.25 25.8296 26.1578 25.9937 25.9937C26.1578 25.8296 26.25 25.6071 26.25 25.375V11.375C26.25 11.1429 26.1578 10.9204 25.9937 10.7563C25.8296 10.5922 25.6071 10.5 25.375 10.5H23.625C23.3929 10.5 23.1704 10.4078 23.0063 10.2437C22.8422 10.0796 22.75 9.85706 22.75 9.625C22.75 9.39294 22.8422 9.17038 23.0063 9.00628C23.1704 8.84219 23.3929 8.75 23.625 8.75H25.375C26.0712 8.75 26.7389 9.02656 27.2312 9.51884C27.7234 10.0111 28 10.6788 28 11.375V25.375C28 26.0712 27.7234 26.7389 27.2312 27.2312C26.7389 27.7234 26.0712 28 25.375 28Z" fill="white"/>
<path d="M14.0005 22.1091C13.3379 22.1096 12.6996 21.8596 12.2137 21.4091L1.15458 11.1418C0.984482 10.9838 0.884125 10.7647 0.875592 10.5326C0.867059 10.3006 0.951049 10.0747 1.10908 9.90459C1.26712 9.73448 1.48626 9.63412 1.71829 9.62559C1.95032 9.61706 2.17623 9.70105 2.34633 9.85909L13.4055 20.1255C13.5673 20.2755 13.7798 20.3589 14.0005 20.3589C14.2211 20.3589 14.4337 20.2755 14.5955 20.1255L25.6546 9.85909C25.8247 9.70105 26.0506 9.61706 26.2826 9.62559C26.5147 9.63412 26.7338 9.73448 26.8918 9.90459C27.0499 10.0747 27.1339 10.3006 27.1253 10.5326C27.1168 10.7647 27.0164 10.9838 26.8463 11.1418L15.7872 21.4108C15.301 21.8607 14.6628 22.1101 14.0005 22.1091Z" fill="white"/>
<path d="M1.74981 27.1247C1.57678 27.1246 1.40765 27.0733 1.26379 26.9772C1.11993 26.881 1.00781 26.7444 0.941595 26.5845C0.875384 26.4246 0.858056 26.2487 0.891803 26.079C0.92555 25.9093 1.00886 25.7534 1.13119 25.6311L9.29494 17.4673C9.45997 17.3079 9.68099 17.2197 9.91041 17.2217C10.1398 17.2237 10.3593 17.3157 10.5215 17.478C10.6838 17.6402 10.7758 17.8597 10.7778 18.0891C10.7798 18.3185 10.6916 18.5395 10.5322 18.7046L2.36844 26.8683C2.20438 27.0324 1.98186 27.1246 1.74981 27.1247Z" fill="white"/>
<path d="M26.2497 27.1247C26.0176 27.1246 25.7951 27.0324 25.6311 26.8683L17.4673 18.7046C17.3079 18.5395 17.2197 18.3185 17.2217 18.0891C17.2237 17.8597 17.3157 17.6402 17.478 17.478C17.6402 17.3157 17.8597 17.2237 18.0891 17.2217C18.3185 17.2197 18.5395 17.3079 18.7046 17.4673L26.8683 25.6311C26.9906 25.7534 27.0739 25.9093 27.1077 26.079C27.1414 26.2487 27.1241 26.4246 27.0579 26.5845C26.9917 26.7444 26.8796 26.881 26.7357 26.9772C26.5918 27.0733 26.4227 27.1246 26.2497 27.1247Z" fill="white"/>
<path d="M14 14C12.6155 14 11.2622 13.5895 10.111 12.8203C8.95987 12.0511 8.06266 10.9579 7.53285 9.67879C7.00303 8.3997 6.86441 6.99224 7.13451 5.63437C7.4046 4.2765 8.07129 3.02922 9.05026 2.05026C10.0292 1.07129 11.2765 0.404603 12.6344 0.134506C13.9922 -0.13559 15.3997 0.00303297 16.6788 0.532846C17.9579 1.06266 19.0511 1.95987 19.8203 3.11101C20.5895 4.26216 21 5.61553 21 7C20.9979 8.85588 20.2598 10.6351 18.9474 11.9474C17.6351 13.2598 15.8559 13.9979 14 14ZM14 1.75C12.9617 1.75 11.9466 2.05791 11.0833 2.63479C10.2199 3.21167 9.547 4.0316 9.14964 4.99092C8.75228 5.95023 8.64831 7.00583 8.85088 8.02423C9.05345 9.04263 9.55347 9.97809 10.2877 10.7123C11.0219 11.4465 11.9574 11.9466 12.9758 12.1491C13.9942 12.3517 15.0498 12.2477 16.0091 11.8504C16.9684 11.453 17.7883 10.7801 18.3652 9.91675C18.9421 9.05339 19.25 8.03835 19.25 7C19.2486 5.60804 18.695 4.27349 17.7108 3.28923C16.7265 2.30496 15.392 1.75139 14 1.75Z" fill="white"/>
<path d="M13.9998 10.4998C13.7677 10.4998 13.5452 10.4076 13.3811 10.2435C13.217 10.0794 13.1248 9.85688 13.1248 9.62481V6.12481C12.9518 6.12478 12.7826 6.07344 12.6388 5.97729C12.4949 5.88114 12.3828 5.7445 12.3166 5.58464C12.2504 5.42477 12.2331 5.24887 12.2668 5.07916C12.3005 4.90945 12.3839 4.75356 12.5062 4.63119L13.3812 3.75619C13.5036 3.63386 13.6595 3.55055 13.8292 3.5168C13.9989 3.48306 14.1748 3.50038 14.3346 3.5666C14.4945 3.63281 14.6311 3.74493 14.7273 3.88879C14.8234 4.03265 14.8748 4.20178 14.8748 4.37481V9.62481C14.8748 9.85688 14.7826 10.0794 14.6185 10.2435C14.4544 10.4076 14.2319 10.4998 13.9998 10.4998Z" fill="white"/>
</svg>
