<svg width="32" height="32" viewBox="0 0 32 32" fill="none" xmlns="http://www.w3.org/2000/svg">
<path fill-rule="evenodd" clip-rule="evenodd" d="M29.3337 16.0003C29.3337 23.3641 23.3641 29.3337 16.0003 29.3337C8.63653 29.3337 2.66699 23.3641 2.66699 16.0003C2.66699 8.63653 8.63653 2.66699 16.0003 2.66699C23.3641 2.66699 29.3337 8.63653 29.3337 16.0003ZM21.3337 12.0003C21.3337 14.9458 18.9458 17.3337 16.0003 17.3337C13.0548 17.3337 10.667 14.9458 10.667 12.0003C10.667 9.05481 13.0548 6.66699 16.0003 6.66699C18.9458 6.66699 21.3337 9.05481 21.3337 12.0003ZM16.0003 27.3337C19.7674 27.3337 23.1053 25.4957 25.166 22.6676C23.7138 20.6485 21.344 19.3337 18.667 19.3337H13.3337C10.6567 19.3337 8.28683 20.6485 6.83464 22.6676C8.89538 25.4957 12.2332 27.3337 16.0003 27.3337Z" fill="white"/>
</svg>
