<svg width="318" height="319" viewBox="0 0 318 319" fill="none" xmlns="http://www.w3.org/2000/svg">
<path fill-rule="evenodd" clip-rule="evenodd" d="M193.486 256.837L258.21 257.922C258.21 257.922 257.061 228.3 258.21 207.319C259.362 186.339 258.21 169.06 258.21 169.06L258.721 93.1743L223.831 35.3203C223.831 35.3203 203.28 34.8275 198.417 33.7197C185.767 30.832 145.522 32.6849 145.522 32.6849H100.676C100.676 32.6849 99.8366 84.4344 100.309 128.757L100.165 200.909V253.396L193.486 256.837Z" fill="#2C2136"/>
<path fill-rule="evenodd" clip-rule="evenodd" d="M193.486 256.837L258.21 257.922C258.21 257.922 257.061 228.3 258.21 207.319C259.362 186.339 258.21 169.06 258.21 169.06L258.721 93.1743L223.831 35.3203C223.831 35.3203 203.28 34.8275 198.417 33.7197C185.767 30.832 145.522 32.6849 145.522 32.6849H100.676C100.676 32.6849 99.8366 84.4344 100.309 128.757L100.165 200.909V253.396L193.486 256.837Z" stroke="white" stroke-width="2" stroke-linecap="round" stroke-linejoin="round"/>
<path fill-rule="evenodd" clip-rule="evenodd" d="M100.31 128.756L100.167 200.909V253.396L193.487 256.837L258.213 257.921C258.213 257.921 254.076 260.58 253.91 260.58C253.745 260.58 99.5238 255.992 99.5238 255.992L96.8003 110.033L100.677 32.6865L100.31 128.756Z" fill="white"/>
<path fill-rule="evenodd" clip-rule="evenodd" d="M100.31 128.756L100.167 200.909V253.396L193.487 256.837L258.213 257.921C258.213 257.921 254.076 260.58 253.91 260.58C253.745 260.58 99.5238 255.992 99.5238 255.992L96.8003 110.033L100.677 32.6865L100.31 128.756Z" fill="white" stroke="white" stroke-width="2" stroke-linecap="round" stroke-linejoin="round"/>
<path fill-rule="evenodd" clip-rule="evenodd" d="M258.722 93.1734L219.124 88.0209L222.115 72.6443C224.233 64.5962 223.348 56.3353 223.542 47.9719L223.832 35.3193C223.832 35.3193 220.299 62.0436 219.337 64.2454C218.374 66.4471 211.638 88.4802 211.638 88.4802L258.722 93.1734Z" fill="white"/>
<path fill-rule="evenodd" clip-rule="evenodd" d="M258.722 93.1734L219.124 88.0209L222.115 72.6443C224.233 64.5962 223.348 56.3353 223.542 47.9719L223.832 35.3193C223.832 35.3193 220.299 62.0436 219.337 64.2454C218.374 66.4471 211.638 88.4802 211.638 88.4802L258.722 93.1734Z" fill="white" stroke="white" stroke-width="2" stroke-linecap="round" stroke-linejoin="round"/>
<mask id="mask0_3867_14370" style="mask-type:luminance" maskUnits="userSpaceOnUse" x="32" y="68" width="135" height="20">
<path fill-rule="evenodd" clip-rule="evenodd" d="M32.8125 68.0576H166.239V87.678H32.8125V68.0576Z" fill="white"/>
</mask>
<g mask="url(#mask0_3867_14370)">
<path fill-rule="evenodd" clip-rule="evenodd" d="M36.6618 68.0576H32.8125V87.678H166.239V84.2365H36.6618V68.0576Z" fill="white" stroke="white" stroke-width="2"/>
</g>
<path fill-rule="evenodd" clip-rule="evenodd" d="M123.708 215.873H70.4676V137.729H63.4099V219.66H123.708V215.873Z" fill="white"/>
<path fill-rule="evenodd" clip-rule="evenodd" d="M250.125 197.952C257.148 197.952 263.018 195.863 267.703 192.408C263.756 194.438 259.157 195.613 253.91 195.613C220.262 195.613 213.099 147.699 235.668 131.027C208.642 144.908 214.721 197.952 250.125 197.952Z" fill="white"/>
<path fill-rule="evenodd" clip-rule="evenodd" d="M250.125 197.952C257.148 197.952 263.018 195.863 267.703 192.408C263.756 194.438 259.157 195.613 253.91 195.613C220.262 195.613 213.099 147.699 235.668 131.027C208.642 144.908 214.721 197.952 250.125 197.952Z" fill="white" stroke="white" stroke-width="2" stroke-linecap="round" stroke-linejoin="round"/>
<path fill-rule="evenodd" clip-rule="evenodd" d="M248.689 282.311H177.7L174.277 286.899H249.971L248.689 282.311Z" fill="white"/>
<path fill-rule="evenodd" clip-rule="evenodd" d="M248.689 282.311H177.7L174.277 286.899H249.971L248.689 282.311Z" stroke="white" stroke-width="2" stroke-linecap="round" stroke-linejoin="round"/>
<path d="M126.57 104.337C126.57 104.337 138.563 103.993 167.135 104.337C195.707 104.682 213.58 103.23 232.862 104.186" stroke="white" stroke-width="2" stroke-linecap="round" stroke-linejoin="round"/>
<path d="M126.57 116.156C126.57 116.156 151.027 113.862 176.894 114.319C202.762 114.78 232.862 114.26 232.862 114.26" stroke="white" stroke-width="2" stroke-linecap="round" stroke-linejoin="round"/>
<path d="M128.337 125.797C128.337 125.797 163.258 124.419 179.719 125.797C196.18 127.172 221.107 125.491 221.107 125.491L232.864 125.184" stroke="white" stroke-width="2" stroke-linecap="round" stroke-linejoin="round"/>
<path d="M126.57 137.287C126.57 137.287 155.26 135.107 172.663 135.566C190.064 136.024 206.054 136.357 216.401 135.503C226.748 134.648 229.099 135.503 229.099 135.503" stroke="white" stroke-width="2" stroke-linecap="round" stroke-linejoin="round"/>
<path d="M126.57 146.834C126.57 146.834 138.563 146.489 167.135 146.834C195.707 147.179 213.58 145.727 232.862 146.681" stroke="white" stroke-width="2" stroke-linecap="round" stroke-linejoin="round"/>
<path d="M126.57 158.653C126.57 158.653 151.027 156.359 176.894 156.816C202.762 157.275 232.862 156.755 232.862 156.755" stroke="white" stroke-width="2" stroke-linecap="round" stroke-linejoin="round"/>
<path d="M128.337 168.291C128.337 168.291 163.258 166.915 179.719 168.291C196.18 169.667 221.107 167.985 221.107 167.985L232.864 167.678" stroke="white" stroke-width="2" stroke-linecap="round" stroke-linejoin="round"/>
<path d="M128.337 179.781C128.337 179.781 155.262 177.603 172.665 178.06C190.066 178.52 206.057 178.851 216.404 177.997C226.75 177.142 229.101 177.997 229.101 177.997" stroke="white" stroke-width="2" stroke-linecap="round" stroke-linejoin="round"/>
<path d="M126.57 189.604C126.57 189.604 138.563 189.259 167.135 189.604C195.707 189.949 213.58 188.496 232.862 189.452" stroke="white" stroke-width="2" stroke-linecap="round" stroke-linejoin="round"/>
<path d="M126.57 201.423C126.57 201.423 151.027 199.128 176.894 199.586C202.762 200.047 232.862 199.527 232.862 199.527" stroke="white" stroke-width="2" stroke-linecap="round" stroke-linejoin="round"/>
<path d="M128.337 211.06C128.337 211.06 163.258 209.684 179.719 211.06C196.18 212.438 221.107 210.755 221.107 210.755L232.864 210.447" stroke="white" stroke-width="2" stroke-linecap="round" stroke-linejoin="round"/>
<path d="M128.337 221.47C128.337 221.47 155.262 220.372 172.665 220.831C190.066 221.29 206.057 221.621 216.404 220.768C226.75 219.915 229.101 220.768 229.101 220.768" stroke="white" stroke-width="2" stroke-linecap="round" stroke-linejoin="round"/>
<path fill-rule="evenodd" clip-rule="evenodd" d="M36.6619 64.2688L72.5841 66.2656L140.579 62.2031L171.37 64.2688V84.2362H36.6619V64.2688Z" fill="#2C2136"/>
<path fill-rule="evenodd" clip-rule="evenodd" d="M36.6619 64.2688L72.5841 66.2656L140.579 62.2031L171.37 64.2688V84.2362H36.6619V64.2688Z" stroke="white" stroke-width="2" stroke-linecap="round" stroke-linejoin="round"/>
<path fill-rule="evenodd" clip-rule="evenodd" d="M70.4661 128.437C71.4266 128.093 106.388 132.224 132.687 131.879C131.725 184.204 132.687 215.874 132.687 215.874H123.707H70.4661V137.731V128.437Z" fill="white"/>
<path fill-rule="evenodd" clip-rule="evenodd" d="M70.4661 128.437C71.4266 128.093 106.388 132.224 132.687 131.879C131.725 184.204 132.687 215.874 132.687 215.874H123.707H70.4661V137.731V128.437Z" stroke="white" stroke-width="2" stroke-linecap="round" stroke-linejoin="round"/>
<path fill-rule="evenodd" clip-rule="evenodd" d="M253.911 195.612C294.645 195.612 296.57 125.386 253.911 125.386C211.253 125.386 213.177 195.612 253.911 195.612Z" fill="#2C2136"/>
<path fill-rule="evenodd" clip-rule="evenodd" d="M253.911 195.612C294.645 195.612 296.57 125.386 253.911 125.386C211.253 125.386 213.177 195.612 253.911 195.612Z" stroke="white" stroke-width="2" stroke-linecap="round" stroke-linejoin="round"/>
<path fill-rule="evenodd" clip-rule="evenodd" d="M172.993 282.311L223.027 215.873L232.544 240.206L251.954 282.311H246.549H180.264H172.993Z" fill="white"/>
<path fill-rule="evenodd" clip-rule="evenodd" d="M172.993 282.311L223.027 215.873L232.544 240.206L251.954 282.311H246.549H180.264H172.993Z" stroke="white" stroke-width="2" stroke-linecap="round" stroke-linejoin="round"/>
<path d="M243.281 143.789H265.723" stroke="white" stroke-width="2" stroke-linecap="round" stroke-linejoin="round"/>
<path d="M239.428 150.673H269.567" stroke="white" stroke-width="2" stroke-linecap="round" stroke-linejoin="round"/>
<path d="M236.865 157.559H272.133" stroke="white" stroke-width="2" stroke-linecap="round" stroke-linejoin="round"/>
<path d="M236.865 164.444H272.133" stroke="white" stroke-width="2" stroke-linecap="round" stroke-linejoin="round"/>
<path d="M240.713 171.327H269.568" stroke="white" stroke-width="2" stroke-linecap="round" stroke-linejoin="round"/>
<path d="M245.845 178.212H255.455" stroke="white" stroke-width="2" stroke-linecap="round" stroke-linejoin="round"/>
<path d="M81.7935 146.688L117.718 149.477" stroke="#2C2136" stroke-width="2" stroke-linecap="round" stroke-linejoin="round"/>
<path d="M81.3252 157.224L117.247 158.497" stroke="#2C2136" stroke-width="2" stroke-linecap="round" stroke-linejoin="round"/>
<path d="M81.3252 165.485L117.247 166.759" stroke="#2C2136" stroke-width="2" stroke-linecap="round" stroke-linejoin="round"/>
<path d="M81.3252 175.122L99.7528 175.776" stroke="#2C2136" stroke-width="2" stroke-linecap="round" stroke-linejoin="round"/>
<path d="M81.3252 184.762L117.247 186.035" stroke="#2C2136" stroke-width="2" stroke-linecap="round" stroke-linejoin="round"/>
<path d="M81.3252 193.023L117.247 194.297" stroke="#2C2136" stroke-width="2" stroke-linecap="round" stroke-linejoin="round"/>
<path d="M81.3252 201.284L93.5582 201.72" stroke="#2C2136" stroke-width="2" stroke-linecap="round" stroke-linejoin="round"/>
<path d="M44.1985 71.8438H163.511" stroke="white" stroke-width="2" stroke-linecap="round" stroke-linejoin="round"/>
<path d="M44.1985 78.4512H132.687" stroke="white" stroke-width="2" stroke-linecap="round" stroke-linejoin="round"/>
<path d="M214.83 241.398L226.804 241.302" stroke="#2C2136" stroke-width="2" stroke-linecap="round" stroke-linejoin="round"/>
<path d="M214.189 248.283L229.101 248.187" stroke="#2C2136" stroke-width="2" stroke-linecap="round" stroke-linejoin="round"/>
<path d="M207.773 255.166L231.722 255.071" stroke="#2C2136" stroke-width="2" stroke-linecap="round" stroke-linejoin="round"/>
<path d="M207.133 262.053L234.502 261.956" stroke="#2C2136" stroke-width="2" stroke-linecap="round" stroke-linejoin="round"/>
<path d="M206.272 270.312L236.863 270.216" stroke="#2C2136" stroke-width="2" stroke-linecap="round" stroke-linejoin="round"/>
<path fill-rule="evenodd" clip-rule="evenodd" d="M199.864 261.955C199.864 261.194 199.291 260.579 198.583 260.579C197.874 260.579 197.299 261.194 197.299 261.955C197.299 262.718 197.874 263.333 198.583 263.333C199.291 263.333 199.864 262.718 199.864 261.955Z" fill="#2C2136"/>
<path fill-rule="evenodd" clip-rule="evenodd" d="M199.864 261.955C199.864 261.194 199.291 260.579 198.583 260.579C197.874 260.579 197.299 261.194 197.299 261.955C197.299 262.718 197.874 263.333 198.583 263.333C199.291 263.333 199.864 262.718 199.864 261.955Z" stroke="#2C2136" stroke-width="2" stroke-linecap="round" stroke-linejoin="round"/>
<path fill-rule="evenodd" clip-rule="evenodd" d="M199.864 270.218C199.864 269.457 199.291 268.842 198.583 268.842C197.874 268.842 197.299 269.457 197.299 270.218C197.299 270.98 197.874 271.595 198.583 271.595C199.291 271.595 199.864 270.98 199.864 270.218Z" fill="#2C2136"/>
<path fill-rule="evenodd" clip-rule="evenodd" d="M199.864 270.218C199.864 269.457 199.291 268.842 198.583 268.842C197.874 268.842 197.299 269.457 197.299 270.218C197.299 270.98 197.874 271.595 198.583 271.595C199.291 271.595 199.864 270.98 199.864 270.218Z" stroke="#2C2136" stroke-width="2" stroke-linecap="round" stroke-linejoin="round"/>
</svg>
