<svg width="71" height="60" viewBox="0 0 71 60" fill="none" xmlns="http://www.w3.org/2000/svg">
<path d="M53.9762 4H17.0238C15.2936 4 13.6342 4.54786 12.4108 5.52304C11.1873 6.49823 10.5 7.82087 10.5 9.2V50.8C10.5 51.4829 10.6687 52.1591 10.9966 52.79C11.3244 53.4208 11.805 53.9941 12.4108 54.477C13.0166 54.9598 13.7357 55.3428 14.5272 55.6042C15.3187 55.8655 16.1671 56 17.0238 56H53.9762C54.833 56 55.6813 55.8655 56.4728 55.6042C57.2643 55.3428 57.9834 54.9598 58.5892 54.477C59.195 53.9941 59.6756 53.4208 60.0034 52.79C60.3313 52.1591 60.5 51.4829 60.5 50.8V9.2C60.5 8.51713 60.3313 7.84094 60.0034 7.21005C59.6756 6.57915 59.195 6.00591 58.5892 5.52304C57.9834 5.04018 57.2643 4.65715 56.4728 4.39583C55.6813 4.1345 54.833 4 53.9762 4ZM56.1664 50.8C56.1602 51.2598 55.9268 51.699 55.5167 52.0224C55.1066 52.3458 54.5531 52.5272 53.9762 52.5271H17.0238C16.4469 52.5272 15.8934 52.3458 15.4833 52.0224C15.0732 51.699 14.8398 51.2598 14.8336 50.8V9.2C14.8398 8.74023 15.0732 8.30096 15.4833 7.97758C15.8934 7.6542 16.4469 7.47283 17.0238 7.47286H53.9762C54.5531 7.47283 55.1066 7.6542 55.5167 7.97758C55.9268 8.30096 56.1602 8.74023 56.1664 9.2V50.8Z" fill="#9D40F9"/>
<path d="M47.4008 28.2566H37.5352V19.8004C37.5352 19.3379 37.3208 18.8944 36.9393 18.5674C36.5578 18.2404 36.0403 18.0566 35.5008 18.0566C34.9612 18.0566 34.4438 18.2404 34.0623 18.5674C33.6807 18.8944 33.4664 19.3379 33.4664 19.8004V28.2566H23.6008C23.0612 28.2566 22.5438 28.4404 22.1623 28.7674C21.7807 29.0944 21.5664 29.5379 21.5664 30.0004C21.5664 30.4629 21.7807 30.9064 22.1623 31.2334C22.5438 31.5604 23.0612 31.7441 23.6008 31.7441H33.4664V40.2004C33.4664 40.6629 33.6807 41.1064 34.0623 41.4334C34.4438 41.7604 34.9612 41.9441 35.5008 41.9441C36.0403 41.9441 36.5578 41.7604 36.9393 41.4334C37.3208 41.1064 37.5352 40.6629 37.5352 40.2004V31.7441H47.4008C47.9403 31.7441 48.4578 31.5604 48.8393 31.2334C49.2208 30.9064 49.4352 30.4629 49.4352 30.0004C49.4352 29.5379 49.2208 29.0944 48.8393 28.7674C48.4578 28.4404 47.9403 28.2566 47.4008 28.2566Z" fill="#9D40F9"/>
</svg>
