<svg width="20" height="19" viewBox="0 0 20 19" fill="none" xmlns="http://www.w3.org/2000/svg">
<path fill-rule="evenodd" clip-rule="evenodd" d="M6.26668 5.81073L0.857294 6.59676C0.0370735 6.71595 -0.290436 7.72392 0.303081 8.30246L4.21735 12.1179L3.29332 17.5055C3.15321 18.3224 4.01064 18.9453 4.74427 18.5596L9.58257 16.016L14.4209 18.5596C15.1545 18.9453 16.0119 18.3224 15.8718 17.5055L14.9478 12.1179L18.8621 8.30246C19.4556 7.72392 19.1281 6.71595 18.3078 6.59676L12.8985 5.81073L10.4793 0.908996C10.1125 0.165751 9.05265 0.165752 8.68583 0.908997L6.26668 5.81073ZM11.9024 7.18175L9.58257 2.48134L7.26278 7.18175L2.07557 7.93549L5.82907 11.5942L4.94299 16.7605L9.58257 14.3213L14.2221 16.7605L13.3361 11.5942L17.0896 7.93549L11.9024 7.18175Z" fill="white"/>
</svg>
