<svg width="61" height="60" viewBox="0 0 61 60" fill="none" xmlns="http://www.w3.org/2000/svg">
<g clip-path="url(#clip0_1846_2503)">
<path d="M30.5 5V21.25C30.5 23.3211 32.179 25 34.25 25H50.5V50C50.5 52.7615 48.2615 55 45.5 55H15.5C12.7386 55 10.5 52.7615 10.5 50V47.5H19.0354L16.2321 50.3032C15.2558 51.2795 15.2558 52.8625 16.2321 53.8387C17.2084 54.8153 18.7913 54.8153 19.7676 53.8387L26.8387 46.7677C27.815 45.7915 27.815 44.2085 26.8387 43.2323L19.7676 36.1613C18.7913 35.1848 17.2084 35.1848 16.2321 36.1613C15.2558 37.1375 15.2558 38.7205 16.2321 39.6968L19.0354 42.5H10.5V10C10.5 7.23857 12.7386 5 15.5 5H30.5ZM10.5 42.5V47.5H8C6.6193 47.5 5.5 46.3807 5.5 45C5.5 43.6193 6.6193 42.5 8 42.5H10.5ZM35.5 5.1084C36.4398 5.30737 37.3102 5.77477 38 6.46447L49.0355 17.5C49.7253 18.1897 50.1927 19.0602 50.3915 20H35.5V5.1084Z" fill="#9D40F9"/>
</g>
<defs>
<clipPath id="clip0_1846_2503">
<rect width="60" height="60" fill="white" transform="translate(0.5)"/>
</clipPath>
</defs>
</svg>
