<svg width="15" height="14" viewBox="0 0 15 14" fill="none" xmlns="http://www.w3.org/2000/svg">
<path d="M9.27734 5.14551C10.8008 6.66895 10.7754 9.10645 9.27734 10.5791C9.27734 10.6045 9.27734 10.6045 9.27734 10.6045L7.57617 12.3057C6.07812 13.8037 3.61523 13.8037 2.11719 12.3057C0.619141 10.8076 0.619141 8.34473 2.11719 6.84668L3.05664 5.90723C3.31055 5.65332 3.74219 5.83105 3.74219 6.18652C3.76758 6.61816 3.84375 7.0752 3.99609 7.50684C4.04688 7.65918 4.02148 7.83691 3.89453 7.93848L3.56445 8.26855C2.85352 8.97949 2.82812 10.1475 3.53906 10.8584C4.25 11.5947 5.41797 11.5947 6.12891 10.8584L7.85547 9.15723C8.56641 8.44629 8.56641 7.30371 7.85547 6.56738C7.75391 6.49121 7.65234 6.41504 7.57617 6.36426C7.47461 6.28809 7.39844 6.18652 7.39844 6.03418C7.39844 5.78027 7.5 5.50098 7.70312 5.27246L8.23633 4.73926C8.38867 4.6123 8.5918 4.58691 8.76953 4.71387C8.94727 4.84082 9.125 4.99316 9.27734 5.14551ZM12.8574 1.56543C14.3555 3.06348 14.3555 5.52637 12.8574 7.02441L11.918 7.96387C11.6641 8.21777 11.2324 8.04004 11.2324 7.68457C11.207 7.25293 11.1309 6.7959 10.9785 6.36426C10.9277 6.21191 10.9531 6.03418 11.0801 5.93262L11.4102 5.60254C12.1211 4.8916 12.1465 3.72363 11.4355 3.0127C10.7246 2.27637 9.55664 2.27637 8.8457 3.0127L7.11914 4.71387C6.4082 5.4248 6.4082 6.56738 7.11914 7.30371C7.2207 7.37988 7.32227 7.45605 7.39844 7.50684C7.5 7.58301 7.57617 7.68457 7.57617 7.83691C7.57617 8.09082 7.47461 8.37012 7.27148 8.59863L6.73828 9.13184C6.58594 9.25879 6.38281 9.28418 6.20508 9.15723C6.02734 9.03027 5.84961 8.87793 5.69727 8.72559C4.17383 7.20215 4.19922 4.76465 5.69727 3.29199C5.69727 3.2666 5.69727 3.2666 5.69727 3.2666L7.39844 1.56543C8.89648 0.0673828 11.3594 0.0673828 12.8574 1.56543Z" fill="white"/>
</svg>
