<svg width="50" height="50" viewBox="0 0 50 50" fill="none" xmlns="http://www.w3.org/2000/svg">
<rect width="50" height="50" rx="25" fill="#CC0001"/>
<path d="M22.6307 34H16.6307L19.5284 16.5455H25.4773C27.2102 16.5455 28.6477 16.9034 29.7898 17.6193C30.9318 18.3352 31.733 19.358 32.1932 20.6875C32.6591 22.0114 32.7386 23.5909 32.4318 25.4261C32.1364 27.2216 31.554 28.7585 30.6847 30.0369C29.8153 31.3153 28.6989 32.2955 27.3352 32.9773C25.9716 33.6591 24.4034 34 22.6307 34ZM20.2443 31.2642H22.7926C24.0028 31.2642 25.0568 31.0341 25.9545 30.5739C26.858 30.108 27.5938 29.4176 28.1619 28.5028C28.7358 27.5824 29.1335 26.4403 29.3551 25.0767C29.5767 23.7699 29.5625 22.6903 29.3125 21.8381C29.0625 20.9801 28.5767 20.3409 27.8551 19.9205C27.1392 19.4943 26.1903 19.2812 25.0085 19.2812H22.2301L20.2443 31.2642Z" fill="white"/>
</svg>
