<svg width="32" height="32" viewBox="0 0 32 32" fill="none" xmlns="http://www.w3.org/2000/svg">
<path d="M21.8343 10.7558C23.7199 13.5478 24.6511 16.697 24.303 20.3225C24.3015 20.3378 24.2936 20.3519 24.2811 20.3612C22.8532 21.4171 21.4697 22.0579 20.1057 22.4829C20.0951 22.4861 20.0837 22.4859 20.0732 22.4824C20.0627 22.4788 20.0535 22.472 20.047 22.4629C19.7319 22.0213 19.4456 21.5558 19.1947 21.0669C19.1803 21.0381 19.1935 21.0035 19.2231 20.9921C19.6779 20.8196 20.1103 20.6127 20.5262 20.3679C20.559 20.3486 20.5611 20.3013 20.5308 20.2786C20.4425 20.2126 20.3551 20.1432 20.2714 20.0739C20.2557 20.061 20.2347 20.0585 20.2169 20.0671C17.5166 21.3229 14.5586 21.3229 11.8263 20.0671C11.8086 20.0592 11.7875 20.0619 11.7723 20.0745C11.6888 20.1439 11.6011 20.2126 11.5137 20.2786C11.4834 20.3013 11.4859 20.3486 11.5189 20.3679C11.9349 20.6081 12.3673 20.8196 12.8214 20.993C12.8508 21.0043 12.8648 21.0381 12.8502 21.0669C12.6048 21.5564 12.3184 22.022 11.9975 22.4635C11.9835 22.4814 11.9605 22.4896 11.9388 22.4829C10.5813 22.0579 9.19781 21.4171 7.76992 20.3612C7.75802 20.3519 7.74947 20.3372 7.74822 20.3219C7.45729 17.1859 8.0502 14.0106 10.2146 10.7552C10.2198 10.7466 10.2277 10.7399 10.2369 10.7359C11.3019 10.2437 12.4428 9.88152 13.6353 9.67471C13.657 9.67135 13.6787 9.68144 13.69 9.70078C13.8373 9.96349 14.0057 10.3004 14.1197 10.5757C15.3767 10.3824 16.6532 10.3824 17.9365 10.5757C18.0505 10.3063 18.213 9.96349 18.3597 9.70078C18.365 9.69118 18.3731 9.6835 18.3829 9.67882C18.3927 9.67414 18.4037 9.6727 18.4144 9.67471C19.6075 9.88215 20.7485 10.2443 21.8126 10.7359C21.822 10.7399 21.8297 10.7466 21.8343 10.7558ZM14.7587 16.7185C14.7719 15.7914 14.1007 15.0242 13.2582 15.0242C12.4226 15.0242 11.7579 15.7847 11.7579 16.7185C11.7579 17.652 12.4357 18.4124 13.2582 18.4124C14.094 18.4124 14.7587 17.652 14.7587 16.7185ZM20.3062 16.7185C20.3194 15.7914 19.6482 15.0242 18.8059 15.0242C17.9701 15.0242 17.3054 15.7847 17.3054 16.7185C17.3054 17.652 17.9833 18.4124 18.8059 18.4124C19.6482 18.4124 20.3062 17.652 20.3062 16.7185Z" fill="white"/>
</svg>
