<svg width="32" height="32" viewBox="0 0 32 32" fill="none" xmlns="http://www.w3.org/2000/svg">
<path fill-rule="evenodd" clip-rule="evenodd" d="M15.9408 7.36328C10.9716 7.36328 6.94678 11.3721 6.94678 16.3215C6.94678 20.2856 9.52132 23.6337 13.0965 24.8207C13.5462 24.8991 13.7148 24.6303 13.7148 24.3952C13.7148 24.1824 13.7035 23.477 13.7035 22.7267C11.4438 23.141 10.8592 22.178 10.6793 21.6741C10.5781 21.4166 10.1397 20.6215 9.75741 20.4088C9.44262 20.2408 8.99292 19.8265 9.74617 19.8153C10.4545 19.8041 10.9604 20.4647 11.129 20.7335C11.9385 22.0884 13.2314 21.7077 13.7485 21.4726C13.8272 20.8903 14.0633 20.4983 14.3219 20.2744C12.3207 20.0504 10.2296 19.2778 10.2296 15.8512C10.2296 14.877 10.5781 14.0708 11.1515 13.4437C11.0616 13.2197 10.7468 12.3015 11.2414 11.0698C11.2414 11.0698 11.9947 10.8346 13.7148 11.988C14.4343 11.7864 15.1988 11.6856 15.9633 11.6856C16.7278 11.6856 17.4923 11.7864 18.2118 11.988C19.9319 10.8234 20.6852 11.0698 20.6852 11.0698C21.1798 12.3015 20.8651 13.2197 20.7751 13.4437C21.3485 14.0708 21.697 14.8658 21.697 15.8512C21.697 19.289 19.5946 20.0504 17.5935 20.2744C17.9195 20.5543 18.2006 21.0918 18.2006 21.9317C18.2006 23.1298 18.1893 24.0928 18.1893 24.3952C18.1893 24.6303 18.358 24.9103 18.8077 24.8207C22.3603 23.6337 24.9349 20.2744 24.9349 16.3215C24.9349 11.3721 20.91 7.36328 15.9408 7.36328Z" fill="white"/>
</svg>
