<svg width="24" height="24" viewBox="0 0 24 24" fill="none" xmlns="http://www.w3.org/2000/svg">
<path d="M23.9999 12.2771C23.9999 11.4614 23.9325 10.6413 23.7885 9.83887H12.2417V14.4596H18.854C18.5796 15.9499 17.698 17.2682 16.407 18.1059V21.1041H20.3519C22.6685 19.0142 23.9999 15.9278 23.9999 12.2771Z" fill="#889BFF"/>
<path d="M12.2418 23.9998C15.5435 23.9998 18.3279 22.9372 20.3565 21.1031L16.4116 18.1049C15.3141 18.8368 13.8971 19.2512 12.2463 19.2512C9.05261 19.2512 6.34471 17.1393 5.3731 14.2998H1.30225V17.3906C3.3804 21.4426 7.61319 23.9998 12.2418 23.9998Z" fill="#00BD34"/>
<path d="M5.36858 14.3003C4.85578 12.81 4.85578 11.1963 5.36858 9.70602V6.61523H1.30222C-0.434074 10.0058 -0.434074 14.0005 1.30222 17.3911L5.36858 14.3003Z" fill="#FDE930"/>
<path d="M12.2418 4.74941C13.9871 4.72296 15.6739 5.36669 16.9379 6.54833L20.433 3.12245C18.2199 1.08545 15.2826 -0.0344642 12.2418 0.000808624C7.61319 0.000808624 3.38041 2.55809 1.30225 6.61446L5.3686 9.70525C6.33571 6.86137 9.04811 4.74941 12.2418 4.74941Z" fill="#F75151"/>
</svg>
