<svg width="50" height="50" viewBox="0 0 50 50" fill="none" xmlns="http://www.w3.org/2000/svg">
<g clip-path="url(#clip0_1865_1979)">
<path d="M42.8839 42.338H35.4263V30.7742C35.4263 28.0167 35.3766 24.4669 31.5476 24.4669C27.6635 24.4669 27.0692 27.4714 27.0692 30.5735V42.3373H19.6116V18.5573H26.7709V21.8071H26.8711C27.5876 20.5942 28.6229 19.5963 29.8668 18.9199C31.1107 18.2434 32.5166 17.9137 33.9348 17.9658C41.4934 17.9658 42.887 22.8886 42.887 29.2928L42.8839 42.338ZM11.197 15.3068C10.3411 15.3069 9.50428 15.0558 8.79251 14.5851C8.08073 14.1143 7.52596 13.4452 7.19826 12.6622C6.87056 11.8793 6.78468 11.0177 6.95152 10.1865C7.11835 9.35521 7.5304 8.59161 8.13554 7.99222C8.74067 7.39283 9.51173 6.98458 10.3512 6.81909C11.1907 6.6536 12.0608 6.7383 12.8517 7.06249C13.6425 7.38668 14.3185 7.93579 14.7942 8.64038C15.2698 9.34498 15.5238 10.1734 15.524 11.0209C15.5241 11.5837 15.4122 12.1409 15.1948 12.6608C14.9774 13.1807 14.6588 13.6532 14.257 14.0512C13.8552 14.4492 13.3781 14.7649 12.8531 14.9803C12.3281 15.1957 11.7653 15.3067 11.197 15.3068ZM14.9258 42.338H7.46046V18.5573H14.9258V42.338ZM46.6018 -0.120628H3.71305C2.7396 -0.131505 1.80156 0.240728 1.10514 0.914276C0.408727 1.58782 0.0109039 2.50758 -0.000976562 3.47144V46.1139C0.0104973 47.0783 0.408087 47.9987 1.10448 48.6729C1.80087 49.3471 2.73911 49.7201 3.71305 49.7099H46.6018C47.5777 49.722 48.5185 49.3501 49.2177 48.6758C49.9168 48.0016 50.3171 47.0802 50.3306 46.1139V3.46836C50.3167 2.50259 49.9161 1.58179 49.217 0.908258C48.5178 0.234727 47.5772 -0.136443 46.6018 -0.123706" fill="#248AF0"/>
</g>
<defs>
<clipPath id="clip0_1865_1979">
<rect width="50" height="50" fill="white"/>
</clipPath>
</defs>
</svg>
