<svg width="24" height="24" viewBox="0 0 24 24" fill="none" xmlns="http://www.w3.org/2000/svg">
<g clip-path="url(#clip0_271_1203)">
<path d="M20.5842 20.3222H17.0046V14.7716C17.0046 13.448 16.9808 11.7441 15.1428 11.7441C13.2785 11.7441 12.9932 13.1862 12.9932 14.6752V20.3219H9.41355V8.90748H12.85V10.4674H12.8981C13.242 9.88516 13.739 9.40619 14.336 9.0815C14.9331 8.75681 15.608 8.59855 16.2887 8.62356C19.9168 8.62356 20.5857 10.9865 20.5857 14.0605L20.5842 20.3222ZM5.37454 7.34722C4.96369 7.34729 4.56203 7.22673 4.22038 7.00079C3.87873 6.77484 3.61244 6.45365 3.45514 6.07784C3.29785 5.70202 3.25663 5.28847 3.33671 4.88947C3.41679 4.49046 3.61457 4.12393 3.90504 3.83623C4.1955 3.54852 4.56561 3.35256 4.96855 3.27312C5.3715 3.19369 5.78917 3.23435 6.16878 3.38996C6.54838 3.54557 6.87286 3.80914 7.10118 4.14734C7.3295 4.48555 7.45141 4.8832 7.45148 5.29001C7.45153 5.56012 7.39784 5.82759 7.29349 6.07715C7.18914 6.32672 7.03618 6.55349 6.84332 6.74452C6.65046 6.93555 6.42147 7.0871 6.16946 7.19051C5.91745 7.29392 5.64734 7.34717 5.37454 7.34722ZM7.16436 20.3222H3.581V8.90748H7.16436V20.3222ZM22.3688 -0.0579406H1.78224C1.31499 -0.0631616 0.864729 0.115511 0.530449 0.438814C0.196169 0.762117 0.00521434 1.2036 -0.000488281 1.66625V22.1347C0.00501917 22.5975 0.195862 23.0393 0.53013 23.363C0.864399 23.6866 1.31476 23.8656 1.78224 23.8607H22.3688C22.8373 23.8665 23.2889 23.688 23.6245 23.3644C23.96 23.0407 24.1522 22.5984 24.1587 22.1347V1.66477C24.152 1.20121 23.9597 0.75922 23.6241 0.435925C23.2885 0.11263 22.837 -0.0655319 22.3688 -0.059418" fill="#248AF0"/>
</g>
<defs>
<clipPath id="clip0_271_1203">
<rect width="24" height="24" fill="white"/>
</clipPath>
</defs>
</svg>
