<svg width="32" height="32" viewBox="0 0 32 32" fill="none" xmlns="http://www.w3.org/2000/svg">
<path d="M17.1521 16.4273C17.1521 19.167 14.8939 21.3917 12.0963 21.3917C9.29878 21.3917 7.04053 19.167 7.04053 16.4273C7.04053 13.6876 9.29878 11.4629 12.0963 11.4629C14.8939 11.4629 17.1521 13.6876 17.1521 16.4273ZM22.691 16.4273C22.691 19.0027 21.5563 21.0958 20.1631 21.0958C18.77 21.0958 17.6352 19.0027 17.6352 16.4273C17.6352 13.8519 18.77 11.7588 20.1631 11.7588C21.5563 11.7588 22.691 13.841 22.691 16.4273ZM24.9605 16.4273C24.9605 18.7396 24.5673 20.6136 24.073 20.6136C23.5786 20.6136 23.1854 18.7396 23.1854 16.4273C23.1854 14.115 23.5786 12.241 24.073 12.241C24.5673 12.241 24.9605 14.115 24.9605 16.4273Z" fill="white"/>
</svg>
