<svg width="32" height="32" viewBox="0 0 32 32" fill="none" xmlns="http://www.w3.org/2000/svg">
<path d="M23.9998 16.1459C24.0022 16.309 23.9818 16.4718 23.9386 16.6292C23.8953 16.7867 23.8299 16.9376 23.744 17.0769C23.6584 17.2162 23.5533 17.3429 23.432 17.4534C23.3107 17.5638 23.1743 17.6566 23.0269 17.7293C23.0302 17.7727 23.0329 17.8165 23.0344 17.8602C23.038 17.9475 23.038 18.0349 23.0344 18.1221C23.0329 18.1659 23.0302 18.2097 23.0269 18.2531C23.0269 20.9199 19.8919 23.0867 16.0243 23.0867C12.1566 23.0867 9.02162 20.9199 9.02162 18.2531C9.01831 18.2097 9.01561 18.1659 9.01411 18.1221C9.01049 18.0349 9.01049 17.9475 9.01411 17.8602C9.01561 17.8165 9.01831 17.7727 9.02162 17.7293C8.79062 17.624 8.58546 17.4703 8.42032 17.2787C8.25519 17.0871 8.13402 16.8623 8.06521 16.6197C7.99651 16.377 7.98188 16.1224 8.02232 15.8736C8.06277 15.6247 8.15732 15.3876 8.29943 15.1786C8.44142 14.9696 8.62758 14.7937 8.845 14.6632C9.06242 14.5326 9.30589 14.4505 9.55853 14.4226C9.81119 14.3945 10.067 14.4212 10.3082 14.5009C10.5494 14.5805 10.7703 14.7112 10.9554 14.8839C11.2992 14.653 11.6594 14.4469 12.0332 14.2675C12.407 14.0883 12.7935 13.9359 13.1896 13.8121C13.5856 13.6883 13.9904 13.5934 14.4003 13.5276C14.8102 13.4618 15.2246 13.4258 15.6399 13.4196L16.5287 9.28841C16.5386 9.24049 16.5582 9.19525 16.5861 9.15478C16.6137 9.1146 16.6494 9.08007 16.6906 9.05358C16.732 9.02709 16.7783 9.00894 16.8269 9.00001C16.8753 8.99138 16.9251 8.99227 16.9732 9.00269L19.9159 9.58605C20.2129 9.08037 20.8363 8.86369 21.3867 9.07442C21.9372 9.28514 22.2519 9.86106 22.1287 10.4331C22.0059 11.0052 21.4816 11.404 20.8925 11.3739C20.303 11.3439 19.8229 10.8938 19.7598 10.3123L17.1894 9.77653L16.4086 13.491C16.8188 13.4996 17.2281 13.5377 17.6329 13.6047C18.4435 13.7386 19.2303 13.9878 19.9691 14.3446C20.3381 14.5226 20.6936 14.7267 21.033 14.9553C21.277 14.7231 21.5836 14.5659 21.9158 14.5026C22.248 14.4392 22.5917 14.4723 22.9053 14.5982C23.2189 14.724 23.4891 14.937 23.6833 15.2116C23.8776 15.4862 23.9875 15.8107 23.9998 16.1459ZM12.0797 17.7921C12.1404 17.9364 12.2287 18.0677 12.3404 18.1781C12.4518 18.2888 12.5842 18.3763 12.7298 18.4364C12.8756 18.4962 13.0318 18.5269 13.1896 18.5269C13.6754 18.5269 14.1132 18.2367 14.2994 17.7921C14.4853 17.3471 14.3823 16.8352 14.0388 16.4947C13.6952 16.1542 13.1788 16.0521 12.7298 16.2363C12.2812 16.4209 11.9884 16.8548 11.9884 17.3364C11.9884 17.4927 12.0194 17.6474 12.0797 17.7921ZM18.9592 20.6499C19.0208 20.5904 19.0559 20.5092 19.0571 20.424C19.0583 20.3386 19.025 20.2565 18.9649 20.1955C18.9049 20.1344 18.8229 20.0996 18.737 20.0984C18.6508 20.0972 18.568 20.1303 18.4986 20.1818C18.318 20.3102 18.1267 20.4232 17.9269 20.5196C17.727 20.616 17.5192 20.6956 17.3059 20.7574C17.0927 20.819 16.8744 20.8627 16.6536 20.888C16.4326 20.9133 16.2101 20.9199 15.9882 20.908C15.7666 20.9178 15.5444 20.9089 15.3243 20.8815C15.1041 20.8544 14.8867 20.8086 14.6745 20.7446C14.4619 20.6809 14.2556 20.5993 14.0571 20.5011C13.8586 20.4029 13.6688 20.288 13.4899 20.158C13.4277 20.1074 13.3487 20.0815 13.2682 20.0853C13.1878 20.0892 13.1118 20.1228 13.0547 20.1791C12.998 20.2356 12.9641 20.3109 12.9601 20.3907C12.9562 20.4705 12.9824 20.5487 13.0334 20.6104C13.2445 20.7681 13.4688 20.9074 13.704 21.027C13.9391 21.1467 14.1844 21.2458 14.4366 21.3238C14.6889 21.4018 14.9474 21.458 15.2096 21.4922C15.4717 21.5262 15.7363 21.5378 16.0002 21.5271C16.2642 21.5378 16.5287 21.5262 16.7909 21.4922C17.3159 21.4238 17.8252 21.2664 18.2965 21.027C18.5316 20.9074 18.7559 20.7681 18.967 20.6104L18.9592 20.6499ZM18.7388 18.6222C18.9016 18.624 19.0631 18.5927 19.2136 18.5308C19.364 18.4686 19.5 18.3769 19.6136 18.2611C19.7271 18.1454 19.8153 18.0079 19.8736 17.857C19.9319 17.7062 19.9586 17.5453 19.952 17.384C19.952 16.9024 19.6592 16.4685 19.2106 16.284C18.7616 16.0997 18.2452 16.2018 17.9016 16.5423C17.5581 16.8828 17.4551 17.3947 17.641 17.8397C17.8272 18.2844 18.265 18.5745 18.7508 18.5745L18.7388 18.6222Z" fill="white"/>
</svg>
