<svg width="32" height="32" viewBox="0 0 32 32" fill="none" xmlns="http://www.w3.org/2000/svg">
<path d="M11.0237 18.3873C11.0237 19.4029 10.2036 20.2238 9.18886 20.2238C8.17413 20.2238 7.354 19.4029 7.354 18.3873C7.354 17.3716 8.17413 16.5508 9.18886 16.5508H11.0237V18.3873ZM11.9411 18.3873C11.9411 17.3716 12.7613 16.5508 13.776 16.5508C14.7907 16.5508 15.6108 17.3716 15.6108 18.3873V22.9785C15.6108 23.9941 14.7907 24.815 13.776 24.815C12.7613 24.815 11.9411 23.9941 11.9411 22.9785V18.3873Z" fill="white"/>
<path d="M13.7752 11.0128C12.7605 11.0128 11.9404 10.192 11.9404 9.17633C11.9404 8.1607 12.7605 7.33984 13.7752 7.33984C14.79 7.33984 15.6101 8.1607 15.6101 9.17633V11.0128H13.7752ZM13.7752 11.945C14.79 11.945 15.6101 12.7658 15.6101 13.7815C15.6101 14.7971 14.79 15.6179 13.7752 15.6179H9.17421C8.15948 15.6179 7.33936 14.7971 7.33936 13.7815C7.33936 12.7658 8.15948 11.945 9.17421 11.945H13.7752Z" fill="white"/>
<path d="M21.1291 13.7815C21.1291 12.7658 21.9492 11.945 22.964 11.945C23.9787 11.945 24.7988 12.7658 24.7988 13.7815C24.7988 14.7971 23.9787 15.6179 22.964 15.6179H21.1291V13.7815ZM20.2117 13.7815C20.2117 14.7971 19.3916 15.6179 18.3768 15.6179C17.3621 15.6179 16.542 14.7971 16.542 13.7815V9.17633C16.542 8.1607 17.3621 7.33984 18.3768 7.33984C19.3916 7.33984 20.2117 8.1607 20.2117 9.17633V13.7815Z" fill="white"/>
<path d="M18.3768 21.142C19.3916 21.142 20.2117 21.9628 20.2117 22.9785C20.2117 23.9941 19.3916 24.815 18.3768 24.815C17.3621 24.815 16.542 23.9941 16.542 22.9785V21.142H18.3768ZM18.3768 20.2238C17.3621 20.2238 16.542 19.4029 16.542 18.3873C16.542 17.3716 17.3621 16.5508 18.3768 16.5508H22.9779C23.9926 16.5508 24.8127 17.3716 24.8127 18.3873C24.8127 19.4029 23.9926 20.2238 22.9779 20.2238H18.3768Z" fill="white"/>
</svg>
