<svg width="313" height="271" viewBox="0 0 313 271" fill="none" xmlns="http://www.w3.org/2000/svg">
<path d="M131.646 80.2715C139.014 56.1061 173.225 56.1061 180.593 80.2715L181.059 81.8006C184.201 92.106 193.94 98.9615 204.701 98.4428L210.867 98.1457C234.156 97.0232 243.061 128.077 222.715 139.467C212.749 145.046 208.75 157.454 213.405 167.884C222.943 189.249 198.489 210.184 179.387 196.672L171.028 190.76C162.094 184.44 150.146 184.44 141.211 190.76L132.852 196.672C113.75 210.184 89.2962 189.249 98.8339 167.884C103.49 157.454 99.4901 145.046 89.5241 139.467C69.1783 128.077 78.0826 97.0232 101.372 98.1457L107.538 98.4428C118.299 98.9615 128.038 92.1059 131.18 81.8006L131.646 80.2715Z" fill="#A144F7"/>
<g clip-path="url(#clip0_61_12)">
<path d="M146.262 145.878L146.396 146.227C146.437 146.34 146.5 146.491 146.554 146.65L146.748 147.209C146.824 147.422 146.886 147.638 146.967 147.888C147.044 148.135 147.135 148.411 147.207 148.683L147.457 149.576C147.539 149.888 147.608 150.2 147.692 150.541C148.049 152.012 148.303 153.506 148.451 155.013C148.536 155.814 148.572 156.613 148.59 157.435C148.591 158.24 148.572 159.066 148.496 159.873C148.423 160.675 148.301 161.472 148.132 162.26C147.962 163.033 147.738 163.794 147.462 164.535C146.91 166.005 146.137 167.364 145.133 168.565C144.636 169.171 144.056 169.711 143.481 170.271C142.897 170.822 142.3 171.374 141.677 171.909C140.417 173.002 139.1 174.029 137.733 174.984C136.352 175.956 134.899 176.855 133.409 177.681C132.662 178.09 131.906 178.481 131.14 178.853C130.377 179.22 129.605 179.568 128.825 179.896C127.269 180.545 125.701 181.109 124.146 181.576C122.645 182.029 121.123 182.408 119.585 182.712C116.643 183.298 113.943 183.539 111.936 183.59L111.219 183.602L110.574 183.602L109.531 183.574L108.862 183.535L108.626 183.515L108.606 183.278L108.566 182.609L108.539 181.566L108.538 180.922L108.55 180.204C108.602 178.198 108.842 175.498 109.429 172.556C109.732 171.018 110.111 169.495 110.565 167.995C111.031 166.44 111.595 164.872 112.244 163.316C112.573 162.536 112.921 161.763 113.287 161C113.659 160.237 114.049 159.479 114.46 158.732C115.285 157.242 116.185 155.789 117.156 154.408C118.112 153.04 119.138 151.724 120.232 150.464C120.766 149.84 121.318 149.243 121.869 148.66C122.429 148.085 122.969 147.504 123.575 147.007C124.777 146.003 126.135 145.23 127.605 144.679C128.347 144.402 129.107 144.178 129.88 144.009C130.668 143.84 131.465 143.718 132.267 143.644C133.074 143.569 133.9 143.549 134.705 143.551C135.527 143.568 136.326 143.605 137.128 143.69C138.634 143.838 140.128 144.092 141.599 144.449C141.94 144.532 142.252 144.602 142.564 144.684L143.458 144.934C143.729 145.006 144.006 145.097 144.252 145.174C144.502 145.255 144.718 145.317 144.932 145.393L145.491 145.587C145.649 145.641 145.801 145.703 145.913 145.745C146.143 145.832 146.262 145.878 146.262 145.878Z" fill="#FFB636"/>
<path d="M120.672 120.288L106.175 134.785C105.173 135.787 105.883 137.5 107.3 137.5H119.484C119.906 137.5 120.311 137.668 120.609 137.966L128.52 145.878L141.37 119.822H121.797C121.588 119.822 121.381 119.863 121.188 119.943C120.995 120.023 120.82 120.14 120.672 120.288ZM148.522 162.44L156.434 170.351C156.732 170.649 156.899 171.054 156.899 171.476V183.66C156.899 185.077 158.613 185.787 159.615 184.785L174.112 170.288C174.41 169.989 174.578 169.585 174.578 169.163V149.59L148.522 162.44Z" fill="#FF473E"/>
<path d="M206.398 87.5245L206.413 87.6518C206.423 87.7356 206.441 87.8647 206.454 88.0241C206.48 88.3426 206.54 88.836 206.568 89.4301C206.658 90.6525 206.719 92.3732 206.676 94.4435C206.635 96.5149 206.489 98.9346 206.173 101.561C206.102 102.226 206.001 102.884 205.904 103.569C205.813 104.26 205.684 104.935 205.566 105.642C205.324 107.051 205.022 108.485 204.674 109.947C203.948 112.983 203.026 115.968 201.914 118.883C200.767 121.887 199.39 124.886 197.777 127.8C196.161 130.712 194.322 133.552 192.268 136.251C190.216 138.953 187.951 141.517 185.52 143.916C183.09 146.314 180.497 148.551 177.773 150.581C177.092 151.089 176.407 151.587 175.707 152.065C175.014 152.55 174.306 153.013 173.6 153.473C172.182 154.385 170.734 155.238 169.272 156.039C166.392 157.615 163.408 158.992 160.341 160.163C157.427 161.272 154.446 162.197 151.416 162.933C149.956 163.285 148.53 163.595 147.124 163.839L146.089 164.025C145.745 164.084 145.397 164.132 145.06 164.185L144.057 164.338L143.062 164.465C140.45 164.795 138.046 164.957 135.99 165.014C133.936 165.073 132.225 165.022 131.017 164.945C130.429 164.923 129.938 164.867 129.624 164.845C129.466 164.833 129.338 164.816 129.255 164.807L129.129 164.793C128.173 164.687 127.448 163.928 127.346 163.01L127.332 162.884C127.323 162.801 127.306 162.673 127.294 162.515C127.272 162.201 127.216 161.711 127.194 161.122C127.117 159.914 127.066 158.203 127.125 156.149C127.182 154.093 127.344 151.689 127.674 149.077L127.801 148.082L127.954 147.08C128.007 146.742 128.055 146.394 128.114 146.051L128.3 145.015C128.544 143.609 128.854 142.183 129.205 140.723C129.941 137.693 130.866 134.712 131.976 131.798C133.146 128.731 134.524 125.747 136.1 122.868C136.901 121.405 137.754 119.957 138.666 118.539C139.126 117.833 139.589 117.126 140.074 116.433C140.552 115.732 141.05 115.047 141.558 114.366C143.588 111.642 145.824 109.049 148.223 106.619C150.622 104.189 153.186 101.923 155.888 99.8714C158.587 97.817 161.427 95.9785 164.339 94.3625C167.253 92.7489 170.253 91.3722 173.255 90.225C176.171 89.1128 179.156 88.1909 182.192 87.4651C183.654 87.1166 185.088 86.8147 186.496 86.5728C187.204 86.4551 187.879 86.3261 188.57 86.2355C189.254 86.138 189.913 86.0368 190.578 85.9663C193.204 85.65 195.624 85.504 197.695 85.4626C199.766 85.4201 201.486 85.4806 202.709 85.5712C203.303 85.5994 203.796 85.659 204.115 85.685C204.274 85.6982 204.403 85.7163 204.487 85.7259L204.614 85.7413C205.568 85.8563 206.288 86.6118 206.398 87.5245Z" fill="white"/>
<path d="M153.909 138.23L154.026 138.545C154.091 138.741 154.178 139.023 154.239 139.338C154.382 139.988 154.429 140.78 154.17 141.469C154.043 141.816 153.807 142.104 153.585 142.453L152.846 143.564L151.074 146.225C150.37 147.268 149.66 148.307 148.945 149.342C148.147 150.493 147.339 151.637 146.522 152.775L145.221 154.566L143.869 156.382C142.951 157.597 142.012 158.824 141.058 160.036C140.112 161.243 139.155 162.44 138.186 163.628C137.23 164.805 136.293 165.966 135.37 167.074L134.017 168.712C133.569 169.241 133.161 169.789 132.688 170.247C132.217 170.707 131.675 171.069 131.051 171.321C130.433 171.579 129.756 171.748 129.101 171.906C127.867 172.198 126.62 172.43 125.363 172.602C124.783 172.681 124.228 172.744 123.703 172.791C123.182 172.84 122.677 172.86 122.235 172.892C121.789 172.92 121.364 172.918 121.008 172.93C120.647 172.937 120.323 172.926 120.068 172.925C119.809 172.919 119.601 172.906 119.465 172.902L119.252 172.887L119.238 172.674C119.233 172.538 119.22 172.331 119.214 172.071C119.214 171.817 119.202 171.492 119.209 171.131C119.222 170.776 119.22 170.35 119.248 169.905C119.279 169.462 119.299 168.958 119.349 168.436C119.396 167.912 119.458 167.357 119.538 166.776C119.709 165.52 119.941 164.272 120.234 163.038C120.392 162.384 120.561 161.707 120.818 161.089C121.07 160.465 121.433 159.922 121.893 159.452C122.35 158.978 122.899 158.571 123.428 158.123L125.066 156.769C126.174 155.847 127.335 154.909 128.511 153.954C129.686 152.996 130.889 152.033 132.104 151.082C133.315 150.127 134.543 149.188 135.758 148.271L137.574 146.919L139.365 145.617C140.503 144.8 141.647 143.993 142.798 143.195C143.898 142.433 144.945 141.721 145.914 141.066L148.576 139.293L149.686 138.555C150.035 138.333 150.324 138.097 150.67 137.969C151.359 137.711 152.151 137.758 152.802 137.901C153.116 137.962 153.398 138.049 153.595 138.114L153.909 138.23Z" fill="#FF473E"/>
<path d="M177.702 125.267C177.702 131.248 172.853 136.097 166.872 136.097C160.891 136.097 156.042 131.248 156.042 125.267C156.042 119.286 160.891 114.437 166.872 114.437C172.853 114.437 177.702 119.286 177.702 125.267ZM183.146 102.1C179.338 102.1 176.252 105.186 176.252 108.994C176.252 112.801 179.338 115.887 183.146 115.887C186.953 115.887 190.039 112.801 190.039 108.994C190.039 105.186 186.953 102.1 183.146 102.1Z" fill="#2B3B47"/>
</g>
<defs>
<clipPath id="clip0_61_12">
<rect width="102.361" height="102.361" fill="white" transform="translate(105.307 83.9509)"/>
</clipPath>
</defs>
</svg>
