<svg width="112" height="112" viewBox="0 0 112 112" fill="none" xmlns="http://www.w3.org/2000/svg">
<path d="M112 56C112 86.9279 86.9279 112 56 112C25.0721 112 0 86.9279 0 56C0 25.0721 25.0721 0 56 0C86.9279 0 112 25.0721 112 56ZM31.5933 56C31.5933 69.4794 42.5206 80.4067 56 80.4067C69.4794 80.4067 80.4067 69.4794 80.4067 56C80.4067 42.5206 69.4794 31.5933 56 31.5933C42.5206 31.5933 31.5933 42.5206 31.5933 56Z" fill="#FFC107"/>
<path d="M55.9998 97.9563C79.1786 97.9563 98.0348 79.1 98.0348 55.9213C98.0348 32.7513 79.1786 13.895 55.9998 13.895C32.8211 13.895 13.9648 32.7513 13.9648 55.9213C13.9648 79.1 32.8211 97.9563 55.9998 97.9563Z" fill="white"/>
<path d="M55.9999 9.41504C81.6461 9.41504 102.515 30.2838 102.515 55.93C102.515 81.585 81.6461 102.454 55.9999 102.454C30.3536 102.454 9.48486 81.5763 9.48486 55.9213C9.48486 30.275 30.3449 9.41504 55.9999 9.41504ZM55.9999 97.9563C79.1786 97.9563 98.0349 79.1 98.0349 55.9213C98.0349 32.7513 79.1786 13.895 55.9999 13.895C32.8211 13.895 13.9649 32.7513 13.9649 55.9213C13.9649 79.1 32.8211 97.9563 55.9999 97.9563Z" fill="#A144F7"/>
<path d="M19.6438 58.5987C21.1226 58.5987 22.3213 57.3999 22.3213 55.9212C22.3213 54.4424 21.1226 53.2437 19.6438 53.2437C18.1651 53.2437 16.9663 54.4424 16.9663 55.9212C16.9663 57.3999 18.1651 58.5987 19.6438 58.5987Z" fill="#2F2F2F"/>
<path d="M22.1989 75.4424C21.8458 74.8256 21.7506 74.0942 21.9342 73.4076C22.1177 72.7209 22.5651 72.1345 23.1789 71.7762C24.4652 71.0324 26.1014 71.4699 26.8452 72.7562C27.5889 74.0424 27.1514 75.6787 25.8652 76.4224C24.5789 77.1662 22.9339 76.7287 22.1989 75.4424ZM36.4789 89.7312C36.1732 89.5554 35.9053 89.3209 35.6905 89.0413C35.4757 88.7616 35.3183 88.4423 35.2272 88.1016C35.1362 87.761 35.1133 87.4057 35.1599 87.0562C35.2065 86.7067 35.3217 86.3698 35.4989 86.0649C35.6747 85.7593 35.9092 85.4913 36.1888 85.2765C36.4685 85.0617 36.7878 84.9043 37.1284 84.8132C37.4691 84.7222 37.8244 84.6993 38.1739 84.7459C38.5234 84.7925 38.8603 84.9077 39.1652 85.0849C40.4514 85.8199 40.8977 87.4649 40.1539 88.7512C39.7955 89.3673 39.2075 89.8164 38.5188 90.0001C37.83 90.1837 37.0965 90.087 36.4789 89.7312Z" fill="#2F2F2F"/>
<path d="M75.51 89.7185C76.7906 88.9791 77.2294 87.3416 76.49 86.061C75.7506 84.7803 74.1131 84.3416 72.8325 85.0809C71.5518 85.8203 71.113 87.4578 71.8524 88.7385C72.5918 90.0191 74.2293 90.4579 75.51 89.7185Z" fill="#2F2F2F"/>
<path d="M89.8014 75.4425C89.4437 76.0571 88.8566 76.5046 88.1692 76.6867C87.4818 76.8688 86.7502 76.7707 86.1351 76.4138C85.5202 76.0587 85.0714 75.4739 84.8876 74.788C84.7039 74.1021 84.8001 73.3712 85.1551 72.7563C85.3309 72.4506 85.5654 72.1827 85.845 71.9679C86.1247 71.7531 86.444 71.5956 86.7847 71.5046C87.1253 71.4135 87.4806 71.3906 87.8301 71.4373C88.1796 71.4839 88.5165 71.5991 88.8214 71.7763C90.1076 72.52 90.5451 74.1563 89.8014 75.4425ZM95.0339 55.9213C95.0339 57.4088 93.8351 58.5988 92.3564 58.5988C91.6463 58.5988 90.9652 58.3167 90.4631 57.8145C89.961 57.3124 89.6789 56.6314 89.6789 55.9213C89.6789 54.4338 90.8776 53.235 92.3564 53.235C93.8351 53.2438 95.0339 54.4425 95.0339 55.9213ZM89.8101 36.4088C90.5451 37.695 90.1076 39.3313 88.8301 40.075C87.5439 40.8188 85.9076 40.3813 85.1639 39.1038C84.9875 38.7982 84.8732 38.4609 84.8275 38.1112C84.7817 37.7614 84.8055 37.406 84.8973 37.0654C84.9892 36.7248 85.1473 36.4057 85.3628 36.1264C85.5782 35.847 85.8466 35.6129 86.1526 35.4375C87.4214 34.685 89.0664 35.1225 89.8101 36.4088ZM75.5126 22.12C76.7989 22.8638 77.2276 24.5 76.5014 25.7863C76.1456 26.4028 75.5599 26.8531 74.8726 27.0384C74.1854 27.2238 73.4527 27.129 72.8351 26.775C72.2196 26.4183 71.7707 25.8319 71.5869 25.1446C71.4032 24.4572 71.4997 23.7251 71.8551 23.1088C72.0296 22.8029 72.2629 22.5346 72.5414 22.3192C72.82 22.1039 73.1384 21.9457 73.4783 21.8538C73.8182 21.7619 74.1729 21.7381 74.522 21.7838C74.8712 21.8295 75.2078 21.9438 75.5126 22.12ZM36.4876 22.12C37.7739 21.385 39.4101 21.8225 40.1539 23.1C40.8976 24.3863 40.4601 26.0225 39.1739 26.7663C37.8964 27.51 36.2514 27.0725 35.5076 25.7863C35.3305 25.4814 35.2153 25.1445 35.1686 24.795C35.122 24.4455 35.1449 24.0902 35.2359 23.7495C35.327 23.4089 35.4844 23.0896 35.6992 22.8099C35.914 22.5303 36.182 22.2958 36.4876 22.12ZM22.1989 36.4088C22.5556 35.7932 23.142 35.3443 23.8293 35.1606C24.5167 34.9769 25.2488 35.0733 25.8651 35.4288C26.325 35.6944 26.6957 36.0904 26.9304 36.5667C27.1651 37.0431 27.2533 37.5783 27.1838 38.1048C27.1143 38.6313 26.8901 39.1253 26.5398 39.5244C26.1895 39.9234 25.7286 40.2096 25.2156 40.3468C24.7026 40.4839 24.1604 40.4658 23.6577 40.2948C23.155 40.1237 22.7143 39.8074 22.3913 39.3858C22.0684 38.9643 21.8777 38.4564 21.8435 37.9265C21.8092 37.3966 21.9329 36.8684 22.1989 36.4088Z" fill="#2F2F2F"/>
<path d="M55.9999 63.0524C59.9336 63.0524 63.1224 59.8635 63.1224 55.9299C63.1224 51.9962 59.9336 48.8074 55.9999 48.8074C52.0663 48.8074 48.8774 51.9962 48.8774 55.9299C48.8774 59.8635 52.0663 63.0524 55.9999 63.0524Z" fill="#2F2F2F"/>
<path d="M52.6489 58.3974H59.3514V20.2124C59.3514 18.7599 58.1789 17.5874 56.7264 17.5874H55.2739C53.8214 17.5874 52.6489 18.7599 52.6489 20.2124V58.3974Z" fill="#2F2F2F"/>
<path d="M55.9999 63.0524C59.9336 63.0524 63.1224 59.8635 63.1224 55.9299C63.1224 51.9962 59.9336 48.8074 55.9999 48.8074C52.0663 48.8074 48.8774 51.9962 48.8774 55.9299C48.8774 59.8635 52.0663 63.0524 55.9999 63.0524Z" fill="#2F2F2F"/>
<path d="M59.2636 53.3312L57.5311 59.7975L34.2561 53.5675C33.9233 53.4786 33.6113 53.3251 33.338 53.1155C33.0646 52.906 32.8352 52.6447 32.6629 52.3464C32.4906 52.0482 32.3788 51.7189 32.3339 51.3774C32.289 51.0359 32.3118 50.6889 32.4011 50.3562L32.7774 48.9475C32.8667 48.6141 33.0209 48.3016 33.2311 48.0278C33.4414 47.7541 33.7035 47.5245 34.0026 47.3521C34.3017 47.1798 34.6318 47.0682 34.9741 47.0237C35.3164 46.9791 35.6641 47.0025 35.9974 47.0925L59.2636 53.3312Z" fill="#2F2F2F"/>
<path d="M56.0002 58.5987C57.4838 58.5987 58.6865 57.3999 58.6865 55.9212C58.6865 54.4424 57.4838 53.2437 56.0002 53.2437C54.5166 53.2437 53.314 54.4424 53.314 55.9212C53.314 57.3999 54.5166 58.5987 56.0002 58.5987Z" fill="white"/>
<path d="M56.0002 94.9636C56.7103 94.9636 57.3914 94.6815 57.8935 94.1794C58.3956 93.6773 58.6777 92.9963 58.6777 92.2861C58.6777 90.8074 57.4877 89.6086 56.0002 89.6086C54.5215 89.6086 53.314 90.8074 53.314 92.2861C53.314 93.7561 54.5215 94.9724 56.0002 94.9636Z" fill="#2F2F2F"/>
</svg>
