<svg width="59" height="60" viewBox="0 0 59 60" fill="none" xmlns="http://www.w3.org/2000/svg">
<path d="M58.8 30.6819C58.8 28.5546 58.6092 26.5092 58.2546 24.5454H30V36.15H46.1454C45.45 39.9 43.3365 43.0773 40.1592 45.2046V52.7319H49.8546C55.5273 47.5092 58.8 39.8181 58.8 30.6819Z" fill="#4285F4"/>
<path d="M30.0006 60.0002C38.1006 60.0002 44.8914 57.3137 49.8549 52.7321L40.1595 45.2048C37.4733 47.0048 34.0368 48.0683 30.0006 48.0683C22.1868 48.0683 15.5733 42.791 13.2141 35.7002H3.19141V43.4729C8.12791 53.2775 18.2733 60.0002 30.0006 60.0002Z" fill="#34A853"/>
<path d="M13.2135 35.7003C12.6135 33.9003 12.2727 31.9776 12.2727 30.0003C12.2727 28.023 12.6135 26.1003 13.2135 24.3003V16.5276H3.1908C1.1592 20.5776 0 25.1595 0 30.0003C0 34.8411 1.1592 39.423 3.1908 43.473L13.2135 35.7003Z" fill="#FBBC04"/>
<path d="M30.0006 11.9319C34.4049 11.9319 38.3595 13.4454 41.4687 16.4181L50.0733 7.8135C44.8779 2.9727 38.0868 0 30.0006 0C18.2733 0 8.12791 6.7227 3.19141 16.5273L13.2141 24.3C15.5733 17.2092 22.1868 11.9319 30.0006 11.9319Z" fill="#E94235"/>
</svg>
