<svg width="1136" height="624" viewBox="0 0 1136 624" fill="none" xmlns="http://www.w3.org/2000/svg">
<g opacity="0.3">
<path d="M434.675 623.997C430.617 623.997 426.668 623.487 422.873 622.47C414.913 620.336 407.559 615.954 401.016 609.444C393.982 602.451 387.813 592.921 382.679 581.121C372.36 557.402 367.198 528.998 362.205 501.528C361.224 496.134 360.21 490.556 359.18 485.145C352.155 448.26 343.249 415.951 331.955 386.371C309.426 327.365 277.744 277.008 240.33 240.744C197.062 198.807 150.541 177.916 109.337 181.921C85.1193 184.277 53.1209 206.674 38.8201 244.925C30.3332 267.626 29.6488 292.819 36.8424 317.775L36.6995 317.881C32.9277 304.792 31.2843 291.671 31.8164 278.881C32.3046 267.149 34.6151 255.68 38.6851 244.794C45.1582 227.48 55.8333 212.134 69.5565 200.414C82.2375 189.585 96.3609 182.928 109.328 181.668C130.891 179.573 153.825 184.221 177.492 195.487C198.945 205.7 220.115 220.852 240.412 240.525C277.847 276.81 309.549 327.195 332.09 386.236C343.39 415.835 352.301 448.162 359.331 485.067C360.362 490.478 361.376 496.058 362.356 501.452C367.344 528.902 372.503 557.287 382.808 580.97C392.773 603.877 406.263 617.754 422.899 622.214C445.938 628.392 473.915 615.471 497.736 587.65C532.063 547.558 555.887 489.203 578.928 432.771C582.966 422.879 587.141 412.651 591.276 402.774C602.009 377.128 616.545 343.894 633.821 314.287C651.479 284.024 669.423 261.79 688.679 246.311C700.465 236.836 712.956 230.453 725.805 227.339C737.673 224.461 750.235 224.283 763.142 226.804C785.281 231.131 809.133 243.353 836.062 264.166C889.084 305.151 942.049 354.898 993.486 412.028C1042.37 466.328 1090.32 527.772 1136 594.648L1135.89 594.834C1041.21 456.203 940.31 345.027 835.993 264.392C777.057 218.836 730.269 213.161 688.75 246.535C646.509 280.486 617.002 341.757 591.406 402.913C587.273 412.787 583.098 423.015 579.06 432.906C556.013 489.358 532.181 547.732 497.83 587.851C486.729 600.816 474.242 610.929 461.718 617.094C455.102 620.351 448.525 622.48 442.168 623.424C439.635 623.809 437.134 623.997 434.675 623.997Z" fill="#FFC107"/>
<path d="M438.642 609.932C428.295 609.932 418.711 606.781 410.146 600.56C400.595 593.624 392.353 582.876 385.647 568.618C385.054 567.355 384.465 566.049 383.897 564.733C373.688 541.118 368.296 513.082 363.084 485.969C362.029 480.489 360.94 474.822 359.835 469.322C353.253 436.576 345.328 407.715 335.604 381.093C334.407 377.816 333.167 374.531 331.916 371.332C309.056 312.834 277.115 263.114 239.548 227.548C195.967 186.326 149.315 166.299 108.185 171.159C84.1428 174.029 52.292 196.793 37.9299 234.75C29.3299 257.479 28.3568 282.722 35.1124 307.751L34.968 307.851C31.427 294.733 29.9719 281.587 30.6453 268.782C31.2637 257.022 33.6684 245.528 37.7949 234.619C44.334 217.335 54.9776 201.971 68.5721 190.191C81.1369 179.303 95.1992 172.454 108.171 170.908C129.707 168.364 152.666 172.567 176.408 183.401C197.914 193.215 219.184 207.996 239.627 227.332C277.216 262.918 309.173 312.668 332.048 371.199C333.299 374.401 334.54 377.688 335.738 380.968C345.468 407.607 353.398 436.483 359.982 469.247C361.089 474.746 362.178 480.414 363.233 485.896C368.444 512.992 373.831 541.007 384.026 564.59C384.592 565.901 385.181 567.207 385.773 568.467C399.629 597.941 418.669 609.932 438.691 609.932C438.801 609.932 438.909 609.932 439.019 609.932C438.893 609.93 438.768 609.932 438.642 609.932ZM442.913 609.756C461.527 608.227 480.735 596.784 497.213 579.76C532.757 542.888 558.303 485.939 583.008 430.865C584.026 428.595 585.043 426.33 586.06 424.065C588.293 419.093 590.941 413.207 593.644 407.273C605.77 380.661 620.444 349.698 637.344 321.829C655.326 292.174 673.29 270.168 692.262 254.551C703.92 244.966 716.24 238.213 728.88 234.481C740.591 231.023 752.967 230.047 765.661 231.576C787.59 234.22 811.169 244.245 837.746 262.225C863.657 279.728 884.957 296.204 904.777 314.077C932.854 339.42 959.599 368.62 982.059 393.84C1034.27 452.643 1085.51 519.413 1134.33 592.299L1134.23 592.482C1085.41 519.607 1034.18 452.841 981.969 394.046C959.513 368.829 932.772 339.633 904.701 314.298C884.886 296.43 863.593 279.959 837.686 262.461C779.791 223.291 733.603 220.848 692.334 254.777C649.502 290.029 619 352.054 593.771 407.423C591.067 413.357 588.421 419.241 586.187 424.216C585.17 426.478 584.153 428.746 583.136 431.016C558.422 486.107 532.867 543.076 497.298 579.976C488.478 589.087 479.093 596.324 469.402 601.485C460.382 606.283 451.49 609.058 442.913 609.756Z" fill="#FFC107"/>
<path d="M443.015 596.189C441.77 596.189 440.533 596.146 439.306 596.058C428.968 595.327 419.401 591.533 410.872 584.775C401.544 577.385 393.462 566.439 386.852 552.238C386.265 550.972 385.679 549.664 385.114 548.348C375.02 524.848 369.404 497.187 363.975 470.44C362.843 464.865 361.672 459.099 360.485 453.504C353.579 420.869 345.445 392.238 335.616 365.976C334.4 362.729 333.141 359.472 331.871 356.298C308.68 298.309 276.482 249.228 238.761 214.36C194.87 173.854 148.086 154.688 107.027 160.401C83.91 163.668 52.1518 185.134 37.052 224.54C28.3281 247.307 27.0582 272.617 33.3791 297.734L33.2331 297.827C29.9212 284.668 28.6577 271.492 29.4739 258.665C30.2242 246.867 32.7293 235.343 36.9186 224.409C43.5267 207.165 54.1358 191.796 67.6 179.961C80.0471 169.02 94.045 161.986 107.013 160.153C128.525 157.162 151.509 160.919 175.325 171.32C196.884 180.737 218.252 195.144 238.84 214.144C276.583 249.034 308.798 298.144 332.003 356.165C333.273 359.342 334.533 362.599 335.75 365.851C345.583 392.128 353.722 420.776 360.631 453.429C361.818 459.027 362.989 464.792 364.121 470.367C369.548 497.099 375.16 524.74 385.242 548.212C385.807 549.528 386.389 550.834 386.976 552.095C413.834 609.797 461.431 603.602 496.686 571.868C533.714 538.245 561.231 482.363 587.842 428.322L588.115 427.767C590.693 422.529 593.358 417.115 596.011 411.768C624.002 355.366 654.768 297.403 695.845 262.786C707.377 253.087 719.527 245.966 731.956 241.619C743.516 237.576 755.704 235.8 768.181 236.343C789.934 237.287 813.24 245.117 839.431 260.28C866.956 276.158 887.669 290.753 906.592 307.606C933.553 331.666 959.67 362.069 982.712 388.894C1034.02 448.939 1084.47 516.581 1132.67 589.936L1132.56 590.117C1084.36 516.769 1033.92 449.135 982.62 389.094C959.581 362.275 933.469 331.877 906.515 307.824C887.6 290.977 866.893 276.386 839.378 260.513C782.606 227.646 737.021 228.437 695.917 263.004C654.867 297.599 624.113 355.537 596.133 411.919C593.48 417.265 590.815 422.682 588.238 427.918L587.965 428.473C574.703 455.403 560.991 483.25 546.183 508.123C529.542 536.076 513.376 556.996 496.762 572.081C479.38 587.726 460.445 596.189 443.015 596.189Z" fill="#FFC107"/>
<path d="M1130.9 587.749C1083.33 513.929 1033.66 445.426 983.277 384.143C981.143 381.566 979.005 378.977 976.859 376.38C955.035 349.957 932.469 322.635 908.337 301.35C884.926 280.759 861.2 268.167 841.077 258.567C785.533 231.903 740.549 235.928 699.508 271.231C657.378 307.578 624.733 367.925 598.503 416.417C596.929 419.327 595.357 422.243 593.783 425.161C592.622 427.315 591.458 429.47 590.295 431.622C575.36 459.26 561.775 483.971 546.765 506.519C529.617 532.276 513.089 551.14 496.233 564.191C480.436 576.423 463.561 582.895 447.865 582.897C445.005 582.897 442.187 582.684 439.418 582.249C429.31 580.665 419.952 576.212 411.605 569.015C402.496 561.163 394.574 550.008 388.056 535.86C387.473 534.592 386.893 533.281 386.331 531.962C376.356 508.585 370.521 481.314 364.88 454.941C363.665 449.261 362.408 443.384 361.137 437.681C353.901 405.149 345.557 376.747 335.63 350.851C334.395 347.63 333.116 344.403 331.829 341.256C308.305 283.777 275.851 235.333 237.978 201.161C193.775 161.371 146.861 143.071 105.875 149.631C77.8557 154.204 49.2037 180.787 36.1978 214.274C27.3373 237.089 25.7661 262.479 31.6506 287.702L31.5031 287.79C28.4219 274.583 27.3483 261.367 28.312 248.507C29.1989 236.667 31.8076 225.105 36.0644 214.141C42.7416 196.947 53.3161 181.578 66.6454 169.7C78.9732 158.714 92.8989 151.497 105.859 149.382C127.346 145.942 150.353 149.254 174.243 159.224C195.854 168.244 217.325 182.279 238.056 200.94C275.953 235.132 308.424 283.604 331.962 341.118C333.251 344.267 334.53 347.496 335.765 350.718C345.698 376.629 354.045 405.046 361.286 437.594C362.557 443.299 363.814 449.173 365.029 454.856C370.667 481.213 376.499 508.467 386.461 531.817C387.023 533.133 387.602 534.441 388.183 535.707C416.221 596.563 463.876 588.962 496.165 563.963C534.688 534.135 564.167 479.586 590.178 431.456C591.341 429.302 592.502 427.147 593.665 424.995C595.238 422.077 596.811 419.161 598.385 416.251C613.358 388.572 628.144 361.675 644.399 336.889C663.091 308.384 681.095 286.836 699.436 271.01C710.847 261.194 722.825 253.703 735.038 248.748C746.453 244.115 758.454 241.543 770.71 241.101C792.323 240.323 815.357 245.958 841.124 258.326C861.253 267.931 884.991 280.527 908.414 301.132C932.556 322.424 955.128 349.754 976.956 376.182C979.101 378.779 981.24 381.368 983.375 383.944C1033.76 445.233 1083.44 513.743 1131.01 587.571L1130.9 587.749Z" fill="#FFC107"/>
<path d="M1129.23 585.383C1081.39 509.68 1032.51 440.305 983.932 379.19C981.025 375.534 978.052 371.764 975.176 368.121C954.581 342.024 933.286 315.039 910.156 294.876C887.059 274.814 863.133 264.277 842.774 256.618C788.581 236.034 744.197 243.291 703.096 279.457C663.893 314.079 633.181 366.142 603.479 416.489L600.217 422.016C597.641 426.383 594.977 430.896 592.351 435.323C562.62 485.382 532.856 532.298 495.702 556.296C486.686 562.119 477.428 566.155 468.183 568.297C458.255 570.594 448.612 570.627 439.519 568.392C429.643 565.964 420.497 560.863 412.335 553.232C403.452 544.927 395.689 533.569 389.263 519.476C388.683 518.201 388.107 516.887 387.55 515.571C377.698 492.333 371.653 465.463 365.808 439.477C364.503 433.678 363.153 427.681 361.791 421.858C354.219 389.426 345.668 361.252 335.647 335.729C334.395 332.539 333.097 329.338 331.789 326.216C307.934 269.247 275.225 221.441 237.196 187.964C192.681 148.895 145.635 131.457 104.72 138.867C76.9562 144.003 48.4345 170.772 35.3627 203.968C26.3546 226.84 24.4727 252.329 29.9193 277.679L29.7701 277.762C26.9197 264.498 26.0392 251.231 27.152 238.334C28.1786 226.443 30.8956 214.836 35.2277 203.837C41.9771 186.701 52.514 171.347 65.702 159.434C77.9074 148.407 91.7577 141.017 104.701 138.621C126.162 134.734 149.193 137.599 173.158 147.137C194.822 155.76 216.392 169.421 237.27 187.746C275.32 221.24 308.049 269.076 331.918 326.078C333.225 329.202 334.525 332.406 335.778 335.595C345.804 361.132 354.36 389.32 361.935 421.77C363.298 427.594 364.648 433.593 365.952 439.391C371.794 465.362 377.836 492.22 387.677 515.431C388.233 516.742 388.809 518.052 389.387 519.328C416.75 579.338 462.216 577.653 495.641 556.065C532.765 532.087 562.516 485.188 592.235 435.152C594.861 430.725 597.525 426.212 600.101 421.845L603.362 416.318C617.943 391.605 633.017 366.049 649.39 342.275C667.934 315.35 685.476 294.731 703.018 279.236C714.313 269.297 726.121 261.437 738.113 255.877C749.388 250.649 761.202 247.279 773.229 245.86C794.748 243.321 817.506 246.761 842.808 256.372C863.177 264.036 887.116 274.576 910.228 294.655C933.371 314.825 954.672 341.818 975.272 367.922C978.148 371.566 981.12 375.333 984.027 378.992C1032.61 440.112 1081.5 509.492 1129.34 585.202L1129.23 585.383Z" fill="#FFC107"/>
<path d="M1127.57 583.017C1080.14 506.473 1032.03 436.229 984.587 374.24C981.02 369.582 977.365 364.738 973.83 360.054C954.346 334.239 934.199 307.545 911.974 288.407C888.986 268.689 864.951 260.289 844.471 254.674C791.78 240.006 747.997 250.498 706.683 287.689C670.629 320.282 641.027 366.473 612.399 411.142C609.387 415.843 606.271 420.703 603.236 425.411C599.671 430.941 596.948 435.142 594.406 439.029C580.796 459.837 564.591 483.797 547.586 503.726C529.565 524.842 512.42 539.458 495.17 548.408C486.099 553.114 476.881 556.082 467.769 557.227C457.986 558.457 448.513 557.553 439.616 554.537C429.977 551.27 421.045 545.522 413.063 537.454C404.408 528.705 396.806 517.143 390.468 503.095C389.897 501.822 389.324 500.506 388.768 499.185C379.046 476.102 372.799 449.647 366.756 424.063C365.354 418.129 363.906 411.994 362.444 406.035C354.532 373.693 345.772 345.751 335.662 320.606C334.39 317.444 333.073 314.273 331.747 311.176C307.561 254.717 274.594 207.549 236.411 174.767C191.588 136.416 144.409 119.845 103.566 128.102C80.3263 132.903 49.9729 155.022 34.5498 193.609C25.38 216.551 23.1794 242.156 28.1881 267.652L28.039 267.727C25.4193 254.395 24.7349 241.071 26.0032 228.123C27.1741 216.172 30.0041 204.515 34.4179 193.473C41.2395 176.407 51.7372 161.079 64.7792 149.14C76.8621 138.081 90.6293 130.522 103.547 127.853C124.984 123.519 148.04 125.937 172.077 135.042C193.793 143.269 215.463 156.559 236.485 174.546C274.69 207.345 307.675 254.541 331.876 311.033C333.202 314.129 334.521 317.306 335.792 320.47C345.907 345.627 354.671 373.585 362.589 405.942C364.052 411.903 365.5 418.038 366.902 423.972C372.94 449.544 379.186 475.984 388.897 499.042C389.453 500.361 390.024 501.674 390.595 502.945C413.36 553.405 452.435 570.31 495.121 548.164C533.778 528.109 565.312 483.161 594.298 438.844C596.839 434.956 599.561 430.755 603.126 425.225C606.161 420.517 609.277 415.658 612.289 410.957C626.383 388.966 640.955 366.227 656.499 344.934C674.076 320.854 690.467 302.055 706.608 287.465C717.795 277.395 729.43 269.166 741.194 263.009C752.337 257.175 763.965 253.009 775.754 250.621C797.221 246.276 819.707 247.52 844.498 254.42C864.989 260.04 889.041 268.443 912.048 288.179C934.286 307.329 954.439 334.031 973.929 359.853C977.464 364.537 981.119 369.381 984.686 374.039C1032.14 436.036 1080.25 506.285 1127.68 582.834L1127.57 583.017Z" fill="#FFC107"/>
<path d="M1125.91 580.652C1078.89 503.262 1031.56 432.147 985.24 369.289C981.298 363.942 977.252 358.33 973.337 352.903C954.69 327.053 935.41 300.323 913.792 281.934C890.788 262.452 866.699 256.237 846.168 252.726C795.866 243.894 751.413 258.022 710.27 295.916C677.51 326.226 649.428 366.775 622.271 405.99C616.785 413.91 611.114 422.102 605.6 429.909C602.226 434.688 599.238 438.884 596.46 442.736C583.54 460.631 566.354 483.576 547.99 502.327C529.537 521.167 512.085 533.66 494.635 540.518C475.603 547.999 456.609 548.054 439.708 540.681C430.31 536.58 421.589 530.187 413.787 521.676C405.363 512.488 397.923 500.725 391.671 486.72C391.104 485.445 390.536 484.126 389.983 482.805C380.399 459.898 373.958 433.877 367.729 408.715C366.223 402.627 364.665 396.334 363.094 390.22C354.835 357.963 345.866 330.247 335.674 305.491C334.384 302.357 333.049 299.213 331.703 296.145C307.186 240.195 273.963 193.662 235.627 161.582C190.494 123.951 143.184 108.243 102.411 117.347C74.7795 123.65 47.1902 150.118 33.7605 183.206C24.415 206.231 21.8894 231.968 26.457 257.635L26.3064 257.703C23.919 244.291 23.4324 230.896 24.8592 217.893C26.1776 205.874 29.1285 194.157 33.6287 183.067C40.5224 166.082 50.9793 150.788 63.869 138.84C75.8248 127.758 89.5057 120.034 102.389 117.095C123.8 112.314 146.882 114.288 170.993 122.959C192.762 130.789 214.532 143.707 235.699 161.356C274.057 193.456 307.299 240.014 331.832 295.999C333.177 299.068 334.513 302.214 335.805 305.351C346.001 330.121 354.975 357.85 363.239 390.122C364.81 396.236 366.367 402.532 367.874 408.619C374.099 433.769 380.537 459.778 390.112 482.662C390.665 483.983 391.231 485.296 391.798 486.572C414.171 536.706 452.6 556.781 494.597 540.274C532.884 525.225 566.131 484.41 596.356 442.548C599.133 438.696 602.123 434.502 605.494 429.723C611.007 421.916 616.68 413.727 622.164 405.807C649.328 366.584 677.415 326.026 710.19 295.703C721.278 285.49 732.744 276.894 744.27 270.149C755.293 263.7 766.734 258.735 778.274 255.393C799.735 249.178 821.949 248.226 846.182 252.48C866.727 255.993 890.836 262.211 913.864 281.715C935.498 300.117 954.786 326.857 973.439 352.717C977.354 358.144 981.4 363.754 985.342 369.1C1031.67 431.963 1079 503.083 1126.02 580.479L1125.91 580.652Z" fill="#FFC107"/>
<path d="M1124.24 578.286C1077.64 500.042 1031.09 428.06 985.893 364.339C981.74 358.482 977.466 352.282 973.334 346.286C955.368 320.217 936.792 293.259 915.608 275.462C892.507 256.146 868.399 252.145 847.862 250.779C799.461 247.324 755.626 264.779 713.855 304.145C684.561 331.884 658.447 366.99 633.192 400.939C624.509 412.614 616.306 423.641 607.964 434.406C604.57 438.788 601.479 442.726 598.513 446.44C579.371 470.384 563.446 487.697 548.393 500.921C529.509 517.512 511.75 527.884 494.101 532.625C487.255 534.463 480.433 535.38 473.736 535.38C461.863 535.38 450.375 532.507 439.799 526.816C420.659 516.518 404.871 497.516 392.875 470.337C392.31 469.048 391.746 467.73 391.2 466.414C381.762 443.705 375.14 418.146 368.736 393.426C367.113 387.163 365.436 380.689 363.746 374.393C355.133 342.212 345.954 314.727 335.689 290.366C334.38 287.26 333.025 284.143 331.661 281.102C306.812 225.662 273.332 179.767 234.842 148.382C189.4 111.475 141.959 96.6286 101.257 106.578C73.5112 113.501 46.7177 139.467 33.0008 172.731C23.4653 195.852 20.6055 221.742 24.7273 247.605L24.575 247.668C22.4231 234.163 22.1374 220.687 23.7274 207.617C25.1997 195.518 28.2746 183.735 32.8705 172.593C39.8365 155.7 50.2478 140.457 62.9806 128.508C74.8077 117.409 88.3928 109.534 101.234 106.329C122.62 101.101 145.726 102.628 169.91 110.867C191.732 118.303 213.602 130.849 234.914 148.156C273.426 179.561 306.925 225.481 331.79 280.954C333.154 283.997 334.508 287.114 335.819 290.223C346.091 314.597 355.274 342.097 363.89 374.29C365.581 380.586 367.259 387.062 368.88 393.325C375.281 418.033 381.9 443.582 391.33 466.271C391.876 467.584 392.438 468.903 393.003 470.189C415.405 520.945 452.244 543.611 494.075 532.374C533.895 521.676 569.164 482.83 598.416 446.239C601.38 442.525 604.471 438.59 607.865 434.208C616.206 423.442 624.408 412.418 633.092 400.744C658.35 366.787 684.47 331.675 713.775 303.926C724.78 293.555 736.075 284.59 747.348 277.277C758.266 270.196 769.52 264.433 780.796 260.151C802.302 251.987 824.242 248.838 847.868 250.526C868.422 251.892 892.552 255.897 915.68 275.236C936.881 293.045 955.466 320.016 973.438 346.095C977.571 352.091 981.843 358.292 985.995 364.145C1031.2 427.872 1077.75 499.861 1124.35 578.11L1124.24 578.286Z" fill="#FFC107"/>
<path d="M1122.58 575.921C1075.75 495.703 1031.25 424.874 986.549 359.387C982.283 353.139 978.084 346.758 973.637 340.003C956.257 313.595 938.285 286.291 917.428 268.991C894.037 249.682 868.871 248.075 849.56 248.833C803.363 250.41 760.146 271.196 717.443 312.377C691.822 337.205 668.167 367.021 645.289 395.857C633.266 411.012 621.91 425.324 610.329 438.907C606.892 442.942 603.697 446.619 600.568 450.147C581.165 471.984 564.716 487.669 548.797 499.512C529.475 513.886 511.41 522.136 493.569 524.732C484.403 526.066 475.299 525.815 466.511 523.986C457.206 522.05 448.25 518.336 439.891 512.95C421.365 501.009 405.953 481.163 394.082 453.959C393.522 452.668 392.963 451.347 392.42 450.031C383.14 427.556 376.351 402.484 369.786 378.238C368.034 371.77 366.223 365.08 364.4 358.576C355.427 326.465 346.04 299.208 335.704 275.249C334.375 272.17 333.002 269.081 331.622 266.068C306.442 211.138 272.706 165.881 234.062 135.191C198.394 106.983 161.611 92.2645 127.882 92.2645C118.346 92.2645 109.062 93.4397 100.107 95.8179C72.6952 103.241 46.0697 129.3 32.2727 162.207C22.5347 185.435 19.328 211.502 22.9993 237.586L22.8455 237.641C20.929 224.03 20.849 210.462 22.6069 197.316C24.2362 185.129 27.4445 173.269 32.1408 162.066C39.179 145.279 49.5417 130.098 62.1112 118.163C73.976 106.895 87.1059 99.0824 100.079 95.5718C121.44 89.8964 144.571 90.9788 168.828 98.7836C190.703 105.82 212.674 117.992 234.131 134.963C272.797 165.67 306.553 210.952 331.749 265.915C333.13 268.928 334.505 272.019 335.835 275.101C346.175 299.073 355.567 326.342 364.545 358.468C366.367 364.972 368.18 371.662 369.932 378.133C376.494 402.369 383.28 427.431 392.552 449.888C393.095 451.202 393.653 452.523 394.212 453.811C416.411 504.68 452.62 530.435 493.557 524.479C534.981 518.449 572.457 481.474 600.48 449.936C603.609 446.408 606.802 442.731 610.24 438.698C621.819 425.12 633.173 410.806 645.195 395.654C668.076 366.815 691.734 336.992 717.365 312.156C739.351 290.954 760.925 275.502 783.324 264.915C804.925 254.705 826.592 249.361 849.56 248.577C862.663 248.062 873.354 248.956 883.205 251.387C895.924 254.526 907.142 260.209 917.503 268.762C938.379 286.077 956.359 313.397 973.749 339.817C978.194 346.572 982.394 352.951 986.657 359.198C1031.36 424.688 1075.86 495.522 1122.7 575.745L1122.58 575.921Z" fill="#FFC107"/>
<path d="M1120.91 573.555C1074.51 492.458 1030.77 420.785 987.2 354.434C982.89 347.87 978.639 341.107 974.139 333.948C957.278 307.123 939.845 279.382 919.243 262.516C895.66 243.298 870.521 244.067 851.255 246.882C807.659 253.032 765.061 277.147 721.028 320.601C699.333 342.114 678.677 366.734 658.7 390.545C642.908 409.367 627.993 427.146 612.693 443.396C609.235 447.073 605.844 450.588 602.619 453.843C583.179 473.44 565.704 487.912 549.197 498.088C529.43 510.272 511.06 516.405 493.034 516.832C483.863 517.047 474.795 515.722 466.088 512.886C456.961 509.913 448.177 505.265 439.981 499.067C422.09 485.539 407.052 464.85 395.284 437.57C394.732 436.282 394.176 434.959 393.635 433.635C384.529 411.434 377.593 386.892 370.884 363.158C368.987 356.443 367.023 349.497 365.05 342.744C355.709 310.694 346.114 283.668 335.717 260.118C334.369 257.067 332.976 254.006 331.578 251.02C306.067 196.6 272.073 151.98 233.276 121.987C187.217 86.5283 139.511 73.4098 98.9503 85.0467C71.8932 92.9445 45.445 119.071 31.5711 151.604C21.6134 174.956 18.0504 201.218 21.265 227.555L21.1111 227.603C19.4348 213.874 19.5635 200.201 21.4957 186.964C23.2898 174.677 26.6346 162.731 31.4408 151.461C38.5481 134.794 48.8589 119.689 61.259 107.778C72.9872 96.5129 86.0103 88.5674 98.9221 84.7981C120.26 78.6783 143.415 79.3111 167.744 86.684C189.671 93.3287 211.742 105.129 233.343 121.758C272.165 151.767 306.177 196.414 331.702 250.867C333.102 253.853 334.496 256.916 335.844 259.97C346.248 283.533 355.846 310.571 365.191 342.634C367.166 349.387 369.128 356.333 371.027 363.05C377.733 386.774 384.666 411.305 393.765 433.492C394.306 434.813 394.862 436.136 395.413 437.422C417.846 489.424 452.514 517.54 493.031 516.575C525.907 515.797 560.702 495.793 602.534 453.624C605.758 450.37 609.147 446.857 612.605 443.18C627.901 426.933 642.815 409.158 658.604 390.337C678.584 366.523 699.243 341.898 720.945 320.38C743.146 298.469 764.373 281.885 785.841 269.673C807.59 257.303 828.982 249.762 851.241 246.623C870.527 243.803 895.696 243.037 919.316 262.285C939.939 279.171 957.382 306.925 974.251 333.762C978.749 340.921 983 347.682 987.308 354.243C1030.88 420.597 1074.62 492.274 1121.03 573.376L1120.91 573.555Z" fill="#FFC107"/>
<path d="M1119.25 571.189C1073.28 489.211 1030.3 416.69 987.857 349.485C983.549 342.662 979.293 335.572 974.79 328.066C958.406 300.762 941.464 272.529 921.065 256.045C897.258 236.897 872.16 240.049 852.954 244.933C811.935 255.166 771.156 281.825 724.617 328.83C707.163 346.539 690.106 365.966 673.611 384.752C653.576 407.569 634.653 429.123 615.059 447.894C611.529 451.279 608.035 454.528 604.674 457.547C584.886 475.311 566.871 488.108 549.601 496.667C539.927 501.46 530.378 504.933 521.217 506.99C511.446 509.182 501.785 509.838 492.503 508.939C473.669 507.113 456.029 499.122 440.076 485.19C422.846 470.143 408.182 448.612 396.493 421.19C395.944 419.891 395.393 418.565 394.855 417.25C385.944 395.374 378.884 371.415 372.058 348.247C369.99 341.233 367.854 333.98 365.705 326.924C355.988 294.926 346.184 268.129 335.733 244.998C334.366 241.972 332.954 238.939 331.538 235.983C305.695 182.07 271.446 138.088 232.495 108.795C186.128 74.0627 138.292 61.808 97.7988 74.2862C54.4411 87.8543 12.1915 146.478 19.5374 217.533L19.382 217.573C17.544 199.799 18.6207 182.288 22.5809 165.523C26.1973 150.213 32.132 135.803 40.2203 122.7C47.7404 110.515 56.7626 99.996 67.0342 91.4327C76.8035 83.2889 87.4314 77.272 97.7674 74.0376C119.08 67.4708 142.26 67.6591 166.663 74.6001C188.644 80.8505 210.815 92.279 232.56 108.569C271.534 137.883 305.804 181.889 331.662 235.832C333.079 238.79 334.492 241.824 335.861 244.853C346.316 267.993 356.124 294.806 365.847 326.816C367.995 333.872 370.132 341.125 372.199 348.141C379.024 371.302 386.081 395.251 394.987 417.114C395.523 418.43 396.073 419.756 396.622 421.052C419.088 473.752 453.143 504.873 492.512 508.69C525.841 511.917 562.505 495.12 604.597 457.331C607.956 454.312 611.449 451.065 614.979 447.68C634.568 428.914 653.488 407.363 673.52 384.549C690.016 365.76 707.075 346.33 724.532 328.619C771.091 281.594 811.888 254.925 852.929 244.684C865.835 241.402 876.519 240.352 886.557 241.385C899.388 242.703 910.698 247.424 921.134 255.819C941.556 272.32 958.508 300.571 974.901 327.891C979.405 335.394 983.658 342.483 987.965 349.304C1030.41 416.514 1073.39 489.037 1119.36 571.021L1119.25 571.189Z" fill="#FFC107"/>
<path d="M1117.58 568.824C1072.05 485.952 1029.83 412.587 988.511 344.533C984.235 337.491 980.01 330.116 975.536 322.304C959.597 294.477 943.114 265.701 922.882 249.572C898.557 230.263 872.291 236.563 854.65 242.982C806.771 260.189 763.862 300.192 728.205 337.06C715.389 350.364 702.606 364.457 690.242 378.085C665.44 405.425 642.015 431.247 617.425 452.392C613.809 455.503 610.211 458.484 606.73 461.254C586.556 477.273 568.001 488.392 550.007 495.243C529.608 503.01 510.084 504.964 491.972 501.047C473.365 497.021 455.936 487.016 440.171 471.309C423.635 454.835 409.347 432.463 397.7 404.812C397.157 403.514 396.609 402.185 396.074 400.864C387.384 379.391 380.236 356.089 373.322 333.554C371.057 326.168 368.714 318.534 366.359 311.104C356.118 278.704 346.391 252.896 335.75 229.879C334.364 226.88 332.934 223.877 331.498 220.946C305.321 167.545 270.815 124.202 231.709 95.6017C185.035 61.5975 137.067 50.2041 96.6431 63.5236C53.13 78.0509 11.7437 135.879 17.8056 207.511L17.6502 207.544C16.1465 189.772 17.4478 172.279 21.5162 155.552C25.2457 140.226 31.2149 125.802 39.2608 112.683C46.7636 100.448 55.7387 89.8511 65.9381 81.1799C75.6494 72.923 86.2569 66.7329 96.6117 63.275C117.901 56.2612 141.104 56.005 165.579 62.5116C187.614 68.3677 209.885 79.4245 231.775 95.3732C270.904 123.988 305.43 167.357 331.619 220.791C333.055 223.724 334.487 226.73 335.874 229.728C346.521 252.756 356.251 278.578 366.497 310.991C368.852 318.421 371.195 326.058 373.46 333.443C380.373 355.971 387.519 379.265 396.203 400.729C396.738 402.05 397.284 403.376 397.827 404.674C420.467 458.424 453.908 492.561 491.99 500.798C526.145 508.186 563.653 495.175 606.659 461.028C610.139 458.26 613.737 455.282 617.35 452.171C641.933 431.031 665.355 405.214 690.152 377.877C702.516 364.248 715.301 350.153 728.118 336.846C752.096 312.058 772.043 293.744 790.888 279.211C813.073 262.105 833.917 250.174 854.614 242.736C867.231 238.145 878.228 236.066 888.234 236.383C901.118 236.789 912.474 241.028 922.951 249.346C943.21 265.495 959.702 294.289 975.651 322.133C980.125 329.943 984.348 337.318 988.622 344.355C1029.95 412.411 1072.17 485.781 1117.7 568.656L1117.58 568.824Z" fill="#FFC107"/>
<path d="M1115.92 566.455C1070.83 482.687 1029.37 408.475 989.167 339.578C984.951 332.353 980.779 324.721 976.362 316.64C960.844 288.254 944.797 258.9 924.703 243.097C900.112 223.834 873.916 232.691 856.351 241.03C812.969 261.449 774.275 300.328 731.795 345.286C724.133 353.425 716.384 361.825 708.889 369.951C680.065 401.2 650.26 433.512 619.793 456.886C616.091 459.729 612.387 462.444 608.785 464.955C588.474 479.098 568.835 488.806 550.412 493.811C529.542 499.481 509.702 499.258 491.438 493.151C473.092 487.016 455.875 474.995 440.264 457.421C424.465 439.637 410.549 416.426 398.903 388.433C398.364 387.133 397.821 385.802 397.289 384.481C388.862 363.51 381.668 340.966 374.712 319.167C372.205 311.312 369.613 303.19 367.009 295.288C356.367 262.921 346.438 237.334 335.761 214.763C334.36 211.8 332.909 208.822 331.453 205.914C304.95 153.015 270.189 110.309 230.926 82.4074C183.946 49.1314 135.848 38.6019 95.4896 52.7601C53.3577 67.7018 11.2071 123.501 16.0745 197.486L15.9191 197.511C14.7497 179.739 16.2754 162.266 20.4521 145.577C24.293 130.233 30.2984 115.796 38.3003 102.663C53.0642 78.4347 73.8963 60.1556 95.4551 52.5115C116.719 45.0532 139.948 44.35 164.497 50.4221C186.584 55.8865 208.955 66.5692 230.989 82.1764C270.273 110.093 305.055 152.827 331.575 205.75C333.033 208.661 334.484 211.639 335.887 214.605C346.568 237.188 356.502 262.785 367.147 295.165C369.751 303.07 372.345 311.191 374.851 319.046C381.806 340.841 388.998 363.379 397.421 384.34C397.951 385.661 398.494 386.989 399.033 388.29C422.334 444.295 454.298 480.469 491.468 492.902C525.887 504.413 565.334 494.934 608.719 464.724C612.32 462.213 616.021 459.501 619.72 456.66C650.177 433.294 679.978 400.987 708.796 369.742C716.291 361.616 724.041 353.216 731.704 345.077C750.299 325.397 771.936 302.824 793.41 283.977C815.873 264.264 836.445 250.139 856.302 240.792C868.802 234.858 879.798 231.779 889.912 231.382C902.669 230.88 914.394 234.747 924.767 242.874C933.769 249.953 942.829 260.517 952.465 275.173C960.974 288.113 968.855 302.532 976.477 316.475C980.892 324.553 985.064 332.185 989.279 339.407C1029.48 408.307 1070.94 482.521 1116.04 566.292L1115.92 566.455Z" fill="#FFC107"/>
<path d="M1112.59 561.724C1071.84 482.822 1030.75 404.749 990.474 329.676C986.373 322.077 982.309 313.913 978.007 305.272C964.014 277.162 948.153 245.302 928.338 230.157C909.449 215.75 887.011 218.033 859.74 237.133C827.315 259.769 798.621 293.053 768.241 328.29C758.727 339.324 748.889 350.738 738.966 361.747C721.645 381.005 702.908 401.384 683.268 419.944C662.233 439.823 643.016 454.847 624.518 465.882C620.632 468.199 616.72 470.382 612.889 472.363C591.693 483.319 570.95 489.555 551.237 490.896C529.415 492.377 508.937 487.827 490.372 477.36C456.088 457.793 426.124 416.853 401.313 355.675C400.784 354.369 400.25 353.033 399.725 351.71C392.029 332.293 384.984 311.809 378.172 291.998C374.965 282.674 371.65 273.031 368.315 263.646C356.841 231.31 346.506 206.167 335.792 184.523C334.35 181.61 332.863 178.69 331.371 175.84C304.205 123.958 268.929 82.528 229.359 56.0197C181.768 24.2027 133.406 15.4009 93.1817 31.2341C51.5726 47.7051 10.5364 103.215 12.613 177.442L12.456 177.452C11.9585 159.672 13.933 142.24 18.3233 125.635C22.3917 110.254 28.4662 95.7847 36.3802 82.631C43.8359 70.2382 52.6729 59.4023 62.6447 50.4223C72.3262 41.7058 82.5868 35.1667 93.1425 30.988C114.359 22.6382 137.637 21.0411 162.33 26.2468C184.524 30.9252 207.096 40.8621 229.419 55.7862C269.013 82.3096 304.309 123.765 331.49 175.671C332.983 178.524 334.472 181.447 335.915 184.36C346.634 206.017 356.973 231.169 368.451 263.516C371.787 272.903 375.102 282.546 378.309 291.872C385.121 311.681 392.164 332.162 399.856 351.571C400.381 352.897 400.916 354.231 401.443 355.537C426.235 416.667 456.173 457.575 490.424 477.122C525.704 497.011 568.035 495.283 612.84 472.122C616.668 470.141 620.58 467.961 624.463 465.646C665.821 440.978 703.662 400.691 738.875 361.538C748.798 350.529 758.635 339.118 768.148 328.084C798.534 292.839 827.235 259.548 859.676 236.902C886.989 217.772 909.471 215.489 928.404 229.928C937.278 236.711 946.09 247.344 955.343 262.429C963.502 275.73 970.937 290.67 978.129 305.114C982.432 313.755 986.494 321.917 990.594 329.51C1030.87 404.586 1071.96 482.659 1112.71 561.564L1112.59 561.724Z" fill="#FFC107"/>
<path d="M1110.93 559.359C1070.8 480.02 1030.49 401.078 991.128 324.724C987.156 317.042 983.214 308.735 979.041 299.941C965.391 271.175 949.92 238.57 930.155 223.681C911.04 209.299 888.561 213.061 861.435 235.177C833.014 258.315 806.902 290.986 781.65 322.585C768.987 338.428 755.894 354.811 742.552 369.971C721.494 393.923 703.776 412.195 686.791 427.475C665.848 446.317 646.251 460.35 626.883 470.374C622.907 472.434 618.889 474.347 614.941 476.062C594.373 484.995 574.175 489.515 554.853 489.517C553.78 489.517 552.712 489.502 551.645 489.475C529.306 488.892 508.512 482.157 489.839 469.46C480.827 463.298 472.001 455.475 463.608 446.209C455.719 437.5 447.967 427.242 440.566 415.72C427.251 394.993 414.803 369.991 402.516 339.292C401.989 337.971 401.463 336.647 400.941 335.319C393.811 317.206 387.067 298.271 380.545 279.959C376.779 269.39 372.887 258.458 368.966 247.818C356.894 215.037 346.668 190.849 335.804 169.396C334.343 166.511 332.838 163.618 331.326 160.795C303.831 109.428 268.3 68.6362 228.576 42.8235C180.68 11.7373 132.187 3.79936 92.0277 20.4688C51.1987 37.4646 10.2158 93.3968 10.8829 167.415L10.726 167.417C10.4152 132.941 18.9555 100.157 35.4224 72.6115C42.8656 60.1609 51.6555 49.2472 61.5504 40.1667C71.1784 31.3322 81.4187 24.6223 91.9885 20.2227C113.18 11.4259 136.483 9.38428 161.248 14.1556C183.496 18.4422 206.168 28.0074 228.634 42.5875C268.383 68.4178 303.935 109.235 331.447 160.632C332.959 163.457 334.467 166.352 335.928 169.238C346.796 190.704 357.027 214.899 369.102 247.693C373.023 258.335 376.918 269.267 380.681 279.836C387.203 298.146 393.946 317.078 401.074 335.186C401.597 336.514 402.121 337.838 402.648 339.156C428.757 404.392 457.298 446.94 489.901 469.229C535.057 499.936 582.8 489.763 614.901 475.821C618.845 474.106 622.86 472.195 626.835 470.136C671.379 447.078 712.026 404.385 742.461 369.768C755.801 354.613 768.893 338.23 781.554 322.389C806.812 290.785 832.929 258.104 861.365 234.956C873.502 225.059 884.488 218.982 894.948 216.381C907.847 213.171 919.715 215.552 930.221 223.457C939.072 230.125 947.799 240.842 956.901 256.221C964.92 269.771 972.163 285.032 979.166 299.793C983.338 308.585 987.278 316.889 991.249 324.566C1030.61 400.919 1070.92 479.862 1111.05 559.201L1110.93 559.359Z" fill="#FFC107"/>
<path d="M1109.27 556.993L991.784 319.775C987.947 312.028 984.136 303.597 980.102 294.675C966.791 265.229 951.702 231.855 931.975 217.212C912.897 203.054 889.736 208.443 863.133 233.231C837.557 257.06 814.231 288.749 791.672 319.395C776.968 339.372 761.763 360.027 746.141 378.205C699.185 432.844 658.149 465.116 616.998 479.769C599.927 485.846 583.087 488.905 566.755 488.905C561.804 488.905 556.904 488.623 552.055 488.061C529.189 485.409 508.077 476.494 489.309 461.568C471.915 447.731 456.002 428.199 440.667 401.851C428.421 380.812 416.681 355.73 403.724 322.916C396.885 305.599 390.263 287.606 383.859 270.206C369.365 230.83 354.378 190.113 335.824 154.278C307.363 99.3156 270.006 56.2132 227.791 29.6296C179.593 -0.723415 130.967 -7.8 90.8745 9.70564C52.0578 26.6538 9.92747 80.0973 9.15208 157.392L8.99512 157.387C9.342 122.838 18.1492 90.0593 34.4638 62.5942C49.2152 37.7609 69.2341 18.8916 90.8337 9.46205C112.002 0.220801 135.329 -2.26781 160.166 2.06905C182.467 5.96142 205.239 15.1575 227.849 29.396C248.738 42.5497 268.576 59.8645 286.815 80.8607C305.207 102.033 321.736 126.678 335.943 154.113C354.505 189.96 369.497 230.687 383.994 270.073C390.398 287.47 397.02 305.461 403.858 322.776C422.762 370.654 449.568 429.67 489.38 461.336C535.037 497.651 583.961 491.268 616.964 479.518C658.094 464.875 699.112 432.616 746.048 377.997C761.664 359.826 776.868 339.171 791.57 319.2C814.134 288.548 837.466 256.851 863.054 233.01C889.703 208.179 912.915 202.785 932.041 216.981C940.873 223.538 949.52 234.348 958.476 250.036C966.359 263.845 973.411 279.442 980.23 294.524C984.264 303.447 988.073 311.872 991.908 319.616L1109.39 556.835L1109.27 556.993Z" fill="#FFC107"/>
<path d="M1108.32 538.758C1078.4 472.708 1052.73 419.111 1027.54 370.09C1015.31 346.276 1002.82 322.836 990.42 300.421C986.668 293.641 982.951 286.429 979.016 278.792C969.128 259.599 958.902 239.753 947.134 225.025C940.816 217.102 934.734 211.429 928.54 207.682C909.527 196.068 887.22 203.747 862.239 230.509C849.31 244.338 837.538 260.076 827.728 273.647C817.342 288.013 807.097 303.857 797.188 319.177C782.947 341.201 768.22 363.972 752.389 383.53C742.756 395.465 732.992 406.131 723.365 415.231C704.106 433.437 683.434 448.439 661.924 459.82C648.634 466.774 635.28 472.03 622.234 475.44C610.991 478.368 599.728 480.058 588.754 480.462C572.331 481.07 556.331 478.752 541.196 473.567C525.105 468.052 509.876 459.25 495.935 447.402C483.503 436.838 471.761 423.536 460.037 406.733C438.191 375.449 420.767 339.275 408.028 311.255C401.77 297.425 395.659 283.322 389.75 269.684C372.733 230.406 356.66 193.308 336.547 160.263C320.143 133.489 301.427 110.383 280.913 91.5841C265.15 77.1371 248.005 65.3219 229.956 56.4648C225.656 54.3579 221.276 52.3941 216.939 50.6338C198.267 43.0675 177.246 38.1405 154.463 35.9884C131.493 33.7685 111.62 35.6896 93.7123 41.8672C83.5882 45.3326 73.7797 50.7694 64.555 58.0243C31.9884 83.6386 11.0763 126.638 8.61515 173.05L8.41895 173.023C9.07505 160.65 11.001 148.463 14.1418 136.796C17.1257 125.714 21.2239 115.026 26.3221 105.029C35.9549 86.1448 49.146 69.7918 64.4686 57.7405C73.7075 50.4731 83.5317 45.0288 93.6715 41.5583C111.598 35.3757 131.487 33.4521 154.476 35.6745C177.271 37.8266 198.303 42.7586 216.987 50.3299C221.329 52.0928 225.711 54.0566 230.014 56.166C248.077 65.028 265.236 76.8533 281.012 91.3129C301.54 110.124 320.272 133.25 336.684 160.042C356.81 193.107 372.886 230.215 389.908 269.503C395.816 283.142 401.927 297.242 408.183 311.069C420.916 339.076 438.333 375.233 460.166 406.497C471.877 423.282 483.607 436.571 496.024 447.124C523.309 470.31 554.505 481.422 588.748 480.148C599.712 479.744 610.968 478.054 622.202 475.129C635.237 471.718 648.582 466.467 661.861 459.519C683.359 448.146 704.018 433.154 723.265 414.957C732.885 405.864 742.643 395.204 752.268 383.279C768.09 363.731 782.813 340.965 797.05 318.949C806.96 303.626 817.207 287.777 827.598 273.406C837.413 259.828 849.191 244.085 862.13 230.245C873.252 218.33 884.021 210.098 894.14 205.776C906.57 200.468 918.168 201.01 928.609 207.388C934.822 211.148 940.922 216.836 947.255 224.776C959.04 239.527 969.272 259.386 979.169 278.591C983.102 286.225 986.819 293.438 990.567 300.213C1002.97 322.63 1015.46 346.073 1027.7 369.891C1052.89 418.918 1078.56 472.519 1108.48 538.574L1108.32 538.758Z" fill="#FFC107"/>
<path d="M1107.37 520.516C1079.64 453.348 1053.6 397.142 1027.79 348.689C1015.2 325.02 1002.17 302.269 989.06 281.067C985.582 275.442 982.149 269.596 978.514 263.408C967.627 244.878 956.369 225.717 943.761 212.461C937.394 205.738 931.295 201.057 925.109 198.149C901.423 187.009 877.364 208.114 861.349 227.779C850.002 241.671 839.64 257.379 829.144 273.593C819.957 287.787 811.313 303.055 802.162 319.217C788.58 343.209 774.535 368.017 758.641 388.848C749.209 401.276 739.366 412.021 729.384 420.785C710.792 437.113 690.433 449.792 667.143 459.551C654.108 465.01 640.76 468.9 627.469 471.108C616.254 472.948 605.059 473.606 594.194 473.056C578.03 472.248 562.231 468.611 547.231 462.251C531.478 455.568 516.448 445.805 502.558 433.231C490.389 422.217 478.639 408.551 466.636 391.454C444.837 360.449 426.163 326.075 412.331 299.592C407.211 289.788 402.173 279.924 397.299 270.382C377.891 232.382 359.559 196.487 337.274 166.247C320.618 143.646 301.919 124.536 281.7 109.448C266.4 98.0323 250.185 89.4791 232.128 83.299C227.96 81.8752 223.721 80.5919 219.528 79.4845C201.113 74.6454 181.46 72.8147 157.682 70.9213C140.542 69.4874 118.104 68.5432 96.5483 74.0226C86.3394 76.569 76.4712 80.9912 67.2151 87.1613C34.6266 108.891 12.52 146.85 8.078 188.707L7.8457 188.644C9.02292 177.545 11.4087 166.659 14.9325 156.285C18.2915 146.401 22.7053 136.923 28.0499 128.109C38.2069 111.364 51.7183 97.083 67.1241 86.8122C76.3974 80.6296 86.2845 76.1998 96.5106 73.6484C118.087 68.1614 140.542 69.1082 157.693 70.5421C181.479 72.4355 201.139 74.2662 219.566 79.1078C223.762 80.2178 228.004 81.501 232.176 82.9248C250.251 89.1125 266.482 97.6732 281.798 109.102C302.039 124.204 320.753 143.329 337.426 165.953C359.727 196.216 378.067 232.121 397.481 270.135C402.353 279.676 407.392 289.54 412.512 299.341C426.34 325.814 445.006 360.175 466.793 391.166C478.781 408.244 490.519 421.895 502.674 432.897C529.986 457.62 560.782 471.002 594.202 472.675C605.058 473.222 616.241 472.567 627.445 470.726C640.724 468.521 654.061 464.636 667.083 459.179C690.354 449.431 710.697 436.762 729.273 420.449C739.242 411.695 749.072 400.964 758.493 388.549C774.373 367.736 788.412 342.938 801.989 318.958C811.143 302.789 819.789 287.518 828.982 273.317C839.483 257.092 849.85 241.38 861.208 227.473C871.589 214.723 881.829 205.552 891.644 200.208C903.545 193.729 914.828 192.913 925.178 197.78C931.386 200.701 937.507 205.396 943.892 212.139C956.523 225.421 967.79 244.599 978.686 263.144C982.32 269.329 985.754 275.173 989.229 280.796C1002.34 302.005 1015.37 324.764 1027.97 348.44C1053.79 396.906 1079.83 453.122 1107.57 520.305L1107.37 520.516Z" fill="#FFC107"/>
<path d="M1106.42 502.274C1080.47 433.078 1054.83 375.84 1028.03 327.291C1015.08 303.768 1001.51 281.707 987.7 261.716C984.749 257.442 981.711 252.906 978.772 248.522C966.637 230.406 954.09 211.675 940.39 199.9C933.959 194.335 927.839 190.643 921.682 188.617C898.046 180.835 875.343 204.134 860.46 225.047C850.372 239.165 841.151 255.166 832.232 270.643L830.562 273.541C822.464 287.581 814.869 302.98 806.826 319.285C794.02 345.249 780.778 372.093 764.892 394.167C755.649 407.105 745.727 417.93 735.402 426.343C717.4 441.011 697.365 451.478 672.357 459.283C659.424 463.318 646.083 465.839 632.7 466.773C621.513 467.524 610.388 467.148 599.63 465.648C567.06 461.131 536.628 445.456 509.178 419.061C497.312 407.65 485.554 393.624 473.234 376.177C452.385 346.713 433.841 316.427 416.637 287.933C414.329 284.113 412.047 280.319 409.782 276.554C386.283 237.508 364.089 200.625 338.005 172.239C320.976 153.706 302.296 138.594 282.486 127.318C267.941 119.041 252.179 113.421 234.301 110.137C230.272 109.401 226.174 108.796 222.119 108.338C211.92 107.208 201.102 107.025 189.649 106.832C180.449 106.676 170.937 106.515 160.899 105.86C141.513 104.486 119.541 102.932 99.3811 106.186C88.9792 107.866 79.0514 111.272 69.8722 116.309C37.2962 134.189 13.9936 167.113 7.53772 204.382L7.27246 204.264C8.97393 194.438 11.8181 184.853 15.7249 175.775C19.4606 167.093 24.1883 158.821 29.7762 151.19C40.4637 136.595 54.2984 124.39 69.7812 115.892C78.9807 110.842 88.929 107.429 99.3513 105.747C119.532 102.49 141.515 104.047 160.909 105.42C170.94 106.073 180.452 106.237 189.649 106.392C201.107 106.586 211.928 106.769 222.137 107.902C226.194 108.361 230.297 108.966 234.329 109.702C252.229 112.989 268.01 118.617 282.575 126.906C302.409 138.194 321.109 153.324 338.157 171.877C364.265 200.289 386.47 237.189 409.978 276.253C412.243 280.017 414.527 283.809 416.833 287.631C434.034 316.121 452.572 346.399 473.415 375.853C485.722 393.28 497.467 407.293 509.32 418.689C536.733 445.052 567.126 460.704 599.653 465.217C610.399 466.713 621.513 467.09 632.687 466.339C646.056 465.405 659.385 462.886 672.303 458.856C697.287 451.058 717.298 440.604 735.276 425.956C745.579 417.561 755.482 406.756 764.71 393.84C780.576 371.795 793.809 344.965 806.608 319.016C814.654 302.704 822.254 287.297 830.358 273.247L832.028 270.349C840.951 254.865 850.178 238.854 860.277 224.72C875.207 203.739 897.99 180.373 921.735 188.19C927.921 190.227 934.065 193.931 940.519 199.518C954.248 211.318 966.81 230.069 978.957 248.205C981.894 252.59 984.933 257.125 987.882 261.397C1001.7 281.398 1015.28 303.472 1028.24 327.007C1055.04 375.576 1080.69 432.835 1106.66 502.053L1106.42 502.274Z" fill="#FFC107"/>
<path d="M1114.26 564.09C1069.61 479.417 1028.9 404.36 989.819 334.628C985.68 327.245 981.58 319.383 977.24 311.061C962.126 282.084 946.499 252.12 926.519 236.628C907.848 222.197 885.45 223 858.044 239.084C819.727 261.447 785.474 298.851 749.21 338.455C744.694 343.387 740.026 348.485 735.38 353.52C733.561 355.497 731.74 357.478 729.921 359.457C695.367 397.047 659.638 435.918 622.157 461.387C618.367 463.963 614.56 466.412 610.838 468.662C590.081 481.2 569.888 489.181 550.82 492.38C529.469 495.961 509.31 493.565 490.908 485.258C472.848 477.104 455.842 463.067 440.364 443.535C425.362 424.603 411.819 400.555 400.111 372.055C399.578 370.752 399.039 369.419 398.51 368.095C390.403 347.782 383.233 326.148 376.297 305.227C373.489 296.754 370.584 287.993 367.666 279.465C356.612 247.12 346.482 221.755 335.78 199.641C334.358 196.703 332.891 193.755 331.415 190.874C304.576 138.488 269.558 96.4177 230.141 69.2137C182.857 36.6685 134.625 27.0003 94.3345 41.9973C52.9765 57.519 10.8854 113.775 14.3433 187.464L14.1863 187.484C13.3529 169.71 15.1014 152.257 19.3865 135.61C23.3404 120.249 29.3803 105.795 37.3399 92.6508C52.041 68.3725 72.8008 49.8222 94.2984 41.7537C115.539 33.8484 138.791 32.6983 163.412 38.3384C185.553 43.406 208.025 53.7171 230.204 68.9827C269.643 96.2042 304.683 138.297 331.533 190.711C333.008 193.591 334.479 196.545 335.901 199.483C346.608 221.609 356.744 246.982 367.801 279.339C370.72 287.867 373.624 296.631 376.434 305.104C383.367 326.02 390.537 347.649 398.641 367.955C399.17 369.278 399.706 370.609 400.24 371.912C424.047 429.861 455.412 468.968 490.949 485.01C526.028 500.845 566.345 495.263 610.781 468.421C614.5 466.171 618.306 463.725 622.094 461.151C659.562 435.692 695.285 396.829 729.831 359.243C731.652 357.262 733.471 355.283 735.29 353.307C739.936 348.272 744.604 343.174 749.12 338.245C785.393 298.633 819.654 261.218 857.989 238.846C870.371 231.578 881.363 227.503 891.592 226.38C904.395 224.976 916.169 228.349 926.587 236.4C935.535 243.338 944.482 253.951 953.939 268.845C962.281 281.986 969.948 296.684 977.361 310.897C981.701 319.217 985.799 327.077 989.937 334.458C1029.02 404.191 1069.73 479.251 1114.38 563.927L1114.26 564.09Z" fill="#FFC107"/>
<path d="M1105.48 484.03C1081.64 413.789 1055.67 353.854 1028.28 305.895C1014.96 282.521 1000.85 261.148 986.343 242.369C984.247 239.657 982.101 236.842 980.025 234.12C966.311 216.137 952.129 197.539 937.025 187.343C930.541 182.921 924.404 180.221 918.259 179.086C894.689 174.737 873.336 200.193 859.572 222.314C851.025 235.98 843.311 251.178 835.85 265.876C834.56 268.42 833.27 270.959 831.978 273.488C824.882 287.38 818.247 302.899 811.223 319.327C799.281 347.257 786.933 376.136 771.142 399.49C761.869 413.204 752.147 423.806 741.417 431.907C718.974 448.85 696.546 455.121 677.568 459.023C664.731 461.66 651.396 462.815 637.928 462.449C626.776 462.11 615.718 460.696 605.064 458.25C573.472 451.015 543.439 433.065 515.799 404.897C504.299 393.179 492.534 378.79 479.831 360.908C467 342.887 455.042 325.548 443.477 308.778C435.618 297.379 428.194 286.614 420.944 276.285C393.538 237.241 368.435 202.913 338.739 178.238C321.345 163.786 302.684 152.666 283.274 145.19C269.362 139.831 254.491 137.222 236.477 136.973C232.59 136.928 228.632 137.001 224.712 137.192C218.759 137.501 212.6 138.146 206.081 138.832C193.571 140.145 179.39 141.634 164.114 140.8C158.297 140.482 152.362 140.032 146.622 139.595C131.858 138.473 116.592 137.312 102.21 138.35C91.6476 139.113 81.6585 141.504 72.5233 145.456C40.0023 159.532 15.5052 187.424 6.99155 220.067L6.70117 219.873C8.93004 211.325 12.2325 203.043 16.516 195.256C20.63 187.778 25.6716 180.714 31.4981 174.262C42.7256 161.832 56.882 151.704 72.4386 144.972C81.5958 141.009 91.6068 138.611 102.192 137.847C116.591 136.808 131.863 137.97 146.635 139.093C152.373 139.53 158.308 139.979 164.123 140.298C179.385 141.132 193.555 139.645 206.059 138.332C212.581 137.646 218.742 137.001 224.701 136.692C228.626 136.501 232.587 136.428 236.478 136.474C254.518 136.72 269.411 139.336 283.346 144.703C302.779 152.189 321.466 163.321 338.882 177.793C352.296 188.938 365.889 203.058 380.438 220.958C393.463 236.982 406.133 254.516 421.151 275.911C428.401 286.242 435.825 297.008 443.686 308.406C455.249 325.173 467.207 342.513 480.035 360.531C492.726 378.396 504.477 392.77 515.964 404.475C543.566 432.605 573.557 450.53 605.104 457.755C615.747 460.199 626.79 461.61 637.93 461.949C651.382 462.316 664.703 461.163 677.524 458.526C696.479 454.631 718.877 448.368 741.28 431.455C751.98 423.377 761.678 412.802 770.926 399.124C786.69 375.809 799.028 346.953 810.961 319.046C817.989 302.608 824.627 287.081 831.731 273.174C833.023 270.645 834.312 268.106 835.602 265.565C843.067 250.857 850.787 235.649 859.344 221.965C868.299 207.574 877.486 196.502 886.65 189.058C897.503 180.242 908.149 176.721 918.288 178.594C924.463 179.734 930.63 182.446 937.141 186.886C952.286 197.109 966.485 215.73 980.216 233.735C982.293 236.457 984.439 239.273 986.532 241.982C1001.05 260.776 1015.17 282.169 1028.5 305.561C1043.05 331.027 1057.29 360.042 1070.84 391.798C1082.81 419.866 1094.55 450.819 1105.74 483.794L1105.48 484.03Z" fill="#FFC107"/>
<path d="M1104.53 465.781C1082.47 393.526 1056.9 332.534 1028.53 284.497C1014.84 261.271 1000.2 240.589 984.988 223.02C984.265 222.184 983.541 221.348 982.816 220.509C967.002 202.217 950.65 183.303 933.667 174.787C927.087 171.488 920.929 169.778 914.844 169.557C891.368 168.708 871.349 196.291 858.69 219.577C851.241 233.201 844.628 248.132 838.233 262.572C836.653 266.143 835.017 269.834 833.404 273.43C827.255 287.126 821.54 302.698 815.491 319.187C804.486 349.178 793.108 380.189 777.399 404.809C768.311 419.053 758.511 429.735 747.437 437.47C725.621 452.705 703.469 456.706 682.781 458.76C670.025 460.026 656.694 459.81 643.159 458.12C632.043 456.688 621.056 454.24 610.5 450.845C579.983 441.051 550.349 420.826 522.424 390.729C511.24 378.678 499.804 364.349 486.435 345.635C461.028 310.167 442.161 285.185 425.262 264.636C391.652 223.766 366 199.721 339.49 184.237C321.742 173.871 303.1 166.747 284.078 163.06C270.88 160.504 256.875 160.732 238.667 163.808C234.936 164.446 231.119 165.197 227.32 166.043C223.732 166.855 220.087 167.784 216.228 168.766C201.977 172.394 185.824 176.508 167.337 175.739C157.593 175.335 147.64 174.227 138.015 173.158C127.076 171.942 115.765 170.684 105.042 170.513C94.2899 170.343 84.2396 171.719 75.1782 174.607C42.7654 184.93 17.0707 207.795 6.44591 235.767L6.14453 235.473C8.90393 228.206 12.6648 221.227 17.3218 214.731C21.8172 208.458 27.1696 202.604 33.2315 197.328C45.0069 187.077 59.4882 179.026 75.1091 174.052C84.1956 171.159 94.2679 169.778 105.045 169.948C115.778 170.119 127.095 171.377 138.038 172.595C147.66 173.665 157.608 174.772 167.345 175.177C185.799 175.943 201.935 171.834 216.17 168.211C220.031 167.226 223.679 166.3 227.268 165.486C231.072 164.64 234.892 163.889 238.626 163.248C256.862 160.17 270.891 159.939 284.117 162.503C303.166 166.194 321.835 173.328 339.608 183.71C366.153 199.214 391.832 223.284 425.473 264.189C442.377 284.746 461.251 309.735 486.664 345.213C500.023 363.912 511.447 378.226 522.618 390.264C550.506 420.318 580.096 440.516 610.567 450.295C621.109 453.685 632.084 456.128 643.184 457.56C656.703 459.247 670.017 459.463 682.757 458.2C703.414 456.148 725.528 452.158 747.294 436.958C758.327 429.253 768.093 418.606 777.15 404.412C792.824 379.845 804.191 348.867 815.183 318.908C821.237 302.41 826.956 286.825 833.113 273.109C834.727 269.515 836.362 265.824 837.943 262.253C844.342 247.801 850.96 232.859 858.422 219.213C866.683 204.015 875.344 191.994 884.164 183.481C894.495 173.509 904.821 168.64 914.85 168.999C920.97 169.22 927.159 170.94 933.77 174.255C950.81 182.801 967.186 201.74 983.022 220.06C983.747 220.898 984.472 221.737 985.194 222.571C1000.42 240.159 1015.08 260.867 1028.78 284.118C1057.18 332.198 1082.77 393.238 1104.84 465.543L1104.53 465.781Z" fill="#FFC107"/>
<path d="M690.591 458.499C689.711 458.499 688.843 458.496 687.989 458.489C675.299 458.403 661.972 456.821 648.384 453.783C637.309 451.259 626.391 447.776 615.932 443.434C600.99 437.241 585.993 428.342 571.357 416.983C557.222 406.014 542.987 392.414 529.046 376.555C515.385 361.019 502.626 343.706 493.036 330.359C470.596 299.215 449.246 273.184 429.579 252.986C397.725 220.275 369.338 200.334 340.242 190.231C322.689 184.137 303.857 180.922 285.724 180.922C285.443 180.922 285.164 180.922 284.883 180.925C269.306 181.01 254.517 185.641 240.858 190.633C237.303 191.941 233.625 193.37 229.927 194.885C227.901 195.723 225.872 196.587 223.724 197.501C208.579 203.958 191.412 211.273 170.556 210.673C157.855 210.306 144.882 208.201 132.336 206.165C124.235 204.849 115.86 203.49 107.87 202.669C96.8877 201.542 86.781 201.903 77.8278 203.749C45.5878 210.389 18.6954 228.228 5.88884 251.472L5.59375 251.058C12.1626 239.137 22.0434 228.816 34.9614 220.378C47.2987 212.322 62.1049 206.356 77.7776 203.129C86.7543 201.281 96.8878 200.914 107.896 202.047C115.893 202.868 124.273 204.229 132.377 205.545C144.915 207.581 157.88 209.686 170.564 210.05C191.367 210.65 208.504 203.345 223.624 196.901C225.773 195.984 227.802 195.121 229.83 194.282C233.531 192.768 237.212 191.336 240.77 190.028C254.453 185.028 269.267 180.39 284.882 180.302C303.303 180.199 322.472 183.423 340.325 189.624C355.342 194.839 369.9 202.516 384.829 213.093C399.207 223.281 413.914 236.159 429.789 252.464C449.472 272.677 470.838 298.728 493.291 329.892C502.874 343.232 515.624 360.531 529.27 376.051C557.56 408.229 586.75 430.697 616.03 442.834C626.474 447.171 637.378 450.649 648.438 453.17C662.009 456.203 675.316 457.785 687.989 457.868C707.82 457.999 730.846 456.929 753.304 442.452C764.671 435.124 774.505 424.409 783.369 409.696C798.935 383.856 809.253 350.69 819.235 318.614C824.369 302.116 829.217 286.531 834.49 273.041C836.179 268.719 837.883 264.267 839.531 259.96C845.1 245.41 850.858 230.368 857.491 216.463C865.072 200.467 873.208 187.492 881.67 177.899C891.481 166.777 901.483 160.554 911.398 159.404C917.518 158.693 923.729 159.419 930.388 161.624C948.189 167.515 965.833 184.631 983.846 203.156C999.551 219.309 1015.18 239.888 1029.05 262.672C1044.45 287.907 1058.93 317.512 1072.07 350.662C1083.77 380.197 1094.49 412.707 1103.94 447.291L1103.58 447.542C1083.3 373.271 1058.13 311.219 1028.77 263.112C1014.92 240.36 999.316 219.811 983.634 203.686C965.652 185.194 948.043 168.11 930.307 162.239C923.685 160.047 917.509 159.326 911.427 160.031C893.208 162.148 874.164 182.323 857.803 216.845C851.183 230.725 845.43 245.754 839.866 260.289C838.218 264.598 836.511 269.053 834.823 273.375C829.56 286.84 824.714 302.412 819.586 318.896C814.689 334.633 809.625 350.908 803.815 366.553C797.227 384.29 790.633 398.544 783.653 410.133C774.75 424.911 764.872 435.674 753.452 443.037C743.38 449.531 732.554 453.823 720.356 456.163C710.026 458.135 699.651 458.499 690.591 458.499Z" fill="#FFC107"/>
<path d="M715.761 459.757C707.758 459.757 700.07 458.993 693.192 458.22C680.545 456.799 667.226 453.848 653.604 449.448C642.576 445.835 631.727 441.32 621.358 436.023C592.965 421.551 564.933 397.461 535.661 362.382C522.895 347.087 510.861 330.628 499.632 315.084C477.463 284.485 455.347 259.674 433.895 241.337C402.345 214.369 372.827 200.033 340.998 196.221C322.863 194.048 303.738 194.935 285.691 198.782C270.585 202.001 256.343 209.771 243.049 217.45C239.723 219.382 236.185 221.491 232.535 223.718C231.623 224.278 230.704 224.848 229.771 225.423C214.46 234.896 197.134 245.614 174.899 245.614C174.524 245.614 174.15 245.611 173.772 245.604C158.729 245.36 143.37 241.925 128.515 238.6C122.626 237.281 116.535 235.92 110.692 234.818C99.2775 232.668 89.392 232.033 80.4687 232.882C48.0135 235.971 20.6189 248.466 5.31194 267.172L5.0498 266.622C12.617 257.376 23.5588 249.348 36.6887 243.406C49.6036 237.563 64.7332 233.685 80.442 232.191C89.3904 231.34 99.301 231.975 110.74 234.13C116.59 235.232 122.682 236.596 128.573 237.912C143.414 241.232 158.758 244.664 173.773 244.908C196.472 245.28 214.08 234.383 229.613 224.773C230.544 224.198 231.465 223.628 232.377 223.065C236.029 220.835 239.569 218.726 242.898 216.795C256.215 209.101 270.483 201.321 285.63 198.091C303.705 194.239 322.861 193.35 341.026 195.525C356.799 197.413 371.838 201.873 387.001 209.156C402.617 216.657 418.021 226.98 434.094 240.722C455.573 259.084 477.717 283.925 499.91 314.554C511.134 330.093 523.161 346.542 535.915 361.822C565.148 396.854 593.138 420.909 621.485 435.358C631.838 440.644 642.673 445.154 653.686 448.763C667.288 453.157 680.589 456.106 693.217 457.522C714.466 459.908 737.072 461.133 759.311 447.932C771.012 440.983 780.915 430.2 789.582 414.964C805.024 387.826 814.635 350.808 823.116 318.147C827.382 301.714 831.413 286.192 835.86 272.961C837.464 268.187 839.079 263.252 840.641 258.481C845.525 243.552 850.576 228.115 856.555 213.699C863.472 196.904 871.082 182.974 879.172 172.296C888.464 160.034 898.144 152.46 907.94 149.791C914.063 148.121 920.297 147.855 926.997 148.97C945.714 152.091 964.73 167.515 982.492 183.72C998.893 198.682 1015.08 218.56 1029.32 241.206C1045.15 266.324 1059.74 296.224 1072.68 330.073C1084.24 360.343 1094.46 393.632 1103.03 429.02L1102.62 429.268C1084.4 354.048 1058.95 289.186 1029.01 241.694C1014.81 219.09 998.648 199.249 982.28 184.317C964.561 168.15 945.594 152.764 926.954 149.655C920.294 148.545 914.099 148.812 908.015 150.469C889.927 155.398 871.78 177.987 856.918 214.075C850.95 228.462 845.905 243.883 841.025 258.797C839.463 263.571 837.848 268.506 836.243 273.285C831.805 286.486 827.779 301.993 823.516 318.409C815.021 351.12 805.395 388.198 789.903 415.427C781.186 430.745 771.229 441.588 759.461 448.577C749.249 454.639 738.234 458.15 725.782 459.302C722.415 459.629 719.062 459.757 715.761 459.757Z" fill="#FFC107"/>
<path d="M731.56 462.476C731.446 462.476 731.333 462.476 731.218 462.476C719.908 462.431 708.802 460.216 698.396 457.951C685.768 455.204 672.456 450.882 658.827 445.111C647.849 440.413 637.069 434.86 626.788 428.613C599.53 412.071 572.678 386.525 542.283 348.211C531.336 334.417 520.564 319.563 510.145 305.202C508.842 303.404 507.538 301.608 506.233 299.813C483.949 269.221 461.066 245.628 438.22 229.692C406.936 207.872 375.385 198.882 341.763 202.209C323.328 204.035 304.221 209.025 286.508 216.639C272.532 222.648 260.079 232.289 245.249 244.267C242.243 246.706 239.033 249.337 235.15 252.552L234.933 252.732C227.441 258.975 218.95 266.049 209.425 271.428C198.487 277.606 187.874 280.579 176.992 280.544C160.023 280.476 142.705 275.424 125.959 270.534C121.856 269.337 117.612 268.099 113.515 266.979C101.766 263.772 91.8212 262.152 83.1113 262.029C51.0408 261.577 22.4705 269.181 4.7275 282.887L4.52344 282.209C13.2144 275.494 24.938 270.045 38.4257 266.449C51.9386 262.845 67.3931 261.057 83.1161 261.278C91.851 261.401 101.821 263.023 113.595 266.238C117.695 267.358 121.939 268.596 126.044 269.794C142.77 274.675 160.065 279.723 176.994 279.791C177.069 279.791 177.146 279.791 177.221 279.791C201.436 279.791 219.884 264.422 234.717 252.065L234.935 251.884C238.82 248.667 242.029 246.035 245.037 243.597C259.892 231.598 272.367 221.94 286.387 215.913C304.13 208.284 323.268 203.287 341.735 201.459C358.188 199.831 373.707 201.072 389.182 205.256C405.857 209.763 421.96 217.53 438.408 229.004C461.298 244.97 484.221 268.601 506.541 299.243C507.845 301.038 509.15 302.836 510.452 304.634C520.867 318.991 531.636 333.84 542.573 347.624C572.93 385.889 599.742 411.401 626.954 427.914C637.221 434.155 647.986 439.697 658.948 444.39C672.558 450.154 685.851 454.468 698.459 457.21C721.041 462.127 743.149 465.537 765.328 453.443C777.364 446.879 787.334 436.028 795.805 420.268C811.109 391.798 819.469 352.35 826.846 317.542C830.299 301.247 833.561 285.853 837.24 272.918C838.656 267.94 840.076 262.792 841.45 257.813C845.744 242.243 850.185 226.146 855.63 210.969C861.897 193.368 868.981 178.481 876.682 166.724C885.46 153.324 894.815 144.404 904.487 140.215C910.485 137.619 916.605 136.353 923.182 136.353C923.324 136.353 923.467 136.353 923.612 136.356C944.058 136.526 965.098 151.388 981.146 164.315C998.241 178.089 1014.99 197.265 1029.59 219.77C1045.86 244.772 1060.56 274.967 1073.29 309.518C1084.72 340.524 1094.42 374.594 1102.12 410.785L1101.68 411.029C1090.21 357.179 1068.34 280.381 1029.27 220.315C1014.7 197.86 997.988 178.73 980.934 164.988C964.934 152.096 943.957 137.277 923.61 137.109C916.909 137.046 910.698 138.307 904.611 140.944C886.691 148.706 869.441 173.707 856.038 211.343C850.605 226.485 846.17 242.565 841.88 258.117C840.506 263.099 839.084 268.249 837.669 273.229C833.999 286.132 830.74 301.505 827.292 317.783C819.902 352.654 811.526 392.177 796.163 420.758C787.635 436.623 777.597 447.547 765.48 454.154C755.21 459.752 744.11 462.476 731.56 462.476Z" fill="#FFC107"/>
<path d="M744.122 466.012C741.686 466.012 739.197 465.887 736.648 465.636C725.491 464.538 714.648 461.246 703.598 457.68C690.788 453.547 677.851 448.017 664.048 440.775C653.126 434.994 642.417 428.41 632.216 421.2C606.337 402.938 580.643 376.056 548.903 334.038C541.021 323.604 533.141 312.66 525.521 302.076C521.372 296.315 517.084 290.356 512.835 284.537C490.286 253.74 466.638 231.37 442.547 218.046C410.717 200.44 378.003 197.215 342.532 208.189C323.793 213.988 304.703 223.081 287.329 234.484C273.372 243.645 261.213 256.51 248.341 270.131L247.451 271.072C245.44 273.207 243.407 275.371 241.35 277.561C240.165 278.824 238.972 280.095 237.768 281.376C230.262 289.404 222.155 297.779 212.858 304.225C202.064 311.709 191.387 315.39 180.214 315.481C161.614 315.626 142.642 308.71 124.297 302.015C121.678 301.059 118.969 300.072 116.34 299.135C104.014 294.74 94.2963 292.212 85.7544 291.172C54.2332 287.337 24.4857 290.039 4.13713 298.588L4.00684 297.799C24.4088 289.228 54.2175 286.516 85.7937 290.358C94.3591 291.401 104.102 293.937 116.452 298.339C119.082 299.278 121.791 300.265 124.411 301.222C142.532 307.834 161.264 314.667 179.618 314.667C179.816 314.667 180.013 314.667 180.213 314.664C203.952 314.474 220.85 298.487 237.487 280.698C238.691 279.417 239.884 278.146 241.069 276.883C243.126 274.691 245.158 272.529 247.17 270.392L248.06 269.45C260.954 255.807 273.133 242.919 287.136 233.728C304.541 222.302 323.664 213.194 342.437 207.386C377.996 196.384 410.798 199.618 442.715 217.272C466.865 230.632 490.568 253.052 513.168 283.917C517.417 289.738 521.706 295.695 525.855 301.458C533.472 312.04 541.35 322.982 549.228 333.408C580.93 375.378 606.589 402.223 632.421 420.454C642.608 427.651 653.302 434.228 664.208 439.999C677.991 447.231 690.909 452.753 703.7 456.879C723.116 463.145 747.28 470.944 771.344 458.931C783.716 452.756 793.752 441.837 802.026 425.549C817.182 395.716 824.209 353.756 830.411 316.739C833.104 300.657 835.648 285.467 838.618 272.86C839.775 267.948 840.935 262.868 842.056 257.954C845.816 241.473 849.706 224.432 854.701 208.224C860.334 189.805 866.89 173.961 874.187 161.134C882.456 146.599 891.488 136.336 901.031 130.628C907.156 126.964 913.433 124.706 920.221 123.725C929.313 122.409 938.989 123.815 949.804 128.014C958.955 131.57 968.765 137.089 979.796 144.892C997.586 157.475 1014.9 175.95 1029.86 198.318C1046.56 223.201 1061.38 253.695 1073.91 288.947C1085.19 320.691 1094.38 355.542 1101.22 392.534L1100.73 392.765C1086.28 314.667 1060.99 245.822 1029.52 198.915C1014.59 176.608 997.328 158.186 979.589 145.64C955.822 128.83 936.974 122.122 920.267 124.538C913.524 125.513 907.291 127.755 901.208 131.391C878.504 144.969 863.633 180.865 855.157 208.583C850.175 224.751 846.29 241.772 842.534 258.232C841.412 263.149 840.252 268.232 839.095 273.147C836.135 285.715 833.594 300.888 830.903 316.95C824.689 354.048 817.646 396.095 802.421 426.064C794.082 442.48 783.965 453.487 771.495 459.712C763.042 463.931 754.028 466.012 744.122 466.012Z" fill="#FFC107"/>
<path d="M755.005 470.065C738.406 470.065 722.448 463.242 708.795 457.406C695.951 451.917 683.021 445.056 669.264 436.435C658.404 429.58 647.764 421.961 637.64 413.787C607.291 389.312 580.235 354.183 555.52 319.865C550.474 312.859 545.375 305.636 540.447 298.653C533.603 288.954 526.526 278.927 519.434 269.264C496.548 238.163 472.135 217.011 446.877 206.396C414.202 192.667 380.322 195.206 343.301 214.161C324.239 223.919 305.168 237.116 288.149 252.323C275.022 264.051 263.915 278.857 252.157 294.532C251.324 295.642 250.489 296.757 249.649 297.872L249.194 298.479C246.336 302.294 243.38 306.237 240.384 310.194C233.204 319.719 225.298 329.571 216.153 337.097C205.538 345.833 194.836 350.19 183.433 350.416C163.417 350.816 143.017 341.813 123.29 333.106C121.907 332.496 120.53 331.889 119.16 331.288C106.151 325.578 96.6609 322.193 88.3922 320.309C57.6621 313.313 26.7342 311.113 3.53829 314.275L3.49121 313.399C26.7248 310.229 57.6982 312.432 88.4691 319.438C96.7614 321.326 106.272 324.719 119.304 330.44C120.675 331.04 122.051 331.647 123.436 332.26C143.125 340.949 163.486 349.929 183.425 349.537C208.189 349.045 225.629 328.621 240.032 309.516C243.028 305.559 245.984 301.616 248.842 297.804L249.297 297.196C250.137 296.079 250.972 294.966 251.806 293.856C263.584 278.154 274.71 263.323 287.88 251.555C304.931 236.319 324.038 223.1 343.133 213.324C360.684 204.339 377.17 199.151 393.53 197.464C411.78 195.583 429.774 198.302 447.015 205.547C472.353 216.195 496.838 237.407 519.789 268.594C526.885 278.262 533.964 288.291 540.81 297.992C545.738 304.976 550.833 312.196 555.878 319.199C580.568 353.48 607.591 388.572 637.884 413.001C647.994 421.162 658.619 428.771 669.464 435.617C683.199 444.225 696.11 451.075 708.935 456.557C728.627 464.975 753.136 475.452 777.352 464.428C790.059 458.642 800.162 447.655 808.237 430.84C823.237 399.603 828.85 355.062 833.802 315.762C835.792 299.971 837.671 285.057 839.988 272.81C840.845 268.28 841.705 263.599 842.537 259.071C845.792 241.362 849.159 223.048 853.763 205.487C858.771 186.233 864.8 169.428 871.681 155.544C879.445 139.877 888.153 128.27 897.565 121.045C903.677 116.354 909.974 113.102 916.821 111.101C926.044 108.406 936.278 108.496 947.238 111.369C956.837 113.886 967.333 118.629 978.435 125.472C996.919 136.866 1014.79 154.637 1030.13 176.867C1047.26 201.635 1062.19 232.422 1074.51 268.378C1085.64 300.86 1094.32 336.494 1100.31 374.288L1099.78 374.504C1087.1 294.421 1062.23 224.464 1029.76 177.52C1014.47 155.363 996.66 137.649 978.238 126.293C954.36 111.575 934.302 106.887 916.92 111.967C910.123 113.953 903.87 117.183 897.802 121.839C875.409 139.028 861.769 176.997 854.27 205.826C849.677 223.342 846.315 241.631 843.064 259.317C842.232 263.845 841.37 268.528 840.513 273.063C838.204 285.27 836.327 300.164 834.34 315.935C831.957 334.842 829.258 356.27 825.338 376.36C820.848 399.377 815.396 417.373 808.674 431.375C804.786 439.471 800.318 446.362 795.395 451.856C790.099 457.765 784.079 462.28 777.502 465.274C769.978 468.702 762.426 470.065 755.005 470.065Z" fill="#FFC107"/>
<path d="M764.815 474.513C759.328 474.513 753.578 473.659 747.505 471.954C735.545 468.596 724.096 462.504 713.994 457.133C701.261 450.36 687.966 441.935 674.482 432.094C663.69 424.173 653.119 415.52 643.064 406.369C614.203 380.134 589.339 345.251 562.137 305.689C559.72 302.174 557.265 298.588 554.892 295.117C545.545 281.459 535.881 267.336 526.034 253.991C502.768 222.526 477.593 202.594 451.207 194.749C417.925 184.853 381.877 193.391 344.069 220.13C324.669 233.851 305.615 251.148 288.969 270.156C276.436 284.467 266.119 301.34 255.196 319.205C254.086 321.02 252.972 322.841 251.851 324.669C249.062 329.224 246.057 334.114 243.001 339.008C236.593 349.307 228.782 361.041 219.451 369.964C209.005 379.953 198.277 384.988 186.655 385.352C165.38 386.023 143.724 374.753 122.781 363.854L121.983 363.44C111.729 358.106 100.881 352.717 91.0336 349.445C61.0161 339.473 29.7319 332.549 2.94629 329.95L2.98239 329.011C29.7963 331.613 61.1087 338.541 91.1529 348.523C101.029 351.805 111.895 357.202 122.165 362.543L122.963 362.957C143.861 373.831 165.473 385.074 186.644 384.408C211.094 383.64 227.98 361.812 242.585 338.338C245.641 333.446 248.643 328.556 251.432 324.004C252.553 322.178 253.667 320.355 254.777 318.542C265.719 300.647 276.055 283.744 288.629 269.385C305.306 250.34 324.396 233.01 343.832 219.264C361.571 206.72 379.027 198.077 395.712 193.576C414.776 188.436 433.485 188.516 451.317 193.818C477.803 201.693 503.071 221.694 526.416 253.268C536.27 266.625 545.939 280.753 555.291 294.419C557.664 297.887 560.119 301.473 562.536 304.989C589.711 344.513 614.549 379.358 643.357 405.548C653.398 414.683 663.954 423.324 674.729 431.235C688.195 441.061 701.468 449.474 714.182 456.236C734.112 466.839 758.915 480.03 783.373 469.922C796.418 464.531 806.586 453.479 814.459 436.132C829.293 403.448 833.586 354.186 837.036 314.602C838.38 299.183 839.648 284.62 841.369 272.767C841.91 269.031 842.458 265.181 842.987 261.457C845.734 242.111 848.576 222.104 852.838 202.757C859.419 172.651 871.921 132.376 894.108 111.475C900.234 105.704 906.555 101.455 913.43 98.487C931.418 90.6094 952.835 93.1582 977.085 106.058C996.262 116.261 1014.7 133.33 1030.4 155.421C1047.97 180.071 1063.02 211.155 1075.13 247.816C1080.69 264.631 1085.6 282.591 1089.73 301.197C1093.68 318.969 1096.93 337.424 1099.41 356.049L1098.83 356.245C1087.93 274.174 1063.49 203.104 1030.01 156.127C1014.37 134.119 996.002 117.115 976.898 106.95C952.762 94.1075 931.459 91.5661 913.584 99.3936C906.759 102.339 900.487 106.556 894.406 112.284C872.372 133.039 859.942 173.108 853.393 203.066C849.141 222.362 846.305 242.342 843.56 261.663C843.031 265.387 842.485 269.239 841.942 272.978C840.228 284.791 838.959 299.333 837.619 314.73C835.883 334.649 833.916 357.224 830.554 378.532C826.691 403.016 821.582 422.039 814.935 436.684C811.142 445.039 806.707 452.085 801.753 457.625C796.416 463.594 790.281 468.039 783.519 470.831C777.584 473.287 771.385 474.513 764.815 474.513Z" fill="#FFC107"/>
<path d="M773.856 479.209C767.279 479.209 760.343 477.845 752.934 475.111C740.93 470.683 729.38 463.336 719.19 456.852C706.362 448.69 693.075 438.899 679.699 427.747C668.978 418.769 658.477 409.081 648.488 398.948C621.001 371.086 597.425 335.176 572.465 297.161C571.23 295.28 569.995 293.397 568.756 291.514C557.149 273.855 545.147 255.593 532.636 238.718C508.964 206.853 483.026 188.14 455.542 183.097C421.02 176.761 383.774 191.228 344.838 226.092C325.362 243.529 305.813 265.51 289.79 287.983C277.691 304.951 267.988 324.044 257.715 344.259C256.498 346.652 255.279 349.053 254.05 351.459C251.595 356.273 248.674 361.981 245.616 367.819C239.953 378.66 232.237 392.437 222.747 402.8C212.467 414.028 201.715 419.751 189.876 420.291C180.144 420.68 169.405 418.277 157.042 412.941C146.428 408.36 136.162 402.373 124.801 395.593C114.43 389.328 103.485 382.856 93.6656 378.582C64.5789 365.921 33.8551 354.834 2.34961 345.623L2.46262 344.636C33.9869 353.849 64.728 364.946 93.8304 377.613C103.677 381.9 114.637 388.381 125.02 394.651C144.063 406.02 167.763 420.173 189.858 419.286C215.12 418.131 231.355 393.557 245.134 367.171C248.19 361.338 251.11 355.632 253.563 350.821C254.792 348.415 256.012 346.014 257.227 343.624C267.517 323.376 277.238 304.25 289.376 287.227C305.431 264.709 325.019 242.686 344.532 225.215C383.586 190.247 420.96 175.742 455.614 182.1C468.901 184.539 481.953 190.201 494.403 198.93C507.762 208.295 520.762 221.426 533.041 237.952C545.566 254.845 557.576 273.116 569.189 290.788C570.428 292.674 571.665 294.555 572.9 296.436C597.836 334.418 621.392 370.293 648.826 398.102C658.801 408.219 669.286 417.895 679.99 426.858C693.348 437.992 706.615 447.771 719.424 455.92C739.556 468.727 764.612 484.666 789.387 475.422C802.807 470.415 813.043 459.295 820.674 441.43C835.377 407.308 837.995 355.183 840.1 313.301C840.853 298.321 841.564 284.173 842.743 272.732C842.987 270.372 843.23 267.999 843.473 265.613C845.674 244.064 847.95 221.78 851.907 200.033C857.554 168.753 868.859 126.339 890.645 101.91C896.723 95.0943 903.064 89.8509 910.033 85.8782C919.719 80.3058 930.513 77.6866 942.115 78.0884C952.706 78.4551 964.015 81.3354 975.726 86.6466C995.595 95.6543 1014.59 112.02 1030.67 133.973C1048.67 158.502 1063.83 189.887 1075.74 227.252C1081.21 244.396 1085.94 262.725 1089.81 281.73C1093.51 299.931 1096.44 318.8 1098.5 337.813L1097.88 337.983C1088.89 255.136 1064.25 181.056 1030.26 134.736C1014.25 112.879 995.337 96.581 975.554 87.6084C951.16 76.5441 928.577 76.2728 910.242 86.8199C903.326 90.7625 897.033 95.9657 891.003 102.728C869.367 126.989 858.127 169.185 852.508 200.309C848.562 221.998 846.289 244.25 844.092 265.771C843.848 268.157 843.605 270.532 843.362 272.893C842.186 284.291 841.477 298.422 840.725 313.379C838.614 355.381 835.988 407.657 821.191 441.998C817.511 450.609 813.112 457.816 808.116 463.413C802.74 469.435 796.486 473.805 789.53 476.401C784.507 478.27 779.305 479.209 773.856 479.209Z" fill="#FFC107"/>
<path d="M782.35 484.099C774.857 484.099 766.918 482.16 758.362 478.267C746.257 472.76 734.635 464.159 724.384 456.573C711.428 446.985 698.148 435.823 684.911 423.403C674.268 413.383 663.837 402.657 653.908 391.53C629.458 364.138 608.562 330.581 586.438 295.052C582.821 289.244 579.081 283.239 575.37 277.336C562.327 256.593 551.189 239.489 539.233 223.445C515.139 191.158 488.44 173.663 459.874 171.443C423.98 168.653 385.532 189.044 345.601 232.048C325.764 253.414 306.232 279.606 290.603 305.803C278.829 325.538 269.625 347.022 259.881 369.766C258.674 372.583 257.462 375.411 256.242 378.241C254.07 383.291 251.194 389.946 248.226 396.618C235.735 424.764 219.416 453.741 193.092 455.222C192.271 455.265 191.447 455.285 190.624 455.285C170.068 455.285 149.083 442.269 127.613 427.737L126.273 426.823C115.639 419.56 105.593 412.702 96.2945 407.71C61.2527 388.896 27.3629 373.015 1.75293 361.283L1.93658 360.256C27.5528 371.993 61.452 387.876 96.5064 406.698C105.83 411.703 115.887 418.571 126.535 425.841L127.874 426.755C150.129 441.82 171.864 455.257 193.068 454.157C219.1 452.691 235.283 423.937 247.682 396.003C250.648 389.336 253.521 382.686 255.693 377.638C256.913 374.806 258.123 371.981 259.33 369.163C269.09 346.384 278.308 324.865 290.119 305.067C305.78 278.815 325.351 252.57 345.227 231.162C363.675 211.293 382.129 196.038 400.076 185.815C420.668 174.085 440.799 168.892 459.906 170.376C488.619 172.606 515.453 190.187 539.66 222.624C551.633 238.693 562.782 255.815 575.838 276.575C579.55 282.479 583.291 288.485 586.909 294.294C609.01 329.787 629.887 363.312 654.289 390.649C664.205 401.763 674.619 412.471 685.247 422.476C698.465 434.881 711.725 446.026 724.662 455.599C744.97 470.628 770.244 489.332 795.399 480.912C809.149 476.309 819.448 465.124 826.885 446.719C841.403 411.042 842.275 355.984 842.977 311.744C843.206 297.31 843.423 283.674 844.115 272.687L844.131 272.436C845.683 247.834 847.289 222.395 850.97 197.296C854.158 175.403 858.598 155.72 864.165 138.79C870.444 119.702 878.185 104.072 887.176 92.3323C893.191 84.4773 899.554 78.2369 906.628 73.2572C925.742 59.7243 949.164 57.635 974.362 67.2202C984.504 71.0775 994.507 76.921 1004.1 84.5852C1013.74 92.2947 1022.77 101.694 1030.93 112.517C1049.37 136.929 1064.65 168.61 1076.35 206.683C1086.87 240.903 1094.22 279.94 1097.59 319.569L1096.93 319.712C1089.71 234.894 1065.5 159.673 1030.51 113.339C1014.14 91.6367 994.675 76.0471 974.21 68.2649C949.154 58.7349 925.88 60.8016 906.9 74.2416C899.881 79.1836 893.569 85.3738 887.6 93.1661C870.814 115.086 858.373 151.18 851.621 197.544C847.95 222.579 846.347 247.982 844.796 272.549L844.78 272.8C844.09 283.747 843.873 297.363 843.644 311.777C842.939 356.152 842.063 411.376 827.444 447.304C823.859 456.179 819.491 463.542 814.465 469.187C809.045 475.274 802.677 479.571 795.535 481.964C791.281 483.385 786.898 484.099 782.35 484.099Z" fill="#FFC107"/>
<path d="M193.58 490.248C184.389 490.248 174.379 487.383 163.083 481.532C151.858 475.718 140.758 467.692 130.433 459.888C128.563 458.466 126.708 457.047 124.865 455.639C115.692 448.625 107.028 442 98.9304 436.84C66.6417 416.27 35.8645 397.783 6.09973 379.908L1.16797 376.945L1.41596 375.888L6.34773 378.851C36.1141 396.731 66.896 415.218 99.191 435.792C107.311 440.966 115.986 447.598 125.17 454.622C127.011 456.03 128.866 457.449 130.734 458.868C151.929 474.89 174.447 490.416 196.286 489.033C223.133 487.245 239.222 453.785 250.237 424.839C253.06 417.436 255.778 410.058 257.831 404.458C258.965 401.371 260.09 398.288 261.212 395.211C270.52 369.71 279.312 345.622 290.873 322.911C306.135 292.937 325.688 262.466 345.933 237.116C364.715 213.596 383.668 195.013 402.268 181.884C423.602 166.824 444.441 159.01 464.204 158.655C493.942 157.947 521.563 174.315 546.287 207.3C559.993 225.607 572.282 245.41 582.497 262.368C588.055 271.597 593.613 281.057 598.989 290.205C618.018 322.592 637.694 356.079 659.762 383.203C669.619 395.322 679.966 407.064 690.512 418.101C703.564 431.729 716.818 444.24 729.908 455.285C750.37 472.547 775.834 494.03 801.417 486.406C815.498 482.21 825.862 470.959 833.103 452.012C847.427 414.718 846.461 356.644 845.682 309.981C845.453 296.182 845.235 283.146 845.497 272.652C846.085 248.994 846.972 221.498 850.044 194.568C852.632 171.749 856.541 151.104 861.661 133.209C867.453 112.967 874.874 95.9958 883.717 82.7667C889.577 74.0001 896.144 66.5594 903.234 60.648C913.352 52.1852 924.705 46.864 936.981 44.8349C948.477 42.9339 960.597 43.9334 973.005 47.8032C983.47 51.0677 993.784 56.4367 1003.66 63.7644C1013.6 71.1373 1022.87 80.3233 1031.2 91.0663C1040.81 103.436 1049.65 118.044 1057.46 134.485C1064.87 150.062 1071.43 167.435 1076.97 186.118C1087.33 221.072 1094.15 260.914 1096.69 301.332L1095.98 301.445C1090.54 214.65 1066.76 138.292 1030.76 91.9477C1014.27 70.6979 993.713 55.4146 972.87 48.9131C947.099 40.8747 923.132 45.2794 903.56 61.65C896.527 67.5137 890.013 74.8966 884.199 83.5929C867.536 108.519 856.277 145.924 850.738 194.772C847.672 221.629 846.789 249.077 846.202 272.697C845.941 283.154 846.158 296.169 846.388 309.951C846.771 332.971 847.206 359.065 845.75 384.29C844.059 413.561 840.119 435.905 833.706 452.603C830.215 461.738 825.88 469.259 820.822 474.955C815.36 481.107 808.874 485.334 801.547 487.516C797.851 488.618 794.158 489.118 790.486 489.118C768.501 489.118 747.196 471.143 729.58 456.281C716.471 445.22 703.196 432.691 690.128 419.043C679.566 407.991 669.205 396.231 659.333 384.094C637.22 356.915 617.523 323.393 598.476 290.976C593.101 281.83 587.545 272.373 581.99 263.149C571.789 246.211 559.518 226.436 545.837 208.164C521.246 175.355 493.787 159.082 464.215 159.78C417.774 160.614 374.497 202.775 346.369 238C326.165 263.3 306.651 293.706 291.423 323.619C279.895 346.263 271.117 370.313 261.823 395.774C260.701 398.85 259.574 401.934 258.44 405.023C256.386 410.625 253.666 418.008 250.842 425.419C246.218 437.57 238.958 455.259 229.343 468.519C224.673 474.957 219.704 480.017 214.572 483.561C208.851 487.511 202.708 489.731 196.316 490.155C195.41 490.218 194.499 490.248 193.58 490.248Z" fill="#FFC107"/>
<path d="M196.531 525.209C187.328 525.209 177.339 522.123 166.102 515.824C154.468 509.305 142.966 500.139 133.25 492.031C130.265 489.535 127.286 487.003 124.404 484.555C116.348 477.712 108.739 471.245 101.564 465.967C75.7988 447.007 50.2014 428.497 25.4453 410.595C17.2565 404.673 8.78998 398.551 0.583984 392.604L0.891624 391.517C9.09762 397.464 17.5642 403.586 25.7529 409.507C50.509 427.41 76.1096 445.922 101.877 464.885C109.07 470.178 116.689 476.65 124.754 483.503C127.634 485.951 130.613 488.48 133.595 490.976C153.746 507.786 177.12 525.581 199.501 523.906C226.98 521.801 242.414 485.266 252.793 453.672C255.453 445.578 258.026 437.452 259.969 431.277C260.967 428.108 261.959 424.941 262.95 421.782C271.853 393.368 280.261 366.531 291.628 340.758C306.413 307.238 325.95 272.546 346.637 243.072C375.448 202.202 419.976 152.35 468.5 146.943C499.359 143.412 527.761 158.565 552.914 191.984C564.215 207.006 575.391 224.333 589.154 248.172C596.109 260.219 603.01 272.704 609.684 284.776C627.049 316.183 645.002 348.661 665.233 375.769C675.034 388.905 685.31 401.68 695.777 413.739C708.45 428.326 721.699 442.203 735.154 454.985C755.821 474.5 781.542 498.791 807.433 491.915C821.629 488.224 832.356 476.584 839.319 457.323C853.445 418.342 850.414 354.567 848.2 308.002C847.578 294.934 846.991 282.591 846.876 272.634C846.619 250.505 846.641 221.327 849.116 191.858C853.389 140.793 863.866 100.875 880.258 73.2189C886.002 63.4754 892.592 55.0101 899.839 48.0566C910.148 38.1524 921.78 31.4901 934.414 28.2582C946.317 25.2146 958.842 25.2623 971.646 28.4013C982.449 31.1084 993.073 36.0153 1003.22 42.9814C1013.47 50.0178 1022.97 58.9828 1031.47 69.6278C1041.3 81.9278 1050.27 96.5857 1058.15 113.197C1065.61 128.94 1072.15 146.559 1077.58 165.569C1087.79 201.258 1094.08 241.904 1095.78 283.113L1095.04 283.191C1091.37 194.415 1068.03 116.916 1031.01 70.5696C1014.23 49.5432 993.104 34.9857 971.534 29.5816C944.942 23.065 920.285 29.8076 900.225 49.0811C893.036 55.9769 886.502 64.3744 880.802 74.04C864.519 101.513 854.108 141.205 849.857 192.019C847.388 221.408 847.368 250.528 847.624 272.614C847.74 282.536 848.325 294.863 848.945 307.914C850.089 331.984 851.386 359.268 850.645 385.905C849.78 416.921 846.288 440.478 839.965 457.924C836.564 467.333 832.263 475.017 827.179 480.763C821.668 486.993 815.066 491.142 807.557 493.096C795.911 496.187 783.376 493.409 769.235 484.603C756.943 476.946 745.166 465.826 734.777 456.018C721.302 443.218 708.035 429.321 695.343 414.713C684.861 402.637 674.571 389.845 664.756 376.691C644.483 349.527 626.509 317.015 609.127 285.574C602.456 273.505 595.556 261.027 588.607 248.991C574.868 225.195 563.713 207.9 552.439 192.913C527.434 159.685 499.213 144.623 468.55 148.131C420.235 153.517 375.854 203.217 347.13 243.964C326.483 273.377 306.987 307.997 292.234 341.446C280.898 367.146 272.502 393.945 263.614 422.317C262.623 425.479 261.631 428.645 260.633 431.815C258.688 437.995 256.114 446.128 253.45 454.23C242.981 486.104 227.391 522.966 199.534 525.098C198.543 525.171 197.54 525.209 196.531 525.209Z" fill="#FFC107"/>
<path d="M199.541 560.173C174.396 560.173 148.012 535.465 124.623 513.56C117.436 506.83 110.647 500.471 104.196 495.095L0 408.265L0.362592 407.152L104.559 493.982C111.027 499.372 117.824 505.737 125.021 512.478C149.314 535.229 176.849 561.017 202.715 558.782C230.801 556.358 245.596 516.747 255.348 482.511C258.537 471.314 261.617 459.92 264.596 448.901C272.744 418.767 281.168 387.605 292.38 358.603C301.283 335.575 312.342 311.425 324.363 288.767C337.549 263.908 351.668 241.101 366.323 220.981C382.483 198.8 398.913 180.451 415.158 166.446C433.125 150.956 450.826 140.844 467.771 136.386C501.717 127.459 532.592 141.007 559.535 176.659C581.925 206.283 600.955 242.917 619.359 278.345C635.379 309.183 651.943 341.068 670.7 368.324C692.365 399.805 715.814 428.857 740.396 454.669C761.107 476.419 786.884 503.49 813.449 497.405C835.886 492.267 848.859 468.25 853.106 423.978C856.719 386.319 853.282 341.648 850.521 305.755C849.579 293.523 848.691 281.969 848.254 272.599C845.846 220.949 847.382 178.311 852.946 142.253C856.418 119.755 861.541 99.7002 868.173 82.6466C875.58 63.5965 885.09 47.7157 896.439 35.4459C906.257 24.831 917.321 17.1216 929.327 12.5311C940.755 8.16161 952.788 6.69758 965.091 8.17919C989.286 11.0922 1012.95 25.2956 1031.73 48.1702C1041.77 60.3973 1050.89 75.1079 1058.82 91.8903C1066.35 107.796 1072.86 125.664 1078.19 145C1088.23 181.425 1094 222.877 1094.87 264.872L1094.08 264.915C1092.23 175.486 1068.75 94.8335 1031.26 49.1722C991.445 0.680718 934.929 -4.65559 896.875 36.488C859.179 77.245 843.53 154.447 849.034 272.506C849.469 281.846 850.357 293.385 851.298 305.602C854.065 341.572 857.51 386.34 853.88 424.168C851.902 444.773 847.928 461.332 842.068 473.388C838.772 480.166 834.799 485.706 830.258 489.849C825.426 494.259 819.808 497.219 813.559 498.651C811.005 499.236 808.408 499.53 805.766 499.53C796.14 499.53 785.885 495.635 774.65 487.745C761.992 478.855 749.778 466.028 739.963 455.722C715.348 429.871 691.866 400.781 670.169 369.256C651.37 341.941 634.789 310.019 618.752 279.149C600.371 243.766 581.365 207.177 559.031 177.628C532.269 142.22 501.606 128.76 467.894 137.627C399.7 155.562 329.453 265.091 293.042 359.266C281.86 388.188 273.447 419.307 265.31 449.401C262.33 460.425 259.248 471.826 256.056 483.034C249.581 505.763 243.186 522.038 235.932 534.247C231.403 541.866 226.49 547.873 221.329 552.099C215.591 556.798 209.341 559.47 202.751 560.04C201.687 560.128 200.615 560.173 199.541 560.173Z" fill="#FFC107"/>
</g>
</svg>
