<svg width="167" height="167" viewBox="0 0 167 167" fill="none" xmlns="http://www.w3.org/2000/svg">
<circle cx="83.4992" cy="83.4999" r="68.1437" fill="white"/>
<path d="M155.2 96.7681C160.947 97.8316 164.808 103.384 163.027 108.95C160.171 117.875 155.825 126.279 150.15 133.799C142.344 144.143 132.238 152.528 120.631 158.29C109.023 164.053 96.2345 167.035 83.2757 167C70.3169 166.965 57.5441 163.914 45.9681 158.09C34.3922 152.265 24.3308 143.826 16.5803 133.44C8.82987 123.054 3.60304 111.007 1.31353 98.2524C-0.97598 85.4975 -0.265329 72.3847 3.38924 59.9518C6.04597 50.9136 10.2055 42.4151 15.6702 34.8033C19.0787 30.0556 25.8381 29.8477 30.117 33.829C34.3958 37.8103 34.5474 44.4687 31.3463 49.3586C28.0079 54.4583 25.4249 60.0363 23.6952 65.9207C20.967 75.2021 20.4365 84.9912 22.1457 94.5131C23.8548 104.035 27.7568 113.028 33.5427 120.782C39.3286 128.535 46.8397 134.835 55.4815 139.183C64.1233 143.531 73.6585 145.809 83.3326 145.835C93.0066 145.861 102.554 143.635 111.219 139.333C119.884 135.031 127.429 128.771 133.256 121.049C136.951 116.154 139.891 110.755 141.997 105.036C144.016 99.5508 149.453 95.7047 155.2 96.7681Z" fill="#FFC107"/>
<path d="M51.5979 99.2473C49.3585 99.2473 47.3639 98.8624 45.6144 98.0926C43.8748 97.3128 42.5001 96.243 41.4904 94.8833C40.4906 93.5137 39.9757 91.934 39.9457 90.1445H46.4842C46.5241 90.8943 46.7691 91.5541 47.219 92.124C47.6789 92.6839 48.2887 93.1188 49.0485 93.4287C49.8084 93.7386 50.6632 93.8936 51.6129 93.8936C52.6027 93.8936 53.4775 93.7186 54.2373 93.3687C54.9971 93.0188 55.592 92.5339 56.0219 91.914C56.4518 91.2942 56.6667 90.5794 56.6667 89.7696C56.6667 88.9498 56.4368 88.2249 55.9769 87.5951C55.527 86.9552 54.8771 86.4554 54.0274 86.0954C53.1876 85.7355 52.1878 85.5556 51.0281 85.5556H48.1638V80.7867H51.0281C52.0078 80.7867 52.8726 80.6168 53.6225 80.2768C54.3823 79.9369 54.9721 79.467 55.392 78.8672C55.8119 78.2573 56.0219 77.5475 56.0219 76.7377C56.0219 75.9679 55.8369 75.293 55.467 74.7132C55.1071 74.1233 54.5972 73.6634 53.9374 73.3335C53.2875 73.0036 52.5277 72.8386 51.6579 72.8386C50.7781 72.8386 49.9733 72.9986 49.2435 73.3185C48.5137 73.6284 47.9288 74.0733 47.4889 74.6532C47.049 75.233 46.8141 75.9129 46.7841 76.6927H40.5606C40.5906 74.9231 41.0954 73.3635 42.0752 72.0138C43.055 70.6641 44.3747 69.6094 46.0343 68.8496C47.7039 68.0798 49.5884 67.6948 51.6879 67.6948C53.8074 67.6948 55.662 68.0798 57.2516 68.8496C58.8412 69.6194 60.0759 70.6591 60.9557 71.9688C61.8455 73.2685 62.2854 74.7282 62.2754 76.3478C62.2854 78.0674 61.7505 79.502 60.6708 80.6517C59.601 81.8015 58.2064 82.5313 56.4868 82.8412V83.0812C58.7462 83.3711 60.4658 84.1559 61.6455 85.4356C62.8352 86.7053 63.4251 88.2949 63.4151 90.2045C63.4251 91.954 62.9202 93.5087 61.9005 94.8683C60.8907 96.228 59.496 97.2978 57.7165 98.0776C55.9369 98.8574 53.8974 99.2473 51.5979 99.2473ZM79.3001 99.2473C77.1806 99.2473 75.291 98.8574 73.6314 98.0776C71.9818 97.2978 70.6721 96.223 69.7024 94.8533C68.7326 93.4837 68.2277 91.914 68.1877 90.1445H74.4862C74.5562 91.3342 75.0561 92.299 75.9858 93.0388C76.9156 93.7786 78.0204 94.1485 79.3001 94.1485C80.3198 94.1485 81.2196 93.9236 81.9994 93.4737C82.7892 93.0138 83.4041 92.3789 83.844 91.5691C84.2939 90.7493 84.5188 89.8096 84.5188 88.7498C84.5188 87.6701 84.2889 86.7203 83.829 85.9005C83.3791 85.0807 82.7542 84.4408 81.9544 83.9809C81.1546 83.5211 80.2398 83.2861 79.2101 83.2761C78.3103 83.2761 77.4355 83.4611 76.5857 83.831C75.7459 84.2009 75.0911 84.7058 74.6212 85.3456L68.8476 84.3109L70.3022 68.1147H89.0777V73.4235H75.6559L74.8611 81.1166H75.0411C75.5809 80.3568 76.3957 79.727 77.4855 79.2271C78.5752 78.7272 79.7949 78.4773 81.1446 78.4773C82.9942 78.4773 84.6438 78.9122 86.0934 79.782C87.5431 80.6517 88.6878 81.8465 89.5276 83.3661C90.3674 84.8757 90.7823 86.6153 90.7723 88.5848C90.7823 90.6543 90.3024 92.4939 89.3326 94.1035C88.3729 95.7031 87.0282 96.9628 85.2986 97.8826C83.579 98.7924 81.5795 99.2473 79.3001 99.2473ZM112.112 93.0688V91.4492C112.112 90.2195 112.372 89.0897 112.892 88.06C113.422 87.0202 114.187 86.1904 115.186 85.5706C116.196 84.9407 117.426 84.6258 118.876 84.6258C120.345 84.6258 121.58 84.9357 122.58 85.5556C123.589 86.1754 124.349 87.0052 124.859 88.045C125.379 89.0747 125.639 90.2095 125.639 91.4492V93.0688C125.639 94.2985 125.379 95.4332 124.859 96.473C124.339 97.5027 123.574 98.3275 122.565 98.9474C121.555 99.5772 120.325 99.8921 118.876 99.8921C117.406 99.8921 116.171 99.5772 115.171 98.9474C114.172 98.3275 113.412 97.5027 112.892 96.473C112.372 95.4332 112.112 94.2985 112.112 93.0688ZM116.476 91.4492V93.0688C116.476 93.7786 116.646 94.4484 116.986 95.0783C117.336 95.7081 117.966 96.0231 118.876 96.0231C119.785 96.0231 120.405 95.7131 120.735 95.0933C121.075 94.4734 121.245 93.7986 121.245 93.0688V91.4492C121.245 90.7193 121.085 90.0395 120.765 89.4096C120.445 88.7798 119.815 88.4649 118.876 88.4649C117.976 88.4649 117.351 88.7798 117.001 89.4096C116.651 90.0395 116.476 90.7193 116.476 91.4492ZM96.351 75.493V73.8734C96.351 72.6337 96.6159 71.4989 97.1458 70.4692C97.6757 69.4294 98.4405 68.5996 99.4402 67.9798C100.45 67.3599 101.67 67.05 103.099 67.05C104.579 67.05 105.819 67.3599 106.818 67.9798C107.818 68.5996 108.578 69.4294 109.098 70.4692C109.618 71.4989 109.878 72.6337 109.878 73.8734V75.493C109.878 76.7327 109.613 77.8674 109.083 78.8972C108.563 79.9269 107.798 80.7517 106.788 81.3716C105.789 81.9814 104.559 82.2864 103.099 82.2864C101.64 82.2864 100.405 81.9764 99.3952 81.3566C98.3955 80.7267 97.6357 79.9019 97.1158 78.8822C96.6059 77.8524 96.351 76.7227 96.351 75.493ZM100.745 73.8734V75.493C100.745 76.2228 100.915 76.8976 101.255 77.5175C101.605 78.1373 102.22 78.4473 103.099 78.4473C104.019 78.4473 104.644 78.1373 104.974 77.5175C105.314 76.8976 105.484 76.2228 105.484 75.493V73.8734C105.484 73.1435 105.324 72.4637 105.004 71.8339C104.684 71.204 104.049 70.8891 103.099 70.8891C102.21 70.8891 101.595 71.209 101.255 71.8489C100.915 72.4887 100.745 73.1635 100.745 73.8734ZM98.3305 98.8274L119.445 68.1147H123.375L102.26 98.8274H98.3305Z" fill="#FFC107"/>
</svg>
