<svg width="48" height="47" viewBox="0 0 48 47" fill="none" xmlns="http://www.w3.org/2000/svg">
<path d="M23.9955 33.8301L15.8684 38.726C15.5094 38.9544 15.1341 39.0524 14.7424 39.0197C14.3507 38.9871 14.008 38.8565 13.7143 38.6281C13.4205 38.3996 13.192 38.1143 13.0289 37.7723C12.8657 37.4302 12.833 37.0464 12.9309 36.6208L15.0851 27.3676L7.88823 21.1499C7.56184 20.8562 7.35817 20.5213 7.27723 20.1453C7.19628 19.7693 7.22043 19.4025 7.34968 19.0447C7.47893 18.687 7.67477 18.3933 7.93718 18.1635C8.1996 17.9337 8.55863 17.7868 9.01427 17.7229L18.5122 16.8906L22.1841 8.17598C22.3473 7.78431 22.6005 7.49056 22.9439 7.29473C23.2873 7.09889 23.6378 7.00098 23.9955 7.00098C24.3532 7.00098 24.7038 7.09889 25.0471 7.29473C25.3905 7.49056 25.6438 7.78431 25.807 8.17598L29.4789 16.8906L38.9768 17.7229C39.4337 17.7881 39.7927 17.935 40.0539 18.1635C40.315 18.3919 40.5108 18.6857 40.6413 19.0447C40.7719 19.4038 40.7967 19.7713 40.7158 20.1473C40.6348 20.5233 40.4305 20.8575 40.1028 21.1499L32.9059 27.3676L35.0601 36.6208C35.158 37.0451 35.1254 37.4289 34.9622 37.7723C34.799 38.1156 34.5705 38.4009 34.2768 38.6281C33.983 38.8552 33.6403 38.9858 33.2486 39.0197C32.857 39.0537 32.4816 38.9558 32.1226 38.726L23.9955 33.8301Z" fill="#FFC107"/>
</svg>
