<svg width="19" height="20" viewBox="0 0 19 20" fill="none" xmlns="http://www.w3.org/2000/svg">
<path d="M6.83355 3.06667H4.91355C3.71876 3.06667 3.12093 3.06667 2.66459 3.29919C2.26317 3.50371 1.93705 3.82984 1.73252 4.23125C1.5 4.6876 1.5 5.28543 1.5 6.48021V14.5869C1.5 15.7817 1.5 16.3788 1.73252 16.8351C1.93705 17.2365 2.26317 17.5632 2.66459 17.7677C3.12048 18 3.71759 18 4.91004 18H13.0233C14.2157 18 14.812 18 15.2679 17.7677C15.6693 17.5632 15.9965 17.2362 16.201 16.8348C16.4333 16.3789 16.4333 15.7824 16.4333 14.59V12.6667M17.5 7.33333V2M17.5 2H12.1667M17.5 2L10.0333 9.46667" stroke="white" stroke-width="3" stroke-linecap="round" stroke-linejoin="round"/>
</svg>
