<svg width="24" height="25" viewBox="0 0 24 25" fill="none" xmlns="http://www.w3.org/2000/svg">
<g clip-path="url(#clip0_1358_6098)">
<path d="M18.8286 0.5H5.18477C3.90419 0.5 2.86242 1.54182 2.86242 2.82235C2.86242 20.1584 2.76846 19.2105 3.08943 19.5297C8.20514 24.6453 7.8953 24.3862 8.15366 24.4643C8.31554 24.5133 7.63848 24.4976 18.8286 24.4976C20.1092 24.4976 21.1509 23.4558 21.1509 22.1753V2.82235C21.1509 1.54182 20.1092 0.5 18.8286 0.5ZM7.60389 21.8546L5.5054 19.7562H7.60389V21.8546ZM19.6027 22.1753C19.6027 22.6021 19.2554 22.9494 18.8286 22.9494H9.15212V18.982C9.15212 18.5545 8.80556 18.2079 8.37801 18.2079H4.41066V2.82235C4.41066 2.39552 4.75794 2.04823 5.18477 2.04823H18.8286C19.2554 2.04823 19.6027 2.39552 19.6027 2.82235V22.1753ZM17.1352 15.7888C17.1352 16.2163 16.7886 16.5629 16.3611 16.5629H7.60389C7.17633 16.5629 6.82977 16.2163 6.82977 15.7888C6.82977 15.3613 7.17633 15.0147 7.60389 15.0147H16.3611C16.7886 15.0147 17.1352 15.3613 17.1352 15.7888ZM17.1352 11.8215C17.1352 12.249 16.7886 12.5956 16.3611 12.5956H7.60389C7.17633 12.5956 6.82977 12.249 6.82977 11.8215C6.82977 11.394 7.17633 11.0473 7.60389 11.0473H16.3611C16.7886 11.0473 17.1352 11.394 17.1352 11.8215ZM17.1352 19.7562C17.1352 20.1837 16.7886 20.5303 16.3611 20.5303H11.3777C10.9502 20.5303 10.6036 20.1837 10.6036 19.7562C10.6036 19.3287 10.9502 18.982 11.3777 18.982H16.3611C16.7886 18.982 17.1352 19.3287 17.1352 19.7562ZM9.1723 7.21421C8.86996 6.91191 8.86996 6.42175 9.1723 6.11946C9.47459 5.81717 9.96475 5.81717 10.267 6.11946L11.294 7.14642L14.5447 3.89581C14.847 3.59347 15.3371 3.59347 15.6394 3.89581C15.9418 4.1981 15.9418 4.68826 15.6394 4.99056L11.8414 8.78857C11.5392 9.09086 11.049 9.09091 10.7467 8.78857L9.1723 7.21421Z" fill="white"/>
</g>
<defs>
<clipPath id="clip0_1358_6098">
<rect width="24" height="24" fill="white" transform="translate(0 0.5)"/>
</clipPath>
</defs>
</svg>
