<svg width="20" height="21" viewBox="0 0 20 21" fill="none" xmlns="http://www.w3.org/2000/svg">
<g clip-path="url(#clip0_1358_6108)">
<path d="M7.31602 6.87305L8.11695 8.15039L9.5793 8.51746L8.61195 9.67395L8.71477 11.1781L7.31602 10.6155L5.91719 11.1781L6.02 9.67395L5.05273 8.51746L6.51508 8.15039L7.31602 6.87305Z" fill="#9735F9"/>
<path d="M5.91764 11.7657C5.79522 11.7657 5.67389 11.7275 5.57182 11.6534C5.40799 11.5343 5.3169 11.3394 5.33069 11.1373L5.4174 9.86918L4.60186 8.89426C4.47197 8.73891 4.43108 8.52766 4.49361 8.33508C4.55619 8.1425 4.71342 7.99562 4.90987 7.94633L6.14276 7.63691L6.81799 6.55996C6.92557 6.38836 7.11389 6.28418 7.31639 6.28418C7.51889 6.28418 7.70721 6.38836 7.81479 6.55996L8.49002 7.63691L9.72283 7.94633C9.91924 7.99562 10.0765 8.1425 10.1391 8.33508C10.2016 8.52766 10.1607 8.73895 10.0308 8.89426L9.21529 9.86926L9.30201 11.1374C9.31584 11.3395 9.22479 11.5344 9.06088 11.6534C8.89701 11.7724 8.68346 11.7989 8.49565 11.7233L7.31635 11.249L6.13701 11.7233C6.06623 11.7517 5.99174 11.7657 5.91764 11.7657ZM6.10615 8.85891L6.47162 9.29578C6.56897 9.41227 6.61756 9.56184 6.60729 9.71332L6.56846 10.2816L7.09694 10.069C7.23783 10.0124 7.39506 10.0124 7.53592 10.069L8.06432 10.2816L8.02549 9.71332C8.01514 9.56184 8.06373 9.41227 8.16115 9.29578L8.52662 8.85891L7.97416 8.72027C7.82694 8.68332 7.69963 8.59086 7.61897 8.46223L7.31639 7.97965L7.01381 8.46223C6.93315 8.59086 6.80588 8.68328 6.65861 8.72027L6.10615 8.85891Z" fill="white"/>
<path d="M14.949 8.58469H11.5961C11.2712 8.58469 11.0078 8.32133 11.0078 7.99645C11.0078 7.67156 11.2712 7.4082 11.5961 7.4082H14.949C15.2738 7.4082 15.5372 7.67156 15.5372 7.99645C15.5372 8.32133 15.2739 8.58469 14.949 8.58469Z" fill="white"/>
<path d="M13.7718 10.6413H11.5961C11.2713 10.6413 11.0078 10.378 11.0078 10.0531C11.0078 9.7282 11.2712 9.46484 11.5961 9.46484H13.7718C14.0966 9.46484 14.36 9.7282 14.36 10.0531C14.36 10.378 14.0966 10.6413 13.7718 10.6413Z" fill="white"/>
<path d="M7.31602 13.2295L8.11695 14.5068L9.5793 14.8738L8.61195 16.0304L8.71477 17.5345L7.31602 16.9719L5.91719 17.5345L6.02 16.0304L5.05273 14.8738L6.51508 14.5068L7.31602 13.2295Z" fill="#9735F9"/>
<path d="M8.71514 18.1232C8.64104 18.1232 8.56655 18.1092 8.49572 18.0807L7.31643 17.6064L6.13709 18.0807C5.94928 18.1563 5.73569 18.1298 5.57186 18.0109C5.40803 17.8918 5.3169 17.6969 5.33072 17.4948L5.41744 16.2267L4.60186 15.2517C4.47197 15.0963 4.43108 14.8851 4.49361 14.6925C4.55619 14.4999 4.71342 14.353 4.90987 14.3038L6.14276 13.9943L6.81799 12.9174C6.92557 12.7458 7.11389 12.6416 7.31639 12.6416C7.51889 12.6416 7.70721 12.7458 7.81479 12.9174L8.49002 13.9943L9.72283 14.3038C9.91924 14.353 10.0765 14.4999 10.1391 14.6925C10.2016 14.8851 10.1607 15.0963 10.0308 15.2517L9.21529 16.2267L9.30201 17.4948C9.31584 17.6969 9.22479 17.8918 9.06088 18.0109C8.95885 18.085 8.83756 18.1232 8.71514 18.1232ZM6.10615 15.2164L6.47162 15.6533C6.56897 15.7698 6.61756 15.9194 6.60729 16.0709L6.56846 16.6391L7.09694 16.4266C7.23783 16.3699 7.39506 16.3699 7.53592 16.4266L8.06432 16.6391L8.02549 16.0709C8.01514 15.9194 8.06373 15.7698 8.16115 15.6533L8.52662 15.2164L7.97416 15.0778C7.82694 15.0409 7.69963 14.9484 7.61897 14.8198L7.31639 14.3372L7.01381 14.8198C6.93315 14.9484 6.80588 15.0408 6.65861 15.0778L6.10615 15.2164Z" fill="white"/>
<path d="M14.949 14.9421H11.5961C11.2712 14.9421 11.0078 14.6787 11.0078 14.3539C11.0078 14.029 11.2712 13.7656 11.5961 13.7656H14.949C15.2738 13.7656 15.5372 14.029 15.5372 14.3539C15.5372 14.6787 15.2739 14.9421 14.949 14.9421Z" fill="white"/>
<path d="M13.7718 16.9988H11.5961C11.2713 16.9988 11.0078 16.7354 11.0078 16.4105C11.0078 16.0856 11.2712 15.8223 11.5961 15.8223H13.7718C14.0966 15.8223 14.36 16.0856 14.36 16.4105C14.36 16.7354 14.0966 16.9988 13.7718 16.9988Z" fill="white"/>
<path d="M6.76414 2.7373H2.64648V4.61785H6.76414V2.7373Z" fill="#AF63FB"/>
<path d="M17.352 2.7373H13.2344V4.61785H17.352V2.7373Z" fill="#AF63FB"/>
<path d="M12.647 4.61766C12.647 4.94254 12.9104 5.2059 13.2353 5.2059H17.3531C17.6779 5.2059 17.9413 4.94254 17.9413 4.61766V2.73711C17.9413 2.41223 17.6779 2.14887 17.3531 2.14887H13.8235V1.08824C13.8235 0.763359 13.5601 0.5 13.2353 0.5H6.76465C6.43984 0.5 6.17641 0.763359 6.17641 1.08824V2.14891H2.64684C2.32203 2.14891 2.05859 2.41227 2.05859 2.73715V4.6177V19.9118C2.05859 20.2367 2.32199 20.5 2.64684 20.5H17.3531C17.6779 20.5 17.9413 20.2367 17.9413 19.9118V7.99699C17.9413 7.67211 17.6779 7.40875 17.3531 7.40875C17.0282 7.40875 16.7648 7.67211 16.7648 7.99699V19.3235H3.23508V5.2059H6.76465H10.9041C11.2289 5.2059 11.4923 4.94254 11.4923 4.61766C11.4923 4.29277 11.2289 4.02941 10.9041 4.02941H7.35289V2.73711V1.67648H12.647V2.73711V4.61766H12.647ZM3.23508 3.32535H6.17645V4.02941H3.23508V3.32535ZM16.7648 4.02941H13.8235V3.32535H16.7648V4.02941Z" fill="white"/>
</g>
<defs>
<clipPath id="clip0_1358_6108">
<rect width="20" height="20" fill="white" transform="translate(0 0.5)"/>
</clipPath>
</defs>
</svg>
