<svg width="24" height="24" viewBox="0 0 24 24" fill="none" xmlns="http://www.w3.org/2000/svg">
<path fill-rule="evenodd" clip-rule="evenodd" d="M24 12C24 18.6274 18.6274 24 12 24C5.37258 24 0 18.6274 0 12C0 5.37258 5.37258 0 12 0C18.6274 0 24 5.37258 24 12ZM16.8 8.4C16.8 11.051 14.651 13.2 12 13.2C9.34903 13.2 7.2 11.051 7.2 8.4C7.2 5.74903 9.34903 3.6 12 3.6C14.651 3.6 16.8 5.74903 16.8 8.4ZM12 22.2C15.3904 22.2 18.3945 20.5458 20.2491 18.0005C18.9422 16.1833 16.8093 15 14.4 15H9.60003C7.19075 15 5.05786 16.1834 3.75088 18.0006C5.60555 20.5459 8.60959 22.2 12 22.2Z" fill="white"/>
</svg>
