<svg width="130" height="130" viewBox="0 0 130 130" fill="none" xmlns="http://www.w3.org/2000/svg">
<g clip-path="url(#clip0_2947_16772)">
<path d="M65 6.17891L71.825 0.00390625L77.155 7.47891L85.085 2.86391L88.79 11.2489L97.5 8.38891L99.385 17.4239L108.485 16.4489V25.6139L117.585 26.5889L115.635 35.6239L124.41 38.4189L120.64 46.8039L128.57 51.4189L123.175 58.8289L130 65.0039L123.175 71.1789L128.57 78.5889L120.64 83.2039L124.41 91.5889L115.635 94.3839L117.585 103.419L108.485 104.394V113.559L99.385 112.584L97.5 121.619L88.79 118.759L85.085 127.144L77.155 122.529L71.825 130.004L65 123.829L58.175 130.004L52.845 122.529L44.915 127.144L41.21 118.759L32.5 121.619L30.615 112.584L21.515 113.559V104.394L12.415 103.419L14.365 94.3839L5.59 91.5889L9.36 83.2039L1.43 78.5889L6.825 71.1789L0 65.0039L6.825 58.8289L1.43 51.4189L9.36 46.8039L5.59 38.4189L14.365 35.6239L12.415 26.5889L21.515 25.6139V16.4489L30.615 17.4239L32.5 8.38891L41.21 11.2489L44.915 2.86391L52.845 7.47891L58.175 0.00390625L65 6.17891Z" fill="#DFA325"/>
<path d="M65 112.389C91.0264 112.389 112.125 91.1741 112.125 65.0041C112.125 38.8341 91.0264 17.6191 65 17.6191C38.9736 17.6191 17.875 38.8341 17.875 65.0041C17.875 91.1741 38.9736 112.389 65 112.389Z" fill="white"/>
<path d="M65.0002 95.7498C81.8725 95.7498 95.5502 81.9848 95.5502 65.0048C95.5502 48.0248 81.8725 34.2598 65.0002 34.2598C48.1279 34.2598 34.4502 48.0248 34.4502 65.0048C34.4502 81.9848 48.1279 95.7498 65.0002 95.7498Z" fill="#821DB6"/>
<path d="M47.5801 73.5195H51.8701C52.5851 73.5195 53.3001 73.6495 53.9501 73.8445C54.6001 74.0395 55.1851 74.4295 55.7051 74.8195C56.2251 75.2745 56.6151 75.8595 56.9401 76.5095C57.2651 77.1595 57.3951 78.0045 57.3951 78.9145C57.3951 79.8245 57.2001 80.6695 56.8751 81.3195C56.5501 81.9695 56.0951 82.5545 55.5101 83.0095C54.9251 83.4645 54.3401 83.7895 53.6901 83.9845C53.0401 84.1795 52.3251 84.3095 51.6751 84.3095H47.6451L47.5801 73.5195ZM50.9601 82.6195C51.5451 82.6195 52.1301 82.5545 52.6501 82.4245C53.1701 82.2945 53.6251 82.0995 54.0151 81.7745C54.4051 81.5145 54.7301 81.1245 54.9251 80.6695C55.1851 80.2145 55.2501 79.6295 55.2501 78.9795C55.2501 78.3295 55.1201 77.7445 54.9251 77.2895C54.7301 76.8345 54.4701 76.4445 54.0801 76.1195C53.6901 75.8595 53.3001 75.5995 52.7801 75.4695C52.2601 75.3395 51.7401 75.2745 51.1551 75.2745H49.4001V82.6195H50.9601Z" fill="white"/>
<path d="M61.7498 73.5195H63.4398L68.1198 84.3745H65.9098L64.9348 81.9045H60.2548L59.2798 84.3745H57.1348L61.7498 73.5195ZM64.2198 80.2145L62.5298 75.7945L60.8398 80.2145H64.2198Z" fill="white"/>
<path d="M70.1999 79.7595L66.1699 73.5195H68.5749L71.2399 77.8745L73.9049 73.5195H76.1799L72.1499 79.7595V84.4395H70.1999V79.7595Z" fill="white"/>
<path d="M82.1597 75.8595C81.9647 75.5345 81.7047 75.3395 81.3147 75.2095C80.9897 75.0795 80.5997 75.0145 80.2097 75.0145C80.0147 75.0145 79.7547 75.0145 79.5597 75.0795C79.3647 75.1445 79.1697 75.2095 78.9747 75.3395C78.7797 75.4695 78.6497 75.5995 78.5847 75.7945C78.4547 75.9895 78.4547 76.1845 78.4547 76.4445C78.4547 76.8345 78.5847 77.0945 78.8447 77.2895C79.1047 77.4845 79.4297 77.6795 79.8197 77.8095C80.2097 77.9395 80.5997 78.0695 81.0547 78.1995C81.5097 78.3295 81.8997 78.5245 82.2897 78.7845C82.6797 79.0445 83.0047 79.3045 83.2647 79.6945C83.5247 80.0845 83.6547 80.6045 83.6547 81.2545C83.6547 81.8395 83.5247 82.3595 83.3297 82.7495C83.1347 83.2045 82.8097 83.5295 82.4847 83.8545C82.1597 84.1795 81.7047 84.3745 81.2497 84.5045C80.7947 84.6345 80.2747 84.6995 79.7547 84.6995C79.1047 84.6995 78.4547 84.5695 77.8047 84.3745C77.1547 84.1795 76.6347 83.7895 76.1797 83.2695L77.6097 81.8395C77.8697 82.2295 78.1297 82.4895 78.5197 82.6845C78.9097 82.8795 79.2997 83.0095 79.7547 83.0095C79.9497 83.0095 80.2097 83.0095 80.4047 82.9445C80.5997 82.8795 80.8597 82.8145 80.9897 82.6845C81.1847 82.5545 81.3147 82.4245 81.4447 82.2295C81.5747 82.0345 81.6397 81.8395 81.6397 81.5795C81.6397 81.1895 81.5097 80.8645 81.2497 80.6695C80.9897 80.4745 80.6647 80.2795 80.2747 80.1495C79.8847 80.0195 79.4947 79.8895 79.0397 79.7595C78.5847 79.6295 78.1947 79.4345 77.8047 79.2395C77.4147 78.9795 77.0897 78.7195 76.8297 78.3295C76.5697 77.9395 76.4397 77.4195 76.4397 76.7695C76.4397 76.1845 76.5697 75.7295 76.7647 75.3395C77.0247 74.9495 77.2847 74.5595 77.6747 74.2995C78.0647 74.0395 78.4547 73.8445 78.9747 73.7145C79.4297 73.5845 79.9497 73.5195 80.4697 73.5195C81.0547 73.5195 81.5747 73.5845 82.0947 73.7795C82.6147 73.9745 83.1347 74.2345 83.5247 74.6245L82.1597 75.8595Z" fill="white"/>
<path d="M24.9602 58.5686L26.0652 60.3236L24.8302 61.1036L23.0752 58.2436L23.3352 56.6836L31.0702 57.8536L30.8102 59.4136L24.9602 58.5686Z" fill="#0F2332"/>
<path d="M27.495 55.7078C27.04 55.5778 26.65 55.3828 26.195 55.1228C25.74 54.8628 25.415 54.6028 25.09 54.2778C24.765 53.9528 24.57 53.5628 24.44 53.1078C24.31 52.6528 24.375 52.1978 24.505 51.6128C24.7 51.0278 24.96 50.6378 25.285 50.3778C25.61 50.1178 26 49.9228 26.455 49.7928C26.91 49.6628 27.365 49.6628 27.82 49.7928C28.275 49.8578 28.73 49.9878 29.185 50.1178C29.64 50.2478 30.03 50.4428 30.485 50.7028C30.94 50.9628 31.265 51.2228 31.59 51.5478C31.915 51.8728 32.11 52.2628 32.24 52.7178C32.37 53.1728 32.305 53.6278 32.175 54.2128C31.98 54.7978 31.72 55.1878 31.395 55.4478C31.07 55.7078 30.68 55.9028 30.225 56.0328C29.77 56.0978 29.315 56.1628 28.86 56.0328C28.405 55.9028 27.95 55.8378 27.495 55.7078ZM28.015 54.0828C28.21 54.1478 28.47 54.2128 28.73 54.2778C28.99 54.3428 29.315 54.4078 29.575 54.4078C29.835 54.4078 30.095 54.3428 30.355 54.2778C30.55 54.1478 30.745 53.9528 30.81 53.6928C30.875 53.4328 30.875 53.1728 30.745 52.9778C30.615 52.7828 30.42 52.5878 30.225 52.3928C30.03 52.2628 29.77 52.1328 29.51 52.0028C29.25 51.8728 28.99 51.8078 28.795 51.7428C28.6 51.6778 28.34 51.6128 28.08 51.5478C27.82 51.4828 27.495 51.4178 27.235 51.4178C26.975 51.4178 26.715 51.4828 26.455 51.5478C26.26 51.6778 26.065 51.8728 26 52.1328C25.935 52.3928 25.935 52.6528 26.065 52.9128C26.195 53.1078 26.39 53.3028 26.585 53.4978C26.78 53.6278 27.04 53.7578 27.3 53.8878C27.56 53.9528 27.82 54.0178 28.015 54.0828Z" fill="#0F2332"/>
<path d="M29.7054 49.0791C29.3154 48.8841 28.9254 48.6241 28.5354 48.2991C28.1454 47.9741 27.8204 47.6491 27.6254 47.2591C27.3654 46.8691 27.2354 46.4791 27.2354 46.0241C27.2354 45.5691 27.3004 45.1141 27.5604 44.5941C27.8204 44.0741 28.1454 43.7491 28.5354 43.4891C28.9254 43.2941 29.3154 43.1641 29.7703 43.1641C30.2253 43.1641 30.6804 43.2291 31.1354 43.3591C31.5904 43.4891 32.0454 43.6841 32.4354 43.9441C32.8254 44.1391 33.2154 44.3991 33.6054 44.7241C33.9954 45.0491 34.3203 45.3741 34.5153 45.7641C34.7753 46.1541 34.9054 46.5441 34.9054 46.9991C34.9704 47.4541 34.8404 47.9091 34.5804 48.4291C34.3204 48.9491 33.9954 49.2741 33.6054 49.5341C33.2154 49.7291 32.8253 49.8591 32.3703 49.8591C31.9153 49.8591 31.4604 49.7941 31.0054 49.6641C30.5504 49.4691 30.0954 49.2741 29.7054 49.0791ZM30.4854 47.6491C30.6804 47.7791 30.8754 47.8441 31.1354 47.9741C31.3954 48.1041 31.6553 48.1691 31.9153 48.2341C32.1753 48.2991 32.4353 48.2991 32.6953 48.2341C32.9553 48.1691 33.1504 48.0391 33.2804 47.7791C33.4104 47.5191 33.4753 47.2591 33.3453 47.0641C33.2803 46.8041 33.1504 46.6091 32.9554 46.4141C32.7604 46.2191 32.5654 46.0241 32.3054 45.8941C32.0454 45.7641 31.8504 45.6341 31.6554 45.5041C31.4604 45.3741 31.2654 45.3091 31.0054 45.1791C30.7454 45.0491 30.4854 44.9841 30.2254 44.9191C29.9654 44.8541 29.7053 44.8541 29.4453 44.9191C29.1853 44.9841 28.9904 45.1141 28.8604 45.3741C28.7304 45.6341 28.6654 45.8941 28.7954 46.1541C28.8604 46.4141 28.9904 46.6091 29.1854 46.8041C29.3804 46.9991 29.5754 47.1941 29.8354 47.3241C30.0954 47.3891 30.2904 47.5191 30.4854 47.6491Z" fill="#0F2332"/>
<path d="M31.4601 41.7988C31.2651 41.6038 31.0701 41.3438 30.9401 41.0838C30.8101 40.8238 30.7451 40.5638 30.7451 40.3038C30.7451 40.0438 30.7451 39.7188 30.8751 39.4588C30.9401 39.1988 31.1351 38.9388 31.3301 38.6788C31.5251 38.4838 31.7851 38.2888 32.0451 38.1588C32.3051 38.0288 32.5651 37.9638 32.8251 37.9638C33.0851 37.9638 33.3451 37.9637 33.6701 38.0938C33.9951 38.2237 34.1901 38.3538 34.3851 38.5488C34.5801 38.7438 34.7751 39.0038 34.9051 39.2638C35.0351 39.5238 35.1001 39.7837 35.1001 40.0437C35.1001 40.3038 35.1001 40.6288 34.9701 40.8888C34.9051 41.1488 34.7101 41.4087 34.5151 41.6687C34.3201 41.8637 34.0601 42.0588 33.8001 42.1888C33.5401 42.3188 33.2801 42.3837 33.0201 42.3837C32.7601 42.3837 32.5001 42.3838 32.1751 42.2538C31.9151 42.1888 31.6551 41.9938 31.4601 41.7988ZM33.5401 39.3937C33.3451 39.1988 33.0851 39.1338 32.7601 39.1338C32.5001 39.1338 32.2401 39.2638 32.0451 39.4588C31.8501 39.6538 31.7851 39.9138 31.7851 40.2388C31.7851 40.5638 31.9151 40.7588 32.1751 40.9538C32.3701 41.1488 32.6301 41.2138 32.9551 41.2138C33.2151 41.2138 33.4751 41.0838 33.6701 40.8888C33.8651 40.6938 33.9301 40.4338 33.9301 40.1088C33.8651 39.8488 33.8001 39.5887 33.5401 39.3937ZM34.0601 35.1687L35.0351 34.8438L38.0251 43.5538L37.1151 43.8788L34.0601 35.1687ZM37.8301 40.1088C37.6351 39.9138 37.4401 39.6537 37.3101 39.3937C37.1801 39.1337 37.1151 38.8738 37.1151 38.6138C37.1151 38.3538 37.1151 38.0287 37.2451 37.7687C37.3101 37.5087 37.5051 37.2488 37.7001 36.9888C37.8951 36.7938 38.1551 36.5987 38.4151 36.4688C38.6751 36.3387 38.9351 36.2738 39.1951 36.2738C39.4551 36.2738 39.7151 36.2738 40.0401 36.4038C40.3001 36.4688 40.5601 36.6638 40.7551 36.8588C40.9501 37.0538 41.1451 37.3138 41.2751 37.5738C41.4051 37.8338 41.4701 38.0938 41.4701 38.3538C41.4701 38.6138 41.4701 38.9388 41.3401 39.1988C41.2751 39.4588 41.0801 39.7188 40.8851 39.9788C40.6901 40.2388 40.4301 40.3688 40.1701 40.4988C39.9101 40.6288 39.6501 40.6937 39.3901 40.6937C39.1301 40.6937 38.8701 40.6938 38.5451 40.5638C38.3501 40.4338 38.0901 40.3038 37.8301 40.1088ZM39.9751 37.7038C39.7801 37.5088 39.5201 37.4437 39.1951 37.4437C38.9351 37.4437 38.6751 37.5737 38.4801 37.7687C38.2851 37.9637 38.2201 38.2238 38.2201 38.5488C38.2201 38.8088 38.3501 39.0688 38.6101 39.2638C38.8051 39.4588 39.0651 39.5888 39.3901 39.5238C39.6501 39.5238 39.9101 39.3938 40.1051 39.1988C40.3001 39.0038 40.3651 38.7437 40.3651 38.4187C40.3651 38.0938 40.1701 37.8988 39.9751 37.7038Z" fill="#0F2332"/>
<path d="M41.6006 29.1238L43.8756 27.9538L47.7756 31.6588L47.0606 26.2638L49.3356 25.0938L52.8456 32.0488L51.3506 32.8288L48.6206 27.4988L49.5306 33.8038L48.3606 34.3888L43.8756 29.9688L46.6056 35.2987L45.1106 36.0788L41.6006 29.1238Z" fill="#0F2332"/>
<path d="M52.91 28.0173C52.78 27.4323 52.78 26.8473 52.91 26.2623C53.04 25.7423 53.235 25.2223 53.495 24.8323C53.82 24.3773 54.145 24.0523 54.665 23.7923C55.12 23.5323 55.64 23.2723 56.225 23.2073C56.81 23.0773 57.395 23.0773 57.915 23.1423C58.435 23.2073 58.955 23.4023 59.41 23.6623C59.865 23.9223 60.19 24.3123 60.515 24.7673C60.84 25.2223 61.035 25.7423 61.165 26.3923C61.295 26.9773 61.295 27.5623 61.165 28.1473C61.035 28.6673 60.84 29.1873 60.58 29.5773C60.255 30.0323 59.93 30.3573 59.41 30.6173C58.955 30.8773 58.435 31.1373 57.85 31.2023C57.265 31.3323 56.68 31.3323 56.16 31.2673C55.64 31.2023 55.12 31.0073 54.665 30.7473C54.21 30.4873 53.885 30.0973 53.56 29.6423C53.235 29.1223 53.04 28.6023 52.91 28.0173ZM54.665 27.6273C54.73 28.0173 54.86 28.2773 55.055 28.6023C55.25 28.8623 55.445 29.1223 55.705 29.3173C55.965 29.5123 56.225 29.6423 56.55 29.7073C56.875 29.7723 57.2 29.7723 57.59 29.7073C57.98 29.6423 58.24 29.5123 58.5 29.3173C58.76 29.1223 58.955 28.9273 59.15 28.6673C59.345 28.4073 59.41 28.0823 59.475 27.8223C59.54 27.4973 59.54 27.1723 59.475 26.7823C59.41 26.4573 59.28 26.1323 59.085 25.8073C58.89 25.5473 58.695 25.2873 58.435 25.0923C58.175 24.8973 57.915 24.7673 57.59 24.7023C57.265 24.6373 56.94 24.6373 56.55 24.7023C56.16 24.7673 55.9 24.8973 55.64 25.0923C55.38 25.2873 55.185 25.4823 54.99 25.7423C54.795 26.0023 54.73 26.3273 54.665 26.6523C54.6 26.9773 54.6 27.3023 54.665 27.6273Z" fill="#0F2332"/>
<path d="M63.1156 22.3633L65.4556 22.4933L68.4456 28.0833L68.7056 22.6883L70.3956 22.7533L70.0056 30.5533L67.7956 30.4233L64.7406 24.7033L64.4156 30.2933L62.7256 30.2283L63.1156 22.3633Z" fill="#0F2332"/>
<path d="M73.4502 23.4023L78.5202 24.8323L78.0652 26.3923L74.6202 25.4173L74.2302 26.8473L77.4802 27.7573L77.0252 29.3173L73.7752 28.4073L73.3202 29.9673L76.9602 31.0073L76.5052 32.5673L71.2402 31.0723L73.4502 23.4023Z" fill="#0F2332"/>
<path d="M80.7948 30.6835L80.2098 25.3535L82.0948 26.3285L82.2248 29.7085L85.0848 27.8885L86.9048 28.7985L82.2898 31.4635L80.7948 34.4535L79.2998 33.6735L80.7948 30.6835Z" fill="#0F2332"/>
<path d="M91.455 32.2441L93.535 34.2591C93.795 34.5191 93.99 34.7141 94.25 35.0391C94.445 35.2991 94.64 35.5591 94.705 35.8841C94.77 36.1441 94.835 36.4691 94.77 36.7941C94.705 37.1191 94.51 37.3791 94.25 37.7041C93.925 38.0291 93.6 38.2241 93.21 38.2241C92.82 38.2891 92.43 38.1591 92.105 38.0291C92.235 38.2241 92.365 38.4191 92.43 38.6791C92.495 38.8741 92.56 39.1341 92.56 39.3291C92.56 39.5241 92.495 39.7841 92.43 39.9791C92.365 40.1741 92.235 40.3691 92.04 40.5641C91.78 40.8891 91.455 41.0191 91.13 41.1491C90.805 41.2141 90.48 41.2141 90.155 41.1491C89.83 41.0841 89.505 40.9541 89.245 40.7591C88.92 40.5641 88.66 40.3691 88.4 40.1091L86.125 37.8991L91.455 32.2441ZM88.335 38.0291L89.44 39.0691C89.505 39.1341 89.635 39.2641 89.765 39.3291C89.895 39.3941 90.025 39.4591 90.155 39.4591C90.285 39.4591 90.415 39.4591 90.545 39.4591C90.675 39.3941 90.805 39.3291 90.935 39.1991C91.065 39.0691 91.13 38.9391 91.13 38.8091C91.13 38.6791 91.13 38.5491 91.065 38.3541C91 38.2241 90.935 38.0941 90.805 37.9641C90.675 37.8341 90.61 37.7041 90.48 37.6391L89.57 36.7291L88.335 38.0291ZM90.545 35.6891L91.455 36.5341C91.52 36.5991 91.65 36.7291 91.78 36.7941C91.91 36.8591 92.04 36.9241 92.105 36.9241C92.235 36.9241 92.365 36.9241 92.495 36.9241C92.625 36.8591 92.755 36.7941 92.82 36.7291C92.95 36.5991 93.015 36.4691 93.015 36.3391C93.015 36.2091 93.015 36.0791 93.015 35.9491C92.95 35.8191 92.885 35.6891 92.82 35.6241C92.755 35.4941 92.625 35.4291 92.56 35.2991L91.715 34.5191L90.545 35.6891Z" fill="#0F2332"/>
<path d="M98.8655 40.4336L99.6455 41.6036L95.0955 48.8186L93.9905 47.1936L94.9655 45.6986L93.2755 43.1636L91.5205 43.5536L90.4805 41.9936L98.8655 40.4336ZM97.3055 42.2536L94.7705 42.8386L95.8105 44.3986L97.3055 42.2536Z" fill="#0F2332"/>
<path d="M102.44 51.873C102.57 51.613 102.635 51.418 102.635 51.093C102.635 50.833 102.57 50.508 102.505 50.248C102.375 49.923 102.245 49.663 101.985 49.468C101.79 49.273 101.53 49.078 101.205 49.013C100.945 48.883 100.62 48.883 100.295 48.883C99.9699 48.883 99.6449 48.948 99.3199 49.078C98.9949 49.208 98.6699 49.403 98.4749 49.598C98.2149 49.793 98.0199 50.053 97.8899 50.313C97.7599 50.573 97.6949 50.833 97.6299 51.158C97.6299 51.483 97.6299 51.743 97.7599 52.003C97.8899 52.328 98.0849 52.588 98.2799 52.783C98.5399 52.978 98.7999 53.108 99.1249 53.173L98.6699 54.928C98.1499 54.798 97.6299 54.538 97.2399 54.148C96.8499 53.758 96.5249 53.303 96.3299 52.783C96.1349 52.198 96.0049 51.678 96.0049 51.093C96.0049 50.573 96.0699 50.053 96.2649 49.533C96.4599 49.078 96.7199 48.623 97.1749 48.233C97.5649 47.843 98.0849 47.518 98.6049 47.323C99.1899 47.063 99.7749 46.998 100.295 46.998C100.815 46.998 101.335 47.128 101.79 47.323C102.245 47.518 102.7 47.843 103.025 48.233C103.415 48.623 103.675 49.143 103.935 49.728C104 49.923 104.065 50.183 104.13 50.378C104.195 50.638 104.195 50.833 104.195 51.093C104.195 51.353 104.195 51.613 104.13 51.873C104.065 52.133 104 52.393 103.87 52.588L102.44 51.873Z" fill="#0F2332"/>
<path d="M105.43 54.7969L105.69 56.4869L102.505 57.0069L106.145 59.4769L106.47 61.6869L102.375 58.8269L98.8653 63.2469L98.4753 60.8419L101.595 57.1369L97.9553 57.7219L97.6953 56.0319L105.43 54.7969Z" fill="#0F2332"/>
<path d="M29.3797 79.4997C30.7798 79.4997 31.9147 78.3647 31.9147 76.9647C31.9147 75.5646 30.7798 74.4297 29.3797 74.4297C27.9797 74.4297 26.8447 75.5646 26.8447 76.9647C26.8447 78.3647 27.9797 79.4997 29.3797 79.4997Z" fill="#821DB6"/>
<path d="M101.205 79.4997C102.605 79.4997 103.74 78.3647 103.74 76.9647C103.74 75.5646 102.605 74.4297 101.205 74.4297C99.8049 74.4297 98.6699 75.5646 98.6699 76.9647C98.6699 78.3647 99.8049 79.4997 101.205 79.4997Z" fill="#821DB6"/>
<path d="M39.0001 98.0889C38.4801 97.9589 37.9601 97.7639 37.5051 97.4389C37.0501 97.1789 36.5951 96.8539 36.2051 96.4639C35.7501 96.0739 35.4251 95.6189 35.1651 95.1639C34.9051 94.7089 34.7751 94.1889 34.7751 93.6689C34.7101 93.1489 34.8401 92.6939 34.9701 92.1739C35.1651 91.6539 35.4251 91.1989 35.8801 90.7439C36.2701 90.2889 36.7251 89.9639 37.2451 89.7039C37.7001 89.5089 38.2201 89.3789 38.7401 89.3789C39.2601 89.3789 39.7151 89.4439 40.2351 89.6389C40.7551 89.8339 41.2101 90.1589 41.6001 90.5489C42.0551 90.9389 42.3801 91.3939 42.7051 91.8489C42.9651 92.3039 43.1601 92.8239 43.1601 93.3439L41.4051 93.4739C41.4051 93.1489 41.3401 92.8239 41.2101 92.5639C41.0801 92.3039 40.8851 91.9789 40.5601 91.7189C40.3001 91.4589 40.0401 91.3289 39.7151 91.1989C39.3901 91.0689 39.1301 91.0689 38.8051 91.0689C38.4801 91.0689 38.2201 91.1989 37.9601 91.3289C37.7001 91.4589 37.4401 91.6539 37.1801 91.9139C36.9201 92.1739 36.7901 92.4339 36.6601 92.7589C36.5301 93.0839 36.4651 93.3439 36.4651 93.6689C36.4651 93.9939 36.5301 94.2539 36.6601 94.5789C36.7901 94.8389 36.9851 95.0989 37.2451 95.3589C37.5051 95.6189 37.7651 95.8139 38.0251 95.8789C38.2851 96.0089 38.4801 96.0739 38.6751 96.1389L39.5201 95.2289L38.5451 94.3189L39.5851 93.1489L41.7951 95.1639L39.0001 98.0889Z" fill="#0F2332"/>
<path d="M47.6454 100.689C47.3854 101.079 47.1254 101.404 46.8654 101.664C46.5404 101.924 46.2154 102.119 45.8254 102.184C45.4354 102.314 45.0454 102.314 44.6554 102.249C44.2004 102.184 43.8104 101.989 43.3554 101.729C42.9004 101.469 42.5104 101.144 42.2504 100.819C41.9904 100.494 41.7954 100.104 41.7304 99.7137C41.6654 99.3237 41.6654 98.9337 41.7304 98.5437C41.7954 98.1537 41.9254 97.7637 42.1854 97.3737L44.5254 93.3438L45.9554 94.1887L43.6154 98.1537C43.4854 98.3487 43.4204 98.5437 43.3554 98.8037C43.2904 98.9987 43.2904 99.1937 43.3554 99.3887C43.4204 99.5837 43.4854 99.7787 43.6154 99.9087C43.7454 100.104 43.8754 100.234 44.0704 100.299C44.2654 100.429 44.4604 100.494 44.6554 100.494C44.8504 100.494 45.0454 100.494 45.2404 100.429C45.4354 100.364 45.6304 100.299 45.7604 100.169C45.9554 100.039 46.0854 99.8437 46.2154 99.6487L48.5554 95.6837L49.9854 96.5287L47.6454 100.689Z" fill="#0F2332"/>
<path d="M53.2355 97.8301L54.5355 98.2851L55.1855 106.54L53.4305 105.955L53.3005 104.2L50.5055 103.225L49.4005 104.525L47.6455 103.94L53.2355 97.8301ZM53.1055 100.17L51.4805 102.12L53.2355 102.705L53.1055 100.17Z" fill="#0F2332"/>
<path d="M57.915 99.3242L60.84 99.7142C61.23 99.7792 61.555 99.8442 61.88 99.9742C62.205 100.104 62.465 100.234 62.725 100.494C62.985 100.689 63.115 100.949 63.245 101.274C63.375 101.599 63.375 101.989 63.31 102.379C63.245 102.899 63.05 103.354 62.725 103.679C62.4 104.004 61.945 104.199 61.425 104.199L62.855 107.644L60.905 107.384L59.735 104.134L58.89 104.004L58.5 106.994L56.875 106.734L57.915 99.3242ZM59.085 102.639L60.06 102.769C60.19 102.769 60.385 102.834 60.515 102.834C60.71 102.834 60.84 102.834 60.97 102.769C61.1 102.704 61.23 102.639 61.36 102.574C61.49 102.444 61.555 102.314 61.555 102.119C61.555 101.924 61.555 101.794 61.49 101.664C61.425 101.534 61.36 101.469 61.23 101.339C61.1 101.274 60.97 101.209 60.84 101.144C60.71 101.079 60.515 101.079 60.385 101.079L59.28 100.949L59.085 102.639Z" fill="#0F2332"/>
<path d="M66.6901 100.04L68.0551 99.9746L71.6951 107.385L69.8101 107.45L69.0951 105.89L66.1701 106.02L65.6501 107.645L63.8301 107.71L66.6901 100.04ZM67.4701 102.185L66.6901 104.59L68.5101 104.525L67.4701 102.185Z" fill="#0F2332"/>
<path d="M71.5654 99.7145L73.7754 99.1295L78.2604 103.42L76.8954 98.3495L78.5204 97.8945L80.4704 105.24L78.3904 105.825L73.7754 101.47L75.2054 106.67L73.5804 107.125L71.5654 99.7145Z" fill="#0F2332"/>
<path d="M81.3148 98.0896L79.3648 99.0646L78.7148 97.7646L84.1098 95.0996L84.7598 96.3996L82.8098 97.3746L85.4748 102.9L83.9798 103.615L81.3148 98.0896Z" fill="#0F2332"/>
<path d="M84.5654 94.6438L88.7904 91.7188L89.6354 93.0188L86.7754 94.9688L87.5554 96.1387L90.2854 94.2537L91.1304 95.5537L88.4004 97.4387L89.2454 98.7387L92.2354 96.6587L93.0804 97.9587L88.7254 101.014L84.5654 94.6438Z" fill="#0F2332"/>
<path d="M89.5049 91.0697L93.1449 87.4297L94.2499 88.5347L91.7799 91.0047L92.7549 91.9797L95.0949 89.6397L96.1999 90.7447L93.8599 93.0847L94.9649 94.1897L97.5649 91.5897L98.6699 92.6947L94.8999 96.5297L89.5049 91.0697Z" fill="#0F2332"/>
<path d="M64.22 117.134C63.57 117.134 62.855 117.069 62.14 117.069L62.205 116.029C62.855 116.094 63.57 116.094 64.22 116.094V117.134ZM66.235 117.134V116.094C66.885 116.094 67.6 116.029 68.25 116.029L68.315 117.069C67.6 117.069 66.95 117.134 66.235 117.134ZM60.125 116.874C59.475 116.809 58.76 116.744 58.11 116.614L58.24 115.574C58.89 115.639 59.605 115.769 60.255 115.834L60.125 116.874ZM70.33 116.874L70.2 115.834C70.85 115.769 71.565 115.704 72.215 115.574L72.345 116.614C71.695 116.744 70.98 116.809 70.33 116.874ZM56.03 116.354C55.38 116.224 54.665 116.094 54.015 115.964L54.21 114.989C54.86 115.119 55.51 115.249 56.16 115.379L56.03 116.354ZM74.425 116.289L74.23 115.249C74.88 115.119 75.53 114.989 76.18 114.859L76.375 115.834C75.725 116.094 75.075 116.224 74.425 116.289ZM52.065 115.444C51.415 115.249 50.765 115.054 50.115 114.859L50.44 113.884C51.09 114.079 51.74 114.274 52.39 114.469L52.065 115.444ZM78.39 115.444L78.13 114.469C78.78 114.274 79.43 114.144 80.08 113.884L80.405 114.859C79.69 115.054 79.04 115.249 78.39 115.444ZM48.1 114.209C47.45 114.014 46.8 113.754 46.15 113.494L46.54 112.519C47.19 112.779 47.775 113.039 48.425 113.234L48.1 114.209ZM82.29 114.209L81.965 113.234C82.615 113.039 83.2 112.779 83.85 112.519L84.24 113.494C83.59 113.754 82.94 114.014 82.29 114.209ZM44.265 112.714C43.615 112.454 43.03 112.129 42.38 111.869L42.835 110.959C43.42 111.284 44.07 111.544 44.655 111.804L44.265 112.714ZM86.125 112.714L85.735 111.804C86.32 111.544 86.97 111.219 87.555 110.959L88.01 111.869C87.36 112.129 86.775 112.389 86.125 112.714ZM40.625 110.894C40.04 110.569 39.39 110.244 38.87 109.854L39.39 108.944C39.975 109.269 40.56 109.594 41.145 109.919L40.625 110.894ZM89.765 110.894L89.31 109.984C89.895 109.659 90.48 109.334 91.065 109.009L91.585 109.919C91 110.179 90.35 110.569 89.765 110.894ZM37.05 108.749C36.465 108.359 35.88 107.969 35.36 107.579L35.945 106.734C36.465 107.124 37.05 107.514 37.635 107.839L37.05 108.749ZM93.275 108.749L92.69 107.904C93.275 107.514 93.795 107.124 94.38 106.799L94.965 107.644C94.445 108.034 93.86 108.424 93.275 108.749ZM96.655 106.409L96.005 105.629C96.525 105.239 97.045 104.784 97.565 104.394L98.215 105.174C97.695 105.564 97.175 105.954 96.655 106.409ZM33.735 106.409C33.215 106.019 32.63 105.564 32.11 105.109L32.76 104.329C33.28 104.784 33.8 105.174 34.32 105.564L33.735 106.409ZM99.775 103.744L99.06 102.964C99.58 102.509 100.035 102.054 100.555 101.599L101.27 102.314C100.815 102.834 100.295 103.289 99.775 103.744ZM30.615 103.744C30.095 103.289 29.64 102.834 29.12 102.314L29.835 101.599C30.29 102.054 30.81 102.509 31.265 102.964L30.615 103.744ZM102.7 100.884L101.985 100.169C102.44 99.649 102.895 99.194 103.35 98.674L104.13 99.324C103.675 99.844 103.155 100.364 102.7 100.884ZM27.69 100.819C27.235 100.299 26.78 99.779 26.325 99.324L27.105 98.674C27.56 99.194 28.015 99.714 28.47 100.169L27.69 100.819ZM105.43 97.764L104.65 97.114C105.04 96.594 105.495 96.074 105.885 95.489L106.73 96.074C106.275 96.659 105.82 97.244 105.43 97.764ZM24.96 97.764C24.505 97.244 24.115 96.659 23.725 96.139L24.57 95.554C24.96 96.074 25.35 96.659 25.805 97.179L24.96 97.764ZM22.555 94.449C22.165 93.864 21.775 93.279 21.45 92.694L22.295 92.174C22.62 92.759 23.01 93.279 23.4 93.864L22.555 94.449ZM107.835 94.449L106.99 93.864C107.38 93.279 107.705 92.759 108.095 92.174L108.94 92.694C108.615 93.279 108.225 93.864 107.835 94.449ZM20.345 90.939C20.02 90.354 19.695 89.769 19.37 89.119L20.28 88.664C20.605 89.249 20.93 89.834 21.255 90.419L20.345 90.939ZM110.045 90.939L109.135 90.419C109.46 89.834 109.785 89.249 110.11 88.664L111.02 89.119C110.695 89.704 110.37 90.354 110.045 90.939ZM18.46 87.299C18.2 86.649 17.875 86.064 17.615 85.414L18.525 85.024C18.785 85.609 19.045 86.259 19.37 86.844L18.46 87.299ZM111.93 87.234L111.02 86.779C111.28 86.194 111.605 85.544 111.865 84.959L112.775 85.349C112.515 85.999 112.19 86.649 111.93 87.234ZM16.9 83.529C16.64 82.879 16.445 82.229 16.25 81.579L17.225 81.254C17.42 81.904 17.68 82.554 17.875 83.139L16.9 83.529ZM113.49 83.464L112.515 83.074C112.775 82.424 112.97 81.774 113.165 81.189L114.14 81.514C113.945 82.164 113.75 82.814 113.49 83.464ZM15.6 79.564C15.405 78.914 15.21 78.264 15.08 77.549L16.055 77.289C16.185 77.939 16.38 78.589 16.575 79.239L15.6 79.564ZM114.79 79.564L113.815 79.304C114.01 78.654 114.14 78.004 114.335 77.354L115.31 77.614C115.18 78.199 114.985 78.849 114.79 79.564ZM14.625 75.599C14.495 74.949 14.365 74.234 14.235 73.584L15.21 73.454C15.34 74.104 15.405 74.754 15.535 75.469L14.625 75.599ZM115.765 75.534L114.79 75.339C114.92 74.689 115.05 74.039 115.115 73.324L116.09 73.454C116.025 74.169 115.895 74.884 115.765 75.534ZM13.975 71.504C13.91 70.854 13.845 70.139 13.78 69.424L14.82 69.359C14.885 70.009 14.95 70.724 15.015 71.374L13.975 71.504ZM116.415 71.439L115.375 71.309C115.44 70.659 115.505 69.944 115.57 69.294L116.61 69.359C116.545 70.074 116.48 70.789 116.415 71.439ZM13.65 67.409C13.65 66.759 13.585 66.044 13.585 65.329H14.625C14.625 65.979 14.625 66.694 14.69 67.344L13.65 67.409ZM116.74 67.344L115.7 67.279C115.7 66.629 115.765 65.914 115.765 65.264V65.134H116.805V65.264C116.74 65.979 116.74 66.694 116.74 67.344ZM14.69 63.314L13.65 63.249C13.65 62.599 13.715 61.884 13.78 61.169L14.82 61.234C14.755 61.949 14.69 62.664 14.69 63.314ZM115.7 63.184C115.7 62.534 115.635 61.819 115.57 61.169L116.61 61.104C116.675 61.819 116.675 62.469 116.74 63.184H115.7ZM15.015 59.284L13.975 59.154C14.04 58.504 14.17 57.789 14.235 57.139L15.21 57.269C15.145 57.984 15.08 58.634 15.015 59.284ZM115.375 59.154C115.31 58.504 115.18 57.789 115.115 57.139L116.09 56.944C116.22 57.594 116.285 58.309 116.35 58.959L115.375 59.154ZM15.6 55.319L14.625 55.124C14.755 54.474 14.885 53.759 15.08 53.109L16.055 53.369C15.86 53.954 15.73 54.669 15.6 55.319ZM114.725 55.124C114.595 54.474 114.465 53.824 114.27 53.174L115.245 52.914C115.44 53.564 115.57 54.279 115.7 54.929L114.725 55.124ZM16.575 51.354L15.6 51.094C15.795 50.444 15.99 49.794 16.185 49.144L17.16 49.469C16.965 50.054 16.77 50.704 16.575 51.354ZM113.815 51.224C113.62 50.574 113.425 49.924 113.23 49.274L114.205 48.949C114.4 49.599 114.595 50.249 114.79 50.899L113.815 51.224ZM17.81 47.519L16.835 47.129C17.095 46.479 17.355 45.829 17.615 45.179L18.525 45.569C18.265 46.284 18.07 46.869 17.81 47.519ZM112.515 47.389C112.255 46.739 112.06 46.154 111.8 45.504L112.71 45.114C112.97 45.764 113.23 46.414 113.49 46.999L112.515 47.389ZM19.37 43.814L18.46 43.359C18.72 42.709 19.045 42.124 19.37 41.474L20.28 41.929C19.955 42.579 19.63 43.164 19.37 43.814ZM110.955 43.684C110.695 43.099 110.37 42.449 110.045 41.864L110.955 41.409C111.28 41.994 111.54 42.644 111.865 43.229L110.955 43.684ZM21.19 40.174L20.28 39.654C20.605 39.069 20.995 38.484 21.32 37.899L22.165 38.419C21.905 39.004 21.58 39.589 21.19 40.174ZM109.135 40.109C108.81 39.524 108.485 38.939 108.095 38.354L108.94 37.834C109.33 38.419 109.655 39.004 109.98 39.589L109.135 40.109ZM23.335 36.794L22.49 36.209C22.88 35.624 23.27 35.104 23.66 34.519L24.505 35.104C24.115 35.624 23.725 36.209 23.335 36.794ZM106.99 36.664C106.6 36.079 106.21 35.559 105.82 35.039L106.665 34.454C107.055 34.974 107.445 35.559 107.835 36.144L106.99 36.664ZM25.74 33.479L24.96 32.829C25.415 32.309 25.805 31.789 26.26 31.269L27.04 31.919C26.585 32.439 26.13 32.959 25.74 33.479ZM104.585 33.414C104.195 32.894 103.74 32.374 103.285 31.854L104.065 31.204C104.52 31.724 104.975 32.244 105.365 32.764L104.585 33.414ZM28.405 30.489L27.69 29.774C28.145 29.254 28.665 28.799 29.12 28.279L29.835 28.994C29.315 29.514 28.86 29.969 28.405 30.489ZM101.92 30.424C101.465 29.969 101.01 29.449 100.49 28.994L101.205 28.279C101.725 28.734 102.18 29.254 102.635 29.774L101.92 30.424ZM31.265 27.629L30.55 26.849C31.07 26.394 31.59 25.939 32.11 25.484L32.76 26.264C32.24 26.719 31.72 27.174 31.265 27.629ZM99.06 27.564C98.54 27.109 98.02 26.654 97.565 26.264L98.215 25.484C98.735 25.939 99.255 26.394 99.775 26.849L99.06 27.564ZM34.32 25.029L33.67 24.249C34.19 23.794 34.775 23.404 35.295 23.014L35.88 23.859C35.425 24.184 34.84 24.639 34.32 25.029ZM96.005 24.964C95.485 24.574 94.9 24.119 94.38 23.794L94.965 22.949C95.485 23.339 96.07 23.729 96.59 24.184L96.005 24.964ZM37.57 22.689L37.05 21.844C37.635 21.454 38.22 21.129 38.805 20.739L39.325 21.649C38.74 21.974 38.155 22.299 37.57 22.689ZM92.69 22.624C92.105 22.234 91.585 21.909 91 21.584L91.52 20.674C92.105 20.999 92.69 21.389 93.275 21.779L92.69 22.624ZM41.015 20.609L40.56 19.699C41.145 19.374 41.795 19.049 42.38 18.724L42.835 19.634C42.25 20.024 41.6 20.284 41.015 20.609ZM89.245 20.544C88.66 20.219 88.075 19.894 87.425 19.634L87.88 18.724C88.465 19.049 89.115 19.374 89.7 19.699L89.245 20.544ZM44.655 18.854L44.2 17.879C44.85 17.619 45.435 17.359 46.085 17.099L46.475 18.074C45.89 18.334 45.24 18.594 44.655 18.854ZM85.605 18.789C85.02 18.529 84.37 18.269 83.72 18.009L84.11 17.034C84.76 17.294 85.41 17.554 85.995 17.814L85.605 18.789ZM48.36 17.359L48.035 16.384C48.685 16.189 49.335 15.929 49.985 15.734L50.31 16.709C49.595 16.904 49.01 17.099 48.36 17.359ZM81.9 17.294C81.25 17.099 80.6 16.839 80.015 16.644L80.34 15.669C80.99 15.864 81.64 16.059 82.29 16.319L81.9 17.294ZM52.195 16.124L51.935 15.149C52.585 14.954 53.235 14.824 53.95 14.629L54.145 15.604C53.495 15.799 52.845 15.994 52.195 16.124ZM78.065 16.124C77.415 15.929 76.765 15.799 76.115 15.669L76.31 14.694C76.96 14.824 77.61 15.019 78.325 15.149L78.065 16.124ZM56.095 15.279L55.9 14.239C56.55 14.109 57.265 13.979 57.915 13.914L58.045 14.954C57.46 15.019 56.81 15.149 56.095 15.279ZM74.1 15.279C73.45 15.149 72.8 15.084 72.085 14.954L72.215 13.914C72.865 13.979 73.58 14.109 74.23 14.239L74.1 15.279ZM60.125 14.694L59.995 13.654C60.645 13.589 61.36 13.524 62.01 13.459L62.075 14.499C61.425 14.564 60.775 14.629 60.125 14.694ZM70.135 14.694C69.485 14.629 68.77 14.564 68.12 14.564L68.185 13.524C68.835 13.589 69.55 13.589 70.2 13.654L70.135 14.694ZM64.09 14.499V13.459C64.74 13.459 65.455 13.459 66.17 13.459V14.499C65.455 14.434 64.805 14.434 64.09 14.499Z" fill="#E6E6E6"/>
<path d="M45.6599 64.9989C46.7649 65.5839 49.2999 66.6239 51.8349 66.6239C55.0849 66.6239 56.7099 65.0639 56.7099 63.0489C56.7099 60.4489 54.1099 59.2139 51.3149 59.2139H48.7799V54.7289H51.1849C53.2649 54.6639 55.9299 53.8839 55.9299 51.6739C55.9299 50.0489 54.6299 48.8789 52.0299 48.8789C49.8849 48.8789 47.5449 49.7889 46.4399 50.5039L45.1399 46.0189C46.7649 44.9789 49.9499 44.0039 53.3949 44.0039C59.1149 44.0039 62.2349 46.9939 62.2349 50.6339C62.2349 53.4289 60.6099 55.6389 57.3599 56.8089V56.9389C60.5449 57.5239 63.1449 59.9289 63.1449 63.4389C63.1449 68.1189 58.9849 71.5639 52.2249 71.5639C48.7799 71.5639 45.8549 70.6539 44.2949 69.6789L45.6599 64.9989Z" fill="#DFA325"/>
<path d="M87 57.6539C87 65.9089 83.685 71.5639 76.86 71.5639C69.97 71.5639 66.98 65.3889 66.915 57.8489C66.915 50.1789 70.165 44.0689 77.055 44.0689C84.205 44.0039 87 50.3739 87 57.6539ZM73.155 57.8489C73.09 63.9589 74.585 66.8839 76.99 66.8839C79.395 66.8839 80.695 63.8289 80.695 57.7839C80.695 51.8689 79.395 48.7489 76.925 48.7489C74.715 48.7489 73.155 51.6739 73.155 57.8489Z" fill="#DFA325"/>
</g>
<defs>
<clipPath id="clip0_2947_16772">
<rect width="130" height="130" fill="white" transform="translate(0 0.00390625)"/>
</clipPath>
</defs>
</svg>
