<svg width="12" height="13" viewBox="0 0 12 13" fill="none" xmlns="http://www.w3.org/2000/svg">
<path d="M6 12.3984C7.5913 12.3984 9.11742 11.7663 10.2426 10.6411C11.3679 9.51586 12 7.98974 12 6.39844C12 4.80714 11.3679 3.28102 10.2426 2.1558C9.11742 1.03058 7.5913 0.398438 6 0.398438C4.4087 0.398438 2.88258 1.03058 1.75736 2.1558C0.632141 3.28102 0 4.80714 0 6.39844C0 7.98974 0.632141 9.51586 1.75736 10.6411C2.88258 11.7663 4.4087 12.3984 6 12.3984ZM8.64844 5.29688L5.64844 8.29688C5.42812 8.51719 5.07188 8.51719 4.85391 8.29688L3.35391 6.79688C3.13359 6.57656 3.13359 6.22031 3.35391 6.00234C3.57422 5.78438 3.93047 5.78203 4.14844 6.00234L5.25 7.10391L7.85156 4.5C8.07187 4.27969 8.42812 4.27969 8.64609 4.5C8.86406 4.72031 8.86641 5.07656 8.64609 5.29453L8.64844 5.29688Z" fill="#77BE9C"/>
</svg>
