<svg width="16" height="16" viewBox="0 0 16 16" fill="none" xmlns="http://www.w3.org/2000/svg">
<path d="M3.12483 4.14199L4.5335 12.6507C4.59793 13.0402 4.79856 13.3942 5.09963 13.6496C5.40071 13.905 5.78268 14.0452 6.1775 14.0453H8.4095M12.8748 4.14199L11.4668 12.6507C11.4024 13.0402 11.2018 13.3942 10.9007 13.6496C10.5996 13.905 10.2176 14.0452 9.82283 14.0453H7.59083M6.6815 7.41066V10.7767M9.31883 7.41066V10.7767M1.8335 4.14199H14.1668M9.8515 4.14199V2.95532C9.8515 2.69011 9.74614 2.43575 9.5586 2.24822C9.37107 2.06068 9.11671 1.95532 8.8515 1.95532H7.14883C6.88361 1.95532 6.62926 2.06068 6.44172 2.24822C6.25419 2.43575 6.14883 2.69011 6.14883 2.95532V4.14199H9.8515Z" stroke="#D70303" stroke-linecap="round" stroke-linejoin="round"/>
</svg>
