<svg width="1260" height="203" viewBox="0 0 1260 203" fill="none" xmlns="http://www.w3.org/2000/svg">
<g filter="url(#filter0_b_3209_9504)">
<rect y="17.0352" width="1260" height="168" rx="10" fill="white" fill-opacity="0.04"/>
<rect x="0.5" y="17.5352" width="1259" height="167" rx="9.5" stroke="white" stroke-opacity="0.6"/>
<path d="M69.056 85.3232C67.4987 85.3232 66.112 85.0458 64.896 84.4912C63.7013 83.9152 62.7627 83.1258 62.08 82.1232C61.3973 81.1205 61.056 79.9685 61.056 78.6672H65.376C65.44 79.6272 65.8027 80.3952 66.464 80.9712C67.1253 81.5258 68.0107 81.8032 69.12 81.8032C70.272 81.8032 71.168 81.5365 71.808 81.0032C72.448 80.4485 72.768 79.6912 72.768 78.7312C72.768 77.7925 72.3947 77.0565 71.648 76.5232C70.9013 75.9898 69.8667 75.7232 68.544 75.7232H66.208V72.2032H68.288C69.0347 72.2032 69.664 72.0858 70.176 71.8512C70.688 71.6165 71.0827 71.2858 71.36 70.8592C71.6373 70.4325 71.776 69.9312 71.776 69.3552C71.776 68.5018 71.5093 67.8298 70.976 67.3392C70.4427 66.8485 69.7173 66.6032 68.8 66.6032C67.904 66.6032 67.1787 66.8805 66.624 67.4352C66.0907 67.9685 65.8133 68.7045 65.792 69.6432H61.472C61.4933 68.3845 61.8347 67.2645 62.496 66.2832C63.1573 65.2805 64.0533 64.5018 65.184 63.9472C66.336 63.3712 67.616 63.0832 69.024 63.0832C70.5387 63.0832 71.84 63.3392 72.928 63.8512C74.0373 64.3632 74.88 65.0672 75.456 65.9632C76.0533 66.8378 76.352 67.8618 76.352 69.0352C76.352 70.0165 76.0747 70.9018 75.52 71.6912C74.9653 72.4592 74.1653 73.1205 73.12 73.6752C74.4853 74.1018 75.5307 74.7418 76.256 75.5952C76.9813 76.4272 77.344 77.4298 77.344 78.6032C77.344 79.9472 76.992 81.1205 76.288 82.1232C75.584 83.1258 74.6133 83.9152 73.376 84.4912C72.16 85.0458 70.72 85.3232 69.056 85.3232ZM80.3908 74.2512C80.3908 70.6672 81.1161 67.9152 82.5668 65.9952C84.0174 64.0538 86.0761 63.0832 88.7428 63.0832C91.4094 63.0832 93.4681 64.0538 94.9188 65.9952C96.3908 67.9152 97.1268 70.6672 97.1268 74.2512C97.1268 77.8138 96.4014 80.5552 94.9508 82.4752C93.5214 84.3952 91.4521 85.3552 88.7428 85.3552C86.0548 85.3552 83.9854 84.3952 82.5348 82.4752C81.1054 80.5552 80.3908 77.8138 80.3908 74.2512ZM84.9668 74.2512C84.9668 76.5765 85.2868 78.3472 85.9268 79.5632C86.5668 80.7792 87.5054 81.3872 88.7428 81.3872C89.9801 81.3872 90.9188 80.7792 91.5588 79.5632C92.2201 78.3472 92.5508 76.5765 92.5508 74.2512C92.5508 71.9045 92.2201 70.1232 91.5588 68.9072C90.9188 67.6698 89.9801 67.0512 88.7428 67.0512C87.5268 67.0512 86.5881 67.6698 85.9268 68.9072C85.2868 70.1445 84.9668 71.9258 84.9668 74.2512ZM116.69 85.0352H108.53V62.0592H116.69C119.122 62.0592 121.213 62.5392 122.962 63.4992C124.712 64.4592 126.056 65.7925 126.994 67.4992C127.933 69.2058 128.403 71.1792 128.403 73.4192C128.403 75.6378 127.922 77.6325 126.962 79.4032C126.002 81.1525 124.637 82.5285 122.866 83.5312C121.117 84.5338 119.058 85.0352 116.69 85.0352ZM113.394 66.2512V80.8432H116.434C117.97 80.8432 119.25 80.5552 120.274 79.9792C121.32 79.4032 122.098 78.5605 122.61 77.4512C123.144 76.3418 123.41 74.9978 123.41 73.4192C123.41 71.8832 123.144 70.5818 122.61 69.5152C122.098 68.4485 121.32 67.6378 120.274 67.0832C119.25 66.5285 117.97 66.2512 116.434 66.2512H113.394ZM135.015 76.2352H145.191L146.471 80.1072H133.607L135.015 76.2352ZM146.247 85.0352L140.103 67.3712L133.831 85.0352H128.935L137.575 62.0592H142.887L151.463 85.0352H146.247ZM162.59 76.3952V85.0352H157.726V76.3952L149.598 62.0592H154.846L160.318 71.9472L165.886 62.0592H170.782L162.59 76.3952ZM190.294 77.8992C190.294 79.3498 189.92 80.6405 189.174 81.7712C188.427 82.8805 187.36 83.7552 185.974 84.3952C184.608 85.0352 182.955 85.3552 181.014 85.3552C179.094 85.3552 177.419 85.0352 175.99 84.3952C174.582 83.7338 173.472 82.8058 172.662 81.6112C171.851 80.4165 171.382 79.0085 171.254 77.3872H176.182C176.246 78.6672 176.672 79.6805 177.462 80.4272C178.272 81.1738 179.424 81.5472 180.918 81.5472C181.75 81.5472 182.475 81.4298 183.094 81.1952C183.734 80.9605 184.235 80.6192 184.598 80.1712C184.96 79.7232 185.142 79.2005 185.142 78.6032C185.142 77.8778 184.875 77.3018 184.342 76.8752C183.808 76.4272 183.051 76.1072 182.07 75.9152L178.294 75.1792C177.419 75.0298 176.608 74.7845 175.862 74.4432C175.115 74.1018 174.464 73.6752 173.91 73.1632C173.355 72.6512 172.918 72.0325 172.598 71.3072C172.278 70.5818 172.118 69.7498 172.118 68.8112C172.118 67.4458 172.48 66.2298 173.206 65.1632C173.952 64.0965 174.966 63.2645 176.246 62.6672C177.547 62.0698 179.03 61.7712 180.694 61.7712C182.422 61.7712 183.958 62.0912 185.302 62.7312C186.646 63.3712 187.734 64.2778 188.566 65.4512C189.398 66.6032 189.856 67.9792 189.942 69.5792H185.014C184.971 68.7685 184.758 68.0645 184.374 67.4672C184.011 66.8485 183.52 66.3792 182.902 66.0592C182.283 65.7178 181.568 65.5472 180.758 65.5472C179.968 65.5472 179.296 65.6858 178.742 65.9632C178.208 66.2192 177.792 66.5712 177.494 67.0192C177.195 67.4458 177.046 67.9365 177.046 68.4912C177.046 69.0032 177.184 69.4298 177.462 69.7712C177.76 70.1125 178.144 70.3898 178.614 70.6032C179.083 70.7952 179.595 70.9445 180.15 71.0512L184.086 71.8512C186.112 72.2565 187.648 72.9498 188.694 73.9312C189.76 74.8912 190.294 76.2138 190.294 77.8992ZM211.9 85.0352L205.884 69.7712V85.0352H201.468V62.0592H207.292L213.948 79.0832L220.636 62.0592H226.46V85.0352H222.044V69.6432L215.964 85.0352H211.9ZM242.006 85.5152C240.342 85.5152 238.795 85.2165 237.366 84.6192C235.958 84.0218 234.72 83.1898 233.654 82.1232C232.587 81.0352 231.755 79.7658 231.158 78.3152C230.56 76.8432 230.262 75.2432 230.262 73.5152C230.262 71.7872 230.56 70.1978 231.158 68.7472C231.755 67.2965 232.587 66.0378 233.654 64.9712C234.72 63.9045 235.958 63.0725 237.366 62.4752C238.795 61.8778 240.342 61.5792 242.006 61.5792C243.67 61.5792 245.216 61.8778 246.646 62.4752C248.075 63.0725 249.323 63.9045 250.39 64.9712C251.478 66.0378 252.32 67.2965 252.918 68.7472C253.515 70.1978 253.814 71.7872 253.814 73.5152C253.814 75.2432 253.515 76.8432 252.918 78.3152C252.32 79.7658 251.478 81.0352 250.39 82.1232C249.323 83.1898 248.075 84.0218 246.646 84.6192C245.216 85.2165 243.67 85.5152 242.006 85.5152ZM242.006 81.1632C243.051 81.1632 243.99 80.9712 244.822 80.5872C245.675 80.1818 246.39 79.6272 246.966 78.9232C247.563 78.2192 248.011 77.4085 248.31 76.4912C248.63 75.5525 248.79 74.5605 248.79 73.5152C248.79 72.4698 248.63 71.4885 248.31 70.5712C248.011 69.6538 247.563 68.8538 246.966 68.1712C246.39 67.4672 245.675 66.9232 244.822 66.5392C243.99 66.1338 243.051 65.9312 242.006 65.9312C240.96 65.9312 240.022 66.1338 239.19 66.5392C238.358 66.9232 237.643 67.4672 237.046 68.1712C236.47 68.8538 236.022 69.6538 235.702 70.5712C235.403 71.4885 235.254 72.4698 235.254 73.5152C235.254 74.5605 235.403 75.5525 235.702 76.4912C236.022 77.4085 236.47 78.2192 237.046 78.9232C237.643 79.6272 238.358 80.1818 239.19 80.5872C240.022 80.9712 240.96 81.1632 242.006 81.1632ZM272.594 85.0352L262.066 69.0032V85.0352H257.618V62.0592H262.866L272.882 77.2912V62.0592H277.362V85.0352H272.594ZM297.993 80.8112V85.0352H282.537V62.0592H297.769V66.2832H287.401V71.1152H296.809V75.3072H287.401V80.8112H297.993ZM313.021 76.3952V85.0352H308.157V76.3952L300.029 62.0592H305.277L310.749 71.9472L316.317 62.0592H321.213L313.021 76.3952ZM348.539 78.2832C348.539 80.3952 347.803 82.0485 346.331 83.2432C344.881 84.4378 342.886 85.0352 340.347 85.0352H331.355V62.0592H339.995C342.406 62.0592 344.305 62.5925 345.691 63.6592C347.099 64.7045 347.803 66.2085 347.803 68.1712C347.803 69.2165 347.515 70.1552 346.939 70.9872C346.385 71.8192 345.595 72.5018 344.571 73.0352C345.851 73.4832 346.833 74.1552 347.515 75.0512C348.198 75.9258 348.539 77.0032 348.539 78.2832ZM339.611 65.8992H335.771V71.2432H339.611C340.806 71.2432 341.702 71.0085 342.299 70.5392C342.897 70.0485 343.195 69.3872 343.195 68.5552C343.195 67.7445 342.897 67.1045 342.299 66.6352C341.702 66.1445 340.806 65.8992 339.611 65.8992ZM339.963 75.1152H335.771V81.1952H339.963C341.286 81.1952 342.278 80.9178 342.939 80.3632C343.622 79.8085 343.963 79.0512 343.963 78.0912C343.963 77.1738 343.622 76.4485 342.939 75.9152C342.278 75.3818 341.286 75.1152 339.963 75.1152ZM356.121 76.2352H366.297L367.577 80.1072H354.713L356.121 76.2352ZM367.353 85.0352L361.209 67.3712L354.937 85.0352H350.041L358.681 62.0592H363.993L372.569 85.0352H367.353ZM384.65 85.5152C383.05 85.5152 381.546 85.2165 380.138 84.6192C378.73 84.0005 377.504 83.1472 376.458 82.0592C375.413 80.9498 374.592 79.6698 373.994 78.2192C373.418 76.7685 373.13 75.2005 373.13 73.5152C373.13 71.8298 373.418 70.2725 373.994 68.8432C374.592 67.3925 375.413 66.1232 376.458 65.0352C377.504 63.9472 378.73 63.1045 380.138 62.5072C381.546 61.8885 383.05 61.5792 384.65 61.5792C386.677 61.5792 388.512 61.9952 390.154 62.8272C391.818 63.6592 393.184 64.8218 394.25 66.3152C395.317 67.8085 395.978 69.5365 396.234 71.4992H391.082C390.912 70.3898 390.517 69.4192 389.898 68.5872C389.301 67.7552 388.554 67.1045 387.658 66.6352C386.784 66.1658 385.802 65.9312 384.714 65.9312C383.712 65.9312 382.805 66.1125 381.994 66.4752C381.205 66.8378 380.512 67.3605 379.914 68.0432C379.338 68.7258 378.89 69.5365 378.57 70.4752C378.272 71.3925 378.122 72.4058 378.122 73.5152C378.122 74.6458 378.272 75.6805 378.57 76.6192C378.89 77.5365 379.338 78.3365 379.914 79.0192C380.512 79.7018 381.205 80.2352 381.994 80.6192C382.805 80.9818 383.712 81.1632 384.714 81.1632C385.802 81.1632 386.794 80.9285 387.69 80.4592C388.586 79.9685 389.322 79.3072 389.898 78.4752C390.496 77.6218 390.89 76.6512 391.082 75.5632H396.234C395.957 77.5472 395.285 79.2858 394.218 80.7792C393.152 82.2725 391.797 83.4352 390.154 84.2672C388.512 85.0992 386.677 85.5152 384.65 85.5152ZM404.944 85.0352H400.08V62.0592H404.944V72.1712L413.296 62.0592H418.864L409.744 73.0672L419.12 85.0352H413.136L404.944 74.5392V85.0352ZM439.914 85.5152C438.25 85.5152 436.693 85.2272 435.242 84.6512C433.813 84.0538 432.554 83.2218 431.466 82.1552C430.399 81.0885 429.567 79.8192 428.97 78.3472C428.373 76.8538 428.074 75.2218 428.074 73.4512C428.074 71.7445 428.362 70.1765 428.938 68.7472C429.514 67.3178 430.325 66.0592 431.37 64.9712C432.415 63.8832 433.642 63.0512 435.05 62.4752C436.479 61.8778 438.037 61.5792 439.722 61.5792C441.663 61.5792 443.402 61.9418 444.938 62.6672C446.495 63.3712 447.797 64.3525 448.842 65.6112C449.909 66.8698 450.698 68.3418 451.21 70.0272H445.482C445.247 69.2378 444.863 68.5445 444.33 67.9472C443.797 67.3285 443.135 66.8378 442.346 66.4752C441.557 66.1125 440.639 65.9312 439.594 65.9312C438.357 65.9312 437.237 66.2298 436.234 66.8272C435.253 67.4032 434.474 68.2672 433.898 69.4192C433.343 70.5498 433.066 71.9365 433.066 73.5792C433.066 75.0512 433.333 76.3738 433.866 77.5472C434.399 78.7205 435.189 79.6592 436.234 80.3632C437.301 81.0458 438.602 81.3872 440.138 81.3872C441.269 81.3872 442.25 81.1845 443.082 80.7792C443.935 80.3525 444.629 79.7765 445.162 79.0512C445.717 78.3045 446.101 77.4618 446.314 76.5232H439.658V72.6512H451.498C451.583 74.5285 451.37 76.2565 450.858 77.8352C450.346 79.3925 449.578 80.7472 448.554 81.8992C447.551 83.0512 446.314 83.9472 444.842 84.5872C443.391 85.2058 441.749 85.5152 439.914 85.5152ZM474.185 62.0592V76.2992C474.185 78.1125 473.811 79.7125 473.065 81.0992C472.339 82.4858 471.273 83.5738 469.865 84.3632C468.457 85.1312 466.75 85.5152 464.745 85.5152C462.718 85.5152 461.001 85.1312 459.593 84.3632C458.185 83.5738 457.107 82.4858 456.361 81.0992C455.635 79.7125 455.273 78.1125 455.273 76.2992V62.0592H460.137V76.3952C460.137 77.3338 460.297 78.1658 460.617 78.8912C460.937 79.6165 461.427 80.1818 462.089 80.5872C462.771 80.9712 463.657 81.1632 464.745 81.1632C465.811 81.1632 466.675 80.9712 467.337 80.5872C468.019 80.1818 468.521 79.6165 468.841 78.8912C469.161 78.1658 469.321 77.3338 469.321 76.3952V62.0592H474.185ZM484.151 85.0352H479.287V62.0592H488.279C491.18 62.0592 493.431 62.7098 495.031 64.0112C496.631 65.2912 497.431 67.1258 497.431 69.5152C497.431 71.0512 496.972 72.4165 496.055 73.6112C495.159 74.7845 493.889 75.6378 492.247 76.1712L498.167 85.0352H492.375L487.191 76.9072H484.151V85.0352ZM484.151 66.0912V72.9072H488.055C489.527 72.9072 490.647 72.6298 491.415 72.0752C492.183 71.4992 492.567 70.6458 492.567 69.5152C492.567 68.3632 492.183 67.5098 491.415 66.9552C490.647 66.3792 489.527 66.0912 488.055 66.0912H484.151ZM505.615 76.2352H515.791L517.071 80.1072H504.207L505.615 76.2352ZM516.847 85.0352L510.703 67.3712L504.431 85.0352H499.535L508.175 62.0592H513.487L522.063 85.0352H516.847ZM540.288 85.0352L529.76 69.0032V85.0352H525.312V62.0592H530.56L540.576 77.2912V62.0592H545.056V85.0352H540.288ZM560.502 85.0352H555.638V66.4432H548.406V62.0592H567.766V66.4432H560.502V85.0352ZM586.574 80.8112V85.0352H571.118V62.0592H586.35V66.2832H575.982V71.1152H585.39V75.3072H575.982V80.8112H586.574ZM606.243 80.8112V85.0352H590.787V62.0592H606.019V66.2832H595.651V71.1152H605.059V75.3072H595.651V80.8112H606.243Z" fill="white"/>
<path opacity="0.6" d="M69.672 137.395C68.424 137.395 67.264 137.171 66.192 136.723C65.136 136.275 64.208 135.651 63.408 134.851C62.608 134.051 61.984 133.107 61.536 132.019C61.088 130.915 60.864 129.707 60.864 128.395C60.864 127.115 61.08 125.939 61.512 124.867C61.944 123.779 62.544 122.827 63.312 122.011C64.096 121.195 65.016 120.563 66.072 120.115C67.128 119.667 68.28 119.443 69.528 119.443C71.016 119.443 72.328 119.723 73.464 120.283C74.616 120.827 75.576 121.571 76.344 122.515C77.112 123.459 77.672 124.531 78.024 125.731H74.952C74.744 124.995 74.392 124.331 73.896 123.739C73.416 123.147 72.8 122.683 72.048 122.347C71.312 121.995 70.448 121.819 69.456 121.819C68.32 121.819 67.304 122.091 66.408 122.635C65.528 123.179 64.84 123.947 64.344 124.939C63.848 125.915 63.6 127.083 63.6 128.443C63.6 129.707 63.848 130.843 64.344 131.851C64.84 132.859 65.544 133.659 66.456 134.251C67.384 134.843 68.488 135.139 69.768 135.139C70.824 135.139 71.744 134.939 72.528 134.539C73.328 134.123 73.976 133.547 74.472 132.811C74.968 132.059 75.296 131.195 75.456 130.219H69.504V128.107H78.24C78.272 129.483 78.088 130.739 77.688 131.875C77.288 133.011 76.712 133.995 75.96 134.827C75.208 135.659 74.296 136.299 73.224 136.747C72.168 137.179 70.984 137.395 69.672 137.395ZM86.237 137.275C85.005 137.275 83.925 137.003 82.997 136.459C82.085 135.899 81.373 135.115 80.861 134.107C80.349 133.099 80.093 131.931 80.093 130.603C80.093 129.339 80.357 128.219 80.885 127.243C81.413 126.267 82.133 125.499 83.045 124.939C83.957 124.363 84.997 124.075 86.165 124.075C87.125 124.075 87.981 124.259 88.733 124.627C89.501 124.979 90.149 125.483 90.677 126.139C91.221 126.779 91.613 127.539 91.853 128.419C92.093 129.283 92.157 130.235 92.045 131.275H81.509V129.667H89.477C89.429 128.483 89.101 127.563 88.493 126.907C87.901 126.235 87.109 125.899 86.117 125.899C85.397 125.899 84.765 126.091 84.221 126.475C83.693 126.843 83.277 127.379 82.973 128.083C82.685 128.771 82.541 129.611 82.541 130.603C82.541 131.595 82.685 132.451 82.973 133.171C83.261 133.875 83.677 134.419 84.221 134.803C84.765 135.187 85.421 135.379 86.189 135.379C87.101 135.379 87.853 135.147 88.445 134.683C89.053 134.219 89.453 133.571 89.645 132.739H92.045C91.741 134.147 91.069 135.259 90.029 136.075C89.005 136.875 87.741 137.275 86.237 137.275ZM101.951 134.683V136.819C101.583 136.995 101.223 137.115 100.871 137.179C100.535 137.243 100.175 137.275 99.7913 137.275C99.0073 137.275 98.3113 137.131 97.7033 136.843C97.1113 136.555 96.6473 136.107 96.3113 135.499C95.9753 134.891 95.8073 134.123 95.8073 133.195V126.379H92.9993V124.315H95.8073V120.547H98.2313V124.315H102.071V126.379H98.2313V132.643C98.2313 133.523 98.4233 134.139 98.8073 134.491C99.2073 134.843 99.7273 135.019 100.367 135.019C100.655 135.019 100.927 134.995 101.183 134.947C101.455 134.883 101.711 134.795 101.951 134.683ZM117.504 137.035V135.067C117.104 135.771 116.56 136.315 115.872 136.699C115.184 137.083 114.368 137.275 113.424 137.275C112.112 137.275 111.056 136.931 110.256 136.243C109.456 135.539 109.056 134.603 109.056 133.435C109.056 132.187 109.544 131.243 110.52 130.603C111.512 129.963 112.952 129.643 114.84 129.643C115.208 129.643 115.568 129.651 115.92 129.667C116.272 129.683 116.704 129.723 117.216 129.787V128.851C117.216 127.955 116.984 127.259 116.52 126.763C116.056 126.251 115.4 125.995 114.552 125.995C113.672 125.995 112.968 126.251 112.44 126.763C111.928 127.259 111.656 127.947 111.624 128.827H109.416C109.448 127.867 109.68 127.035 110.112 126.331C110.56 125.611 111.16 125.059 111.912 124.675C112.68 124.275 113.56 124.075 114.552 124.075C116.12 124.075 117.336 124.499 118.2 125.347C119.08 126.179 119.52 127.355 119.52 128.875V137.035H117.504ZM111.36 133.363C111.36 134.019 111.592 134.547 112.056 134.947C112.52 135.347 113.136 135.547 113.904 135.547C114.928 135.547 115.736 135.259 116.328 134.683C116.92 134.091 117.216 133.307 117.216 132.331V131.299C116.752 131.251 116.344 131.219 115.992 131.203C115.64 131.171 115.304 131.155 114.984 131.155C113.768 131.155 112.856 131.339 112.248 131.707C111.656 132.059 111.36 132.611 111.36 133.363ZM125.385 129.859V137.035H122.961V124.315H125.217V126.427C125.649 125.723 126.209 125.155 126.897 124.723C127.601 124.291 128.393 124.075 129.273 124.075C130.585 124.075 131.633 124.483 132.417 125.299C133.217 126.115 133.617 127.283 133.617 128.803V137.035H131.193V129.619C131.193 128.531 130.961 127.691 130.497 127.099C130.033 126.507 129.345 126.211 128.433 126.211C127.873 126.211 127.361 126.363 126.897 126.667C126.433 126.955 126.065 127.371 125.793 127.915C125.521 128.459 125.385 129.107 125.385 129.859ZM144.676 137.035H142.252V124.315H144.676V137.035ZM145.204 121.363C145.204 121.811 145.036 122.195 144.7 122.515C144.38 122.819 143.964 122.971 143.452 122.971C142.924 122.971 142.492 122.819 142.156 122.515C141.836 122.195 141.676 121.811 141.676 121.363C141.676 120.883 141.836 120.499 142.156 120.211C142.492 119.907 142.924 119.755 143.452 119.755C143.964 119.755 144.38 119.907 144.7 120.211C145.036 120.499 145.204 120.883 145.204 121.363ZM150.665 129.859V137.035H148.241V124.315H150.497V126.427C150.929 125.723 151.489 125.155 152.177 124.723C152.881 124.291 153.673 124.075 154.553 124.075C155.865 124.075 156.913 124.483 157.697 125.299C158.497 126.115 158.897 127.283 158.897 128.803V137.035H156.473V129.619C156.473 128.531 156.241 127.691 155.777 127.099C155.313 126.507 154.625 126.211 153.713 126.211C153.153 126.211 152.641 126.363 152.177 126.667C151.713 126.955 151.345 127.371 151.073 127.915C150.801 128.459 150.665 129.107 150.665 129.859ZM169.445 134.683V136.819C169.077 136.995 168.717 137.115 168.365 137.179C168.029 137.243 167.669 137.275 167.285 137.275C166.501 137.275 165.805 137.131 165.197 136.843C164.605 136.555 164.141 136.107 163.805 135.499C163.469 134.891 163.301 134.123 163.301 133.195V126.379H160.493V124.315H163.301V120.547H165.725V124.315H169.565V126.379H165.725V132.643C165.725 133.523 165.917 134.139 166.301 134.491C166.701 134.843 167.221 135.019 167.861 135.019C168.149 135.019 168.421 134.995 168.677 134.947C168.949 134.883 169.205 134.795 169.445 134.683ZM176.959 137.275C175.727 137.275 174.647 137.003 173.719 136.459C172.807 135.899 172.095 135.115 171.583 134.107C171.071 133.099 170.815 131.931 170.815 130.603C170.815 129.339 171.079 128.219 171.607 127.243C172.135 126.267 172.855 125.499 173.767 124.939C174.679 124.363 175.719 124.075 176.887 124.075C177.847 124.075 178.703 124.259 179.455 124.627C180.223 124.979 180.871 125.483 181.399 126.139C181.943 126.779 182.335 127.539 182.575 128.419C182.815 129.283 182.879 130.235 182.767 131.275H172.231V129.667H180.199C180.151 128.483 179.823 127.563 179.215 126.907C178.623 126.235 177.831 125.899 176.839 125.899C176.119 125.899 175.487 126.091 174.943 126.475C174.415 126.843 173.999 127.379 173.695 128.083C173.407 128.771 173.263 129.611 173.263 130.603C173.263 131.595 173.407 132.451 173.695 133.171C173.983 133.875 174.399 134.419 174.943 134.803C175.487 135.187 176.143 135.379 176.911 135.379C177.823 135.379 178.575 135.147 179.167 134.683C179.775 134.219 180.175 133.571 180.367 132.739H182.767C182.463 134.147 181.791 135.259 180.751 136.075C179.727 136.875 178.463 137.275 176.959 137.275ZM187.968 130.531V137.035H185.544V124.315H187.8V127.003C188.248 126.123 188.912 125.427 189.792 124.915C190.688 124.403 191.656 124.147 192.696 124.147V126.667C191.784 126.619 190.968 126.723 190.248 126.979C189.544 127.235 188.984 127.659 188.568 128.251C188.168 128.827 187.968 129.587 187.968 130.531ZM205.609 124.315L200.833 137.035H198.193L193.417 124.315H196.033L199.561 134.251L203.137 124.315H205.609ZM209.954 137.035H207.53V124.315H209.954V137.035ZM210.482 121.363C210.482 121.811 210.314 122.195 209.978 122.515C209.658 122.819 209.242 122.971 208.73 122.971C208.202 122.971 207.77 122.819 207.434 122.515C207.114 122.195 206.954 121.811 206.954 121.363C206.954 120.883 207.114 120.499 207.434 120.211C207.77 119.907 208.202 119.755 208.73 119.755C209.242 119.755 209.658 119.907 209.978 120.211C210.314 120.499 210.482 120.883 210.482 121.363ZM218.751 137.275C217.519 137.275 216.439 137.003 215.511 136.459C214.599 135.899 213.887 135.115 213.375 134.107C212.863 133.099 212.607 131.931 212.607 130.603C212.607 129.339 212.871 128.219 213.399 127.243C213.927 126.267 214.647 125.499 215.559 124.939C216.471 124.363 217.511 124.075 218.679 124.075C219.639 124.075 220.495 124.259 221.247 124.627C222.015 124.979 222.663 125.483 223.191 126.139C223.735 126.779 224.127 127.539 224.367 128.419C224.607 129.283 224.671 130.235 224.559 131.275H214.023V129.667H221.991C221.943 128.483 221.615 127.563 221.007 126.907C220.415 126.235 219.623 125.899 218.631 125.899C217.911 125.899 217.279 126.091 216.735 126.475C216.207 126.843 215.791 127.379 215.487 128.083C215.199 128.771 215.055 129.611 215.055 130.603C215.055 131.595 215.199 132.451 215.487 133.171C215.775 133.875 216.191 134.419 216.735 134.803C217.279 135.187 217.935 135.379 218.703 135.379C219.615 135.379 220.367 135.147 220.959 134.683C221.567 134.219 221.967 133.571 222.159 132.739H224.559C224.255 134.147 223.583 135.259 222.543 136.075C221.519 136.875 220.255 137.275 218.751 137.275ZM237.567 137.035L234.687 127.579L231.783 137.035H229.335L225.663 124.315H228.039L230.607 133.579L233.487 124.315H235.887L238.719 133.603L241.287 124.315H243.687L239.991 137.035H237.567ZM261.592 137.035L258.712 127.579L255.808 137.035H253.36L249.688 124.315H252.064L254.632 133.579L257.512 124.315H259.912L262.744 133.603L265.312 124.315H267.712L264.016 137.035H261.592ZM272.313 137.035H269.889V124.315H272.313V137.035ZM272.841 121.363C272.841 121.811 272.673 122.195 272.337 122.515C272.017 122.819 271.601 122.971 271.089 122.971C270.561 122.971 270.129 122.819 269.793 122.515C269.473 122.195 269.313 121.811 269.313 121.363C269.313 120.883 269.473 120.499 269.793 120.211C270.129 119.907 270.561 119.755 271.089 119.755C271.601 119.755 272.017 119.907 272.337 120.211C272.673 120.499 272.841 120.883 272.841 121.363ZM283.054 134.683V136.819C282.686 136.995 282.326 137.115 281.974 137.179C281.638 137.243 281.278 137.275 280.894 137.275C280.11 137.275 279.414 137.131 278.806 136.843C278.214 136.555 277.75 136.107 277.414 135.499C277.078 134.891 276.91 134.123 276.91 133.195V126.379H274.102V124.315H276.91V120.547H279.334V124.315H283.174V126.379H279.334V132.643C279.334 133.523 279.526 134.139 279.91 134.491C280.31 134.843 280.83 135.019 281.47 135.019C281.758 135.019 282.03 134.995 282.286 134.947C282.558 134.883 282.814 134.795 283.054 134.683ZM288.112 129.859V137.035H285.688V119.803H288.112V126.355C288.528 125.667 289.056 125.115 289.696 124.699C290.352 124.283 291.12 124.075 292 124.075C293.312 124.075 294.36 124.483 295.144 125.299C295.944 126.115 296.344 127.283 296.344 128.803V137.035H293.92V129.619C293.92 128.531 293.688 127.691 293.224 127.099C292.76 126.507 292.072 126.211 291.16 126.211C290.6 126.211 290.088 126.363 289.624 126.667C289.16 126.955 288.792 127.371 288.52 127.915C288.248 128.459 288.112 129.107 288.112 129.859ZM302.187 137.035H299.763V124.315H302.187V137.035ZM302.715 121.363C302.715 121.811 302.547 122.195 302.211 122.515C301.891 122.819 301.475 122.971 300.963 122.971C300.435 122.971 300.003 122.819 299.667 122.515C299.347 122.195 299.187 121.811 299.187 121.363C299.187 120.883 299.347 120.499 299.667 120.211C300.003 119.907 300.435 119.755 300.963 119.755C301.475 119.755 301.891 119.907 302.211 120.211C302.547 120.499 302.715 120.883 302.715 121.363ZM308.176 129.859V137.035H305.752V124.315H308.008V126.427C308.44 125.723 309 125.155 309.688 124.723C310.392 124.291 311.184 124.075 312.064 124.075C313.376 124.075 314.424 124.483 315.208 125.299C316.008 126.115 316.408 127.283 316.408 128.803V137.035H313.984V129.619C313.984 128.531 313.752 127.691 313.288 127.099C312.824 126.507 312.136 126.211 311.224 126.211C310.664 126.211 310.152 126.363 309.688 126.667C309.224 126.955 308.856 127.371 308.584 127.915C308.312 128.459 308.176 129.107 308.176 129.859ZM330.178 137.251C329.058 137.251 328.066 137.051 327.202 136.651C326.338 136.235 325.666 135.667 325.186 134.947C324.706 134.211 324.458 133.371 324.442 132.427H326.818C326.866 133.307 327.194 134.011 327.802 134.539C328.41 135.051 329.202 135.307 330.178 135.307C331.202 135.307 332.002 135.051 332.578 134.539C333.17 134.027 333.466 133.331 333.466 132.451C333.466 131.603 333.138 130.931 332.482 130.435C331.826 129.923 330.938 129.667 329.818 129.667H328.138V127.723H329.698C330.306 127.723 330.834 127.611 331.282 127.387C331.746 127.163 332.098 126.851 332.338 126.451C332.594 126.051 332.722 125.595 332.722 125.083C332.722 124.315 332.474 123.699 331.978 123.235C331.482 122.755 330.826 122.515 330.01 122.515C329.178 122.515 328.506 122.763 327.994 123.259C327.498 123.739 327.226 124.395 327.178 125.227H324.826C324.858 124.331 325.098 123.531 325.546 122.827C326.01 122.123 326.642 121.571 327.442 121.171C328.242 120.771 329.13 120.571 330.106 120.571C331.146 120.571 332.05 120.755 332.818 121.123C333.586 121.491 334.178 122.003 334.594 122.659C335.026 123.299 335.242 124.051 335.242 124.915C335.242 125.699 335.01 126.403 334.546 127.027C334.098 127.651 333.458 128.163 332.626 128.563C333.698 128.851 334.522 129.331 335.098 130.003C335.69 130.659 335.986 131.459 335.986 132.403C335.986 133.363 335.738 134.211 335.242 134.947C334.762 135.667 334.082 136.235 333.202 136.651C332.338 137.051 331.33 137.251 330.178 137.251ZM338.52 128.947C338.52 126.259 339.032 124.195 340.056 122.755C341.096 121.299 342.576 120.571 344.496 120.571C346.416 120.571 347.896 121.299 348.936 122.755C349.976 124.195 350.496 126.259 350.496 128.947C350.496 131.635 349.976 133.699 348.936 135.139C347.912 136.563 346.432 137.275 344.496 137.275C342.56 137.275 341.08 136.563 340.056 135.139C339.032 133.699 338.52 131.635 338.52 128.947ZM341.016 128.947C341.016 130.947 341.312 132.475 341.904 133.531C342.496 134.571 343.36 135.091 344.496 135.091C345.632 135.091 346.496 134.571 347.088 133.531C347.696 132.491 348 130.963 348 128.947C348 126.915 347.696 125.379 347.088 124.339C346.496 123.283 345.632 122.755 344.496 122.755C343.376 122.755 342.512 123.283 341.904 124.339C341.312 125.379 341.016 126.915 341.016 128.947ZM357.848 130.675C357.848 129.395 358.08 128.259 358.544 127.267C359.008 126.259 359.664 125.475 360.512 124.915C361.36 124.355 362.352 124.075 363.488 124.075C364.336 124.075 365.112 124.291 365.816 124.723C366.536 125.139 367.12 125.731 367.568 126.499V119.803H369.992V137.035H367.736V134.755C367.288 135.555 366.688 136.179 365.936 136.627C365.2 137.059 364.384 137.275 363.488 137.275C362.352 137.275 361.36 136.995 360.512 136.435C359.664 135.859 359.008 135.075 358.544 134.083C358.08 133.075 357.848 131.939 357.848 130.675ZM360.368 130.675C360.368 132.099 360.704 133.195 361.376 133.963C362.048 134.731 362.912 135.115 363.968 135.115C364.672 135.115 365.288 134.939 365.816 134.587C366.36 134.219 366.784 133.699 367.088 133.027C367.408 132.355 367.568 131.555 367.568 130.627C367.568 129.683 367.408 128.883 367.088 128.227C366.768 127.571 366.336 127.075 365.792 126.739C365.248 126.387 364.64 126.211 363.968 126.211C362.912 126.211 362.048 126.595 361.376 127.363C360.704 128.131 360.368 129.235 360.368 130.675ZM381.265 137.035V135.067C380.865 135.771 380.321 136.315 379.633 136.699C378.945 137.083 378.129 137.275 377.185 137.275C375.873 137.275 374.817 136.931 374.017 136.243C373.217 135.539 372.817 134.603 372.817 133.435C372.817 132.187 373.305 131.243 374.281 130.603C375.273 129.963 376.713 129.643 378.601 129.643C378.969 129.643 379.329 129.651 379.681 129.667C380.033 129.683 380.465 129.723 380.977 129.787V128.851C380.977 127.955 380.745 127.259 380.281 126.763C379.817 126.251 379.161 125.995 378.313 125.995C377.433 125.995 376.729 126.251 376.201 126.763C375.689 127.259 375.417 127.947 375.385 128.827H373.177C373.209 127.867 373.441 127.035 373.873 126.331C374.321 125.611 374.921 125.059 375.673 124.675C376.441 124.275 377.321 124.075 378.313 124.075C379.881 124.075 381.097 124.499 381.961 125.347C382.841 126.179 383.281 127.355 383.281 128.875V137.035H381.265ZM375.121 133.363C375.121 134.019 375.353 134.547 375.817 134.947C376.281 135.347 376.897 135.547 377.665 135.547C378.689 135.547 379.497 135.259 380.089 134.683C380.681 134.091 380.977 133.307 380.977 132.331V131.299C380.513 131.251 380.105 131.219 379.753 131.203C379.401 131.171 379.065 131.155 378.745 131.155C377.529 131.155 376.617 131.339 376.009 131.707C375.417 132.059 375.121 132.611 375.121 133.363ZM396.884 124.315L390.524 141.667H387.884L389.708 136.867L384.692 124.315H387.308L391.004 134.011L394.436 124.315H396.884ZM408.604 133.243C408.604 134.491 408.14 135.475 407.212 136.195C406.284 136.915 404.972 137.275 403.276 137.275C401.612 137.275 400.292 136.883 399.316 136.099C398.356 135.315 397.812 134.243 397.684 132.883H400.012C400.044 133.683 400.356 134.315 400.948 134.779C401.556 135.227 402.348 135.451 403.324 135.451C404.172 135.451 404.852 135.299 405.364 134.995C405.892 134.691 406.156 134.243 406.156 133.651C406.156 133.123 405.98 132.723 405.628 132.451C405.292 132.179 404.724 131.971 403.924 131.827L401.86 131.443C400.692 131.219 399.788 130.811 399.148 130.219C398.508 129.611 398.188 128.827 398.188 127.867C398.188 127.115 398.388 126.459 398.788 125.899C399.204 125.323 399.78 124.875 400.516 124.555C401.252 124.235 402.108 124.075 403.084 124.075C404.108 124.075 405.004 124.251 405.772 124.603C406.54 124.939 407.156 125.427 407.62 126.067C408.084 126.691 408.348 127.443 408.412 128.323H406.084C406.004 127.571 405.7 126.979 405.172 126.547C404.644 126.115 403.956 125.899 403.108 125.899C402.34 125.899 401.716 126.059 401.236 126.379C400.772 126.683 400.54 127.107 400.54 127.651C400.54 128.163 400.708 128.555 401.044 128.827C401.396 129.083 401.956 129.291 402.724 129.451L404.884 129.859C406.148 130.083 407.084 130.475 407.692 131.035C408.3 131.595 408.604 132.331 408.604 133.243ZM421.994 137.275C421.098 137.275 420.266 137.115 419.498 136.795C418.746 136.459 418.09 135.995 417.53 135.403C416.97 134.795 416.53 134.091 416.21 133.291C415.906 132.491 415.754 131.619 415.754 130.675C415.754 129.731 415.906 128.859 416.21 128.059C416.53 127.259 416.97 126.563 417.53 125.971C418.09 125.363 418.746 124.899 419.498 124.579C420.266 124.243 421.098 124.075 421.994 124.075C422.906 124.075 423.738 124.243 424.49 124.579C425.258 124.899 425.914 125.363 426.458 125.971C427.018 126.563 427.45 127.259 427.754 128.059C428.074 128.859 428.234 129.731 428.234 130.675C428.234 131.619 428.074 132.491 427.754 133.291C427.45 134.091 427.018 134.795 426.458 135.403C425.914 135.995 425.258 136.459 424.49 136.795C423.738 137.115 422.906 137.275 421.994 137.275ZM421.994 135.139C422.698 135.139 423.33 134.963 423.89 134.611C424.466 134.243 424.914 133.723 425.234 133.051C425.57 132.379 425.738 131.587 425.738 130.675C425.738 129.747 425.57 128.955 425.234 128.299C424.914 127.627 424.466 127.115 423.89 126.763C423.33 126.411 422.698 126.235 421.994 126.235C421.306 126.235 420.674 126.411 420.098 126.763C419.538 127.115 419.09 127.627 418.754 128.299C418.434 128.955 418.274 129.747 418.274 130.675C418.274 131.587 418.434 132.379 418.754 133.051C419.09 133.723 419.538 134.243 420.098 134.611C420.674 134.963 421.306 135.139 421.994 135.139ZM433.329 130.531V137.035H430.905V124.315H433.161V127.003C433.609 126.123 434.273 125.427 435.153 124.915C436.049 124.403 437.017 124.147 438.057 124.147V126.667C437.145 126.619 436.329 126.723 435.609 126.979C434.905 127.235 434.345 127.659 433.929 128.251C433.529 128.827 433.329 129.587 433.329 130.531ZM455.951 124.315L449.591 141.667H446.951L448.775 136.867L443.759 124.315H446.375L450.071 134.011L453.503 124.315H455.951ZM462.802 137.275C461.906 137.275 461.074 137.115 460.306 136.795C459.554 136.459 458.898 135.995 458.338 135.403C457.778 134.795 457.338 134.091 457.018 133.291C456.714 132.491 456.562 131.619 456.562 130.675C456.562 129.731 456.714 128.859 457.018 128.059C457.338 127.259 457.778 126.563 458.338 125.971C458.898 125.363 459.554 124.899 460.306 124.579C461.074 124.243 461.906 124.075 462.802 124.075C463.714 124.075 464.546 124.243 465.298 124.579C466.066 124.899 466.722 125.363 467.266 125.971C467.826 126.563 468.258 127.259 468.562 128.059C468.882 128.859 469.042 129.731 469.042 130.675C469.042 131.619 468.882 132.491 468.562 133.291C468.258 134.091 467.826 134.795 467.266 135.403C466.722 135.995 466.066 136.459 465.298 136.795C464.546 137.115 463.714 137.275 462.802 137.275ZM462.802 135.139C463.506 135.139 464.138 134.963 464.698 134.611C465.274 134.243 465.722 133.723 466.042 133.051C466.378 132.379 466.546 131.587 466.546 130.675C466.546 129.747 466.378 128.955 466.042 128.299C465.722 127.627 465.274 127.115 464.698 126.763C464.138 126.411 463.506 126.235 462.802 126.235C462.114 126.235 461.482 126.411 460.906 126.763C460.346 127.115 459.898 127.627 459.562 128.299C459.242 128.955 459.082 129.747 459.082 130.675C459.082 131.587 459.242 132.379 459.562 133.051C459.898 133.723 460.346 134.243 460.906 134.611C461.482 134.963 462.114 135.139 462.802 135.139ZM479.657 131.803V124.315H482.081V137.035H479.825V135.043C479.505 135.683 478.993 136.219 478.289 136.651C477.585 137.067 476.801 137.275 475.937 137.275C475.089 137.275 474.329 137.107 473.657 136.771C473.001 136.435 472.489 135.915 472.121 135.211C471.769 134.491 471.593 133.587 471.593 132.499V124.315H474.017V132.019C474.017 133.123 474.265 133.923 474.761 134.419C475.257 134.899 475.905 135.139 476.705 135.139C477.249 135.139 477.745 135.003 478.193 134.731C478.641 134.443 478.993 134.051 479.249 133.555C479.521 133.043 479.657 132.459 479.657 131.803ZM488.071 130.531V137.035H485.647V124.315H487.903V127.003C488.351 126.123 489.015 125.427 489.895 124.915C490.791 124.403 491.759 124.147 492.799 124.147V126.667C491.887 126.619 491.071 126.723 490.351 126.979C489.647 127.235 489.087 127.659 488.671 128.251C488.271 128.827 488.071 129.587 488.071 130.531ZM502.557 137.035H500.133V124.315H502.389V126.427C502.821 125.691 503.373 125.115 504.045 124.699C504.717 124.283 505.493 124.075 506.373 124.075C507.301 124.075 508.101 124.307 508.773 124.771C509.461 125.219 509.949 125.867 510.237 126.715C510.685 125.899 511.269 125.259 511.989 124.795C512.709 124.315 513.557 124.075 514.533 124.075C515.845 124.075 516.885 124.491 517.653 125.323C518.437 126.139 518.829 127.299 518.829 128.803V137.035H516.405V129.571C516.405 128.499 516.173 127.675 515.709 127.099C515.245 126.507 514.573 126.211 513.693 126.211C513.149 126.211 512.645 126.363 512.181 126.667C511.733 126.955 511.373 127.363 511.101 127.891C510.829 128.419 510.693 129.035 510.693 129.739V137.035H508.269V129.571C508.269 128.499 508.037 127.675 507.573 127.099C507.125 126.507 506.453 126.211 505.557 126.211C504.997 126.211 504.485 126.363 504.021 126.667C503.573 126.955 503.213 127.363 502.941 127.891C502.685 128.419 502.557 129.035 502.557 129.739V137.035ZM527.599 137.275C526.703 137.275 525.871 137.115 525.103 136.795C524.351 136.459 523.695 135.995 523.135 135.403C522.575 134.795 522.135 134.091 521.815 133.291C521.511 132.491 521.359 131.619 521.359 130.675C521.359 129.731 521.511 128.859 521.815 128.059C522.135 127.259 522.575 126.563 523.135 125.971C523.695 125.363 524.351 124.899 525.103 124.579C525.871 124.243 526.703 124.075 527.599 124.075C528.511 124.075 529.343 124.243 530.095 124.579C530.863 124.899 531.519 125.363 532.063 125.971C532.623 126.563 533.055 127.259 533.359 128.059C533.679 128.859 533.839 129.731 533.839 130.675C533.839 131.619 533.679 132.491 533.359 133.291C533.055 134.091 532.623 134.795 532.063 135.403C531.519 135.995 530.863 136.459 530.095 136.795C529.343 137.115 528.511 137.275 527.599 137.275ZM527.599 135.139C528.303 135.139 528.935 134.963 529.495 134.611C530.071 134.243 530.519 133.723 530.839 133.051C531.175 132.379 531.343 131.587 531.343 130.675C531.343 129.747 531.175 128.955 530.839 128.299C530.519 127.627 530.071 127.115 529.495 126.763C528.935 126.411 528.303 126.235 527.599 126.235C526.911 126.235 526.279 126.411 525.703 126.763C525.143 127.115 524.695 127.627 524.359 128.299C524.039 128.955 523.879 129.747 523.879 130.675C523.879 131.587 524.039 132.379 524.359 133.051C524.695 133.723 525.143 134.243 525.703 134.611C526.279 134.963 526.911 135.139 527.599 135.139ZM538.934 129.859V137.035H536.51V124.315H538.766V126.427C539.198 125.723 539.758 125.155 540.446 124.723C541.15 124.291 541.942 124.075 542.822 124.075C544.134 124.075 545.182 124.483 545.966 125.299C546.766 126.115 547.166 127.283 547.166 128.803V137.035H544.742V129.619C544.742 128.531 544.51 127.691 544.046 127.099C543.582 126.507 542.894 126.211 541.982 126.211C541.422 126.211 540.91 126.363 540.446 126.667C539.982 126.955 539.614 127.371 539.342 127.915C539.07 128.459 538.934 129.107 538.934 129.859ZM555.817 137.275C554.585 137.275 553.505 137.003 552.577 136.459C551.665 135.899 550.953 135.115 550.441 134.107C549.929 133.099 549.673 131.931 549.673 130.603C549.673 129.339 549.937 128.219 550.465 127.243C550.993 126.267 551.713 125.499 552.625 124.939C553.537 124.363 554.577 124.075 555.745 124.075C556.705 124.075 557.561 124.259 558.313 124.627C559.081 124.979 559.729 125.483 560.257 126.139C560.801 126.779 561.193 127.539 561.433 128.419C561.673 129.283 561.737 130.235 561.625 131.275H551.089V129.667H559.057C559.009 128.483 558.681 127.563 558.073 126.907C557.481 126.235 556.689 125.899 555.697 125.899C554.977 125.899 554.345 126.091 553.801 126.475C553.273 126.843 552.857 127.379 552.553 128.083C552.265 128.771 552.121 129.611 552.121 130.603C552.121 131.595 552.265 132.451 552.553 133.171C552.841 133.875 553.257 134.419 553.801 134.803C554.345 135.187 555.001 135.379 555.769 135.379C556.681 135.379 557.433 135.147 558.025 134.683C558.633 134.219 559.033 133.571 559.225 132.739H561.625C561.321 134.147 560.649 135.259 559.609 136.075C558.585 136.875 557.321 137.275 555.817 137.275ZM574.563 124.315L568.203 141.667H565.563L567.387 136.867L562.371 124.315H564.987L568.683 134.011L572.115 124.315H574.563ZM593.844 130.675C593.844 131.939 593.612 133.075 593.148 134.083C592.684 135.075 592.028 135.859 591.18 136.435C590.348 136.995 589.356 137.275 588.204 137.275C587.308 137.275 586.492 137.059 585.756 136.627C585.02 136.179 584.42 135.555 583.956 134.755V137.035H581.7V119.803H584.124V126.499C584.572 125.715 585.148 125.115 585.852 124.699C586.556 124.283 587.34 124.075 588.204 124.075C589.356 124.075 590.348 124.355 591.18 124.915C592.012 125.475 592.66 126.259 593.124 127.267C593.604 128.259 593.844 129.395 593.844 130.675ZM591.324 130.675C591.324 129.235 590.98 128.131 590.292 127.363C589.62 126.595 588.764 126.211 587.724 126.211C587.052 126.211 586.444 126.387 585.9 126.739C585.356 127.075 584.924 127.571 584.604 128.227C584.284 128.883 584.124 129.683 584.124 130.627C584.124 131.555 584.276 132.355 584.58 133.027C584.9 133.699 585.332 134.219 585.876 134.587C586.42 134.939 587.036 135.115 587.724 135.115C588.764 135.115 589.62 134.731 590.292 133.963C590.98 133.195 591.324 132.099 591.324 130.675ZM604.206 137.035V135.067C603.806 135.771 603.262 136.315 602.574 136.699C601.886 137.083 601.07 137.275 600.126 137.275C598.814 137.275 597.758 136.931 596.958 136.243C596.158 135.539 595.758 134.603 595.758 133.435C595.758 132.187 596.246 131.243 597.222 130.603C598.214 129.963 599.654 129.643 601.542 129.643C601.91 129.643 602.27 129.651 602.622 129.667C602.974 129.683 603.406 129.723 603.918 129.787V128.851C603.918 127.955 603.686 127.259 603.222 126.763C602.758 126.251 602.102 125.995 601.254 125.995C600.374 125.995 599.67 126.251 599.142 126.763C598.63 127.259 598.358 127.947 598.326 128.827H596.118C596.15 127.867 596.382 127.035 596.814 126.331C597.262 125.611 597.862 125.059 598.614 124.675C599.382 124.275 600.262 124.075 601.254 124.075C602.822 124.075 604.038 124.499 604.902 125.347C605.782 126.179 606.222 127.355 606.222 128.875V137.035H604.206ZM598.062 133.363C598.062 134.019 598.294 134.547 598.758 134.947C599.222 135.347 599.838 135.547 600.606 135.547C601.63 135.547 602.438 135.259 603.03 134.683C603.622 134.091 603.918 133.307 603.918 132.331V131.299C603.454 131.251 603.046 131.219 602.694 131.203C602.342 131.171 602.006 131.155 601.686 131.155C600.47 131.155 599.558 131.339 598.95 131.707C598.358 132.059 598.062 132.611 598.062 133.363ZM614.679 137.299C613.511 137.299 612.479 137.019 611.583 136.459C610.703 135.899 610.007 135.123 609.495 134.131C608.999 133.123 608.751 131.971 608.751 130.675C608.751 129.395 609.007 128.259 609.519 127.267C610.031 126.275 610.735 125.499 611.631 124.939C612.527 124.363 613.543 124.075 614.679 124.075C615.735 124.075 616.671 124.299 617.487 124.747C618.319 125.179 618.999 125.803 619.527 126.619C620.071 127.419 620.415 128.371 620.559 129.475H618.015C617.887 128.451 617.527 127.651 616.935 127.075C616.343 126.499 615.599 126.211 614.703 126.211C613.999 126.211 613.391 126.403 612.879 126.787C612.367 127.155 611.967 127.667 611.679 128.323C611.391 128.979 611.247 129.763 611.247 130.675C611.247 131.571 611.391 132.355 611.679 133.027C611.967 133.699 612.367 134.219 612.879 134.587C613.391 134.955 613.999 135.139 614.703 135.139C615.615 135.139 616.359 134.851 616.935 134.275C617.527 133.699 617.895 132.899 618.039 131.875H620.559C620.431 132.995 620.103 133.963 619.575 134.779C619.047 135.579 618.367 136.203 617.535 136.651C616.703 137.083 615.751 137.299 614.679 137.299ZM625.623 137.035H623.199V119.803H625.623V130.003L631.071 124.315H633.927L628.047 130.483L634.479 137.035H631.359L625.623 131.011V137.035ZM651.262 131.467H634.222V129.355H651.262V131.467ZM659.062 141.931C657.958 141.931 656.99 141.739 656.158 141.355C655.326 140.987 654.67 140.451 654.19 139.747C653.726 139.043 653.47 138.219 653.422 137.275H655.774C655.854 138.155 656.166 138.827 656.71 139.291C657.27 139.771 658.046 140.011 659.038 140.011C660.142 140.011 660.974 139.723 661.534 139.147C662.094 138.587 662.374 137.755 662.374 136.651V134.347C662.006 135.099 661.478 135.691 660.79 136.123C660.118 136.555 659.35 136.771 658.486 136.771C657.43 136.771 656.494 136.499 655.678 135.955C654.862 135.411 654.222 134.659 653.758 133.699C653.294 132.739 653.062 131.643 653.062 130.411C653.062 129.147 653.286 128.043 653.734 127.099C654.182 126.139 654.806 125.395 655.606 124.867C656.422 124.339 657.358 124.075 658.414 124.075C659.326 124.075 660.134 124.291 660.838 124.723C661.542 125.155 662.11 125.771 662.542 126.571V124.315H664.798V136.603C664.798 138.283 664.294 139.587 663.286 140.515C662.278 141.459 660.87 141.931 659.062 141.931ZM655.51 130.411C655.51 131.723 655.814 132.763 656.422 133.531C657.03 134.283 657.862 134.659 658.918 134.659C659.606 134.659 660.206 134.491 660.718 134.155C661.246 133.803 661.654 133.315 661.942 132.691C662.23 132.051 662.374 131.315 662.374 130.483C662.374 129.171 662.062 128.123 661.438 127.339C660.814 126.555 659.974 126.163 658.918 126.163C657.878 126.163 657.046 126.547 656.422 127.315C655.814 128.067 655.51 129.099 655.51 130.411ZM676.297 131.803V124.315H678.721V137.035H676.465V135.043C676.145 135.683 675.633 136.219 674.929 136.651C674.225 137.067 673.441 137.275 672.577 137.275C671.729 137.275 670.969 137.107 670.297 136.771C669.641 136.435 669.129 135.915 668.761 135.211C668.409 134.491 668.233 133.587 668.233 132.499V124.315H670.657V132.019C670.657 133.123 670.905 133.923 671.401 134.419C671.897 134.899 672.545 135.139 673.345 135.139C673.889 135.139 674.385 135.003 674.833 134.731C675.281 134.443 675.633 134.051 675.889 133.555C676.161 133.043 676.297 132.459 676.297 131.803ZM689.992 137.035V135.067C689.592 135.771 689.048 136.315 688.36 136.699C687.672 137.083 686.856 137.275 685.912 137.275C684.6 137.275 683.544 136.931 682.744 136.243C681.944 135.539 681.544 134.603 681.544 133.435C681.544 132.187 682.032 131.243 683.008 130.603C684 129.963 685.44 129.643 687.328 129.643C687.696 129.643 688.056 129.651 688.408 129.667C688.76 129.683 689.192 129.723 689.704 129.787V128.851C689.704 127.955 689.472 127.259 689.008 126.763C688.544 126.251 687.888 125.995 687.04 125.995C686.16 125.995 685.456 126.251 684.928 126.763C684.416 127.259 684.144 127.947 684.112 128.827H681.904C681.936 127.867 682.168 127.035 682.6 126.331C683.048 125.611 683.648 125.059 684.4 124.675C685.168 124.275 686.048 124.075 687.04 124.075C688.608 124.075 689.824 124.499 690.688 125.347C691.568 126.179 692.008 127.355 692.008 128.875V137.035H689.992ZM683.848 133.363C683.848 134.019 684.08 134.547 684.544 134.947C685.008 135.347 685.624 135.547 686.392 135.547C687.416 135.547 688.224 135.259 688.816 134.683C689.408 134.091 689.704 133.307 689.704 132.331V131.299C689.24 131.251 688.832 131.219 688.48 131.203C688.128 131.171 687.792 131.155 687.472 131.155C686.256 131.155 685.344 131.339 684.736 131.707C684.144 132.059 683.848 132.611 683.848 133.363ZM697.873 130.531V137.035H695.449V124.315H697.705V127.003C698.153 126.123 698.817 125.427 699.697 124.915C700.593 124.403 701.561 124.147 702.601 124.147V126.667C701.689 126.619 700.873 126.723 700.153 126.979C699.449 127.235 698.889 127.659 698.473 128.251C698.073 128.827 697.873 129.587 697.873 130.531ZM712.423 137.035V135.067C712.023 135.771 711.479 136.315 710.791 136.699C710.103 137.083 709.287 137.275 708.343 137.275C707.031 137.275 705.975 136.931 705.175 136.243C704.375 135.539 703.975 134.603 703.975 133.435C703.975 132.187 704.463 131.243 705.439 130.603C706.431 129.963 707.871 129.643 709.759 129.643C710.127 129.643 710.487 129.651 710.839 129.667C711.191 129.683 711.623 129.723 712.135 129.787V128.851C712.135 127.955 711.903 127.259 711.439 126.763C710.975 126.251 710.319 125.995 709.471 125.995C708.591 125.995 707.887 126.251 707.359 126.763C706.847 127.259 706.575 127.947 706.543 128.827H704.335C704.367 127.867 704.599 127.035 705.031 126.331C705.479 125.611 706.079 125.059 706.831 124.675C707.599 124.275 708.479 124.075 709.471 124.075C711.039 124.075 712.255 124.499 713.119 125.347C713.999 126.179 714.439 127.355 714.439 128.875V137.035H712.423ZM706.279 133.363C706.279 134.019 706.511 134.547 706.975 134.947C707.439 135.347 708.055 135.547 708.823 135.547C709.847 135.547 710.655 135.259 711.247 134.683C711.839 134.091 712.135 133.307 712.135 132.331V131.299C711.671 131.251 711.263 131.219 710.911 131.203C710.559 131.171 710.223 131.155 709.903 131.155C708.687 131.155 707.775 131.339 707.167 131.707C706.575 132.059 706.279 132.611 706.279 133.363ZM720.304 129.859V137.035H717.88V124.315H720.136V126.427C720.568 125.723 721.128 125.155 721.816 124.723C722.52 124.291 723.312 124.075 724.192 124.075C725.504 124.075 726.552 124.483 727.336 125.299C728.136 126.115 728.536 127.283 728.536 128.803V137.035H726.112V129.619C726.112 128.531 725.88 127.691 725.416 127.099C724.952 126.507 724.264 126.211 723.352 126.211C722.792 126.211 722.28 126.363 721.816 126.667C721.352 126.955 720.984 127.371 720.712 127.915C720.44 128.459 720.304 129.107 720.304 129.859ZM739.084 134.683V136.819C738.716 136.995 738.356 137.115 738.004 137.179C737.668 137.243 737.308 137.275 736.924 137.275C736.14 137.275 735.444 137.131 734.836 136.843C734.244 136.555 733.78 136.107 733.444 135.499C733.108 134.891 732.94 134.123 732.94 133.195V126.379H730.132V124.315H732.94V120.547H735.364V124.315H739.204V126.379H735.364V132.643C735.364 133.523 735.556 134.139 735.94 134.491C736.34 134.843 736.86 135.019 737.5 135.019C737.788 135.019 738.06 134.995 738.316 134.947C738.588 134.883 738.844 134.795 739.084 134.683ZM746.598 137.275C745.366 137.275 744.286 137.003 743.358 136.459C742.446 135.899 741.734 135.115 741.222 134.107C740.71 133.099 740.454 131.931 740.454 130.603C740.454 129.339 740.718 128.219 741.246 127.243C741.774 126.267 742.494 125.499 743.406 124.939C744.318 124.363 745.358 124.075 746.526 124.075C747.486 124.075 748.342 124.259 749.094 124.627C749.862 124.979 750.51 125.483 751.038 126.139C751.582 126.779 751.974 127.539 752.214 128.419C752.454 129.283 752.518 130.235 752.406 131.275H741.87V129.667H749.838C749.79 128.483 749.462 127.563 748.854 126.907C748.262 126.235 747.47 125.899 746.478 125.899C745.758 125.899 745.126 126.091 744.582 126.475C744.054 126.843 743.638 127.379 743.334 128.083C743.046 128.771 742.902 129.611 742.902 130.603C742.902 131.595 743.046 132.451 743.334 133.171C743.622 133.875 744.038 134.419 744.582 134.803C745.126 135.187 745.782 135.379 746.55 135.379C747.462 135.379 748.214 135.147 748.806 134.683C749.414 134.219 749.814 133.571 750.006 132.739H752.406C752.102 134.147 751.43 135.259 750.39 136.075C749.366 136.875 748.102 137.275 746.598 137.275ZM760.181 137.275C758.949 137.275 757.869 137.003 756.941 136.459C756.029 135.899 755.317 135.115 754.805 134.107C754.293 133.099 754.037 131.931 754.037 130.603C754.037 129.339 754.301 128.219 754.829 127.243C755.357 126.267 756.077 125.499 756.989 124.939C757.901 124.363 758.941 124.075 760.109 124.075C761.069 124.075 761.925 124.259 762.677 124.627C763.445 124.979 764.093 125.483 764.621 126.139C765.165 126.779 765.557 127.539 765.797 128.419C766.037 129.283 766.101 130.235 765.989 131.275H755.453V129.667H763.421C763.373 128.483 763.045 127.563 762.437 126.907C761.845 126.235 761.053 125.899 760.061 125.899C759.341 125.899 758.709 126.091 758.165 126.475C757.637 126.843 757.221 127.379 756.917 128.083C756.629 128.771 756.485 129.611 756.485 130.603C756.485 131.595 756.629 132.451 756.917 133.171C757.205 133.875 757.621 134.419 758.165 134.803C758.709 135.187 759.365 135.379 760.133 135.379C761.045 135.379 761.797 135.147 762.389 134.683C762.997 134.219 763.397 133.571 763.589 132.739H765.989C765.685 134.147 765.013 135.259 763.973 136.075C762.949 136.875 761.685 137.275 760.181 137.275ZM767.62 130.675C767.62 129.395 767.852 128.259 768.316 127.267C768.78 126.259 769.436 125.475 770.284 124.915C771.132 124.355 772.124 124.075 773.26 124.075C774.108 124.075 774.884 124.291 775.588 124.723C776.308 125.139 776.892 125.731 777.34 126.499V119.803H779.764V137.035H777.508V134.755C777.06 135.555 776.46 136.179 775.708 136.627C774.972 137.059 774.156 137.275 773.26 137.275C772.124 137.275 771.132 136.995 770.284 136.435C769.436 135.859 768.78 135.075 768.316 134.083C767.852 133.075 767.62 131.939 767.62 130.675ZM770.14 130.675C770.14 132.099 770.476 133.195 771.148 133.963C771.82 134.731 772.684 135.115 773.74 135.115C774.444 135.115 775.06 134.939 775.588 134.587C776.132 134.219 776.556 133.699 776.86 133.027C777.18 132.355 777.34 131.555 777.34 130.627C777.34 129.683 777.18 128.883 776.86 128.227C776.54 127.571 776.108 127.075 775.564 126.739C775.02 126.387 774.412 126.211 773.74 126.211C772.684 126.211 771.82 126.595 771.148 127.363C770.476 128.131 770.14 129.235 770.14 130.675ZM785.781 132.307H783.933L783.357 119.803H786.357L785.781 132.307ZM786.765 135.355C786.765 135.867 786.581 136.299 786.213 136.651C785.845 136.987 785.397 137.155 784.869 137.155C784.325 137.155 783.869 136.987 783.501 136.651C783.149 136.299 782.973 135.867 782.973 135.355C782.973 134.811 783.149 134.371 783.501 134.035C783.869 133.683 784.325 133.507 784.869 133.507C785.413 133.507 785.861 133.683 786.213 134.035C786.581 134.371 786.765 134.811 786.765 135.355Z" fill="#AC5DFA"/>
</g>
<g clip-path="url(#clip0_3209_9504)">
<path d="M1140 42.2102L1146.82 36.0352L1152.15 43.5102L1160.08 38.8952L1163.79 47.2802L1172.5 44.4202L1174.38 53.4552L1183.48 52.4802V61.6452L1192.58 62.6202L1190.63 71.6552L1199.41 74.4502L1195.64 82.8352L1203.57 87.4502L1198.17 94.8602L1205 101.035L1198.17 107.21L1203.57 114.62L1195.64 119.235L1199.41 127.62L1190.63 130.415L1192.58 139.45L1183.48 140.425V149.59L1174.38 148.615L1172.5 157.65L1163.79 154.79L1160.08 163.175L1152.15 158.56L1146.82 166.035L1140 159.86L1133.17 166.035L1127.85 158.56L1119.91 163.175L1116.21 154.79L1107.5 157.65L1105.61 148.615L1096.51 149.59V140.425L1087.41 139.45L1089.36 130.415L1080.59 127.62L1084.36 119.235L1076.43 114.62L1081.82 107.21L1075 101.035L1081.82 94.8602L1076.43 87.4502L1084.36 82.8352L1080.59 74.4502L1089.36 71.6552L1087.41 62.6202L1096.51 61.6452V52.4802L1105.61 53.4552L1107.5 44.4202L1116.21 47.2802L1119.91 38.8952L1127.85 43.5102L1133.17 36.0352L1140 42.2102Z" fill="#DFA325"/>
<path d="M1140 148.42C1166.03 148.42 1187.12 127.205 1187.12 101.035C1187.12 74.8654 1166.03 53.6504 1140 53.6504C1113.97 53.6504 1092.88 74.8654 1092.88 101.035C1092.88 127.205 1113.97 148.42 1140 148.42Z" fill="white"/>
<path d="M1140 131.781C1156.87 131.781 1170.55 118.016 1170.55 101.036C1170.55 84.056 1156.87 70.291 1140 70.291C1123.13 70.291 1109.45 84.056 1109.45 101.036C1109.45 118.016 1123.13 131.781 1140 131.781Z" fill="#821DB6"/>
<path d="M1122.58 109.551H1126.87C1127.59 109.551 1128.3 109.681 1128.95 109.876C1129.6 110.071 1130.19 110.461 1130.71 110.851C1131.23 111.306 1131.62 111.891 1131.94 112.541C1132.27 113.191 1132.4 114.036 1132.4 114.946C1132.4 115.856 1132.2 116.701 1131.88 117.351C1131.55 118.001 1131.1 118.586 1130.51 119.041C1129.93 119.496 1129.34 119.821 1128.69 120.016C1128.04 120.211 1127.33 120.341 1126.68 120.341H1122.65L1122.58 109.551ZM1125.96 118.651C1126.55 118.651 1127.13 118.586 1127.65 118.456C1128.17 118.326 1128.63 118.131 1129.02 117.806C1129.41 117.546 1129.73 117.156 1129.93 116.701C1130.19 116.246 1130.25 115.661 1130.25 115.011C1130.25 114.361 1130.12 113.776 1129.93 113.321C1129.73 112.866 1129.47 112.476 1129.08 112.151C1128.69 111.891 1128.3 111.631 1127.78 111.501C1127.26 111.371 1126.74 111.306 1126.16 111.306H1124.4V118.651H1125.96Z" fill="white"/>
<path d="M1136.75 109.551H1138.44L1143.12 120.406H1140.91L1139.93 117.936H1135.25L1134.28 120.406H1132.13L1136.75 109.551ZM1139.22 116.246L1137.53 111.826L1135.84 116.246H1139.22Z" fill="white"/>
<path d="M1145.2 115.791L1141.17 109.551H1143.57L1146.24 113.906L1148.9 109.551H1151.18L1147.15 115.791V120.471H1145.2V115.791Z" fill="white"/>
<path d="M1157.16 111.891C1156.96 111.566 1156.7 111.371 1156.31 111.241C1155.99 111.111 1155.6 111.046 1155.21 111.046C1155.01 111.046 1154.75 111.046 1154.56 111.111C1154.36 111.176 1154.17 111.241 1153.97 111.371C1153.78 111.501 1153.65 111.631 1153.58 111.826C1153.45 112.021 1153.45 112.216 1153.45 112.476C1153.45 112.866 1153.58 113.126 1153.84 113.321C1154.1 113.516 1154.43 113.711 1154.82 113.841C1155.21 113.971 1155.6 114.101 1156.05 114.231C1156.51 114.361 1156.9 114.556 1157.29 114.816C1157.68 115.076 1158 115.336 1158.26 115.726C1158.52 116.116 1158.65 116.636 1158.65 117.286C1158.65 117.871 1158.52 118.391 1158.33 118.781C1158.13 119.236 1157.81 119.561 1157.48 119.886C1157.16 120.211 1156.7 120.406 1156.25 120.536C1155.79 120.666 1155.27 120.731 1154.75 120.731C1154.1 120.731 1153.45 120.601 1152.8 120.406C1152.15 120.211 1151.63 119.821 1151.18 119.301L1152.61 117.871C1152.87 118.261 1153.13 118.521 1153.52 118.716C1153.91 118.911 1154.3 119.041 1154.75 119.041C1154.95 119.041 1155.21 119.041 1155.4 118.976C1155.6 118.911 1155.86 118.846 1155.99 118.716C1156.18 118.586 1156.31 118.456 1156.44 118.261C1156.57 118.066 1156.64 117.871 1156.64 117.611C1156.64 117.221 1156.51 116.896 1156.25 116.701C1155.99 116.506 1155.66 116.311 1155.27 116.181C1154.88 116.051 1154.49 115.921 1154.04 115.791C1153.58 115.661 1153.19 115.466 1152.8 115.271C1152.41 115.011 1152.09 114.751 1151.83 114.361C1151.57 113.971 1151.44 113.451 1151.44 112.801C1151.44 112.216 1151.57 111.761 1151.76 111.371C1152.02 110.981 1152.28 110.591 1152.67 110.331C1153.06 110.071 1153.45 109.876 1153.97 109.746C1154.43 109.616 1154.95 109.551 1155.47 109.551C1156.05 109.551 1156.57 109.616 1157.09 109.811C1157.61 110.006 1158.13 110.266 1158.52 110.656L1157.16 111.891Z" fill="white"/>
<path d="M1099.96 94.5998L1101.07 96.3548L1099.83 97.1348L1098.08 94.2748L1098.34 92.7148L1106.07 93.8848L1105.81 95.4448L1099.96 94.5998Z" fill="#0F2332"/>
<path d="M1102.5 91.7391C1102.04 91.6091 1101.65 91.4141 1101.2 91.1541C1100.74 90.8941 1100.42 90.6341 1100.09 90.3091C1099.77 89.9841 1099.57 89.5941 1099.44 89.1391C1099.31 88.6841 1099.38 88.2291 1099.51 87.6441C1099.7 87.0591 1099.96 86.6691 1100.29 86.4091C1100.61 86.1491 1101 85.9541 1101.46 85.8241C1101.91 85.6941 1102.37 85.6941 1102.82 85.8241C1103.28 85.8891 1103.73 86.0191 1104.19 86.1491C1104.64 86.2791 1105.03 86.4741 1105.49 86.7341C1105.94 86.9941 1106.27 87.2541 1106.59 87.5791C1106.92 87.9041 1107.11 88.2941 1107.24 88.7491C1107.37 89.2041 1107.31 89.6591 1107.18 90.2441C1106.98 90.8291 1106.72 91.2191 1106.4 91.4791C1106.07 91.7391 1105.68 91.9341 1105.23 92.0641C1104.77 92.1291 1104.32 92.1941 1103.86 92.0641C1103.41 91.9341 1102.95 91.8691 1102.5 91.7391ZM1103.02 90.1141C1103.21 90.1791 1103.47 90.2441 1103.73 90.3091C1103.99 90.3741 1104.32 90.4391 1104.58 90.4391C1104.84 90.4391 1105.1 90.3741 1105.36 90.3091C1105.55 90.1791 1105.75 89.9841 1105.81 89.7241C1105.88 89.4641 1105.88 89.2041 1105.75 89.0091C1105.62 88.8141 1105.42 88.6191 1105.23 88.4241C1105.03 88.2941 1104.77 88.1641 1104.51 88.0341C1104.25 87.9041 1103.99 87.8391 1103.8 87.7741C1103.6 87.7091 1103.34 87.6441 1103.08 87.5791C1102.82 87.5141 1102.5 87.4491 1102.24 87.4491C1101.98 87.4491 1101.72 87.5141 1101.46 87.5791C1101.26 87.7091 1101.07 87.9041 1101 88.1641C1100.94 88.4241 1100.94 88.6841 1101.07 88.9441C1101.2 89.1391 1101.39 89.3341 1101.59 89.5291C1101.78 89.6591 1102.04 89.7891 1102.3 89.9191C1102.56 89.9841 1102.82 90.0491 1103.02 90.1141Z" fill="#0F2332"/>
<path d="M1104.71 85.1103C1104.32 84.9153 1103.93 84.6553 1103.54 84.3303C1103.15 84.0053 1102.82 83.6803 1102.63 83.2903C1102.37 82.9003 1102.24 82.5103 1102.24 82.0553C1102.24 81.6003 1102.3 81.1453 1102.56 80.6253C1102.82 80.1053 1103.15 79.7803 1103.54 79.5203C1103.93 79.3253 1104.32 79.1953 1104.77 79.1953C1105.23 79.1953 1105.68 79.2603 1106.14 79.3903C1106.59 79.5203 1107.05 79.7153 1107.44 79.9753C1107.83 80.1703 1108.22 80.4303 1108.61 80.7553C1109 81.0803 1109.32 81.4053 1109.52 81.7953C1109.78 82.1853 1109.91 82.5753 1109.91 83.0303C1109.97 83.4853 1109.84 83.9403 1109.58 84.4603C1109.32 84.9803 1109 85.3053 1108.61 85.5653C1108.22 85.7603 1107.83 85.8903 1107.37 85.8903C1106.92 85.8903 1106.46 85.8253 1106.01 85.6953C1105.55 85.5003 1105.1 85.3053 1104.71 85.1103ZM1105.49 83.6803C1105.68 83.8103 1105.88 83.8753 1106.14 84.0053C1106.4 84.1353 1106.66 84.2003 1106.92 84.2653C1107.18 84.3303 1107.44 84.3303 1107.7 84.2653C1107.96 84.2003 1108.15 84.0703 1108.28 83.8103C1108.41 83.5503 1108.48 83.2903 1108.35 83.0953C1108.28 82.8353 1108.15 82.6403 1107.96 82.4453C1107.76 82.2503 1107.57 82.0553 1107.31 81.9253C1107.05 81.7953 1106.85 81.6653 1106.66 81.5353C1106.46 81.4053 1106.27 81.3403 1106.01 81.2103C1105.75 81.0803 1105.49 81.0153 1105.23 80.9503C1104.97 80.8853 1104.71 80.8853 1104.45 80.9503C1104.19 81.0153 1103.99 81.1453 1103.86 81.4053C1103.73 81.6653 1103.67 81.9253 1103.8 82.1853C1103.86 82.4453 1103.99 82.6403 1104.19 82.8353C1104.38 83.0303 1104.58 83.2253 1104.84 83.3553C1105.1 83.4203 1105.29 83.5503 1105.49 83.6803Z" fill="#0F2332"/>
<path d="M1106.46 77.83C1106.27 77.635 1106.07 77.375 1105.94 77.115C1105.81 76.855 1105.75 76.595 1105.75 76.335C1105.75 76.075 1105.75 75.75 1105.88 75.49C1105.94 75.23 1106.14 74.97 1106.33 74.71C1106.53 74.515 1106.79 74.32 1107.05 74.19C1107.31 74.06 1107.57 73.995 1107.83 73.995C1108.09 73.995 1108.35 73.995 1108.67 74.125C1109 74.255 1109.19 74.385 1109.39 74.58C1109.58 74.775 1109.78 75.035 1109.91 75.295C1110.04 75.555 1110.1 75.815 1110.1 76.075C1110.1 76.335 1110.1 76.66 1109.97 76.92C1109.91 77.18 1109.71 77.44 1109.52 77.7C1109.32 77.895 1109.06 78.09 1108.8 78.22C1108.54 78.35 1108.28 78.415 1108.02 78.415C1107.76 78.415 1107.5 78.415 1107.18 78.285C1106.92 78.22 1106.66 78.025 1106.46 77.83ZM1108.54 75.425C1108.35 75.23 1108.09 75.165 1107.76 75.165C1107.5 75.165 1107.24 75.295 1107.05 75.49C1106.85 75.685 1106.79 75.945 1106.79 76.27C1106.79 76.595 1106.92 76.79 1107.18 76.985C1107.37 77.18 1107.63 77.245 1107.96 77.245C1108.22 77.245 1108.48 77.115 1108.67 76.92C1108.87 76.725 1108.93 76.465 1108.93 76.14C1108.87 75.88 1108.8 75.62 1108.54 75.425ZM1109.06 71.2L1110.04 70.875L1113.03 79.585L1112.12 79.91L1109.06 71.2ZM1112.83 76.14C1112.64 75.945 1112.44 75.685 1112.31 75.425C1112.18 75.165 1112.12 74.905 1112.12 74.645C1112.12 74.385 1112.12 74.06 1112.25 73.8C1112.31 73.54 1112.51 73.28 1112.7 73.02C1112.9 72.825 1113.16 72.63 1113.42 72.5C1113.68 72.37 1113.94 72.305 1114.2 72.305C1114.46 72.305 1114.72 72.305 1115.04 72.435C1115.3 72.5 1115.56 72.695 1115.76 72.89C1115.95 73.085 1116.15 73.345 1116.28 73.605C1116.41 73.865 1116.47 74.125 1116.47 74.385C1116.47 74.645 1116.47 74.97 1116.34 75.23C1116.28 75.49 1116.08 75.75 1115.89 76.01C1115.69 76.27 1115.43 76.4 1115.17 76.53C1114.91 76.66 1114.65 76.725 1114.39 76.725C1114.13 76.725 1113.87 76.725 1113.55 76.595C1113.35 76.465 1113.09 76.335 1112.83 76.14ZM1114.98 73.735C1114.78 73.54 1114.52 73.475 1114.2 73.475C1113.94 73.475 1113.68 73.605 1113.48 73.8C1113.29 73.995 1113.22 74.255 1113.22 74.58C1113.22 74.84 1113.35 75.1 1113.61 75.295C1113.81 75.49 1114.07 75.62 1114.39 75.555C1114.65 75.555 1114.91 75.425 1115.11 75.23C1115.3 75.035 1115.37 74.775 1115.37 74.45C1115.37 74.125 1115.17 73.93 1114.98 73.735Z" fill="#0F2332"/>
<path d="M1116.6 65.155L1118.88 63.985L1122.78 67.69L1122.06 62.295L1124.34 61.125L1127.85 68.08L1126.35 68.86L1123.62 63.53L1124.53 69.835L1123.36 70.42L1118.88 66L1121.61 71.33L1120.11 72.11L1116.6 65.155Z" fill="#0F2332"/>
<path d="M1127.91 64.0486C1127.78 63.4636 1127.78 62.8786 1127.91 62.2936C1128.04 61.7736 1128.24 61.2536 1128.5 60.8636C1128.82 60.4086 1129.14 60.0836 1129.66 59.8236C1130.12 59.5636 1130.64 59.3036 1131.22 59.2386C1131.81 59.1086 1132.39 59.1086 1132.91 59.1736C1133.43 59.2386 1133.95 59.4336 1134.41 59.6936C1134.86 59.9536 1135.19 60.3436 1135.51 60.7986C1135.84 61.2536 1136.03 61.7736 1136.16 62.4236C1136.29 63.0086 1136.29 63.5936 1136.16 64.1786C1136.03 64.6986 1135.84 65.2186 1135.58 65.6086C1135.25 66.0636 1134.93 66.3886 1134.41 66.6486C1133.95 66.9086 1133.43 67.1686 1132.85 67.2336C1132.26 67.3636 1131.68 67.3636 1131.16 67.2986C1130.64 67.2336 1130.12 67.0386 1129.66 66.7786C1129.21 66.5186 1128.88 66.1286 1128.56 65.6736C1128.23 65.1536 1128.04 64.6336 1127.91 64.0486ZM1129.66 63.6586C1129.73 64.0486 1129.86 64.3086 1130.05 64.6336C1130.25 64.8936 1130.44 65.1536 1130.7 65.3486C1130.96 65.5436 1131.22 65.6736 1131.55 65.7386C1131.87 65.8036 1132.2 65.8036 1132.59 65.7386C1132.98 65.6736 1133.24 65.5436 1133.5 65.3486C1133.76 65.1536 1133.95 64.9586 1134.15 64.6986C1134.34 64.4386 1134.41 64.1136 1134.47 63.8536C1134.54 63.5286 1134.54 63.2036 1134.47 62.8136C1134.41 62.4886 1134.28 62.1636 1134.08 61.8386C1133.89 61.5786 1133.69 61.3186 1133.43 61.1236C1133.17 60.9286 1132.91 60.7986 1132.59 60.7336C1132.26 60.6686 1131.94 60.6686 1131.55 60.7336C1131.16 60.7986 1130.9 60.9286 1130.64 61.1236C1130.38 61.3186 1130.18 61.5136 1129.99 61.7736C1129.79 62.0336 1129.73 62.3586 1129.66 62.6836C1129.6 63.0086 1129.6 63.3336 1129.66 63.6586Z" fill="#0F2332"/>
<path d="M1138.12 58.3945L1140.46 58.5245L1143.45 64.1145L1143.71 58.7195L1145.4 58.7845L1145.01 66.5845L1142.8 66.4545L1139.74 60.7345L1139.42 66.3245L1137.73 66.2595L1138.12 58.3945Z" fill="#0F2332"/>
<path d="M1148.45 59.4336L1153.52 60.8636L1153.07 62.4236L1149.62 61.4486L1149.23 62.8786L1152.48 63.7886L1152.03 65.3486L1148.78 64.4386L1148.32 65.9986L1151.96 67.0386L1151.51 68.5986L1146.24 67.1036L1148.45 59.4336Z" fill="#0F2332"/>
<path d="M1155.79 66.7148L1155.21 61.3848L1157.09 62.3598L1157.22 65.7398L1160.08 63.9198L1161.9 64.8298L1157.29 67.4948L1155.79 70.4848L1154.3 69.7048L1155.79 66.7148Z" fill="#0F2332"/>
<path d="M1166.45 68.2754L1168.53 70.2904C1168.79 70.5504 1168.99 70.7454 1169.25 71.0704C1169.44 71.3304 1169.64 71.5904 1169.7 71.9154C1169.77 72.1754 1169.84 72.5004 1169.77 72.8254C1169.71 73.1504 1169.51 73.4104 1169.25 73.7354C1168.92 74.0604 1168.6 74.2554 1168.21 74.2554C1167.82 74.3204 1167.43 74.1904 1167.1 74.0604C1167.23 74.2554 1167.36 74.4504 1167.43 74.7104C1167.49 74.9054 1167.56 75.1654 1167.56 75.3604C1167.56 75.5554 1167.49 75.8154 1167.43 76.0104C1167.36 76.2054 1167.24 76.4004 1167.04 76.5954C1166.78 76.9204 1166.45 77.0504 1166.13 77.1804C1165.8 77.2454 1165.48 77.2454 1165.15 77.1804C1164.83 77.1154 1164.51 76.9854 1164.25 76.7904C1163.92 76.5954 1163.66 76.4004 1163.4 76.1404L1161.12 73.9304L1166.45 68.2754ZM1163.33 74.0604L1164.44 75.1004C1164.51 75.1654 1164.64 75.2954 1164.77 75.3604C1164.9 75.4254 1165.02 75.4904 1165.15 75.4904C1165.28 75.4904 1165.42 75.4904 1165.55 75.4904C1165.68 75.4254 1165.8 75.3604 1165.93 75.2304C1166.06 75.1004 1166.13 74.9704 1166.13 74.8404C1166.13 74.7104 1166.13 74.5804 1166.07 74.3854C1166 74.2554 1165.93 74.1254 1165.8 73.9954C1165.67 73.8654 1165.61 73.7354 1165.48 73.6704L1164.57 72.7604L1163.33 74.0604ZM1165.55 71.7204L1166.45 72.5654C1166.52 72.6304 1166.65 72.7604 1166.78 72.8254C1166.91 72.8904 1167.04 72.9554 1167.1 72.9554C1167.23 72.9554 1167.37 72.9554 1167.5 72.9554C1167.63 72.8904 1167.76 72.8254 1167.82 72.7604C1167.95 72.6304 1168.02 72.5004 1168.02 72.3704C1168.02 72.2404 1168.02 72.1104 1168.02 71.9804C1167.95 71.8504 1167.89 71.7204 1167.82 71.6554C1167.76 71.5254 1167.62 71.4604 1167.56 71.3304L1166.72 70.5504L1165.55 71.7204Z" fill="#0F2332"/>
<path d="M1173.87 76.4648L1174.65 77.6348L1170.1 84.8498L1168.99 83.2248L1169.97 81.7298L1168.28 79.1948L1166.52 79.5848L1165.48 78.0248L1173.87 76.4648ZM1172.31 78.2848L1169.77 78.8698L1170.81 80.4298L1172.31 78.2848Z" fill="#0F2332"/>
<path d="M1177.44 87.9043C1177.57 87.6443 1177.63 87.4493 1177.63 87.1243C1177.63 86.8643 1177.57 86.5393 1177.5 86.2793C1177.37 85.9543 1177.24 85.6943 1176.98 85.4993C1176.79 85.3043 1176.53 85.1093 1176.2 85.0443C1175.94 84.9143 1175.62 84.9143 1175.29 84.9143C1174.97 84.9143 1174.64 84.9793 1174.32 85.1093C1173.99 85.2393 1173.67 85.4343 1173.47 85.6293C1173.21 85.8243 1173.02 86.0843 1172.89 86.3443C1172.76 86.6043 1172.69 86.8643 1172.63 87.1893C1172.63 87.5143 1172.63 87.7743 1172.76 88.0343C1172.89 88.3593 1173.08 88.6193 1173.28 88.8143C1173.54 89.0093 1173.8 89.1393 1174.12 89.2043L1173.67 90.9593C1173.15 90.8293 1172.63 90.5693 1172.24 90.1793C1171.85 89.7893 1171.52 89.3343 1171.33 88.8143C1171.13 88.2293 1171 87.7093 1171 87.1243C1171 86.6043 1171.07 86.0843 1171.26 85.5643C1171.46 85.1093 1171.72 84.6543 1172.17 84.2643C1172.56 83.8743 1173.08 83.5493 1173.6 83.3543C1174.19 83.0943 1174.77 83.0293 1175.29 83.0293C1175.81 83.0293 1176.33 83.1593 1176.79 83.3543C1177.24 83.5493 1177.7 83.8743 1178.02 84.2643C1178.41 84.6543 1178.67 85.1743 1178.93 85.7593C1179 85.9543 1179.06 86.2143 1179.13 86.4093C1179.19 86.6693 1179.19 86.8643 1179.19 87.1243C1179.19 87.3843 1179.19 87.6443 1179.13 87.9043C1179.06 88.1643 1179 88.4243 1178.87 88.6193L1177.44 87.9043Z" fill="#0F2332"/>
<path d="M1180.43 90.8281L1180.69 92.5181L1177.51 93.0381L1181.15 95.5081L1181.47 97.7181L1177.38 94.8581L1173.87 99.2781L1173.48 96.8731L1176.6 93.1681L1172.96 93.7531L1172.7 92.0631L1180.43 90.8281Z" fill="#0F2332"/>
<path d="M1104.38 115.531C1105.78 115.531 1106.91 114.396 1106.91 112.996C1106.91 111.596 1105.78 110.461 1104.38 110.461C1102.98 110.461 1101.84 111.596 1101.84 112.996C1101.84 114.396 1102.98 115.531 1104.38 115.531Z" fill="#821DB6"/>
<path d="M1176.2 115.531C1177.6 115.531 1178.74 114.396 1178.74 112.996C1178.74 111.596 1177.6 110.461 1176.2 110.461C1174.8 110.461 1173.67 111.596 1173.67 112.996C1173.67 114.396 1174.8 115.531 1176.2 115.531Z" fill="#821DB6"/>
<path d="M1114 134.12C1113.48 133.99 1112.96 133.795 1112.51 133.47C1112.05 133.21 1111.6 132.885 1111.21 132.495C1110.75 132.105 1110.43 131.65 1110.17 131.195C1109.91 130.74 1109.78 130.22 1109.78 129.7C1109.71 129.18 1109.84 128.725 1109.97 128.205C1110.17 127.685 1110.43 127.23 1110.88 126.775C1111.27 126.32 1111.73 125.995 1112.25 125.735C1112.7 125.54 1113.22 125.41 1113.74 125.41C1114.26 125.41 1114.72 125.475 1115.24 125.67C1115.76 125.865 1116.21 126.19 1116.6 126.58C1117.06 126.97 1117.38 127.425 1117.71 127.88C1117.97 128.335 1118.16 128.855 1118.16 129.375L1116.41 129.505C1116.41 129.18 1116.34 128.855 1116.21 128.595C1116.08 128.335 1115.89 128.01 1115.56 127.75C1115.3 127.49 1115.04 127.36 1114.72 127.23C1114.39 127.1 1114.13 127.1 1113.81 127.1C1113.48 127.1 1113.22 127.23 1112.96 127.36C1112.7 127.49 1112.44 127.685 1112.18 127.945C1111.92 128.205 1111.79 128.465 1111.66 128.79C1111.53 129.115 1111.47 129.375 1111.47 129.7C1111.47 130.025 1111.53 130.285 1111.66 130.61C1111.79 130.87 1111.99 131.13 1112.25 131.39C1112.51 131.65 1112.77 131.845 1113.03 131.91C1113.29 132.04 1113.48 132.105 1113.68 132.17L1114.52 131.26L1113.55 130.35L1114.59 129.18L1116.8 131.195L1114 134.12Z" fill="#0F2332"/>
<path d="M1122.65 136.72C1122.39 137.11 1122.13 137.435 1121.87 137.695C1121.54 137.955 1121.22 138.15 1120.83 138.215C1120.44 138.345 1120.05 138.345 1119.66 138.28C1119.2 138.215 1118.81 138.02 1118.36 137.76C1117.9 137.5 1117.51 137.175 1117.25 136.85C1116.99 136.525 1116.8 136.135 1116.73 135.745C1116.67 135.355 1116.67 134.965 1116.73 134.575C1116.8 134.185 1116.93 133.795 1117.19 133.405L1119.53 129.375L1120.96 130.22L1118.62 134.185C1118.49 134.38 1118.42 134.575 1118.36 134.835C1118.29 135.03 1118.29 135.225 1118.36 135.42C1118.42 135.615 1118.49 135.81 1118.62 135.94C1118.75 136.135 1118.88 136.265 1119.07 136.33C1119.27 136.46 1119.46 136.525 1119.66 136.525C1119.85 136.525 1120.05 136.525 1120.24 136.46C1120.44 136.395 1120.63 136.33 1120.76 136.2C1120.96 136.07 1121.09 135.875 1121.22 135.68L1123.56 131.715L1124.99 132.56L1122.65 136.72Z" fill="#0F2332"/>
<path d="M1128.24 133.861L1129.54 134.316L1130.19 142.571L1128.43 141.986L1128.3 140.231L1125.51 139.256L1124.4 140.556L1122.65 139.971L1128.24 133.861ZM1128.11 136.201L1126.48 138.151L1128.24 138.736L1128.11 136.201Z" fill="#0F2332"/>
<path d="M1132.91 135.355L1135.84 135.745C1136.23 135.81 1136.55 135.875 1136.88 136.005C1137.2 136.135 1137.46 136.265 1137.72 136.525C1137.98 136.72 1138.12 136.98 1138.25 137.305C1138.38 137.63 1138.38 138.02 1138.31 138.41C1138.25 138.93 1138.05 139.385 1137.72 139.71C1137.4 140.035 1136.94 140.23 1136.42 140.23L1137.85 143.675L1135.9 143.415L1134.74 140.165L1133.89 140.035L1133.5 143.025L1131.88 142.765L1132.91 135.355ZM1134.09 138.67L1135.06 138.8C1135.19 138.8 1135.38 138.865 1135.51 138.865C1135.71 138.865 1135.84 138.865 1135.97 138.8C1136.1 138.735 1136.23 138.67 1136.36 138.605C1136.49 138.475 1136.55 138.345 1136.55 138.15C1136.55 137.955 1136.55 137.825 1136.49 137.695C1136.42 137.565 1136.36 137.5 1136.23 137.37C1136.1 137.305 1135.97 137.24 1135.84 137.175C1135.71 137.11 1135.52 137.11 1135.39 137.11L1134.28 136.98L1134.09 138.67Z" fill="#0F2332"/>
<path d="M1141.69 136.071L1143.06 136.006L1146.7 143.416L1144.81 143.481L1144.1 141.921L1141.17 142.051L1140.65 143.676L1138.83 143.741L1141.69 136.071ZM1142.47 138.216L1141.69 140.621L1143.51 140.556L1142.47 138.216Z" fill="#0F2332"/>
<path d="M1146.57 135.746L1148.78 135.161L1153.26 139.451L1151.9 134.381L1153.52 133.926L1155.47 141.271L1153.39 141.856L1148.78 137.501L1150.21 142.701L1148.58 143.156L1146.57 135.746Z" fill="#0F2332"/>
<path d="M1156.31 134.121L1154.36 135.096L1153.71 133.796L1159.11 131.131L1159.76 132.431L1157.81 133.406L1160.47 138.931L1158.98 139.646L1156.31 134.121Z" fill="#0F2332"/>
<path d="M1159.57 130.675L1163.79 127.75L1164.64 129.05L1161.78 131L1162.56 132.17L1165.29 130.285L1166.13 131.585L1163.4 133.47L1164.25 134.77L1167.24 132.69L1168.08 133.99L1163.73 137.045L1159.57 130.675Z" fill="#0F2332"/>
<path d="M1164.5 127.101L1168.14 123.461L1169.25 124.566L1166.78 127.036L1167.75 128.011L1170.09 125.671L1171.2 126.776L1168.86 129.116L1169.96 130.221L1172.56 127.621L1173.67 128.726L1169.9 132.561L1164.5 127.101Z" fill="#0F2332"/>
<path d="M1139.22 153.165C1138.57 153.165 1137.85 153.1 1137.14 153.1L1137.2 152.06C1137.85 152.125 1138.57 152.125 1139.22 152.125V153.165ZM1141.23 153.165V152.125C1141.88 152.125 1142.6 152.06 1143.25 152.06L1143.31 153.1C1142.6 153.1 1141.95 153.165 1141.23 153.165ZM1135.12 152.905C1134.47 152.84 1133.76 152.775 1133.11 152.645L1133.24 151.605C1133.89 151.67 1134.6 151.8 1135.25 151.865L1135.12 152.905ZM1145.33 152.905L1145.2 151.865C1145.85 151.8 1146.56 151.735 1147.21 151.605L1147.34 152.645C1146.69 152.775 1145.98 152.84 1145.33 152.905ZM1131.03 152.385C1130.38 152.255 1129.66 152.125 1129.01 151.995L1129.21 151.02C1129.86 151.15 1130.51 151.28 1131.16 151.41L1131.03 152.385ZM1149.42 152.32L1149.23 151.28C1149.88 151.15 1150.53 151.02 1151.18 150.89L1151.37 151.865C1150.72 152.125 1150.07 152.255 1149.42 152.32ZM1127.06 151.475C1126.41 151.28 1125.76 151.085 1125.11 150.89L1125.44 149.915C1126.09 150.11 1126.74 150.305 1127.39 150.5L1127.06 151.475ZM1153.39 151.475L1153.13 150.5C1153.78 150.305 1154.43 150.175 1155.08 149.915L1155.4 150.89C1154.69 151.085 1154.04 151.28 1153.39 151.475ZM1123.1 150.24C1122.45 150.045 1121.8 149.785 1121.15 149.525L1121.54 148.55C1122.19 148.81 1122.77 149.07 1123.42 149.265L1123.1 150.24ZM1157.29 150.24L1156.96 149.265C1157.61 149.07 1158.2 148.81 1158.85 148.55L1159.24 149.525C1158.59 149.785 1157.94 150.045 1157.29 150.24ZM1119.26 148.745C1118.61 148.485 1118.03 148.16 1117.38 147.9L1117.83 146.99C1118.42 147.315 1119.07 147.575 1119.65 147.835L1119.26 148.745ZM1161.12 148.745L1160.73 147.835C1161.32 147.575 1161.97 147.25 1162.55 146.99L1163.01 147.9C1162.36 148.16 1161.77 148.42 1161.12 148.745ZM1115.62 146.925C1115.04 146.6 1114.39 146.275 1113.87 145.885L1114.39 144.975C1114.97 145.3 1115.56 145.625 1116.14 145.95L1115.62 146.925ZM1164.76 146.925L1164.31 146.015C1164.89 145.69 1165.48 145.365 1166.06 145.04L1166.58 145.95C1166 146.21 1165.35 146.6 1164.76 146.925ZM1112.05 144.78C1111.46 144.39 1110.88 144 1110.36 143.61L1110.94 142.765C1111.46 143.155 1112.05 143.545 1112.63 143.87L1112.05 144.78ZM1168.27 144.78L1167.69 143.935C1168.27 143.545 1168.79 143.155 1169.38 142.83L1169.96 143.675C1169.44 144.065 1168.86 144.455 1168.27 144.78ZM1171.65 142.44L1171 141.66C1171.52 141.27 1172.04 140.815 1172.56 140.425L1173.21 141.205C1172.69 141.595 1172.17 141.985 1171.65 142.44ZM1108.73 142.44C1108.21 142.05 1107.63 141.595 1107.11 141.14L1107.76 140.36C1108.28 140.815 1108.8 141.205 1109.32 141.595L1108.73 142.44ZM1174.77 139.775L1174.06 138.995C1174.58 138.54 1175.03 138.085 1175.55 137.63L1176.27 138.345C1175.81 138.865 1175.29 139.32 1174.77 139.775ZM1105.61 139.775C1105.09 139.32 1104.64 138.865 1104.12 138.345L1104.83 137.63C1105.29 138.085 1105.81 138.54 1106.26 138.995L1105.61 139.775ZM1177.7 136.915L1176.98 136.2C1177.44 135.68 1177.89 135.225 1178.35 134.705L1179.13 135.355C1178.67 135.875 1178.15 136.395 1177.7 136.915ZM1102.69 136.85C1102.23 136.33 1101.78 135.81 1101.32 135.355L1102.1 134.705C1102.56 135.225 1103.01 135.745 1103.47 136.2L1102.69 136.85ZM1180.43 133.795L1179.65 133.145C1180.04 132.625 1180.49 132.105 1180.88 131.52L1181.73 132.105C1181.27 132.69 1180.82 133.275 1180.43 133.795ZM1099.96 133.795C1099.5 133.275 1099.11 132.69 1098.72 132.17L1099.57 131.585C1099.96 132.105 1100.35 132.69 1100.8 133.21L1099.96 133.795ZM1097.55 130.48C1097.16 129.895 1096.77 129.31 1096.45 128.725L1097.29 128.205C1097.62 128.79 1098.01 129.31 1098.4 129.895L1097.55 130.48ZM1182.83 130.48L1181.99 129.895C1182.38 129.31 1182.7 128.79 1183.09 128.205L1183.94 128.725C1183.61 129.31 1183.22 129.895 1182.83 130.48ZM1095.34 126.97C1095.02 126.385 1094.69 125.8 1094.37 125.15L1095.28 124.695C1095.6 125.28 1095.93 125.865 1096.25 126.45L1095.34 126.97ZM1185.04 126.97L1184.13 126.45C1184.46 125.865 1184.78 125.28 1185.11 124.695L1186.02 125.15C1185.69 125.735 1185.37 126.385 1185.04 126.97ZM1093.46 123.33C1093.2 122.68 1092.87 122.095 1092.61 121.445L1093.52 121.055C1093.78 121.64 1094.04 122.29 1094.37 122.875L1093.46 123.33ZM1186.93 123.265L1186.02 122.81C1186.28 122.225 1186.6 121.575 1186.86 120.99L1187.77 121.38C1187.51 122.03 1187.19 122.68 1186.93 123.265ZM1091.9 119.56C1091.64 118.91 1091.44 118.26 1091.25 117.61L1092.22 117.285C1092.42 117.935 1092.68 118.585 1092.87 119.17L1091.9 119.56ZM1188.49 119.495L1187.51 119.105C1187.77 118.455 1187.97 117.805 1188.16 117.22L1189.14 117.545C1188.94 118.195 1188.75 118.845 1188.49 119.495ZM1090.6 115.595C1090.4 114.945 1090.21 114.295 1090.08 113.58L1091.05 113.32C1091.18 113.97 1091.38 114.62 1091.57 115.27L1090.6 115.595ZM1189.79 115.595L1188.81 115.335C1189.01 114.685 1189.14 114.035 1189.33 113.385L1190.31 113.645C1190.18 114.23 1189.98 114.88 1189.79 115.595ZM1089.62 111.63C1089.49 110.98 1089.36 110.265 1089.23 109.615L1090.21 109.485C1090.34 110.135 1090.4 110.785 1090.53 111.5L1089.62 111.63ZM1190.76 111.565L1189.79 111.37C1189.92 110.72 1190.05 110.07 1190.11 109.355L1191.09 109.485C1191.02 110.2 1190.89 110.915 1190.76 111.565ZM1088.97 107.535C1088.91 106.885 1088.84 106.17 1088.78 105.455L1089.82 105.39C1089.88 106.04 1089.95 106.755 1090.01 107.405L1088.97 107.535ZM1191.41 107.47L1190.37 107.34C1190.44 106.69 1190.5 105.975 1190.57 105.325L1191.61 105.39C1191.54 106.105 1191.48 106.82 1191.41 107.47ZM1088.65 103.44C1088.65 102.79 1088.58 102.075 1088.58 101.36H1089.62C1089.62 102.01 1089.62 102.725 1089.69 103.375L1088.65 103.44ZM1191.74 103.375L1190.7 103.31C1190.7 102.66 1190.76 101.945 1190.76 101.295V101.165H1191.8V101.295C1191.74 102.01 1191.74 102.725 1191.74 103.375ZM1089.69 99.3452L1088.65 99.2802C1088.65 98.6302 1088.71 97.9152 1088.78 97.2002L1089.82 97.2652C1089.75 97.9802 1089.69 98.6952 1089.69 99.3452ZM1190.7 99.2152C1190.7 98.5652 1190.63 97.8502 1190.57 97.2002L1191.61 97.1352C1191.67 97.8502 1191.67 98.5002 1191.74 99.2152H1190.7ZM1090.01 95.3152L1088.97 95.1852C1089.04 94.5352 1089.17 93.8202 1089.23 93.1702L1090.21 93.3002C1090.14 94.0152 1090.08 94.6652 1090.01 95.3152ZM1190.37 95.1852C1190.31 94.5352 1190.18 93.8202 1190.11 93.1702L1191.09 92.9752C1191.22 93.6252 1191.28 94.3402 1191.35 94.9902L1190.37 95.1852ZM1090.6 91.3502L1089.62 91.1552C1089.75 90.5052 1089.88 89.7902 1090.08 89.1402L1091.05 89.4002C1090.86 89.9852 1090.73 90.7002 1090.6 91.3502ZM1189.72 91.1552C1189.59 90.5052 1189.46 89.8552 1189.27 89.2052L1190.24 88.9452C1190.44 89.5952 1190.57 90.3102 1190.7 90.9602L1189.72 91.1552ZM1091.57 87.3852L1090.6 87.1252C1090.79 86.4752 1090.99 85.8252 1091.18 85.1752L1092.16 85.5002C1091.96 86.0852 1091.77 86.7352 1091.57 87.3852ZM1188.81 87.2552C1188.62 86.6052 1188.42 85.9552 1188.23 85.3052L1189.2 84.9802C1189.4 85.6302 1189.59 86.2802 1189.79 86.9302L1188.81 87.2552ZM1092.81 83.5502L1091.83 83.1602C1092.09 82.5102 1092.35 81.8602 1092.61 81.2102L1093.52 81.6002C1093.26 82.3152 1093.07 82.9002 1092.81 83.5502ZM1187.51 83.4202C1187.25 82.7702 1187.06 82.1852 1186.8 81.5352L1187.71 81.1452C1187.97 81.7952 1188.23 82.4452 1188.49 83.0302L1187.51 83.4202ZM1094.37 79.8452L1093.46 79.3902C1093.72 78.7402 1094.04 78.1552 1094.37 77.5052L1095.28 77.9602C1094.95 78.6102 1094.63 79.1952 1094.37 79.8452ZM1185.95 79.7152C1185.69 79.1302 1185.37 78.4802 1185.04 77.8952L1185.95 77.4402C1186.28 78.0252 1186.54 78.6752 1186.86 79.2602L1185.95 79.7152ZM1096.19 76.2052L1095.28 75.6852C1095.6 75.1002 1095.99 74.5152 1096.32 73.9302L1097.16 74.4502C1096.9 75.0352 1096.58 75.6202 1096.19 76.2052ZM1184.13 76.1402C1183.81 75.5552 1183.48 74.9702 1183.09 74.3852L1183.94 73.8652C1184.33 74.4502 1184.65 75.0352 1184.98 75.6202L1184.13 76.1402ZM1098.33 72.8252L1097.49 72.2402C1097.88 71.6552 1098.27 71.1352 1098.66 70.5502L1099.5 71.1352C1099.11 71.6552 1098.72 72.2402 1098.33 72.8252ZM1181.99 72.6952C1181.6 72.1102 1181.21 71.5902 1180.82 71.0702L1181.66 70.4852C1182.05 71.0052 1182.44 71.5902 1182.83 72.1752L1181.99 72.6952ZM1100.74 69.5102L1099.96 68.8602C1100.41 68.3402 1100.8 67.8202 1101.26 67.3002L1102.04 67.9502C1101.58 68.4702 1101.13 68.9902 1100.74 69.5102ZM1179.58 69.4452C1179.19 68.9252 1178.74 68.4052 1178.28 67.8852L1179.06 67.2352C1179.52 67.7552 1179.97 68.2752 1180.36 68.7952L1179.58 69.4452ZM1103.4 66.5202L1102.69 65.8052C1103.14 65.2852 1103.66 64.8302 1104.12 64.3102L1104.83 65.0252C1104.31 65.5452 1103.86 66.0002 1103.4 66.5202ZM1176.92 66.4552C1176.46 66.0002 1176.01 65.4802 1175.49 65.0252L1176.2 64.3102C1176.72 64.7652 1177.18 65.2852 1177.63 65.8052L1176.92 66.4552ZM1106.26 63.6602L1105.55 62.8802C1106.07 62.4252 1106.59 61.9702 1107.11 61.5152L1107.76 62.2952C1107.24 62.7502 1106.72 63.2052 1106.26 63.6602ZM1174.06 63.5952C1173.54 63.1402 1173.02 62.6852 1172.56 62.2952L1173.21 61.5152C1173.73 61.9702 1174.25 62.4252 1174.77 62.8802L1174.06 63.5952ZM1109.32 61.0602L1108.67 60.2802C1109.19 59.8252 1109.77 59.4352 1110.29 59.0452L1110.88 59.8902C1110.42 60.2152 1109.84 60.6702 1109.32 61.0602ZM1171 60.9952C1170.48 60.6052 1169.9 60.1502 1169.38 59.8252L1169.96 58.9802C1170.48 59.3702 1171.07 59.7602 1171.59 60.2152L1171 60.9952ZM1112.57 58.7202L1112.05 57.8752C1112.63 57.4852 1113.22 57.1602 1113.8 56.7702L1114.32 57.6802C1113.74 58.0052 1113.15 58.3302 1112.57 58.7202ZM1167.69 58.6552C1167.1 58.2652 1166.58 57.9402 1166 57.6152L1166.52 56.7052C1167.1 57.0302 1167.69 57.4202 1168.27 57.8102L1167.69 58.6552ZM1116.01 56.6402L1115.56 55.7302C1116.14 55.4052 1116.79 55.0802 1117.38 54.7552L1117.83 55.6652C1117.25 56.0552 1116.6 56.3152 1116.01 56.6402ZM1164.24 56.5752C1163.66 56.2502 1163.07 55.9252 1162.42 55.6652L1162.88 54.7552C1163.46 55.0802 1164.11 55.4052 1164.7 55.7302L1164.24 56.5752ZM1119.65 54.8852L1119.2 53.9102C1119.85 53.6502 1120.43 53.3902 1121.08 53.1302L1121.47 54.1052C1120.89 54.3652 1120.24 54.6252 1119.65 54.8852ZM1160.6 54.8202C1160.02 54.5602 1159.37 54.3002 1158.72 54.0402L1159.11 53.0652C1159.76 53.3252 1160.41 53.5852 1160.99 53.8452L1160.6 54.8202ZM1123.36 53.3902L1123.03 52.4152C1123.68 52.2202 1124.33 51.9602 1124.98 51.7652L1125.31 52.7402C1124.59 52.9352 1124.01 53.1302 1123.36 53.3902ZM1156.9 53.3252C1156.25 53.1302 1155.6 52.8702 1155.01 52.6752L1155.34 51.7002C1155.99 51.8952 1156.64 52.0902 1157.29 52.3502L1156.9 53.3252ZM1127.19 52.1552L1126.93 51.1802C1127.58 50.9852 1128.23 50.8552 1128.95 50.6602L1129.14 51.6352C1128.49 51.8302 1127.84 52.0252 1127.19 52.1552ZM1153.06 52.1552C1152.41 51.9602 1151.76 51.8302 1151.11 51.7002L1151.31 50.7252C1151.96 50.8552 1152.61 51.0502 1153.32 51.1802L1153.06 52.1552ZM1131.09 51.3102L1130.9 50.2702C1131.55 50.1402 1132.26 50.0102 1132.91 49.9452L1133.04 50.9852C1132.46 51.0502 1131.81 51.1802 1131.09 51.3102ZM1149.1 51.3102C1148.45 51.1802 1147.8 51.1152 1147.08 50.9852L1147.21 49.9452C1147.86 50.0102 1148.58 50.1402 1149.23 50.2702L1149.1 51.3102ZM1135.12 50.7252L1134.99 49.6852C1135.64 49.6202 1136.36 49.5552 1137.01 49.4902L1137.07 50.5302C1136.42 50.5952 1135.77 50.6602 1135.12 50.7252ZM1145.13 50.7252C1144.48 50.6602 1143.77 50.5952 1143.12 50.5952L1143.18 49.5552C1143.83 49.6202 1144.55 49.6202 1145.2 49.6852L1145.13 50.7252ZM1139.09 50.5302V49.4902C1139.74 49.4902 1140.45 49.4902 1141.17 49.4902V50.5302C1140.45 50.4652 1139.8 50.4652 1139.09 50.5302Z" fill="#E6E6E6"/>
<path d="M1120.66 101.03C1121.76 101.615 1124.3 102.655 1126.83 102.655C1130.08 102.655 1131.71 101.095 1131.71 99.0802C1131.71 96.4802 1129.11 95.2452 1126.31 95.2452H1123.78V90.7602H1126.18C1128.26 90.6952 1130.93 89.9152 1130.93 87.7052C1130.93 86.0802 1129.63 84.9102 1127.03 84.9102C1124.88 84.9102 1122.54 85.8202 1121.44 86.5352L1120.14 82.0502C1121.76 81.0102 1124.95 80.0352 1128.39 80.0352C1134.11 80.0352 1137.23 83.0252 1137.23 86.6652C1137.23 89.4602 1135.61 91.6702 1132.36 92.8402V92.9702C1135.54 93.5552 1138.14 95.9602 1138.14 99.4702C1138.14 104.15 1133.98 107.595 1127.22 107.595C1123.78 107.595 1120.85 106.685 1119.29 105.71L1120.66 101.03Z" fill="#DFA325"/>
<path d="M1162 93.6851C1162 101.94 1158.69 107.595 1151.86 107.595C1144.97 107.595 1141.98 101.42 1141.92 93.8801C1141.92 86.2101 1145.17 80.1001 1152.06 80.1001C1159.21 80.0351 1162 86.4051 1162 93.6851ZM1148.16 93.8801C1148.09 99.9901 1149.59 102.915 1151.99 102.915C1154.4 102.915 1155.7 99.8601 1155.7 93.8151C1155.7 87.9001 1154.4 84.7801 1151.93 84.7801C1149.72 84.7801 1148.16 87.7051 1148.16 93.8801Z" fill="#DFA325"/>
</g>
<defs>
<filter id="filter0_b_3209_9504" x="-30" y="-12.9648" width="1320" height="228" filterUnits="userSpaceOnUse" color-interpolation-filters="sRGB">
<feFlood flood-opacity="0" result="BackgroundImageFix"/>
<feGaussianBlur in="BackgroundImageFix" stdDeviation="15"/>
<feComposite in2="SourceAlpha" operator="in" result="effect1_backgroundBlur_3209_9504"/>
<feBlend mode="normal" in="SourceGraphic" in2="effect1_backgroundBlur_3209_9504" result="shape"/>
</filter>
<clipPath id="clip0_3209_9504">
<rect width="130" height="130" fill="white" transform="translate(1075 36.0352)"/>
</clipPath>
</defs>
</svg>
