<svg width="980" height="134" viewBox="0 0 980 134" fill="none" xmlns="http://www.w3.org/2000/svg">
<path d="M12.7054 54.0352H3.63344V19.5712H17.7454C22.4174 19.5712 26.0174 20.5792 28.5454 22.5952C31.1054 24.5792 32.3854 27.4112 32.3854 31.0912C32.3854 33.2992 31.7454 35.2832 30.4654 37.0432C29.2174 38.7712 27.4254 40.1312 25.0894 41.1232L33.5374 54.0352H22.7374L15.6814 42.5632H12.7054V54.0352ZM12.7054 27.0592V35.0752H17.3614C19.3774 35.0752 20.8654 34.7552 21.8254 34.1152C22.7854 33.4752 23.2654 32.4672 23.2654 31.0912C23.2654 29.7152 22.7854 28.7072 21.8254 28.0672C20.8654 27.3952 19.3774 27.0592 17.3614 27.0592H12.7054ZM47.8643 54.5152C45.9443 54.5152 44.1683 54.1792 42.5363 53.5072C40.9043 52.8032 39.4803 51.8432 38.2643 50.6272C37.0483 49.3792 36.0883 47.9552 35.3843 46.3552C34.7123 44.7232 34.3763 42.9792 34.3763 41.1232C34.3763 39.2672 34.7123 37.5392 35.3843 35.9392C36.0883 34.3072 37.0483 32.8832 38.2643 31.6672C39.4803 30.4192 40.9043 29.4592 42.5363 28.7872C44.1683 28.0832 45.9443 27.7312 47.8643 27.7312C49.7843 27.7312 51.5603 28.0832 53.1923 28.7872C54.8243 29.4592 56.2483 30.4192 57.4643 31.6672C58.6803 32.8832 59.6243 34.3072 60.2963 35.9392C61.0003 37.5392 61.3523 39.2672 61.3523 41.1232C61.3523 42.9792 61.0003 44.7232 60.2963 46.3552C59.6243 47.9552 58.6803 49.3792 57.4643 50.6272C56.2483 51.8432 54.8243 52.8032 53.1923 53.5072C51.5603 54.1792 49.7843 54.5152 47.8643 54.5152ZM47.8643 47.1712C48.7283 47.1712 49.5283 46.9472 50.2643 46.4992C51.0323 46.0512 51.6403 45.3792 52.0883 44.4832C52.5683 43.5872 52.8083 42.4672 52.8083 41.1232C52.8083 39.7792 52.5683 38.6592 52.0883 37.7632C51.6403 36.8672 51.0323 36.2112 50.2643 35.7952C49.5283 35.3472 48.7283 35.1232 47.8643 35.1232C47.0323 35.1232 46.2323 35.3472 45.4643 35.7952C44.6963 36.2112 44.0723 36.8672 43.5923 37.7632C43.1443 38.6592 42.9203 39.7792 42.9203 41.1232C42.9203 42.4672 43.1443 43.5872 43.5923 44.4832C44.0723 45.3792 44.6963 46.0512 45.4643 46.4992C46.2323 46.9472 47.0323 47.1712 47.8643 47.1712ZM91.8537 41.1232C91.8537 43.5872 91.3737 45.8432 90.4137 47.8912C89.4537 49.9072 88.1097 51.5232 86.3817 52.7392C84.6857 53.9232 82.6697 54.5152 80.3337 54.5152C78.8297 54.5152 77.4377 54.2272 76.1577 53.6512C74.8777 53.0432 73.7097 52.1952 72.6537 51.1072V54.0352H65.1177V19.5712H73.3257V30.6112C74.3497 29.6512 75.4377 28.9312 76.5897 28.4512C77.7417 27.9712 78.9897 27.7312 80.3337 27.7312C82.6697 27.7312 84.6857 28.3232 86.3817 29.5072C88.1097 30.6912 89.4537 32.3072 90.4137 34.3552C91.3737 36.3712 91.8537 38.6272 91.8537 41.1232ZM83.3097 41.1232C83.3097 39.0432 82.7977 37.5232 81.7737 36.5632C80.7497 35.6032 79.6137 35.1232 78.3657 35.1232C77.5337 35.1232 76.7337 35.3312 75.9657 35.7472C75.2297 36.1632 74.6217 36.8192 74.1417 37.7152C73.6617 38.5792 73.4217 39.6992 73.4217 41.0752C73.4217 42.4192 73.6457 43.5392 74.0937 44.4352C74.5737 45.3312 75.1977 46.0032 75.9657 46.4512C76.7337 46.8992 77.5337 47.1232 78.3657 47.1232C79.6137 47.1232 80.7497 46.6272 81.7737 45.6352C82.7977 44.6432 83.3097 43.1392 83.3097 41.1232ZM107.442 54.5152C105.522 54.5152 103.746 54.1792 102.114 53.5072C100.482 52.8032 99.0584 51.8432 97.8424 50.6272C96.6264 49.3792 95.6664 47.9552 94.9624 46.3552C94.2904 44.7232 93.9544 42.9792 93.9544 41.1232C93.9544 39.2672 94.2904 37.5392 94.9624 35.9392C95.6664 34.3072 96.6264 32.8832 97.8424 31.6672C99.0584 30.4192 100.482 29.4592 102.114 28.7872C103.746 28.0832 105.522 27.7312 107.442 27.7312C109.362 27.7312 111.138 28.0832 112.77 28.7872C114.402 29.4592 115.826 30.4192 117.042 31.6672C118.258 32.8832 119.202 34.3072 119.874 35.9392C120.578 37.5392 120.93 39.2672 120.93 41.1232C120.93 42.9792 120.578 44.7232 119.874 46.3552C119.202 47.9552 118.258 49.3792 117.042 50.6272C115.826 51.8432 114.402 52.8032 112.77 53.5072C111.138 54.1792 109.362 54.5152 107.442 54.5152ZM107.442 47.1712C108.306 47.1712 109.106 46.9472 109.842 46.4992C110.61 46.0512 111.218 45.3792 111.666 44.4832C112.146 43.5872 112.386 42.4672 112.386 41.1232C112.386 39.7792 112.146 38.6592 111.666 37.7632C111.218 36.8672 110.61 36.2112 109.842 35.7952C109.106 35.3472 108.306 35.1232 107.442 35.1232C106.61 35.1232 105.81 35.3472 105.042 35.7952C104.274 36.2112 103.65 36.8672 103.17 37.7632C102.722 38.6592 102.498 39.7792 102.498 41.1232C102.498 42.4672 102.722 43.5872 103.17 44.4832C103.65 45.3792 104.274 46.0512 105.042 46.4992C105.81 46.9472 106.61 47.1712 107.442 47.1712Z" fill="#A047F9"/>
<path d="M130.923 40.4992H145.563L147.915 47.6512H128.523L130.923 40.4992ZM146.379 54.0352L138.315 29.5552L130.011 54.0352H120.843L133.611 19.5712H143.547L156.171 54.0352H146.379ZM185.885 41.1232C185.885 43.6192 185.405 45.8752 184.445 47.8912C183.485 49.9072 182.141 51.5232 180.413 52.7392C178.717 53.9232 176.701 54.5152 174.365 54.5152C173.021 54.5152 171.773 54.2752 170.621 53.7952C169.469 53.3152 168.381 52.5952 167.357 51.6352V63.2992H159.149V28.2112H166.685V31.1392C167.741 30.0192 168.909 29.1712 170.189 28.5952C171.469 28.0192 172.861 27.7312 174.365 27.7312C176.701 27.7312 178.717 28.3392 180.413 29.5552C182.141 30.7392 183.485 32.3552 184.445 34.4032C185.405 36.4192 185.885 38.6592 185.885 41.1232ZM177.341 41.1232C177.341 39.1072 176.829 37.6032 175.805 36.6112C174.781 35.6192 173.645 35.1232 172.397 35.1232C171.565 35.1232 170.765 35.3472 169.997 35.7952C169.229 36.2432 168.605 36.9152 168.125 37.8112C167.677 38.6752 167.453 39.7952 167.453 41.1712C167.453 42.5472 167.693 43.6832 168.173 44.5792C168.653 45.4432 169.261 46.0832 169.997 46.4992C170.765 46.9152 171.565 47.1232 172.397 47.1232C173.645 47.1232 174.781 46.6432 175.805 45.6832C176.829 44.6912 177.341 43.1712 177.341 41.1232ZM216.354 41.1232C216.354 43.6192 215.874 45.8752 214.914 47.8912C213.954 49.9072 212.61 51.5232 210.882 52.7392C209.186 53.9232 207.17 54.5152 204.834 54.5152C203.49 54.5152 202.242 54.2752 201.09 53.7952C199.938 53.3152 198.85 52.5952 197.826 51.6352V63.2992H189.618V28.2112H197.154V31.1392C198.21 30.0192 199.378 29.1712 200.658 28.5952C201.938 28.0192 203.33 27.7312 204.834 27.7312C207.17 27.7312 209.186 28.3392 210.882 29.5552C212.61 30.7392 213.954 32.3552 214.914 34.4032C215.874 36.4192 216.354 38.6592 216.354 41.1232ZM207.81 41.1232C207.81 39.1072 207.298 37.6032 206.274 36.6112C205.25 35.6192 204.114 35.1232 202.866 35.1232C202.034 35.1232 201.234 35.3472 200.466 35.7952C199.698 36.2432 199.074 36.9152 198.594 37.8112C198.146 38.6752 197.922 39.7952 197.922 41.1712C197.922 42.5472 198.162 43.6832 198.642 44.5792C199.122 45.4432 199.73 46.0832 200.466 46.4992C201.234 46.9152 202.034 47.1232 202.866 47.1232C204.114 47.1232 205.25 46.6432 206.274 45.6832C207.298 44.6912 207.81 43.1712 207.81 41.1232ZM228.39 54.0352H220.086V19.5712H228.39V54.0352ZM258.59 28.2112L246.302 63.2992H237.326L240.926 53.7472L230.846 28.2112H239.774L245.342 44.1952L250.334 28.2112H258.59Z" fill="#FFC107"/>
<path d="M268.303 50.5792C268.303 51.6352 267.951 52.5152 267.247 53.2192C266.575 53.9232 265.695 54.2752 264.607 54.2752C263.551 54.2752 262.671 53.9232 261.967 53.2192C261.263 52.5152 260.911 51.6352 260.911 50.5792C260.911 49.4592 261.263 48.5472 261.967 47.8432C262.671 47.1392 263.551 46.7872 264.607 46.7872C265.695 46.7872 266.575 47.1392 267.247 47.8432C267.951 48.5472 268.303 49.4592 268.303 50.5792ZM268.303 32.2432C268.303 33.3312 267.951 34.2272 267.247 34.9312C266.575 35.6032 265.695 35.9392 264.607 35.9392C263.551 35.9392 262.671 35.6032 261.967 34.9312C261.263 34.2272 260.911 33.3312 260.911 32.2432C260.911 31.1232 261.263 30.2272 261.967 29.5552C262.671 28.8512 263.551 28.4992 264.607 28.4992C265.695 28.4992 266.575 28.8512 267.247 29.5552C267.951 30.2272 268.303 31.1232 268.303 32.2432ZM289.891 54.0352H284.611V19.5712H305.539V24.1792H289.891V35.4112H303.235V40.0192H289.891V54.0352ZM315.233 54.0352H310.337V19.5712H315.233V54.0352ZM332.426 54.5152C329.962 54.5152 327.802 53.9712 325.946 52.8832C324.122 51.7632 322.698 50.1952 321.674 48.1792C320.65 46.1632 320.138 43.8272 320.138 41.1712C320.138 38.6432 320.666 36.4032 321.722 34.4512C322.778 32.4992 324.218 30.9632 326.042 29.8432C327.866 28.6912 329.946 28.1152 332.282 28.1152C334.202 28.1152 335.914 28.4832 337.418 29.2192C338.954 29.9232 340.25 30.9312 341.306 32.2432C342.394 33.5232 343.178 35.0432 343.658 36.8032C344.138 38.5312 344.266 40.4352 344.042 42.5152H322.97V39.2992H338.906C338.81 36.9312 338.154 35.0912 336.938 33.7792C335.754 32.4352 334.17 31.7632 332.186 31.7632C330.746 31.7632 329.482 32.1472 328.394 32.9152C327.338 33.6512 326.506 34.7232 325.898 36.1312C325.322 37.5072 325.034 39.1872 325.034 41.1712C325.034 43.1552 325.322 44.8672 325.898 46.3072C326.474 47.7152 327.306 48.8032 328.394 49.5712C329.482 50.3392 330.794 50.7232 332.33 50.7232C334.154 50.7232 335.658 50.2592 336.842 49.3312C338.058 48.4032 338.858 47.1072 339.242 45.4432H344.042C343.434 48.2592 342.09 50.4832 340.01 52.1152C337.962 53.7152 335.434 54.5152 332.426 54.5152ZM350.758 54.0352H345.286L354.31 41.0272L345.862 28.5952H351.478L357.766 38.1952L364.054 28.5952H369.286L360.934 41.1712L369.862 54.0352H364.294L357.478 43.9072L350.758 54.0352ZM378.606 54.0352H373.758V28.5952H378.606V54.0352ZM379.662 22.6912C379.662 23.5872 379.326 24.3552 378.654 24.9952C378.014 25.6032 377.182 25.9072 376.158 25.9072C375.102 25.9072 374.238 25.6032 373.566 24.9952C372.926 24.3552 372.606 23.5872 372.606 22.6912C372.606 21.7312 372.926 20.9632 373.566 20.3872C374.238 19.7792 375.102 19.4752 376.158 19.4752C377.182 19.4752 378.014 19.7792 378.654 20.3872C379.326 20.9632 379.662 21.7312 379.662 22.6912ZM409.625 41.3152C409.625 43.8432 409.161 46.1152 408.233 48.1312C407.305 50.1152 405.993 51.6832 404.297 52.8352C402.633 53.9552 400.649 54.5152 398.345 54.5152C396.553 54.5152 394.921 54.0832 393.449 53.2192C391.977 52.3232 390.777 51.0752 389.849 49.4752V54.0352H385.337V19.5712H390.185V32.9632C391.081 31.3952 392.233 30.1952 393.641 29.3632C395.049 28.5312 396.617 28.1152 398.345 28.1152C400.649 28.1152 402.633 28.6752 404.297 29.7952C405.961 30.9152 407.257 32.4832 408.185 34.4992C409.145 36.4832 409.625 38.7552 409.625 41.3152ZM404.585 41.3152C404.585 38.4352 403.897 36.2272 402.521 34.6912C401.177 33.1552 399.465 32.3872 397.385 32.3872C396.041 32.3872 394.825 32.7392 393.737 33.4432C392.649 34.1152 391.785 35.1072 391.145 36.4192C390.505 37.7312 390.185 39.3312 390.185 41.2192C390.185 43.0752 390.489 44.6752 391.097 46.0192C391.737 47.3632 392.601 48.4032 393.689 49.1392C394.777 49.8432 396.009 50.1952 397.385 50.1952C399.465 50.1952 401.177 49.4272 402.521 47.8912C403.897 46.3552 404.585 44.1632 404.585 41.3152ZM419.436 54.0352H414.54V19.5712H419.436V54.0352ZM436.629 54.5152C434.165 54.5152 432.005 53.9712 430.149 52.8832C428.325 51.7632 426.901 50.1952 425.877 48.1792C424.853 46.1632 424.341 43.8272 424.341 41.1712C424.341 38.6432 424.869 36.4032 425.925 34.4512C426.981 32.4992 428.421 30.9632 430.245 29.8432C432.069 28.6912 434.149 28.1152 436.485 28.1152C438.405 28.1152 440.117 28.4832 441.621 29.2192C443.157 29.9232 444.453 30.9312 445.509 32.2432C446.597 33.5232 447.381 35.0432 447.861 36.8032C448.341 38.5312 448.469 40.4352 448.245 42.5152H427.173V39.2992H443.109C443.013 36.9312 442.357 35.0912 441.141 33.7792C439.957 32.4352 438.373 31.7632 436.389 31.7632C434.949 31.7632 433.685 32.1472 432.597 32.9152C431.541 33.6512 430.709 34.7232 430.101 36.1312C429.525 37.5072 429.237 39.1872 429.237 41.1712C429.237 43.1552 429.525 44.8672 430.101 46.3072C430.677 47.7152 431.509 48.8032 432.597 49.5712C433.685 50.3392 434.997 50.7232 436.533 50.7232C438.357 50.7232 439.861 50.2592 441.045 49.3312C442.261 48.4032 443.061 47.1072 443.445 45.4432H448.245C447.637 48.2592 446.293 50.4832 444.213 52.1152C442.165 53.7152 439.637 54.5152 436.629 54.5152ZM475.766 42.0352H469.094V54.0352H463.814V19.5712H475.766C478.326 19.5712 480.55 20.0032 482.438 20.8672C484.358 21.6992 485.846 22.9472 486.902 24.6112C487.958 26.2432 488.486 28.2752 488.486 30.7072C488.486 33.1072 487.958 35.1552 486.902 36.8512C485.846 38.5152 484.358 39.7952 482.438 40.6912C480.55 41.5872 478.326 42.0352 475.766 42.0352ZM475.718 24.0352H469.094V37.5712H475.718C478.054 37.5712 479.878 36.9632 481.19 35.7472C482.534 34.5312 483.206 32.8672 483.206 30.7552C483.206 28.6112 482.534 26.9632 481.19 25.8112C479.878 24.6272 478.054 24.0352 475.718 24.0352ZM498.231 41.0272V54.0352H493.383V28.5952H497.895V33.9712C498.791 32.2112 500.119 30.8192 501.879 29.7952C503.671 28.7712 505.607 28.2592 507.687 28.2592V33.2992C505.863 33.2032 504.231 33.4112 502.791 33.9232C501.383 34.4352 500.263 35.2832 499.431 36.4672C498.631 37.6192 498.231 39.1392 498.231 41.0272ZM516.372 54.0352H511.524V28.5952H516.372V54.0352ZM517.428 22.6912C517.428 23.5872 517.092 24.3552 516.42 24.9952C515.78 25.6032 514.948 25.9072 513.924 25.9072C512.868 25.9072 512.004 25.6032 511.332 24.9952C510.692 24.3552 510.372 23.5872 510.372 22.6912C510.372 21.7312 510.692 20.9632 511.332 20.3872C512.004 19.7792 512.868 19.4752 513.924 19.4752C514.948 19.4752 515.78 19.7792 516.42 20.3872C517.092 20.9632 517.428 21.7312 517.428 22.6912ZM533.134 54.5632C530.798 54.5632 528.734 54.0032 526.942 52.8832C525.182 51.7632 523.79 50.2112 522.766 48.2272C521.774 46.2112 521.278 43.9072 521.278 41.3152C521.278 38.7552 521.79 36.4832 522.814 34.4992C523.838 32.5152 525.246 30.9632 527.038 29.8432C528.83 28.6912 530.862 28.1152 533.134 28.1152C535.246 28.1152 537.118 28.5632 538.75 29.4592C540.414 30.3232 541.774 31.5712 542.83 33.2032C543.918 34.8032 544.606 36.7072 544.894 38.9152H539.806C539.55 36.8672 538.83 35.2672 537.646 34.1152C536.462 32.9632 534.974 32.3872 533.182 32.3872C531.774 32.3872 530.558 32.7712 529.534 33.5392C528.51 34.2752 527.71 35.2992 527.134 36.6112C526.558 37.9232 526.27 39.4912 526.27 41.3152C526.27 43.1072 526.558 44.6752 527.134 46.0192C527.71 47.3632 528.51 48.4032 529.534 49.1392C530.558 49.8752 531.774 50.2432 533.182 50.2432C535.006 50.2432 536.494 49.6672 537.646 48.5152C538.83 47.3632 539.566 45.7632 539.854 43.7152H544.894C544.638 45.9552 543.982 47.8912 542.926 49.5232C541.87 51.1232 540.51 52.3712 538.846 53.2672C537.182 54.1312 535.278 54.5632 533.134 54.5632ZM554.622 54.0352H549.774V28.5952H554.622V54.0352ZM555.678 22.6912C555.678 23.5872 555.342 24.3552 554.67 24.9952C554.03 25.6032 553.198 25.9072 552.174 25.9072C551.118 25.9072 550.254 25.6032 549.582 24.9952C548.942 24.3552 548.622 23.5872 548.622 22.6912C548.622 21.7312 548.942 20.9632 549.582 20.3872C550.254 19.7792 551.118 19.4752 552.174 19.4752C553.198 19.4752 554.03 19.7792 554.67 20.3872C555.342 20.9632 555.678 21.7312 555.678 22.6912ZM566.2 39.6832V54.0352H561.352V28.5952H565.864V32.8192C566.728 31.4112 567.848 30.2752 569.224 29.4112C570.632 28.5472 572.216 28.1152 573.976 28.1152C576.6 28.1152 578.696 28.9312 580.264 30.5632C581.864 32.1952 582.664 34.5312 582.664 37.5712V54.0352H577.816V39.2032C577.816 37.0272 577.352 35.3472 576.424 34.1632C575.496 32.9792 574.12 32.3872 572.296 32.3872C571.176 32.3872 570.152 32.6912 569.224 33.2992C568.296 33.8752 567.56 34.7072 567.016 35.7952C566.472 36.8832 566.2 38.1792 566.2 39.6832ZM599.278 63.8272C597.07 63.8272 595.134 63.4432 593.47 62.6752C591.806 61.9392 590.494 60.8672 589.534 59.4592C588.606 58.0512 588.094 56.4032 587.998 54.5152H592.702C592.862 56.2752 593.486 57.6192 594.574 58.5472C595.694 59.5072 597.246 59.9872 599.23 59.9872C601.438 59.9872 603.102 59.4112 604.222 58.2592C605.342 57.1392 605.902 55.4752 605.902 53.2672V48.6592C605.166 50.1632 604.11 51.3472 602.734 52.2112C601.39 53.0752 599.854 53.5072 598.126 53.5072C596.014 53.5072 594.142 52.9632 592.51 51.8752C590.878 50.7872 589.598 49.2832 588.67 47.3632C587.742 45.4432 587.278 43.2512 587.278 40.7872C587.278 38.2592 587.726 36.0512 588.622 34.1632C589.518 32.2432 590.766 30.7552 592.366 29.6992C593.998 28.6432 595.87 28.1152 597.982 28.1152C599.806 28.1152 601.422 28.5472 602.83 29.4112C604.238 30.2752 605.374 31.5072 606.238 33.1072V28.5952H610.75V53.1712C610.75 56.5312 609.742 59.1392 607.726 60.9952C605.71 62.8832 602.894 63.8272 599.278 63.8272ZM592.174 40.7872C592.174 43.4112 592.782 45.4912 593.998 47.0272C595.214 48.5312 596.878 49.2832 598.99 49.2832C600.366 49.2832 601.566 48.9472 602.59 48.2752C603.646 47.5712 604.462 46.5952 605.038 45.3472C605.614 44.0672 605.902 42.5952 605.902 40.9312C605.902 38.3072 605.278 36.2112 604.03 34.6432C602.782 33.0752 601.102 32.2912 598.99 32.2912C596.91 32.2912 595.246 33.0592 593.998 34.5952C592.782 36.0992 592.174 38.1632 592.174 40.7872ZM624.038 51.9712C624.038 53.5072 623.654 54.8832 622.886 56.0992C622.15 57.3152 621.11 58.2912 619.766 59.0272C618.454 59.7632 616.918 60.1472 615.158 60.1792V57.4432C616.726 57.3792 618.006 56.9632 618.998 56.1952C619.99 55.4592 620.55 54.4992 620.678 53.3152C620.454 53.3792 620.262 53.4272 620.102 53.4592C619.942 53.4912 619.782 53.5072 619.622 53.5072C618.694 53.5072 617.926 53.1872 617.318 52.5472C616.742 51.9072 616.454 51.1392 616.454 50.2432C616.454 49.1872 616.79 48.3552 617.462 47.7472C618.134 47.1392 618.966 46.8352 619.958 46.8352C621.27 46.8352 622.278 47.2832 622.982 48.1792C623.686 49.0752 624.038 50.3392 624.038 51.9712ZM654.026 54.0352H648.746V24.3232H637.514V19.5712H665.258V24.3232H654.026V54.0352ZM681.854 54.0352V50.0992C681.054 51.5072 679.966 52.5952 678.59 53.3632C677.214 54.1312 675.582 54.5152 673.694 54.5152C671.07 54.5152 668.958 53.8272 667.358 52.4512C665.758 51.0432 664.958 49.1712 664.958 46.8352C664.958 44.3392 665.934 42.4512 667.886 41.1712C669.87 39.8912 672.75 39.2512 676.526 39.2512C677.262 39.2512 677.982 39.2672 678.686 39.2992C679.39 39.3312 680.254 39.4112 681.278 39.5392V37.6672C681.278 35.8752 680.814 34.4832 679.886 33.4912C678.958 32.4672 677.646 31.9552 675.95 31.9552C674.19 31.9552 672.782 32.4672 671.726 33.4912C670.702 34.4832 670.158 35.8592 670.094 37.6192H665.678C665.742 35.6992 666.206 34.0352 667.07 32.6272C667.966 31.1872 669.166 30.0832 670.67 29.3152C672.206 28.5152 673.966 28.1152 675.95 28.1152C679.086 28.1152 681.518 28.9632 683.246 30.6592C685.006 32.3232 685.886 34.6752 685.886 37.7152V54.0352H681.854ZM669.566 46.6912C669.566 48.0032 670.03 49.0592 670.958 49.8592C671.886 50.6592 673.118 51.0592 674.654 51.0592C676.702 51.0592 678.318 50.4832 679.502 49.3312C680.686 48.1472 681.278 46.5792 681.278 44.6272V42.5632C680.35 42.4672 679.534 42.4032 678.83 42.3712C678.126 42.3072 677.454 42.2752 676.814 42.2752C674.382 42.2752 672.558 42.6432 671.342 43.3792C670.158 44.0832 669.566 45.1872 669.566 46.6912ZM697.216 54.0352H692.368V28.5952H697.216V54.0352ZM698.272 22.6912C698.272 23.5872 697.936 24.3552 697.264 24.9952C696.624 25.6032 695.792 25.9072 694.768 25.9072C693.712 25.9072 692.848 25.6032 692.176 24.9952C691.536 24.3552 691.216 23.5872 691.216 22.6912C691.216 21.7312 691.536 20.9632 692.176 20.3872C692.848 19.7792 693.712 19.4752 694.768 19.4752C695.792 19.4752 696.624 19.7792 697.264 20.3872C697.936 20.9632 698.272 21.7312 698.272 22.6912ZM708.842 54.0352H703.946V19.5712H708.842V54.0352ZM726.227 54.5152C724.435 54.5152 722.771 54.1952 721.235 53.5552C719.731 52.8832 718.419 51.9552 717.299 50.7712C716.179 49.5552 715.299 48.1472 714.659 46.5472C714.051 44.9472 713.747 43.2032 713.747 41.3152C713.747 39.4272 714.051 37.6832 714.659 36.0832C715.299 34.4832 716.179 33.0912 717.299 31.9072C718.419 30.6912 719.731 29.7632 721.235 29.1232C722.771 28.4512 724.435 28.1152 726.227 28.1152C728.051 28.1152 729.715 28.4512 731.219 29.1232C732.755 29.7632 734.067 30.6912 735.155 31.9072C736.275 33.0912 737.139 34.4832 737.747 36.0832C738.387 37.6832 738.707 39.4272 738.707 41.3152C738.707 43.2032 738.387 44.9472 737.747 46.5472C737.139 48.1472 736.275 49.5552 735.155 50.7712C734.067 51.9552 732.755 52.8832 731.219 53.5552C729.715 54.1952 728.051 54.5152 726.227 54.5152ZM726.227 50.2432C727.635 50.2432 728.899 49.8912 730.019 49.1872C731.171 48.4512 732.067 47.4112 732.707 46.0672C733.379 44.7232 733.715 43.1392 733.715 41.3152C733.715 39.4592 733.379 37.8752 732.707 36.5632C732.067 35.2192 731.171 34.1952 730.019 33.4912C728.899 32.7872 727.635 32.4352 726.227 32.4352C724.851 32.4352 723.587 32.7872 722.435 33.4912C721.315 34.1952 720.419 35.2192 719.747 36.5632C719.107 37.8752 718.787 39.4592 718.787 41.3152C718.787 43.1392 719.107 44.7232 719.747 46.0672C720.419 47.4112 721.315 48.4512 722.435 49.1872C723.587 49.8912 724.851 50.2432 726.227 50.2432ZM748.497 41.0272V54.0352H743.649V28.5952H748.161V33.9712C749.057 32.2112 750.385 30.8192 752.145 29.7952C753.937 28.7712 755.873 28.2592 757.953 28.2592V33.2992C756.129 33.2032 754.497 33.4112 753.057 33.9232C751.649 34.4352 750.529 35.2832 749.697 36.4672C748.897 37.6192 748.497 39.1392 748.497 41.0272ZM772.16 54.5152C769.696 54.5152 767.536 53.9712 765.68 52.8832C763.856 51.7632 762.432 50.1952 761.408 48.1792C760.384 46.1632 759.872 43.8272 759.872 41.1712C759.872 38.6432 760.4 36.4032 761.456 34.4512C762.512 32.4992 763.952 30.9632 765.776 29.8432C767.6 28.6912 769.68 28.1152 772.016 28.1152C773.936 28.1152 775.648 28.4832 777.152 29.2192C778.688 29.9232 779.984 30.9312 781.04 32.2432C782.128 33.5232 782.912 35.0432 783.392 36.8032C783.872 38.5312 784 40.4352 783.776 42.5152H762.704V39.2992H778.64C778.544 36.9312 777.888 35.0912 776.672 33.7792C775.488 32.4352 773.904 31.7632 771.92 31.7632C770.48 31.7632 769.216 32.1472 768.128 32.9152C767.072 33.6512 766.24 34.7232 765.632 36.1312C765.056 37.5072 764.768 39.1872 764.768 41.1712C764.768 43.1552 765.056 44.8672 765.632 46.3072C766.208 47.7152 767.04 48.8032 768.128 49.5712C769.216 50.3392 770.528 50.7232 772.064 50.7232C773.888 50.7232 775.392 50.2592 776.576 49.3312C777.792 48.4032 778.592 47.1072 778.976 45.4432H783.776C783.168 48.2592 781.824 50.4832 779.744 52.1152C777.696 53.7152 775.168 54.5152 772.16 54.5152ZM786.638 41.3152C786.638 38.7552 787.102 36.4832 788.03 34.4992C788.958 32.4832 790.27 30.9152 791.966 29.7952C793.662 28.6752 795.646 28.1152 797.918 28.1152C799.614 28.1152 801.166 28.5472 802.574 29.4112C804.014 30.2432 805.182 31.4272 806.078 32.9632V19.5712H810.926V54.0352H806.414V49.4752C805.518 51.0752 804.318 52.3232 802.814 53.2192C801.342 54.0832 799.71 54.5152 797.918 54.5152C795.646 54.5152 793.662 53.9552 791.966 52.8352C790.27 51.6832 788.958 50.1152 788.03 48.1312C787.102 46.1152 786.638 43.8432 786.638 41.3152ZM791.678 41.3152C791.678 44.1632 792.35 46.3552 793.694 47.8912C795.038 49.4272 796.766 50.1952 798.878 50.1952C800.286 50.1952 801.518 49.8432 802.574 49.1392C803.662 48.4032 804.51 47.3632 805.118 46.0192C805.758 44.6752 806.078 43.0752 806.078 41.2192C806.078 39.3312 805.758 37.7312 805.118 36.4192C804.478 35.1072 803.614 34.1152 802.526 33.4432C801.438 32.7392 800.222 32.3872 798.878 32.3872C796.766 32.3872 795.038 33.1552 793.694 34.6912C792.35 36.2272 791.678 38.4352 791.678 41.3152ZM834.848 54.0352H830V32.7232H824.384V28.5952H830V26.7232C830 24.2592 830.64 22.3872 831.92 21.1072C833.2 19.7952 835.04 19.1392 837.44 19.1392C838.144 19.1392 838.784 19.2032 839.36 19.3312C839.968 19.4272 840.512 19.5712 840.992 19.7632V23.6992C840.608 23.5392 840.208 23.4272 839.792 23.3632C839.376 23.2992 838.944 23.2672 838.496 23.2672C837.376 23.2672 836.48 23.5552 835.808 24.1312C835.168 24.6752 834.848 25.5552 834.848 26.7712V28.5952H841.952V32.7232H834.848V54.0352ZM855.602 54.5152C853.81 54.5152 852.146 54.1952 850.61 53.5552C849.106 52.8832 847.794 51.9552 846.674 50.7712C845.554 49.5552 844.674 48.1472 844.034 46.5472C843.426 44.9472 843.122 43.2032 843.122 41.3152C843.122 39.4272 843.426 37.6832 844.034 36.0832C844.674 34.4832 845.554 33.0912 846.674 31.9072C847.794 30.6912 849.106 29.7632 850.61 29.1232C852.146 28.4512 853.81 28.1152 855.602 28.1152C857.426 28.1152 859.09 28.4512 860.594 29.1232C862.13 29.7632 863.442 30.6912 864.53 31.9072C865.65 33.0912 866.514 34.4832 867.122 36.0832C867.762 37.6832 868.082 39.4272 868.082 41.3152C868.082 43.2032 867.762 44.9472 867.122 46.5472C866.514 48.1472 865.65 49.5552 864.53 50.7712C863.442 51.9552 862.13 52.8832 860.594 53.5552C859.09 54.1952 857.426 54.5152 855.602 54.5152ZM855.602 50.2432C857.01 50.2432 858.274 49.8912 859.394 49.1872C860.546 48.4512 861.442 47.4112 862.082 46.0672C862.754 44.7232 863.09 43.1392 863.09 41.3152C863.09 39.4592 862.754 37.8752 862.082 36.5632C861.442 35.2192 860.546 34.1952 859.394 33.4912C858.274 32.7872 857.01 32.4352 855.602 32.4352C854.226 32.4352 852.962 32.7872 851.81 33.4912C850.69 34.1952 849.794 35.2192 849.122 36.5632C848.482 37.8752 848.162 39.4592 848.162 41.3152C848.162 43.1392 848.482 44.7232 849.122 46.0672C849.794 47.4112 850.69 48.4512 851.81 49.1872C852.962 49.8912 854.226 50.2432 855.602 50.2432ZM877.872 41.0272V54.0352H873.024V28.5952H877.536V33.9712C878.432 32.2112 879.76 30.8192 881.52 29.7952C883.312 28.7712 885.248 28.2592 887.328 28.2592V33.2992C885.504 33.2032 883.872 33.4112 882.432 33.9232C881.024 34.4352 879.904 35.2832 879.072 36.4672C878.272 37.6192 877.872 39.1392 877.872 41.0272ZM915.932 41.1232V54.0352H910.604V41.1232L898.22 19.5712H903.98L913.436 36.1792L922.988 19.5712H928.364L915.932 41.1232ZM938.196 54.5152C936.404 54.5152 934.74 54.1952 933.204 53.5552C931.7 52.8832 930.388 51.9552 929.268 50.7712C928.148 49.5552 927.268 48.1472 926.628 46.5472C926.02 44.9472 925.716 43.2032 925.716 41.3152C925.716 39.4272 926.02 37.6832 926.628 36.0832C927.268 34.4832 928.148 33.0912 929.268 31.9072C930.388 30.6912 931.7 29.7632 933.204 29.1232C934.74 28.4512 936.404 28.1152 938.196 28.1152C940.02 28.1152 941.684 28.4512 943.188 29.1232C944.724 29.7632 946.036 30.6912 947.124 31.9072C948.244 33.0912 949.108 34.4832 949.716 36.0832C950.356 37.6832 950.676 39.4272 950.676 41.3152C950.676 43.2032 950.356 44.9472 949.716 46.5472C949.108 48.1472 948.244 49.5552 947.124 50.7712C946.036 51.9552 944.724 52.8832 943.188 53.5552C941.684 54.1952 940.02 54.5152 938.196 54.5152ZM938.196 50.2432C939.604 50.2432 940.868 49.8912 941.988 49.1872C943.14 48.4512 944.036 47.4112 944.676 46.0672C945.348 44.7232 945.684 43.1392 945.684 41.3152C945.684 39.4592 945.348 37.8752 944.676 36.5632C944.036 35.2192 943.14 34.1952 941.988 33.4912C940.868 32.7872 939.604 32.4352 938.196 32.4352C936.82 32.4352 935.556 32.7872 934.404 33.4912C933.284 34.1952 932.388 35.2192 931.716 36.5632C931.076 37.8752 930.756 39.4592 930.756 41.3152C930.756 43.1392 931.076 44.7232 931.716 46.0672C932.388 47.4112 933.284 48.4512 934.404 49.1872C935.556 49.8912 936.82 50.2432 938.196 50.2432ZM971.506 43.5712V28.5952H976.354V54.0352H971.842V50.0512C971.202 51.3312 970.178 52.4032 968.77 53.2672C967.362 54.0992 965.794 54.5152 964.066 54.5152C962.37 54.5152 960.85 54.1792 959.506 53.5072C958.194 52.8352 957.17 51.7952 956.434 50.3872C955.73 48.9472 955.378 47.1392 955.378 44.9632V28.5952H960.226V44.0032C960.226 46.2112 960.722 47.8112 961.714 48.8032C962.706 49.7632 964.002 50.2432 965.602 50.2432C966.69 50.2432 967.682 49.9712 968.578 49.4272C969.474 48.8512 970.178 48.0672 970.69 47.0752C971.234 46.0512 971.506 44.8832 971.506 43.5712Z" fill="white"/>
<path d="M159.422 126.035V108.581H165.643C167.001 108.581 168.126 108.828 169.018 109.322C169.91 109.816 170.578 110.493 171.021 111.35C171.464 112.203 171.686 113.163 171.686 114.231C171.686 115.305 171.461 116.271 171.012 117.129C170.569 117.981 169.899 118.657 169.001 119.157C168.109 119.652 166.987 119.899 165.635 119.899H161.356V117.666H165.396C166.254 117.666 166.95 117.518 167.484 117.223C168.018 116.922 168.41 116.512 168.66 115.995C168.91 115.478 169.035 114.89 169.035 114.231C169.035 113.572 168.91 112.987 168.66 112.475C168.41 111.964 168.015 111.564 167.475 111.274C166.941 110.984 166.237 110.839 165.362 110.839H162.055V126.035H159.422ZM177.117 108.581V126.035H174.569V108.581H177.117ZM184.355 126.325C183.525 126.325 182.775 126.172 182.105 125.865C181.434 125.552 180.903 125.1 180.511 124.51C180.125 123.919 179.931 123.194 179.931 122.336C179.931 121.598 180.074 120.99 180.358 120.512C180.642 120.035 181.025 119.657 181.508 119.379C181.991 119.1 182.531 118.89 183.127 118.748C183.724 118.606 184.332 118.498 184.951 118.424C185.735 118.333 186.372 118.26 186.86 118.203C187.349 118.14 187.704 118.041 187.926 117.904C188.147 117.768 188.258 117.547 188.258 117.24V117.18C188.258 116.436 188.048 115.859 187.627 115.45C187.213 115.041 186.593 114.836 185.77 114.836C184.912 114.836 184.235 115.027 183.741 115.407C183.252 115.782 182.914 116.2 182.727 116.66L180.332 116.115C180.616 115.319 181.031 114.677 181.576 114.189C182.127 113.694 182.761 113.336 183.477 113.115C184.193 112.887 184.946 112.774 185.735 112.774C186.258 112.774 186.812 112.836 187.397 112.961C187.988 113.081 188.539 113.302 189.051 113.626C189.568 113.95 189.991 114.413 190.321 115.015C190.65 115.612 190.815 116.387 190.815 117.342V126.035H188.326V124.245H188.224C188.059 124.575 187.812 124.899 187.483 125.217C187.153 125.535 186.73 125.799 186.213 126.01C185.696 126.22 185.076 126.325 184.355 126.325ZM184.909 124.279C185.613 124.279 186.216 124.14 186.716 123.862C187.221 123.583 187.605 123.22 187.866 122.771C188.133 122.316 188.267 121.831 188.267 121.314V119.626C188.176 119.717 188 119.802 187.738 119.882C187.483 119.956 187.19 120.021 186.86 120.078C186.531 120.129 186.21 120.177 185.897 120.223C185.585 120.262 185.324 120.297 185.113 120.325C184.619 120.387 184.167 120.493 183.758 120.64C183.355 120.788 183.031 121.001 182.787 121.279C182.548 121.552 182.429 121.916 182.429 122.37C182.429 123.001 182.662 123.478 183.127 123.802C183.593 124.12 184.187 124.279 184.909 124.279ZM196.757 118.262V126.035H194.209V112.944H196.655V115.075H196.817C197.118 114.382 197.59 113.825 198.232 113.404C198.88 112.984 199.695 112.774 200.678 112.774C201.57 112.774 202.351 112.961 203.022 113.336C203.692 113.706 204.212 114.257 204.581 114.99C204.951 115.723 205.135 116.629 205.135 117.708V126.035H202.587V118.015C202.587 117.066 202.34 116.325 201.846 115.791C201.351 115.251 200.672 114.981 199.809 114.981C199.218 114.981 198.692 115.109 198.232 115.365C197.777 115.62 197.417 115.995 197.15 116.49C196.888 116.978 196.757 117.569 196.757 118.262ZM218.363 116.14L216.053 116.549C215.956 116.254 215.803 115.973 215.593 115.706C215.388 115.439 215.11 115.22 214.757 115.049C214.405 114.879 213.965 114.794 213.436 114.794C212.715 114.794 212.113 114.956 211.63 115.279C211.147 115.598 210.905 116.01 210.905 116.515C210.905 116.953 211.067 117.305 211.391 117.572C211.715 117.839 212.238 118.058 212.959 118.228L215.039 118.706C216.243 118.984 217.141 119.413 217.732 119.993C218.323 120.572 218.618 121.325 218.618 122.251C218.618 123.035 218.391 123.734 217.936 124.348C217.488 124.956 216.86 125.433 216.053 125.779C215.252 126.126 214.323 126.299 213.266 126.299C211.8 126.299 210.604 125.987 209.678 125.362C208.752 124.731 208.184 123.836 207.973 122.677L210.436 122.302C210.59 122.944 210.905 123.43 211.382 123.76C211.86 124.083 212.482 124.245 213.249 124.245C214.084 124.245 214.752 124.072 215.252 123.725C215.752 123.373 216.002 122.944 216.002 122.439C216.002 122.029 215.848 121.686 215.542 121.407C215.24 121.129 214.777 120.919 214.152 120.777L211.936 120.291C210.715 120.012 209.811 119.569 209.226 118.961C208.647 118.353 208.357 117.583 208.357 116.652C208.357 115.879 208.573 115.203 209.005 114.623C209.436 114.044 210.033 113.592 210.794 113.268C211.556 112.939 212.428 112.774 213.411 112.774C214.826 112.774 215.939 113.081 216.752 113.694C217.564 114.302 218.101 115.118 218.363 116.14ZM233.882 112.944V114.99H226.732V112.944H233.882ZM228.65 109.808H231.198V122.191C231.198 122.686 231.272 123.058 231.419 123.308C231.567 123.552 231.757 123.72 231.99 123.811C232.229 123.896 232.488 123.939 232.766 123.939C232.971 123.939 233.15 123.924 233.303 123.896C233.456 123.868 233.576 123.845 233.661 123.828L234.121 125.933C233.973 125.99 233.763 126.047 233.49 126.103C233.218 126.166 232.877 126.2 232.468 126.206C231.797 126.217 231.172 126.098 230.593 125.848C230.013 125.598 229.544 125.211 229.186 124.689C228.828 124.166 228.65 123.51 228.65 122.72V109.808ZM239.531 118.262V126.035H236.983V108.581H239.497V115.075H239.659C239.966 114.37 240.434 113.811 241.065 113.396C241.696 112.981 242.52 112.774 243.537 112.774C244.434 112.774 245.218 112.958 245.889 113.328C246.565 113.697 247.088 114.248 247.457 114.981C247.832 115.708 248.02 116.618 248.02 117.708V126.035H245.471V118.015C245.471 117.055 245.224 116.311 244.73 115.782C244.235 115.248 243.548 114.981 242.667 114.981C242.065 114.981 241.525 115.109 241.048 115.365C240.576 115.62 240.204 115.995 239.931 116.49C239.664 116.978 239.531 117.569 239.531 118.262ZM255.23 126.325C254.4 126.325 253.65 126.172 252.98 125.865C252.309 125.552 251.778 125.1 251.386 124.51C251 123.919 250.806 123.194 250.806 122.336C250.806 121.598 250.949 120.99 251.233 120.512C251.517 120.035 251.9 119.657 252.383 119.379C252.866 119.1 253.406 118.89 254.002 118.748C254.599 118.606 255.207 118.498 255.826 118.424C256.61 118.333 257.247 118.26 257.735 118.203C258.224 118.14 258.579 118.041 258.801 117.904C259.022 117.768 259.133 117.547 259.133 117.24V117.18C259.133 116.436 258.923 115.859 258.502 115.45C258.088 115.041 257.468 114.836 256.645 114.836C255.787 114.836 255.11 115.027 254.616 115.407C254.127 115.782 253.789 116.2 253.602 116.66L251.207 116.115C251.491 115.319 251.906 114.677 252.451 114.189C253.002 113.694 253.636 113.336 254.352 113.115C255.068 112.887 255.821 112.774 256.61 112.774C257.133 112.774 257.687 112.836 258.272 112.961C258.863 113.081 259.414 113.302 259.926 113.626C260.443 113.95 260.866 114.413 261.196 115.015C261.525 115.612 261.69 116.387 261.69 117.342V126.035H259.201V124.245H259.099C258.934 124.575 258.687 124.899 258.358 125.217C258.028 125.535 257.605 125.799 257.088 126.01C256.571 126.22 255.951 126.325 255.23 126.325ZM255.784 124.279C256.488 124.279 257.091 124.14 257.591 123.862C258.096 123.583 258.48 123.22 258.741 122.771C259.008 122.316 259.142 121.831 259.142 121.314V119.626C259.051 119.717 258.875 119.802 258.613 119.882C258.358 119.956 258.065 120.021 257.735 120.078C257.406 120.129 257.085 120.177 256.772 120.223C256.46 120.262 256.199 120.297 255.988 120.325C255.494 120.387 255.042 120.493 254.633 120.64C254.23 120.788 253.906 121.001 253.662 121.279C253.423 121.552 253.304 121.916 253.304 122.37C253.304 123.001 253.537 123.478 254.002 123.802C254.468 124.12 255.062 124.279 255.784 124.279ZM271.195 112.944V114.99H264.044V112.944H271.195ZM265.962 109.808H268.51V122.191C268.51 122.686 268.584 123.058 268.732 123.308C268.88 123.552 269.07 123.72 269.303 123.811C269.542 123.896 269.8 123.939 270.078 123.939C270.283 123.939 270.462 123.924 270.615 123.896C270.769 123.868 270.888 123.845 270.973 123.828L271.434 125.933C271.286 125.99 271.076 126.047 270.803 126.103C270.53 126.166 270.189 126.2 269.78 126.206C269.11 126.217 268.485 126.098 267.905 125.848C267.326 125.598 266.857 125.211 266.499 124.689C266.141 124.166 265.962 123.51 265.962 122.72V109.808ZM284.175 126.325C283.346 126.325 282.596 126.172 281.925 125.865C281.255 125.552 280.723 125.1 280.331 124.51C279.945 123.919 279.752 123.194 279.752 122.336C279.752 121.598 279.894 120.99 280.178 120.512C280.462 120.035 280.846 119.657 281.328 119.379C281.811 119.1 282.351 118.89 282.948 118.748C283.544 118.606 284.152 118.498 284.772 118.424C285.556 118.333 286.192 118.26 286.681 118.203C287.169 118.14 287.525 118.041 287.746 117.904C287.968 117.768 288.078 117.547 288.078 117.24V117.18C288.078 116.436 287.868 115.859 287.448 115.45C287.033 115.041 286.414 114.836 285.59 114.836C284.732 114.836 284.056 115.027 283.561 115.407C283.073 115.782 282.735 116.2 282.547 116.66L280.152 116.115C280.436 115.319 280.851 114.677 281.397 114.189C281.948 113.694 282.581 113.336 283.297 113.115C284.013 112.887 284.766 112.774 285.556 112.774C286.078 112.774 286.632 112.836 287.218 112.961C287.809 113.081 288.36 113.302 288.871 113.626C289.388 113.95 289.811 114.413 290.141 115.015C290.471 115.612 290.635 116.387 290.635 117.342V126.035H288.147V124.245H288.044C287.88 124.575 287.632 124.899 287.303 125.217C286.973 125.535 286.55 125.799 286.033 126.01C285.516 126.22 284.897 126.325 284.175 126.325ZM284.729 124.279C285.434 124.279 286.036 124.14 286.536 123.862C287.042 123.583 287.425 123.22 287.686 122.771C287.953 122.316 288.087 121.831 288.087 121.314V119.626C287.996 119.717 287.82 119.802 287.559 119.882C287.303 119.956 287.01 120.021 286.681 120.078C286.351 120.129 286.03 120.177 285.718 120.223C285.405 120.262 285.144 120.297 284.934 120.325C284.439 120.387 283.988 120.493 283.578 120.64C283.175 120.788 282.851 121.001 282.607 121.279C282.368 121.552 282.249 121.916 282.249 122.37C282.249 123.001 282.482 123.478 282.948 123.802C283.414 124.12 284.007 124.279 284.729 124.279ZM294.029 126.035V112.944H296.493V115.024H296.629C296.868 114.319 297.288 113.765 297.89 113.362C298.498 112.953 299.186 112.748 299.953 112.748C300.112 112.748 300.299 112.754 300.515 112.765C300.737 112.777 300.91 112.791 301.035 112.808V115.245C300.933 115.217 300.751 115.186 300.49 115.152C300.228 115.112 299.967 115.092 299.706 115.092C299.103 115.092 298.566 115.22 298.095 115.475C297.629 115.725 297.26 116.075 296.987 116.524C296.714 116.967 296.578 117.473 296.578 118.041V126.035H294.029ZM308.414 126.299C307.124 126.299 306.013 126.024 305.081 125.473C304.155 124.916 303.439 124.135 302.934 123.129C302.434 122.118 302.184 120.933 302.184 119.575C302.184 118.234 302.434 117.052 302.934 116.029C303.439 115.007 304.144 114.208 305.047 113.635C305.956 113.061 307.019 112.774 308.235 112.774C308.973 112.774 309.689 112.896 310.382 113.14C311.076 113.385 311.698 113.768 312.249 114.291C312.8 114.814 313.235 115.493 313.553 116.328C313.871 117.157 314.03 118.166 314.03 119.353V120.257H303.624V118.348H311.533C311.533 117.677 311.397 117.083 311.124 116.566C310.851 116.044 310.468 115.632 309.973 115.331C309.485 115.029 308.911 114.879 308.252 114.879C307.536 114.879 306.911 115.055 306.377 115.407C305.848 115.754 305.439 116.208 305.15 116.771C304.865 117.328 304.723 117.933 304.723 118.586V120.078C304.723 120.953 304.877 121.697 305.184 122.311C305.496 122.924 305.931 123.393 306.488 123.717C307.044 124.035 307.695 124.194 308.439 124.194C308.922 124.194 309.363 124.126 309.76 123.99C310.158 123.848 310.502 123.637 310.792 123.359C311.081 123.081 311.303 122.737 311.456 122.328L313.868 122.762C313.675 123.473 313.328 124.095 312.828 124.629C312.334 125.157 311.712 125.569 310.962 125.865C310.218 126.154 309.368 126.299 308.414 126.299ZM328.723 126.299C327.456 126.299 326.365 126.012 325.451 125.439C324.542 124.859 323.843 124.061 323.354 123.044C322.865 122.027 322.621 120.862 322.621 119.549C322.621 118.22 322.871 117.047 323.371 116.029C323.871 115.007 324.576 114.208 325.485 113.635C326.394 113.061 327.465 112.774 328.698 112.774C329.692 112.774 330.578 112.958 331.357 113.328C332.135 113.691 332.763 114.203 333.24 114.862C333.723 115.521 334.01 116.291 334.101 117.172H331.621C331.485 116.558 331.172 116.029 330.684 115.586C330.201 115.143 329.553 114.922 328.74 114.922C328.03 114.922 327.408 115.109 326.874 115.484C326.346 115.853 325.934 116.382 325.638 117.069C325.343 117.751 325.195 118.558 325.195 119.49C325.195 120.444 325.34 121.268 325.63 121.961C325.919 122.654 326.328 123.191 326.857 123.572C327.391 123.953 328.019 124.143 328.74 124.143C329.223 124.143 329.661 124.055 330.053 123.879C330.451 123.697 330.783 123.439 331.05 123.103C331.323 122.768 331.513 122.365 331.621 121.893H334.101C334.01 122.74 333.735 123.495 333.275 124.16C332.814 124.825 332.198 125.348 331.425 125.728C330.658 126.109 329.757 126.299 328.723 126.299ZM340.636 126.325C339.806 126.325 339.056 126.172 338.386 125.865C337.716 125.552 337.184 125.1 336.792 124.51C336.406 123.919 336.213 123.194 336.213 122.336C336.213 121.598 336.355 120.99 336.639 120.512C336.923 120.035 337.306 119.657 337.789 119.379C338.272 119.1 338.812 118.89 339.409 118.748C340.005 118.606 340.613 118.498 341.233 118.424C342.017 118.333 342.653 118.26 343.142 118.203C343.63 118.14 343.985 118.041 344.207 117.904C344.429 117.768 344.539 117.547 344.539 117.24V117.18C344.539 116.436 344.329 115.859 343.909 115.45C343.494 115.041 342.875 114.836 342.051 114.836C341.193 114.836 340.517 115.027 340.022 115.407C339.534 115.782 339.196 116.2 339.008 116.66L336.613 116.115C336.897 115.319 337.312 114.677 337.858 114.189C338.409 113.694 339.042 113.336 339.758 113.115C340.474 112.887 341.227 112.774 342.017 112.774C342.539 112.774 343.093 112.836 343.679 112.961C344.27 113.081 344.821 113.302 345.332 113.626C345.849 113.95 346.272 114.413 346.602 115.015C346.931 115.612 347.096 116.387 347.096 117.342V126.035H344.608V124.245H344.505C344.341 124.575 344.093 124.899 343.764 125.217C343.434 125.535 343.011 125.799 342.494 126.01C341.977 126.22 341.358 126.325 340.636 126.325ZM341.19 124.279C341.895 124.279 342.497 124.14 342.997 123.862C343.502 123.583 343.886 123.22 344.147 122.771C344.414 122.316 344.548 121.831 344.548 121.314V119.626C344.457 119.717 344.281 119.802 344.02 119.882C343.764 119.956 343.471 120.021 343.142 120.078C342.812 120.129 342.491 120.177 342.179 120.223C341.866 120.262 341.605 120.297 341.395 120.325C340.9 120.387 340.449 120.493 340.039 120.64C339.636 120.788 339.312 121.001 339.068 121.279C338.829 121.552 338.71 121.916 338.71 122.37C338.71 123.001 338.943 123.478 339.409 123.802C339.875 124.12 340.468 124.279 341.19 124.279ZM350.49 126.035V112.944H352.953V115.024H353.09C353.328 114.319 353.749 113.765 354.351 113.362C354.959 112.953 355.647 112.748 356.414 112.748C356.573 112.748 356.76 112.754 356.976 112.765C357.198 112.777 357.371 112.791 357.496 112.808V115.245C357.394 115.217 357.212 115.186 356.951 115.152C356.689 115.112 356.428 115.092 356.167 115.092C355.564 115.092 355.027 115.22 354.556 115.475C354.09 115.725 353.721 116.075 353.448 116.524C353.175 116.967 353.039 117.473 353.039 118.041V126.035H350.49ZM364.875 126.299C363.585 126.299 362.474 126.024 361.542 125.473C360.616 124.916 359.9 124.135 359.395 123.129C358.895 122.118 358.645 120.933 358.645 119.575C358.645 118.234 358.895 117.052 359.395 116.029C359.9 115.007 360.605 114.208 361.508 113.635C362.417 113.061 363.48 112.774 364.696 112.774C365.434 112.774 366.15 112.896 366.843 113.14C367.537 113.385 368.159 113.768 368.71 114.291C369.261 114.814 369.696 115.493 370.014 116.328C370.332 117.157 370.491 118.166 370.491 119.353V120.257H360.085V118.348H367.994C367.994 117.677 367.858 117.083 367.585 116.566C367.312 116.044 366.929 115.632 366.434 115.331C365.946 115.029 365.372 114.879 364.713 114.879C363.997 114.879 363.372 115.055 362.838 115.407C362.309 115.754 361.9 116.208 361.61 116.771C361.326 117.328 361.184 117.933 361.184 118.586V120.078C361.184 120.953 361.338 121.697 361.645 122.311C361.957 122.924 362.392 123.393 362.949 123.717C363.505 124.035 364.156 124.194 364.9 124.194C365.383 124.194 365.824 124.126 366.221 123.99C366.619 123.848 366.963 123.637 367.252 123.359C367.542 123.081 367.764 122.737 367.917 122.328L370.329 122.762C370.136 123.473 369.789 124.095 369.289 124.629C368.795 125.157 368.173 125.569 367.423 125.865C366.679 126.154 365.829 126.299 364.875 126.299ZM379.549 112.944V114.99H372.151V112.944H379.549ZM374.179 126.035V111.427C374.179 110.609 374.358 109.93 374.716 109.39C375.074 108.845 375.549 108.439 376.14 108.172C376.73 107.899 377.373 107.762 378.066 107.762C378.577 107.762 379.015 107.805 379.378 107.89C379.742 107.97 380.012 108.044 380.188 108.112L379.591 110.174C379.472 110.14 379.319 110.1 379.131 110.055C378.944 110.004 378.716 109.978 378.449 109.978C377.83 109.978 377.387 110.132 377.12 110.439C376.858 110.745 376.728 111.189 376.728 111.768V126.035H374.179ZM390.471 120.606V112.944H393.027V126.035H390.522V123.768H390.385C390.084 124.467 389.601 125.049 388.936 125.515C388.277 125.975 387.456 126.206 386.473 126.206C385.632 126.206 384.888 126.021 384.24 125.652C383.598 125.277 383.093 124.723 382.723 123.99C382.36 123.257 382.178 122.35 382.178 121.271V112.944H384.726V120.964C384.726 121.856 384.973 122.566 385.468 123.095C385.962 123.623 386.604 123.887 387.394 123.887C387.871 123.887 388.346 123.768 388.817 123.529C389.294 123.291 389.689 122.93 390.002 122.447C390.32 121.964 390.476 121.35 390.471 120.606ZM399 108.581V126.035H396.451V108.581H399ZM404.976 108.581V126.035H402.428V108.581H404.976ZM410.015 130.944C409.635 130.944 409.288 130.913 408.975 130.85C408.663 130.794 408.43 130.731 408.277 130.663L408.89 128.575C409.356 128.7 409.771 128.754 410.135 128.737C410.498 128.72 410.819 128.583 411.098 128.328C411.382 128.072 411.632 127.654 411.848 127.075L412.163 126.206L407.373 112.944H410.1L413.416 123.103H413.552L416.868 112.944H419.603L414.208 127.782C413.958 128.464 413.64 129.041 413.254 129.512C412.868 129.99 412.407 130.348 411.873 130.586C411.339 130.825 410.72 130.944 410.015 130.944ZM433.864 126.299C432.597 126.299 431.506 126.012 430.591 125.439C429.682 124.859 428.983 124.061 428.495 123.044C428.006 122.027 427.762 120.862 427.762 119.549C427.762 118.22 428.012 117.047 428.512 116.029C429.012 115.007 429.716 114.208 430.625 113.635C431.534 113.061 432.605 112.774 433.838 112.774C434.833 112.774 435.719 112.958 436.498 113.328C437.276 113.691 437.904 114.203 438.381 114.862C438.864 115.521 439.151 116.291 439.242 117.172H436.762C436.625 116.558 436.313 116.029 435.824 115.586C435.341 115.143 434.694 114.922 433.881 114.922C433.171 114.922 432.549 115.109 432.015 115.484C431.486 115.853 431.074 116.382 430.779 117.069C430.483 117.751 430.336 118.558 430.336 119.49C430.336 120.444 430.48 121.268 430.77 121.961C431.06 122.654 431.469 123.191 431.998 123.572C432.532 123.953 433.159 124.143 433.881 124.143C434.364 124.143 434.801 124.055 435.194 123.879C435.591 123.697 435.924 123.439 436.191 123.103C436.463 122.768 436.654 122.365 436.762 121.893H439.242C439.151 122.74 438.875 123.495 438.415 124.16C437.955 124.825 437.338 125.348 436.566 125.728C435.799 126.109 434.898 126.299 433.864 126.299ZM441.967 126.035V112.944H444.43V115.024H444.566C444.805 114.319 445.225 113.765 445.828 113.362C446.436 112.953 447.123 112.748 447.89 112.748C448.049 112.748 448.237 112.754 448.453 112.765C448.674 112.777 448.848 112.791 448.973 112.808V115.245C448.87 115.217 448.689 115.186 448.427 115.152C448.166 115.112 447.904 115.092 447.643 115.092C447.041 115.092 446.504 115.22 446.032 115.475C445.566 115.725 445.197 116.075 444.924 116.524C444.652 116.967 444.515 117.473 444.515 118.041V126.035H441.967ZM454.87 126.325C454.041 126.325 453.291 126.172 452.62 125.865C451.95 125.552 451.419 125.1 451.027 124.51C450.64 123.919 450.447 123.194 450.447 122.336C450.447 121.598 450.589 120.99 450.873 120.512C451.157 120.035 451.541 119.657 452.024 119.379C452.507 119.1 453.047 118.89 453.643 118.748C454.24 118.606 454.848 118.498 455.467 118.424C456.251 118.333 456.887 118.26 457.376 118.203C457.865 118.14 458.22 118.041 458.441 117.904C458.663 117.768 458.774 117.547 458.774 117.24V117.18C458.774 116.436 458.564 115.859 458.143 115.45C457.728 115.041 457.109 114.836 456.285 114.836C455.427 114.836 454.751 115.027 454.257 115.407C453.768 115.782 453.43 116.2 453.243 116.66L450.848 116.115C451.132 115.319 451.547 114.677 452.092 114.189C452.643 113.694 453.277 113.336 453.993 113.115C454.708 112.887 455.461 112.774 456.251 112.774C456.774 112.774 457.328 112.836 457.913 112.961C458.504 113.081 459.055 113.302 459.566 113.626C460.083 113.95 460.507 114.413 460.836 115.015C461.166 115.612 461.331 116.387 461.331 117.342V126.035H458.842V124.245H458.74C458.575 124.575 458.328 124.899 457.998 125.217C457.669 125.535 457.245 125.799 456.728 126.01C456.211 126.22 455.592 126.325 454.87 126.325ZM455.424 124.279C456.129 124.279 456.731 124.14 457.231 123.862C457.737 123.583 458.12 123.22 458.382 122.771C458.649 122.316 458.782 121.831 458.782 121.314V119.626C458.691 119.717 458.515 119.802 458.254 119.882C457.998 119.956 457.706 120.021 457.376 120.078C457.047 120.129 456.725 120.177 456.413 120.223C456.1 120.262 455.839 120.297 455.629 120.325C455.135 120.387 454.683 120.493 454.274 120.64C453.87 120.788 453.547 121.001 453.302 121.279C453.064 121.552 452.944 121.916 452.944 122.37C452.944 123.001 453.177 123.478 453.643 123.802C454.109 124.12 454.703 124.279 455.424 124.279ZM470.955 112.944V114.99H463.557V112.944H470.955ZM465.586 126.035V111.427C465.586 110.609 465.765 109.93 466.123 109.39C466.48 108.845 466.955 108.439 467.546 108.172C468.137 107.899 468.779 107.762 469.472 107.762C469.983 107.762 470.421 107.805 470.784 107.89C471.148 107.97 471.418 108.044 471.594 108.112L470.998 110.174C470.878 110.14 470.725 110.1 470.537 110.055C470.35 110.004 470.123 109.978 469.855 109.978C469.236 109.978 468.793 110.132 468.526 110.439C468.265 110.745 468.134 111.189 468.134 111.768V126.035H465.586ZM479.695 112.944V114.99H472.544V112.944H479.695ZM474.462 109.808H477.01V122.191C477.01 122.686 477.084 123.058 477.232 123.308C477.38 123.552 477.57 123.72 477.803 123.811C478.042 123.896 478.3 123.939 478.578 123.939C478.783 123.939 478.962 123.924 479.115 123.896C479.269 123.868 479.388 123.845 479.473 123.828L479.934 125.933C479.786 125.99 479.576 126.047 479.303 126.103C479.03 126.166 478.689 126.2 478.28 126.206C477.61 126.217 476.985 126.098 476.405 125.848C475.826 125.598 475.357 125.211 474.999 124.689C474.641 124.166 474.462 123.51 474.462 122.72V109.808ZM488.015 126.299C486.725 126.299 485.615 126.024 484.683 125.473C483.757 124.916 483.041 124.135 482.535 123.129C482.035 122.118 481.785 120.933 481.785 119.575C481.785 118.234 482.035 117.052 482.535 116.029C483.041 115.007 483.745 114.208 484.649 113.635C485.558 113.061 486.62 112.774 487.836 112.774C488.575 112.774 489.291 112.896 489.984 113.14C490.677 113.385 491.299 113.768 491.85 114.291C492.402 114.814 492.836 115.493 493.154 116.328C493.473 117.157 493.632 118.166 493.632 119.353V120.257H483.225V118.348H491.135C491.135 117.677 490.998 117.083 490.725 116.566C490.453 116.044 490.069 115.632 489.575 115.331C489.086 115.029 488.512 114.879 487.853 114.879C487.137 114.879 486.512 115.055 485.978 115.407C485.45 115.754 485.041 116.208 484.751 116.771C484.467 117.328 484.325 117.933 484.325 118.586V120.078C484.325 120.953 484.478 121.697 484.785 122.311C485.098 122.924 485.532 123.393 486.089 123.717C486.646 124.035 487.297 124.194 488.041 124.194C488.524 124.194 488.964 124.126 489.362 123.99C489.76 123.848 490.103 123.637 490.393 123.359C490.683 123.081 490.904 122.737 491.058 122.328L493.47 122.762C493.277 123.473 492.93 124.095 492.43 124.629C491.936 125.157 491.314 125.569 490.564 125.865C489.819 126.154 488.97 126.299 488.015 126.299ZM501.36 126.291C500.303 126.291 499.36 126.021 498.53 125.481C497.706 124.936 497.059 124.16 496.587 123.154C496.121 122.143 495.888 120.93 495.888 119.515C495.888 118.1 496.124 116.89 496.596 115.885C497.073 114.879 497.726 114.109 498.556 113.575C499.385 113.041 500.326 112.774 501.377 112.774C502.189 112.774 502.843 112.91 503.337 113.183C503.837 113.45 504.223 113.762 504.496 114.12C504.775 114.478 504.99 114.794 505.144 115.066H505.297V108.581H507.846V126.035H505.357V123.998H505.144C504.99 124.277 504.769 124.595 504.479 124.953C504.195 125.311 503.803 125.623 503.303 125.89C502.803 126.157 502.155 126.291 501.36 126.291ZM501.922 124.118C502.655 124.118 503.275 123.924 503.78 123.538C504.292 123.146 504.678 122.603 504.939 121.91C505.206 121.217 505.34 120.41 505.34 119.49C505.34 118.581 505.209 117.785 504.948 117.103C504.686 116.422 504.303 115.89 503.797 115.51C503.292 115.129 502.667 114.939 501.922 114.939C501.155 114.939 500.516 115.137 500.005 115.535C499.493 115.933 499.107 116.475 498.846 117.163C498.59 117.85 498.462 118.626 498.462 119.49C498.462 120.365 498.593 121.152 498.854 121.85C499.115 122.549 499.502 123.103 500.013 123.512C500.53 123.916 501.167 124.118 501.922 124.118ZM523.945 112.944V114.99H516.794V112.944H523.945ZM518.712 109.808H521.26V122.191C521.26 122.686 521.334 123.058 521.482 123.308C521.63 123.552 521.82 123.72 522.053 123.811C522.292 123.896 522.55 123.939 522.828 123.939C523.033 123.939 523.212 123.924 523.365 123.896C523.519 123.868 523.638 123.845 523.723 123.828L524.184 125.933C524.036 125.99 523.826 126.047 523.553 126.103C523.28 126.166 522.939 126.2 522.53 126.206C521.86 126.217 521.235 126.098 520.655 125.848C520.076 125.598 519.607 125.211 519.249 124.689C518.891 124.166 518.712 123.51 518.712 122.72V109.808ZM532.137 126.299C530.91 126.299 529.839 126.018 528.924 125.456C528.01 124.893 527.299 124.106 526.794 123.095C526.288 122.083 526.035 120.902 526.035 119.549C526.035 118.191 526.288 117.004 526.794 115.987C527.299 114.97 528.01 114.18 528.924 113.618C529.839 113.055 530.91 112.774 532.137 112.774C533.365 112.774 534.436 113.055 535.35 113.618C536.265 114.18 536.975 114.97 537.481 115.987C537.987 117.004 538.24 118.191 538.24 119.549C538.24 120.902 537.987 122.083 537.481 123.095C536.975 124.106 536.265 124.893 535.35 125.456C534.436 126.018 533.365 126.299 532.137 126.299ZM532.146 124.16C532.941 124.16 533.6 123.95 534.123 123.529C534.646 123.109 535.032 122.549 535.282 121.85C535.538 121.152 535.666 120.382 535.666 119.541C535.666 118.706 535.538 117.939 535.282 117.24C535.032 116.535 534.646 115.97 534.123 115.544C533.6 115.118 532.941 114.904 532.146 114.904C531.345 114.904 530.68 115.118 530.152 115.544C529.629 115.97 529.24 116.535 528.984 117.24C528.734 117.939 528.609 118.706 528.609 119.541C528.609 120.382 528.734 121.152 528.984 121.85C529.24 122.549 529.629 123.109 530.152 123.529C530.68 123.95 531.345 124.16 532.146 124.16ZM557.245 116.14L554.936 116.549C554.839 116.254 554.686 115.973 554.475 115.706C554.271 115.439 553.993 115.22 553.64 115.049C553.288 114.879 552.848 114.794 552.319 114.794C551.598 114.794 550.995 114.956 550.512 115.279C550.029 115.598 549.788 116.01 549.788 116.515C549.788 116.953 549.95 117.305 550.274 117.572C550.598 117.839 551.12 118.058 551.842 118.228L553.922 118.706C555.126 118.984 556.024 119.413 556.615 119.993C557.206 120.572 557.501 121.325 557.501 122.251C557.501 123.035 557.274 123.734 556.819 124.348C556.37 124.956 555.743 125.433 554.936 125.779C554.135 126.126 553.206 126.299 552.149 126.299C550.683 126.299 549.487 125.987 548.561 125.362C547.635 124.731 547.066 123.836 546.856 122.677L549.319 122.302C549.473 122.944 549.788 123.43 550.265 123.76C550.743 124.083 551.365 124.245 552.132 124.245C552.967 124.245 553.635 124.072 554.135 123.725C554.635 123.373 554.885 122.944 554.885 122.439C554.885 122.029 554.731 121.686 554.424 121.407C554.123 121.129 553.66 120.919 553.035 120.777L550.819 120.291C549.598 120.012 548.694 119.569 548.109 118.961C547.529 118.353 547.24 117.583 547.24 116.652C547.24 115.879 547.456 115.203 547.887 114.623C548.319 114.044 548.916 113.592 549.677 113.268C550.439 112.939 551.311 112.774 552.294 112.774C553.708 112.774 554.822 113.081 555.635 113.694C556.447 114.302 556.984 115.118 557.245 116.14ZM568.596 120.606V112.944H571.152V126.035H568.647V123.768H568.51C568.209 124.467 567.726 125.049 567.061 125.515C566.402 125.975 565.581 126.206 564.598 126.206C563.757 126.206 563.013 126.021 562.365 125.652C561.723 125.277 561.218 124.723 560.848 123.99C560.485 123.257 560.303 122.35 560.303 121.271V112.944H562.851V120.964C562.851 121.856 563.098 122.566 563.593 123.095C564.087 123.623 564.729 123.887 565.519 123.887C565.996 123.887 566.471 123.768 566.942 123.529C567.419 123.291 567.814 122.93 568.127 122.447C568.445 121.964 568.601 121.35 568.596 120.606ZM574.576 126.035V112.944H577.125V126.035H574.576ZM575.863 110.924C575.42 110.924 575.039 110.777 574.721 110.481C574.409 110.18 574.252 109.822 574.252 109.407C574.252 108.987 574.409 108.629 574.721 108.333C575.039 108.032 575.42 107.882 575.863 107.882C576.306 107.882 576.684 108.032 576.997 108.333C577.315 108.629 577.474 108.987 577.474 109.407C577.474 109.822 577.315 110.18 576.997 110.481C576.684 110.777 576.306 110.924 575.863 110.924ZM586.664 112.944V114.99H579.513V112.944H586.664ZM581.431 109.808H583.979V122.191C583.979 122.686 584.053 123.058 584.201 123.308C584.348 123.552 584.539 123.72 584.772 123.811C585.01 123.896 585.269 123.939 585.547 123.939C585.752 123.939 585.931 123.924 586.084 123.896C586.238 123.868 586.357 123.845 586.442 123.828L586.902 125.933C586.755 125.99 586.544 126.047 586.272 126.103C585.999 126.166 585.658 126.2 585.249 126.206C584.578 126.217 583.953 126.098 583.374 125.848C582.794 125.598 582.326 125.211 581.968 124.689C581.61 124.166 581.431 123.51 581.431 122.72V109.808ZM597.445 130.944C597.064 130.944 596.718 130.913 596.405 130.85C596.093 130.794 595.86 130.731 595.706 130.663L596.32 128.575C596.786 128.7 597.201 128.754 597.564 128.737C597.928 128.72 598.249 128.583 598.527 128.328C598.811 128.072 599.061 127.654 599.277 127.075L599.593 126.206L594.803 112.944H597.53L600.846 123.103H600.982L604.297 112.944H607.033L601.638 127.782C601.388 128.464 601.07 129.041 600.684 129.512C600.297 129.99 599.837 130.348 599.303 130.586C598.769 130.825 598.15 130.944 597.445 130.944ZM614.497 126.299C613.27 126.299 612.199 126.018 611.284 125.456C610.369 124.893 609.659 124.106 609.153 123.095C608.647 122.083 608.395 120.902 608.395 119.549C608.395 118.191 608.647 117.004 609.153 115.987C609.659 114.97 610.369 114.18 611.284 113.618C612.199 113.055 613.27 112.774 614.497 112.774C615.724 112.774 616.795 113.055 617.71 113.618C618.625 114.18 619.335 114.97 619.841 115.987C620.346 117.004 620.599 118.191 620.599 119.549C620.599 120.902 620.346 122.083 619.841 123.095C619.335 124.106 618.625 124.893 617.71 125.456C616.795 126.018 615.724 126.299 614.497 126.299ZM614.505 124.16C615.301 124.16 615.96 123.95 616.483 123.529C617.005 123.109 617.392 122.549 617.642 121.85C617.897 121.152 618.025 120.382 618.025 119.541C618.025 118.706 617.897 117.939 617.642 117.24C617.392 116.535 617.005 115.97 616.483 115.544C615.96 115.118 615.301 114.904 614.505 114.904C613.704 114.904 613.039 115.118 612.511 115.544C611.988 115.97 611.599 116.535 611.343 117.24C611.093 117.939 610.968 118.706 610.968 119.541C610.968 120.382 611.093 121.152 611.343 121.85C611.599 122.549 611.988 123.109 612.511 123.529C613.039 123.95 613.704 124.16 614.505 124.16ZM631.736 120.606V112.944H634.293V126.035H631.787V123.768H631.651C631.35 124.467 630.867 125.049 630.202 125.515C629.543 125.975 628.722 126.206 627.739 126.206C626.898 126.206 626.154 126.021 625.506 125.652C624.864 125.277 624.358 124.723 623.989 123.99C623.625 123.257 623.444 122.35 623.444 121.271V112.944H625.992V120.964C625.992 121.856 626.239 122.566 626.733 123.095C627.228 123.623 627.87 123.887 628.659 123.887C629.137 123.887 629.611 123.768 630.083 123.529C630.56 123.291 630.955 122.93 631.267 122.447C631.586 121.964 631.742 121.35 631.736 120.606ZM637.717 126.035V112.944H640.18V115.024H640.316C640.555 114.319 640.975 113.765 641.578 113.362C642.186 112.953 642.873 112.748 643.64 112.748C643.799 112.748 643.987 112.754 644.203 112.765C644.424 112.777 644.598 112.791 644.723 112.808V115.245C644.62 115.217 644.439 115.186 644.177 115.152C643.916 115.112 643.654 115.092 643.393 115.092C642.791 115.092 642.254 115.22 641.782 115.475C641.316 115.725 640.947 116.075 640.674 116.524C640.402 116.967 640.265 117.473 640.265 118.041V126.035H637.717ZM653.484 126.035V108.581H664.308V110.848H656.118V116.166H663.532V118.424H656.118V126.035H653.484ZM674.814 120.606V112.944H677.371V126.035H674.865V123.768H674.729C674.428 124.467 673.945 125.049 673.28 125.515C672.621 125.975 671.8 126.206 670.817 126.206C669.976 126.206 669.232 126.021 668.584 125.652C667.942 125.277 667.436 124.723 667.067 123.99C666.703 123.257 666.522 122.35 666.522 121.271V112.944H669.07V120.964C669.07 121.856 669.317 122.566 669.811 123.095C670.306 123.623 670.948 123.887 671.738 123.887C672.215 123.887 672.689 123.768 673.161 123.529C673.638 123.291 674.033 122.93 674.346 122.447C674.664 121.964 674.82 121.35 674.814 120.606ZM686.906 112.944V114.99H679.755V112.944H686.906ZM681.673 109.808H684.221V122.191C684.221 122.686 684.295 123.058 684.443 123.308C684.591 123.552 684.781 123.72 685.014 123.811C685.252 123.896 685.511 123.939 685.789 123.939C685.994 123.939 686.173 123.924 686.326 123.896C686.48 123.868 686.599 123.845 686.684 123.828L687.145 125.933C686.997 125.99 686.787 126.047 686.514 126.103C686.241 126.166 685.9 126.2 685.491 126.206C684.821 126.217 684.196 126.098 683.616 125.848C683.037 125.598 682.568 125.211 682.21 124.689C681.852 124.166 681.673 123.51 681.673 122.72V109.808ZM698.017 120.606V112.944H700.574V126.035H698.069V123.768H697.932C697.631 124.467 697.148 125.049 696.483 125.515C695.824 125.975 695.003 126.206 694.02 126.206C693.179 126.206 692.435 126.021 691.787 125.652C691.145 125.277 690.64 124.723 690.27 123.99C689.907 123.257 689.725 122.35 689.725 121.271V112.944H692.273V120.964C692.273 121.856 692.52 122.566 693.015 123.095C693.509 123.623 694.151 123.887 694.941 123.887C695.418 123.887 695.892 123.768 696.364 123.529C696.841 123.291 697.236 122.93 697.549 122.447C697.867 121.964 698.023 121.35 698.017 120.606ZM703.998 126.035V112.944H706.461V115.024H706.598C706.836 114.319 707.257 113.765 707.859 113.362C708.467 112.953 709.154 112.748 709.922 112.748C710.081 112.748 710.268 112.754 710.484 112.765C710.706 112.777 710.879 112.791 711.004 112.808V115.245C710.902 115.217 710.72 115.186 710.458 115.152C710.197 115.112 709.936 115.092 709.674 115.092C709.072 115.092 708.535 115.22 708.064 115.475C707.598 115.725 707.228 116.075 706.956 116.524C706.683 116.967 706.547 117.473 706.547 118.041V126.035H703.998ZM718.382 126.299C717.093 126.299 715.982 126.024 715.05 125.473C714.124 124.916 713.408 124.135 712.902 123.129C712.402 122.118 712.152 120.933 712.152 119.575C712.152 118.234 712.402 117.052 712.902 116.029C713.408 115.007 714.113 114.208 715.016 113.635C715.925 113.061 716.988 112.774 718.203 112.774C718.942 112.774 719.658 112.896 720.351 113.14C721.044 113.385 721.667 113.768 722.218 114.291C722.769 114.814 723.203 115.493 723.522 116.328C723.84 117.157 723.999 118.166 723.999 119.353V120.257H713.593V118.348H721.502C721.502 117.677 721.365 117.083 721.093 116.566C720.82 116.044 720.436 115.632 719.942 115.331C719.453 115.029 718.88 114.879 718.221 114.879C717.505 114.879 716.88 115.055 716.346 115.407C715.817 115.754 715.408 116.208 715.118 116.771C714.834 117.328 714.692 117.933 714.692 118.586V120.078C714.692 120.953 714.846 121.697 715.152 122.311C715.465 122.924 715.9 123.393 716.456 123.717C717.013 124.035 717.664 124.194 718.408 124.194C718.891 124.194 719.331 124.126 719.729 123.99C720.127 123.848 720.471 123.637 720.76 123.359C721.05 123.081 721.272 122.737 721.425 122.328L723.837 122.762C723.644 123.473 723.297 124.095 722.797 124.629C722.303 125.157 721.681 125.569 720.931 125.865C720.186 126.154 719.337 126.299 718.382 126.299ZM745.195 114.095C745.03 113.578 744.809 113.115 744.53 112.706C744.257 112.291 743.931 111.939 743.55 111.649C743.169 111.353 742.735 111.129 742.246 110.975C741.763 110.822 741.232 110.745 740.652 110.745C739.669 110.745 738.783 110.998 737.993 111.504C737.203 112.01 736.578 112.751 736.118 113.728C735.664 114.7 735.436 115.89 735.436 117.299C735.436 118.714 735.667 119.91 736.127 120.887C736.587 121.865 737.218 122.606 738.019 123.112C738.82 123.618 739.732 123.87 740.755 123.87C741.703 123.87 742.53 123.677 743.235 123.291C743.945 122.904 744.493 122.359 744.88 121.654C745.272 120.944 745.468 120.109 745.468 119.149L746.15 119.277H741.155V117.103H748.016V119.089C748.016 120.555 747.703 121.828 747.078 122.907C746.459 123.981 745.601 124.811 744.505 125.396C743.414 125.981 742.164 126.274 740.755 126.274C739.175 126.274 737.789 125.91 736.596 125.183C735.408 124.456 734.482 123.424 733.817 122.089C733.152 120.748 732.82 119.157 732.82 117.316C732.82 115.924 733.013 114.674 733.4 113.566C733.786 112.458 734.328 111.518 735.027 110.745C735.732 109.967 736.559 109.373 737.507 108.964C738.462 108.549 739.505 108.342 740.635 108.342C741.578 108.342 742.456 108.481 743.269 108.76C744.087 109.038 744.814 109.433 745.451 109.944C746.093 110.456 746.624 111.064 747.044 111.768C747.465 112.467 747.749 113.243 747.897 114.095H745.195ZM751.154 126.035V112.944H753.618V115.024H753.754C753.993 114.319 754.413 113.765 755.015 113.362C755.623 112.953 756.311 112.748 757.078 112.748C757.237 112.748 757.424 112.754 757.64 112.765C757.862 112.777 758.035 112.791 758.16 112.808V115.245C758.058 115.217 757.876 115.186 757.615 115.152C757.353 115.112 757.092 115.092 756.831 115.092C756.228 115.092 755.691 115.22 755.22 115.475C754.754 115.725 754.385 116.075 754.112 116.524C753.839 116.967 753.703 117.473 753.703 118.041V126.035H751.154ZM765.411 126.299C764.184 126.299 763.113 126.018 762.198 125.456C761.283 124.893 760.573 124.106 760.067 123.095C759.561 122.083 759.309 120.902 759.309 119.549C759.309 118.191 759.561 117.004 760.067 115.987C760.573 114.97 761.283 114.18 762.198 113.618C763.113 113.055 764.184 112.774 765.411 112.774C766.638 112.774 767.709 113.055 768.624 113.618C769.539 114.18 770.249 114.97 770.755 115.987C771.26 117.004 771.513 118.191 771.513 119.549C771.513 120.902 771.26 122.083 770.755 123.095C770.249 124.106 769.539 124.893 768.624 125.456C767.709 126.018 766.638 126.299 765.411 126.299ZM765.419 124.16C766.215 124.16 766.874 123.95 767.397 123.529C767.919 123.109 768.306 122.549 768.556 121.85C768.811 121.152 768.939 120.382 768.939 119.541C768.939 118.706 768.811 117.939 768.556 117.24C768.306 116.535 767.919 115.97 767.397 115.544C766.874 115.118 766.215 114.904 765.419 114.904C764.618 114.904 763.953 115.118 763.425 115.544C762.902 115.97 762.513 116.535 762.257 117.24C762.007 117.939 761.882 118.706 761.882 119.541C761.882 120.382 762.007 121.152 762.257 121.85C762.513 122.549 762.902 123.109 763.425 123.529C763.953 123.95 764.618 124.16 765.419 124.16ZM776.797 126.035L772.945 112.944H775.578L778.144 122.558H778.272L780.846 112.944H783.479L786.036 122.515H786.164L788.712 112.944H791.346L787.502 126.035H784.902L782.243 116.583H782.047L779.388 126.035H776.797ZM799.875 112.944V114.99H792.724V112.944H799.875ZM794.642 109.808H797.19V122.191C797.19 122.686 797.264 123.058 797.412 123.308C797.559 123.552 797.75 123.72 797.983 123.811C798.221 123.896 798.48 123.939 798.758 123.939C798.963 123.939 799.142 123.924 799.295 123.896C799.449 123.868 799.568 123.845 799.653 123.828L800.113 125.933C799.966 125.99 799.755 126.047 799.483 126.103C799.21 126.166 798.869 126.2 798.46 126.206C797.789 126.217 797.164 126.098 796.585 125.848C796.005 125.598 795.537 125.211 795.179 124.689C794.821 124.166 794.642 123.51 794.642 122.72V109.808ZM805.523 118.262V126.035H802.975V108.581H805.489V115.075H805.651C805.958 114.37 806.426 113.811 807.057 113.396C807.688 112.981 808.512 112.774 809.529 112.774C810.426 112.774 811.211 112.958 811.881 113.328C812.557 113.697 813.08 114.248 813.449 114.981C813.824 115.708 814.012 116.618 814.012 117.708V126.035H811.463V118.015C811.463 117.055 811.216 116.311 810.722 115.782C810.228 115.248 809.54 114.981 808.659 114.981C808.057 114.981 807.517 115.109 807.04 115.365C806.569 115.62 806.196 115.995 805.924 116.49C805.657 116.978 805.523 117.569 805.523 118.262ZM819.091 126.197C818.625 126.197 818.225 126.032 817.89 125.703C817.554 125.368 817.387 124.964 817.387 124.493C817.387 124.027 817.554 123.629 817.89 123.299C818.225 122.964 818.625 122.797 819.091 122.797C819.557 122.797 819.958 122.964 820.293 123.299C820.628 123.629 820.796 124.027 820.796 124.493C820.796 124.805 820.716 125.092 820.557 125.353C820.404 125.609 820.199 125.814 819.944 125.967C819.688 126.12 819.404 126.197 819.091 126.197Z" fill="#F7FAFC"/>
</svg>
