<svg width="179" height="33" viewBox="0 0 179 33" fill="none" xmlns="http://www.w3.org/2000/svg">
<path fill-rule="evenodd" clip-rule="evenodd" d="M16 32.5C24.8366 32.5 32 25.3365 32 16.5C32 7.66344 24.8366 0.5 16 0.5C7.16343 0.5 0 7.66344 0 16.5C0 25.3365 7.16343 32.5 16 32.5ZM20.9914 7.95347C21.2344 7.09044 20.3969 6.5801 19.632 7.12504L8.95449 14.7316C8.12497 15.3226 8.25545 16.5 9.15049 16.5H11.9622V16.4782H17.442L12.977 18.0536L11.0086 25.0465C10.7656 25.9096 11.6031 26.4199 12.368 25.8749L23.0455 18.2684C23.875 17.6774 23.7445 16.5 22.8495 16.5H18.5857L20.9914 7.95347Z" fill="#8C20F8"/>
<path d="M64.824 24.232C64.904 24.44 64.896 24.624 64.8 24.784C64.72 24.928 64.584 25 64.392 25H59.736C59.4 25 59.184 24.832 59.088 24.496L56.832 18.304C56.736 18.048 56.488 17.92 56.088 17.92H54.984C54.872 17.92 54.792 17.96 54.744 18.04C54.712 18.104 54.696 18.152 54.696 18.184V24.304C54.696 24.768 54.432 25 53.904 25H49.872C49.632 25 49.464 24.952 49.368 24.856C49.288 24.76 49.248 24.608 49.248 24.4V7.744C49.248 7.376 49.4 7.192 49.704 7.192H57.72C60.04 7.192 61.84 7.64 63.12 8.536C64.4 9.416 65.04 10.664 65.04 12.28C65.04 13.032 64.904 13.728 64.632 14.368C64.36 15.008 63.984 15.56 63.504 16.024C63.04 16.472 62.504 16.816 61.896 17.056C61.736 17.12 61.704 17.272 61.8 17.512L64.824 24.232ZM57.504 14.344C58.112 14.344 58.576 14.184 58.896 13.864C59.232 13.544 59.4 13.128 59.4 12.616C59.4 12.008 59.192 11.544 58.776 11.224C58.376 10.904 57.904 10.744 57.36 10.744H55.248C54.88 10.744 54.696 10.904 54.696 11.224V13.84C54.696 14.176 54.832 14.344 55.104 14.344H57.504ZM72.1916 25.24C70.8796 25.24 69.7196 24.96 68.7116 24.4C67.7196 23.84 66.9356 23.072 66.3596 22.096C65.7996 21.104 65.5196 19.976 65.5196 18.712C65.5196 17.368 65.8156 16.2 66.4076 15.208C66.9996 14.2 67.7996 13.424 68.8076 12.88C69.8156 12.32 70.9516 12.04 72.2156 12.04C73.5596 12.04 74.7276 12.328 75.7196 12.904C76.7276 13.48 77.5116 14.272 78.0716 15.28C78.6316 16.272 78.9116 17.416 78.9116 18.712C78.9116 19.976 78.6236 21.104 78.0476 22.096C77.4876 23.072 76.7036 23.84 75.6956 24.4C74.6876 24.96 73.5196 25.24 72.1916 25.24ZM72.2156 22.168C72.6476 22.168 72.9996 22.048 73.2716 21.808C73.5436 21.552 73.7436 21.16 73.8716 20.632C73.9996 20.104 74.0636 19.432 74.0636 18.616C74.0636 17.768 73.9996 17.08 73.8716 16.552C73.7436 16.024 73.5436 15.64 73.2716 15.4C72.9996 15.144 72.6476 15.016 72.2156 15.016C71.7996 15.016 71.4476 15.144 71.1596 15.4C70.8876 15.64 70.6876 16.024 70.5596 16.552C70.4316 17.08 70.3676 17.768 70.3676 18.616C70.3676 19.448 70.4316 20.128 70.5596 20.656C70.6876 21.168 70.8876 21.552 71.1596 21.808C71.4476 22.048 71.7996 22.168 72.2156 22.168ZM81.0383 25C80.7823 25 80.6063 24.952 80.5103 24.856C80.4303 24.76 80.3903 24.608 80.3903 24.4V7.744C80.3903 7.376 80.5423 7.192 80.8463 7.192H84.7583C85.0463 7.192 85.1903 7.36 85.1903 7.696V13.096C85.1903 13.288 85.2383 13.392 85.3343 13.408C85.4303 13.424 85.5343 13.384 85.6463 13.288C85.9823 12.968 86.3103 12.72 86.6303 12.544C86.9663 12.368 87.3023 12.24 87.6383 12.16C87.9903 12.08 88.3423 12.04 88.6943 12.04C89.7343 12.04 90.6223 12.304 91.3583 12.832C92.0943 13.36 92.6543 14.112 93.0383 15.088C93.4383 16.048 93.6383 17.2 93.6383 18.544C93.6383 20.576 93.1663 22.2 92.2223 23.416C91.2943 24.632 89.9503 25.24 88.1903 25.24C87.6943 25.24 87.2143 25.16 86.7503 25C86.3023 24.84 85.8863 24.608 85.5023 24.304C85.1183 24 84.7663 23.648 84.4463 23.248C84.3823 23.168 84.3183 23.136 84.2543 23.152C84.2063 23.168 84.1663 23.224 84.1343 23.32L83.7503 24.448C83.6383 24.816 83.4303 25 83.1263 25H81.0383ZM85.1903 20.56C85.1903 20.96 85.2623 21.304 85.4062 21.592C85.5503 21.864 85.7503 22.072 86.0063 22.216C86.2623 22.36 86.5583 22.432 86.8943 22.432C87.3103 22.432 87.6543 22.312 87.9263 22.072C88.2143 21.832 88.4303 21.432 88.5743 20.872C88.7183 20.312 88.7903 19.568 88.7903 18.64C88.7903 17.248 88.6303 16.288 88.3103 15.76C88.0063 15.232 87.5583 14.968 86.9663 14.968C86.5983 14.968 86.2703 15.056 85.9823 15.232C85.6943 15.392 85.4303 15.624 85.1903 15.928V20.56ZM101.371 25.24C100.059 25.24 98.8993 24.96 97.8913 24.4C96.8993 23.84 96.1153 23.072 95.5393 22.096C94.9793 21.104 94.6993 19.976 94.6993 18.712C94.6993 17.368 94.9953 16.2 95.5873 15.208C96.1793 14.2 96.9793 13.424 97.9873 12.88C98.9953 12.32 100.131 12.04 101.395 12.04C102.739 12.04 103.907 12.328 104.899 12.904C105.907 13.48 106.691 14.272 107.251 15.28C107.811 16.272 108.091 17.416 108.091 18.712C108.091 19.976 107.803 21.104 107.227 22.096C106.667 23.072 105.883 23.84 104.875 24.4C103.867 24.96 102.699 25.24 101.371 25.24ZM101.395 22.168C101.827 22.168 102.179 22.048 102.451 21.808C102.723 21.552 102.923 21.16 103.051 20.632C103.179 20.104 103.243 19.432 103.243 18.616C103.243 17.768 103.179 17.08 103.051 16.552C102.923 16.024 102.723 15.64 102.451 15.4C102.179 15.144 101.827 15.016 101.395 15.016C100.979 15.016 100.627 15.144 100.339 15.4C100.067 15.64 99.8673 16.024 99.7393 16.552C99.6113 17.08 99.5473 17.768 99.5473 18.616C99.5473 19.448 99.6113 20.128 99.7393 20.656C99.8673 21.168 100.067 21.552 100.339 21.808C100.627 22.048 100.979 22.168 101.395 22.168ZM109.618 25C109.442 25 109.314 24.92 109.234 24.76C109.154 24.584 109.162 24.368 109.258 24.112L115.066 7.744C115.146 7.552 115.234 7.416 115.33 7.336C115.426 7.24 115.578 7.192 115.786 7.192H120.514C120.93 7.192 121.218 7.408 121.378 7.84L127.138 24.184C127.202 24.344 127.202 24.52 127.138 24.712C127.09 24.904 126.978 25 126.802 25H122.098C121.826 25 121.65 24.864 121.57 24.592L120.634 21.832C120.602 21.752 120.562 21.688 120.514 21.64C120.482 21.576 120.402 21.544 120.274 21.544H115.186C114.994 21.544 114.874 21.632 114.826 21.808L113.842 24.64C113.81 24.736 113.746 24.824 113.65 24.904C113.57 24.968 113.442 25 113.266 25H109.618ZM119.074 17.464C119.314 17.464 119.386 17.304 119.29 16.984L117.85 12.88C117.818 12.8 117.77 12.76 117.706 12.76C117.642 12.76 117.594 12.8 117.562 12.88L116.098 16.96C115.97 17.296 116.05 17.464 116.338 17.464H119.074ZM132.942 12.28C133.358 12.28 133.566 12.472 133.566 12.856V13.36C133.566 13.456 133.606 13.504 133.686 13.504C133.766 13.504 133.846 13.472 133.926 13.408C134.246 13.12 134.566 12.88 134.886 12.688C135.206 12.48 135.558 12.32 135.942 12.208C136.342 12.096 136.79 12.04 137.286 12.04C138.182 12.04 138.982 12.28 139.686 12.76C140.39 13.224 140.95 13.936 141.366 14.896C141.782 15.856 141.99 17.088 141.99 18.592C141.99 20.208 141.766 21.504 141.318 22.48C140.886 23.456 140.302 24.16 139.566 24.592C138.83 25.024 138.014 25.24 137.118 25.24C136.574 25.24 136.054 25.16 135.558 25C135.062 24.824 134.558 24.496 134.046 24.016C133.854 23.84 133.718 23.76 133.638 23.776C133.574 23.776 133.542 23.896 133.542 24.136V28.48C133.542 28.8 133.398 28.96 133.11 28.96H129.198C128.894 28.96 128.742 28.784 128.742 28.432V12.904C128.742 12.696 128.782 12.544 128.862 12.448C128.958 12.336 129.134 12.28 129.39 12.28H132.942ZM133.542 21.376C133.75 21.664 133.982 21.896 134.238 22.072C134.51 22.248 134.838 22.336 135.222 22.336C135.622 22.336 135.966 22.224 136.254 22C136.542 21.776 136.758 21.384 136.902 20.824C137.062 20.264 137.142 19.472 137.142 18.448C137.142 17.52 137.07 16.808 136.926 16.312C136.782 15.8 136.566 15.448 136.278 15.256C135.99 15.048 135.638 14.944 135.222 14.944C134.918 14.944 134.638 15.008 134.382 15.136C134.126 15.248 133.918 15.408 133.758 15.616C133.614 15.808 133.542 16.032 133.542 16.288V21.376ZM147.754 12.28C148.17 12.28 148.378 12.472 148.378 12.856V13.36C148.378 13.456 148.418 13.504 148.498 13.504C148.578 13.504 148.658 13.472 148.738 13.408C149.058 13.12 149.378 12.88 149.698 12.688C150.018 12.48 150.37 12.32 150.754 12.208C151.154 12.096 151.602 12.04 152.098 12.04C152.994 12.04 153.794 12.28 154.498 12.76C155.202 13.224 155.762 13.936 156.178 14.896C156.594 15.856 156.802 17.088 156.802 18.592C156.802 20.208 156.578 21.504 156.13 22.48C155.698 23.456 155.114 24.16 154.378 24.592C153.642 25.024 152.826 25.24 151.93 25.24C151.386 25.24 150.866 25.16 150.37 25C149.874 24.824 149.37 24.496 148.858 24.016C148.666 23.84 148.53 23.76 148.45 23.776C148.386 23.776 148.354 23.896 148.354 24.136V28.48C148.354 28.8 148.21 28.96 147.922 28.96H144.01C143.706 28.96 143.554 28.784 143.554 28.432V12.904C143.554 12.696 143.594 12.544 143.674 12.448C143.77 12.336 143.946 12.28 144.202 12.28H147.754ZM148.354 21.376C148.562 21.664 148.794 21.896 149.05 22.072C149.322 22.248 149.65 22.336 150.034 22.336C150.434 22.336 150.778 22.224 151.066 22C151.354 21.776 151.57 21.384 151.714 20.824C151.874 20.264 151.954 19.472 151.954 18.448C151.954 17.52 151.882 16.808 151.738 16.312C151.594 15.8 151.378 15.448 151.09 15.256C150.802 15.048 150.45 14.944 150.034 14.944C149.73 14.944 149.45 15.008 149.194 15.136C148.938 15.248 148.73 15.408 148.57 15.616C148.426 15.808 148.354 16.032 148.354 16.288V21.376ZM163.191 24.304C163.191 24.56 163.127 24.744 162.999 24.856C162.871 24.952 162.671 25 162.399 25H158.991C158.559 25 158.343 24.8 158.343 24.4L158.463 7.744C158.463 7.376 158.615 7.192 158.919 7.192H162.759C163.047 7.192 163.191 7.36 163.191 7.696V24.304ZM166.651 28.96C166.155 28.96 165.803 28.928 165.595 28.864C165.403 28.8 165.307 28.656 165.307 28.432V25.984C165.307 25.888 165.355 25.784 165.451 25.672C165.547 25.576 165.723 25.528 165.979 25.528H167.683C167.955 25.528 168.203 25.488 168.427 25.408C168.651 25.328 168.827 25.224 168.955 25.096C169.099 24.984 169.195 24.856 169.243 24.712C169.307 24.552 169.307 24.4 169.243 24.256L164.587 12.976C164.523 12.8 164.531 12.64 164.611 12.496C164.707 12.352 164.851 12.28 165.043 12.28H169.099C169.243 12.28 169.371 12.328 169.483 12.424C169.595 12.52 169.675 12.632 169.723 12.76L171.763 18.52C171.811 18.664 171.875 18.744 171.955 18.76C172.035 18.76 172.107 18.68 172.171 18.52L174.235 12.76C174.299 12.632 174.379 12.52 174.475 12.424C174.587 12.328 174.715 12.28 174.859 12.28H177.547C177.739 12.28 177.875 12.352 177.955 12.496C178.035 12.64 178.035 12.8 177.955 12.976L173.275 24.256C172.859 25.264 172.443 26.072 172.027 26.68C171.627 27.304 171.179 27.776 170.683 28.096C170.187 28.432 169.611 28.656 168.955 28.768C168.315 28.896 167.547 28.96 166.651 28.96Z" fill="white"/>
</svg>
