<svg width="288" height="172" viewBox="0 0 288 172" fill="none" xmlns="http://www.w3.org/2000/svg">
<g filter="url(#filter0_d_2427_2186)">
<rect x="58.0156" y="56" width="163" height="48" rx="24" stroke="url(#paint0_radial_2427_2186)" stroke-width="2" shape-rendering="crispEdges"/>
<path d="M79.5736 87.7337C78.9153 87.7337 78.2903 87.5754 77.7403 87.2587C76.4403 86.5087 75.7236 84.9837 75.7236 82.9754V77.0337C75.7236 75.0171 76.4403 73.5004 77.7403 72.7504C79.0403 72.0004 80.7153 72.1421 82.4653 73.1504L87.607 76.1171C89.3486 77.1254 90.3153 78.5087 90.3153 80.0087C90.3153 81.5087 89.357 82.8921 87.607 83.9004L82.4653 86.8671C81.457 87.4421 80.4736 87.7337 79.5736 87.7337ZM79.5736 73.5171C79.1236 73.5171 78.7236 73.6171 78.3653 73.8254C77.4653 74.3421 76.9736 75.4837 76.9736 77.0337V82.9671C76.9736 84.5171 77.4653 85.6504 78.3653 86.1754C79.2653 86.7004 80.4986 86.5504 81.8403 85.7754L86.982 82.8087C88.3236 82.0337 89.0653 81.0421 89.0653 80.0004C89.0653 78.9587 88.3236 77.9671 86.982 77.1921L81.8403 74.2254C81.0236 73.7587 80.257 73.5171 79.5736 73.5171Z" fill="white"/>
<path d="M102.294 86V74.3636H104.05V79.4205H109.851V74.3636H111.612V86H109.851V80.9261H104.05V86H102.294ZM117.981 86.1761C117.163 86.1761 116.449 85.9886 115.839 85.6136C115.229 85.2386 114.755 84.714 114.418 84.0398C114.081 83.3655 113.913 82.5777 113.913 81.6761C113.913 80.7708 114.081 79.9792 114.418 79.3011C114.755 78.6231 115.229 78.0966 115.839 77.7216C116.449 77.3466 117.163 77.1591 117.981 77.1591C118.799 77.1591 119.513 77.3466 120.123 77.7216C120.733 78.0966 121.206 78.6231 121.543 79.3011C121.88 79.9792 122.049 80.7708 122.049 81.6761C122.049 82.5777 121.88 83.3655 121.543 84.0398C121.206 84.714 120.733 85.2386 120.123 85.6136C119.513 85.9886 118.799 86.1761 117.981 86.1761ZM117.986 84.75C118.517 84.75 118.956 84.6098 119.305 84.3295C119.653 84.0492 119.911 83.6761 120.077 83.2102C120.248 82.7443 120.333 82.2311 120.333 81.6705C120.333 81.1136 120.248 80.6023 120.077 80.1364C119.911 79.6667 119.653 79.2898 119.305 79.0057C118.956 78.7216 118.517 78.5795 117.986 78.5795C117.452 78.5795 117.009 78.7216 116.657 79.0057C116.308 79.2898 116.049 79.6667 115.879 80.1364C115.712 80.6023 115.629 81.1136 115.629 81.6705C115.629 82.2311 115.712 82.7443 115.879 83.2102C116.049 83.6761 116.308 84.0492 116.657 84.3295C117.009 84.6098 117.452 84.75 117.986 84.75ZM125.844 86L123.276 77.2727H125.031L126.741 83.6818H126.827L128.543 77.2727H130.298L132.003 83.6534H132.088L133.787 77.2727H135.543L132.98 86H131.247L129.474 79.6989H129.344L127.571 86H125.844ZM143.825 74.3636V86H142.07V74.3636H143.825ZM150.592 77.2727V78.6364H145.824V77.2727H150.592ZM147.103 75.1818H148.802V83.4375C148.802 83.767 148.851 84.0152 148.949 84.1818C149.048 84.3447 149.175 84.4564 149.33 84.517C149.489 84.5739 149.662 84.6023 149.847 84.6023C149.984 84.6023 150.103 84.5928 150.205 84.5739C150.307 84.5549 150.387 84.5398 150.444 84.5284L150.751 85.9318C150.652 85.9697 150.512 86.0076 150.33 86.0455C150.148 86.0871 149.921 86.1098 149.648 86.1136C149.201 86.1212 148.785 86.0417 148.398 85.875C148.012 85.7083 147.699 85.4508 147.461 85.1023C147.222 84.7538 147.103 84.3163 147.103 83.7898V75.1818ZM159.664 86L156.437 74.3636H158.283L160.55 83.375H160.658L163.016 74.3636H164.846L167.204 83.3807H167.312L169.573 74.3636H171.425L168.192 86H166.425L163.976 77.2841H163.886L161.437 86H159.664ZM175.979 86.1761C175.16 86.1761 174.446 85.9886 173.837 85.6136C173.227 85.2386 172.753 84.714 172.416 84.0398C172.079 83.3655 171.91 82.5777 171.91 81.6761C171.91 80.7708 172.079 79.9792 172.416 79.3011C172.753 78.6231 173.227 78.0966 173.837 77.7216C174.446 77.3466 175.16 77.1591 175.979 77.1591C176.797 77.1591 177.511 77.3466 178.121 77.7216C178.73 78.0966 179.204 78.6231 179.541 79.3011C179.878 79.9792 180.047 80.7708 180.047 81.6761C180.047 82.5777 179.878 83.3655 179.541 84.0398C179.204 84.714 178.73 85.2386 178.121 85.6136C177.511 85.9886 176.797 86.1761 175.979 86.1761ZM175.984 84.75C176.515 84.75 176.954 84.6098 177.302 84.3295C177.651 84.0492 177.908 83.6761 178.075 83.2102C178.246 82.7443 178.331 82.2311 178.331 81.6705C178.331 81.1136 178.246 80.6023 178.075 80.1364C177.908 79.6667 177.651 79.2898 177.302 79.0057C176.954 78.7216 176.515 78.5795 175.984 78.5795C175.45 78.5795 175.007 78.7216 174.655 79.0057C174.306 79.2898 174.047 79.6667 173.876 80.1364C173.71 80.6023 173.626 81.1136 173.626 81.6705C173.626 82.2311 173.71 82.7443 173.876 83.2102C174.047 83.6761 174.306 84.0492 174.655 84.3295C175.007 84.6098 175.45 84.75 175.984 84.75ZM182.215 86V77.2727H183.857V78.6591H183.948C184.107 78.1894 184.387 77.8201 184.789 77.5511C185.194 77.2784 185.653 77.142 186.164 77.142C186.27 77.142 186.395 77.1458 186.539 77.1534C186.687 77.161 186.802 77.1705 186.885 77.1818V78.8068C186.817 78.7879 186.696 78.767 186.522 78.7443C186.348 78.7178 186.173 78.7045 185.999 78.7045C185.598 78.7045 185.24 78.7898 184.925 78.9602C184.615 79.1269 184.368 79.3598 184.187 79.6591C184.005 79.9545 183.914 80.2917 183.914 80.6705V86H182.215ZM190.19 83.0398L190.179 80.9659H190.474L193.952 77.2727H195.986L192.02 81.4773H191.753L190.19 83.0398ZM188.628 86V74.3636H190.327V86H188.628ZM194.139 86L191.014 81.8523L192.184 80.6648L196.224 86H194.139ZM204.346 79.4034L202.806 79.6761C202.742 79.4792 202.639 79.2917 202.499 79.1136C202.363 78.9356 202.177 78.7898 201.942 78.6761C201.707 78.5625 201.414 78.5057 201.062 78.5057C200.581 78.5057 200.179 78.6136 199.857 78.8295C199.535 79.0417 199.374 79.3163 199.374 79.6534C199.374 79.9451 199.482 80.1799 199.698 80.358C199.914 80.536 200.262 80.6818 200.743 80.7955L202.13 81.1136C202.933 81.2992 203.531 81.5852 203.925 81.9716C204.319 82.358 204.516 82.8598 204.516 83.4773C204.516 84 204.365 84.4659 204.062 84.875C203.762 85.2803 203.344 85.5985 202.806 85.8295C202.272 86.0606 201.653 86.1761 200.948 86.1761C199.971 86.1761 199.173 85.9678 198.556 85.5511C197.938 85.1307 197.56 84.5341 197.42 83.7614L199.062 83.5114C199.164 83.9394 199.374 84.2633 199.692 84.483C200.01 84.6989 200.425 84.8068 200.937 84.8068C201.493 84.8068 201.938 84.6913 202.272 84.4602C202.605 84.2254 202.772 83.9394 202.772 83.6023C202.772 83.3295 202.67 83.1004 202.465 82.9148C202.264 82.7292 201.956 82.589 201.539 82.4943L200.062 82.1705C199.247 81.9848 198.645 81.6894 198.255 81.2841C197.868 80.8788 197.675 80.3655 197.675 79.7443C197.675 79.2292 197.819 78.7784 198.107 78.392C198.395 78.0057 198.793 77.7045 199.3 77.4886C199.808 77.2689 200.389 77.1591 201.045 77.1591C201.988 77.1591 202.73 77.3636 203.272 77.7727C203.813 78.178 204.171 78.7216 204.346 79.4034Z" fill="white"/>
</g>
<defs>
<filter id="filter0_d_2427_2186" x="0.015625" y="0" width="287" height="172" filterUnits="userSpaceOnUse" color-interpolation-filters="sRGB">
<feFlood flood-opacity="0" result="BackgroundImageFix"/>
<feColorMatrix in="SourceAlpha" type="matrix" values="0 0 0 0 0 0 0 0 0 0 0 0 0 0 0 0 0 0 127 0" result="hardAlpha"/>
<feOffset dx="4" dy="6"/>
<feGaussianBlur stdDeviation="30.5"/>
<feComposite in2="hardAlpha" operator="out"/>
<feColorMatrix type="matrix" values="0 0 0 0 0.388235 0 0 0 0 0.407843 0 0 0 0 0.905882 0 0 0 0.25 0"/>
<feBlend mode="normal" in2="BackgroundImageFix" result="effect1_dropShadow_2427_2186"/>
<feBlend mode="normal" in="SourceGraphic" in2="effect1_dropShadow_2427_2186" result="shape"/>
</filter>
<radialGradient id="paint0_radial_2427_2186" cx="0" cy="0" r="1" gradientUnits="userSpaceOnUse" gradientTransform="translate(139.516 80) scale(92.2059 399.804)">
<stop stop-color="#C6820A"/>
<stop offset="1" stop-color="#00A97C"/>
</radialGradient>
</defs>
</svg>
