<svg width="16" height="16" viewBox="0 0 16 16" fill="none" xmlns="http://www.w3.org/2000/svg">
<path d="M4.5585 15.7337C3.90016 15.7337 3.27516 15.5754 2.72516 15.2587C1.42516 14.5087 0.708496 12.9837 0.708496 10.9754V5.03373C0.708496 3.01706 1.42516 1.5004 2.72516 0.750398C4.02516 0.000397742 5.70016 0.142064 7.45016 1.1504L12.5918 4.11706C14.3335 5.1254 15.3002 6.50873 15.3002 8.00873C15.3002 9.50873 14.3418 10.8921 12.5918 11.9004L7.45016 14.8671C6.44183 15.4421 5.4585 15.7337 4.5585 15.7337ZM4.5585 1.51706C4.1085 1.51706 3.7085 1.61706 3.35016 1.8254C2.45016 2.34206 1.9585 3.48373 1.9585 5.03373V10.9671C1.9585 12.5171 2.45016 13.6504 3.35016 14.1754C4.25016 14.7004 5.4835 14.5504 6.82516 13.7754L11.9668 10.8087C13.3085 10.0337 14.0502 9.04207 14.0502 8.0004C14.0502 6.95873 13.3085 5.96706 11.9668 5.19206L6.82516 2.2254C6.0085 1.75873 5.24183 1.51706 4.5585 1.51706Z" fill="white"/>
</svg>
