<svg width="464" height="460" viewBox="0 0 464 460" fill="none" xmlns="http://www.w3.org/2000/svg">
<path d="M452.346 212.769C450.188 208.696 445.822 205.158 441.737 203.118C412.783 188.664 382.633 249.212 381.44 265.037C380.247 280.863 375.391 284.213 348.883 281.783C322.375 279.353 327.837 298.053 327.304 307.446C326.772 316.839 329.573 326.119 309.072 327.19C288.572 328.261 292.432 335.776 292.432 335.776C292.432 335.776 310.649 381.149 313.184 370.084C315.719 359.019 325.341 344.71 354.148 355.239C366.556 359.774 387.64 361.684 397.179 350.335C399.4 347.693 401.992 343.325 402.562 339.874C403.352 335.088 401.91 330.461 402.019 325.694C402.273 314.583 414.475 311.417 422.476 307.231C426.653 305.046 430.864 302.774 434.58 299.849C442.296 293.777 444.143 284.605 442.322 275.311C441.449 270.855 439.76 265.811 440.474 261.222C441.24 256.292 444.72 250.562 446.886 246.06C448.584 242.529 450.418 239.071 451.714 235.363C454.125 228.466 455.954 219.578 452.346 212.769Z" fill="url(#paint0_linear_129_6194)"/>
<mask id="mask0_129_6194" style="mask-type:luminance" maskUnits="userSpaceOnUse" x="292" y="200" width="163" height="172">
<path d="M452.346 212.769C450.188 208.696 445.822 205.158 441.737 203.118C412.783 188.664 382.633 249.212 381.44 265.037C380.247 280.863 375.391 284.213 348.883 281.783C322.375 279.353 327.837 298.053 327.304 307.446C326.772 316.839 329.573 326.119 309.072 327.19C288.572 328.261 292.432 335.776 292.432 335.776C292.432 335.776 310.649 381.149 313.184 370.084C315.719 359.019 325.341 344.71 354.148 355.239C366.556 359.774 387.64 361.684 397.179 350.335C399.4 347.693 401.992 343.325 402.562 339.874C403.352 335.088 401.91 330.461 402.019 325.694C402.273 314.583 414.475 311.417 422.476 307.231C426.653 305.046 430.864 302.774 434.58 299.849C442.296 293.777 444.143 284.605 442.322 275.311C441.449 270.855 439.76 265.811 440.474 261.222C441.24 256.292 444.72 250.562 446.886 246.06C448.584 242.529 450.418 239.071 451.714 235.363C454.125 228.466 455.954 219.578 452.346 212.769Z" fill="white"/>
</mask>
<g mask="url(#mask0_129_6194)">
<g opacity="0.8">
<path d="M282.447 352.88C282.213 352.869 282.017 352.686 281.995 352.446C281.972 352.183 282.165 351.951 282.428 351.928C282.589 351.913 298.779 350.42 318.377 345.039C336.435 340.08 361.164 330.711 376.422 314.239C389.166 300.481 405.77 275.892 421.978 246.776C436.512 220.667 445.408 200.59 445.612 196.264C445.624 196.001 445.848 195.798 446.111 195.81C446.374 195.823 446.578 196.046 446.565 196.309C446.327 201.37 435.893 223.741 422.812 247.24C406.569 276.42 389.915 301.077 377.122 314.888C361.708 331.529 336.797 340.972 318.613 345.964C298.936 351.366 282.675 352.864 282.513 352.879C282.491 352.88 282.469 352.881 282.447 352.88Z" fill="white"/>
<path d="M419.746 252.157C419.446 252.157 419.27 251.943 419.28 251.68C419.294 251.333 420.549 216.795 409.004 204.107C408.827 203.912 408.838 203.615 409.033 203.438C409.228 203.26 409.528 203.277 409.706 203.472C421.515 216.449 420.293 250.283 420.235 251.718C420.224 251.981 420.011 252.157 419.749 252.157C419.748 252.157 419.747 252.157 419.746 252.157Z" fill="white"/>
<path d="M399.953 284.523C399.757 284.514 399.58 284.384 399.519 284.185C399.442 283.933 399.584 283.666 399.836 283.589C399.945 283.556 410.911 280.227 423.344 278.771C440.144 276.804 451.483 279.006 457.048 285.317C457.222 285.515 457.203 285.816 457.006 285.991C456.808 286.165 456.506 286.146 456.332 285.948C443.529 271.429 400.548 284.37 400.115 284.502C400.061 284.519 400.006 284.526 399.953 284.523Z" fill="white"/>
<path d="M334.968 340.69C334.917 340.688 334.865 340.677 334.815 340.657C334.57 340.56 334.45 340.283 334.547 340.038C334.598 339.909 339.682 326.979 342.591 312.343C345.258 298.923 346.598 281.286 337.836 273.469C337.639 273.294 337.622 272.992 337.798 272.795C337.973 272.599 338.275 272.581 338.472 272.757C345.778 279.275 347.478 292.66 343.525 312.541C340.598 327.26 335.486 340.259 335.434 340.389C335.357 340.584 335.166 340.699 334.968 340.69Z" fill="white"/>
<path d="M361.774 327.494C361.569 327.485 361.385 327.342 361.333 327.133C361.269 326.877 361.425 326.618 361.681 326.554C363.535 326.092 407.231 315.322 419.324 323.08C419.546 323.223 419.611 323.518 419.468 323.74C419.326 323.962 419.03 324.027 418.809 323.884C407.058 316.346 362.362 327.368 361.912 327.48C361.865 327.492 361.819 327.496 361.774 327.494Z" fill="white"/>
</g>
</g>
<path d="M403.823 116.801C399.189 112.68 392.023 110.269 385.916 109.617C342.625 104.99 333.048 195.482 338.975 215.994C344.902 236.505 340.354 243.009 305.793 252.394C271.233 261.778 286.9 282.788 290.64 294.881C294.38 306.973 302.269 317.357 276.926 328.333C251.584 339.31 259.981 346.972 259.981 346.972C259.981 346.972 304.253 395.62 302.253 380.48C300.252 365.34 305.664 342.781 346.925 342.528C364.698 342.419 392.176 334.925 398.873 316.139C400.432 311.764 401.649 305.041 400.747 300.423C399.495 294.018 395.504 288.862 393.403 282.801C388.505 268.673 402.402 258.953 410.523 249.918C414.763 245.201 419.005 240.36 422.317 234.927C429.193 223.649 427.214 211.218 420.554 200.357C417.361 195.148 412.863 189.582 411.608 183.461C410.259 176.886 411.956 168.029 412.572 161.336C413.055 156.087 413.743 150.866 413.635 145.583C413.437 135.755 411.569 123.691 403.823 116.801Z" fill="url(#paint1_linear_129_6194)"/>
<mask id="mask1_129_6194" style="mask-type:luminance" maskUnits="userSpaceOnUse" x="258" y="109" width="169" height="275">
<path d="M403.823 116.801C399.189 112.68 392.023 110.269 385.916 109.617C342.625 104.99 333.048 195.482 338.975 215.994C344.902 236.505 340.354 243.009 305.793 252.394C271.233 261.778 286.9 282.788 290.64 294.881C294.38 306.973 302.269 317.357 276.926 328.333C251.584 339.31 259.981 346.972 259.981 346.972C259.981 346.972 304.253 395.62 302.253 380.48C300.252 365.34 305.664 342.781 346.925 342.528C364.698 342.419 392.176 334.925 398.873 316.139C400.432 311.764 401.649 305.041 400.747 300.423C399.495 294.018 395.504 288.862 393.403 282.801C388.505 268.673 402.402 258.953 410.523 249.918C414.763 245.201 419.005 240.36 422.317 234.927C429.193 223.649 427.214 211.218 420.554 200.357C417.361 195.148 412.863 189.582 411.608 183.461C410.259 176.886 411.956 168.029 412.572 161.336C413.055 156.087 413.743 150.866 413.635 145.583C413.437 135.755 411.569 123.691 403.823 116.801Z" fill="white"/>
</mask>
<g mask="url(#mask1_129_6194)">
<g opacity="0.8">
<path d="M255.424 373.225C255.123 373.321 254.79 373.183 254.65 372.89C254.497 372.57 254.632 372.186 254.952 372.033C255.149 371.94 274.858 362.455 297.039 346.467C317.476 331.736 344.252 308.312 355.753 280.38C365.359 257.051 374.746 218.254 381.506 173.936C387.569 134.195 389.356 104.707 387.582 99.1573C387.474 98.8194 387.66 98.458 387.998 98.35C388.336 98.242 388.697 98.4282 388.805 98.7661C390.881 105.258 388.232 138.361 382.776 174.129C376 218.545 366.584 257.45 356.941 280.869C345.322 309.087 318.351 332.691 297.771 347.523C275.5 363.573 255.703 373.098 255.506 373.192C255.479 373.205 255.452 373.216 255.424 373.225Z" fill="white"/>
<path d="M381.207 181.821C380.871 181.928 380.512 181.748 380.402 181.412C380.257 180.967 365.623 136.822 345.11 126.248C344.795 126.086 344.671 125.699 344.834 125.384C344.996 125.069 345.384 124.945 345.699 125.108C366.681 135.923 381.023 179.177 381.623 181.013C381.733 181.35 381.549 181.712 381.211 181.82C381.21 181.82 381.209 181.821 381.207 181.821Z" fill="white"/>
<path d="M371.464 231.866C371.213 231.946 370.928 231.866 370.759 231.645C370.543 231.363 370.597 230.96 370.878 230.744C371 230.651 383.262 221.305 398.253 213.63C418.508 203.261 433.838 200.713 443.817 206.056C444.13 206.223 444.248 206.612 444.08 206.925C443.913 207.238 443.524 207.355 443.211 207.188C420.252 194.896 372.142 231.394 371.659 231.764C371.599 231.81 371.533 231.844 371.464 231.866Z" fill="white"/>
<path d="M315.914 333.194C315.848 333.215 315.778 333.226 315.705 333.224C315.35 333.217 315.069 332.924 315.076 332.569C315.08 332.383 315.417 313.694 312.212 293.877C309.272 275.706 302.68 252.842 287.963 247.101C287.633 246.972 287.469 246.6 287.598 246.27C287.727 245.939 288.1 245.775 288.43 245.905C300.701 250.691 309.13 266.768 313.482 293.688C316.704 313.619 316.364 332.408 316.36 332.595C316.354 332.877 316.168 333.113 315.914 333.194Z" fill="white"/>
<path d="M343.51 303.969C343.247 304.053 342.95 303.96 342.785 303.72C342.585 303.428 342.659 303.028 342.952 302.827C345.073 301.374 395.104 267.277 413.992 271.379C414.339 271.455 414.559 271.797 414.484 272.143C414.409 272.49 414.067 272.71 413.72 272.635C395.366 268.649 344.193 303.534 343.678 303.887C343.625 303.923 343.569 303.951 343.51 303.969Z" fill="white"/>
</g>
</g>
<path d="M461.141 372.199L55.9473 368.638V379.175C55.9473 382.035 57.7146 384.467 60.1081 384.901L174.685 405.651C176.044 405.898 177.423 405.963 178.795 405.846L456.737 382.187C459.219 381.976 461.14 379.536 461.14 376.598L461.141 372.199Z" fill="#AABBCC"/>
<path d="M314.098 355.117L60.1374 374.394C55.593 374.739 51.8979 371.074 51.8979 366.206V171.199C51.8979 166.332 55.593 162.386 60.1374 162.386H314.098C317.842 162.386 320.869 165.953 320.869 170.353V346.636C320.869 351.036 317.842 354.833 314.098 355.117Z" fill="#AABBCC"/>
<path d="M318.147 355.117L64.1867 374.394C59.6421 374.739 55.9473 371.074 55.9473 366.206V171.199C55.9473 166.332 59.6421 162.386 64.1867 162.386H318.147C321.891 162.386 324.918 165.953 324.918 170.353V346.636C324.918 351.036 321.891 354.833 318.147 355.117Z" fill="white"/>
<path d="M310.235 342.689L73.6982 359.434C70 359.695 66.9946 356.687 66.9946 352.713V181.984C66.9946 178.011 69.9999 174.776 73.6982 174.76L310.236 173.708C313.324 173.694 315.822 176.617 315.822 180.236V335.74C315.822 339.359 313.324 342.47 310.235 342.689Z" fill="#BFC8D6"/>
<path d="M200.136 167.719C200.136 169.531 198.829 171.004 197.215 171.01C195.599 171.015 194.287 169.547 194.287 167.731C194.287 165.915 195.599 164.442 197.215 164.44C198.829 164.439 200.136 165.907 200.136 167.719Z" fill="white"/>
<path opacity="0.48" d="M256.959 301.633C237.381 290.318 221.987 304.655 207.13 290.51C198.124 281.934 202.546 275.538 191.463 262.722C179.188 248.528 171.196 253.299 158.86 240.524C143.261 224.371 151.063 211.803 137.627 200.205C121.327 186.135 103.748 199.158 88.2319 185.664C81.5396 179.845 77.8677 171.384 75.9501 162.386H60.7682C58.1077 162.386 55.9473 164.702 55.9473 167.559V369.701C55.9473 372.558 58.1077 374.709 60.7682 374.506L319.595 354.773C320.865 354.676 321.992 353.879 322.714 352.724C303.768 351.983 292.128 345.16 284.687 338.107C270.131 324.31 272.656 310.704 256.959 301.633Z" fill="white"/>
<path d="M328.269 354.243L55.9473 374.534L174.685 396.038C176.044 396.284 177.423 396.35 178.796 396.233L461.141 372.199L332.601 354.381C331.163 354.182 329.713 354.135 328.269 354.243Z" fill="url(#paint2_linear_129_6194)"/>
<path d="M95.6836 375.044L322.4 357.899L392.566 367.548L167.803 385.875L95.6836 375.044Z" fill="#D8DEE8"/>
<path d="M95.4141 103.213V358.296C95.4141 362.577 99.2186 365.799 103.735 365.494L295.002 352.599C299.059 352.325 302.667 348.825 302.667 344.781V103.796L95.4141 103.213Z" fill="#EAEDF3"/>
<path d="M295.07 87.5337L103.866 86.1204C99.3497 86.0869 95.4141 89.5293 95.4141 93.8103V103.214L302.667 103.797V94.9131C302.667 90.8685 299.126 87.5637 295.07 87.5337Z" fill="#D8DEE8"/>
<path d="M99.9565 103.222V357.999C99.9565 362.275 103.748 365.494 108.254 365.19L298.466 352.325C302.513 352.052 305.506 348.555 305.506 344.516V103.8L99.9565 103.222Z" fill="url(#paint3_linear_129_6194)"/>
<path d="M107.338 103.245V352.207C107.338 354.695 109.456 356.573 112.076 356.402L296.415 344.393C298.779 344.239 300.964 342.202 300.964 339.844V103.791L107.338 103.245Z" fill="url(#paint4_linear_129_6194)"/>
<path d="M289.459 125.25L119.584 125.804C118.169 125.808 116.991 126.903 116.991 128.249V267.141C116.991 268.487 118.124 269.53 119.539 269.471L289.466 262.344C290.753 262.29 291.879 261.207 291.879 259.925V127.564C291.879 126.282 290.746 125.246 289.459 125.25Z" fill="#D8DEE8"/>
<path d="M298.529 87.559L108.08 86.1487C103.574 86.1154 99.9565 89.5535 99.9565 93.8293V103.221L305.506 103.799V94.9257C305.506 90.8858 302.577 87.5889 298.529 87.559Z" fill="#BFC8D6"/>
<path d="M194.214 307.499L116.991 311.612V299.428L194.214 295.568V307.499Z" fill="#D8DEE8"/>
<path d="M252.699 317.286L116.991 325.014V317.704L252.699 310.243V317.286Z" fill="#D8DEE8"/>
<path d="M252.699 329.61L116.991 337.807V330.496L252.699 322.567V329.61Z" fill="#D8DEE8"/>
<path d="M115.034 94.6605C115.034 96.6794 113.31 98.3088 111.181 98.3C109.05 98.2911 107.32 96.6439 107.32 94.621C107.32 92.5979 109.05 90.9686 111.181 90.9815C113.31 90.9946 115.034 92.6418 115.034 94.6605Z" fill="white"/>
<path d="M127.826 94.7258C127.826 96.7378 126.113 98.3617 123.999 98.3529C121.882 98.3442 120.165 96.7027 120.165 94.6867C120.165 92.6706 121.882 91.0467 123.999 91.0596C126.113 91.0726 127.826 92.714 127.826 94.7258Z" fill="white"/>
<path d="M140.53 94.7912C140.53 96.7961 138.829 98.4146 136.729 98.4059C134.627 98.3972 132.921 96.7614 132.921 94.7523C132.921 92.7431 134.627 91.1248 136.729 91.1378C138.829 91.1504 140.53 92.7863 140.53 94.7912Z" fill="white"/>
<path d="M140.839 81.5547V333.532C140.839 337.761 144.584 340.968 148.991 340.696L335.34 329.205C339.304 328.961 342.414 325.522 342.414 321.524V83.3062L140.839 81.5547Z" fill="#EAEDF3"/>
<path d="M335.422 67.1922L148.901 64.7136C144.493 64.655 140.839 68.037 140.839 72.2658V81.5544L342.414 83.306V74.5246C342.414 70.5267 339.386 67.2448 335.422 67.1922Z" fill="#D8DEE8"/>
<path d="M145.382 81.5898V333.268C145.382 337.492 149.058 340.696 153.456 340.425L339.636 328.961C343.591 328.717 346.957 325.283 346.957 321.289V83.3439L145.382 81.5898Z" fill="white"/>
<path d="M152.764 81.6562V327.593C152.764 330.05 154.718 331.919 157.275 331.768L336.772 321.102C339.081 320.965 340.711 318.963 340.711 316.632V83.2903L152.764 81.6562Z" fill="url(#paint5_linear_129_6194)"/>
<path d="M329.816 104.446L164.157 104.007C162.776 104.003 161.849 105.077 161.849 106.406V243.619C161.849 244.949 163.01 245.986 164.391 245.937L329.797 239.958C331.054 239.912 331.626 238.848 331.626 237.581V106.748C331.626 105.48 331.074 104.45 329.816 104.446Z" fill="#D8DEE8"/>
<path d="M339.687 67.2465L153.513 64.7713C149.116 64.7128 145.382 68.0881 145.382 72.3119V81.5896L346.957 83.3436V74.5722C346.957 70.5789 343.641 67.2991 339.687 67.2465Z" fill="#BFC8D6"/>
<path d="M237.368 283.982L161.849 287.551V275.515L237.368 272.193V283.982Z" fill="#D8DEE8"/>
<path d="M294.718 294.029L161.849 300.791V293.57L294.718 287.068V294.029Z" fill="#D8DEE8"/>
<path d="M294.718 306.21L161.849 313.429V306.207L294.718 299.249V306.21Z" fill="#D8DEE8"/>
<path d="M160.049 73.2151C160.049 75.2095 158.367 76.8093 156.289 76.7885C154.209 76.7677 152.521 75.1305 152.521 73.1322C152.521 71.1336 154.209 69.5338 156.289 69.5589C158.367 69.5838 160.049 71.2208 160.049 73.2151Z" fill="white"/>
<path d="M172.534 73.353C172.534 75.3406 170.863 76.9351 168.799 76.9145C166.733 76.8937 165.057 75.2624 165.057 73.2706C165.057 71.2789 166.733 69.6844 168.799 69.7093C170.863 69.734 172.534 71.3654 172.534 73.353Z" fill="white"/>
<path d="M184.933 73.4898C184.933 75.4706 183.273 77.0598 181.224 77.0393C179.172 77.0187 177.507 75.393 177.507 73.408C177.507 71.4231 179.172 69.8339 181.224 69.8587C183.273 69.8833 184.933 71.509 184.933 73.4898Z" fill="white"/>
<path d="M385.001 57.6844V292.968C385.001 296.918 382.266 300.286 378.398 300.495L196.764 310.327C192.469 310.559 189.104 307.368 189.104 303.192V54.5L385.001 57.6844Z" fill="#EAEDF3"/>
<path d="M385.001 49.0098V57.6843L189.104 54.4999V45.331C189.104 41.1558 192.551 37.8428 196.847 37.9324L378.427 41.7206C382.294 41.8012 385.001 45.0598 385.001 49.0098Z" fill="#D8DEE8"/>
<path d="M389.543 57.7522V292.769C389.543 296.714 386.473 300.078 382.614 300.287L201.345 310.095C197.059 310.327 193.646 307.139 193.646 302.968V54.5684L389.543 57.7522Z" fill="white"/>
<path d="M200.46 54.6748V297.42C200.46 299.846 202.411 301.707 204.902 301.578L379.954 292.504C382.207 292.387 383.865 290.426 383.865 288.123V57.6668L200.46 54.6748Z" fill="url(#paint6_linear_129_6194)"/>
<path d="M373.364 78.4714L211.548 76.8244C210.203 76.8106 208.978 77.863 208.978 79.1752V214.61C208.978 215.923 210.323 216.956 211.668 216.918L373.238 212.307C374.465 212.272 375.348 211.228 375.348 209.976V80.7585C375.348 79.5064 374.591 78.4838 373.364 78.4714Z" fill="#D8DEE8"/>
<path d="M389.543 49.0877V57.7523L193.646 54.5684V45.4104C193.646 41.2401 197.019 37.933 201.304 38.0223L382.602 41.8017C386.46 41.8822 389.543 45.1421 389.543 49.0877Z" fill="#BFC8D6"/>
<path d="M282.794 255.049L208.978 257.974V246.094L282.794 243.409V255.049Z" fill="#D8DEE8"/>
<path d="M339.007 265.428L208.978 271.042V263.914L339.007 258.555V265.428Z" fill="#D8DEE8"/>
<path d="M339.007 277.457L208.978 283.516V276.388L339.007 270.583V277.457Z" fill="#D8DEE8"/>
<path d="M207.653 46.4014C207.653 48.37 206.013 49.937 203.989 49.9014C201.963 49.8659 200.318 48.2379 200.318 46.2652C200.318 44.2928 201.963 42.7257 203.989 42.7654C206.013 42.805 207.653 44.4329 207.653 46.4014Z" fill="white"/>
<path d="M219.816 46.6272C219.816 48.5892 218.187 50.151 216.177 50.1156C214.164 50.0802 212.531 48.4578 212.531 46.4919C212.531 44.526 214.164 42.9642 216.177 43.0037C218.187 43.043 219.816 44.6652 219.816 46.6272Z" fill="white"/>
<path d="M231.897 46.8513C231.897 48.8067 230.28 50.3634 228.283 50.3282C226.284 50.2929 224.661 48.6761 224.661 46.7169C224.661 44.7575 226.284 43.201 228.283 43.24C230.28 43.279 231.897 44.8958 231.897 46.8513Z" fill="white"/>
<mask id="mask2_129_6194" style="mask-type:luminance" maskUnits="userSpaceOnUse" x="208" y="77" width="168" height="141">
<path d="M373.364 79.0386L211.548 77.4181C210.203 77.4047 208.978 78.4571 208.978 79.7695V215.205C208.978 216.517 210.323 217.55 211.668 217.512L373.238 212.874C374.465 212.839 375.348 211.795 375.348 210.543V81.3254C375.348 80.0733 374.591 79.0508 373.364 79.0386Z" fill="white"/>
</mask>
<g mask="url(#mask2_129_6194)">
<path d="M372.419 206.004C371.683 195.349 364.738 186.294 354.747 183.012C302.406 165.817 256.763 178.167 232.632 188.007C221.899 192.383 214.761 202.688 214.647 214.029L214.355 242.95L374.574 237.226L372.419 206.004Z" fill="url(#paint7_linear_129_6194)"/>
<path d="M286.183 139.171L283.547 159.117C282.781 171.797 270.372 177.03 270.372 177.03C284.932 193.889 312.436 191.976 321.954 175.2C315.382 172.947 307.985 162.835 307.697 155.587L307.028 138.763L286.183 139.171Z" fill="url(#paint8_linear_129_6194)"/>
<path d="M320.029 121.18C320.029 137.778 310.226 155.889 297.995 156.236C285.61 156.587 275.455 138.634 275.455 121.655C275.455 104.675 285.61 95.4143 297.995 95.4464C310.226 95.4778 320.029 104.582 320.029 121.18Z" fill="url(#paint9_linear_129_6194)"/>
<path d="M274.782 125.948C276.032 125.733 277.281 125.518 278.528 125.304C277.955 123.922 275.59 117.794 278.528 112.39C281.344 107.212 287.954 104.678 292.984 105.005C298.68 105.376 302.089 108.028 304.934 105.958C306.531 104.796 307.048 102.694 307.231 101.057C307.357 102.104 307.642 103.652 308.377 105.362C310.486 110.268 314.047 111.273 315.983 114.504C317.285 116.678 318.132 120.325 315.983 126.785C317.056 126.706 318.127 126.626 319.198 126.547C320.327 122.923 321.681 117.791 322.522 111.522C323.77 102.22 324.628 95.8213 321.084 92.6932C320.377 92.0691 317.246 89.5902 309.728 91.8773C307.962 89.995 304.234 86.5404 298.481 84.7664C296.487 84.1513 286.56 81.0899 277.71 87.4835C271.665 91.8506 266.912 100.058 268.441 106.859C269.249 110.452 271.458 112.058 273.399 118.994C274.217 121.92 274.594 124.384 274.782 125.948Z" fill="url(#paint10_linear_129_6194)"/>
<path d="M316.984 127.346C316.984 127.346 318.392 120.053 322.659 120.73C326.908 121.404 320.816 133.384 316.984 134.883V127.346Z" fill="url(#paint11_linear_129_6194)"/>
<path d="M278.265 127.881C278.265 127.881 276.798 120.472 272.327 121.255C267.835 122.042 274.263 134.173 278.265 135.568V127.881Z" fill="url(#paint12_linear_129_6194)"/>
<path d="M321.947 175.207L304.277 213.689L296.351 230.942L288.698 215.055L270.372 177.028C277.124 178.971 283.722 179.822 289.823 180.016C294.521 180.166 298.922 179.921 302.866 179.476C314.078 178.206 321.656 175.316 321.947 175.207Z" fill="white"/>
<path d="M304.49 213.692L296.457 230.943L288.751 215.056L293.341 189.073L300.964 188.61V188.616L304.49 213.692Z" fill="url(#paint13_linear_129_6194)"/>
<path d="M289.648 179.528L293.102 189.071L300.462 188.914L302.997 178.942L289.648 179.528Z" fill="url(#paint14_linear_129_6194)"/>
</g>
<path opacity="0.3" d="M363.013 274.557C362.252 281.522 362.006 287.793 362.174 293.429C362.258 296.23 362.443 298.871 362.722 301.365L196.961 310.327C192.666 310.559 189.104 307.368 189.104 303.192V45.331C189.104 41.1558 192.551 37.8428 196.847 37.9324L208.39 38.1711C210.322 39.6663 212.276 41.4562 214.065 43.5919C215.523 45.334 216.926 47.3102 218.182 49.5497C219.116 51.2191 219.995 53.0346 220.764 55.0076C223.04 60.8204 224.534 68.0235 224.704 76.9574C224.734 78.6612 224.725 80.4238 224.658 82.257C222.844 132.546 227.68 161.652 282.943 175.384C315.008 183.357 340.031 192.286 353.348 212.886C362.369 226.836 366.096 246.236 363.013 274.557Z" fill="white"/>
<path d="M147.884 239.158L147.681 243.172C147.681 243.172 151.796 245.572 157.722 248.507C168.814 258.067 185.534 269.2 195.215 259.938C202.931 252.555 204.7 243.049 204.545 235.395C204.395 227.767 202.321 221.971 202.321 221.971L193.344 224.377C179.764 198.051 151.051 176.552 151.051 176.552L149.051 216.072L147.979 237.32L146.556 237.734C146.555 237.734 147.03 238.263 147.884 239.158Z" fill="url(#paint15_linear_129_6194)"/>
<path opacity="0.2" d="M147.884 239.158L147.681 243.171C147.681 243.171 151.796 245.572 157.722 248.507C168.814 258.067 185.534 269.199 195.215 259.938C202.931 252.555 204.7 243.049 204.545 235.395C203.365 230.873 200.415 228.099 195.215 228.527C195.215 228.527 187.12 226.52 177.181 234.981C167.234 243.442 169.723 219.699 153.675 216.201C151.939 215.821 150.407 215.807 149.051 216.072L147.979 237.32L146.556 237.734C146.555 237.734 147.03 238.263 147.884 239.158Z" fill="url(#paint16_linear_129_6194)"/>
<path d="M94.8485 438.885C93.9871 439.677 93.9326 441.527 93.8972 442.736C93.8809 443.276 93.8732 443.546 93.9447 443.732C94.467 445.089 97.1596 445.071 101.395 445.245C108.087 445.519 110.098 445.922 110.558 444.9C110.99 443.943 109.717 442.496 109.574 442.337C108.804 441.48 107.907 441.206 106.177 440.751C102.976 439.91 100.821 439.474 100.169 439.341C96.0955 438.516 95.4142 438.365 94.8485 438.885Z" fill="url(#paint17_linear_129_6194)"/>
<path d="M99.5427 432.211L99.8036 439.829C99.5951 440.185 97.2826 441.163 95.5428 440.125L94.23 432.581L99.5427 432.211Z" fill="url(#paint18_linear_129_6194)"/>
<path d="M151.223 437.832C150.072 438.974 149.706 441.17 150.593 442.309C151.465 443.429 152.904 442.701 156.859 443.031C161.094 443.384 162.149 444.445 165.075 443.804C166.257 443.544 168.356 442.873 168.361 442.039C168.365 441.453 167.334 441.095 163.898 439.736C159.022 437.808 159.048 437.718 158.003 437.487C155.378 436.907 152.743 436.324 151.223 437.832Z" fill="url(#paint19_linear_129_6194)"/>
<path d="M154.311 431.057L156.061 438.249C155.88 438.62 153.649 439.771 151.835 438.87L149.042 431.83L154.311 431.057Z" fill="url(#paint20_linear_129_6194)"/>
<path d="M143.682 275.017C142.717 298.822 142.912 325.657 145.255 354.925C147.571 383.852 151.58 410.092 156.246 433.227C153.492 433.812 150.738 434.398 147.984 434.983C141.439 428.192 133.289 417.618 129.86 403.106C127.731 394.099 128.842 389.589 127.773 378.593C126.073 361.086 121.235 351.703 116.48 337.404C112.208 324.555 107.349 305.774 105.534 280.919C118.25 278.952 130.966 276.984 143.682 275.017Z" fill="url(#paint21_linear_129_6194)"/>
<path opacity="0.3" d="M139.878 386.27C136.846 374.261 131.004 371.085 130.796 359.749C130.648 351.73 133.53 351.075 133.339 343.4C133.049 331.758 126.229 325.654 122.803 318.332C119.184 310.598 117.798 298.176 127.55 277.513C120.211 278.648 112.873 279.784 105.534 280.919C107.349 305.774 112.208 324.556 116.48 337.404C121.235 351.703 126.073 361.086 127.773 378.593C128.842 389.589 127.731 394.099 129.86 403.106C133.289 417.618 141.439 428.192 147.984 434.983C148.685 434.834 149.385 434.686 150.085 434.536C143.01 426.091 140.513 418.549 139.878 412.429C138.845 402.472 142.936 398.379 139.878 386.27Z" fill="url(#paint22_linear_129_6194)"/>
<path d="M116.155 273.529C112.878 303.696 109.865 334.442 107.155 365.751C105.12 389.246 103.309 412.453 101.705 435.365C98.9134 435.559 96.1215 435.754 93.3299 435.948C90.9166 430.815 87.7645 422.997 85.8484 413.09C83.521 401.057 84.5833 394.042 83.9418 381.666C83.2217 367.785 81.2656 364.665 78.4459 347.053C72.7228 311.308 69.8613 293.436 78.9374 282.899C81.8835 279.477 91.0005 270.988 116.155 273.529Z" fill="url(#paint23_linear_129_6194)"/>
<path d="M45.0391 181.04C48.0492 187.651 51.7239 196.451 55.2292 207.021C57.6565 214.35 59.8805 221.062 61.7245 227.652C64.7009 238.317 66.6671 248.67 66.8502 260.793C66.9181 265.064 66.8774 277.01 67.5824 294.577C68.0367 305.968 68.518 312.503 72.3012 314.198C76.247 315.968 79.4473 310.53 89.0137 307.296C96.038 304.917 103.116 305.554 116.988 306.93C137.673 308.984 139.145 311.907 143.199 309.486C149.43 305.757 147.952 297.655 151.484 266.644C153.654 247.626 154.576 247.423 155.525 233.944C156.467 220.472 156.359 209.062 156.013 200.648C154.508 192.247 153.01 183.847 151.511 175.454C140.406 172.341 126.391 169.548 110.086 168.877C89.5628 168.03 71.7724 170.809 57.7921 174.369C56.1987 174.769 54.6532 175.182 53.1613 175.609C50.6256 176.789 48.002 178.714 45.0391 181.04Z" fill="url(#paint24_linear_129_6194)"/>
<path opacity="0.3" d="M135.155 300.53C124.981 296.189 125.04 287.204 115.537 283.455C101.976 278.104 86.9944 290.534 84.6554 287.088C82.2211 283.501 100.115 272.503 97.7344 261.656C95.8427 253.036 83.3522 254.564 76.6625 242.764C70.3164 231.571 76.469 221.222 70.8497 217.332C68.8344 215.937 65.2795 215.386 58.5396 218.353C63.2393 233.031 66.6092 245.974 66.8533 262.019C66.9183 266.294 66.8749 278.236 67.5799 295.807C68.037 307.197 68.5188 313.73 72.3028 315.426C76.2489 317.194 79.4498 311.759 89.0151 308.523C96.0395 306.146 103.119 306.785 116.99 308.159C137.676 310.21 139.143 313.135 143.196 310.712C145.836 309.134 147.091 306.761 147.931 302.203C143.784 302.651 139.385 302.335 135.155 300.53Z" fill="url(#paint25_linear_129_6194)"/>
<path d="M90.5249 170.36C90.5058 174.614 96.8668 189.059 107.795 210.152C110.83 215.996 114.434 222.397 118.212 229.301C120.152 224.874 121.691 220.524 122.988 216.323V216.318C128.822 193.318 125.364 174.369 124.644 171.613C124.582 171.378 123.715 171.171 123.715 171.171C110.76 166.893 93.9915 169.299 90.5249 170.36Z" fill="white"/>
<path d="M108.223 150.671C108.002 155.602 107.243 159.482 106.58 162.131C105.82 165.167 105.348 165.936 104.766 166.55C103.889 167.474 102.596 168.219 95.4389 169.594C91.5444 170.341 91.0511 170.289 90.9459 170.666C90.4327 172.504 100.575 179.406 111.485 178.456C118.162 177.874 124.394 174.415 124.13 172.41C123.864 170.392 117.187 171.111 115.407 167.39C114.169 164.802 115.898 161.315 117.874 158.455C116.289 155.061 109.809 154.065 108.223 150.671Z" fill="url(#paint26_linear_129_6194)"/>
<path d="M118.636 152.054C119.892 149.772 119.475 146.163 117.364 144.145C115.547 142.409 113.088 142.475 111.615 142.514C107.349 142.629 102.303 145.137 101.012 149.263C100.248 151.708 103.288 156.128 103.78 156.93C104.337 157.838 105.143 158.061 105.95 158.692C107.068 159.567 108.821 160.962 111.693 163.303C111.773 162.48 111.926 161.453 112.24 160.319C112.361 159.882 112.854 158.174 113.756 156.687C115.562 153.707 117.445 154.215 118.636 152.054Z" fill="url(#paint27_linear_129_6194)"/>
<path d="M107.822 161.541C107.822 161.541 111.228 165.674 116.67 164.533C121.543 163.51 120.689 152.377 117.213 150.484C116.054 149.853 113.908 149.828 112.27 150.55C111.302 150.977 111.02 151.445 109.425 152.11C107.954 152.725 107.499 152.617 107.093 153.071C106.585 153.639 106.332 154.889 107.756 157.976C106.682 157.16 105.504 156.956 104.759 157.447C104.64 157.526 104.336 157.804 104.195 158.179C103.687 159.537 105.068 160.982 107.822 161.541Z" fill="url(#paint28_linear_129_6194)"/>
<path d="M106.776 152.443C107.038 152.586 106.439 153.575 106.564 154.835C106.806 157.281 109.684 159.849 112.23 159.738C113.735 159.672 114.015 158.719 116.432 158.11C117.929 157.732 119.221 157.745 120.041 157.806C121.193 160.362 120.847 163.124 119.241 164.612C117.511 166.214 114.945 165.759 113.872 165.568C113.154 165.44 110.855 165.037 109.419 163.186C107.923 161.257 108.916 159.824 107.341 158.6C106.547 157.982 105.593 157.802 104.51 156.542C104.216 156.199 104.008 155.889 103.877 155.679C104.954 154.153 106.396 152.236 106.776 152.443Z" fill="url(#paint29_linear_129_6194)"/>
<path d="M118.397 159.049C118.397 159.049 117.414 159.756 115.563 159.915C115.473 159.922 115.378 159.962 115.374 160.01C115.356 160.19 116.646 160.803 117.687 160.343C118.427 160.017 118.922 159.202 118.792 159.031C118.737 158.959 118.564 158.994 118.397 159.049Z" fill="url(#paint30_linear_129_6194)"/>
<path d="M115.176 177.925L113.996 184.894H109.135L105.104 178.311C105.104 178.311 114.375 178.661 115.176 177.925Z" fill="url(#paint31_linear_129_6194)"/>
<path d="M107.795 210.152C108.712 211.919 109.663 213.738 110.652 215.606C112.923 219.913 115.576 224.485 118.212 229.301C120.152 224.873 121.691 220.523 122.988 216.322V216.317L114.294 185.342L114.058 184.847C114.048 184.804 113.988 184.766 113.968 184.727C113.349 183.364 109.156 184.727 109.156 184.727L107.795 210.152Z" fill="url(#paint32_linear_129_6194)"/>
<path opacity="0.3" d="M110.652 215.606C112.923 219.913 115.576 224.485 118.212 229.301C120.152 224.873 121.691 220.523 122.988 216.322V216.317L114.294 185.342C113.444 185.529 111.469 186.427 111.719 190.648C112.036 196.093 117.829 205.696 114.549 209.537C113.257 211.05 111.799 213.292 110.652 215.606Z" fill="url(#paint33_linear_129_6194)"/>
<path d="M15.2955 280.102C26.3873 290.36 42.0696 290.075 49.0326 289.451C49.9546 287.166 50.8699 284.888 51.7919 282.603C40.0693 273.993 33.4791 261.186 36.0693 250.243C39.2559 236.751 55.5007 229.862 61.7244 227.652C62.7142 227.3 63.4465 227.062 63.8398 226.94C72.5722 224.16 75.5557 225.984 78.5796 222.757C87.7935 212.906 76.4506 176.843 59.6567 174.457C59.0261 174.368 58.4092 174.341 57.7922 174.368C56.2462 174.443 54.7208 174.884 53.1614 175.609C50.6255 176.789 48.002 178.714 45.0391 181.04C43.0796 182.572 40.9711 184.288 38.6389 186.071C31.513 191.522 19.7908 200.491 12.421 216.526C5.99358 230.506 -3.1664 263.016 15.2955 280.102Z" fill="url(#paint34_linear_129_6194)"/>
<path d="M42.0096 305.217L40.5034 302.611C38.1018 298.455 39.6474 293.207 43.9542 290.898L212.814 200.392L221.984 217.867L54.0975 308.523C49.8159 310.835 44.4034 309.359 42.0096 305.217Z" fill="url(#paint35_linear_129_6194)"/>
<path d="M339.334 252.563C291.158 279.495 230.168 261.288 203.316 210.393C175.819 158.274 195.183 93.331 246.315 66.9269C296.525 40.9986 356.888 63.008 381.431 114.57C405.415 164.958 386.678 226.096 339.334 252.563ZM332.17 238.266C372.17 216.038 387.948 164.45 367.585 122.018C346.823 78.757 296.086 60.5323 254.059 82.3816C211.387 104.566 195.168 158.837 218.008 202.489C240.398 245.28 291.578 260.823 332.17 238.266Z" fill="url(#paint36_linear_129_6194)"/>
<path opacity="0.3" d="M212.814 200.393L191.284 211.932C191.165 219.555 188.94 224.351 186.37 227.514C176.703 239.413 159.163 232.021 139.834 247.563C130.135 255.362 132.906 258.547 123.546 264.504C108.071 274.353 98.6 266.857 84.9373 275.738C71.118 284.721 72.2157 297.975 63.6092 299.203C59.9276 299.729 54.7119 298.012 47.4858 289.006L43.9542 290.899C39.6474 293.207 38.1018 298.456 40.5034 302.612L42.0096 305.218C44.4036 309.36 49.8161 310.835 54.0975 308.523L221.983 217.867L212.814 200.393Z" fill="url(#paint37_linear_129_6194)"/>
<path d="M343.742 256.527C295.566 283.459 234.576 265.252 207.724 214.357C180.227 162.238 199.591 97.2951 250.723 70.8908C300.933 44.9625 361.296 66.9719 385.838 118.533C409.822 168.922 391.085 230.059 343.742 256.527ZM336.578 242.23C376.578 220.001 392.356 168.414 371.993 125.982C351.231 82.7208 300.494 64.496 258.467 86.3453C215.795 108.53 199.575 162.801 222.416 206.453C244.806 249.244 295.986 264.787 336.578 242.23Z" fill="url(#paint38_linear_129_6194)"/>
<path d="M341.214 251.482C295.714 276.864 238.196 259.589 212.929 211.557C187.09 162.438 205.34 101.281 253.468 76.369C300.778 51.8799 357.738 72.5394 380.95 121.164C403.663 168.743 385.971 226.514 341.214 251.482ZM336.578 242.23C376.578 220.002 392.356 168.414 371.993 125.983C351.231 82.7212 300.494 64.4964 258.467 86.3458C215.795 108.53 199.576 162.801 222.416 206.453C244.806 249.245 295.986 264.787 336.578 242.23Z" fill="url(#paint39_linear_129_6194)"/>
<path d="M49.624 287.984L51.1753 284.129C51.1753 284.129 53.7078 284.283 55.786 282.793C56.9184 281.981 58.9281 281.739 59.5121 281.901C60.096 282.063 62.3019 281.966 59.7876 283.166C57.2735 284.366 57.2933 285.257 58.3412 286.241C59.3891 287.226 63.377 289.343 64.8121 289.445C66.2475 289.547 63.6523 291.767 62.2047 292.051C60.757 292.334 58.3833 292.693 55.4467 290.964C54.3759 290.333 49.624 287.984 49.624 287.984Z" fill="url(#paint40_linear_129_6194)"/>
<path d="M198.521 234.956C198.521 234.956 203.655 232.892 205.62 227.413C207.584 221.933 204.219 227.236 199.488 228.631C194.756 230.026 194.756 230.026 194.756 230.026C194.756 230.026 189.737 231.318 190.322 233.318C190.907 235.317 198.521 234.956 198.521 234.956Z" fill="url(#paint41_linear_129_6194)"/>
<path d="M247.042 349.891C247.042 349.891 253.193 351.966 253.847 362.691C252.841 362.607 250.496 362.691 250.496 362.691C250.496 362.691 250.93 354.891 246.555 353.376C246.907 352.467 247.042 349.891 247.042 349.891Z" fill="url(#paint42_linear_129_6194)"/>
<path d="M224.472 349.247C224.626 351.2 224.779 353.152 224.932 355.105C227.972 354.228 231.296 353.211 234.87 353.024C239.517 352.781 243.776 353.322 247.569 354.263C247.738 354.016 248.095 353.423 248.26 352.458C248.526 350.902 248.081 349.611 247.998 349.381C246.066 348.664 243.971 348.063 241.726 347.653C235.288 346.48 229.47 347.644 224.472 349.247Z" fill="url(#paint43_linear_129_6194)"/>
<path d="M224.185 350.939C224.194 350.233 224.245 349.351 224.472 349.247C224.685 349.15 224.972 349.788 225.096 350.143C225.147 350.291 225.26 350.649 225.331 351.789C225.422 353.258 225.316 353.978 225.219 354.423C225.16 354.69 225.068 355.095 224.932 355.106C224.823 355.114 224.727 354.858 224.586 354.363C224.395 353.695 224.164 352.582 224.185 350.939Z" fill="url(#paint44_linear_129_6194)"/>
<path d="M218.583 363.278C219.858 363.531 222.956 364.287 222.956 364.287C222.956 364.287 220.936 357.427 224.745 354.26C224.844 353.742 224.944 352.919 224.824 351.93C224.731 351.165 224.537 350.554 224.369 350.131C222.752 351.098 219.231 354.35 218.583 363.278Z" fill="url(#paint45_linear_129_6194)"/>
<path d="M192.224 365.086C192.224 365.086 192.38 361.483 197.694 361.483C198.531 362.14 198.573 365.086 198.573 365.086H192.224Z" fill="url(#paint46_linear_129_6194)"/>
<path d="M187.504 435.907L202.05 445.402L210.863 410.532L196.341 363.784L192.224 365.086L185.976 432.224C185.834 433.744 186.445 435.216 187.504 435.907Z" fill="url(#paint47_linear_129_6194)"/>
<path opacity="0.3" d="M210.863 410.532L196.341 363.784L192.224 365.086C193.238 369.212 193.724 375.931 193.952 379.671C194.926 395.587 198.159 400.016 196.593 411.119C195.291 420.352 192.447 421.605 192.695 427.816C192.966 434.581 196.625 440.246 200.976 444.701L202.05 445.402L210.863 410.532Z" fill="url(#paint48_linear_129_6194)"/>
<path d="M196.341 363.784H276.207L288.781 437.884L202.05 445.402L196.341 363.784Z" fill="url(#paint49_linear_129_6194)"/>
<g opacity="0.2">
<path d="M276.207 363.784H249.302C248.807 365.302 248.049 367.403 246.944 369.78C234.911 395.645 207.366 398.905 207.864 403.155C208.608 409.509 269.946 400.491 271.512 409.221C272.268 413.436 259.315 423.016 245.78 426.643C229.574 430.986 217.665 425.513 209.745 435.271C207.063 438.575 205.879 442.446 205.302 445.064L288.781 437.884L276.207 363.784Z" fill="url(#paint50_linear_129_6194)"/>
</g>
<path d="M197.694 361.483C196.795 361.483 195.537 361.362 194.168 362.228C193.876 362.413 193.618 362.617 193.392 362.823L194.022 362.582C195.035 362.261 196.432 362.688 196.954 363.784C197.595 365.131 197.826 368.248 197.966 369.792C198.365 374.185 200.816 401.513 200.816 401.513C201 403.818 202.622 405.563 204.54 405.518L278.832 401.352C279.396 401.339 279.953 401.149 280.419 400.764C281.39 399.961 281.829 398.568 281.604 397.245L277.84 364.697C277.522 362.826 276.157 361.483 274.575 361.483L197.694 361.483Z" fill="url(#paint51_linear_129_6194)"/>
<path d="M198.489 361.483C197.59 361.483 196.523 361.351 195.333 361.695C195.012 361.788 194.499 361.958 194.273 362.165C194.273 362.165 196.795 361.515 197.749 363.784C198.332 365.169 198.621 368.248 198.762 369.792C199.16 374.185 201.612 401.513 201.612 401.513C201.795 403.818 203.418 405.563 205.335 405.518L280.464 403.776C281.028 403.763 281.585 403.574 282.051 403.189C283.022 402.386 283.461 400.993 283.236 399.67L278.635 364.697C278.317 362.826 276.953 361.483 275.37 361.483H198.489Z" fill="url(#paint52_linear_129_6194)"/>
<path opacity="0.1" d="M283.236 399.67L278.635 364.697C278.317 362.826 276.952 361.483 275.37 361.483H198.489C197.59 361.483 196.523 361.351 195.333 361.695C195.012 361.788 194.499 361.958 194.273 362.165C194.273 362.165 196.795 361.515 197.749 363.784C197.841 364.002 197.925 364.266 198.003 364.556C205.304 364.867 212.605 364.643 219.906 365.151C234.339 366.13 248.934 366.13 262.557 372.393C266.914 374.397 269.901 381.595 268.719 384.92C267.867 387.318 264.958 387.128 263.943 390.274C262.876 393.584 265.435 395.832 264.361 398.154C263.236 400.588 259.819 399.429 254.286 401.166C251.238 402.123 248.9 403.535 247.44 404.542L280.464 403.776C281.028 403.763 281.585 403.573 282.051 403.188C283.022 402.386 283.461 400.993 283.236 399.67Z" fill="url(#paint53_linear_129_6194)"/>
<path d="M247.282 410.287L237.874 412.719L236.88 412.807C235.879 412.895 235.018 411.965 234.974 410.741L234.561 399.167C234.518 397.943 235.31 396.928 236.314 396.912L237.312 396.896L246.769 398.188C247.673 398.173 248.434 397.656 248.475 398.805L248.862 409.659C248.903 410.807 248.183 410.208 247.282 410.287Z" fill="url(#paint54_linear_129_6194)"/>
<path d="M247.997 411.89L237.574 412.807C236.573 412.895 235.712 411.965 235.668 410.741L235.255 399.167C235.211 397.943 236.004 396.928 237.007 396.912L247.457 396.743C248.36 396.729 249.127 397.656 249.168 398.805L249.556 409.659C249.596 410.808 248.898 411.811 247.997 411.89Z" fill="url(#paint55_linear_129_6194)"/>
<defs>
<linearGradient id="paint0_linear_129_6194" x1="325.143" y1="256.436" x2="453.44" y2="347.795" gradientUnits="userSpaceOnUse">
<stop stop-color="#311944"/>
<stop offset="1" stop-color="#893976"/>
</linearGradient>
<linearGradient id="paint1_linear_129_6194" x1="342.627" y1="109.445" x2="342.627" y2="383.401" gradientUnits="userSpaceOnUse">
<stop stop-color="#AF63FB"/>
<stop offset="1" stop-color="#8C20F8"/>
</linearGradient>
<linearGradient id="paint2_linear_129_6194" x1="55.9472" y1="375.238" x2="461.14" y2="375.238" gradientUnits="userSpaceOnUse">
<stop offset="0.494" stop-color="#EBEFF2"/>
<stop offset="1" stop-color="white"/>
</linearGradient>
<linearGradient id="paint3_linear_129_6194" x1="336.675" y1="369.159" x2="266.644" y2="297.614" gradientUnits="userSpaceOnUse">
<stop stop-color="white"/>
<stop offset="0.9964" stop-color="#EBEFF2"/>
</linearGradient>
<linearGradient id="paint4_linear_129_6194" x1="202.373" y1="289.586" x2="201.237" y2="333.024" gradientUnits="userSpaceOnUse">
<stop stop-color="white"/>
<stop offset="0.9964" stop-color="#EBEFF2"/>
</linearGradient>
<linearGradient id="paint5_linear_129_6194" x1="152.764" y1="206.716" x2="340.711" y2="206.716" gradientUnits="userSpaceOnUse">
<stop stop-color="white"/>
<stop offset="0.9964" stop-color="#EBEFF2"/>
</linearGradient>
<linearGradient id="paint6_linear_129_6194" x1="200.46" y1="178.13" x2="383.865" y2="178.13" gradientUnits="userSpaceOnUse">
<stop stop-color="white"/>
<stop offset="0.9964" stop-color="#EBEFF2"/>
</linearGradient>
<linearGradient id="paint7_linear_129_6194" x1="214.355" y1="208.691" x2="374.574" y2="208.691" gradientUnits="userSpaceOnUse">
<stop offset="0.0036" stop-color="#E38DDD"/>
<stop offset="1" stop-color="#9571F6"/>
</linearGradient>
<linearGradient id="paint8_linear_129_6194" x1="296.005" y1="145.523" x2="296.303" y2="203.316" gradientUnits="userSpaceOnUse">
<stop offset="0.0036" stop-color="#F36F56"/>
<stop offset="1" stop-color="#FFC444"/>
</linearGradient>
<linearGradient id="paint9_linear_129_6194" x1="306.754" y1="65.9725" x2="292.188" y2="155.928" gradientUnits="userSpaceOnUse">
<stop offset="0.0036" stop-color="#F36F56"/>
<stop offset="1" stop-color="#FFC444"/>
</linearGradient>
<linearGradient id="paint10_linear_129_6194" x1="299.034" y1="84.5601" x2="291.884" y2="128.717" gradientUnits="userSpaceOnUse">
<stop stop-color="#444B8C"/>
<stop offset="0.9964" stop-color="#26264F"/>
</linearGradient>
<linearGradient id="paint11_linear_129_6194" x1="329.518" y1="69.9315" x2="315.073" y2="159.14" gradientUnits="userSpaceOnUse">
<stop offset="0.0036" stop-color="#F36F56"/>
<stop offset="1" stop-color="#FFC444"/>
</linearGradient>
<linearGradient id="paint12_linear_129_6194" x1="285.385" y1="62.3264" x2="270.729" y2="152.839" gradientUnits="userSpaceOnUse">
<stop offset="0.0036" stop-color="#F36F56"/>
<stop offset="1" stop-color="#FFC444"/>
</linearGradient>
<linearGradient id="paint13_linear_129_6194" x1="296.517" y1="194.311" x2="296.77" y2="243.264" gradientUnits="userSpaceOnUse">
<stop stop-color="#311944"/>
<stop offset="0.5554" stop-color="#6F2B60"/>
<stop offset="1" stop-color="#A03976"/>
</linearGradient>
<linearGradient id="paint14_linear_129_6194" x1="296.329" y1="180.329" x2="296.389" y2="191.989" gradientUnits="userSpaceOnUse">
<stop stop-color="#311944"/>
<stop offset="0.5554" stop-color="#6F2B60"/>
<stop offset="1" stop-color="#A03976"/>
</linearGradient>
<linearGradient id="paint15_linear_129_6194" x1="231.314" y1="362.689" x2="156.922" y2="190.799" gradientUnits="userSpaceOnUse">
<stop stop-color="#444B8C"/>
<stop offset="0.9964" stop-color="#3E4177"/>
</linearGradient>
<linearGradient id="paint16_linear_129_6194" x1="213.859" y1="326.296" x2="167.288" y2="218.689" gradientUnits="userSpaceOnUse">
<stop stop-color="#444B8C"/>
<stop offset="0.9964" stop-color="#3E4177"/>
</linearGradient>
<linearGradient id="paint17_linear_129_6194" x1="110.372" y1="441.341" x2="93.8356" y2="442.831" gradientUnits="userSpaceOnUse">
<stop stop-color="#444B8C"/>
<stop offset="0.9964" stop-color="#26264F"/>
</linearGradient>
<linearGradient id="paint18_linear_129_6194" x1="100.887" y1="442.015" x2="92.5741" y2="427.481" gradientUnits="userSpaceOnUse">
<stop stop-color="#FFC444"/>
<stop offset="0.9964" stop-color="#F36F56"/>
</linearGradient>
<linearGradient id="paint19_linear_129_6194" x1="167.602" y1="438.508" x2="150.369" y2="442.271" gradientUnits="userSpaceOnUse">
<stop stop-color="#444B8C"/>
<stop offset="0.9964" stop-color="#26264F"/>
</linearGradient>
<linearGradient id="paint20_linear_129_6194" x1="156.936" y1="440.66" x2="147.339" y2="426.508" gradientUnits="userSpaceOnUse">
<stop stop-color="#FFC444"/>
<stop offset="0.9964" stop-color="#F36F56"/>
</linearGradient>
<linearGradient id="paint21_linear_129_6194" x1="163.349" y1="409.527" x2="122.021" y2="301.114" gradientUnits="userSpaceOnUse">
<stop stop-color="#444B8C"/>
<stop offset="0.9964" stop-color="#3E4177"/>
</linearGradient>
<linearGradient id="paint22_linear_129_6194" x1="155.891" y1="412.37" x2="114.563" y2="303.957" gradientUnits="userSpaceOnUse">
<stop stop-color="#444B8C"/>
<stop offset="0.9964" stop-color="#3E4177"/>
</linearGradient>
<linearGradient id="paint23_linear_129_6194" x1="136.866" y1="415.405" x2="82.571" y2="312.867" gradientUnits="userSpaceOnUse">
<stop stop-color="#444B8C"/>
<stop offset="0.9964" stop-color="#3E4177"/>
</linearGradient>
<linearGradient id="paint24_linear_129_6194" x1="142.148" y1="27.9651" x2="72.991" y2="350.695" gradientUnits="userSpaceOnUse">
<stop stop-color="#444B8C"/>
<stop offset="0.9964" stop-color="#3E4177"/>
</linearGradient>
<linearGradient id="paint25_linear_129_6194" x1="86.8701" y1="298.88" x2="158.805" y2="132.666" gradientUnits="userSpaceOnUse">
<stop stop-color="#444B8C"/>
<stop offset="0.9964" stop-color="#3E4177"/>
</linearGradient>
<linearGradient id="paint26_linear_129_6194" x1="98.2753" y1="188.668" x2="121.985" y2="145.378" gradientUnits="userSpaceOnUse">
<stop stop-color="#FFC444"/>
<stop offset="0.9964" stop-color="#F36F56"/>
</linearGradient>
<linearGradient id="paint27_linear_129_6194" x1="119.902" y1="151.19" x2="101.72" y2="154.784" gradientUnits="userSpaceOnUse">
<stop stop-color="#444B8C"/>
<stop offset="0.9964" stop-color="#3E4177"/>
</linearGradient>
<linearGradient id="paint28_linear_129_6194" x1="111.191" y1="153.211" x2="120.176" y2="198.858" gradientUnits="userSpaceOnUse">
<stop stop-color="#FFC444"/>
<stop offset="0.9964" stop-color="#F36F56"/>
</linearGradient>
<linearGradient id="paint29_linear_129_6194" x1="120.172" y1="157.409" x2="104.819" y2="160.444" gradientUnits="userSpaceOnUse">
<stop stop-color="#444B8C"/>
<stop offset="0.9964" stop-color="#3E4177"/>
</linearGradient>
<linearGradient id="paint30_linear_129_6194" x1="117.031" y1="157.711" x2="117.229" y2="163.572" gradientUnits="userSpaceOnUse">
<stop stop-color="#FFC444"/>
<stop offset="1" stop-color="#F36F56"/>
</linearGradient>
<linearGradient id="paint31_linear_129_6194" x1="115.176" y1="181.41" x2="105.103" y2="181.41" gradientUnits="userSpaceOnUse">
<stop stop-color="#FF9085"/>
<stop offset="1" stop-color="#FB6FBB"/>
</linearGradient>
<linearGradient id="paint32_linear_129_6194" x1="116.147" y1="177.2" x2="115.282" y2="218.427" gradientUnits="userSpaceOnUse">
<stop stop-color="#FF9085"/>
<stop offset="1" stop-color="#FB6FBB"/>
</linearGradient>
<linearGradient id="paint33_linear_129_6194" x1="122.988" y1="207.321" x2="110.652" y2="207.321" gradientUnits="userSpaceOnUse">
<stop stop-color="#FF9085"/>
<stop offset="1" stop-color="#FB6FBB"/>
</linearGradient>
<linearGradient id="paint34_linear_129_6194" x1="89.5443" y1="12.6103" x2="19.3944" y2="339.976" gradientUnits="userSpaceOnUse">
<stop stop-color="#444B8C"/>
<stop offset="0.9964" stop-color="#3E4177"/>
</linearGradient>
<linearGradient id="paint35_linear_129_6194" x1="225.655" y1="236.323" x2="34.423" y2="274.362" gradientUnits="userSpaceOnUse">
<stop stop-color="#893976"/>
<stop offset="1" stop-color="#311944"/>
</linearGradient>
<linearGradient id="paint36_linear_129_6194" x1="390.016" y1="140.881" x2="192.701" y2="180.131" gradientUnits="userSpaceOnUse">
<stop stop-color="#893976"/>
<stop offset="1" stop-color="#311944"/>
</linearGradient>
<linearGradient id="paint37_linear_129_6194" x1="221.983" y1="255.004" x2="39.3717" y2="255.004" gradientUnits="userSpaceOnUse">
<stop stop-color="#893976"/>
<stop offset="1" stop-color="#311944"/>
</linearGradient>
<linearGradient id="paint38_linear_129_6194" x1="340.054" y1="266.104" x2="279.33" y2="126.683" gradientUnits="userSpaceOnUse">
<stop stop-color="#893976"/>
<stop offset="1" stop-color="#311944"/>
</linearGradient>
<linearGradient id="paint39_linear_129_6194" x1="250.436" y1="62.2262" x2="333.602" y2="248.861" gradientUnits="userSpaceOnUse">
<stop stop-color="#893976"/>
<stop offset="1" stop-color="#311944"/>
</linearGradient>
<linearGradient id="paint40_linear_129_6194" x1="61.394" y1="299.066" x2="54.7607" y2="281.957" gradientUnits="userSpaceOnUse">
<stop stop-color="#FFC444"/>
<stop offset="0.9964" stop-color="#F36F56"/>
</linearGradient>
<linearGradient id="paint41_linear_129_6194" x1="205.317" y1="229.806" x2="176.455" y2="231.336" gradientUnits="userSpaceOnUse">
<stop stop-color="#FFC444"/>
<stop offset="0.9964" stop-color="#F36F56"/>
</linearGradient>
<linearGradient id="paint42_linear_129_6194" x1="248.3" y1="386.324" x2="250.97" y2="346.58" gradientUnits="userSpaceOnUse">
<stop stop-color="#444B8C"/>
<stop offset="0.9964" stop-color="#26264F"/>
</linearGradient>
<linearGradient id="paint43_linear_129_6194" x1="234.936" y1="372.367" x2="236.798" y2="344.64" gradientUnits="userSpaceOnUse">
<stop offset="0.1" stop-color="#311944"/>
<stop offset="0.267" stop-color="#371B47"/>
<stop offset="0.4803" stop-color="#462150"/>
<stop offset="0.7186" stop-color="#612A5F"/>
<stop offset="0.9736" stop-color="#853774"/>
<stop offset="1" stop-color="#893976"/>
</linearGradient>
<linearGradient id="paint44_linear_129_6194" x1="225.352" y1="352.505" x2="245.946" y2="363.546" gradientUnits="userSpaceOnUse">
<stop offset="0.1" stop-color="#311944"/>
<stop offset="0.267" stop-color="#371B47"/>
<stop offset="0.4803" stop-color="#462150"/>
<stop offset="0.7186" stop-color="#612A5F"/>
<stop offset="0.9736" stop-color="#853774"/>
<stop offset="1" stop-color="#893976"/>
</linearGradient>
<linearGradient id="paint45_linear_129_6194" x1="219.526" y1="391.02" x2="222.553" y2="345.956" gradientUnits="userSpaceOnUse">
<stop stop-color="#444B8C"/>
<stop offset="0.9964" stop-color="#26264F"/>
</linearGradient>
<linearGradient id="paint46_linear_129_6194" x1="197.844" y1="387.207" x2="186.171" y2="280.503" gradientUnits="userSpaceOnUse">
<stop offset="0.1" stop-color="#311944"/>
<stop offset="0.6853" stop-color="#6D2F66"/>
<stop offset="1" stop-color="#893976"/>
</linearGradient>
<linearGradient id="paint47_linear_129_6194" x1="248.402" y1="431.992" x2="171.267" y2="389.042" gradientUnits="userSpaceOnUse">
<stop stop-color="#311944"/>
<stop offset="1" stop-color="#893976"/>
</linearGradient>
<linearGradient id="paint48_linear_129_6194" x1="178.758" y1="371.87" x2="202.211" y2="411.2" gradientUnits="userSpaceOnUse">
<stop stop-color="#311944"/>
<stop offset="1" stop-color="#893976"/>
</linearGradient>
<linearGradient id="paint49_linear_129_6194" x1="236.702" y1="324.703" x2="245.301" y2="440.105" gradientUnits="userSpaceOnUse">
<stop offset="0.1" stop-color="#311944"/>
<stop offset="0.6853" stop-color="#6D2F66"/>
<stop offset="1" stop-color="#893976"/>
</linearGradient>
<linearGradient id="paint50_linear_129_6194" x1="222.283" y1="390.191" x2="284.712" y2="438.292" gradientUnits="userSpaceOnUse">
<stop stop-color="#311944"/>
<stop offset="1" stop-color="#893976"/>
</linearGradient>
<linearGradient id="paint51_linear_129_6194" x1="206.79" y1="383.261" x2="232.362" y2="382.268" gradientUnits="userSpaceOnUse">
<stop offset="0.1" stop-color="#311944"/>
<stop offset="0.6853" stop-color="#6D2F66"/>
<stop offset="1" stop-color="#893976"/>
</linearGradient>
<linearGradient id="paint52_linear_129_6194" x1="246.941" y1="472.847" x2="237.683" y2="368.805" gradientUnits="userSpaceOnUse">
<stop offset="0.1" stop-color="#311944"/>
<stop offset="0.267" stop-color="#371B47"/>
<stop offset="0.4803" stop-color="#462150"/>
<stop offset="0.7186" stop-color="#612A5F"/>
<stop offset="0.9736" stop-color="#853774"/>
<stop offset="1" stop-color="#893976"/>
</linearGradient>
<linearGradient id="paint53_linear_129_6194" x1="251.437" y1="496.818" x2="235.757" y2="353.489" gradientUnits="userSpaceOnUse">
<stop stop-color="#311944"/>
<stop offset="1" stop-color="#893976"/>
</linearGradient>
<linearGradient id="paint54_linear_129_6194" x1="272.101" y1="421.049" x2="225.662" y2="396.775" gradientUnits="userSpaceOnUse">
<stop stop-color="#FFC444"/>
<stop offset="0.9964" stop-color="#F36F56"/>
</linearGradient>
<linearGradient id="paint55_linear_129_6194" x1="230.518" y1="400.51" x2="277.729" y2="417.404" gradientUnits="userSpaceOnUse">
<stop stop-color="#FFC444"/>
<stop offset="0.9964" stop-color="#F36F56"/>
</linearGradient>
</defs>
</svg>
