<svg width="33" height="32" viewBox="0 0 33 32" fill="none" xmlns="http://www.w3.org/2000/svg">
<path d="M13.1641 11.0002H20.1641C20.4293 11.0002 20.6836 11.1056 20.8712 11.2931C21.0587 11.4807 21.1641 11.735 21.1641 12.0002C21.1641 12.2655 21.0587 12.5198 20.8712 12.7073C20.6836 12.8949 20.4293 13.0002 20.1641 13.0002H13.1641C12.8988 13.0002 12.6445 12.8949 12.457 12.7073C12.2694 12.5198 12.1641 12.2655 12.1641 12.0002C12.1641 11.735 12.2694 11.4807 12.457 11.2931C12.6445 11.1056 12.8988 11.0002 13.1641 11.0002ZM9.88406 16.0002C9.88406 16.2655 9.98942 16.5198 10.177 16.7073C10.3645 16.8949 10.6188 17.0002 10.8841 17.0002H22.4441C22.7093 17.0002 22.9636 16.8949 23.1512 16.7073C23.3387 16.5198 23.4441 16.2655 23.4441 16.0002C23.4441 15.735 23.3387 15.4807 23.1512 15.2931C22.9636 15.1056 22.7093 15.0002 22.4441 15.0002H10.8841C10.6188 15.0002 10.3645 15.1056 10.177 15.2931C9.98942 15.4807 9.88406 15.735 9.88406 16.0002ZM21.1641 20.0002C21.1641 19.735 21.0587 19.4807 20.8712 19.2931C20.6836 19.1056 20.4293 19.0002 20.1641 19.0002H13.1641C12.8988 19.0002 12.6445 19.1056 12.457 19.2931C12.2694 19.4807 12.1641 19.735 12.1641 20.0002C12.1641 20.2655 12.2694 20.5198 12.457 20.7073C12.6445 20.8949 12.8988 21.0002 13.1641 21.0002H20.1641C20.4293 21.0002 20.6836 20.8949 20.8712 20.7073C21.0587 20.5198 21.1641 20.2655 21.1641 20.0002ZM7.16406 12.1402C7.42928 12.1402 7.68363 12.0349 7.87117 11.8473C8.05871 11.6598 8.16406 11.4055 8.16406 11.1402V8.50023C8.16406 8.23502 8.26942 7.98066 8.45696 7.79313C8.64449 7.60559 8.89885 7.50023 9.16406 7.50023H11.8141C12.0793 7.50023 12.3336 7.39488 12.5212 7.20734C12.7087 7.0198 12.8141 6.76545 12.8141 6.50023C12.8141 6.23502 12.7087 5.98066 12.5212 5.79313C12.3336 5.60559 12.0793 5.50023 11.8141 5.50023H9.16406C8.36841 5.50023 7.60535 5.81631 7.04274 6.37891C6.48013 6.94152 6.16406 7.70459 6.16406 8.50023V11.1502C6.16406 11.4155 6.26942 11.6698 6.45696 11.8573C6.64449 12.0449 6.89885 12.1502 7.16406 12.1502V12.1402ZM24.1641 5.49023H21.5141C21.2488 5.49023 20.9945 5.59559 20.807 5.78313C20.6194 5.97066 20.5141 6.22502 20.5141 6.49023C20.5141 6.75545 20.6194 7.00981 20.807 7.19734C20.9945 7.38488 21.2488 7.49023 21.5141 7.49023H24.1641C24.4293 7.49023 24.6836 7.59559 24.8712 7.78313C25.0587 7.97066 25.1641 8.22502 25.1641 8.49023V11.1402C25.1641 11.4055 25.2694 11.6598 25.457 11.8473C25.6445 12.0349 25.8988 12.1402 26.1641 12.1402C26.4293 12.1402 26.6836 12.0349 26.8712 11.8473C27.0587 11.6598 27.1641 11.4055 27.1641 11.1402V8.50023C27.1641 7.70459 26.848 6.94152 26.2854 6.37891C25.7228 5.81631 24.9597 5.50023 24.1641 5.50023V5.49023ZM26.1641 19.8302C25.8988 19.8302 25.6445 19.9356 25.457 20.1231C25.2694 20.3107 25.1641 20.565 25.1641 20.8302V23.4802C25.1641 23.7455 25.0587 23.9998 24.8712 24.1873C24.6836 24.3749 24.4293 24.4802 24.1641 24.4802H21.5141C21.2488 24.4802 20.9945 24.5856 20.807 24.7731C20.6194 24.9607 20.5141 25.215 20.5141 25.4802C20.5141 25.7455 20.6194 25.9998 20.807 26.1873C20.9945 26.3749 21.2488 26.4802 21.5141 26.4802H24.1641C24.9597 26.4802 25.7228 26.1642 26.2854 25.6016C26.848 25.0389 27.1641 24.2759 27.1641 23.4802V20.8402C27.1641 20.575 27.0587 20.3207 26.8712 20.1331C26.6836 19.9456 26.4293 19.8402 26.1641 19.8402V19.8302ZM11.8141 24.5002H9.16406C8.89885 24.5002 8.64449 24.3949 8.45696 24.2073C8.26942 24.0198 8.16406 23.7655 8.16406 23.5002V20.8502C8.16406 20.585 8.05871 20.3307 7.87117 20.1431C7.68363 19.9556 7.42928 19.8502 7.16406 19.8502C6.89885 19.8502 6.64449 19.9556 6.45696 20.1431C6.26942 20.3307 6.16406 20.585 6.16406 20.8502V23.5002C6.16406 24.2959 6.48013 25.0589 7.04274 25.6216C7.60535 26.1842 8.36841 26.5002 9.16406 26.5002H11.8141C12.0793 26.5002 12.3336 26.3949 12.5212 26.2073C12.7087 26.0198 12.8141 25.7655 12.8141 25.5002C12.8141 25.235 12.7087 24.9807 12.5212 24.7931C12.3336 24.6056 12.0793 24.5002 11.8141 24.5002Z" fill="white"/>
</svg>
