<svg width="25" height="24" viewBox="0 0 25 24" fill="none" xmlns="http://www.w3.org/2000/svg">
<path d="M21.0518 15.7206L20.354 15.2933L20.354 15.2933L21.0518 15.7206ZM20.0972 17.2794L20.795 17.7067L20.795 17.7067L20.0972 17.2794ZM3.56395 8.27942L2.8662 7.85215L2.8662 7.85215L3.56395 8.27942ZM4.5185 6.72057L5.21626 7.14784L5.21626 7.14784L4.5185 6.72057ZM7.12638 6.06172L7.51756 5.34312L7.51756 5.34312L7.12638 6.06172ZM4.26273 10.7383L3.87155 11.4569H3.87155L4.26273 10.7383ZM17.4893 17.9383L17.0982 18.6569L17.0982 18.6569L17.4893 17.9383ZM20.353 13.2617L19.9618 13.9803L20.353 13.2617ZM4.5185 17.2794L3.82074 17.7067H3.82074L4.5185 17.2794ZM3.56395 15.7206L4.26171 15.2933H4.26171L3.56395 15.7206ZM20.0972 6.72058L20.795 6.29332L20.795 6.29332L20.0972 6.72058ZM21.0518 8.27943L20.354 8.7067L20.354 8.7067L21.0518 8.27943ZM20.353 10.7383L20.7442 11.4569L20.353 10.7383ZM17.4893 6.06174L17.8805 6.78035V6.78035L17.4893 6.06174ZM4.26273 13.2617L4.65391 13.9803H4.65391L4.26273 13.2617ZM7.12638 17.9383L6.7352 17.2197L6.7352 17.2197L7.12638 17.9383ZM17.3879 6.11698L16.9967 5.39837V5.39837L17.3879 6.11698ZM7.22786 6.11697L6.83668 6.83558L6.83668 6.83558L7.22786 6.11697ZM17.3879 17.883L17.7791 17.1644L17.7791 17.1644L17.3879 17.883ZM7.22786 17.883L7.61904 18.6016L7.61904 18.6016L7.22786 17.883ZM11.3533 3V3.81818H13.2624V3V2.18182H11.3533V3ZM13.2624 21V20.1818H11.3533V21V21.8182H13.2624V21ZM11.3533 21V20.1818C10.7048 20.1818 10.2624 19.6976 10.2624 19.2H9.44421H8.62603C8.62603 20.6907 9.8931 21.8182 11.3533 21.8182V21ZM15.1715 19.2H14.3533C14.3533 19.6976 13.9109 20.1818 13.2624 20.1818V21V21.8182C14.7226 21.8182 15.9897 20.6907 15.9897 19.2H15.1715ZM13.2624 3V3.81818C13.9109 3.81818 14.3533 4.30245 14.3533 4.8H15.1715H15.9897C15.9897 3.30933 14.7226 2.18182 13.2624 2.18182V3ZM11.3533 3V2.18182C9.8931 2.18182 8.62603 3.30933 8.62603 4.8H9.44421H10.2624C10.2624 4.30245 10.7048 3.81818 11.3533 3.81818V3ZM21.0518 15.7206L20.354 15.2933L19.3995 16.8521L20.0972 17.2794L20.795 17.7067L21.7495 16.1478L21.0518 15.7206ZM3.56395 8.27942L4.26171 8.70668L5.21626 7.14784L4.5185 6.72057L3.82074 6.2933L2.8662 7.85215L3.56395 8.27942ZM4.5185 6.72057L5.21626 7.14784C5.50503 6.67625 6.18615 6.48146 6.7352 6.78033L7.12638 6.06172L7.51756 5.34312C6.24039 4.64788 4.58634 5.04303 3.82074 6.2933L4.5185 6.72057ZM4.26273 10.7383L4.65391 10.0197C4.13039 9.73467 3.99174 9.14756 4.26171 8.70668L3.56395 8.27942L2.8662 7.85215C2.0818 9.13312 2.56886 10.7477 3.87155 11.4569L4.26273 10.7383ZM20.0972 17.2794L19.3995 16.8521C19.1107 17.3237 18.4296 17.5185 17.8805 17.2197L17.4893 17.9383L17.0982 18.6569C18.3753 19.3521 20.0294 18.957 20.795 17.7067L20.0972 17.2794ZM21.0518 15.7206L21.7495 16.1478C22.5339 14.8669 22.0469 13.2522 20.7442 12.5431L20.353 13.2617L19.9618 13.9803C20.4853 14.2653 20.624 14.8524 20.354 15.2933L21.0518 15.7206ZM4.5185 17.2794L5.21626 16.8522L4.26171 15.2933L3.56395 15.7206L2.86619 16.1479L3.82074 17.7067L4.5185 17.2794ZM20.0972 6.72058L19.3995 7.14785L20.354 8.7067L21.0518 8.27943L21.7495 7.85216L20.795 6.29332L20.0972 6.72058ZM21.0518 8.27943L20.354 8.7067C20.624 9.14757 20.4853 9.73468 19.9618 10.0197L20.353 10.7383L20.7442 11.4569C22.0469 10.7478 22.5339 9.13314 21.7495 7.85216L21.0518 8.27943ZM17.4893 6.06174L17.8805 6.78035C18.4296 6.48147 19.1107 6.67627 19.3995 7.14785L20.0972 6.72058L20.795 6.29332C20.0294 5.04305 18.3753 4.64789 17.0982 5.34313L17.4893 6.06174ZM3.56395 15.7206L4.26171 15.2933C3.99174 14.8524 4.13039 14.2653 4.65391 13.9803L4.26273 13.2617L3.87155 12.5431C2.56886 13.2523 2.0818 14.8669 2.86619 16.1479L3.56395 15.7206ZM4.5185 17.2794L3.82074 17.7067C4.58634 18.957 6.24039 19.3521 7.51756 18.6569L7.12638 17.9383L6.7352 17.2197C6.18615 17.5185 5.50503 17.3237 5.21626 16.8522L4.5185 17.2794ZM17.3879 6.11698L17.7791 6.83559L17.8805 6.78035L17.4893 6.06174L17.0982 5.34313L16.9967 5.39837L17.3879 6.11698ZM7.12638 6.06172L6.7352 6.78033L6.83668 6.83558L7.22786 6.11697L7.61904 5.39836L7.51756 5.34312L7.12638 6.06172ZM17.4893 17.9383L17.8805 17.2197L17.7791 17.1644L17.3879 17.883L16.9967 18.6016L17.0982 18.6569L17.4893 17.9383ZM7.22786 17.883L6.83668 17.1644L6.7352 17.2197L7.12638 17.9383L7.51755 18.6569L7.61904 18.6016L7.22786 17.883ZM4.26273 10.7383L3.87155 11.4569C4.30185 11.6911 4.30186 12.3089 3.87155 12.5431L4.26273 13.2617L4.65391 13.9803C6.22288 13.1263 6.22289 10.8737 4.65391 10.0197L4.26273 10.7383ZM7.22786 17.883L7.61904 18.6016C8.07301 18.3545 8.62603 18.6831 8.62603 19.2H9.44421H10.2624C10.2624 17.4416 8.38104 16.3237 6.83668 17.1644L7.22786 17.883ZM15.1715 19.2H15.9897C15.9897 18.6831 16.5427 18.3545 16.9967 18.6016L17.3879 17.883L17.7791 17.1644C16.2347 16.3237 14.3533 17.4416 14.3533 19.2H15.1715ZM20.353 13.2617L20.7442 12.5431C20.3139 12.3089 20.3139 11.6911 20.7442 11.4569L20.353 10.7383L19.9618 10.0197C18.3928 10.8737 18.3928 13.1263 19.9618 13.9803L20.353 13.2617ZM7.22786 6.11697L6.83668 6.83558C8.38105 7.67626 10.2624 6.55836 10.2624 4.8H9.44421H8.62603C8.62603 5.31687 8.07301 5.64548 7.61904 5.39836L7.22786 6.11697ZM17.3879 6.11698L16.9967 5.39837C16.5427 5.64549 15.9897 5.31688 15.9897 4.8H15.1715H14.3533C14.3533 6.55836 16.2347 7.67628 17.7791 6.83559L17.3879 6.11698ZM15.3079 12H14.4897C14.4897 13.205 13.5129 14.1818 12.3079 14.1818V15V15.8182C14.4166 15.8182 16.1261 14.1087 16.1261 12H15.3079ZM12.3079 15V14.1818C11.1029 14.1818 10.1261 13.205 10.1261 12H9.30787H8.48969C8.48969 14.1087 10.1991 15.8182 12.3079 15.8182V15ZM9.30787 12H10.1261C10.1261 10.795 11.1029 9.81818 12.3079 9.81818V9V8.18182C10.1991 8.18182 8.48969 9.89128 8.48969 12H9.30787ZM12.3079 9V9.81818C13.5129 9.81818 14.4897 10.795 14.4897 12H15.3079H16.1261C16.1261 9.89128 14.4166 8.18182 12.3079 8.18182V9Z" fill="white"/>
</svg>
