<svg width="225" height="270" viewBox="0 0 225 270" fill="none" xmlns="http://www.w3.org/2000/svg">
<rect width="224" height="270" rx="15" fill="url(#paint0_linear_3628_1467)"/>
<path d="M77.3435 143.131C76.5154 143.568 75.4841 143.787 74.2497 143.787C72.656 143.787 71.3799 143.274 70.4216 142.248C69.4633 141.222 68.9841 139.876 68.9841 138.209C68.9841 136.417 69.5232 134.969 70.6013 133.865C71.6794 132.761 73.0466 132.209 74.7029 132.209C75.7654 132.209 76.6456 132.363 77.3435 132.67V134.068C76.5414 133.62 75.656 133.396 74.6872 133.396C73.4008 133.396 72.3565 133.826 71.5544 134.686C70.7575 135.545 70.3591 136.693 70.3591 138.131C70.3591 139.495 70.7315 140.584 71.4763 141.396C72.2263 142.204 73.2081 142.607 74.4216 142.607C75.5466 142.607 76.5206 142.357 77.3435 141.857V143.131ZM82.7966 143.787C81.6143 143.787 80.669 143.415 79.9607 142.67C79.2575 141.92 78.906 140.928 78.906 139.693C78.906 138.35 79.2732 137.3 80.0075 136.545C80.7419 135.79 81.7341 135.412 82.9841 135.412C84.1768 135.412 85.1065 135.779 85.7732 136.514C86.445 137.248 86.781 138.266 86.781 139.568C86.781 140.844 86.419 141.868 85.695 142.639C84.9763 143.404 84.0101 143.787 82.7966 143.787ZM82.8904 136.49C82.0674 136.49 81.4164 136.771 80.9372 137.334C80.4581 137.891 80.2185 138.662 80.2185 139.646C80.2185 140.594 80.4607 141.342 80.945 141.889C81.4294 142.436 82.0779 142.709 82.8904 142.709C83.7185 142.709 84.3539 142.441 84.7966 141.904C85.2445 141.368 85.4685 140.605 85.4685 139.615C85.4685 138.615 85.2445 137.844 84.7966 137.303C84.3539 136.761 83.7185 136.49 82.8904 136.49ZM95.4685 143.6H94.1872V139.037C94.1872 137.339 93.5674 136.49 92.3279 136.49C91.6872 136.49 91.156 136.732 90.7341 137.217C90.3174 137.696 90.1091 138.303 90.1091 139.037V143.6H88.8279V135.6H90.1091V136.928H90.1404C90.7445 135.917 91.6195 135.412 92.7654 135.412C93.6404 135.412 94.3096 135.696 94.7732 136.264C95.2367 136.826 95.4685 137.641 95.4685 138.709V143.6ZM101.601 143.521C101.299 143.688 100.901 143.771 100.406 143.771C99.0049 143.771 98.3044 142.99 98.3044 141.428V136.693H96.9294V135.6H98.3044V133.646L99.5857 133.232V135.6H101.601V136.693H99.5857V141.201C99.5857 141.738 99.6768 142.12 99.8591 142.35C100.041 142.579 100.343 142.693 100.765 142.693C101.088 142.693 101.367 142.605 101.601 142.428V143.521ZM109.039 143.6H107.758V142.35H107.726C107.169 143.308 106.349 143.787 105.265 143.787C104.468 143.787 103.843 143.576 103.39 143.154C102.942 142.732 102.718 142.173 102.718 141.475C102.718 139.98 103.599 139.11 105.359 138.865L107.758 138.529C107.758 137.17 107.208 136.49 106.109 136.49C105.146 136.49 104.276 136.818 103.5 137.475V136.162C104.286 135.662 105.192 135.412 106.218 135.412C108.099 135.412 109.039 136.407 109.039 138.396V143.6ZM107.758 139.553L105.828 139.818C105.234 139.902 104.786 140.05 104.484 140.264C104.182 140.472 104.031 140.844 104.031 141.381C104.031 141.771 104.169 142.092 104.445 142.342C104.726 142.587 105.099 142.709 105.562 142.709C106.198 142.709 106.721 142.488 107.133 142.045C107.549 141.597 107.758 141.032 107.758 140.35V139.553ZM116.906 143.232C116.291 143.602 115.562 143.787 114.718 143.787C113.578 143.787 112.656 143.417 111.953 142.678C111.255 141.933 110.906 140.969 110.906 139.787C110.906 138.469 111.284 137.412 112.039 136.615C112.794 135.813 113.802 135.412 115.062 135.412C115.765 135.412 116.385 135.542 116.922 135.803V137.115C116.328 136.699 115.692 136.49 115.015 136.49C114.198 136.49 113.526 136.785 113 137.373C112.479 137.956 112.218 138.725 112.218 139.678C112.218 140.615 112.463 141.355 112.953 141.896C113.448 142.438 114.109 142.709 114.937 142.709C115.635 142.709 116.291 142.477 116.906 142.014V143.232ZM122.554 143.521C122.252 143.688 121.854 143.771 121.359 143.771C119.958 143.771 119.258 142.99 119.258 141.428V136.693H117.883V135.6H119.258V133.646L120.539 133.232V135.6H122.554V136.693H120.539V141.201C120.539 141.738 120.63 142.12 120.812 142.35C120.995 142.579 121.297 142.693 121.718 142.693C122.041 142.693 122.32 142.605 122.554 142.428V143.521ZM137.023 139.068C137.023 142.214 135.604 143.787 132.765 143.787C130.047 143.787 128.687 142.274 128.687 139.248V132.396H130V139.162C130 141.459 130.968 142.607 132.906 142.607C134.776 142.607 135.711 141.498 135.711 139.279V132.396H137.023V139.068ZM139.172 143.311V141.936C139.87 142.451 140.638 142.709 141.476 142.709C142.601 142.709 143.164 142.334 143.164 141.584C143.164 141.37 143.114 141.191 143.015 141.045C142.922 140.894 142.791 140.761 142.625 140.646C142.463 140.532 142.271 140.43 142.047 140.342C141.828 140.248 141.591 140.152 141.336 140.053C140.982 139.912 140.669 139.771 140.398 139.631C140.133 139.485 139.909 139.324 139.726 139.146C139.549 138.964 139.414 138.758 139.32 138.529C139.232 138.3 139.187 138.032 139.187 137.725C139.187 137.35 139.273 137.019 139.445 136.732C139.617 136.441 139.846 136.199 140.133 136.006C140.419 135.808 140.745 135.66 141.109 135.561C141.479 135.462 141.859 135.412 142.25 135.412C142.942 135.412 143.562 135.532 144.109 135.771V137.068C143.521 136.683 142.843 136.49 142.078 136.49C141.838 136.49 141.622 136.519 141.429 136.576C141.237 136.628 141.07 136.704 140.929 136.803C140.794 136.902 140.687 137.021 140.609 137.162C140.536 137.298 140.5 137.449 140.5 137.615C140.5 137.824 140.536 137.998 140.609 138.139C140.687 138.279 140.799 138.404 140.945 138.514C141.091 138.623 141.268 138.722 141.476 138.811C141.685 138.899 141.922 138.995 142.187 139.1C142.541 139.235 142.859 139.376 143.14 139.521C143.422 139.662 143.661 139.824 143.859 140.006C144.057 140.183 144.208 140.389 144.312 140.623C144.422 140.857 144.476 141.136 144.476 141.459C144.476 141.855 144.388 142.199 144.211 142.49C144.039 142.782 143.807 143.024 143.515 143.217C143.224 143.41 142.888 143.553 142.508 143.646C142.127 143.74 141.729 143.787 141.312 143.787C140.489 143.787 139.776 143.628 139.172 143.311Z" fill="#212529"/>
<path d="M158.418 135.787H157.91V137.412H158.418C158.57 137.412 158.723 137.564 158.723 137.717V138.732C158.723 138.91 158.57 139.037 158.418 139.037H157.91V140.662H158.418C158.57 140.662 158.723 140.814 158.723 140.967V141.982C158.723 142.16 158.57 142.287 158.418 142.287H157.91V143.506C157.91 144.191 157.351 144.725 156.691 144.725H148.566C147.881 144.725 147.348 144.191 147.348 143.506V132.943C147.348 132.283 147.881 131.725 148.566 131.725H156.691C157.351 131.725 157.91 132.283 157.91 132.943V134.162H158.418C158.57 134.162 158.723 134.314 158.723 134.467V135.482C158.723 135.66 158.57 135.787 158.418 135.787ZM152.629 134.975C151.715 134.975 151.004 135.711 151.004 136.6C151.004 137.514 151.715 138.225 152.629 138.225C153.517 138.225 154.254 137.514 154.254 136.6C154.254 135.711 153.517 134.975 152.629 134.975ZM155.473 140.992V140.51C155.473 139.697 154.685 139.037 153.746 139.037H153.619C153.314 139.189 152.984 139.24 152.629 139.24C152.248 139.24 151.918 139.189 151.613 139.037H151.486C150.547 139.037 149.785 139.697 149.785 140.51V140.992C149.785 141.271 150.039 141.475 150.344 141.475H154.889C155.219 141.475 155.473 141.271 155.473 140.992Z" fill="white"/>
<rect width="56.11" height="1.5" transform="translate(84.1699 149)" fill="#808080"/>
<g clip-path="url(#clip0_3628_1467)">
<path d="M121.747 17.2692C123.558 18.0575 125.255 18.931 126.794 19.8618C132.172 23.1142 136.499 27.8493 141.785 31.1115C146.776 34.1917 152.871 34.9405 158.583 35.4553C168.538 36.3529 189.302 44.9604 185.553 60.9138C184.189 66.7196 179.379 70.6626 176.916 75.92C174.296 81.5126 174.571 88.488 170.401 93.3363C168.566 95.4681 166.033 96.8761 163.432 97.9426C146.127 105.038 126.693 104.708 108.343 103.926C93.8591 103.309 70.5964 106.572 57.8746 98.6044C51.5586 94.6486 54.843 83.8354 50.4726 78.0275C46.8001 73.1471 41.8018 69.9417 39.3465 63.8327C35.1682 53.4378 41.124 39.9102 51.5521 36.2202C58.0685 33.9144 64.9721 32.8579 71.4137 30.3256C78.0686 27.7083 80.6329 23.7882 85.7081 19.1483C94.8832 10.7617 110.499 12.3713 121.747 17.2692Z" fill="white" fill-opacity="0.2"/>
<path d="M137.774 99.9779H87.54V68.4648C87.54 67.8692 88.0125 67.3867 88.595 67.3867H136.72C137.302 67.3867 137.774 67.8692 137.774 68.4648V99.9779Z" fill="#D3D3D3"/>
<path d="M89.3789 69.6699H135.937V97.4594H89.3789V69.6699Z" fill="#9A9393"/>
<path d="M79.5509 109.358C79.0891 109.964 79.9715 111.773 81.3553 111.773H145.033C146.416 111.773 147.288 109.964 146.758 109.358H79.5509Z" fill="#D3D3D3"/>
<path d="M146.58 109.028C147.11 109.633 146.416 110.124 145.034 110.124H81.3555C79.9717 110.124 79.2246 109.633 79.6864 109.028L86.2058 100.478C86.6675 99.8723 87.8758 99.3818 88.9053 99.3818H136.28C137.309 99.3818 138.573 99.8723 139.103 100.478C141.594 103.329 144.088 106.177 146.58 109.028Z" fill="#9A9393"/>
<g opacity="0.5">
<path d="M93.8287 102.265H91.678C91.9823 101.813 92.1347 101.587 92.4384 101.134H94.5042L93.8287 102.265ZM96.6162 102.265H94.4654C94.7259 101.813 94.8562 101.587 95.116 101.134H97.1812L96.6162 102.265ZM95.7255 100.918H92.5858L92.8694 100.496H95.9614L95.7255 100.918ZM99.4054 100.918L96.2648 100.918L96.4918 100.496H99.5839C99.5128 100.665 99.4764 100.749 99.4054 100.918ZM103.086 100.918H99.9447L100.115 100.496H103.208L103.086 100.918ZM106.765 100.918H103.625L103.738 100.496H106.831C106.805 100.665 106.792 100.749 106.765 100.918ZM110.446 100.918H107.305L107.362 100.496H110.454L110.446 100.918ZM114.125 100.918H110.985V100.496H114.077C114.097 100.665 114.105 100.749 114.125 100.918ZM117.806 100.918H114.665L114.608 100.496H117.701C117.742 100.665 117.764 100.749 117.806 100.918ZM121.486 100.918H118.346L118.232 100.496H121.324C121.389 100.665 121.422 100.749 121.486 100.918ZM125.167 100.918H122.026C121.957 100.749 121.923 100.665 121.854 100.496H124.948L125.167 100.918ZM128.846 100.918H125.706C125.615 100.749 125.569 100.665 125.479 100.496H128.57C128.68 100.665 128.735 100.749 128.846 100.918ZM132.952 100.918H129.386L129.102 100.496H132.613C132.749 100.665 132.817 100.749 132.952 100.918ZM99.4024 102.265H97.2523C97.4683 101.813 97.577 101.587 97.7925 101.135L99.8577 101.134C99.6759 101.587 99.5848 101.813 99.4024 102.265ZM102.189 102.265H100.039C100.211 101.813 100.297 101.587 100.47 101.134L102.535 101.135L102.189 102.265ZM104.977 102.265H102.827C102.955 101.813 103.02 101.587 103.147 101.134H105.213C105.118 101.587 105.071 101.813 104.977 102.265ZM107.764 102.265H105.613C105.697 101.813 105.739 101.586 105.824 101.134H107.89C107.839 101.587 107.813 101.813 107.764 102.265ZM110.549 102.265H108.401L108.501 101.134H110.566C110.56 101.587 110.556 101.813 110.549 102.265ZM113.337 102.265H111.187L111.179 101.134H113.243C113.281 101.587 113.3 101.813 113.337 102.265ZM116.124 102.265H113.974L113.857 101.134H115.92C116.002 101.587 116.042 101.813 116.124 102.265ZM118.91 102.265H116.76C116.67 101.813 116.624 101.587 116.532 101.134H118.597C118.722 101.587 118.785 101.813 118.91 102.265ZM92.928 103.772H90.6657L91.4246 102.642H93.6035L92.928 103.772ZM95.8623 103.772H93.599C93.8595 103.32 93.9898 103.094 94.2496 102.642H96.4285C96.2015 103.094 96.0878 103.32 95.8623 103.772ZM98.7953 103.772H96.5321C96.7482 103.32 96.8556 103.094 97.0723 102.642H99.2503C99.0682 103.094 98.9768 103.32 98.7953 103.772ZM101.729 103.772H99.4649C99.6371 103.32 99.7236 103.094 99.8953 102.642H102.074C101.936 103.094 101.867 103.32 101.729 103.772ZM104.662 103.772H102.399C102.528 103.32 102.592 103.094 102.72 102.643C103.591 102.643 104.026 102.642 104.898 102.642C104.803 103.094 104.756 103.32 104.662 103.772ZM107.595 103.772H105.332L105.543 102.642H107.721C107.671 103.094 107.645 103.32 107.595 103.772ZM110.527 103.772H108.265L108.366 102.642H110.543L110.527 103.772ZM113.461 103.772H111.198L111.19 102.642H113.368C113.405 103.094 113.425 103.32 113.461 103.772ZM116.394 103.772H114.132C114.085 103.32 114.061 103.094 114.014 102.642H116.191L116.394 103.772ZM119.327 103.772H117.065C116.973 103.32 116.927 103.094 116.836 102.642H119.014L119.327 103.772ZM92.0282 105.279H89.6522C89.9556 104.827 90.1083 104.601 90.4123 104.149L92.7036 104.149C92.4334 104.6 92.2978 104.827 92.0282 105.279ZM95.1078 105.279H92.7324L93.3821 104.149H95.674C95.4476 104.601 95.3339 104.827 95.1078 105.279ZM98.1879 105.279H95.8113L96.3515 104.149H98.6429L98.1879 105.279ZM101.267 105.279H98.8903L99.321 104.149H101.613L101.267 105.279ZM104.347 105.279H101.971C102.099 104.827 102.164 104.601 102.292 104.149H104.583C104.489 104.601 104.442 104.827 104.347 105.279ZM107.425 105.279H105.05C105.134 104.827 105.177 104.601 105.261 104.149H107.553L107.425 105.279ZM110.504 105.279H108.13L108.231 104.149H110.521C110.515 104.601 110.512 104.827 110.504 105.279ZM113.586 105.279H111.21C111.207 104.827 111.205 104.601 111.202 104.149H113.493C113.53 104.601 113.548 104.827 113.586 105.279ZM116.665 105.279H114.291C114.243 104.827 114.219 104.601 114.172 104.149H116.462C116.543 104.601 116.584 104.827 116.665 105.279ZM119.744 105.279H117.368C117.277 104.827 117.232 104.601 117.14 104.149H119.431L119.744 105.279ZM91.1277 106.786H88.6387C88.9424 106.334 89.0954 106.108 89.3991 105.656H91.8026C91.578 106.033 91.3531 106.409 91.1277 106.786ZM94.3541 106.786H91.8657L92.5163 105.656H94.9204C94.6939 106.108 94.58 106.334 94.3541 106.786ZM97.5796 106.786H95.0912C95.3073 106.334 95.4156 106.108 95.6323 105.656H98.0355C97.8534 106.108 97.7626 106.334 97.5796 106.786ZM100.795 106.822H98.3022C98.481 106.356 98.5692 106.122 98.7468 105.656H101.152C101.009 106.122 100.938 106.356 100.795 106.822ZM120.162 106.786H101.543C101.671 106.334 101.735 106.108 101.863 105.656H119.849L120.162 106.786ZM106.399 109.269H120.523L119.334 107.343H107.523L106.399 109.269ZM121.432 102.265H119.282C119.15 101.813 119.085 101.587 118.954 101.134H121.02C121.184 101.586 121.266 101.813 121.432 102.265ZM121.981 103.772H119.717C119.587 103.32 119.522 103.094 119.391 102.642H121.57C121.734 103.094 121.816 103.32 121.981 103.772ZM122.531 105.279H120.154C120.023 104.827 119.959 104.601 119.828 104.149H122.119C122.284 104.601 122.365 104.827 122.531 105.279ZM123.08 106.786H120.591L120.264 105.656H122.668L123.08 106.786ZM123.952 102.265H121.802C121.631 101.813 121.546 101.587 121.376 101.134H123.441C123.645 101.587 123.748 101.813 123.952 102.265ZM124.635 103.772H122.371C122.201 103.32 122.115 103.094 121.945 102.642H124.123C124.327 103.094 124.43 103.32 124.635 103.772ZM125.316 105.279H122.94L122.513 104.149H124.804C125.01 104.601 125.111 104.827 125.316 105.279ZM125.998 106.786H123.508C123.338 106.334 123.253 106.108 123.083 105.656H125.486C125.691 106.108 125.793 106.334 125.998 106.786ZM126.473 102.265H124.323L123.797 101.134H125.863C126.107 101.587 126.229 101.813 126.473 102.265ZM127.287 103.772H125.024L124.498 102.642H126.677C126.921 103.094 127.043 103.32 127.287 103.772ZM128.102 105.279H125.726C125.515 104.827 125.41 104.601 125.199 104.149H127.491L128.102 105.279ZM128.916 106.786H126.427C126.216 106.334 126.112 106.108 125.901 105.656H128.305L128.916 106.786ZM128.994 102.265H126.844L126.219 101.134H128.283C128.568 101.587 128.71 101.813 128.994 102.265ZM129.94 103.772H127.678L127.052 102.642H129.231C129.514 103.094 129.657 103.32 129.94 103.772ZM130.887 105.279H128.512C128.262 104.827 128.137 104.601 127.886 104.149H130.178C130.462 104.601 130.603 104.827 130.887 105.279ZM131.834 106.786H129.345C129.137 106.409 128.928 106.032 128.719 105.656H131.124C131.408 106.108 131.549 106.334 131.834 106.786ZM131.515 102.265H129.365C129.074 101.813 128.929 101.587 128.639 101.134H130.705C131.029 101.587 131.191 101.813 131.515 102.265ZM132.593 103.772H130.33C130.04 103.32 129.895 103.094 129.606 102.642H131.785C132.108 103.094 132.27 103.32 132.593 103.772ZM133.673 105.279H131.296C131.007 104.827 130.862 104.601 130.572 104.149H132.864C133.188 104.601 133.349 104.827 133.673 105.279ZM134.752 106.786H132.262L131.538 105.656H133.943L134.752 106.786ZM134.035 102.265H131.885C131.556 101.813 131.391 101.587 131.061 101.134H133.127C133.49 101.587 133.672 101.813 134.035 102.265ZM135.247 103.772H132.983C132.655 103.32 132.489 103.094 132.16 102.642H134.338L135.247 103.772ZM136.458 105.279H134.082C133.752 104.827 133.588 104.601 133.258 104.149H135.55C135.913 104.601 136.095 104.827 136.458 105.279ZM137.67 106.786H135.18L134.357 105.656H136.761C137.124 106.108 137.306 106.334 137.67 106.786Z" fill="#D3D3D3"/>
</g>
<path d="M124.579 97.4523H102.412C102.57 96.8068 102.716 96.2914 102.843 95.9327C102.909 95.7485 103 95.5743 103.113 95.4149C103.506 94.8567 104.178 94.3819 105.044 93.9805C106.079 93.5007 107.388 93.1236 108.823 92.8246C110.347 92.5111 112.011 92.2851 113.63 92.1215C113.739 92.1117 113.848 92.1002 113.957 92.0907C115.758 91.922 117.489 91.8294 118.885 91.7845C120.813 91.7177 122.112 91.7317 122.112 91.7317C122.112 91.7317 122.216 91.8982 122.399 92.2308C122.827 93.0194 123.682 94.7477 124.579 97.4523Z" fill="#E8E2EE"/>
<path d="M107.598 61.1709C107.556 61.4559 107.482 61.7199 107.377 61.974L107.44 61.2555C107.493 61.2235 107.546 61.2027 107.598 61.1709Z" fill="#FFE3CA"/>
<path d="M119.342 60.1042V60.114C119.32 60.1042 119.298 60.0928 119.288 60.0928C119.31 60.0931 119.32 60.1042 119.342 60.1042Z" fill="#EEBEA7"/>
<path d="M142.09 75.2665C142.09 75.2665 143.46 73.9933 143.188 73.0382C142.958 72.2276 143.305 71.3196 143.392 70.9428C143.509 70.4437 143.556 68.8235 143.927 68.9117C144.556 69.0649 144.411 71.6513 144.488 72.2026C144.565 72.7534 146.23 70.9087 146.798 70.8122C147.367 70.7136 150.257 73.6519 148.969 74.7867C147.682 75.9191 145.906 76.3787 145.718 76.6234C145.531 76.868 144.649 77.5402 144.649 77.5402L142.09 75.2665Z" fill="#F1B99E"/>
<path d="M146.434 71.0038C146.434 71.0038 150.608 67.7972 151.064 67.8165C151.522 67.8349 151.68 68.0736 151.302 68.3889C150.925 68.7051 147.361 71.6066 147.361 71.6066C147.361 71.6066 152.935 68.6422 153.313 68.576C153.533 68.5368 153.702 68.9608 153.514 69.1493C153.328 69.3358 148.14 72.6095 148.14 72.6095C148.14 72.6095 153.35 69.8506 153.682 69.8898C153.973 69.9252 154.18 70.4068 153.808 70.6378C153.435 70.8685 148.744 73.704 148.744 73.704C148.744 73.704 152.663 71.9367 152.924 72.1342C153.082 72.2565 153.308 72.5249 152.285 72.9489C151.259 73.3735 149.028 74.7289 149.028 74.7289L146.434 71.0038Z" fill="#F1B99E"/>
<path d="M116.634 57.3359V57.621C116.612 57.569 116.592 57.5263 116.582 57.4734C116.56 57.463 116.56 57.4422 116.56 57.4307C116.582 57.3998 116.602 57.3686 116.634 57.3359Z" fill="#FFBE55"/>
<path d="M113.496 59.069C113.454 59.0788 113.4 59.0788 113.359 59.0788V59.058C113.4 59.069 113.454 59.069 113.496 59.069ZM116.634 57.3359V57.4209C116.616 57.438 116.599 57.4555 116.581 57.4734C116.466 57.6002 116.339 57.716 116.213 57.8327C116.16 57.8751 116.118 57.9167 116.066 57.9592C116.128 57.8965 116.202 57.822 116.266 57.7587C116.361 57.6637 116.455 57.5476 116.56 57.4307C116.581 57.3998 116.602 57.3686 116.634 57.3359Z" fill="#EEBEA7"/>
<path d="M119.045 53.692C118.466 54.9809 117.761 56.143 116.96 57.062C116.855 57.1885 116.739 57.3149 116.634 57.4209V57.336C116.602 57.3684 116.581 57.3999 116.56 57.4307C116.455 57.5477 116.361 57.6638 116.266 57.7588C116.202 57.8224 116.128 57.8966 116.066 57.9592C116.043 57.9702 116.023 57.9916 116.002 58.0124C115.97 58.0439 115.939 58.0759 115.907 58.0863C115.824 58.1591 115.736 58.2261 115.644 58.2867C115.528 58.3714 115.423 58.445 115.308 58.5085C115.28 58.5272 115.252 58.5449 115.223 58.5617C115.117 58.6243 115.013 58.6775 114.919 58.7193C114.824 58.7704 114.725 58.8129 114.623 58.8464L114.613 58.8571C114.528 58.8785 114.465 58.9099 114.391 58.931C114.369 58.9417 114.349 58.9524 114.328 58.9524C114.255 58.9732 114.181 58.994 114.106 59.0053C114.086 59.0053 114.075 59.0154 114.054 59.0154H114.022C113.97 59.0266 113.907 59.037 113.855 59.0477C113.802 59.0578 113.738 59.0578 113.686 59.0578C113.634 59.0688 113.58 59.0688 113.538 59.0688H113.528C113.518 59.0786 113.507 59.0786 113.496 59.0688C113.454 59.0688 113.401 59.0688 113.359 59.0578V59.0786C113.297 59.0786 113.233 59.0688 113.16 59.0578C113.085 59.0477 113.001 59.037 112.927 59.0266C112.885 59.0154 112.844 59.0154 112.79 59.0053C112.749 58.994 112.706 58.994 112.664 58.9732C112.443 58.9203 112.233 58.8357 112.012 58.7193C111.942 58.6852 111.876 58.6467 111.811 58.6041C111.464 58.4034 111.127 58.1181 110.779 57.7585C110.654 57.6326 110.537 57.4842 110.411 57.3357C109.874 56.6597 109.338 55.7627 108.842 54.6219C108.64 54.1658 108.45 53.7042 108.273 53.2377C108.536 53.7553 108.077 48.9275 108.183 49.097C106.751 46.3506 108.178 48.611 108.685 47.249C111.854 48.5902 118.013 50.9037 118.013 48.5584C118.013 48.5584 118.15 49.9845 118.309 51.4631C118.435 52.6778 118.572 53.9355 118.635 54.4105C118.635 54.4102 118.803 54.146 119.045 53.692Z" fill="#F4C7B1"/>
<path d="M113.496 59.069C113.454 59.0788 113.4 59.0788 113.359 59.0788V59.058C113.4 59.069 113.454 59.069 113.496 59.069ZM116.634 57.3359V57.4209C116.616 57.438 116.599 57.4555 116.581 57.4734C116.466 57.6002 116.339 57.716 116.213 57.8327C116.16 57.8751 116.118 57.9167 116.066 57.9592C116.128 57.8965 116.202 57.822 116.266 57.7587C116.361 57.6637 116.455 57.5476 116.56 57.4307C116.581 57.3998 116.602 57.3686 116.634 57.3359Z" fill="#EEBEA7"/>
<path d="M108.272 53.2382C107.429 51.5692 106.071 48.3798 106.314 45.3584V45.3474C105.935 42.8445 109.042 38.3341 113.78 38.5662C118.519 38.3341 121.626 42.8445 121.246 45.3474V45.3584C121.393 47.1856 120.951 49.0656 120.403 50.6402C120.751 50.6286 121.087 50.6711 121.424 50.7874C123.31 51.411 124.194 53.8721 123.394 56.2699C122.605 58.6779 120.424 60.114 118.54 59.4911C117.665 59.2058 117.002 58.5196 116.634 57.6212V57.4211C116.738 57.3154 116.855 57.1886 116.96 57.0621C117.76 56.1431 118.466 54.981 119.045 53.6921C118.802 54.1464 118.655 54.7046 118.655 54.7046C118.591 54.2301 118.434 52.6779 118.308 51.4632C118.149 49.9846 118.012 48.5585 118.012 48.5585C118.012 50.9041 111.853 48.5903 108.684 47.2491L108.272 53.2382Z" fill="#1A1A1A"/>
<path d="M116.634 57.3359V57.621C116.634 57.822 116.624 58.0649 116.634 58.3395C116.328 58.7195 116.023 59.0369 115.707 59.2795C115.601 59.3641 115.496 59.4384 115.392 59.512C115.312 59.5721 115.227 59.625 115.138 59.6703H115.128C114.644 59.9446 114.159 60.0821 113.686 60.0928H113.443C113.412 60.0928 113.38 60.0928 113.359 60.0821V59.0574C113.4 59.0684 113.454 59.0684 113.496 59.0684C113.507 59.0782 113.517 59.0782 113.527 59.0684H113.537C113.591 59.0782 113.633 59.0782 113.686 59.0782C113.749 59.0782 113.822 59.0684 113.885 59.0574C113.959 59.0473 114.044 59.0367 114.118 59.0263C114.159 59.015 114.201 59.015 114.255 59.0049C114.297 58.9936 114.339 58.9936 114.381 58.9728C114.602 58.92 114.812 58.8353 115.032 58.719C115.097 58.6881 115.171 58.6459 115.233 58.6038C115.464 58.477 115.686 58.3071 115.907 58.0856C115.939 58.0753 115.97 58.0432 116.002 58.0117C116.023 57.9909 116.044 57.9695 116.066 57.9586C116.128 57.8959 116.202 57.8214 116.266 57.7582C116.361 57.6631 116.455 57.547 116.56 57.4301C116.581 57.3998 116.602 57.3686 116.634 57.3359Z" fill="#A5735B"/>
<path d="M113.359 66.3876V94.9814L118.277 94.7706L122.321 94.591L121.91 89.5949L121.457 84.0064C120.755 84.3052 120.056 84.6118 119.361 84.9262C119.551 82.7184 119.635 80.6905 119.509 79.0316C119.014 72.8627 118.245 67.8351 117.645 64.55V64.5393C117.708 63.9057 117.623 63.1979 117.476 62.5432C117.455 62.4081 117.427 62.2742 117.392 62.1418C117.35 61.9936 117.319 61.8567 117.277 61.7193L117.181 61.4028C117.161 61.3288 117.129 61.2549 117.109 61.1911C117.031 60.9326 116.94 60.6787 116.834 60.4307H116.813C116.898 60.8113 117.193 62.0788 117.561 64.0747V64.0857C117.32 65.1418 116.55 65.7332 115.602 66.0613C115.592 66.0613 115.571 66.0711 115.56 66.0711C114.908 66.2935 114.17 66.3775 113.465 66.3879C113.434 66.3876 113.391 66.3986 113.359 66.3876Z" fill="#A652FA"/>
<path d="M124.595 75.2836C124.848 75.6734 125.205 76.392 125.564 77.2055C125.512 78.1034 125.448 78.6414 125.448 78.6414C125.448 78.6414 125.059 79.666 124.543 81.2723C124.405 81.6728 123.08 88.7714 122.932 89.2367C122.9 89.321 122.879 89.416 122.848 89.5006C122.363 89.7429 122.472 89.3201 121.629 89.6592C121.377 89.7643 121.102 89.87 120.818 89.9962C120.776 90.0184 120.724 90.0389 120.649 90.0704C120.565 90.1022 120.481 90.1339 120.396 90.1761C119.836 90.4178 119.278 90.6644 118.723 90.9157C118.912 88.7079 119.636 80.6913 119.509 79.0327C119.014 72.8638 118.246 67.8361 117.646 64.5511V64.5404C117.613 64.3822 117.593 64.2346 117.561 64.0864V64.0755C117.193 62.0796 116.898 60.8124 116.813 60.4315H119.541V60.4531C120.299 60.4 123.876 59.8949 126.32 62.2293C124.971 61.6482 123.185 62.174 122.585 62.5443C122.343 62.6836 122.119 62.854 121.92 63.0511C121.615 63.337 121.365 63.6773 121.184 64.0547C119.436 67.6779 123.858 74.163 124.595 75.2836Z" fill="#C4B3FF"/>
<path d="M124.794 97.4522H118.017C118.087 96.5858 118.177 95.6876 118.277 94.7717C118.379 93.7886 118.5 92.7892 118.615 91.7844C118.654 91.4376 118.694 91.0929 118.731 90.747C118.731 90.747 118.734 90.747 118.736 90.7446C119.56 90.4427 120.642 89.0395 121.828 88.5695C121.856 88.5597 121.882 88.5481 121.911 88.5383C122.249 88.4222 122.585 89.3622 122.931 89.2363C123.153 91.5968 123.947 94.6766 124.794 97.4522Z" fill="#C4B3FF"/>
<path d="M113.359 60.0824V66.3882C113.391 66.3992 113.434 66.3882 113.466 66.3882C114.171 66.3778 114.908 66.2938 115.56 66.0714C115.572 66.0714 115.592 66.0616 115.602 66.0616C116.55 65.7336 117.32 65.1421 117.561 64.086V64.075C117.193 62.0792 116.898 60.8119 116.814 60.431H116.666V60.2306C116.666 60.1041 116.655 59.9877 116.655 59.8713C116.645 59.491 116.645 59.132 116.635 58.7831V58.3398C116.329 58.7199 116.024 59.0373 115.708 59.2799C115.611 59.3672 115.505 59.445 115.393 59.5124C115.313 59.5721 115.228 59.625 115.14 59.6706H115.13C114.613 59.9666 114.108 60.0931 113.602 60.0931C113.518 60.0931 113.434 60.0931 113.359 60.0824Z" fill="#F4C7B1"/>
<path d="M143.57 73.9345L143.814 74.3694L143.821 74.3778L145.724 77.7516L146.018 78.2709C146.018 78.2709 145.441 78.5039 144.534 78.889C143.708 79.2391 142.612 79.699 141.424 80.215C141.094 80.3627 140.763 80.5072 140.431 80.6485C138.12 81.6767 135.688 82.7744 134.47 83.4769C131.812 84.9992 129.601 85.531 128.254 85.5031C126.914 85.4674 123.975 77.5108 123.516 75.6019C123.051 73.7014 121.331 70.1993 120.099 66.8647C119.578 65.4478 119.729 64.1975 120.175 63.205C120.769 61.8593 121.888 60.9897 122.58 60.8507C122.852 60.788 123.131 60.7606 123.411 60.7691C123.841 60.7709 124.248 60.8537 124.63 61.0019C128.369 62.4636 129.527 70.2349 129.746 71.5586C129.827 72.0179 130.052 72.7881 130.341 73.6289C130.982 75.596 131.916 77.9698 131.916 77.9698C133.794 77.158 134.569 76.9261 135.285 76.7204C135.804 76.5681 136.294 76.444 137.141 76.1174C137.397 76.0224 137.67 75.9116 137.964 75.8109C138.681 75.5505 139.401 75.2984 140.123 75.0547C141.911 74.4555 143.57 73.9345 143.57 73.9345Z" fill="#C4B3FF"/>
<path d="M113.686 59.0574V60.0821C113.654 60.0928 113.634 60.0928 113.602 60.0928H113.359C112.884 60.0821 112.4 59.9446 111.915 59.6703H111.905C111.817 59.6246 111.732 59.5716 111.652 59.512C111.545 59.4377 111.44 59.3601 111.337 59.2795C111.021 59.0369 110.715 58.7193 110.41 58.3395C110.42 57.9277 110.41 57.5788 110.41 57.3359C110.537 57.4844 110.653 57.6326 110.778 57.7587C111.126 58.1183 111.463 58.4039 111.811 58.6043C111.874 58.6465 111.948 58.689 112.011 58.7195C112.233 58.8359 112.443 58.9206 112.663 58.9734C112.705 58.9942 112.748 58.9942 112.789 59.0055C112.844 59.0156 112.884 59.0156 112.926 59.0269C113.001 59.0372 113.085 59.0479 113.159 59.058C113.232 59.069 113.296 59.0788 113.359 59.0788C113.4 59.0788 113.454 59.0788 113.496 59.069C113.506 59.0788 113.517 59.0788 113.527 59.069H113.537C113.579 59.0684 113.633 59.0684 113.686 59.0574Z" fill="#A5735B"/>
<path d="M113.686 66.3876V94.9814L108.768 94.7706L104.724 94.591L105.135 89.5949L105.588 84.0064C106.241 84.2819 106.978 84.6088 107.684 84.9262C107.493 82.7184 107.411 80.6905 107.536 79.0316C108.031 72.8627 108.799 67.8351 109.399 64.55V64.5393C109.337 63.9057 109.422 63.1979 109.568 62.5432C109.589 62.4048 109.621 62.2688 109.653 62.1418C109.695 61.9936 109.726 61.8567 109.768 61.7193L109.864 61.4028C109.884 61.3288 109.916 61.2549 109.937 61.1911C110.015 60.9328 110.106 60.679 110.211 60.4307H110.231C110.147 60.8113 109.852 62.0788 109.484 64.0747V64.0857C109.726 65.1418 110.495 65.7332 111.444 66.0613C111.454 66.0613 111.474 66.0711 111.486 66.0711C112.137 66.2935 112.875 66.3775 113.58 66.3879C113.611 66.3876 113.654 66.3986 113.686 66.3876Z" fill="#A652FA"/>
<path d="M110.231 60.4307C110.147 60.8113 109.851 62.0788 109.484 64.0747V64.0857C109.452 64.2335 109.431 64.3814 109.399 64.5396V64.5503C108.799 67.8354 108.031 72.863 107.536 79.0319C107.41 80.6905 107.493 82.7187 107.684 84.9265C106.988 84.6121 106.289 84.3055 105.587 84.0067C105.303 83.8799 105.029 83.7748 104.777 83.6697C103.934 83.3312 103.491 83.088 103.007 82.8449C102.977 82.7605 102.955 82.6661 102.923 82.5815C102.776 82.1165 102.639 81.6726 102.502 81.2721C101.986 79.6661 101.597 78.6412 101.597 78.6412C101.597 78.6412 101.534 78.1032 101.481 77.2053C101.839 76.3915 102.197 75.6732 102.45 75.2834C103.187 74.1628 107.609 67.6777 105.861 64.0545C105.679 63.677 105.43 63.3367 105.124 63.0509C104.926 62.854 104.702 62.6836 104.46 62.5441C103.861 62.1741 101.5 62.5928 100.152 63.1738C102.595 60.8386 106.746 60.3998 107.504 60.4529V60.4313H110.231V60.4307ZM109.028 97.452H102.25C102.454 96.7852 102.655 96.1011 102.842 95.4146C103.446 93.2394 103.945 91.031 104.113 89.2362C104.459 89.3621 104.798 89.4785 105.136 89.5946C106.357 90.0266 107.473 90.4402 108.313 90.7469C108.389 91.4396 108.471 92.1352 108.552 92.8244C108.625 93.4791 108.701 94.1299 108.767 94.7712C108.867 95.6875 108.957 96.5856 109.028 97.452Z" fill="#C4B3FF"/>
<path d="M113.686 60.0824V66.3882C113.655 66.3992 113.612 66.3882 113.58 66.3882C112.875 66.3778 112.137 66.2938 111.485 66.0714C111.474 66.0714 111.454 66.0616 111.443 66.0616C110.495 65.7336 109.725 65.1421 109.484 64.086V64.075C109.852 62.0792 110.148 60.8119 110.231 60.431H110.379V60.2306C110.379 60.1041 110.39 59.9877 110.39 59.8713C110.4 59.491 110.4 59.132 110.41 58.7831V58.3398C110.716 58.7199 111.021 59.0373 111.337 59.2799C111.443 59.3752 111.548 59.4488 111.652 59.5124C111.737 59.5756 111.821 59.6275 111.905 59.6706H111.916C112.432 59.9666 112.939 60.0931 113.443 60.0931C113.528 60.0931 113.611 60.0931 113.686 60.0824Z" fill="#F4C7B1"/>
<path d="M116.591 88.0421C116.518 88.5068 116.212 88.8553 116.212 88.8553C116.212 88.8553 116.391 89.4676 115.981 89.869C115.981 89.869 116.118 90.4497 115.581 90.8301C115.581 90.8301 115.707 91.4008 115.285 91.6439C115.285 91.6439 114.369 91.7603 114.033 91.6971C112.672 91.3863 111.313 91.0622 109.958 90.725L110.853 86.9536V86.9435C111.243 86.6796 111.611 86.4358 111.727 86.3622C112.011 86.1926 112.98 86.2461 113.979 86.5626C114.949 86.8693 116.034 87.3022 116.339 87.4711C116.497 87.5557 116.654 87.5881 116.591 88.0421Z" fill="#EEA886"/>
<path d="M110.969 86.4575L110.853 86.9439V86.954L109.958 90.7254L109.821 91.3067C109.821 91.3067 109.241 91.0849 108.313 90.7464C107.472 90.44 106.356 90.0285 105.135 89.5956C104.798 89.4789 104.46 89.3625 104.114 89.2366C101.723 88.4118 99.1952 87.5564 97.8262 87.2396C94.8461 86.5422 92.8655 85.4228 91.897 84.4831C90.9395 83.5431 94.1825 75.7055 95.1415 73.9941C96.0893 72.2827 97.2043 68.5436 98.5635 65.2589C99.1425 63.864 100.1 63.0511 101.101 62.6289C102.45 62.0475 103.861 62.174 104.46 62.5439C104.702 62.6833 104.925 62.8537 105.124 63.0508C105.429 63.3366 105.679 63.6769 105.86 64.0543C107.608 67.6776 103.186 74.1627 102.45 75.2833C102.197 75.6731 101.838 76.3916 101.481 77.2052C100.617 79.0846 99.6904 81.4614 99.6904 81.4614C101.617 82.1488 102.343 82.5071 103.007 82.8447C103.491 83.0879 103.933 83.3311 104.777 83.6695C105.028 83.7746 105.303 83.8797 105.587 84.0065C106.24 84.2821 106.977 84.609 107.683 84.9264C108.782 85.428 109.878 85.9384 110.969 86.4575Z" fill="#C4B3FF"/>
<path d="M120.891 50.6964L120.8 46.5574C120.787 45.8668 120.8 45.1827 120.702 44.5423C120.605 43.8926 120.429 43.2567 120.157 42.6679C119.622 41.4877 118.724 40.4915 117.596 39.8597C116.469 39.2181 115.159 38.9265 113.852 38.9318C112.545 38.9265 111.232 39.2181 110.11 39.8597C108.98 40.4915 108.082 41.4877 107.545 42.6679C107.275 43.2564 107.099 43.8926 107.002 44.5423C106.904 45.1896 106.914 45.8579 106.905 46.5574L106.812 50.6964H106.295L106.207 46.5574C106.198 45.8787 106.167 45.164 106.258 44.4422C106.348 43.7273 106.523 43.0141 106.813 42.3434C107.373 40.9903 108.419 39.8434 109.685 39.118C110.953 38.3814 112.416 38.0494 113.852 38.042C115.289 38.0494 116.751 38.3814 118.019 39.118C119.286 39.8434 120.331 40.9903 120.89 42.3434C121.179 43.0141 121.356 43.7273 121.447 44.4422C121.537 45.1697 121.507 45.8719 121.499 46.5574L121.41 50.6964H120.891Z" fill="#C4B3FF"/>
<path d="M106.709 52.9431C105.78 52.9431 105.546 52.2753 105.546 51.4505V48.7744C105.546 47.9505 105.78 47.2812 106.709 47.2812H106.931V52.9431H106.709Z" fill="#A652FA"/>
<path d="M106.93 47.2822H107.41V52.944H106.93V47.2822Z" fill="#9DABB8"/>
<path d="M121.137 52.9431C122.066 52.9431 122.302 52.2753 122.302 51.4505V48.7744C122.302 47.9505 122.066 47.2812 121.137 47.2812H120.915V52.9431H121.137Z" fill="#A652FA"/>
<path d="M120.435 47.2822H120.915V52.944H120.435V47.2822Z" fill="#9DABB8"/>
<path d="M114.196 58.1028V57.5835C116.338 57.5835 120.417 54.5304 120.417 52.9434H120.934C120.934 54.9523 116.422 58.1028 114.196 58.1028Z" fill="#CCE9FF"/>
<path d="M114.54 58.5681H113.851C113.278 58.5681 112.815 58.2444 112.815 57.8427C112.815 57.4425 113.278 57.1191 113.851 57.1191H114.54C115.112 57.1191 115.575 57.4428 115.575 57.8427C115.575 58.2444 115.112 58.5681 114.54 58.5681Z" fill="#9DABB8"/>
<path d="M95.7269 30.1203V34.2215L95.7024 39.7889L95.6695 46.5134L95.6488 51.4742L90.7219 46.4944L89.2185 46.4891L69.282 46.3955C65.9138 45.7364 63.3721 42.7631 63.3721 39.1981V30.1203C63.3721 26.3546 66.2107 23.2444 69.8568 22.835L89.8404 22.9273C93.1953 23.5915 95.7269 26.5591 95.7269 30.1203Z" fill="#9939F9"/>
<path opacity="0.8" d="M89.5115 30.3171C89.5117 30.4586 89.484 30.5986 89.4302 30.7293C89.3763 30.86 89.2973 30.9788 89.1977 31.0789C89.0981 31.179 88.9798 31.2584 88.8496 31.3126C88.7194 31.3668 88.5798 31.3948 88.4388 31.3949H70.0617C69.9206 31.3949 69.7809 31.367 69.6506 31.3129C69.5203 31.2587 69.4018 31.1793 69.3021 31.0792C69.2024 30.9791 69.1233 30.8603 69.0694 30.7295C69.0154 30.5988 68.9877 30.4586 68.9878 30.3171C68.9878 30.1757 69.0156 30.0356 69.0695 29.905C69.1235 29.7743 69.2026 29.6555 69.3023 29.5555C69.4021 29.4555 69.5205 29.3762 69.6507 29.3221C69.781 29.268 69.9207 29.2402 70.0617 29.2402H88.4388C89.0308 29.2402 89.5115 29.7221 89.5115 30.3171ZM89.5115 34.3278C89.5114 34.6133 89.3984 34.8872 89.1973 35.0892C88.9962 35.2913 88.7235 35.4052 88.4388 35.4059H70.0617C69.7769 35.4054 69.5039 35.2916 69.3026 35.0895C69.1013 34.8874 68.9881 34.6135 68.9878 34.3278C68.9878 34.1863 69.0155 34.0462 69.0694 33.9155C69.1234 33.7847 69.2025 33.6659 69.3022 33.5658C69.4019 33.4657 69.5203 33.3864 69.6506 33.3322C69.7809 33.278 69.9206 33.2501 70.0617 33.25H88.4388C88.5798 33.2501 88.7194 33.2781 88.8496 33.3323C88.9798 33.3866 89.0981 33.466 89.1977 33.5661C89.2973 33.6662 89.3763 33.7849 89.4302 33.9156C89.484 34.0463 89.5117 34.1864 89.5115 34.3278ZM83.8973 38.3382C83.8973 38.9291 83.4148 39.413 82.8216 39.413H70.0605C69.7765 39.4127 69.5043 39.2993 69.3036 39.0978C69.1029 38.8963 68.9902 38.6231 68.9902 38.3382C68.9902 38.0404 69.1071 37.7726 69.3024 37.5769C69.4016 37.4763 69.5196 37.3963 69.6497 37.3417C69.7798 37.287 69.9194 37.2588 70.0605 37.2586H82.8216C83.1069 37.259 83.3804 37.3728 83.5821 37.5752C83.7838 37.7776 83.8972 38.052 83.8973 38.3382Z" fill="#CCE9FF"/>
</g>
<defs>
<linearGradient id="paint0_linear_3628_1467" x1="112" y1="0" x2="112" y2="270" gradientUnits="userSpaceOnUse">
<stop stop-color="#A652FA"/>
<stop offset="1" stop-color="#909299"/>
</linearGradient>
<clipPath id="clip0_3628_1467">
<rect width="148" height="125" fill="white" transform="translate(38)"/>
</clipPath>
</defs>
</svg>
