<svg width="16" height="16" viewBox="0 0 16 16" fill="none" xmlns="http://www.w3.org/2000/svg">
<path d="M4.66699 4.66663H4.00033C3.6467 4.66663 3.30756 4.8071 3.05752 5.05715C2.80747 5.3072 2.66699 5.64634 2.66699 5.99996V12C2.66699 12.3536 2.80747 12.6927 3.05752 12.9428C3.30756 13.1928 3.6467 13.3333 4.00033 13.3333H10.0003C10.3539 13.3333 10.6931 13.1928 10.9431 12.9428C11.1932 12.6927 11.3337 12.3536 11.3337 12V11.3333" stroke="#05AB15" stroke-linecap="round" stroke-linejoin="round"/>
<path d="M10.6667 3.33328L12.6667 5.33328M13.59 4.38995C13.8526 4.12738 14.0001 3.77127 14.0001 3.39995C14.0001 3.02863 13.8526 2.67251 13.59 2.40995C13.3274 2.14738 12.9713 1.99988 12.6 1.99988C12.2287 1.99988 11.8726 2.14738 11.61 2.40995L6 7.99995V9.99995H8L13.59 4.38995Z" stroke="#05AB15" stroke-linecap="round" stroke-linejoin="round"/>
</svg>
