<svg width="87" height="121" viewBox="0 0 87 121" fill="none" xmlns="http://www.w3.org/2000/svg">
<path d="M16.888 0.15625L33.7755 18.1562H0.000488281L16.888 0.15625Z" fill="#6B21A8"/>
<path fill-rule="evenodd" clip-rule="evenodd" d="M86.853 2C86.853 0.895431 85.9576 0 84.853 0H17.853C16.7485 0 15.853 0.895429 15.853 2V118.352C15.853 119.919 17.572 120.877 18.9045 120.053L50.3016 100.65C50.946 100.252 51.7601 100.252 52.4045 100.65L83.8016 120.053C85.134 120.877 86.853 119.919 86.853 118.352V2Z" fill="url(#paint0_linear_1840_2864)"/>
<path d="M34.5544 49.18C33.5811 49.18 32.7144 49.0067 31.9544 48.66C31.2078 48.3 30.6211 47.8067 30.1944 47.18C29.7678 46.5533 29.5544 45.8333 29.5544 45.02H32.2544C32.2944 45.62 32.5211 46.1 32.9344 46.46C33.3478 46.8067 33.9011 46.98 34.5944 46.98C35.3144 46.98 35.8744 46.8133 36.2744 46.48C36.6744 46.1333 36.8744 45.66 36.8744 45.06C36.8744 44.4733 36.6411 44.0133 36.1744 43.68C35.7078 43.3467 35.0611 43.18 34.2344 43.18H32.7744V40.98H34.0744C34.5411 40.98 34.9344 40.9067 35.2544 40.76C35.5744 40.6133 35.8211 40.4067 35.9944 40.14C36.1678 39.8733 36.2544 39.56 36.2544 39.2C36.2544 38.6667 36.0878 38.2467 35.7544 37.94C35.4211 37.6333 34.9678 37.48 34.3944 37.48C33.8344 37.48 33.3811 37.6533 33.0344 38C32.7011 38.3333 32.5278 38.7933 32.5144 39.38H29.8144C29.8278 38.5933 30.0411 37.8933 30.4544 37.28C30.8678 36.6533 31.4278 36.1667 32.1344 35.82C32.8544 35.46 33.6544 35.28 34.5344 35.28C35.4811 35.28 36.2944 35.44 36.9744 35.76C37.6678 36.08 38.1944 36.52 38.5544 37.08C38.9278 37.6267 39.1144 38.2667 39.1144 39C39.1144 39.6133 38.9411 40.1667 38.5944 40.66C38.2478 41.14 37.7478 41.5533 37.0944 41.9C37.9478 42.1667 38.6011 42.5667 39.0544 43.1C39.5078 43.62 39.7344 44.2467 39.7344 44.98C39.7344 45.82 39.5144 46.5533 39.0744 47.18C38.6344 47.8067 38.0278 48.3 37.2544 48.66C36.4944 49.0067 35.5944 49.18 34.5544 49.18ZM46.4807 35.32C47.5074 35.32 48.4074 35.5267 49.1807 35.94C49.9674 36.34 50.5807 36.88 51.0207 37.56C51.474 38.24 51.7007 38.9867 51.7007 39.8C51.7007 40.3467 51.6407 40.8467 51.5207 41.3C51.4007 41.7533 51.214 42.2067 50.9607 42.66C50.7074 43.1 50.3607 43.5733 49.9207 44.08L45.8607 49H42.7207L46.6007 44.26C46.4807 44.3 46.3674 44.3267 46.2607 44.34C46.154 44.3533 46.0407 44.36 45.9207 44.36C45.0007 44.36 44.1874 44.1733 43.4807 43.8C42.7874 43.4267 42.2407 42.9133 41.8407 42.26C41.4407 41.5933 41.2407 40.8333 41.2407 39.98C41.2407 39.1133 41.4607 38.3267 41.9007 37.62C42.3407 36.9133 42.954 36.3533 43.7407 35.94C44.5407 35.5267 45.454 35.32 46.4807 35.32ZM46.4607 37.64C46.034 37.64 45.6407 37.7267 45.2807 37.9C44.934 38.0733 44.654 38.3267 44.4407 38.66C44.2274 38.9933 44.1207 39.4 44.1207 39.88C44.1207 40.3867 44.2274 40.8133 44.4407 41.16C44.654 41.5067 44.934 41.7667 45.2807 41.94C45.6407 42.1 46.034 42.18 46.4607 42.18C47.0874 42.18 47.634 42 48.1007 41.64C48.5674 41.2667 48.8007 40.6867 48.8007 39.9C48.8007 39.4067 48.6874 38.9933 48.4607 38.66C48.2474 38.3267 47.9607 38.0733 47.6007 37.9C47.254 37.7267 46.874 37.64 46.4607 37.64ZM57.5037 43.76C56.6637 43.76 55.9103 43.5733 55.2437 43.2C54.5903 42.8133 54.0703 42.3 53.6837 41.66C53.3103 41.02 53.1237 40.32 53.1237 39.56C53.1237 38.7867 53.3103 38.0867 53.6837 37.46C54.0703 36.82 54.5903 36.3133 55.2437 35.94C55.9103 35.5533 56.6637 35.36 57.5037 35.36C58.3437 35.36 59.0903 35.5533 59.7437 35.94C60.4103 36.3133 60.9303 36.82 61.3037 37.46C61.6903 38.0867 61.8837 38.7867 61.8837 39.56C61.8837 40.32 61.6903 41.02 61.3037 41.66C60.9303 42.3 60.4103 42.8133 59.7437 43.2C59.0903 43.5733 58.3437 43.76 57.5037 43.76ZM57.5037 41.8C57.8903 41.8 58.2437 41.72 58.5637 41.56C58.8837 41.3867 59.137 41.1333 59.3237 40.8C59.5103 40.4533 59.6037 40.04 59.6037 39.56C59.6037 39.0533 59.5103 38.64 59.3237 38.32C59.137 37.9867 58.8837 37.74 58.5637 37.58C58.2437 37.4067 57.8903 37.32 57.5037 37.32C57.1303 37.32 56.777 37.4067 56.4437 37.58C56.1237 37.74 55.8637 37.9867 55.6637 38.32C55.477 38.64 55.3837 39.0533 55.3837 39.56C55.3837 40.04 55.477 40.4533 55.6637 40.8C55.8637 41.1333 56.1237 41.3867 56.4437 41.56C56.777 41.72 57.1303 41.8 57.5037 41.8ZM60.8237 49H58.6037L66.2837 35.48H68.5037L60.8237 49ZM69.9437 49.18C69.1037 49.18 68.3503 48.9933 67.6837 48.62C67.0303 48.2333 66.5103 47.72 66.1237 47.08C65.7503 46.44 65.5637 45.74 65.5637 44.98C65.5637 44.2067 65.7503 43.5067 66.1237 42.88C66.5103 42.24 67.0303 41.7333 67.6837 41.36C68.3503 40.9733 69.1037 40.78 69.9437 40.78C70.7837 40.78 71.5303 40.9733 72.1837 41.36C72.8503 41.7333 73.3703 42.24 73.7437 42.88C74.1303 43.5067 74.3237 44.2067 74.3237 44.98C74.3237 45.74 74.1303 46.44 73.7437 47.08C73.3703 47.72 72.8503 48.2333 72.1837 48.62C71.5303 48.9933 70.7837 49.18 69.9437 49.18ZM69.9437 47.2C70.3303 47.2 70.6837 47.12 71.0037 46.96C71.3237 46.7867 71.577 46.5333 71.7637 46.2C71.9637 45.8667 72.0637 45.46 72.0637 44.98C72.0637 44.4733 71.9637 44.06 71.7637 43.74C71.577 43.4067 71.3237 43.16 71.0037 43C70.6837 42.8267 70.3303 42.74 69.9437 42.74C69.5703 42.74 69.217 42.8267 68.8837 43C68.5637 43.16 68.3037 43.4067 68.1037 43.74C67.917 44.06 67.8237 44.4733 67.8237 44.98C67.8237 45.46 67.917 45.8667 68.1037 46.2C68.3037 46.5333 68.5637 46.7867 68.8837 46.96C69.217 47.12 69.5703 47.2 69.9437 47.2ZM39.7064 73.58C39.7064 74.6867 39.2931 75.5667 38.4664 76.22C37.6531 76.8733 36.4864 77.2 34.9664 77.2C33.4597 77.2 32.2797 76.86 31.4264 76.18C30.5864 75.4867 30.1131 74.5467 30.0064 73.36H32.6664C32.6797 73.9067 32.8997 74.3467 33.3264 74.68C33.7664 75 34.3264 75.16 35.0064 75.16C35.5531 75.16 36.0064 75.0733 36.3664 74.9C36.7264 74.7133 36.9064 74.4333 36.9064 74.06C36.9064 73.7267 36.7931 73.4733 36.5664 73.3C36.3397 73.1267 35.9664 72.9933 35.4464 72.9L33.5264 72.54C32.5664 72.3667 31.8131 72.02 31.2664 71.5C30.7197 70.98 30.4464 70.3067 30.4464 69.48C30.4464 68.8133 30.6264 68.2267 30.9864 67.72C31.3464 67.2133 31.8531 66.82 32.5064 66.54C33.1597 66.26 33.9264 66.12 34.8064 66.12C35.6997 66.12 36.4864 66.2733 37.1664 66.58C37.8597 66.8733 38.4064 67.3 38.8064 67.86C39.2197 68.42 39.4597 69.08 39.5264 69.84H36.8664C36.8264 69.32 36.6197 68.9133 36.2464 68.62C35.8731 68.3133 35.3931 68.16 34.8064 68.16C34.2997 68.16 33.8864 68.2533 33.5664 68.44C33.2597 68.6133 33.1064 68.8733 33.1064 69.22C33.1064 69.54 33.2197 69.78 33.4464 69.94C33.6731 70.0867 34.0264 70.2067 34.5064 70.3L36.5664 70.68C37.6064 70.88 38.3864 71.22 38.9064 71.7C39.4397 72.18 39.7064 72.8067 39.7064 73.58ZM48.3644 77V75.68C48.0177 76.1733 47.5777 76.5533 47.0444 76.82C46.511 77.0733 45.8777 77.2 45.1444 77.2C44.0377 77.2 43.1444 76.9 42.4644 76.3C41.7844 75.7 41.4444 74.9 41.4444 73.9C41.4444 72.86 41.8577 72.0667 42.6844 71.52C43.511 70.9733 44.6977 70.7 46.2444 70.7C46.551 70.7 46.8444 70.7133 47.1244 70.74C47.4044 70.7533 47.7044 70.78 48.0244 70.82V70.18C48.0244 69.58 47.8644 69.1133 47.5444 68.78C47.2244 68.4467 46.771 68.28 46.1844 68.28C45.5844 68.28 45.111 68.4467 44.7644 68.78C44.4177 69.1133 44.2177 69.58 44.1644 70.18H41.6644C41.7177 69.3533 41.9377 68.64 42.3244 68.04C42.7244 67.4267 43.251 66.9533 43.9044 66.62C44.571 66.2867 45.331 66.12 46.1844 66.12C47.5844 66.12 48.671 66.4867 49.4444 67.22C50.231 67.9533 50.6244 68.9733 50.6244 70.28V77H48.3644ZM44.0644 73.82C44.0644 74.26 44.211 74.6133 44.5044 74.88C44.811 75.1467 45.2244 75.28 45.7444 75.28C46.451 75.28 47.0044 75.1 47.4044 74.74C47.8177 74.3667 48.0244 73.8733 48.0244 73.26V72.5C47.7044 72.4467 47.4177 72.4133 47.1644 72.4C46.911 72.3733 46.6644 72.36 46.4244 72.36C45.651 72.36 45.0644 72.48 44.6644 72.72C44.2644 72.96 44.0644 73.3267 44.0644 73.82ZM62.6689 66.32L58.7489 77H55.7089L51.7689 66.32H54.7689L57.3089 73.84L59.8689 66.32H62.6689ZM68.5576 77.18C67.491 77.18 66.551 76.9533 65.7376 76.5C64.9376 76.0333 64.3176 75.38 63.8776 74.54C63.4376 73.7 63.2176 72.7267 63.2176 71.62C63.2176 70.5533 63.4443 69.6067 63.8976 68.78C64.351 67.9533 64.9776 67.3067 65.7776 66.84C66.5776 66.36 67.491 66.12 68.5176 66.12C69.3576 66.12 70.1176 66.28 70.7976 66.6C71.491 66.9067 72.071 67.3467 72.5376 67.92C73.0043 68.4933 73.3376 69.16 73.5376 69.92C73.7376 70.6667 73.771 71.4733 73.6376 72.34H64.8576V70.58H70.6976C70.671 69.8333 70.451 69.2467 70.0376 68.82C69.6376 68.38 69.111 68.16 68.4576 68.16C67.9376 68.16 67.4976 68.2933 67.1376 68.56C66.7776 68.8267 66.4976 69.22 66.2976 69.74C66.111 70.2467 66.0176 70.8733 66.0176 71.62C66.0176 72.3533 66.111 72.9733 66.2976 73.48C66.4843 73.9867 66.7643 74.3733 67.1376 74.64C67.511 74.9067 67.9643 75.04 68.4976 75.04C69.111 75.04 69.6176 74.8933 70.0176 74.6C70.4176 74.3067 70.6976 73.9 70.8576 73.38H73.6176C73.311 74.58 72.7176 75.5133 71.8376 76.18C70.9576 76.8467 69.8643 77.18 68.5576 77.18Z" fill="white"/>
<defs>
<linearGradient id="paint0_linear_1840_2864" x1="51.353" y1="0" x2="51.353" y2="120.355" gradientUnits="userSpaceOnUse">
<stop stop-color="#AF63FB"/>
<stop offset="1" stop-color="#8C20F8"/>
</linearGradient>
</defs>
</svg>
