<svg width="24" height="25" viewBox="0 0 24 25" fill="none" xmlns="http://www.w3.org/2000/svg">
<path d="M10.9471 9.40859C10.8464 9.4069 10.7471 9.38495 10.6551 9.34404C10.563 9.30313 10.4802 9.2441 10.4115 9.17048C10.3427 9.09685 10.2895 9.01014 10.255 8.91551C10.2206 8.82088 10.2055 8.72027 10.2107 8.61969C10.216 8.5191 10.2414 8.42061 10.2855 8.33007C10.3297 8.23954 10.3916 8.15882 10.4676 8.09273C10.5436 8.02664 10.6321 7.97654 10.7279 7.94541C10.8237 7.91429 10.9248 7.90277 11.0251 7.91156L16.6743 8.20579C16.8728 8.21625 17.059 8.30507 17.192 8.45272C17.3251 8.60038 17.3941 8.79481 17.3838 8.9933L17.0896 14.6425C17.0879 14.7432 17.066 14.8425 17.0251 14.9346C16.9841 15.0266 16.9251 15.1095 16.8515 15.1782C16.7779 15.2469 16.6911 15.3001 16.5965 15.3346C16.5019 15.3691 16.4013 15.3842 16.3007 15.3789C16.2001 15.3737 16.1016 15.3482 16.0111 15.3041C15.9205 15.26 15.8398 15.1981 15.7737 15.122C15.7077 15.046 15.6576 14.9575 15.6264 14.8617C15.5953 14.7659 15.5838 14.6649 15.5926 14.5645L15.7926 10.7231L8.59367 17.2093C8.44589 17.3424 8.25127 17.4114 8.05263 17.4011C7.85398 17.3907 7.66759 17.3019 7.53444 17.1541C7.4013 17.0063 7.33231 16.8117 7.34265 16.6131C7.353 16.4144 7.44183 16.228 7.58961 16.0949L14.7886 9.60867L10.9471 9.40859Z" fill="white"/>
</svg>
