<svg width="16" height="16" viewBox="0 0 16 16" fill="none" xmlns="http://www.w3.org/2000/svg">
<path d="M14.3628 7.36338C14.5655 7.64738 14.6668 7.79004 14.6668 8.00004C14.6668 8.21071 14.5655 8.35271 14.3628 8.63671C13.4522 9.91404 11.1262 12.6667 8.00016 12.6667C4.8735 12.6667 2.54816 9.91338 1.6375 8.63671C1.43483 8.35271 1.3335 8.21004 1.3335 8.00004C1.3335 7.78938 1.43483 7.64738 1.6375 7.36338C2.54816 6.08604 4.87416 3.33337 8.00016 3.33337C11.1268 3.33337 13.4522 6.08671 14.3628 7.36338Z" stroke="#0E40E4" stroke-linecap="round" stroke-linejoin="round"/>
<path d="M10 8C10 7.46957 9.78929 6.96086 9.41421 6.58579C9.03914 6.21071 8.53043 6 8 6C7.46957 6 6.96086 6.21071 6.58579 6.58579C6.21071 6.96086 6 7.46957 6 8C6 8.53043 6.21071 9.03914 6.58579 9.41421C6.96086 9.78929 7.46957 10 8 10C8.53043 10 9.03914 9.78929 9.41421 9.41421C9.78929 9.03914 10 8.53043 10 8Z" stroke="#0E40E4" stroke-linecap="round" stroke-linejoin="round"/>
</svg>
