<svg width="1440" height="322" viewBox="0 0 1440 322" fill="none" xmlns="http://www.w3.org/2000/svg">
<g opacity="0.295108">
<mask id="mask0_3333_1467" style="mask-type:luminance" maskUnits="userSpaceOnUse" x="0" y="0" width="1440" height="271">
<rect width="1440" height="271" transform="matrix(-1 0 0 1 1440 0)" fill="white"/>
</mask>
<g mask="url(#mask0_3333_1467)">
<g opacity="0.832799" filter="url(#filter0_f_3333_1467)">
<ellipse cx="235.817" cy="135.643" rx="235.817" ry="135.643" transform="matrix(-0.965376 0.260862 0.692819 0.721111 1222.52 -93.7422)" fill="url(#paint0_linear_3333_1467)"/>
</g>
<g opacity="0.663063" filter="url(#filter1_f_3333_1467)">
<path fill-rule="evenodd" clip-rule="evenodd" d="M443.522 -76.3451C438.834 -76.1405 434.716 -75.0276 431.649 -73.1369L298.897 8.70073C291.724 13.1224 291.452 21.0138 298.229 28.0677L354.349 86.4786C361.126 93.5325 373.324 98.0543 384.285 97.5759L587.157 88.7218C591.844 88.5172 595.963 87.4043 599.03 85.5135L731.782 3.67597C738.955 -0.745703 739.226 -8.63716 732.449 -15.691L676.33 -74.1019C669.553 -81.1558 657.355 -85.6776 646.394 -85.1992L443.522 -76.3451Z" fill="url(#paint1_linear_3333_1467)"/>
</g>
<g filter="url(#filter2_f_3333_1467)">
<rect width="219.484" height="340.602" transform="matrix(0.425461 0.904977 0.991371 -0.131086 678.147 -23.252)" fill="url(#paint2_linear_3333_1467)" fill-opacity="0.39"/>
</g>
<g opacity="0.60605" filter="url(#filter3_f_3333_1467)">
<path fill-rule="evenodd" clip-rule="evenodd" d="M498.98 213.798C500.454 226.345 519.877 230.717 537.919 222.564L751.206 126.178C773.623 116.048 776.898 95.0537 756.767 90.5221L526.056 38.586C505.925 34.0544 479.724 49.8873 481.555 65.4765L498.98 213.798Z" fill="url(#paint3_linear_3333_1467)"/>
</g>
<g opacity="0.739328" filter="url(#filter4_f_3333_1467)">
<path fill-rule="evenodd" clip-rule="evenodd" d="M1165.56 88.8436C1167.61 94.2987 1175.02 98.9792 1184.79 100.998L1361.08 137.419C1370.29 139.323 1380.23 138.572 1387.27 135.44L1528.14 72.7527C1535.17 69.6204 1538.29 64.5632 1536.36 59.4204L1499.34 -38.9746C1497.29 -44.4297 1489.88 -49.1103 1480.11 -51.1295L1303.82 -87.5505C1294.61 -89.4541 1284.67 -88.7032 1277.63 -85.5709L1136.76 -22.8837C1129.73 -19.7514 1126.61 -14.6942 1128.54 -9.5514L1165.56 88.8436Z" fill="url(#paint4_linear_3333_1467)"/>
</g>
<g filter="url(#filter5_f_3333_1467)">
<ellipse cx="135.733" cy="173.563" rx="135.733" ry="173.563" transform="matrix(0.845318 0.534263 0.913622 -0.406564 -160.371 58.2461)" fill="url(#paint5_linear_3333_1467)"/>
</g>
</g>
</g>
<path d="M642.234 85L634.938 57.976L627.594 85H622.17L613.194 50.536H618.378L625.002 77.08L632.25 50.536H637.722L644.874 77.128L651.498 50.536H656.682L647.706 85H642.234ZM665.864 70.648V85H661.016V50.536H665.864V63.64C666.696 62.264 667.752 61.16 669.032 60.328C670.344 59.496 671.88 59.08 673.64 59.08C676.264 59.08 678.36 59.896 679.928 61.528C681.528 63.16 682.328 65.496 682.328 68.536V85H677.48V70.168C677.48 67.992 677.016 66.312 676.088 65.128C675.16 63.944 673.784 63.352 671.96 63.352C670.84 63.352 669.816 63.656 668.888 64.264C667.96 64.84 667.224 65.672 666.68 66.76C666.136 67.848 665.864 69.144 665.864 70.648ZM704.174 85V81.064C703.374 82.472 702.286 83.56 700.91 84.328C699.534 85.096 697.902 85.48 696.014 85.48C693.39 85.48 691.278 84.792 689.678 83.416C688.078 82.008 687.278 80.136 687.278 77.8C687.278 75.304 688.254 73.416 690.206 72.136C692.19 70.856 695.07 70.216 698.846 70.216C699.582 70.216 700.302 70.232 701.006 70.264C701.71 70.296 702.574 70.376 703.598 70.504V68.632C703.598 66.84 703.134 65.448 702.206 64.456C701.278 63.432 699.966 62.92 698.27 62.92C696.51 62.92 695.102 63.432 694.046 64.456C693.022 65.448 692.478 66.824 692.414 68.584H687.998C688.062 66.664 688.526 65 689.39 63.592C690.286 62.152 691.486 61.048 692.99 60.28C694.526 59.48 696.286 59.08 698.27 59.08C701.406 59.08 703.838 59.928 705.566 61.624C707.326 63.288 708.206 65.64 708.206 68.68V85H704.174ZM691.886 77.656C691.886 78.968 692.35 80.024 693.278 80.824C694.206 81.624 695.438 82.024 696.974 82.024C699.022 82.024 700.638 81.448 701.822 80.296C703.006 79.112 703.598 77.544 703.598 75.592V73.528C702.67 73.432 701.854 73.368 701.15 73.336C700.446 73.272 699.774 73.24 699.134 73.24C696.702 73.24 694.878 73.608 693.662 74.344C692.478 75.048 691.886 76.152 691.886 77.656ZM728.806 80.296V84.568C728.07 84.92 727.35 85.16 726.646 85.288C725.974 85.416 725.254 85.48 724.486 85.48C722.918 85.48 721.526 85.192 720.31 84.616C719.126 84.04 718.198 83.144 717.526 81.928C716.854 80.712 716.518 79.176 716.518 77.32V63.688H710.902V59.56H716.518V52.024H721.366V59.56H729.046V63.688H721.366V76.216C721.366 77.976 721.75 79.208 722.518 79.912C723.318 80.616 724.358 80.968 725.638 80.968C726.214 80.968 726.758 80.92 727.27 80.824C727.814 80.696 728.326 80.52 728.806 80.296ZM770.344 85L763.048 57.976L755.704 85H750.28L741.304 50.536H746.488L753.112 77.08L760.36 50.536H765.832L772.984 77.128L779.608 50.536H784.792L775.816 85H770.344ZM797.433 85.48C794.969 85.48 792.809 84.936 790.953 83.848C789.129 82.728 787.705 81.16 786.681 79.144C785.657 77.128 785.145 74.792 785.145 72.136C785.145 69.608 785.673 67.368 786.729 65.416C787.785 63.464 789.225 61.928 791.049 60.808C792.873 59.656 794.953 59.08 797.289 59.08C799.209 59.08 800.921 59.448 802.425 60.184C803.961 60.888 805.257 61.896 806.313 63.208C807.401 64.488 808.185 66.008 808.665 67.768C809.145 69.496 809.273 71.4 809.049 73.48H787.977V70.264H803.913C803.817 67.896 803.161 66.056 801.945 64.744C800.761 63.4 799.177 62.728 797.193 62.728C795.753 62.728 794.489 63.112 793.401 63.88C792.345 64.616 791.513 65.688 790.905 67.096C790.329 68.472 790.041 70.152 790.041 72.136C790.041 74.12 790.329 75.832 790.905 77.272C791.481 78.68 792.313 79.768 793.401 80.536C794.489 81.304 795.801 81.688 797.337 81.688C799.161 81.688 800.665 81.224 801.849 80.296C803.065 79.368 803.865 78.072 804.249 76.408H809.049C808.441 79.224 807.097 81.448 805.017 83.08C802.969 84.68 800.441 85.48 797.433 85.48ZM835.515 85H824.619V50.536H835.515C839.195 50.536 842.331 51.272 844.923 52.744C847.515 54.184 849.483 56.184 850.827 58.744C852.171 61.304 852.843 64.264 852.843 67.624C852.843 70.952 852.155 73.928 850.779 76.552C849.403 79.144 847.403 81.208 844.779 82.744C842.187 84.248 839.099 85 835.515 85ZM829.899 55.096V80.44H835.275C837.931 80.44 840.155 79.928 841.947 78.904C843.771 77.848 845.147 76.36 846.075 74.44C847.003 72.52 847.467 70.248 847.467 67.624C847.467 65.032 847.003 62.808 846.075 60.952C845.147 59.064 843.771 57.624 841.947 56.632C840.155 55.608 837.931 55.096 835.275 55.096H829.899ZM868.641 85.48C866.849 85.48 865.185 85.16 863.649 84.52C862.145 83.848 860.833 82.92 859.713 81.736C858.593 80.52 857.713 79.112 857.073 77.512C856.465 75.912 856.161 74.168 856.161 72.28C856.161 70.392 856.465 68.648 857.073 67.048C857.713 65.448 858.593 64.056 859.713 62.872C860.833 61.656 862.145 60.728 863.649 60.088C865.185 59.416 866.849 59.08 868.641 59.08C870.465 59.08 872.129 59.416 873.633 60.088C875.169 60.728 876.481 61.656 877.569 62.872C878.689 64.056 879.553 65.448 880.161 67.048C880.801 68.648 881.121 70.392 881.121 72.28C881.121 74.168 880.801 75.912 880.161 77.512C879.553 79.112 878.689 80.52 877.569 81.736C876.481 82.92 875.169 83.848 873.633 84.52C872.129 85.16 870.465 85.48 868.641 85.48ZM868.641 81.208C870.049 81.208 871.313 80.856 872.433 80.152C873.585 79.416 874.481 78.376 875.121 77.032C875.793 75.688 876.129 74.104 876.129 72.28C876.129 70.424 875.793 68.84 875.121 67.528C874.481 66.184 873.585 65.16 872.433 64.456C871.313 63.752 870.049 63.4 868.641 63.4C867.265 63.4 866.001 63.752 864.849 64.456C863.729 65.16 862.833 66.184 862.161 67.528C861.521 68.84 861.201 70.424 861.201 72.28C861.201 74.104 861.521 75.688 862.161 77.032C862.833 78.376 863.729 79.416 864.849 80.152C866.001 80.856 867.265 81.208 868.641 81.208ZM382.948 157H378.5V165H374.98V142.024H382.948C384.655 142.024 386.138 142.312 387.396 142.888C388.676 143.443 389.668 144.275 390.372 145.384C391.076 146.472 391.428 147.827 391.428 149.448C391.428 151.048 391.076 152.413 390.372 153.544C389.668 154.653 388.676 155.507 387.396 156.104C386.138 156.701 384.655 157 382.948 157ZM382.916 145H378.5V154.024H382.916C384.474 154.024 385.69 153.619 386.564 152.808C387.46 151.997 387.908 150.888 387.908 149.48C387.908 148.051 387.46 146.952 386.564 146.184C385.69 145.395 384.474 145 382.916 145ZM397.925 156.328V165H394.693V148.04H397.701V151.624C398.298 150.451 399.184 149.523 400.357 148.84C401.552 148.157 402.842 147.816 404.229 147.816V151.176C403.013 151.112 401.925 151.251 400.965 151.592C400.026 151.933 399.28 152.499 398.725 153.288C398.192 154.056 397.925 155.069 397.925 156.328ZM413.828 165.32C412.634 165.32 411.524 165.107 410.5 164.68C409.498 164.232 408.623 163.613 407.876 162.824C407.13 162.013 406.543 161.075 406.116 160.008C405.711 158.941 405.508 157.779 405.508 156.52C405.508 155.261 405.711 154.099 406.116 153.032C406.543 151.965 407.13 151.037 407.876 150.248C408.623 149.437 409.498 148.819 410.5 148.392C411.524 147.944 412.634 147.72 413.828 147.72C415.044 147.72 416.154 147.944 417.156 148.392C418.18 148.819 419.055 149.437 419.78 150.248C420.527 151.037 421.103 151.965 421.508 153.032C421.935 154.099 422.148 155.261 422.148 156.52C422.148 157.779 421.935 158.941 421.508 160.008C421.103 161.075 420.527 162.013 419.78 162.824C419.055 163.613 418.18 164.232 417.156 164.68C416.154 165.107 415.044 165.32 413.828 165.32ZM413.828 162.472C414.767 162.472 415.61 162.237 416.356 161.768C417.124 161.277 417.722 160.584 418.148 159.688C418.596 158.792 418.82 157.736 418.82 156.52C418.82 155.283 418.596 154.227 418.148 153.352C417.722 152.456 417.124 151.773 416.356 151.304C415.61 150.835 414.767 150.6 413.828 150.6C412.911 150.6 412.068 150.835 411.3 151.304C410.554 151.773 409.956 152.456 409.508 153.352C409.082 154.227 408.868 155.283 408.868 156.52C408.868 157.736 409.082 158.792 409.508 159.688C409.956 160.584 410.554 161.277 411.3 161.768C412.068 162.237 412.911 162.472 413.828 162.472ZM438.992 148.04L432.624 165H429.104L422.736 148.04H426.224L430.928 161.288L435.696 148.04H438.992ZM444.519 165H441.287V148.04H444.519V165ZM445.223 144.104C445.223 144.701 444.999 145.213 444.551 145.64C444.124 146.045 443.57 146.248 442.887 146.248C442.183 146.248 441.607 146.045 441.159 145.64C440.732 145.213 440.519 144.701 440.519 144.104C440.519 143.464 440.732 142.952 441.159 142.568C441.607 142.163 442.183 141.96 442.887 141.96C443.57 141.96 444.124 142.163 444.551 142.568C444.999 142.952 445.223 143.464 445.223 144.104ZM447.79 156.52C447.79 154.813 448.099 153.299 448.718 151.976C449.336 150.632 450.211 149.587 451.342 148.84C452.472 148.093 453.795 147.72 455.31 147.72C456.44 147.72 457.475 148.008 458.414 148.584C459.374 149.139 460.152 149.928 460.75 150.952V142.024H463.982V165H460.974V161.96C460.376 163.027 459.576 163.859 458.574 164.456C457.592 165.032 456.504 165.32 455.31 165.32C453.795 165.32 452.472 164.947 451.342 164.2C450.211 163.432 449.336 162.387 448.718 161.064C448.099 159.72 447.79 158.205 447.79 156.52ZM451.15 156.52C451.15 158.419 451.598 159.88 452.494 160.904C453.39 161.928 454.542 162.44 455.95 162.44C456.888 162.44 457.71 162.205 458.414 161.736C459.139 161.245 459.704 160.552 460.11 159.656C460.536 158.76 460.75 157.693 460.75 156.456C460.75 155.197 460.536 154.131 460.11 153.256C459.683 152.381 459.107 151.72 458.382 151.272C457.656 150.803 456.846 150.568 455.95 150.568C454.542 150.568 453.39 151.08 452.494 152.104C451.598 153.128 451.15 154.6 451.15 156.52ZM471.706 165H468.474V148.04H471.706V165ZM472.41 144.104C472.41 144.701 472.186 145.213 471.738 145.64C471.312 146.045 470.757 146.248 470.074 146.248C469.37 146.248 468.794 146.045 468.346 145.64C467.92 145.213 467.706 144.701 467.706 144.104C467.706 143.464 467.92 142.952 468.346 142.568C468.794 142.163 469.37 141.96 470.074 141.96C470.757 141.96 471.312 142.163 471.738 142.568C472.186 142.952 472.41 143.464 472.41 144.104ZM479.425 155.432V165H476.193V148.04H479.201V150.856C479.777 149.917 480.524 149.16 481.441 148.584C482.38 148.008 483.436 147.72 484.609 147.72C486.358 147.72 487.756 148.264 488.801 149.352C489.868 150.44 490.401 151.997 490.401 154.024V165H487.169V155.112C487.169 153.661 486.86 152.541 486.241 151.752C485.622 150.963 484.705 150.568 483.489 150.568C482.742 150.568 482.06 150.771 481.441 151.176C480.822 151.56 480.332 152.115 479.969 152.84C479.606 153.565 479.425 154.429 479.425 155.432ZM501.477 171.528C500.005 171.528 498.714 171.272 497.605 170.76C496.496 170.269 495.621 169.555 494.981 168.616C494.362 167.677 494.021 166.579 493.957 165.32H497.093C497.2 166.493 497.616 167.389 498.341 168.008C499.088 168.648 500.122 168.968 501.445 168.968C502.917 168.968 504.026 168.584 504.773 167.816C505.52 167.069 505.893 165.96 505.893 164.488V161.416C505.402 162.419 504.698 163.208 503.781 163.784C502.885 164.36 501.861 164.648 500.709 164.648C499.301 164.648 498.053 164.285 496.965 163.56C495.877 162.835 495.024 161.832 494.405 160.552C493.786 159.272 493.477 157.811 493.477 156.168C493.477 154.483 493.776 153.011 494.373 151.752C494.97 150.472 495.802 149.48 496.869 148.776C497.957 148.072 499.205 147.72 500.613 147.72C501.829 147.72 502.906 148.008 503.845 148.584C504.784 149.16 505.541 149.981 506.117 151.048V148.04H509.125V164.424C509.125 166.664 508.453 168.403 507.109 169.64C505.765 170.899 503.888 171.528 501.477 171.528ZM496.741 156.168C496.741 157.917 497.146 159.304 497.957 160.328C498.768 161.331 499.877 161.832 501.285 161.832C502.202 161.832 503.002 161.608 503.685 161.16C504.389 160.691 504.933 160.04 505.317 159.208C505.701 158.355 505.893 157.373 505.893 156.264C505.893 154.515 505.477 153.117 504.645 152.072C503.813 151.027 502.693 150.504 501.285 150.504C499.898 150.504 498.789 151.016 497.957 152.04C497.146 153.043 496.741 154.419 496.741 156.168ZM524.063 156.456H534.751L535.711 159.304H522.879L524.063 156.456ZM536.351 165L529.343 145.864L522.239 165H518.687L527.487 142.024H531.359L540.095 165H536.351ZM546.782 165H543.262V142.024H546.782V165ZM560.018 157.64H550.066V154.728H560.018V157.64ZM570.588 165H563.324V142.024H570.588C573.041 142.024 575.132 142.515 576.86 143.496C578.588 144.456 579.9 145.789 580.796 147.496C581.692 149.203 582.14 151.176 582.14 153.416C582.14 155.635 581.681 157.619 580.764 159.368C579.847 161.096 578.513 162.472 576.764 163.496C575.036 164.499 572.977 165 570.588 165ZM566.844 145.064V161.96H570.428C572.199 161.96 573.681 161.619 574.876 160.936C576.092 160.232 577.009 159.24 577.628 157.96C578.247 156.68 578.556 155.165 578.556 153.416C578.556 151.688 578.247 150.205 577.628 148.968C577.009 147.709 576.092 146.749 574.876 146.088C573.681 145.405 572.199 145.064 570.428 145.064H566.844ZM588.8 156.328V165H585.568V148.04H588.576V151.624C589.173 150.451 590.059 149.523 591.232 148.84C592.427 148.157 593.717 147.816 595.104 147.816V151.176C593.888 151.112 592.8 151.251 591.84 151.592C590.901 151.933 590.155 152.499 589.6 153.288C589.067 154.056 588.8 155.069 588.8 156.328ZM600.894 165H597.662V148.04H600.894V165ZM601.598 144.104C601.598 144.701 601.374 145.213 600.926 145.64C600.499 146.045 599.945 146.248 599.262 146.248C598.558 146.248 597.982 146.045 597.534 145.64C597.107 145.213 596.894 144.701 596.894 144.104C596.894 143.464 597.107 142.952 597.534 142.568C597.982 142.163 598.558 141.96 599.262 141.96C599.945 141.96 600.499 142.163 600.926 142.568C601.374 142.952 601.598 143.464 601.598 144.104ZM619.461 148.04L613.093 165H609.573L603.205 148.04H606.693L611.397 161.288L616.165 148.04H619.461ZM628.2 165.32C626.558 165.32 625.118 164.957 623.88 164.232C622.664 163.485 621.715 162.44 621.032 161.096C620.35 159.752 620.008 158.195 620.008 156.424C620.008 154.739 620.36 153.245 621.064 151.944C621.768 150.643 622.728 149.619 623.944 148.872C625.16 148.104 626.547 147.72 628.104 147.72C629.384 147.72 630.526 147.965 631.528 148.456C632.552 148.925 633.416 149.597 634.12 150.472C634.846 151.325 635.368 152.339 635.688 153.512C636.008 154.664 636.094 155.933 635.944 157.32H621.896V155.176H632.52C632.456 153.597 632.019 152.371 631.208 151.496C630.419 150.6 629.363 150.152 628.04 150.152C627.08 150.152 626.238 150.408 625.512 150.92C624.808 151.411 624.254 152.125 623.848 153.064C623.464 153.981 623.272 155.101 623.272 156.424C623.272 157.747 623.464 158.888 623.848 159.848C624.232 160.787 624.787 161.512 625.512 162.024C626.238 162.536 627.112 162.792 628.136 162.792C629.352 162.792 630.355 162.483 631.144 161.864C631.955 161.245 632.488 160.381 632.744 159.272H635.944C635.539 161.149 634.643 162.632 633.256 163.72C631.891 164.787 630.206 165.32 628.2 165.32ZM642.613 155.432V165H639.381V148.04H642.389V150.856C642.965 149.917 643.711 149.16 644.629 148.584C645.567 148.008 646.623 147.72 647.797 147.72C649.546 147.72 650.943 148.264 651.989 149.352C653.055 150.44 653.589 151.997 653.589 154.024V165H650.357V155.112C650.357 153.661 650.047 152.541 649.429 151.752C648.81 150.963 647.893 150.568 646.677 150.568C645.93 150.568 645.247 150.771 644.629 151.176C644.01 151.56 643.519 152.115 643.157 152.84C642.794 153.565 642.613 154.429 642.613 155.432ZM668.344 165H664.824V142.024H668.344V165ZM676.3 155.432V165H673.068V148.04H676.076V150.856C676.652 149.917 677.399 149.16 678.316 148.584C679.255 148.008 680.311 147.72 681.484 147.72C683.233 147.72 684.631 148.264 685.676 149.352C686.743 150.44 687.276 151.997 687.276 154.024V165H684.044V155.112C684.044 153.661 683.735 152.541 683.116 151.752C682.497 150.963 681.58 150.568 680.364 150.568C679.617 150.568 678.935 150.771 678.316 151.176C677.697 151.56 677.207 152.115 676.844 152.84C676.481 153.565 676.3 154.429 676.3 155.432ZM705.008 159.944C705.008 161.608 704.389 162.92 703.152 163.88C701.915 164.84 700.165 165.32 697.904 165.32C695.685 165.32 693.925 164.797 692.624 163.752C691.344 162.707 690.619 161.277 690.448 159.464H693.552C693.595 160.531 694.011 161.373 694.8 161.992C695.611 162.589 696.667 162.888 697.968 162.888C699.099 162.888 700.005 162.685 700.688 162.28C701.392 161.875 701.744 161.277 701.744 160.488C701.744 159.784 701.509 159.251 701.04 158.888C700.592 158.525 699.835 158.248 698.768 158.056L696.016 157.544C694.459 157.245 693.253 156.701 692.4 155.912C691.547 155.101 691.12 154.056 691.12 152.776C691.12 151.773 691.387 150.899 691.92 150.152C692.475 149.384 693.243 148.787 694.224 148.36C695.205 147.933 696.347 147.72 697.648 147.72C699.013 147.72 700.208 147.955 701.232 148.424C702.256 148.872 703.077 149.523 703.696 150.376C704.315 151.208 704.667 152.211 704.752 153.384H701.648C701.541 152.381 701.136 151.592 700.432 151.016C699.728 150.44 698.811 150.152 697.68 150.152C696.656 150.152 695.824 150.365 695.184 150.792C694.565 151.197 694.256 151.763 694.256 152.488C694.256 153.171 694.48 153.693 694.928 154.056C695.397 154.397 696.144 154.675 697.168 154.888L700.048 155.432C701.733 155.731 702.981 156.253 703.792 157C704.603 157.747 705.008 158.728 705.008 159.944ZM711.769 165H708.537V148.04H711.769V165ZM712.473 144.104C712.473 144.701 712.249 145.213 711.801 145.64C711.374 146.045 710.82 146.248 710.137 146.248C709.433 146.248 708.857 146.045 708.409 145.64C707.982 145.213 707.769 144.701 707.769 144.104C707.769 143.464 707.982 142.952 708.409 142.568C708.857 142.163 709.433 141.96 710.137 141.96C710.82 141.96 711.374 142.163 711.801 142.568C712.249 142.952 712.473 143.464 712.473 144.104ZM723.04 171.528C721.568 171.528 720.277 171.272 719.168 170.76C718.058 170.269 717.184 169.555 716.544 168.616C715.925 167.677 715.584 166.579 715.52 165.32H718.656C718.762 166.493 719.178 167.389 719.904 168.008C720.65 168.648 721.685 168.968 723.008 168.968C724.48 168.968 725.589 168.584 726.336 167.816C727.082 167.069 727.456 165.96 727.456 164.488V161.416C726.965 162.419 726.261 163.208 725.344 163.784C724.448 164.36 723.424 164.648 722.272 164.648C720.864 164.648 719.616 164.285 718.528 163.56C717.44 162.835 716.586 161.832 715.968 160.552C715.349 159.272 715.04 157.811 715.04 156.168C715.04 154.483 715.338 153.011 715.936 151.752C716.533 150.472 717.365 149.48 718.432 148.776C719.52 148.072 720.768 147.72 722.176 147.72C723.392 147.72 724.469 148.008 725.408 148.584C726.346 149.16 727.104 149.981 727.68 151.048V148.04H730.688V164.424C730.688 166.664 730.016 168.403 728.672 169.64C727.328 170.899 725.45 171.528 723.04 171.528ZM718.304 156.168C718.304 157.917 718.709 159.304 719.52 160.328C720.33 161.331 721.44 161.832 722.848 161.832C723.765 161.832 724.565 161.608 725.248 161.16C725.952 160.691 726.496 160.04 726.88 159.208C727.264 158.355 727.456 157.373 727.456 156.264C727.456 154.515 727.04 153.117 726.208 152.072C725.376 151.027 724.256 150.504 722.848 150.504C721.461 150.504 720.352 151.016 719.52 152.04C718.709 153.043 718.304 154.419 718.304 156.168ZM738.394 155.432V165H735.162V142.024H738.394V150.76C738.949 149.843 739.653 149.107 740.506 148.552C741.381 147.997 742.405 147.72 743.578 147.72C745.327 147.72 746.725 148.264 747.77 149.352C748.837 150.44 749.37 151.997 749.37 154.024V165H746.138V155.112C746.138 153.661 745.829 152.541 745.21 151.752C744.591 150.963 743.674 150.568 742.458 150.568C741.711 150.568 741.029 150.771 740.41 151.176C739.791 151.56 739.301 152.115 738.938 152.84C738.575 153.565 738.394 154.429 738.394 155.432ZM763.167 161.864V164.712C762.677 164.947 762.197 165.107 761.727 165.192C761.279 165.277 760.799 165.32 760.287 165.32C759.242 165.32 758.314 165.128 757.503 164.744C756.714 164.36 756.095 163.763 755.647 162.952C755.199 162.141 754.975 161.117 754.975 159.88V150.792H751.231V148.04H754.975V143.016H758.207V148.04H763.327V150.792H758.207V159.144C758.207 160.317 758.463 161.139 758.975 161.608C759.509 162.077 760.202 162.312 761.055 162.312C761.439 162.312 761.802 162.28 762.143 162.216C762.506 162.131 762.847 162.013 763.167 161.864ZM779.789 159.944C779.789 161.608 779.171 162.92 777.933 163.88C776.696 164.84 774.947 165.32 772.685 165.32C770.467 165.32 768.707 164.797 767.405 163.752C766.125 162.707 765.4 161.277 765.229 159.464H768.333C768.376 160.531 768.792 161.373 769.581 161.992C770.392 162.589 771.448 162.888 772.749 162.888C773.88 162.888 774.787 162.685 775.469 162.28C776.173 161.875 776.525 161.277 776.525 160.488C776.525 159.784 776.291 159.251 775.821 158.888C775.373 158.525 774.616 158.248 773.549 158.056L770.797 157.544C769.24 157.245 768.035 156.701 767.181 155.912C766.328 155.101 765.901 154.056 765.901 152.776C765.901 151.773 766.168 150.899 766.701 150.152C767.256 149.384 768.024 148.787 769.005 148.36C769.987 147.933 771.128 147.72 772.429 147.72C773.795 147.72 774.989 147.955 776.013 148.424C777.037 148.872 777.859 149.523 778.477 150.376C779.096 151.208 779.448 152.211 779.533 153.384H776.429C776.323 152.381 775.917 151.592 775.213 151.016C774.509 150.44 773.592 150.152 772.461 150.152C771.437 150.152 770.605 150.365 769.965 150.792C769.347 151.197 769.037 151.763 769.037 152.488C769.037 153.171 769.261 153.693 769.709 154.056C770.179 154.397 770.925 154.675 771.949 154.888L774.829 155.432C776.515 155.731 777.763 156.253 778.573 157C779.384 157.747 779.789 158.728 779.789 159.944ZM794.774 165H791.542V150.792H787.798V148.04H791.542V146.792C791.542 145.149 791.968 143.901 792.822 143.048C793.675 142.173 794.902 141.736 796.502 141.736C796.971 141.736 797.398 141.779 797.782 141.864C798.187 141.928 798.55 142.024 798.87 142.152V144.776C798.614 144.669 798.347 144.595 798.07 144.552C797.792 144.509 797.504 144.488 797.206 144.488C796.459 144.488 795.862 144.68 795.414 145.064C794.987 145.427 794.774 146.013 794.774 146.824V148.04H799.51V150.792H794.774V165ZM808.61 165.32C807.415 165.32 806.306 165.107 805.282 164.68C804.279 164.232 803.404 163.613 802.658 162.824C801.911 162.013 801.324 161.075 800.898 160.008C800.492 158.941 800.29 157.779 800.29 156.52C800.29 155.261 800.492 154.099 800.898 153.032C801.324 151.965 801.911 151.037 802.658 150.248C803.404 149.437 804.279 148.819 805.282 148.392C806.306 147.944 807.415 147.72 808.61 147.72C809.826 147.72 810.935 147.944 811.938 148.392C812.962 148.819 813.836 149.437 814.562 150.248C815.308 151.037 815.884 151.965 816.29 153.032C816.716 154.099 816.93 155.261 816.93 156.52C816.93 157.779 816.716 158.941 816.29 160.008C815.884 161.075 815.308 162.013 814.562 162.824C813.836 163.613 812.962 164.232 811.938 164.68C810.935 165.107 809.826 165.32 808.61 165.32ZM808.61 162.472C809.548 162.472 810.391 162.237 811.138 161.768C811.906 161.277 812.503 160.584 812.93 159.688C813.378 158.792 813.602 157.736 813.602 156.52C813.602 155.283 813.378 154.227 812.93 153.352C812.503 152.456 811.906 151.773 811.138 151.304C810.391 150.835 809.548 150.6 808.61 150.6C807.692 150.6 806.85 150.835 806.082 151.304C805.335 151.773 804.738 152.456 804.29 153.352C803.863 154.227 803.65 155.283 803.65 156.52C803.65 157.736 803.863 158.792 804.29 159.688C804.738 160.584 805.335 161.277 806.082 161.768C806.85 162.237 807.692 162.472 808.61 162.472ZM823.456 156.328V165H820.224V148.04H823.232V151.624C823.83 150.451 824.715 149.523 825.888 148.84C827.083 148.157 828.374 147.816 829.76 147.816V151.176C828.544 151.112 827.456 151.251 826.496 151.592C825.558 151.933 824.811 152.499 824.256 153.288C823.723 154.056 823.456 155.069 823.456 156.328ZM849.278 165.48C847.678 165.48 846.184 165.181 844.798 164.584C843.432 163.965 842.227 163.112 841.182 162.024C840.158 160.936 839.358 159.667 838.782 158.216C838.206 156.744 837.918 155.165 837.918 153.48C837.918 151.795 838.206 150.227 838.782 148.776C839.358 147.325 840.158 146.067 841.182 145C842.227 143.912 843.432 143.069 844.798 142.472C846.184 141.853 847.678 141.544 849.278 141.544C851.198 141.544 852.947 141.939 854.526 142.728C856.126 143.517 857.448 144.627 858.494 146.056C859.56 147.485 860.232 149.149 860.51 151.048H856.766C856.552 149.811 856.094 148.712 855.39 147.752C854.686 146.792 853.811 146.045 852.766 145.512C851.742 144.979 850.59 144.712 849.31 144.712C848.179 144.712 847.134 144.925 846.174 145.352C845.235 145.779 844.414 146.387 843.71 147.176C843.027 147.965 842.494 148.893 842.11 149.96C841.747 151.027 841.566 152.2 841.566 153.48C841.566 154.76 841.747 155.944 842.11 157.032C842.494 158.099 843.027 159.027 843.71 159.816C844.414 160.605 845.235 161.224 846.174 161.672C847.134 162.099 848.179 162.312 849.31 162.312C850.59 162.312 851.752 162.045 852.798 161.512C853.843 160.957 854.707 160.2 855.39 159.24C856.094 158.28 856.552 157.181 856.766 155.944H860.51C860.232 157.843 859.56 159.507 858.494 160.936C857.448 162.365 856.126 163.485 854.526 164.296C852.947 165.085 851.198 165.48 849.278 165.48ZM874.184 165V162.376C873.651 163.315 872.925 164.04 872.008 164.552C871.091 165.064 870.003 165.32 868.744 165.32C866.995 165.32 865.587 164.861 864.52 163.944C863.453 163.005 862.92 161.757 862.92 160.2C862.92 158.536 863.571 157.277 864.872 156.424C866.195 155.571 868.115 155.144 870.632 155.144C871.123 155.144 871.603 155.155 872.072 155.176C872.541 155.197 873.117 155.251 873.8 155.336V154.088C873.8 152.893 873.491 151.965 872.872 151.304C872.253 150.621 871.379 150.28 870.248 150.28C869.075 150.28 868.136 150.621 867.432 151.304C866.749 151.965 866.387 152.883 866.344 154.056H863.4C863.443 152.776 863.752 151.667 864.328 150.728C864.925 149.768 865.725 149.032 866.728 148.52C867.752 147.987 868.925 147.72 870.248 147.72C872.339 147.72 873.96 148.285 875.112 149.416C876.285 150.525 876.872 152.093 876.872 154.12V165H874.184ZM865.992 160.104C865.992 160.979 866.301 161.683 866.92 162.216C867.539 162.749 868.36 163.016 869.384 163.016C870.749 163.016 871.827 162.632 872.616 161.864C873.405 161.075 873.8 160.029 873.8 158.728V157.352C873.181 157.288 872.637 157.245 872.168 157.224C871.699 157.181 871.251 157.16 870.824 157.16C869.203 157.16 867.987 157.405 867.176 157.896C866.387 158.365 865.992 159.101 865.992 160.104ZM884.425 156.328V165H881.193V148.04H884.201V151.624C884.798 150.451 885.684 149.523 886.857 148.84C888.052 148.157 889.342 147.816 890.729 147.816V151.176C889.513 151.112 888.425 151.251 887.465 151.592C886.526 151.933 885.78 152.499 885.225 153.288C884.692 154.056 884.425 155.069 884.425 156.328ZM900.2 165.32C898.558 165.32 897.118 164.957 895.88 164.232C894.664 163.485 893.715 162.44 893.032 161.096C892.35 159.752 892.008 158.195 892.008 156.424C892.008 154.739 892.36 153.245 893.064 151.944C893.768 150.643 894.728 149.619 895.944 148.872C897.16 148.104 898.547 147.72 900.104 147.72C901.384 147.72 902.526 147.965 903.528 148.456C904.552 148.925 905.416 149.597 906.12 150.472C906.846 151.325 907.368 152.339 907.688 153.512C908.008 154.664 908.094 155.933 907.944 157.32H893.896V155.176H904.52C904.456 153.597 904.019 152.371 903.208 151.496C902.419 150.6 901.363 150.152 900.04 150.152C899.08 150.152 898.238 150.408 897.512 150.92C896.808 151.411 896.254 152.125 895.848 153.064C895.464 153.981 895.272 155.101 895.272 156.424C895.272 157.747 895.464 158.888 895.848 159.848C896.232 160.787 896.787 161.512 897.512 162.024C898.238 162.536 899.112 162.792 900.136 162.792C901.352 162.792 902.355 162.483 903.144 161.864C903.955 161.245 904.488 160.381 904.744 159.272H907.944C907.539 161.149 906.643 162.632 905.256 163.72C903.891 164.787 902.206 165.32 900.2 165.32ZM918.044 165.32C916.401 165.32 914.961 164.957 913.724 164.232C912.508 163.485 911.559 162.44 910.876 161.096C910.193 159.752 909.852 158.195 909.852 156.424C909.852 154.739 910.204 153.245 910.908 151.944C911.612 150.643 912.572 149.619 913.788 148.872C915.004 148.104 916.391 147.72 917.948 147.72C919.228 147.72 920.369 147.965 921.372 148.456C922.396 148.925 923.26 149.597 923.964 150.472C924.689 151.325 925.212 152.339 925.532 153.512C925.852 154.664 925.937 155.933 925.788 157.32H911.74V155.176H922.364C922.3 153.597 921.863 152.371 921.052 151.496C920.263 150.6 919.207 150.152 917.884 150.152C916.924 150.152 916.081 150.408 915.356 150.92C914.652 151.411 914.097 152.125 913.692 153.064C913.308 153.981 913.116 155.101 913.116 156.424C913.116 157.747 913.308 158.888 913.692 159.848C914.076 160.787 914.631 161.512 915.356 162.024C916.081 162.536 916.956 162.792 917.98 162.792C919.196 162.792 920.199 162.483 920.988 161.864C921.799 161.245 922.332 160.381 922.588 159.272H925.788C925.383 161.149 924.487 162.632 923.1 163.72C921.735 164.787 920.049 165.32 918.044 165.32ZM932.456 156.328V165H929.224V148.04H932.232V151.624C932.83 150.451 933.715 149.523 934.888 148.84C936.083 148.157 937.374 147.816 938.76 147.816V151.176C937.544 151.112 936.456 151.251 935.496 151.592C934.558 151.933 933.811 152.499 933.256 153.288C932.723 154.056 932.456 155.069 932.456 156.328ZM965.062 158.28C965.062 159.603 964.71 160.797 964.006 161.864C963.323 162.931 962.331 163.773 961.03 164.392C959.728 165.011 958.15 165.32 956.294 165.32C954.438 165.32 952.838 165.011 951.494 164.392C950.171 163.752 949.136 162.856 948.39 161.704C947.643 160.552 947.216 159.219 947.11 157.704H950.694C950.779 159.155 951.28 160.317 952.198 161.192C953.136 162.067 954.48 162.504 956.23 162.504C957.211 162.504 958.086 162.355 958.854 162.056C959.622 161.757 960.219 161.331 960.646 160.776C961.094 160.221 961.318 159.549 961.318 158.76C961.318 157.8 960.998 157.053 960.358 156.52C959.718 155.987 958.736 155.581 957.414 155.304L954.086 154.664C953.275 154.493 952.496 154.259 951.75 153.96C951.024 153.661 950.363 153.277 949.766 152.808C949.19 152.317 948.731 151.72 948.39 151.016C948.07 150.291 947.91 149.448 947.91 148.488C947.91 147.187 948.251 146.024 948.934 145C949.638 143.976 950.598 143.176 951.814 142.6C953.051 142.003 954.47 141.704 956.07 141.704C957.67 141.704 959.099 142.013 960.358 142.632C961.638 143.251 962.662 144.115 963.43 145.224C964.219 146.333 964.656 147.656 964.742 149.192H961.158C961.094 148.275 960.838 147.464 960.39 146.76C959.963 146.056 959.387 145.512 958.662 145.128C957.936 144.723 957.083 144.52 956.102 144.52C955.12 144.52 954.288 144.701 953.606 145.064C952.923 145.405 952.4 145.864 952.038 146.44C951.675 146.995 951.494 147.603 951.494 148.264C951.494 148.989 951.675 149.576 952.038 150.024C952.422 150.451 952.923 150.792 953.542 151.048C954.16 151.304 954.822 151.507 955.526 151.656L958.918 152.328C960.902 152.733 962.416 153.395 963.462 154.312C964.528 155.229 965.062 156.552 965.062 158.28ZM979.16 158.024V148.04H982.392V165H979.384V162.344C978.957 163.197 978.275 163.912 977.336 164.488C976.397 165.043 975.352 165.32 974.2 165.32C973.069 165.32 972.056 165.096 971.16 164.648C970.285 164.2 969.603 163.507 969.112 162.568C968.643 161.608 968.408 160.403 968.408 158.952V148.04H971.64V158.312C971.64 159.784 971.971 160.851 972.632 161.512C973.293 162.152 974.157 162.472 975.224 162.472C975.949 162.472 976.611 162.291 977.208 161.928C977.805 161.544 978.275 161.021 978.616 160.36C978.979 159.677 979.16 158.899 979.16 158.024ZM993.569 165.352C992.011 165.352 990.635 164.979 989.441 164.232C988.267 163.485 987.339 162.451 986.657 161.128C985.995 159.784 985.665 158.248 985.665 156.52C985.665 154.813 986.006 153.299 986.689 151.976C987.371 150.653 988.31 149.619 989.505 148.872C990.699 148.104 992.054 147.72 993.569 147.72C994.977 147.72 996.225 148.019 997.313 148.616C998.422 149.192 999.329 150.024 1000.03 151.112C1000.76 152.179 1001.22 153.448 1001.41 154.92H998.017C997.846 153.555 997.366 152.488 996.577 151.72C995.787 150.952 994.795 150.568 993.601 150.568C992.662 150.568 991.851 150.824 991.169 151.336C990.486 151.827 989.953 152.509 989.569 153.384C989.185 154.259 988.993 155.304 988.993 156.52C988.993 157.715 989.185 158.76 989.569 159.656C989.953 160.552 990.486 161.245 991.169 161.736C991.851 162.227 992.662 162.472 993.601 162.472C994.817 162.472 995.809 162.088 996.577 161.32C997.366 160.552 997.857 159.485 998.049 158.12H1001.41C1001.24 159.613 1000.8 160.904 1000.1 161.992C999.393 163.059 998.486 163.891 997.377 164.488C996.267 165.064 994.998 165.352 993.569 165.352ZM1011.19 165.352C1009.64 165.352 1008.26 164.979 1007.07 164.232C1005.89 163.485 1004.96 162.451 1004.28 161.128C1003.62 159.784 1003.29 158.248 1003.29 156.52C1003.29 154.813 1003.63 153.299 1004.31 151.976C1005 150.653 1005.93 149.619 1007.13 148.872C1008.32 148.104 1009.68 147.72 1011.19 147.72C1012.6 147.72 1013.85 148.019 1014.94 148.616C1016.05 149.192 1016.95 150.024 1017.66 151.112C1018.38 152.179 1018.84 153.448 1019.03 154.92H1015.64C1015.47 153.555 1014.99 152.488 1014.2 151.72C1013.41 150.952 1012.42 150.568 1011.23 150.568C1010.29 150.568 1009.48 150.824 1008.79 151.336C1008.11 151.827 1007.58 152.509 1007.19 153.384C1006.81 154.259 1006.62 155.304 1006.62 156.52C1006.62 157.715 1006.81 158.76 1007.19 159.656C1007.58 160.552 1008.11 161.245 1008.79 161.736C1009.48 162.227 1010.29 162.472 1011.23 162.472C1012.44 162.472 1013.43 162.088 1014.2 161.32C1014.99 160.552 1015.48 159.485 1015.67 158.12H1019.03C1018.86 159.613 1018.43 160.904 1017.72 161.992C1017.02 163.059 1016.11 163.891 1015 164.488C1013.89 165.064 1012.62 165.352 1011.19 165.352ZM1029.11 165.32C1027.46 165.32 1026.02 164.957 1024.79 164.232C1023.57 163.485 1022.62 162.44 1021.94 161.096C1021.26 159.752 1020.91 158.195 1020.91 156.424C1020.91 154.739 1021.27 153.245 1021.97 151.944C1022.67 150.643 1023.63 149.619 1024.85 148.872C1026.07 148.104 1027.45 147.72 1029.01 147.72C1030.29 147.72 1031.43 147.965 1032.43 148.456C1033.46 148.925 1034.32 149.597 1035.03 150.472C1035.75 151.325 1036.27 152.339 1036.59 153.512C1036.91 154.664 1037 155.933 1036.85 157.32H1022.8V155.176H1033.43C1033.36 153.597 1032.93 152.371 1032.11 151.496C1031.33 150.6 1030.27 150.152 1028.95 150.152C1027.99 150.152 1027.14 150.408 1026.42 150.92C1025.71 151.411 1025.16 152.125 1024.75 153.064C1024.37 153.981 1024.18 155.101 1024.18 156.424C1024.18 157.747 1024.37 158.888 1024.75 159.848C1025.14 160.787 1025.69 161.512 1026.42 162.024C1027.14 162.536 1028.02 162.792 1029.04 162.792C1030.26 162.792 1031.26 162.483 1032.05 161.864C1032.86 161.245 1033.39 160.381 1033.65 159.272H1036.85C1036.45 161.149 1035.55 162.632 1034.16 163.72C1032.8 164.787 1031.11 165.32 1029.11 165.32ZM1053.73 159.944C1053.73 161.608 1053.11 162.92 1051.87 163.88C1050.63 164.84 1048.88 165.32 1046.62 165.32C1044.4 165.32 1042.64 164.797 1041.34 163.752C1040.06 162.707 1039.34 161.277 1039.17 159.464H1042.27C1042.31 160.531 1042.73 161.373 1043.52 161.992C1044.33 162.589 1045.39 162.888 1046.69 162.888C1047.82 162.888 1048.72 162.685 1049.41 162.28C1050.11 161.875 1050.46 161.277 1050.46 160.488C1050.46 159.784 1050.23 159.251 1049.76 158.888C1049.31 158.525 1048.55 158.248 1047.49 158.056L1044.73 157.544C1043.18 157.245 1041.97 156.701 1041.12 155.912C1040.27 155.101 1039.84 154.056 1039.84 152.776C1039.84 151.773 1040.11 150.899 1040.64 150.152C1041.19 149.384 1041.96 148.787 1042.94 148.36C1043.92 147.933 1045.07 147.72 1046.37 147.72C1047.73 147.72 1048.93 147.955 1049.95 148.424C1050.97 148.872 1051.8 149.523 1052.41 150.376C1053.03 151.208 1053.39 152.211 1053.47 153.384H1050.37C1050.26 152.381 1049.85 151.592 1049.15 151.016C1048.45 150.44 1047.53 150.152 1046.4 150.152C1045.37 150.152 1044.54 150.365 1043.9 150.792C1043.28 151.197 1042.97 151.763 1042.97 152.488C1042.97 153.171 1043.2 153.693 1043.65 154.056C1044.12 154.397 1044.86 154.675 1045.89 154.888L1048.77 155.432C1050.45 155.731 1051.7 156.253 1052.51 157C1053.32 157.747 1053.73 158.728 1053.73 159.944ZM1070.7 159.944C1070.7 161.608 1070.08 162.92 1068.84 163.88C1067.6 164.84 1065.85 165.32 1063.59 165.32C1061.37 165.32 1059.61 164.797 1058.31 163.752C1057.03 162.707 1056.31 161.277 1056.14 159.464H1059.24C1059.28 160.531 1059.7 161.373 1060.49 161.992C1061.3 162.589 1062.35 162.888 1063.66 162.888C1064.79 162.888 1065.69 162.685 1066.38 162.28C1067.08 161.875 1067.43 161.277 1067.43 160.488C1067.43 159.784 1067.2 159.251 1066.73 158.888C1066.28 158.525 1065.52 158.248 1064.46 158.056L1061.7 157.544C1060.15 157.245 1058.94 156.701 1058.09 155.912C1057.23 155.101 1056.81 154.056 1056.81 152.776C1056.81 151.773 1057.07 150.899 1057.61 150.152C1058.16 149.384 1058.93 148.787 1059.91 148.36C1060.89 147.933 1062.03 147.72 1063.34 147.72C1064.7 147.72 1065.9 147.955 1066.92 148.424C1067.94 148.872 1068.76 149.523 1069.38 150.376C1070 151.208 1070.35 152.211 1070.44 153.384H1067.34C1067.23 152.381 1066.82 151.592 1066.12 151.016C1065.42 150.44 1064.5 150.152 1063.37 150.152C1062.34 150.152 1061.51 150.365 1060.87 150.792C1060.25 151.197 1059.94 151.763 1059.94 152.488C1059.94 153.171 1060.17 153.693 1060.62 154.056C1061.08 154.397 1061.83 154.675 1062.86 154.888L1065.74 155.432C1067.42 155.731 1068.67 156.253 1069.48 157C1070.29 157.747 1070.7 158.728 1070.7 159.944ZM1094.93 165L1091.09 152.392L1087.22 165H1083.95L1079.06 148.04H1082.22L1085.65 160.392L1089.49 148.04H1092.69L1096.46 160.424L1099.89 148.04H1103.09L1098.16 165H1094.93ZM1108.96 165H1105.72V148.04H1108.96V165ZM1109.66 144.104C1109.66 144.701 1109.44 145.213 1108.99 145.64C1108.56 146.045 1108.01 146.248 1107.32 146.248C1106.62 146.248 1106.04 146.045 1105.6 145.64C1105.17 145.213 1104.96 144.701 1104.96 144.104C1104.96 143.464 1105.17 142.952 1105.6 142.568C1106.04 142.163 1106.62 141.96 1107.32 141.96C1108.01 141.96 1108.56 142.163 1108.99 142.568C1109.44 142.952 1109.66 143.464 1109.66 144.104ZM1123.01 161.864V164.712C1122.52 164.947 1122.04 165.107 1121.57 165.192C1121.12 165.277 1120.64 165.32 1120.13 165.32C1119.09 165.32 1118.16 165.128 1117.35 164.744C1116.56 164.36 1115.94 163.763 1115.49 162.952C1115.04 162.141 1114.82 161.117 1114.82 159.88V150.792H1111.08V148.04H1114.82V143.016H1118.05V148.04H1123.17V150.792H1118.05V159.144C1118.05 160.317 1118.31 161.139 1118.82 161.608C1119.35 162.077 1120.05 162.312 1120.9 162.312C1121.28 162.312 1121.65 162.28 1121.99 162.216C1122.35 162.131 1122.69 162.013 1123.01 161.864ZM1129.49 155.432V165H1126.26V142.024H1129.49V150.76C1130.04 149.843 1130.75 149.107 1131.6 148.552C1132.47 147.997 1133.5 147.72 1134.67 147.72C1136.42 147.72 1137.82 148.264 1138.86 149.352C1139.93 150.44 1140.46 151.997 1140.46 154.024V165H1137.23V155.112C1137.23 153.661 1136.92 152.541 1136.3 151.752C1135.68 150.963 1134.77 150.568 1133.55 150.568C1132.8 150.568 1132.12 150.771 1131.5 151.176C1130.88 151.56 1130.39 152.115 1130.03 152.84C1129.67 153.565 1129.49 154.429 1129.49 155.432Z" fill="white"/>
<path d="M604.683 245H594.955V199.048H612.939C618.741 199.048 623.243 200.349 626.443 202.952C629.643 205.512 631.243 209.181 631.243 213.96C631.243 217.032 630.325 219.763 628.491 222.152C626.699 224.499 624.16 226.205 620.875 227.272L632.715 245H621.131L610.763 228.744H604.683V245ZM604.683 207.112V220.744H612.491C615.435 220.744 617.675 220.189 619.211 219.08C620.747 217.928 621.515 216.221 621.515 213.96C621.515 211.656 620.747 209.949 619.211 208.84C617.675 207.688 615.435 207.112 612.491 207.112H604.683ZM651.728 245.64C649.254 245.64 646.95 245.192 644.816 244.296C642.726 243.4 640.891 242.141 639.312 240.52C637.776 238.899 636.56 237.021 635.664 234.888C634.811 232.712 634.384 230.387 634.384 227.912C634.384 225.395 634.811 223.069 635.664 220.936C636.56 218.803 637.776 216.925 639.312 215.304C640.891 213.683 642.726 212.424 644.816 211.528C646.95 210.632 649.254 210.184 651.728 210.184C654.203 210.184 656.486 210.632 658.576 211.528C660.71 212.424 662.544 213.683 664.08 215.304C665.659 216.925 666.875 218.803 667.728 220.936C668.624 223.069 669.072 225.395 669.072 227.912C669.072 230.387 668.624 232.712 667.728 234.888C666.875 237.021 665.659 238.899 664.08 240.52C662.544 242.141 660.71 243.4 658.576 244.296C656.486 245.192 654.203 245.64 651.728 245.64ZM651.728 237.768C653.222 237.768 654.587 237.384 655.824 236.616C657.062 235.848 658.043 234.739 658.768 233.288C659.536 231.795 659.92 230.003 659.92 227.912C659.92 225.779 659.536 223.987 658.768 222.536C658.043 221.085 657.062 219.997 655.824 219.272C654.587 218.504 653.222 218.12 651.728 218.12C650.278 218.12 648.912 218.504 647.632 219.272C646.395 219.997 645.392 221.085 644.624 222.536C643.899 223.987 643.536 225.779 643.536 227.912C643.536 230.003 643.899 231.795 644.624 233.288C645.392 234.739 646.395 235.848 647.632 236.616C648.912 237.384 650.278 237.768 651.728 237.768ZM708.861 227.912C708.861 231.24 708.221 234.248 706.941 236.936C705.704 239.624 703.955 241.757 701.693 243.336C699.432 244.872 696.765 245.64 693.693 245.64C691.517 245.64 689.512 245.149 687.677 244.168C685.843 243.187 684.264 241.821 682.941 240.072V245H674.749V199.048H683.645V215.24C684.925 213.576 686.397 212.317 688.061 211.464C689.768 210.611 691.645 210.184 693.693 210.184C696.765 210.184 699.432 210.952 701.693 212.488C703.955 214.024 705.704 216.136 706.941 218.824C708.221 221.512 708.861 224.541 708.861 227.912ZM699.709 227.912C699.709 224.627 698.92 222.173 697.341 220.552C695.763 218.888 693.885 218.056 691.709 218.056C690.259 218.056 688.915 218.419 687.677 219.144C686.483 219.869 685.523 220.957 684.797 222.408C684.072 223.859 683.709 225.651 683.709 227.784C683.709 229.917 684.051 231.731 684.733 233.224C685.459 234.675 686.44 235.784 687.677 236.552C688.915 237.32 690.259 237.704 691.709 237.704C693.885 237.704 695.763 236.872 697.341 235.208C698.92 233.544 699.709 231.112 699.709 227.912ZM729.666 245.64C727.191 245.64 724.887 245.192 722.754 244.296C720.663 243.4 718.828 242.141 717.25 240.52C715.714 238.899 714.498 237.021 713.602 234.888C712.748 232.712 712.322 230.387 712.322 227.912C712.322 225.395 712.748 223.069 713.602 220.936C714.498 218.803 715.714 216.925 717.25 215.304C718.828 213.683 720.663 212.424 722.754 211.528C724.887 210.632 727.191 210.184 729.666 210.184C732.14 210.184 734.423 210.632 736.514 211.528C738.647 212.424 740.482 213.683 742.018 215.304C743.596 216.925 744.812 218.803 745.666 220.936C746.562 223.069 747.01 225.395 747.01 227.912C747.01 230.387 746.562 232.712 745.666 234.888C744.812 237.021 743.596 238.899 742.018 240.52C740.482 242.141 738.647 243.4 736.514 244.296C734.423 245.192 732.14 245.64 729.666 245.64ZM729.666 237.768C731.159 237.768 732.524 237.384 733.762 236.616C734.999 235.848 735.98 234.739 736.706 233.288C737.474 231.795 737.858 230.003 737.858 227.912C737.858 225.779 737.474 223.987 736.706 222.536C735.98 221.085 734.999 219.997 733.762 219.272C732.524 218.504 731.159 218.12 729.666 218.12C728.215 218.12 726.85 218.504 725.57 219.272C724.332 219.997 723.33 221.085 722.562 222.536C721.836 223.987 721.474 225.779 721.474 227.912C721.474 230.003 721.836 231.795 722.562 233.288C723.33 234.739 724.332 235.848 725.57 236.616C726.85 237.384 728.215 237.768 729.666 237.768Z" fill="#AF63FB"/>
<path d="M759.773 227.4H780.125L782.685 235.144H756.957L759.773 227.4ZM782.237 245L769.949 209.672L757.405 245H747.613L764.893 199.048H775.517L792.669 245H782.237ZM831.611 227.912C831.611 231.283 830.971 234.312 829.691 237C828.454 239.645 826.705 241.757 824.443 243.336C822.225 244.872 819.558 245.64 816.443 245.64C814.438 245.64 812.582 245.213 810.875 244.36C809.169 243.507 807.675 242.248 806.395 240.584V257.352H797.499V210.824H805.691V215.816C807.014 213.981 808.593 212.595 810.427 211.656C812.262 210.675 814.267 210.184 816.443 210.184C819.515 210.184 822.182 210.973 824.443 212.552C826.705 214.088 828.454 216.2 829.691 218.888C830.971 221.533 831.611 224.541 831.611 227.912ZM822.459 227.912C822.459 224.712 821.67 222.28 820.091 220.616C818.513 218.909 816.635 218.056 814.459 218.056C813.051 218.056 811.729 218.44 810.491 219.208C809.254 219.976 808.273 221.085 807.547 222.536C806.822 223.944 806.459 225.736 806.459 227.912C806.459 230.045 806.822 231.859 807.547 233.352C808.273 234.803 809.233 235.891 810.427 236.616C811.665 237.341 813.009 237.704 814.459 237.704C816.635 237.704 818.513 236.893 820.091 235.272C821.67 233.608 822.459 231.155 822.459 227.912ZM871.424 227.912C871.424 231.283 870.784 234.312 869.504 237C868.266 239.645 866.517 241.757 864.256 243.336C862.037 244.872 859.37 245.64 856.256 245.64C854.25 245.64 852.394 245.213 850.688 244.36C848.981 243.507 847.488 242.248 846.208 240.584V257.352H837.312V210.824H845.504V215.816C846.826 213.981 848.405 212.595 850.24 211.656C852.074 210.675 854.08 210.184 856.256 210.184C859.328 210.184 861.994 210.973 864.256 212.552C866.517 214.088 868.266 216.2 869.504 218.888C870.784 221.533 871.424 224.541 871.424 227.912ZM862.272 227.912C862.272 224.712 861.482 222.28 859.904 220.616C858.325 218.909 856.448 218.056 854.272 218.056C852.864 218.056 851.541 218.44 850.304 219.208C849.066 219.976 848.085 221.085 847.36 222.536C846.634 223.944 846.272 225.736 846.272 227.912C846.272 230.045 846.634 231.859 847.36 233.352C848.085 234.803 849.045 235.891 850.24 236.616C851.477 237.341 852.821 237.704 854.272 237.704C856.448 237.704 858.325 236.893 859.904 235.272C861.482 233.608 862.272 231.155 862.272 227.912ZM886.084 245H877.124V199.048H886.084V245ZM924.846 210.824L908.206 257.352H898.542L903.406 244.616L889.966 210.824H899.566L908.142 234.248L915.95 210.824H924.846Z" fill="#FFC107"/>
<rect x="733.75" y="310" width="71.5" height="12" rx="6" fill="#FFC107"/>
<circle cx="715.75" cy="316" r="6" fill="#AF63FB"/>
<defs>
<filter id="filter0_f_3333_1467" x="755.503" y="-136.962" width="666.672" height="405.099" filterUnits="userSpaceOnUse" color-interpolation-filters="sRGB">
<feFlood flood-opacity="0" result="BackgroundImageFix"/>
<feBlend mode="normal" in="SourceGraphic" in2="BackgroundImageFix" result="shape"/>
<feGaussianBlur stdDeviation="43.4925" result="effect1_foregroundBlur_3333_1467"/>
</filter>
<filter id="filter1_f_3333_1467" x="173.722" y="-204.839" width="683.235" height="422.055" filterUnits="userSpaceOnUse" color-interpolation-filters="sRGB">
<feFlood flood-opacity="0" result="BackgroundImageFix"/>
<feBlend mode="normal" in="SourceGraphic" in2="BackgroundImageFix" result="shape"/>
<feGaussianBlur stdDeviation="59.8022" result="effect1_foregroundBlur_3333_1467"/>
</filter>
<filter id="filter2_f_3333_1467" x="563.98" y="-182.068" width="659.381" height="471.611" filterUnits="userSpaceOnUse" color-interpolation-filters="sRGB">
<feFlood flood-opacity="0" result="BackgroundImageFix"/>
<feBlend mode="normal" in="SourceGraphic" in2="BackgroundImageFix" result="shape"/>
<feGaussianBlur stdDeviation="57.0839" result="effect1_foregroundBlur_3333_1467"/>
</filter>
<filter id="filter3_f_3333_1467" x="367.296" y="-76.369" width="516.985" height="417.246" filterUnits="userSpaceOnUse" color-interpolation-filters="sRGB">
<feFlood flood-opacity="0" result="BackgroundImageFix"/>
<feBlend mode="normal" in="SourceGraphic" in2="BackgroundImageFix" result="shape"/>
<feGaussianBlur stdDeviation="57.0839" result="effect1_foregroundBlur_3333_1467"/>
</filter>
<filter id="filter4_f_3333_1467" x="1008.37" y="-208.192" width="648.154" height="466.254" filterUnits="userSpaceOnUse" color-interpolation-filters="sRGB">
<feFlood flood-opacity="0" result="BackgroundImageFix"/>
<feBlend mode="normal" in="SourceGraphic" in2="BackgroundImageFix" result="shape"/>
<feGaussianBlur stdDeviation="59.8022" result="effect1_foregroundBlur_3333_1467"/>
</filter>
<filter id="filter5_f_3333_1467" x="-186.099" y="-144.279" width="598.074" height="408.957" filterUnits="userSpaceOnUse" color-interpolation-filters="sRGB">
<feFlood flood-opacity="0" result="BackgroundImageFix"/>
<feBlend mode="normal" in="SourceGraphic" in2="BackgroundImageFix" result="shape"/>
<feGaussianBlur stdDeviation="51.6474" result="effect1_foregroundBlur_3333_1467"/>
</filter>
<linearGradient id="paint0_linear_3333_1467" x1="-178.873" y1="-168.969" x2="-136.436" y2="211.41" gradientUnits="userSpaceOnUse">
<stop stop-color="#B2EBF2"/>
<stop offset="1" stop-color="#D1C4E9"/>
</linearGradient>
<linearGradient id="paint1_linear_3333_1467" x1="655.059" y1="-122.731" x2="639.671" y2="119.534" gradientUnits="userSpaceOnUse">
<stop stop-color="#651FFF"/>
<stop offset="0.668612" stop-color="#00E5FF"/>
<stop offset="1" stop-color="#FF4081"/>
</linearGradient>
<linearGradient id="paint2_linear_3333_1467" x1="-105.196" y1="83.9601" x2="203.648" y2="310.491" gradientUnits="userSpaceOnUse">
<stop stop-color="#D81B60"/>
<stop offset="0.59346" stop-color="#84FFFF"/>
<stop offset="1" stop-color="#311B92"/>
</linearGradient>
<linearGradient id="paint3_linear_3333_1467" x1="-6.43908" y1="235.596" x2="80.9702" y2="-152.515" gradientUnits="userSpaceOnUse">
<stop stop-color="#651FFF"/>
<stop offset="0.668612" stop-color="#00E5FF"/>
<stop offset="1" stop-color="#FF4081"/>
</linearGradient>
<linearGradient id="paint4_linear_3333_1467" x1="754.203" y1="-31.3109" x2="1101.74" y2="-367.882" gradientUnits="userSpaceOnUse">
<stop stop-color="#FFC107"/>
<stop offset="1" stop-color="#FCF3DB"/>
</linearGradient>
<linearGradient id="paint5_linear_3333_1467" x1="-40.9492" y1="69.1744" x2="121.791" y2="388.502" gradientUnits="userSpaceOnUse">
<stop stop-color="#A652FA"/>
<stop offset="1" stop-color="#DCBBFC"/>
</linearGradient>
</defs>
</svg>
