<svg width="18" height="19" viewBox="0 0 18 19" fill="none" xmlns="http://www.w3.org/2000/svg">
<g clip-path="url(#clip0_1_842)">
<path d="M9 5.94873C9.37296 5.94873 9.73065 5.80057 9.99437 5.53685C10.2581 5.27313 10.4062 4.91544 10.4062 4.54248C10.4062 4.16952 10.2581 3.81183 9.99437 3.54811C9.73065 3.28439 9.37296 3.13623 9 3.13623C8.62704 3.13623 8.26935 3.28439 8.00563 3.54811C7.74191 3.81183 7.59375 4.16952 7.59375 4.54248C7.59375 4.91544 7.74191 5.27313 8.00563 5.53685C8.26935 5.80057 8.62704 5.94873 9 5.94873Z" fill="white"/>
<path d="M9 5.94873C9.67163 5.94873 10.2712 6.37848 10.485 7.01636L10.5829 7.30886C10.5956 7.34627 10.5992 7.3862 10.5934 7.42529C10.5876 7.46439 10.5725 7.50152 10.5493 7.53357C10.5262 7.56563 10.4957 7.59168 10.4604 7.60954C10.4252 7.6274 10.3862 7.63655 10.3466 7.63623H7.65788C7.61852 7.63605 7.57976 7.62658 7.54476 7.60857C7.50976 7.59057 7.47951 7.56455 7.45648 7.53263C7.43345 7.50072 7.41829 7.46381 7.41223 7.42492C7.40617 7.38603 7.40939 7.34627 7.42163 7.30886L7.5195 7.01636C7.62365 6.70506 7.82311 6.43442 8.08964 6.24281C8.35617 6.05119 8.67624 5.9483 9.0045 5.94873H9ZM5.625 10.4487C5.625 10.2995 5.68426 10.1565 5.78975 10.051C5.89524 9.94549 6.03832 9.88623 6.1875 9.88623H11.8125C11.9617 9.88623 12.1048 9.94549 12.2102 10.051C12.3157 10.1565 12.375 10.2995 12.375 10.4487C12.375 10.5979 12.3157 10.741 12.2102 10.8465C12.1048 10.952 11.9617 11.0112 11.8125 11.0112H6.1875C6.03832 11.0112 5.89524 10.952 5.78975 10.8465C5.68426 10.741 5.625 10.5979 5.625 10.4487ZM5.625 12.6987C5.625 12.5495 5.68426 12.4065 5.78975 12.301C5.89524 12.1955 6.03832 12.1362 6.1875 12.1362H11.8125C11.9617 12.1362 12.1048 12.1955 12.2102 12.301C12.3157 12.4065 12.375 12.5495 12.375 12.6987C12.375 12.8479 12.3157 12.991 12.2102 13.0965C12.1048 13.202 11.9617 13.2612 11.8125 13.2612H6.1875C6.03832 13.2612 5.89524 13.202 5.78975 13.0965C5.68426 12.991 5.625 12.8479 5.625 12.6987ZM6.1875 14.3862C6.03832 14.3862 5.89524 14.4455 5.78975 14.551C5.68426 14.6565 5.625 14.7995 5.625 14.9487C5.625 15.0979 5.68426 15.241 5.78975 15.3465C5.89524 15.452 6.03832 15.5112 6.1875 15.5112H8.4375C8.58668 15.5112 8.72976 15.452 8.83525 15.3465C8.94074 15.241 9 15.0979 9 14.9487C9 14.7995 8.94074 14.6565 8.83525 14.551C8.72976 14.4455 8.58668 14.3862 8.4375 14.3862H6.1875Z" fill="white"/>
<path fill-rule="evenodd" clip-rule="evenodd" d="M2.62129 2.73127C2.25342 3.45352 2.25342 4.39627 2.25342 6.28627V13.4863C2.25342 15.3763 2.25342 16.3213 2.62129 17.0413C2.94601 17.6748 3.46153 18.1903 4.09504 18.515C4.81729 18.8829 5.76004 18.8829 7.65004 18.8829H10.35C12.24 18.8829 13.185 18.8829 13.905 18.515C14.5395 18.1916 15.0553 17.6757 15.3788 17.0413C15.7467 16.319 15.7467 15.3763 15.7467 13.4863V6.28627C15.7467 4.39627 15.7467 3.45127 15.3788 2.73127C15.0553 2.09684 14.5395 1.58099 13.905 1.25752C13.1828 0.889648 12.24 0.889648 10.35 0.889648H7.65004C5.76004 0.889648 4.81504 0.889648 4.09504 1.25752C3.46153 1.58224 2.94601 2.09776 2.62129 2.73127ZM10.35 2.01352H7.65004C6.68592 2.01352 6.03004 2.01352 5.52379 2.05627C5.03104 2.09565 4.77792 2.16877 4.60242 2.25877C4.17907 2.47449 3.83488 2.81868 3.61917 3.24202C3.52917 3.41752 3.45604 3.66952 3.41667 4.1634C3.37504 4.66965 3.37392 5.32215 3.37392 6.28965V13.4896C3.37392 14.4538 3.37504 15.1096 3.41667 15.6159C3.45717 16.1086 3.53029 16.3618 3.61917 16.5373C3.83517 16.9603 4.17942 17.3045 4.60242 17.5205C4.77792 17.6105 5.03104 17.6836 5.52379 17.723C6.03004 17.7635 6.68254 17.7646 7.65004 17.7646H10.35C11.3142 17.7646 11.97 17.7646 12.4763 17.723C12.969 17.6825 13.2222 17.6094 13.3977 17.5205C13.8207 17.3045 14.1649 16.9603 14.3809 16.5373C14.4709 16.3618 14.544 16.1086 14.5834 15.6148C14.625 15.1085 14.6262 14.456 14.6262 13.4885V6.28852C14.6262 5.32552 14.625 4.66852 14.5834 4.16227C14.5429 3.67065 14.4698 3.41752 14.3809 3.24202C14.1652 2.81868 13.821 2.47449 13.3977 2.25877C13.2222 2.16877 12.969 2.09565 12.4763 2.05627C11.97 2.01465 11.3175 2.01352 10.35 2.01352Z" fill="white"/>
</g>
<defs>
<clipPath id="clip0_1_842">
<rect width="18" height="18" fill="white" transform="translate(0 0.88623)"/>
</clipPath>
</defs>
</svg>
