<svg width="18" height="19" viewBox="0 0 18 19" fill="none" xmlns="http://www.w3.org/2000/svg">
<path d="M4.212 15.8862C3.8665 15.8862 3.57825 15.7707 3.34725 15.5397C3.11625 15.3087 3.0005 15.0202 3 14.6742V5.09823C3 4.75273 3.11575 4.46448 3.34725 4.23348C3.57875 4.00248 3.867 3.88673 4.212 3.88623H13.7887C14.1337 3.88623 14.422 4.00198 14.6535 4.23348C14.885 4.46498 15.0005 4.75323 15 5.09823V14.675C15 15.02 14.8845 15.3082 14.6535 15.5397C14.4225 15.7712 14.134 15.8867 13.788 15.8862H4.212ZM14.25 12.5112H3.75V14.675C3.75 14.79 3.798 14.8957 3.894 14.9922C3.99 15.0887 4.09575 15.1367 4.21125 15.1362H13.7887C13.9037 15.1362 14.0095 15.0882 14.106 14.9922C14.2025 14.8962 14.2505 14.7902 14.25 14.6742V12.5112ZM12.087 11.7612H14.25V5.09823C14.25 4.98273 14.202 4.87673 14.106 4.78023C14.01 4.68373 13.904 4.63573 13.788 4.63623H12.0862L12.087 11.7612ZM3.75 11.7612H5.91375V4.63623H4.21125C4.09625 4.63623 3.9905 4.68423 3.894 4.78023C3.7975 4.87623 3.7495 4.98223 3.75 5.09823V11.7612ZM6.66375 11.7612H11.3362V4.63623H6.66375V11.7612Z" fill="white"/>
</svg>
