<svg width="20" height="20" viewBox="0 0 20 20" fill="none" xmlns="http://www.w3.org/2000/svg">
<path d="M7.40003 10.98L0.565736 17.4926C0.545264 17.5126 0.520906 17.5371 0.500773 17.5579C-0.11845 18.2076 -0.170558 19.154 0.384374 19.6726C0.938799 20.191 1.8898 20.0851 2.50885 19.4357L9.02169 12.6014C8.70717 12.3876 8.40958 12.1443 8.13346 11.868C7.85769 11.5921 7.61406 11.2943 7.40003 10.98ZM14.1763 5.82348V3.45876C14.1763 3.05254 13.8471 2.72263 13.4405 2.72263C13.0341 2.72263 12.7045 3.05237 12.7045 3.45876V5.82348H10.3395C9.9331 5.82348 9.60352 6.15289 9.60352 6.55944C9.60352 6.96583 9.93293 7.29541 10.3395 7.29541H12.7045V9.66064C12.7045 10.0672 13.034 10.3968 13.4405 10.3968C13.8469 10.3968 14.1763 10.0674 14.1763 9.66064V7.29541H16.541C16.9472 7.29541 17.2768 6.966 17.2768 6.55944C17.2768 6.15306 16.9474 5.82348 16.541 5.82348H14.1763ZM18.0813 1.91967C16.842 0.680884 15.1943 -0.00195312 13.4419 -0.00195312C11.6891 -0.00195312 10.041 0.680884 8.80226 1.92001C7.5628 3.15896 6.88081 4.80684 6.88081 6.55961C6.88081 8.31205 7.5628 9.9601 8.80226 11.1992C10.041 12.4383 11.6891 13.1207 13.4419 13.1207C15.1943 13.1207 16.842 12.4383 18.0813 11.1992C20.6396 8.64061 20.6396 4.47794 18.0813 1.91967ZM16.7237 9.8415C15.8475 10.7179 14.6818 11.2007 13.442 11.2007C12.2024 11.2007 11.0367 10.7179 10.1602 9.8415C9.28326 8.96511 8.80091 7.79958 8.80091 6.55961C8.80091 5.31964 9.28343 4.15462 10.1602 3.27773C11.0369 2.40134 12.2024 1.91849 13.442 1.91849C14.6818 1.91849 15.8477 2.40134 16.7237 3.27773C18.5335 5.08718 18.5335 8.03205 16.7237 9.8415Z" fill="white"/>
</svg>
