<svg width="24" height="24" viewBox="0 0 24 24" fill="none" xmlns="http://www.w3.org/2000/svg">
<path d="M19 3.5C19.83 3.5 20.5 4.17 20.5 5V19C20.5 19.83 19.83 20.5 19 20.5H5C4.17 20.5 3.5 19.83 3.5 19V5C3.5 4.17 4.17 3.5 5 3.5H19ZM19 2H5C3.34 2 2 3.34 2 5V19C2 20.66 3.34 22 5 22H19C20.66 22 22 20.66 22 19V5C22 3.34 20.66 2 19 2Z" fill="white"/>
<path d="M12 17.75C11.59 17.75 11.25 17.41 11.25 17V8C11.25 7.59 11.59 7.25 12 7.25C12.41 7.25 12.75 7.59 12.75 8V17C12.75 17.41 12.41 17.75 12 17.75Z" fill="white"/>
<path d="M8 17.75C7.59 17.75 7.25 17.41 7.25 17V13C7.25 12.59 7.59 12.25 8 12.25C8.41 12.25 8.75 12.59 8.75 13V17C8.75 17.41 8.41 17.75 8 17.75Z" fill="white"/>
<path d="M16 17.75C15.59 17.75 15.25 17.41 15.25 17V11C15.25 10.59 15.59 10.25 16 10.25C16.41 10.25 16.75 10.59 16.75 11V17C16.75 17.41 16.41 17.75 16 17.75Z" fill="white"/>
</svg>
