<svg width="24" height="24" viewBox="0 0 24 24" fill="none" xmlns="http://www.w3.org/2000/svg">
<path d="M15 5C15 3.34315 13.6569 2 12 2C10.3431 2 9 3.34315 9 5V11C9 12.6569 10.3431 14 12 14C13.6569 14 15 12.6569 15 11V5Z" stroke="white" stroke-width="1.5"/>
<path d="M5 10V11C5 12.8565 5.7375 14.637 7.05025 15.9497C8.36301 17.2625 10.1435 18 12 18M12 18C13.8565 18 15.637 17.2625 16.9497 15.9497C18.2625 14.637 19 12.8565 19 11V10M12 18V22M12 22H9M12 22H15" stroke="white" stroke-width="1.5" stroke-linecap="round" stroke-linejoin="round"/>
</svg>
