<svg width="22" height="22" viewBox="0 0 22 22" fill="none" xmlns="http://www.w3.org/2000/svg">
<g clip-path="url(#clip0_1_3537)">
<path d="M11 1.375C5.68425 1.375 1.375 5.68425 1.375 11C1.375 12.7426 1.83792 14.3765 2.64779 15.7864C2.23071 16.8758 1.83746 18.1408 1.57942 19.4054C1.54997 19.5423 1.55594 19.6845 1.59677 19.8185C1.63759 19.9525 1.71192 20.0739 1.81273 20.1712C1.91353 20.2685 2.03748 20.3384 2.17286 20.3744C2.30823 20.4105 2.45056 20.4114 2.58638 20.377C3.79775 20.0901 5.027 19.6923 6.10683 19.2903C7.58835 20.1668 9.27865 20.6278 11 20.625C16.3158 20.625 20.625 16.3158 20.625 11C20.625 10.8463 20.6215 10.6935 20.6145 10.5417" stroke="white" stroke-width="1.5" stroke-linecap="round" stroke-linejoin="round"/>
<path d="M20.625 5.5C20.625 6.59402 20.1904 7.64323 19.4168 8.41682C18.6432 9.1904 17.594 9.625 16.5 9.625C15.406 9.625 14.3568 9.1904 13.5832 8.41682C12.8096 7.64323 12.375 6.59402 12.375 5.5C12.375 4.40598 12.8096 3.35677 13.5832 2.58318C14.3568 1.8096 15.406 1.375 16.5 1.375C17.594 1.375 18.6432 1.8096 19.4168 2.58318C20.1904 3.35677 20.625 4.40598 20.625 5.5Z" stroke="white" stroke-width="1.5" stroke-linejoin="round"/>
</g>
<defs>
<clipPath id="clip0_1_3537">
<rect width="22" height="22" fill="white"/>
</clipPath>
</defs>
</svg>
