<svg width="24" height="24" viewBox="0 0 24 24" fill="none" xmlns="http://www.w3.org/2000/svg">
<path d="M20.8321 4.1057L18.4141 1.68695C17.8688 1.1312 17.1331 0.825195 16.3426 0.825195H5.23506C3.62256 0.825195 2.31006 2.1377 2.31006 3.7502V20.2502C2.31006 21.8627 3.62256 23.1752 5.23506 23.1752H18.7651C20.3776 23.1752 21.6901 21.8664 21.6901 20.2569V6.17269C21.6901 5.38294 21.3841 4.6472 20.8321 4.1057ZM17.4556 2.63795L19.8826 5.06494C20.1781 5.35444 20.3401 5.7482 20.3401 6.17344V6.39994H16.9471C16.4926 6.39994 16.1221 6.0302 16.1221 5.57494V2.1752H16.3426C16.7671 2.1752 17.1608 2.33795 17.4556 2.63795ZM18.7651 21.8252H5.23506C4.36656 21.8252 3.66006 21.1194 3.66006 20.2502V3.7502C3.66006 2.8817 4.36656 2.1752 5.23506 2.1752H14.7721V5.57419C14.7721 6.77345 15.7478 7.74919 16.9471 7.74919H20.3401V20.2577C20.3401 21.1217 19.6336 21.8252 18.7651 21.8252Z" fill="white"/>
<path d="M16.7533 10.4346H7.24629C6.87354 10.4346 6.57129 10.7368 6.57129 11.1096C6.57129 11.4823 6.87354 11.7846 7.24629 11.7846H16.7533C17.126 11.7846 17.4283 11.4823 17.4283 11.1096C17.4283 10.7368 17.126 10.4346 16.7533 10.4346Z" fill="white"/>
<path d="M16.7538 13.2324H7.24678C6.87403 13.2324 6.57178 13.5347 6.57178 13.9074C6.57178 14.2802 6.87403 14.5824 7.24678 14.5824H16.7538C17.1265 14.5824 17.4288 14.2802 17.4288 13.9074C17.4288 13.5347 17.1265 13.2324 16.7538 13.2324Z" fill="white"/>
<path d="M16.7535 17.79H14.4675C14.0947 17.79 13.7925 18.0923 13.7925 18.465C13.7925 18.8378 14.0947 19.14 14.4675 19.14H16.7535C17.1262 19.14 17.4285 18.8378 17.4285 18.465C17.4285 18.0923 17.1262 17.79 16.7535 17.79Z" fill="white"/>
</svg>
