<svg width="40" height="41" viewBox="0 0 40 41" fill="none" xmlns="http://www.w3.org/2000/svg">
<rect y="0.5" width="40" height="40" rx="20" fill="#CC0001"/>
<path d="M17.6307 29.5H11.6307L14.5284 12.0455H20.4773C22.2102 12.0455 23.6477 12.4034 24.7898 13.1193C25.9318 13.8352 26.733 14.858 27.1932 16.1875C27.6591 17.5114 27.7386 19.0909 27.4318 20.9261C27.1364 22.7216 26.554 24.2585 25.6847 25.5369C24.8153 26.8153 23.6989 27.7955 22.3352 28.4773C20.9716 29.1591 19.4034 29.5 17.6307 29.5ZM15.2443 26.7642H17.7926C19.0028 26.7642 20.0568 26.5341 20.9545 26.0739C21.858 25.608 22.5938 24.9176 23.1619 24.0028C23.7358 23.0824 24.1335 21.9403 24.3551 20.5767C24.5767 19.2699 24.5625 18.1903 24.3125 17.3381C24.0625 16.4801 23.5767 15.8409 22.8551 15.4205C22.1392 14.9943 21.1903 14.7812 20.0085 14.7812H17.2301L15.2443 26.7642Z" fill="white"/>
</svg>
