<svg width="50" height="50" viewBox="0 0 50 50" fill="none" xmlns="http://www.w3.org/2000/svg">
<path d="M42.8844 42.338H35.4268V30.7742C35.4268 28.0167 35.3771 24.4669 31.5481 24.4669C27.664 24.4669 27.0697 27.4714 27.0697 30.5735V42.3373H19.6121V18.5573H26.7714V21.8071H26.8716C27.5881 20.5942 28.6234 19.5963 29.8673 18.9199C31.1112 18.2434 32.5171 17.9137 33.9353 17.9658C41.4939 17.9658 42.8875 22.8886 42.8875 29.2928L42.8844 42.338ZM11.1975 15.3068C10.3416 15.3069 9.50477 15.0558 8.79299 14.5851C8.08122 14.1143 7.52644 13.4452 7.19875 12.6622C6.87105 11.8793 6.78517 11.0177 6.95201 10.1865C7.11884 9.35521 7.53089 8.59161 8.13603 7.99222C8.74116 7.39283 9.51221 6.98458 10.3517 6.81909C11.1911 6.6536 12.0613 6.7383 12.8521 7.06249C13.643 7.38668 14.319 7.93579 14.7946 8.64038C15.2703 9.34498 15.5243 10.1734 15.5244 11.0209C15.5245 11.5837 15.4127 12.1409 15.1953 12.6608C14.9779 13.1807 14.6592 13.6532 14.2574 14.0512C13.8557 14.4492 13.3786 14.7649 12.8536 14.9803C12.3285 15.1957 11.7658 15.3067 11.1975 15.3068ZM14.9263 42.338H7.46095V18.5573H14.9263V42.338ZM46.6023 -0.120628H3.71354C2.74009 -0.131505 1.80205 0.240728 1.10563 0.914276C0.409215 1.58782 0.0113922 2.50758 -0.000488281 3.47144V46.1139C0.0109856 47.0783 0.408575 47.9987 1.10497 48.6729C1.80136 49.3471 2.7396 49.7201 3.71354 49.7099H46.6023C47.5782 49.722 48.519 49.3501 49.2182 48.6758C49.9173 48.0016 50.3175 47.0802 50.3311 46.1139V3.46836C50.3171 2.50259 49.9166 1.58179 49.2174 0.908258C48.5183 0.234727 47.5777 -0.136443 46.6023 -0.123706" fill="#248AF0"/>
</svg>
