<svg width="18" height="19" viewBox="0 0 18 19" fill="none" xmlns="http://www.w3.org/2000/svg">
<path d="M3.91775 4.78674C3.99927 4.70763 4.10888 4.66413 4.22247 4.66582C4.33605 4.66751 4.44432 4.71424 4.52345 4.79574C4.60954 4.88619 4.65673 5.0068 4.65488 5.13166C4.65303 5.25652 4.60229 5.37568 4.51355 5.46354C3.3499 6.64118 2.69816 8.23057 2.70005 9.88614C2.70005 11.6771 3.44705 13.2935 4.64765 14.4401C4.6938 14.4831 4.73096 14.5348 4.75701 14.5922C4.78305 14.6496 4.79745 14.7116 4.79937 14.7747C4.8013 14.8377 4.79071 14.9005 4.76822 14.9594C4.74573 15.0183 4.71179 15.0721 4.66835 15.1178C4.59093 15.1978 4.48537 15.2444 4.37411 15.2478C4.26285 15.2512 4.15466 15.211 4.07255 15.1358C3.35433 14.4632 2.782 13.6501 2.39108 12.747C2.00016 11.8439 1.79899 10.8702 1.80005 9.88614C1.80005 7.89354 2.61005 6.08994 3.91775 4.78674ZM13.4866 5.46354C13.3979 5.37556 13.3474 5.25634 13.3457 5.13148C13.344 5.00662 13.3913 4.88608 13.4776 4.79574C13.5567 4.71451 13.6647 4.66795 13.7781 4.66627C13.8915 4.66458 14.0009 4.7079 14.0824 4.78674C14.7543 5.45498 15.2874 6.24959 15.6508 7.12479C16.0143 7.99999 16.201 8.93847 16.2001 9.88614C16.2001 11.9561 15.3271 13.8227 13.9276 15.1358C13.8454 15.211 13.7373 15.2512 13.626 15.2478C13.5147 15.2444 13.4092 15.1978 13.3318 15.1178C13.2885 15.0722 13.2546 15.0184 13.2322 14.9595C13.2098 14.9007 13.1993 14.838 13.2012 14.7751C13.2031 14.7122 13.2175 14.6503 13.2434 14.593C13.2694 14.5356 13.3064 14.484 13.3525 14.441C13.9689 13.8535 14.4594 13.1467 14.7942 12.3637C15.129 11.5807 15.3011 10.7377 15.3001 9.88614C15.3022 8.23025 14.6504 6.6414 13.4866 5.46354ZM5.51885 6.36714C5.59905 6.29076 5.70631 6.24936 5.81704 6.25206C5.92776 6.25476 6.03287 6.30134 6.10925 6.38154C6.29645 6.56874 6.27755 6.87654 6.09305 7.06554C5.35985 7.82139 4.94987 8.8331 4.95005 9.88614C4.95005 11.0471 5.43875 12.0947 6.22265 12.8336C6.42065 13.0199 6.44765 13.3385 6.25415 13.532C6.17998 13.6092 6.07899 13.6548 5.97209 13.6595C5.8652 13.6642 5.7606 13.6276 5.67995 13.5572C5.16681 13.0932 4.75665 12.5268 4.47591 11.8944C4.19517 11.2621 4.0501 10.578 4.05005 9.88614C4.04906 9.23145 4.17843 8.58312 4.4306 7.97895C4.68278 7.37477 5.05272 6.82685 5.51885 6.36714ZM11.9071 7.06554C11.7226 6.87654 11.7037 6.56874 11.8909 6.38154C11.9672 6.30134 12.0723 6.25476 12.1831 6.25206C12.2938 6.24936 12.4011 6.29076 12.4813 6.36714C12.9474 6.82685 13.3173 7.37477 13.5695 7.97895C13.8217 8.58312 13.951 9.23145 13.9501 9.88614C13.9502 10.5781 13.8054 11.2623 13.5248 11.8948C13.2442 12.5273 12.8341 13.0939 12.3211 13.5581C12.2401 13.6288 12.135 13.6654 12.0276 13.6604C11.9203 13.6553 11.8191 13.609 11.7451 13.5311C11.5525 13.3385 11.5795 13.0199 11.7775 12.8336C12.1793 12.455 12.4994 11.9982 12.7183 11.4914C12.9371 10.9845 13.05 10.4382 13.0501 9.88614C13.0502 8.8331 12.6403 7.82139 11.9071 7.06554ZM9.00005 8.76114C8.70168 8.76114 8.41554 8.87967 8.20456 9.09064C7.99358 9.30162 7.87505 9.58777 7.87505 9.88614C7.87505 10.1845 7.99358 10.4707 8.20456 10.6816C8.41554 10.8926 8.70168 11.0111 9.00005 11.0111C9.29842 11.0111 9.58457 10.8926 9.79555 10.6816C10.0065 10.4707 10.1251 10.1845 10.1251 9.88614C10.1251 9.58777 10.0065 9.30162 9.79555 9.09064C9.58457 8.87967 9.29842 8.76114 9.00005 8.76114Z" fill="white"/>
</svg>
