<svg width="24" height="24" viewBox="0 0 24 24" fill="none" xmlns="http://www.w3.org/2000/svg">
<path d="M11.829 11.5609C13.4172 11.5609 14.7923 10.9913 15.9162 9.86735C17.0398 8.74364 17.6096 7.3687 17.6096 5.78026C17.6096 4.19237 17.04 2.81726 15.9161 1.69317C14.7922 0.56964 13.417 0 11.829 0C10.2405 0 8.8656 0.56964 7.74188 1.69336C6.61816 2.81707 6.04834 4.19219 6.04834 5.78026C6.04834 7.3687 6.61816 8.74382 7.74188 9.86753C8.86596 10.9911 10.2411 11.5609 11.829 11.5609ZM8.73651 2.6878C9.59875 1.82556 10.6102 1.40643 11.829 1.40643C13.0475 1.40643 14.0592 1.82556 14.9216 2.6878C15.7839 3.55023 16.2032 4.56188 16.2032 5.78026C16.2032 6.99901 15.7839 8.01048 14.9216 8.87291C14.0592 9.73533 13.0475 10.1545 11.829 10.1545C10.6106 10.1545 9.59911 9.73515 8.73651 8.87291C7.87408 8.01067 7.45477 6.99901 7.45477 5.78026C7.45477 4.56188 7.87408 3.55023 8.73651 2.6878Z" fill="white"/>
<path d="M21.9435 18.4546C21.9111 17.987 21.8455 17.4769 21.749 16.9382C21.6516 16.3954 21.5262 15.8824 21.3761 15.4134C21.2208 14.9288 21.01 14.4501 20.7491 13.9915C20.4787 13.5154 20.1608 13.1008 19.8041 12.7597C19.4311 12.4028 18.9745 12.1159 18.4464 11.9066C17.9201 11.6984 17.3369 11.593 16.7131 11.593C16.4681 11.593 16.2312 11.6935 15.7736 11.9914C15.492 12.175 15.1626 12.3874 14.7949 12.6224C14.4805 12.8227 14.0546 13.0104 13.5285 13.1803C13.0153 13.3464 12.4942 13.4306 11.9797 13.4306C11.4655 13.4306 10.9444 13.3464 10.4308 13.1803C9.90526 13.0106 9.47917 12.8229 9.16533 12.6226C8.80113 12.3898 8.47155 12.1774 8.18572 11.9912C7.7285 11.6933 7.49157 11.5928 7.24657 11.5928C6.62255 11.5928 6.03954 11.6984 5.51348 11.9068C4.98577 12.1157 4.52893 12.4026 4.15557 12.7599C3.79889 13.1012 3.48102 13.5156 3.21075 13.9915C2.95019 14.4501 2.73926 14.9286 2.58398 15.4136C2.43402 15.8826 2.30859 16.3954 2.21118 16.9382C2.1145 17.4761 2.04913 17.9864 2.01672 18.4552C1.98486 18.9135 1.96875 19.3905 1.96875 19.8724C1.96875 21.1252 2.367 22.1394 3.15234 22.8874C3.92797 23.6255 4.9541 23.9998 6.20232 23.9998H17.7585C19.0063 23.9998 20.0324 23.6255 20.8083 22.8874C21.5938 22.14 21.992 21.1254 21.992 19.8722C21.9918 19.3887 21.9755 18.9117 21.9435 18.4546ZM19.8385 21.8684C19.326 22.3562 18.6456 22.5934 17.7583 22.5934H6.20232C5.31481 22.5934 4.63439 22.3562 4.12207 21.8686C3.61944 21.3902 3.37518 20.737 3.37518 19.8724C3.37518 19.4227 3.39001 18.9787 3.41967 18.5524C3.44861 18.1342 3.50775 17.6748 3.59546 17.1866C3.68206 16.7045 3.79229 16.2521 3.9234 15.8425C4.04919 15.4497 4.22076 15.0608 4.43353 14.6862C4.63659 14.3291 4.87023 14.0228 5.12805 13.7759C5.3692 13.545 5.67315 13.3561 6.0313 13.2144C6.36254 13.0832 6.73479 13.0115 7.13891 13.0007C7.18816 13.0269 7.27587 13.0768 7.41796 13.1695C7.70708 13.3579 8.04033 13.5729 8.40874 13.8082C8.82402 14.0729 9.35906 14.3121 9.99828 14.5184C10.6518 14.7297 11.3183 14.837 11.9798 14.837C12.6414 14.837 13.3081 14.7297 13.9612 14.5186C14.601 14.3119 15.1358 14.0729 15.5517 13.8078C15.9287 13.5668 16.2526 13.3581 16.5417 13.1695C16.6838 13.077 16.7715 13.0269 16.8208 13.0007C17.2251 13.0115 17.5973 13.0832 17.9287 13.2144C18.2867 13.3561 18.5907 13.5452 18.8318 13.7759C19.0896 14.0226 19.3233 14.3289 19.5263 14.6863C19.7393 15.0608 19.911 15.4499 20.0366 15.8423C20.1679 16.2524 20.2783 16.7047 20.3648 17.1865C20.4523 17.6755 20.5116 18.1351 20.5406 18.5526V18.553C20.5704 18.9776 20.5854 19.4214 20.5856 19.8724C20.5854 20.7372 20.3412 21.3902 19.8385 21.8684Z" fill="white"/>
</svg>
