<svg width="24" height="24" viewBox="0 0 24 24" fill="none" xmlns="http://www.w3.org/2000/svg">
<g clip-path="url(#clip0_390_3545)">
<path d="M18.8281 0H5.18428C3.9037 0 2.86193 1.04182 2.86193 2.32235C2.86193 19.6584 2.76797 18.7105 3.08894 19.0297C8.20465 24.1453 7.89481 23.8862 8.15317 23.9643C8.31506 24.0133 7.63799 23.9976 18.8281 23.9976C20.1087 23.9976 21.1504 22.9558 21.1504 21.6753V2.32235C21.1504 1.04182 20.1087 0 18.8281 0ZM7.6034 21.3546L5.50491 19.2562H7.6034V21.3546ZM19.6022 21.6753C19.6022 22.1021 19.2549 22.4494 18.8281 22.4494H9.15163V18.482C9.15163 18.0545 8.80507 17.7079 8.37752 17.7079H4.41017V2.32235C4.41017 1.89552 4.75746 1.54823 5.18428 1.54823H18.8281C19.2549 1.54823 19.6022 1.89552 19.6022 2.32235V21.6753ZM17.1347 15.2888C17.1347 15.7163 16.7882 16.0629 16.3606 16.0629H7.6034C7.17585 16.0629 6.82928 15.7163 6.82928 15.2888C6.82928 14.8613 7.17585 14.5147 7.6034 14.5147H16.3606C16.7882 14.5147 17.1347 14.8613 17.1347 15.2888ZM17.1347 11.3215C17.1347 11.749 16.7882 12.0956 16.3606 12.0956H7.6034C7.17585 12.0956 6.82928 11.749 6.82928 11.3215C6.82928 10.894 7.17585 10.5473 7.6034 10.5473H16.3606C16.7882 10.5473 17.1347 10.894 17.1347 11.3215ZM17.1347 19.2562C17.1347 19.6837 16.7882 20.0303 16.3606 20.0303H11.3772C10.9497 20.0303 10.6031 19.6837 10.6031 19.2562C10.6031 18.8287 10.9497 18.482 11.3772 18.482H16.3606C16.7882 18.482 17.1347 18.8287 17.1347 19.2562ZM9.17181 6.71421C8.86947 6.41191 8.86947 5.92175 9.17181 5.61946C9.4741 5.31717 9.96426 5.31717 10.2666 5.61946L11.2935 6.64642L14.5442 3.39581C14.8465 3.09347 15.3366 3.09347 15.6389 3.39581C15.9413 3.6981 15.9413 4.18826 15.6389 4.49056L11.8409 8.28857C11.5387 8.59086 11.0485 8.59091 10.7462 8.28857L9.17181 6.71421Z" fill="white"/>
</g>
<defs>
<clipPath id="clip0_390_3545">
<rect width="24" height="24" fill="white"/>
</clipPath>
</defs>
</svg>
