<svg width="24" height="24" viewBox="0 0 24 24" fill="none" xmlns="http://www.w3.org/2000/svg">
<path fill-rule="evenodd" clip-rule="evenodd" d="M12 24C18.6274 24 24 18.6274 24 12C24 5.37259 18.6274 0 12 0C5.37258 0 0 5.37259 0 12C0 18.6274 5.37258 24 12 24ZM15.7436 5.59011C15.9258 4.94283 15.2977 4.56008 14.724 4.96878L6.71588 10.6737C6.09374 11.117 6.1916 12 6.86288 12H8.97164V11.9837H13.0815L9.73274 13.1653L8.25644 18.4099C8.07422 19.0572 8.7023 19.4399 9.27602 19.0312L17.2842 13.3263C17.9063 12.8831 17.8084 12 17.1372 12H13.9393L15.7436 5.59011Z" fill="white"/>
</svg>
