<svg width="24" height="24" viewBox="0 0 24 24" fill="none" xmlns="http://www.w3.org/2000/svg">
<path d="M3 15.75V8.25C3 7.71957 3.21071 7.21086 3.58579 6.83579C3.96086 6.46071 4.46957 6.25 5 6.25H13.5C14.0304 6.25 14.5391 6.46071 14.9142 6.83579C15.2893 7.21086 15.5 7.71957 15.5 8.25V15.75C15.5 16.2804 15.2893 16.7891 14.9142 17.1642C14.5391 17.5393 14.0304 17.75 13.5 17.75H5C4.46957 17.75 3.96086 17.5393 3.58579 17.1642C3.21071 16.7891 3 16.2804 3 15.75ZM20.168 6.991L16.168 10.554C16.1153 10.6008 16.0731 10.6582 16.0441 10.7225C16.0152 10.7868 16.0001 10.8565 16 10.927V12.705C16.0001 12.7755 16.0152 12.8452 16.0441 12.9095C16.0731 12.9738 16.1153 13.0312 16.168 13.078L20.168 16.641C20.2401 16.705 20.3291 16.7468 20.4244 16.7614C20.5196 16.776 20.6171 16.7627 20.705 16.7232C20.7929 16.6837 20.8675 16.6196 20.9199 16.5386C20.9722 16.4577 21 16.3634 21 16.267V7.365C21 7.26862 20.9722 7.17429 20.9199 7.09335C20.8675 7.01242 20.7929 6.94834 20.705 6.90882C20.6171 6.86931 20.5196 6.85604 20.4244 6.87062C20.3291 6.8852 20.2401 6.927 20.168 6.991Z" stroke="white" stroke-width="1.5" stroke-linecap="round" stroke-linejoin="round"/>
</svg>
