<svg width="24" height="24" viewBox="0 0 24 24" fill="none" xmlns="http://www.w3.org/2000/svg">
<path d="M20.0002 10.999H22.0002C22.0002 5.869 18.1272 2 12.9902 2V4C17.0522 4 20.0002 6.943 20.0002 10.999Z" fill="white"/>
<path d="M13.0003 8.00024C15.1033 8.00024 16.0003 8.89724 16.0003 11.0002H18.0003C18.0003 7.77524 16.2253 6.00024 13.0003 6.00024V8.00024ZM16.4223 13.4432C16.2301 13.2686 15.9776 13.1754 15.7181 13.1835C15.4585 13.1915 15.2123 13.3001 15.0313 13.4862L12.6383 15.9472C12.0623 15.8372 10.9043 15.4762 9.71228 14.2872C8.52028 13.0942 8.15928 11.9332 8.05228 11.3612L10.5113 8.96724C10.6977 8.78637 10.8064 8.54006 10.8144 8.28045C10.8225 8.02083 10.7292 7.76828 10.5543 7.57624L6.85928 3.51324C6.68432 3.3206 6.44116 3.20374 6.18143 3.1875C5.92171 3.17125 5.66588 3.2569 5.46828 3.42624L3.29828 5.28724C3.12539 5.46075 3.0222 5.69169 3.00828 5.93624C2.99328 6.18624 2.70728 12.1082 7.29928 16.7022C11.3053 20.7072 16.3233 21.0002 17.7053 21.0002C17.9073 21.0002 18.0313 20.9942 18.0643 20.9922C18.3088 20.9786 18.5396 20.8749 18.7123 20.7012L20.5723 18.5302C20.7417 18.3328 20.8276 18.077 20.8115 17.8173C20.7954 17.5576 20.6788 17.3143 20.4863 17.1392L16.4223 13.4432Z" fill="white"/>
</svg>
