<svg width="13" height="9" viewBox="0 0 13 9" fill="none" xmlns="http://www.w3.org/2000/svg">
<path d="M6.42042 8.29802C6.29978 8.29872 6.18019 8.2756 6.0685 8.22998C5.95682 8.18436 5.85524 8.11715 5.76958 8.03219L0.269584 2.53219C0.0969723 2.35958 0 2.12546 0 1.88135C0 1.63725 0.0969723 1.40313 0.269584 1.23052C0.442196 1.05791 0.676308 0.960938 0.920417 0.960938C1.16453 0.960938 1.39864 1.05791 1.57125 1.23052L6.42042 6.08886L11.2696 1.23969C11.4449 1.08951 11.6705 1.01104 11.9012 1.01995C12.1319 1.02886 12.3508 1.1245 12.514 1.28776C12.6773 1.45101 12.7729 1.66985 12.7818 1.90056C12.7907 2.13126 12.7123 2.35683 12.5621 2.53219L7.06208 8.03219C6.89135 8.20154 6.6609 8.29701 6.42042 8.29802Z" fill="white" fill-opacity="0.5"/>
</svg>
