<svg width="17" height="21" viewBox="0 0 17 21" fill="none" xmlns="http://www.w3.org/2000/svg">
<path d="M8.25001 0C6.06276 0.00258035 3.96584 0.872603 2.41923 2.41922C0.872611 3.96584 0.00258913 6.06276 8.77716e-06 8.25C-0.00261089 10.0374 0.581244 11.7763 1.66201 13.2C1.66201 13.2 1.88701 13.4963 1.92376 13.539L8.25001 21L14.5793 13.5353C14.6123 13.4955 14.838 13.2 14.838 13.2L14.8388 13.1978C15.919 11.7747 16.5026 10.0366 16.5 8.25C16.4974 6.06276 15.6274 3.96584 14.0808 2.41922C12.5342 0.872603 10.4373 0.00258035 8.25001 0ZM8.25001 11.25C7.65666 11.25 7.07665 11.0741 6.5833 10.7444C6.08995 10.4148 5.70543 9.94623 5.47837 9.39805C5.25131 8.84987 5.1919 8.24667 5.30765 7.66473C5.42341 7.08279 5.70913 6.54824 6.12869 6.12868C6.54825 5.70912 7.08279 5.4234 7.66474 5.30764C8.24668 5.19189 8.84988 5.2513 9.39806 5.47836C9.94624 5.70542 10.4148 6.08994 10.7444 6.58329C11.0741 7.07664 11.25 7.65666 11.25 8.25C11.249 9.04535 10.9326 9.80783 10.3702 10.3702C9.80784 10.9326 9.04535 11.249 8.25001 11.25Z" fill="white"/>
</svg>
