<svg width="167" height="141" viewBox="0 0 167 141" fill="none" xmlns="http://www.w3.org/2000/svg">
<g clip-path="url(#clip0_1678_1869)">
<path d="M94.4983 19.48C96.5417 20.3692 98.4569 21.3545 100.193 22.4045C106.262 26.0732 111.145 31.4144 117.109 35.0941C122.741 38.5686 129.618 39.4132 136.063 39.994C147.296 41.0064 170.726 50.7157 166.495 68.7111C164.956 75.26 159.529 79.7077 156.75 85.6381C153.794 91.9466 154.104 99.8148 149.398 105.284C147.327 107.688 144.469 109.277 141.535 110.48C122.008 118.483 100.079 118.111 79.3731 117.229C63.0302 116.533 36.7811 120.213 22.4261 111.226C15.2992 106.764 19.0053 94.5667 14.0738 88.0154C9.92983 82.5103 4.28991 78.8946 1.51938 72.0037C-3.19537 60.2782 3.52505 45.0191 15.2919 40.8567C22.6449 38.2558 30.4348 37.0641 37.7033 34.2076C45.2126 31.2553 48.106 26.8334 53.8328 21.5997C64.1858 12.1396 81.8063 13.9552 94.4983 19.48Z" fill="white" fill-opacity="0.2"/>
<path d="M112.584 112.775H55.9004V77.2278C55.9004 76.556 56.4335 76.0117 57.0908 76.0117H111.393C112.051 76.0117 112.584 76.556 112.584 77.2278V112.775Z" fill="#D3D3D3"/>
<path d="M57.9746 78.5879H110.509V109.934H57.9746V78.5879Z" fill="#9A9393"/>
<path d="M46.8846 123.357C46.3636 124.041 47.3592 126.081 48.9207 126.081H120.774C122.334 126.081 123.317 124.041 122.72 123.357H46.8846Z" fill="#D3D3D3"/>
<path d="M122.52 122.982C123.117 123.665 122.335 124.218 120.774 124.218H48.9213C47.3599 124.218 46.5169 123.665 47.0379 122.982L54.3942 113.338C54.9153 112.655 56.2787 112.102 57.4403 112.102H110.897C112.058 112.102 113.485 112.655 114.082 113.338C116.894 116.554 119.707 119.767 122.52 122.982Z" fill="#9A9393"/>
<g opacity="0.5">
<path d="M62.996 115.355H60.5692C60.9125 114.845 61.0845 114.59 61.4272 114.079H63.7582L62.996 115.355ZM66.1413 115.355H63.7144C64.0084 114.845 64.1553 114.59 64.4486 114.079H66.7789L66.1413 115.355ZM65.1363 113.835H61.5935L61.9135 113.359H65.4025L65.1363 113.835ZM69.2886 113.836L65.7448 113.835L66.001 113.359H69.49C69.4098 113.55 69.3687 113.645 69.2886 113.836ZM73.4412 113.835H69.8971L70.0888 113.359H73.5795L73.4412 113.835ZM77.5931 113.835H74.0501L74.1773 113.359H77.667C77.6382 113.55 77.6232 113.645 77.5931 113.835ZM81.7461 113.835H78.202L78.2665 113.359H81.7551L81.7461 113.835ZM85.8984 113.835H82.3553V113.359H85.8439C85.866 113.55 85.8757 113.645 85.8984 113.835ZM90.0513 113.835H86.5076L86.4428 113.359H89.9328C89.9795 113.55 90.0036 113.645 90.0513 113.835ZM94.2043 113.835H90.6602L90.532 113.359H94.0209C94.0947 113.55 94.1311 113.645 94.2043 113.835ZM98.3569 113.835H94.8132C94.7354 113.645 94.6969 113.55 94.6194 113.359H98.1101L98.3569 113.835ZM102.509 113.835H98.9655C98.8629 113.645 98.8112 113.55 98.7093 113.359H102.197C102.321 113.55 102.384 113.645 102.509 113.835ZM107.142 113.835H103.118L102.797 113.359H106.76C106.912 113.55 106.989 113.645 107.142 113.835ZM69.2852 115.355H66.859C67.1029 114.845 67.2254 114.59 67.4686 114.08L69.7989 114.079C69.5938 114.59 69.491 114.844 69.2852 115.355ZM72.4298 115.355H70.0033C70.198 114.845 70.2949 114.59 70.49 114.079L72.8203 114.08L72.4298 115.355ZM75.5751 115.355H73.1489C73.2939 114.844 73.3667 114.59 73.511 114.079H75.8413C75.7351 114.59 75.681 114.845 75.5751 115.355ZM78.7197 115.355H76.2935C76.3884 114.845 76.4352 114.589 76.531 114.079H78.862C78.8046 114.59 78.7755 114.845 78.7197 115.355ZM81.8627 115.355H79.4385L79.552 114.079H81.8817C81.8747 114.59 81.871 114.845 81.8627 115.355ZM85.0089 115.355H82.5828L82.5734 114.079H84.9031C84.9458 114.59 84.9669 114.845 85.0089 115.355ZM88.1532 115.355H85.728L85.5951 114.079H87.9238C88.0159 114.59 88.0614 114.845 88.1532 115.355ZM91.2972 115.355H88.8717C88.7691 114.845 88.7173 114.59 88.6141 114.079H90.9445C91.0851 114.59 91.1559 114.845 91.2972 115.355ZM61.9796 117.055H59.4269L60.2833 115.78H62.7418L61.9796 117.055ZM65.2906 117.055H62.7368C63.0307 116.545 63.1777 116.29 63.471 115.78H65.9295C65.6733 116.29 65.5451 116.545 65.2906 117.055ZM68.6002 117.055H66.0464C66.2902 116.545 66.4115 116.29 66.656 115.78H69.1135C68.9081 116.29 68.8049 116.545 68.6002 117.055ZM71.9101 117.055H69.3557C69.5501 116.545 69.6476 116.29 69.8413 115.78H72.3002C72.1439 116.29 72.0658 116.545 71.9101 117.055ZM75.2204 117.055H72.667C72.8119 116.545 72.8837 116.29 73.0284 115.781C74.012 115.781 74.5026 115.78 75.4863 115.78C75.3791 116.29 75.3266 116.545 75.2204 117.055ZM78.529 117.055H75.9756L76.2137 115.78H78.6713C78.6148 116.29 78.5858 116.545 78.529 117.055ZM81.8383 117.055H79.2859L79.4001 115.78H81.8563L81.8383 117.055ZM85.1489 117.055H82.5955L82.5861 115.78H85.0437C85.0854 116.29 85.1075 116.545 85.1489 117.055ZM88.4582 117.055H85.9061C85.8523 116.545 85.8252 116.29 85.7728 115.78H88.229L88.4582 117.055ZM91.7678 117.055H89.215C89.1118 116.545 89.0597 116.29 88.9572 115.78H91.4147L91.7678 117.055ZM60.9643 118.755H58.2833C58.6256 118.245 58.798 117.99 59.141 117.48L61.7265 117.48C61.4215 117.989 61.2686 118.245 60.9643 118.755ZM64.4392 118.755H61.7589L62.492 117.48H65.0782C64.8226 117.989 64.6944 118.245 64.4392 118.755ZM67.9148 118.755H65.2331L65.8427 117.48H68.4282L67.9148 118.755ZM71.3894 118.755H68.7074L69.1934 117.48H71.7795L71.3894 118.755ZM74.864 118.755H72.184C72.3283 118.245 72.4018 117.99 72.5454 117.48H75.1306C75.025 117.989 74.9712 118.245 74.864 118.755ZM78.3383 118.755H75.6579C75.7528 118.245 75.8012 117.99 75.8964 117.48H78.4819L78.3383 118.755ZM81.8126 118.755H79.1335L79.2471 117.48H81.8313C81.8246 117.989 81.8206 118.245 81.8126 118.755ZM85.2898 118.755H82.6085C82.6055 118.245 82.6031 117.99 82.5991 117.48H85.1843C85.2267 117.989 85.2471 118.245 85.2898 118.755ZM88.7641 118.755H86.0848C86.031 118.245 86.0039 117.99 85.9508 117.48H88.535C88.6265 117.989 88.6729 118.245 88.7641 118.755ZM92.238 118.755H89.557C89.4548 118.245 89.4034 117.99 89.3002 117.48H91.8853L92.238 118.755ZM59.9483 120.454H57.1396C57.4823 119.944 57.655 119.689 57.9977 119.18H60.7098C60.4564 119.605 60.2025 120.029 59.9483 120.454ZM63.5889 120.454H60.7809L61.515 119.18H64.2278C63.9723 119.689 63.8437 119.944 63.5889 120.454ZM67.2284 120.454H64.4205C64.6643 119.944 64.7866 119.689 65.0311 119.18H67.7428C67.5374 119.689 67.4349 119.944 67.2284 120.454ZM70.8567 120.494H68.0437C68.2455 119.969 68.345 119.706 68.5454 119.18H71.2592C71.0982 119.705 71.018 119.969 70.8567 120.494ZM92.7096 120.454H71.7007C71.8447 119.944 71.9168 119.689 72.0618 119.18H92.3566L92.7096 120.454ZM77.1803 123.255H93.1175L91.7754 121.083H78.4488L77.1803 123.255ZM94.1428 115.355H91.7167C91.568 114.845 91.4949 114.59 91.3473 114.079H93.6776C93.8636 114.589 93.9558 114.845 94.1428 115.355ZM94.7627 117.055H92.2083C92.061 116.545 91.9875 116.29 91.8396 115.78H94.2985C94.4835 116.29 94.5767 116.545 94.7627 117.055ZM95.3826 118.755H92.7013C92.5533 118.245 92.4805 117.99 92.3326 117.48H94.9181C95.1038 117.989 95.1959 118.245 95.3826 118.755ZM96.0026 120.454H93.1939L92.8245 119.18H95.5373L96.0026 120.454ZM96.9868 115.355H94.5607C94.368 114.845 94.2711 114.59 94.0794 114.079H96.41C96.6402 114.59 96.7561 114.845 96.9868 115.355ZM97.7567 117.055H95.203C95.0102 116.545 94.9134 116.29 94.7217 115.78H97.1796C97.4097 116.29 97.5259 116.545 97.7567 117.055ZM98.5256 118.755H95.8446L95.3626 117.48H97.9481C98.1799 117.989 98.2945 118.245 98.5256 118.755ZM99.2948 120.454H96.4858C96.2941 119.944 96.1973 119.689 96.0056 119.18H98.7176C98.9488 119.689 99.0633 119.944 99.2948 120.454ZM99.8312 115.355H97.4053L96.8115 114.079H99.1425C99.418 114.59 99.5563 114.845 99.8312 115.355ZM100.75 117.055H98.1963L97.6024 115.78H100.061C100.336 116.29 100.475 116.545 100.75 117.055ZM101.669 118.755H98.9878C98.7504 118.245 98.6321 117.99 98.394 117.48H100.98L101.669 118.755ZM102.587 120.454H99.7788C99.5416 119.944 99.4234 119.689 99.1852 119.18H101.898L102.587 120.454ZM102.675 115.355H100.249L99.5443 114.079H101.874C102.196 114.59 102.355 114.845 102.675 115.355ZM103.744 117.055H101.19L100.485 115.78H102.943C103.263 116.29 103.424 116.545 103.744 117.055ZM104.812 118.755H102.131C101.849 118.245 101.709 117.99 101.426 117.48H104.011C104.332 117.989 104.492 118.245 104.812 118.755ZM105.88 120.454H103.072C102.837 120.029 102.602 119.604 102.366 119.18H105.079C105.399 119.689 105.559 119.944 105.88 120.454ZM105.521 115.355H103.094C102.766 114.845 102.603 114.59 102.275 114.079H104.607C104.972 114.59 105.154 114.845 105.521 115.355ZM106.737 117.055H104.184C103.856 116.545 103.693 116.29 103.367 115.78H105.824C106.19 116.29 106.373 116.545 106.737 117.055ZM107.955 118.755H105.273C104.947 118.245 104.784 117.99 104.456 117.48H107.043C107.408 117.989 107.59 118.245 107.955 118.755ZM109.173 120.454H106.363L105.546 119.18H108.26L109.173 120.454ZM108.364 115.355H105.938C105.566 114.845 105.381 114.59 105.008 114.079H107.339C107.749 114.59 107.954 114.845 108.364 115.355ZM109.731 117.055H107.177C106.806 116.545 106.62 116.29 106.248 115.78H108.706L109.731 117.055ZM111.098 118.755H108.417C108.045 118.245 107.86 117.99 107.487 117.48H110.073C110.483 117.989 110.688 118.245 111.098 118.755ZM112.465 120.454H109.656L108.727 119.18H111.44C111.85 119.689 112.054 119.944 112.465 120.454Z" fill="#D3D3D3"/>
</g>
<path d="M97.6942 109.927H72.6816C72.8603 109.199 73.024 108.617 73.1676 108.213C73.242 108.005 73.3445 107.808 73.4722 107.629C73.9154 106.999 74.6743 106.463 75.6519 106.011C76.8189 105.469 78.2959 105.044 79.9151 104.707C81.6355 104.353 83.5123 104.098 85.3396 103.914C85.4632 103.903 85.5854 103.89 85.709 103.879C87.7414 103.689 89.6939 103.584 91.2694 103.534C93.4444 103.458 94.9107 103.474 94.9107 103.474C94.9107 103.474 95.0282 103.662 95.2343 104.037C95.717 104.927 96.6819 106.876 97.6942 109.927Z" fill="#E8E2EE"/>
<path d="M78.5333 69C78.4859 69.3215 78.4024 69.6193 78.2842 69.906L78.355 69.0955C78.4148 69.0593 78.4746 69.0358 78.5333 69Z" fill="#FFE3CA"/>
<path d="M91.7842 67.7978V67.8088C91.7593 67.7978 91.7352 67.7852 91.7236 67.7852C91.7481 67.7855 91.7593 67.7978 91.7842 67.7978Z" fill="#EEBEA7"/>
<path d="M117.453 84.9006C117.453 84.9006 118.998 83.4645 118.692 82.3871C118.432 81.4728 118.824 80.4486 118.922 80.0236C119.054 79.4606 119.107 77.633 119.526 77.7324C120.235 77.9052 120.071 80.8227 120.159 81.4446C120.246 82.0659 122.125 79.9851 122.765 79.8762C123.407 79.765 126.668 83.0794 125.215 84.3594C123.762 85.6368 121.759 86.1552 121.547 86.4312C121.336 86.7072 120.34 87.4654 120.34 87.4654L117.453 84.9006Z" fill="#F1B99E"/>
<path d="M122.354 80.0915C122.354 80.0915 127.064 76.4744 127.579 76.4962C128.096 76.517 128.274 76.7862 127.847 77.1419C127.422 77.4986 123.4 80.7714 123.4 80.7714C123.4 80.7714 129.69 77.4276 130.117 77.3529C130.365 77.3087 130.555 77.787 130.343 77.9996C130.133 78.21 124.28 81.9028 124.28 81.9028C124.28 81.9028 130.158 78.7907 130.532 78.8349C130.861 78.8748 131.095 79.418 130.675 79.6786C130.255 79.9388 124.961 83.1373 124.961 83.1373C124.961 83.1373 129.383 81.1438 129.677 81.3665C129.856 81.5045 130.111 81.8073 128.956 82.2856C127.798 82.7645 125.281 84.2934 125.281 84.2934L122.354 80.0915Z" fill="#F1B99E"/>
<path d="M88.7293 64.6738V64.9954C88.7043 64.9367 88.6812 64.8885 88.6699 64.8289C88.6455 64.8172 88.6455 64.7937 88.6455 64.7807C88.6699 64.7458 88.6933 64.7107 88.7293 64.6738Z" fill="#FFBE55"/>
<path d="M85.1878 66.6287C85.1404 66.6398 85.08 66.6398 85.0332 66.6398V66.6163C85.08 66.6287 85.1404 66.6287 85.1878 66.6287ZM88.7289 64.6738V64.7696C88.7087 64.789 88.6889 64.8087 88.6695 64.8289C88.5389 64.9719 88.3956 65.1025 88.2533 65.2341C88.1935 65.282 88.1464 65.3289 88.0876 65.3768C88.1581 65.3062 88.2413 65.2221 88.3137 65.1508C88.4206 65.0436 88.5268 64.9126 88.6451 64.7807C88.6695 64.7458 88.6928 64.7107 88.7289 64.6738Z" fill="#EEBEA7"/>
<path d="M91.4497 60.5646C90.7964 62.0184 89.9998 63.3293 89.0964 64.3659C88.9785 64.5086 88.8469 64.6512 88.7286 64.7708V64.675C88.6926 64.7115 88.6692 64.747 88.6448 64.7818C88.5266 64.9138 88.4203 65.0448 88.3135 65.1519C88.241 65.2236 88.1578 65.3073 88.0873 65.378C88.0623 65.3904 88.0396 65.4145 88.0159 65.4379C87.9798 65.4734 87.9444 65.5096 87.908 65.5213C87.8144 65.6035 87.7151 65.679 87.6111 65.7474C87.4808 65.8429 87.3622 65.9259 87.232 65.9976C87.201 66.0187 87.1692 66.0387 87.1368 66.0575C87.0169 66.1282 86.8993 66.1882 86.7931 66.2354C86.6862 66.293 86.5744 66.3409 86.4591 66.3787L86.4477 66.3908C86.3529 66.4149 86.2811 66.4504 86.1976 66.4742C86.1732 66.4862 86.1508 66.4983 86.1261 66.4983C86.0439 66.5217 85.9604 66.5452 85.8766 66.5579C85.8536 66.5579 85.8415 66.5693 85.8178 66.5693H85.7814C85.7226 66.582 85.6518 66.5937 85.5924 66.6058C85.5326 66.6172 85.4614 66.6172 85.4023 66.6172C85.3435 66.6296 85.2824 66.6296 85.235 66.6296H85.2236C85.2123 66.6406 85.2003 66.6406 85.1882 66.6296C85.1408 66.6296 85.0803 66.6296 85.0336 66.6172V66.6406C84.9628 66.6406 84.891 66.6296 84.8085 66.6172C84.7246 66.6058 84.6298 66.5937 84.546 66.582C84.4985 66.5693 84.4521 66.5693 84.3913 66.5579C84.3446 66.5452 84.2965 66.5452 84.249 66.5217C83.9999 66.4621 83.7631 66.3667 83.5129 66.2354C83.4349 66.1969 83.3593 66.1535 83.2868 66.1054C82.895 65.879 82.5142 65.5572 82.1218 65.1516C81.9805 65.0096 81.8492 64.8421 81.7066 64.6747C81.1007 63.9121 80.4955 62.9003 79.9364 61.6135C79.7085 61.099 79.4944 60.5783 79.2945 60.0521C79.5911 60.6359 79.0737 55.1902 79.1929 55.3814C77.5774 52.2834 79.1876 54.8331 79.7594 53.2969C83.3349 54.8097 90.2851 57.4194 90.2851 54.7739C90.2851 54.7739 90.4394 56.3825 90.6184 58.0504C90.7607 59.4205 90.9153 60.8392 90.9871 61.3751C90.9868 61.3747 91.1759 61.0767 91.4497 60.5646Z" fill="#F4C7B1"/>
<path d="M85.1878 66.6287C85.1404 66.6398 85.08 66.6398 85.0332 66.6398V66.6163C85.08 66.6287 85.1404 66.6287 85.1878 66.6287ZM88.7289 64.6738V64.7696C88.7087 64.789 88.6889 64.8087 88.6695 64.8289C88.5389 64.9719 88.3956 65.1025 88.2533 65.2341C88.1935 65.282 88.1464 65.3289 88.0876 65.3768C88.1581 65.3062 88.2413 65.2221 88.3137 65.1508C88.4206 65.0436 88.5268 64.9126 88.6451 64.7807C88.6695 64.7458 88.6928 64.7107 88.7289 64.6738Z" fill="#EEBEA7"/>
<path d="M79.2941 60.0518C78.3428 58.1693 76.8104 54.5716 77.084 51.1635V51.1511C76.6568 48.3277 80.1618 43.24 85.5091 43.5019C90.8555 43.24 94.3615 48.3277 93.9333 51.1511V51.1635C94.0986 53.2246 93.5999 55.3452 92.9824 57.1213C93.3745 57.1082 93.7539 57.1561 94.1343 57.2874C96.2619 57.9908 97.2596 60.7669 96.3568 63.4717C95.466 66.1878 93.0058 67.8078 90.8792 67.1052C89.8925 66.7833 89.1437 66.0093 88.7286 64.9959V64.7701C88.8468 64.6509 88.9787 64.5079 89.0963 64.3652C89.9998 63.3287 90.7963 62.0178 91.4497 60.5639C91.1758 61.0763 91.0094 61.706 91.0094 61.706C90.9376 61.1708 90.7599 59.4198 90.6177 58.0497C90.4383 56.3818 90.2843 54.7732 90.2843 54.7732C90.2843 57.4191 83.3341 54.809 79.7587 53.2962L79.2941 60.0518Z" fill="#1A1A1A"/>
<path d="M88.7289 64.6738V64.9954C88.7289 65.2221 88.7176 65.4961 88.7289 65.8058C88.3839 66.2345 88.0395 66.5926 87.6832 66.8662C87.5632 66.9616 87.445 67.0454 87.3268 67.1284C87.237 67.1962 87.1414 67.2559 87.0412 67.3069H87.0299C86.4834 67.6164 85.9363 67.7715 85.4019 67.7835H85.1281C85.0927 67.7835 85.0576 67.7835 85.0332 67.7715V66.6157C85.08 66.6281 85.1404 66.6281 85.1878 66.6281C85.1999 66.6391 85.2119 66.6391 85.2232 66.6281H85.2346C85.2951 66.6391 85.3428 66.6391 85.4019 66.6391C85.4734 66.6391 85.5562 66.6281 85.6274 66.6157C85.7102 66.6043 85.8061 66.5922 85.8896 66.5805C85.9363 66.5678 85.9834 66.5678 86.0439 66.5564C86.0916 66.5437 86.1387 66.5437 86.1865 66.5202C86.436 66.4606 86.6731 66.3652 86.9216 66.2339C86.9941 66.199 87.078 66.1515 87.1481 66.1039C87.4089 65.9609 87.6588 65.7693 87.9083 65.5195C87.9447 65.5078 87.9801 65.4716 88.0162 65.4361C88.0395 65.4127 88.0626 65.3885 88.0876 65.3761C88.1581 65.3055 88.2413 65.2214 88.3137 65.1501C88.4206 65.0429 88.5268 64.912 88.6451 64.78C88.6695 64.7458 88.6928 64.7107 88.7289 64.6738Z" fill="#A5735B"/>
<path d="M85.0342 74.8855V107.139L90.5836 106.901L95.1467 106.699L94.6824 101.063L94.1717 94.7594C93.3795 95.0964 92.591 95.4423 91.8064 95.797C92.0205 93.3065 92.1153 91.0191 91.973 89.1479C91.4146 82.1893 90.5475 76.5182 89.8698 72.8127V72.8006C89.9406 72.0859 89.8455 71.2874 89.6798 70.549C89.6554 70.3966 89.6237 70.2455 89.5849 70.0961C89.5372 69.929 89.5024 69.7746 89.4547 69.6196L89.3468 69.2625C89.3234 69.1791 89.2873 69.0957 89.2646 69.0237C89.1775 68.7322 89.074 68.4458 88.9547 68.166H88.9316C89.0268 68.5954 89.3595 70.0251 89.7746 72.2764V72.2888C89.5028 73.4801 88.6344 74.1473 87.5646 74.5174C87.5532 74.5174 87.5302 74.5284 87.5168 74.5284C86.7813 74.7793 85.9493 74.8741 85.1538 74.8858C85.118 74.8855 85.0703 74.8978 85.0342 74.8855Z" fill="#A652FA"/>
<path d="M97.7122 84.919C97.9977 85.3587 98.4009 86.1692 98.8054 87.0869C98.7466 88.0997 98.6751 88.7065 98.6751 88.7065C98.6751 88.7065 98.2355 89.8623 97.653 91.6742C97.4977 92.126 96.0021 100.133 95.8358 100.658C95.7997 100.753 95.7753 100.86 95.7406 100.956C95.1941 101.229 95.3161 100.752 94.3648 101.135C94.0809 101.253 93.771 101.372 93.45 101.515C93.4026 101.54 93.3438 101.563 93.2593 101.598C93.1644 101.634 93.0696 101.67 92.9744 101.718C92.3425 101.99 91.713 102.268 91.0859 102.552C91.299 100.062 92.116 91.0188 91.9731 89.1479C91.4149 82.1894 90.5482 76.5182 89.8705 72.8127V72.8007C89.8341 72.6221 89.8117 72.4557 89.7757 72.2886V72.2762C89.3598 70.0249 89.0272 68.5954 88.9316 68.1657H92.0095V68.1902C92.8645 68.1302 96.9009 67.5605 99.6581 70.1937C98.1367 69.5382 96.1207 70.1314 95.4443 70.549C95.1706 70.7061 94.9184 70.8983 94.6941 71.1207C94.3496 71.4432 94.0679 71.827 93.8632 72.2527C91.8909 76.3397 96.8802 83.655 97.7122 84.919Z" fill="#C4B3FF"/>
<path d="M97.9363 109.925H90.2891C90.3689 108.948 90.4704 107.935 90.583 106.902C90.6975 105.793 90.8342 104.666 90.9644 103.532C91.0078 103.141 91.0529 102.752 91.0957 102.362C91.0957 102.362 91.0983 102.362 91.1014 102.359C92.0302 102.019 93.2513 100.436 94.59 99.9058C94.6217 99.8947 94.6511 99.8817 94.6832 99.8706C95.0649 99.7397 95.4444 100.8 95.8345 100.658C96.0853 103.321 96.9804 106.795 97.9363 109.925Z" fill="#C4B3FF"/>
<path d="M85.0342 67.7723V74.8852C85.0703 74.8976 85.118 74.8852 85.1541 74.8852C85.9497 74.8735 86.7817 74.7787 87.5171 74.5279C87.5308 74.5279 87.5535 74.5168 87.5649 74.5168C88.6344 74.1467 89.5028 73.4796 89.775 72.2883V72.2759C89.3598 70.0246 89.0275 68.5952 88.932 68.1655H88.7653V67.9394C88.7653 67.7967 88.7529 67.6654 88.7529 67.5341C88.7416 67.1051 88.7416 66.7002 88.7299 66.3067V65.8066C88.3855 66.2353 88.0405 66.5934 87.6845 66.867C87.5744 66.9655 87.4553 67.0533 87.3288 67.1292C87.2387 67.1966 87.1432 67.2563 87.0432 67.3077H87.0318C86.4487 67.6416 85.8785 67.7843 85.3084 67.7843C85.2129 67.7843 85.118 67.7843 85.0342 67.7723Z" fill="#F4C7B1"/>
<path d="M119.123 83.3991L119.398 83.8898L119.406 83.8992L121.553 87.7048L121.885 88.2906C121.885 88.2906 121.234 88.5535 120.211 88.9879C119.279 89.3827 118.042 89.9015 116.701 90.4836C116.329 90.6501 115.956 90.8131 115.581 90.9726C112.973 92.1324 110.228 93.3706 108.854 94.163C105.856 95.8801 103.361 96.48 101.841 96.4485C100.328 96.4083 97.0122 87.4332 96.4942 85.28C95.9691 83.1362 94.0289 79.1859 92.6388 75.4244C92.0506 73.8262 92.2206 72.4159 92.7243 71.2962C93.3943 69.7784 94.6575 68.7974 95.4374 68.6407C95.7448 68.5699 96.06 68.539 96.3753 68.5486C96.8612 68.5506 97.3198 68.644 97.7507 68.8111C101.97 70.4599 103.277 79.2261 103.524 80.7191C103.615 81.2372 103.869 82.106 104.195 83.0545C104.919 85.2733 105.973 87.951 105.973 87.951C108.092 87.0353 108.966 86.7737 109.774 86.5416C110.36 86.3698 110.913 86.2298 111.869 85.8614C112.157 85.7543 112.465 85.6293 112.796 85.5158C113.605 85.222 114.418 84.9376 115.234 84.6628C117.251 83.9869 119.123 83.3991 119.123 83.3991Z" fill="#C4B3FF"/>
<path d="M85.4021 66.6176V67.7734C85.3667 67.7855 85.3433 67.7855 85.3072 67.7855H85.033C84.498 67.7734 83.9509 67.6184 83.4044 67.3089H83.3931C83.2932 67.2574 83.1977 67.1977 83.1075 67.1304C82.9864 67.0465 82.8678 66.9591 82.7518 66.8681C82.3954 66.5945 82.0504 66.2362 81.7061 65.8078C81.7174 65.3433 81.7061 64.9497 81.7061 64.6758C81.8487 64.8432 81.9799 65.0104 82.1212 65.1527C82.5137 65.5583 82.8944 65.8805 83.2862 66.1065C83.3577 66.1541 83.4409 66.202 83.5123 66.2365C83.7625 66.3678 83.9996 66.4632 84.2485 66.5228C84.2959 66.5463 84.3437 66.5463 84.3908 66.559C84.4519 66.5704 84.498 66.5704 84.5454 66.5831C84.6292 66.5949 84.7241 66.6069 84.8079 66.6183C84.8901 66.6307 84.9622 66.6417 85.033 66.6417C85.0798 66.6417 85.1402 66.6417 85.1877 66.6307C85.1997 66.6417 85.2117 66.6417 85.2231 66.6307H85.2344C85.2822 66.63 85.343 66.63 85.4021 66.6176Z" fill="#A5735B"/>
<path d="M85.4022 74.8855V107.139L79.8528 106.901L75.29 106.699L75.7536 101.063L76.2643 94.7594C77.0011 95.0702 77.8331 95.439 78.6297 95.797C78.4149 93.3065 78.3214 91.0191 78.4634 89.1479C79.0215 82.1893 79.8882 76.5182 80.5656 72.8127V72.8006C80.4954 72.0859 80.5906 71.2874 80.7563 70.549C80.7793 70.3929 80.8157 70.2395 80.8518 70.0961C80.8996 69.929 80.9336 69.7746 80.9814 69.6196L81.0893 69.2625C81.1127 69.1791 81.1487 69.0957 81.1721 69.0237C81.2597 68.7324 81.3629 68.4461 81.4814 68.166H81.5044C81.4096 68.5954 81.0763 70.0251 80.6611 72.2764V72.2888C80.9336 73.4801 81.802 74.1473 82.8722 74.5174C82.8835 74.5174 82.9069 74.5284 82.9196 74.5284C83.6551 74.7793 84.4877 74.8741 85.2827 74.8858C85.3181 74.8855 85.3668 74.8978 85.4022 74.8855Z" fill="#A652FA"/>
<path d="M81.5039 68.166C81.409 68.5954 81.0757 70.0251 80.6605 72.2764V72.2888C80.6251 72.4556 80.6011 72.6224 80.5654 72.8009V72.813C79.888 76.5185 79.0213 82.1896 78.4632 89.1482C78.3209 91.0191 78.4147 93.3069 78.6295 95.7973C77.8449 95.4427 77.0564 95.0968 76.2641 94.7598C75.9438 94.6167 75.6338 94.4982 75.3499 94.3796C74.398 93.9978 73.899 93.7235 73.353 93.4492C73.3182 93.3541 73.2935 93.2476 73.2578 93.1522C73.0914 92.6277 72.9375 92.127 72.7832 91.6752C72.2003 89.8636 71.7611 88.7075 71.7611 88.7075C71.7611 88.7075 71.6903 88.1006 71.6309 87.0878C72.0347 86.1698 72.4388 85.3596 72.7244 84.9199C73.5554 83.6559 78.5453 76.3407 76.5727 72.2537C76.3681 71.8279 76.0863 71.4441 75.7417 71.1217C75.5175 70.8995 75.2656 70.7074 74.9922 70.55C74.3165 70.1326 71.6516 70.6049 70.1309 71.2603C72.8877 68.6262 77.572 68.1312 78.4274 68.1911V68.1667H81.5039V68.166ZM80.1462 109.926H72.4986C72.7284 109.174 72.9552 108.402 73.1666 107.628C73.8476 105.174 74.4111 102.683 74.6008 100.659C74.9906 100.801 75.373 100.932 75.7548 101.063C77.1328 101.55 78.3913 102.017 79.3396 102.363C79.4251 103.144 79.5183 103.929 79.6094 104.706C79.6923 105.445 79.7771 106.179 79.8523 106.902C79.9648 107.936 80.066 108.949 80.1462 109.926Z" fill="#C4B3FF"/>
<path d="M85.4026 67.7723V74.8852C85.3672 74.8976 85.3188 74.8852 85.2827 74.8852C84.4878 74.8735 83.6551 74.7787 82.9196 74.5279C82.9073 74.5279 82.8839 74.5168 82.8722 74.5168C81.8021 74.1467 80.9337 73.4796 80.6611 72.2883V72.2759C81.0763 70.0246 81.41 68.5952 81.5045 68.1655H81.6711V67.9394C81.6711 67.7967 81.6835 67.6654 81.6835 67.5341C81.6949 67.1051 81.6949 66.7002 81.7066 66.3067V65.8066C82.0509 66.2353 82.3959 66.5934 82.7523 66.867C82.8722 66.9745 82.9905 67.0576 83.108 67.1292C83.2039 67.2006 83.2987 67.2592 83.3936 67.3077H83.4049C83.9874 67.6416 84.5596 67.7843 85.1284 67.7843C85.2239 67.7843 85.3184 67.7843 85.4026 67.7723Z" fill="#F4C7B1"/>
<path d="M88.6812 99.3122C88.5981 99.8363 88.2537 100.23 88.2537 100.23C88.2537 100.23 88.4554 100.92 87.9925 101.373C87.9925 101.373 88.1468 102.028 87.5409 102.457C87.5409 102.457 87.6836 103.101 87.2076 103.375C87.2076 103.375 86.1736 103.506 85.7948 103.435C84.2585 103.084 82.7256 102.719 81.1963 102.339L82.206 98.0844V98.073C82.6458 97.7753 83.061 97.5003 83.1923 97.4172C83.5132 97.226 84.6068 97.2863 85.734 97.6433C86.8285 97.9893 88.0523 98.4776 88.3963 98.6682C88.575 98.7636 88.752 98.8001 88.6812 99.3122Z" fill="#EEA886"/>
<path d="M82.3367 97.5246L82.2055 98.0731V98.0845L81.1958 102.339L81.0415 102.994C81.0415 102.994 80.3872 102.744 79.3404 102.362C78.3905 102.017 77.132 101.553 75.7536 101.064C75.3732 100.933 74.9921 100.801 74.6016 100.659C71.9039 99.729 69.0516 98.7641 67.5068 98.4067C64.1441 97.62 61.9093 96.3574 60.8165 95.2974C59.736 94.237 63.3953 85.3962 64.4774 83.4658C65.5469 81.5353 66.8051 77.3177 68.3388 73.6125C68.9921 72.0391 70.0726 71.1221 71.2022 70.6458C72.7239 69.99 74.3161 70.1327 74.9917 70.55C75.2652 70.7072 75.5172 70.8994 75.7412 71.1217C76.0859 71.4441 76.3676 71.828 76.5722 72.2537C78.5448 76.3407 73.5549 83.656 72.7239 84.92C72.4383 85.3597 72.0342 86.1702 71.6304 87.0879C70.6561 89.2079 69.6103 91.8889 69.6103 91.8889C71.7843 92.6642 72.604 93.0685 73.3525 93.4493C73.8986 93.7236 74.3976 93.9979 75.3495 94.3797C75.6334 94.4982 75.9433 94.6168 76.2636 94.7598C77.0004 95.0706 77.8324 95.4394 78.629 95.7974C79.8695 96.3632 81.1054 96.9389 82.3367 97.5246Z" fill="#C4B3FF"/>
<path d="M93.532 57.1843L93.4298 52.5156C93.4147 51.7366 93.4298 50.9649 93.3189 50.2425C93.2093 49.5097 93.0109 48.7923 92.7036 48.1282C92.0998 46.7969 91.0864 45.6732 89.8139 44.9605C88.5427 44.2368 87.0641 43.9079 85.5894 43.9139C84.1152 43.9079 82.6335 44.2368 81.3674 44.9605C80.0921 45.6732 79.0791 46.7969 78.4732 48.1282C78.168 48.792 77.9699 49.5097 77.86 50.2425C77.7495 50.9726 77.7605 51.7265 77.7501 52.5156L77.6459 57.1843H77.0624L76.9626 52.5156C76.9532 51.75 76.9181 50.9438 77.021 50.1296C77.1225 49.3231 77.3199 48.5187 77.6463 47.7621C78.2782 46.2359 79.4589 44.9421 80.8874 44.1239C82.3179 43.293 83.9695 42.9185 85.5898 42.9102C87.211 42.9185 88.861 43.293 90.2912 44.1239C91.7207 44.9421 92.8997 46.2359 93.5306 47.7621C93.8566 48.5187 94.0563 49.3231 94.1599 50.1296C94.2614 50.9502 94.2277 51.7423 94.2187 52.5156L94.1175 57.1843H93.532Z" fill="#C4B3FF"/>
<path d="M77.5287 59.7205C76.481 59.7205 76.2168 58.9673 76.2168 58.0369V55.0183C76.2168 54.0889 76.481 53.334 77.5287 53.334H77.7792V59.7205H77.5287Z" fill="#A652FA"/>
<path d="M77.7793 53.334H78.3207V59.7205H77.7793V53.334Z" fill="#9DABB8"/>
<path d="M93.8101 59.7205C94.8588 59.7205 95.125 58.9673 95.125 58.0369V55.0183C95.125 54.0889 94.8588 53.334 93.8101 53.334H93.5596V59.7205H93.8101Z" fill="#A652FA"/>
<path d="M93.0176 53.334H93.5593V59.7205H93.0176V53.334Z" fill="#9DABB8"/>
<path d="M85.9785 65.5406V64.9548C88.3953 64.9548 92.9982 61.5108 92.9982 59.7207H93.581C93.581 61.9868 88.4895 65.5406 85.9785 65.5406Z" fill="#CCE9FF"/>
<path d="M86.3661 66.0641H85.5879C84.9423 66.0641 84.4199 65.699 84.4199 65.2459C84.4199 64.7944 84.9423 64.4297 85.5879 64.4297H86.3661C87.0111 64.4297 87.5338 64.7947 87.5338 65.2459C87.5335 65.699 87.0111 66.0641 86.3661 66.0641Z" fill="#9DABB8"/>
<path d="M65.1374 33.9757V38.6019L65.1097 44.8819L65.0726 52.4671L65.0493 58.0629L59.4898 52.4457L57.7935 52.4396L35.2975 52.3341C31.497 51.5906 28.6289 48.2368 28.6289 44.2154V33.9757C28.6289 29.7279 31.832 26.2197 35.9462 25.7578L58.4952 25.862C62.2807 26.6112 65.1374 29.9587 65.1374 33.9757Z" fill="#9939F9"/>
<path opacity="0.8" d="M58.1244 34.1972C58.1245 34.3567 58.0933 34.5147 58.0325 34.6621C57.9718 34.8095 57.8827 34.9435 57.7703 35.0564C57.6579 35.1693 57.5244 35.2589 57.3775 35.3201C57.2306 35.3812 57.073 35.4128 56.914 35.4129H36.1776C36.0184 35.4129 35.8608 35.3815 35.7137 35.3204C35.5666 35.2593 35.433 35.1697 35.3205 35.0568C35.208 34.9439 35.1187 34.8099 35.0579 34.6624C34.997 34.5149 34.9657 34.3568 34.9658 34.1972C34.9658 34.0376 34.9972 33.8796 35.0581 33.7322C35.119 33.5848 35.2082 33.4509 35.3208 33.3381C35.4333 33.2253 35.5669 33.1358 35.7139 33.0748C35.8609 33.0138 36.0185 32.9824 36.1776 32.9824H56.914C57.582 32.9824 58.1244 33.526 58.1244 34.1972ZM58.1244 38.7212C58.1242 39.0433 57.9967 39.3521 57.7698 39.5801C57.5429 39.8081 57.2351 39.9365 56.914 39.9373H36.1776C35.8562 39.9367 35.5482 39.8083 35.3211 39.5804C35.0939 39.3524 34.9662 39.0435 34.9658 38.7212C34.9658 38.5616 34.9971 38.4036 35.058 38.2561C35.1188 38.1086 35.2081 37.9746 35.3206 37.8617C35.4331 37.7488 35.5667 37.6592 35.7138 37.5981C35.8608 37.537 36.0184 37.5055 36.1776 37.5055H56.914C57.073 37.5056 57.2306 37.5372 57.3775 37.5983C57.5244 37.6595 57.6579 37.7491 57.7703 37.862C57.8827 37.9749 57.9718 38.1089 58.0325 38.2563C58.0933 38.4037 58.1245 38.5617 58.1244 38.7212ZM51.7894 43.2449C51.7894 43.9114 51.245 44.4573 50.5756 44.4573H36.1762C35.8558 44.457 35.5486 44.3291 35.3222 44.1018C35.0957 43.8744 34.9685 43.5663 34.9685 43.2449C34.9685 42.909 35.1004 42.6069 35.3209 42.3862C35.4327 42.2726 35.5659 42.1824 35.7127 42.1208C35.8595 42.0592 36.0171 42.0274 36.1762 42.0272H50.5756C50.8976 42.0275 51.2062 42.156 51.4337 42.3843C51.6613 42.6126 51.7892 42.9221 51.7894 43.2449Z" fill="#CCE9FF"/>
</g>
<defs>
<clipPath id="clip0_1678_1869">
<rect width="167" height="141" fill="white"/>
</clipPath>
</defs>
</svg>
