<svg width="934" height="85" viewBox="0 0 934 85" fill="none" xmlns="http://www.w3.org/2000/svg">
<path d="M13.2734 41.6006H2.07344V12.8806H13.2734C16.3134 12.8806 18.9401 13.4806 21.1534 14.6806C23.3668 15.8806 25.0734 17.5473 26.2734 19.6806C27.4734 21.8139 28.0734 24.2806 28.0734 27.0806C28.0734 29.8539 27.4601 32.3473 26.2334 34.5606C25.0068 36.7473 23.2734 38.4673 21.0334 39.7206C18.8201 40.9739 16.2334 41.6006 13.2734 41.6006ZM9.63344 19.4006V35.0806H12.8334C14.5134 35.0806 15.9001 34.7873 16.9934 34.2006C18.1134 33.6139 18.9401 32.7339 19.4734 31.5606C20.0334 30.3606 20.3134 28.8673 20.3134 27.0806C20.3134 25.3739 20.0334 23.9606 19.4734 22.8406C18.9134 21.6939 18.0734 20.8406 16.9534 20.2806C15.8601 19.6939 14.4868 19.4006 12.8334 19.4006H9.63344ZM41.3153 42.0006C39.7153 42.0006 38.2353 41.7206 36.8753 41.1606C35.5153 40.5739 34.3286 39.7739 33.3153 38.7606C32.302 37.7206 31.502 36.5339 30.9153 35.2006C30.3553 33.8406 30.0753 32.3873 30.0753 30.8406C30.0753 29.2939 30.3553 27.8539 30.9153 26.5206C31.502 25.1606 32.302 23.9739 33.3153 22.9606C34.3286 21.9206 35.5153 21.1206 36.8753 20.5606C38.2353 19.9739 39.7153 19.6806 41.3153 19.6806C42.9153 19.6806 44.3953 19.9739 45.7553 20.5606C47.1153 21.1206 48.302 21.9206 49.3153 22.9606C50.3286 23.9739 51.1153 25.1606 51.6753 26.5206C52.262 27.8539 52.5553 29.2939 52.5553 30.8406C52.5553 32.3873 52.262 33.8406 51.6753 35.2006C51.1153 36.5339 50.3286 37.7206 49.3153 38.7606C48.302 39.7739 47.1153 40.5739 45.7553 41.1606C44.3953 41.7206 42.9153 42.0006 41.3153 42.0006ZM41.3153 35.8806C42.0353 35.8806 42.702 35.6939 43.3153 35.3206C43.9553 34.9473 44.462 34.3873 44.8353 33.6406C45.2353 32.8939 45.4353 31.9606 45.4353 30.8406C45.4353 29.7206 45.2353 28.7873 44.8353 28.0406C44.462 27.2939 43.9553 26.7473 43.3153 26.4006C42.702 26.0273 42.0353 25.8406 41.3153 25.8406C40.622 25.8406 39.9553 26.0273 39.3153 26.4006C38.6753 26.7473 38.1553 27.2939 37.7553 28.0406C37.382 28.7873 37.1953 29.7206 37.1953 30.8406C37.1953 31.9606 37.382 32.8939 37.7553 33.6406C38.1553 34.3873 38.6753 34.9473 39.3153 35.3206C39.9553 35.6939 40.622 35.8806 41.3153 35.8806ZM62.5331 30.2806V41.6006H55.6931V20.0806H61.9731V22.6806C62.8265 21.7473 63.7598 21.0139 64.7731 20.4806C65.8131 19.9473 67.0131 19.6806 68.3731 19.6806C70.5065 19.6806 72.2398 20.3739 73.5731 21.7606C74.9331 23.1473 75.6131 25.1473 75.6131 27.7606V41.6006H68.7731V30.0406C68.7731 28.6806 68.5198 27.6406 68.0131 26.9206C67.5331 26.2006 66.7731 25.8406 65.7331 25.8406C65.1731 25.8406 64.6398 25.9873 64.1331 26.2806C63.6531 26.5739 63.2665 27.0406 62.9731 27.6806C62.6798 28.3206 62.5331 29.1873 62.5331 30.2806ZM89.6319 41.9606C87.4185 41.9606 85.4719 41.4939 83.7919 40.5606C82.1385 39.6273 80.8452 38.3206 79.9119 36.6406C79.0052 34.9606 78.5519 33.0139 78.5519 30.8006C78.5519 28.6406 79.0185 26.7339 79.9519 25.0806C80.9119 23.4006 82.2185 22.0806 83.8719 21.1206C85.5519 20.1606 87.4585 19.6806 89.5919 19.6806C91.3785 19.6806 92.9919 20.0139 94.4319 20.6806C95.8719 21.3473 97.0719 22.2806 98.0319 23.4806C99.0185 24.6539 99.7119 26.0273 100.112 27.6006C100.512 29.1473 100.552 30.8006 100.232 32.5606H82.6719V28.2806H92.9119C92.8852 27.1873 92.5519 26.3206 91.9119 25.6806C91.2719 25.0406 90.4452 24.7206 89.4319 24.7206C88.5519 24.7206 87.8185 24.9473 87.2319 25.4006C86.6719 25.8273 86.2452 26.4939 85.9519 27.4006C85.6585 28.3073 85.5119 29.4539 85.5119 30.8406C85.5119 32.1206 85.6585 33.2006 85.9519 34.0806C86.2452 34.9339 86.6852 35.5739 87.2719 36.0006C87.8585 36.4273 88.5919 36.6406 89.4719 36.6406C90.4319 36.6406 91.2319 36.4406 91.8719 36.0406C92.5119 35.6406 92.9785 35.0539 93.2719 34.2806H100.112C99.4452 36.7339 98.2052 38.6273 96.3919 39.9606C94.5785 41.2939 92.3252 41.9606 89.6319 41.9606ZM125.464 41.6006L119.304 25.0406V41.6006H112.464V12.8806H121.384L128.624 32.3606L135.824 12.8806H144.744V41.6006H137.904V24.8406L131.704 41.6006H125.464ZM162.395 41.6006V39.5206C161.648 40.3739 160.781 41.0006 159.795 41.4006C158.808 41.8006 157.621 42.0006 156.235 42.0006C153.995 42.0006 152.181 41.3873 150.795 40.1606C149.435 38.9073 148.755 37.2673 148.755 35.2406C148.755 33.1339 149.581 31.5339 151.235 30.4406C152.888 29.3206 155.248 28.7606 158.315 28.7606C158.901 28.7606 159.461 28.7873 159.995 28.8406C160.528 28.8673 161.021 28.9206 161.475 29.0006V27.9606C161.475 27.0273 161.208 26.3073 160.675 25.8006C160.168 25.2939 159.435 25.0406 158.475 25.0406C157.541 25.0406 156.795 25.2939 156.235 25.8006C155.701 26.3073 155.368 27.0273 155.235 27.9606H149.075C149.208 26.2806 149.688 24.8273 150.515 23.6006C151.341 22.3473 152.435 21.3873 153.795 20.7206C155.181 20.0273 156.755 19.6806 158.515 19.6806C161.475 19.6806 163.781 20.4406 165.435 21.9606C167.088 23.4806 167.915 25.6006 167.915 28.3206V41.6006H162.395ZM155.195 35.0406C155.195 35.7339 155.421 36.2806 155.875 36.6806C156.355 37.0806 157.008 37.2806 157.835 37.2806C158.981 37.2806 159.875 37.0273 160.515 36.5206C161.155 36.0139 161.475 35.3206 161.475 34.4406V33.0806C160.968 32.9739 160.501 32.9073 160.075 32.8806C159.648 32.8273 159.208 32.8006 158.755 32.8006C157.608 32.8006 156.728 32.9873 156.115 33.3606C155.501 33.7339 155.195 34.2939 155.195 35.0406ZM179.018 41.6006H172.178V12.8806H179.018V28.8006L185.698 20.0806H193.578L185.618 30.2806L194.698 41.6006H185.978L179.018 31.8006V41.6006ZM203.861 41.6006H197.021V20.0806H203.861V41.6006ZM204.781 15.0806C204.781 16.2006 204.368 17.1339 203.541 17.8806C202.741 18.6006 201.688 18.9606 200.381 18.9606C199.075 18.9606 198.008 18.6006 197.181 17.8806C196.381 17.1339 195.981 16.2006 195.981 15.0806C195.981 13.9339 196.381 13.0006 197.181 12.2806C198.008 11.5339 199.075 11.1606 200.381 11.1606C201.688 11.1606 202.741 11.5339 203.541 12.2806C204.368 13.0006 204.781 13.9339 204.781 15.0806ZM215.189 30.2806V41.6006H208.349V20.0806H214.629V22.6806C215.483 21.7473 216.416 21.0139 217.429 20.4806C218.469 19.9473 219.669 19.6806 221.029 19.6806C223.163 19.6806 224.896 20.3739 226.229 21.7606C227.589 23.1473 228.269 25.1473 228.269 27.7606V41.6006H221.429V30.0406C221.429 28.6806 221.176 27.6406 220.669 26.9206C220.189 26.2006 219.429 25.8406 218.389 25.8406C217.829 25.8406 217.296 25.9873 216.789 26.2806C216.309 26.5739 215.923 27.0406 215.629 27.6806C215.336 28.3206 215.189 29.1873 215.189 30.2806ZM242.168 49.7206C240.195 49.7206 238.448 49.3739 236.928 48.6806C235.408 48.0139 234.208 47.0539 233.328 45.8006C232.448 44.5473 231.968 43.0939 231.888 41.4406H238.528C238.661 42.4006 239.021 43.1339 239.608 43.6406C240.221 44.1473 241.061 44.4006 242.128 44.4006C243.408 44.4006 244.368 44.0673 245.008 43.4006C245.675 42.7339 246.008 41.7473 246.008 40.4406V37.9206C245.448 38.7206 244.688 39.3473 243.728 39.8006C242.768 40.2539 241.701 40.4806 240.528 40.4806C238.795 40.4806 237.221 40.0273 235.808 39.1206C234.395 38.1873 233.275 36.9339 232.448 35.3606C231.621 33.7873 231.208 32.0273 231.208 30.0806C231.208 28.0539 231.595 26.2673 232.368 24.7206C233.141 23.1473 234.208 21.9206 235.568 21.0406C236.928 20.1339 238.488 19.6806 240.248 19.6806C241.608 19.6806 242.795 19.8939 243.808 20.3206C244.821 20.7206 245.741 21.3739 246.568 22.2806V20.0806H252.848V40.3606C252.848 43.2673 251.888 45.5473 249.968 47.2006C248.075 48.8806 245.475 49.7206 242.168 49.7206ZM238.128 30.1206C238.128 31.4539 238.475 32.5206 239.168 33.3206C239.861 34.1206 240.781 34.5206 241.928 34.5206C242.728 34.5206 243.421 34.3339 244.008 33.9606C244.621 33.5873 245.088 33.0673 245.408 32.4006C245.755 31.7339 245.928 30.9606 245.928 30.0806C245.928 28.7473 245.555 27.6806 244.808 26.8806C244.088 26.0539 243.128 25.6406 241.928 25.6406C240.781 25.6406 239.861 26.0539 239.168 26.8806C238.475 27.6806 238.128 28.7606 238.128 30.1206ZM291.093 12.8806V30.1606C291.093 32.4806 290.613 34.5473 289.653 36.3606C288.72 38.1739 287.32 39.6006 285.453 40.6406C283.613 41.6806 281.346 42.2006 278.653 42.2006C275.933 42.2006 273.64 41.6806 271.773 40.6406C269.933 39.6006 268.533 38.1739 267.573 36.3606C266.64 34.5473 266.173 32.4806 266.173 30.1606V12.8806H273.733V30.2806C273.733 31.2673 273.88 32.1606 274.173 32.9606C274.466 33.7339 274.96 34.3473 275.653 34.8006C276.373 35.2273 277.373 35.4406 278.653 35.4406C279.933 35.4406 280.92 35.2273 281.613 34.8006C282.333 34.3473 282.826 33.7339 283.093 32.9606C283.386 32.1606 283.533 31.2673 283.533 30.2806V12.8806H291.093ZM318.325 30.8406C318.325 32.9206 317.925 34.8006 317.125 36.4806C316.325 38.1606 315.205 39.5073 313.765 40.5206C312.351 41.5073 310.671 42.0006 308.725 42.0006C307.605 42.0006 306.565 41.8006 305.605 41.4006C304.645 41.0006 303.738 40.4006 302.885 39.6006V49.3206H296.045V20.0806H302.325V22.5206C303.205 21.5873 304.178 20.8806 305.245 20.4006C306.311 19.9206 307.471 19.6806 308.725 19.6806C310.671 19.6806 312.351 20.1873 313.765 21.2006C315.205 22.1873 316.325 23.5339 317.125 25.2406C317.925 26.9206 318.325 28.7873 318.325 30.8406ZM311.205 30.8406C311.205 29.1606 310.778 27.9073 309.925 27.0806C309.071 26.2539 308.125 25.8406 307.085 25.8406C306.391 25.8406 305.725 26.0273 305.085 26.4006C304.445 26.7739 303.925 27.3339 303.525 28.0806C303.151 28.8006 302.965 29.7339 302.965 30.8806C302.965 32.0273 303.165 32.9739 303.565 33.7206C303.965 34.4406 304.471 34.9739 305.085 35.3206C305.725 35.6673 306.391 35.8406 307.085 35.8406C308.125 35.8406 309.071 35.4406 309.925 34.6406C310.778 33.8139 311.205 32.5473 311.205 30.8406ZM320.075 30.8406C320.075 28.7606 320.475 26.8806 321.275 25.2006C322.075 23.4939 323.195 22.1473 324.635 21.1606C326.075 20.1739 327.755 19.6806 329.675 19.6806C330.795 19.6806 331.835 19.8806 332.795 20.2806C333.782 20.6806 334.689 21.2806 335.515 22.0806V12.8806H342.355V41.6006H336.075V39.1606C335.195 40.0673 334.222 40.7739 333.155 41.2806C332.089 41.7606 330.929 42.0006 329.675 42.0006C327.755 42.0006 326.075 41.5073 324.635 40.5206C323.195 39.5073 322.075 38.1606 321.275 36.4806C320.475 34.7739 320.075 32.8939 320.075 30.8406ZM327.195 30.8406C327.195 32.5206 327.622 33.7739 328.475 34.6006C329.329 35.4273 330.275 35.8406 331.315 35.8406C332.035 35.8406 332.702 35.6539 333.315 35.2806C333.955 34.9073 334.462 34.3473 334.835 33.6006C335.235 32.8539 335.435 31.9206 335.435 30.8006C335.435 29.6539 335.235 28.7206 334.835 28.0006C334.435 27.2539 333.915 26.7073 333.275 26.3606C332.662 26.0139 332.009 25.8406 331.315 25.8406C330.275 25.8406 329.329 26.2406 328.475 27.0406C327.622 27.8406 327.195 29.1073 327.195 30.8406ZM359.426 41.6006V39.5206C358.679 40.3739 357.813 41.0006 356.826 41.4006C355.839 41.8006 354.653 42.0006 353.266 42.0006C351.026 42.0006 349.213 41.3873 347.826 40.1606C346.466 38.9073 345.786 37.2673 345.786 35.2406C345.786 33.1339 346.613 31.5339 348.266 30.4406C349.919 29.3206 352.279 28.7606 355.346 28.7606C355.933 28.7606 356.493 28.7873 357.026 28.8406C357.559 28.8673 358.053 28.9206 358.506 29.0006V27.9606C358.506 27.0273 358.239 26.3073 357.706 25.8006C357.199 25.2939 356.466 25.0406 355.506 25.0406C354.573 25.0406 353.826 25.2939 353.266 25.8006C352.733 26.3073 352.399 27.0273 352.266 27.9606H346.106C346.239 26.2806 346.719 24.8273 347.546 23.6006C348.373 22.3473 349.466 21.3873 350.826 20.7206C352.213 20.0273 353.786 19.6806 355.546 19.6806C358.506 19.6806 360.813 20.4406 362.466 21.9606C364.119 23.4806 364.946 25.6006 364.946 28.3206V41.6006H359.426ZM352.226 35.0406C352.226 35.7339 352.453 36.2806 352.906 36.6806C353.386 37.0806 354.039 37.2806 354.866 37.2806C356.013 37.2806 356.906 37.0273 357.546 36.5206C358.186 36.0139 358.506 35.3206 358.506 34.4406V33.0806C357.999 32.9739 357.533 32.9073 357.106 32.8806C356.679 32.8273 356.239 32.8006 355.786 32.8006C354.639 32.8006 353.759 32.9873 353.146 33.3606C352.533 33.7339 352.226 34.2939 352.226 35.0406ZM383.258 34.8806V40.8406C382.511 41.2673 381.751 41.5606 380.978 41.7206C380.205 41.9073 379.338 42.0006 378.378 42.0006C376.778 42.0006 375.405 41.6939 374.258 41.0806C373.111 40.4673 372.231 39.5739 371.618 38.4006C371.005 37.2273 370.698 35.8273 370.698 34.2006V26.0406H366.698V20.0806H370.698V13.7606H377.538V20.0806H383.418V26.0406H377.538V32.6006C377.538 33.6406 377.765 34.4139 378.218 34.9206C378.671 35.4006 379.365 35.6406 380.298 35.6406C380.858 35.6406 381.391 35.5739 381.898 35.4406C382.431 35.3073 382.885 35.1206 383.258 34.8806ZM395.804 41.9606C393.59 41.9606 391.644 41.4939 389.964 40.5606C388.31 39.6273 387.017 38.3206 386.084 36.6406C385.177 34.9606 384.724 33.0139 384.724 30.8006C384.724 28.6406 385.19 26.7339 386.124 25.0806C387.084 23.4006 388.39 22.0806 390.044 21.1206C391.724 20.1606 393.63 19.6806 395.764 19.6806C397.55 19.6806 399.164 20.0139 400.604 20.6806C402.044 21.3473 403.244 22.2806 404.204 23.4806C405.19 24.6539 405.884 26.0273 406.284 27.6006C406.684 29.1473 406.724 30.8006 406.404 32.5606H388.844V28.2806H399.084C399.057 27.1873 398.724 26.3206 398.084 25.6806C397.444 25.0406 396.617 24.7206 395.604 24.7206C394.724 24.7206 393.99 24.9473 393.404 25.4006C392.844 25.8273 392.417 26.4939 392.124 27.4006C391.83 28.3073 391.684 29.4539 391.684 30.8406C391.684 32.1206 391.83 33.2006 392.124 34.0806C392.417 34.9339 392.857 35.5739 393.444 36.0006C394.03 36.4273 394.764 36.6406 395.644 36.6406C396.604 36.6406 397.404 36.4406 398.044 36.0406C398.684 35.6406 399.15 35.0539 399.444 34.2806H406.284C405.617 36.7339 404.377 38.6273 402.564 39.9606C400.75 41.2939 398.497 41.9606 395.804 41.9606ZM428.797 34.2806C428.797 36.6539 427.943 38.5339 426.237 39.9206C424.53 41.3073 422.05 42.0006 418.797 42.0006C415.57 42.0006 413.077 41.2939 411.317 39.8806C409.557 38.4406 408.57 36.4806 408.357 34.0006H414.917C414.917 34.9073 415.29 35.6273 416.037 36.1606C416.783 36.6939 417.743 36.9606 418.917 36.9606C419.69 36.9606 420.37 36.8539 420.957 36.6406C421.57 36.4273 421.877 36.0406 421.877 35.4806C421.877 35.0006 421.69 34.6406 421.317 34.4006C420.97 34.1606 420.423 33.9739 419.677 33.8406L415.437 33.0806C413.57 32.7339 412.077 32.0273 410.957 30.9606C409.837 29.8939 409.277 28.4939 409.277 26.7606C409.277 25.3739 409.65 24.1473 410.397 23.0806C411.143 22.0139 412.197 21.1873 413.557 20.6006C414.943 19.9873 416.57 19.6806 418.437 19.6806C420.33 19.6806 421.997 20.0006 423.437 20.6406C424.877 21.2539 426.023 22.1473 426.877 23.3206C427.757 24.4939 428.263 25.8806 428.397 27.4806H421.837C421.757 26.6273 421.41 25.9606 420.797 25.4806C420.183 24.9739 419.41 24.7206 418.477 24.7206C417.677 24.7206 417.037 24.8406 416.557 25.0806C416.077 25.2939 415.837 25.6406 415.837 26.1206C415.837 26.5739 416.01 26.8939 416.357 27.0806C416.703 27.2673 417.21 27.4273 417.877 27.5606L422.437 28.4006C424.517 28.7739 426.09 29.4673 427.157 30.4806C428.25 31.4673 428.797 32.7339 428.797 34.2806ZM444.899 37.6006C444.899 38.8273 444.473 39.8406 443.619 40.6406C442.766 41.4139 441.686 41.8006 440.379 41.8006C439.073 41.8006 437.979 41.4139 437.099 40.6406C436.246 39.8406 435.819 38.8273 435.819 37.6006C435.819 36.3739 436.246 35.3606 437.099 34.5606C437.953 33.7606 439.046 33.3606 440.379 33.3606C441.713 33.3606 442.793 33.7606 443.619 34.5606C444.473 35.3606 444.899 36.3739 444.899 37.6006ZM436.979 21.4806H430.579C430.659 19.6939 431.166 18.1339 432.099 16.8006C433.059 15.4406 434.326 14.3873 435.899 13.6406C437.499 12.8673 439.286 12.4806 441.259 12.4806C443.233 12.4806 444.979 12.8139 446.499 13.4806C448.019 14.1473 449.206 15.0806 450.059 16.2806C450.913 17.4539 451.339 18.8273 451.339 20.4006C451.339 21.4406 451.019 22.4539 450.379 23.4406C449.766 24.4273 448.886 25.3739 447.739 26.2806L444.619 28.7206C444.033 29.2006 443.593 29.6406 443.299 30.0406C443.033 30.4139 442.886 30.7739 442.859 31.1206C442.833 31.4673 442.886 31.8406 443.019 32.2406H438.659C438.206 31.4406 437.873 30.6939 437.659 30.0006C437.473 29.2806 437.486 28.5873 437.699 27.9206C437.939 27.2273 438.446 26.5606 439.219 25.9206L442.139 23.4806C442.646 23.0539 443.033 22.6539 443.299 22.2806C443.566 21.9073 443.699 21.4539 443.699 20.9206C443.699 20.1739 443.419 19.6006 442.859 19.2006C442.299 18.7739 441.513 18.5606 440.499 18.5606C439.513 18.5606 438.713 18.8273 438.099 19.3606C437.486 19.8939 437.113 20.6006 436.979 21.4806ZM482.846 41.6006H463.206V12.8806H470.766V34.7606H482.846V41.6006ZM495.608 41.9606C493.395 41.9606 491.448 41.4939 489.768 40.5606C488.115 39.6273 486.822 38.3206 485.888 36.6406C484.982 34.9606 484.528 33.0139 484.528 30.8006C484.528 28.6406 484.995 26.7339 485.928 25.0806C486.888 23.4006 488.195 22.0806 489.848 21.1206C491.528 20.1606 493.435 19.6806 495.568 19.6806C497.355 19.6806 498.968 20.0139 500.408 20.6806C501.848 21.3473 503.048 22.2806 504.008 23.4806C504.995 24.6539 505.688 26.0273 506.088 27.6006C506.488 29.1473 506.528 30.8006 506.208 32.5606H488.648V28.2806H498.888C498.862 27.1873 498.528 26.3206 497.888 25.6806C497.248 25.0406 496.422 24.7206 495.408 24.7206C494.528 24.7206 493.795 24.9473 493.208 25.4006C492.648 25.8273 492.222 26.4939 491.928 27.4006C491.635 28.3073 491.488 29.4539 491.488 30.8406C491.488 32.1206 491.635 33.2006 491.928 34.0806C492.222 34.9339 492.662 35.5739 493.248 36.0006C493.835 36.4273 494.568 36.6406 495.448 36.6406C496.408 36.6406 497.208 36.4406 497.848 36.0406C498.488 35.6406 498.955 35.0539 499.248 34.2806H506.088C505.422 36.7339 504.182 38.6273 502.368 39.9606C500.555 41.2939 498.302 41.9606 495.608 41.9606ZM523.766 34.8806V40.8406C523.019 41.2673 522.259 41.5606 521.486 41.7206C520.713 41.9073 519.846 42.0006 518.886 42.0006C517.286 42.0006 515.913 41.6939 514.766 41.0806C513.619 40.4673 512.739 39.5739 512.126 38.4006C511.513 37.2273 511.206 35.8273 511.206 34.2006V26.0406H507.206V20.0806H511.206V13.7606H518.046V20.0806H523.926V26.0406H518.046V32.6006C518.046 33.6406 518.273 34.4139 518.726 34.9206C519.179 35.4006 519.873 35.6406 520.806 35.6406C521.366 35.6406 521.899 35.5739 522.406 35.4406C522.939 35.3073 523.393 35.1206 523.766 34.8806ZM532.542 25.0006H527.182L526.782 12.8806H532.942L532.542 25.0006ZM556.297 34.2806C556.297 36.6539 555.443 38.5339 553.737 39.9206C552.03 41.3073 549.55 42.0006 546.297 42.0006C543.07 42.0006 540.577 41.2939 538.817 39.8806C537.057 38.4406 536.07 36.4806 535.857 34.0006H542.417C542.417 34.9073 542.79 35.6273 543.537 36.1606C544.283 36.6939 545.243 36.9606 546.417 36.9606C547.19 36.9606 547.87 36.8539 548.457 36.6406C549.07 36.4273 549.377 36.0406 549.377 35.4806C549.377 35.0006 549.19 34.6406 548.817 34.4006C548.47 34.1606 547.923 33.9739 547.177 33.8406L542.937 33.0806C541.07 32.7339 539.577 32.0273 538.457 30.9606C537.337 29.8939 536.777 28.4939 536.777 26.7606C536.777 25.3739 537.15 24.1473 537.897 23.0806C538.643 22.0139 539.697 21.1873 541.057 20.6006C542.443 19.9873 544.07 19.6806 545.937 19.6806C547.83 19.6806 549.497 20.0006 550.937 20.6406C552.377 21.2539 553.523 22.1473 554.377 23.3206C555.257 24.4939 555.763 25.8806 555.897 27.4806H549.337C549.257 26.6273 548.91 25.9606 548.297 25.4806C547.683 24.9739 546.91 24.7206 545.977 24.7206C545.177 24.7206 544.537 24.8406 544.057 25.0806C543.577 25.2939 543.337 25.6406 543.337 26.1206C543.337 26.5739 543.51 26.8939 543.857 27.0806C544.203 27.2673 544.71 27.4273 545.377 27.5606L549.937 28.4006C552.017 28.7739 553.59 29.4673 554.657 30.4806C555.75 31.4673 556.297 32.7339 556.297 34.2806Z" fill="white"/>
<rect width="368" height="63.2" transform="translate(566.006 0.600586)" fill="#1A1A1A"/>
<path d="M582.859 41.0806C580.699 41.0806 578.685 40.7339 576.819 40.0406C574.979 39.3206 573.379 38.3073 572.019 37.0006C570.659 35.6939 569.592 34.1606 568.819 32.4006C568.072 30.6406 567.699 28.7073 567.699 26.6006C567.699 24.4939 568.072 22.5606 568.819 20.8006C569.592 19.0406 570.659 17.5073 572.019 16.2006C573.405 14.8939 575.019 13.8939 576.859 13.2006C578.699 12.4806 580.712 12.1206 582.899 12.1206C585.325 12.1206 587.512 12.5473 589.459 13.4006C591.432 14.2273 593.085 15.4539 594.419 17.0806L590.259 20.9206C589.299 19.8273 588.232 19.0139 587.059 18.4806C585.885 17.9206 584.605 17.6406 583.219 17.6406C581.912 17.6406 580.712 17.8539 579.619 18.2806C578.525 18.7073 577.579 19.3206 576.779 20.1206C575.979 20.9206 575.352 21.8673 574.899 22.9606C574.472 24.0539 574.259 25.2673 574.259 26.6006C574.259 27.9339 574.472 29.1473 574.899 30.2406C575.352 31.3339 575.979 32.2806 576.779 33.0806C577.579 33.8806 578.525 34.4939 579.619 34.9206C580.712 35.3473 581.912 35.5606 583.219 35.5606C584.605 35.5606 585.885 35.2939 587.059 34.7606C588.232 34.2006 589.299 33.3606 590.259 32.2406L594.419 36.0806C593.085 37.7073 591.432 38.9473 589.459 39.8006C587.512 40.6539 585.312 41.0806 582.859 41.0806ZM611.435 18.7606C613.141 18.7606 614.661 19.1073 615.995 19.8006C617.355 20.4673 618.421 21.5073 619.195 22.9206C619.968 24.3073 620.355 26.0939 620.355 28.2806V40.6006H614.115V29.2406C614.115 27.5073 613.728 26.2273 612.955 25.4006C612.208 24.5739 611.141 24.1606 609.755 24.1606C608.768 24.1606 607.875 24.3739 607.075 24.8006C606.301 25.2006 605.688 25.8273 605.235 26.6806C604.808 27.5339 604.595 28.6273 604.595 29.9606V40.6006H598.355V10.9206H604.595V25.0406L603.195 23.2406C603.968 21.8006 605.075 20.6939 606.515 19.9206C607.955 19.1473 609.595 18.7606 611.435 18.7606ZM636.847 40.9206C634.394 40.9206 632.234 40.4406 630.367 39.4806C628.527 38.5206 627.1 37.2139 626.087 35.5606C625.074 33.8806 624.567 31.9739 624.567 29.8406C624.567 27.6806 625.06 25.7739 626.047 24.1206C627.06 22.4406 628.434 21.1339 630.167 20.2006C631.9 19.2406 633.86 18.7606 636.047 18.7606C638.154 18.7606 640.047 19.2139 641.727 20.1206C643.434 21.0006 644.78 22.2806 645.767 23.9606C646.754 25.6139 647.247 27.6006 647.247 29.9206C647.247 30.1606 647.234 30.4406 647.207 30.7606C647.18 31.0539 647.154 31.3339 647.127 31.6006H629.647V27.9606H643.847L641.447 29.0406C641.447 27.9206 641.22 26.9473 640.767 26.1206C640.314 25.2939 639.687 24.6539 638.887 24.2006C638.087 23.7206 637.154 23.4806 636.087 23.4806C635.02 23.4806 634.074 23.7206 633.247 24.2006C632.447 24.6539 631.82 25.3073 631.367 26.1606C630.914 26.9873 630.687 27.9739 630.687 29.1206V30.0806C630.687 31.2539 630.94 32.2939 631.447 33.2006C631.98 34.0806 632.714 34.7606 633.647 35.2406C634.607 35.6939 635.727 35.9206 637.007 35.9206C638.154 35.9206 639.154 35.7473 640.007 35.4006C640.887 35.0539 641.687 34.5339 642.407 33.8406L645.727 37.4406C644.74 38.5606 643.5 39.4273 642.007 40.0406C640.514 40.6273 638.794 40.9206 636.847 40.9206ZM661.801 40.9206C659.481 40.9206 657.415 40.4539 655.601 39.5206C653.788 38.5606 652.361 37.2406 651.321 35.5606C650.308 33.8806 649.801 31.9739 649.801 29.8406C649.801 27.6806 650.308 25.7739 651.321 24.1206C652.361 22.4406 653.788 21.1339 655.601 20.2006C657.415 19.2406 659.481 18.7606 661.801 18.7606C664.068 18.7606 666.041 19.2406 667.721 20.2006C669.401 21.1339 670.641 22.4806 671.441 24.2406L666.601 26.8406C666.041 25.8273 665.335 25.0806 664.481 24.6006C663.655 24.1206 662.748 23.8806 661.761 23.8806C660.695 23.8806 659.735 24.1206 658.881 24.6006C658.028 25.0806 657.348 25.7606 656.841 26.6406C656.361 27.5206 656.121 28.5873 656.121 29.8406C656.121 31.0939 656.361 32.1606 656.841 33.0406C657.348 33.9206 658.028 34.6006 658.881 35.0806C659.735 35.5606 660.695 35.8006 661.761 35.8006C662.748 35.8006 663.655 35.5739 664.481 35.1206C665.335 34.6406 666.041 33.8806 666.601 32.8406L671.441 35.4806C670.641 37.2139 669.401 38.5606 667.721 39.5206C666.041 40.4539 664.068 40.9206 661.801 40.9206ZM680.077 36.2006L680.237 28.6006L690.277 19.0806H697.717L688.077 28.8806L684.837 31.5206L680.077 36.2006ZM674.917 40.6006V10.9206H681.157V40.6006H674.917ZM690.957 40.6006L683.677 31.5606L687.597 26.7206L698.517 40.6006H690.957ZM720.051 40.6006V29.1606L721.531 33.0806L709.211 12.6006H716.091L725.531 28.3206H721.571L731.051 12.6006H737.411L725.091 33.0806L726.531 29.1606V40.6006H720.051ZM747.54 40.9206C745.247 40.9206 743.207 40.4406 741.42 39.4806C739.66 38.5206 738.26 37.2139 737.22 35.5606C736.207 33.8806 735.7 31.9739 735.7 29.8406C735.7 27.6806 736.207 25.7739 737.22 24.1206C738.26 22.4406 739.66 21.1339 741.42 20.2006C743.207 19.2406 745.247 18.7606 747.54 18.7606C749.807 18.7606 751.833 19.2406 753.62 20.2006C755.407 21.1339 756.807 22.4273 757.82 24.0806C758.833 25.7339 759.34 27.6539 759.34 29.8406C759.34 31.9739 758.833 33.8806 757.82 35.5606C756.807 37.2139 755.407 38.5206 753.62 39.4806C751.833 40.4406 749.807 40.9206 747.54 40.9206ZM747.54 35.8006C748.58 35.8006 749.513 35.5606 750.34 35.0806C751.167 34.6006 751.82 33.9206 752.3 33.0406C752.78 32.1339 753.02 31.0673 753.02 29.8406C753.02 28.5873 752.78 27.5206 752.3 26.6406C751.82 25.7606 751.167 25.0806 750.34 24.6006C749.513 24.1206 748.58 23.8806 747.54 23.8806C746.5 23.8806 745.567 24.1206 744.74 24.6006C743.913 25.0806 743.247 25.7606 742.74 26.6406C742.26 27.5206 742.02 28.5873 742.02 29.8406C742.02 31.0673 742.26 32.1339 742.74 33.0406C743.247 33.9206 743.913 34.6006 744.74 35.0806C745.567 35.5606 746.5 35.8006 747.54 35.8006ZM772.591 40.9206C770.804 40.9206 769.204 40.5739 767.791 39.8806C766.404 39.1873 765.324 38.1339 764.551 36.7206C763.778 35.2806 763.391 33.4539 763.391 31.2406V19.0806H769.631V30.3206C769.631 32.1073 770.004 33.4273 770.751 34.2806C771.524 35.1073 772.604 35.5206 773.991 35.5206C774.951 35.5206 775.804 35.3206 776.551 34.9206C777.298 34.4939 777.884 33.8539 778.311 33.0006C778.738 32.1206 778.951 31.0273 778.951 29.7206V19.0806H785.191V40.6006H779.271V34.6806L780.351 36.4006C779.631 37.8939 778.564 39.0273 777.151 39.8006C775.764 40.5473 774.244 40.9206 772.591 40.9206ZM790.972 40.6006V19.0806H796.932V25.1606L796.092 23.4006C796.732 21.8806 797.758 20.7339 799.172 19.9606C800.585 19.1606 802.305 18.7606 804.332 18.7606V24.5206C804.065 24.4939 803.825 24.4806 803.612 24.4806C803.398 24.4539 803.172 24.4406 802.932 24.4406C801.225 24.4406 799.838 24.9339 798.772 25.9206C797.732 26.8806 797.212 28.3873 797.212 30.4406V40.6006H790.972ZM829.166 41.0806C826.926 41.0806 824.78 40.7873 822.726 40.2006C820.673 39.5873 819.02 38.8006 817.766 37.8406L819.966 32.9606C821.166 33.8139 822.58 34.5206 824.206 35.0806C825.86 35.6139 827.526 35.8806 829.206 35.8806C830.486 35.8806 831.513 35.7606 832.286 35.5206C833.086 35.2539 833.673 34.8939 834.046 34.4406C834.42 33.9873 834.606 33.4673 834.606 32.8806C834.606 32.1339 834.313 31.5473 833.726 31.1206C833.14 30.6673 832.366 30.3073 831.406 30.0406C830.446 29.7473 829.38 29.4806 828.206 29.2406C827.06 28.9739 825.9 28.6539 824.726 28.2806C823.58 27.9073 822.526 27.4273 821.566 26.8406C820.606 26.2539 819.82 25.4806 819.206 24.5206C818.62 23.5606 818.326 22.3339 818.326 20.8406C818.326 19.2406 818.753 17.7873 819.606 16.4806C820.486 15.1473 821.793 14.0939 823.526 13.3206C825.286 12.5206 827.486 12.1206 830.126 12.1206C831.886 12.1206 833.62 12.3339 835.326 12.7606C837.033 13.1606 838.54 13.7739 839.846 14.6006L837.846 19.5206C836.54 18.7739 835.233 18.2273 833.926 17.8806C832.62 17.5073 831.34 17.3206 830.086 17.3206C828.833 17.3206 827.806 17.4673 827.006 17.7606C826.206 18.0539 825.633 18.4406 825.286 18.9206C824.94 19.3739 824.766 19.9073 824.766 20.5206C824.766 21.2406 825.06 21.8273 825.646 22.2806C826.233 22.7073 827.006 23.0539 827.966 23.3206C828.926 23.5873 829.98 23.8539 831.126 24.1206C832.3 24.3873 833.46 24.6939 834.606 25.0406C835.78 25.3873 836.846 25.8539 837.806 26.4406C838.766 27.0273 839.54 27.8006 840.126 28.7606C840.74 29.7206 841.046 30.9339 841.046 32.4006C841.046 33.9739 840.606 35.4139 839.726 36.7206C838.846 38.0273 837.526 39.0806 835.766 39.8806C834.033 40.6806 831.833 41.0806 829.166 41.0806ZM855.434 40.9206C853.114 40.9206 851.048 40.4539 849.234 39.5206C847.421 38.5606 845.994 37.2406 844.954 35.5606C843.941 33.8806 843.434 31.9739 843.434 29.8406C843.434 27.6806 843.941 25.7739 844.954 24.1206C845.994 22.4406 847.421 21.1339 849.234 20.2006C851.048 19.2406 853.114 18.7606 855.434 18.7606C857.701 18.7606 859.674 19.2406 861.354 20.2006C863.034 21.1339 864.274 22.4806 865.074 24.2406L860.234 26.8406C859.674 25.8273 858.968 25.0806 858.114 24.6006C857.288 24.1206 856.381 23.8806 855.394 23.8806C854.328 23.8806 853.368 24.1206 852.514 24.6006C851.661 25.0806 850.981 25.7606 850.474 26.6406C849.994 27.5206 849.754 28.5873 849.754 29.8406C849.754 31.0939 849.994 32.1606 850.474 33.0406C850.981 33.9206 851.661 34.6006 852.514 35.0806C853.368 35.5606 854.328 35.8006 855.394 35.8006C856.381 35.8006 857.288 35.5739 858.114 35.1206C858.968 34.6406 859.674 33.8806 860.234 32.8406L865.074 35.4806C864.274 37.2139 863.034 38.5606 861.354 39.5206C859.674 40.4539 857.701 40.9206 855.434 40.9206ZM878.634 40.9206C876.34 40.9206 874.3 40.4406 872.514 39.4806C870.754 38.5206 869.354 37.2139 868.314 35.5606C867.3 33.8806 866.794 31.9739 866.794 29.8406C866.794 27.6806 867.3 25.7739 868.314 24.1206C869.354 22.4406 870.754 21.1339 872.514 20.2006C874.3 19.2406 876.34 18.7606 878.634 18.7606C880.9 18.7606 882.927 19.2406 884.714 20.2006C886.5 21.1339 887.9 22.4273 888.914 24.0806C889.927 25.7339 890.434 27.6539 890.434 29.8406C890.434 31.9739 889.927 33.8806 888.914 35.5606C887.9 37.2139 886.5 38.5206 884.714 39.4806C882.927 40.4406 880.9 40.9206 878.634 40.9206ZM878.634 35.8006C879.674 35.8006 880.607 35.5606 881.434 35.0806C882.26 34.6006 882.914 33.9206 883.394 33.0406C883.874 32.1339 884.114 31.0673 884.114 29.8406C884.114 28.5873 883.874 27.5206 883.394 26.6406C882.914 25.7606 882.26 25.0806 881.434 24.6006C880.607 24.1206 879.674 23.8806 878.634 23.8806C877.594 23.8806 876.66 24.1206 875.834 24.6006C875.007 25.0806 874.34 25.7606 873.834 26.6406C873.354 27.5206 873.114 28.5873 873.114 29.8406C873.114 31.0673 873.354 32.1339 873.834 33.0406C874.34 33.9206 875.007 34.6006 875.834 35.0806C876.66 35.5606 877.594 35.8006 878.634 35.8006ZM894.605 40.6006V19.0806H900.565V25.1606L899.725 23.4006C900.365 21.8806 901.391 20.7339 902.805 19.9606C904.218 19.1606 905.938 18.7606 907.965 18.7606V24.5206C907.698 24.4939 907.458 24.4806 907.245 24.4806C907.031 24.4539 906.805 24.4406 906.565 24.4406C904.858 24.4406 903.471 24.9339 902.405 25.9206C901.365 26.8806 900.845 28.3873 900.845 30.4406V40.6006H894.605ZM922.199 40.9206C919.745 40.9206 917.585 40.4406 915.719 39.4806C913.879 38.5206 912.452 37.2139 911.439 35.5606C910.425 33.8806 909.919 31.9739 909.919 29.8406C909.919 27.6806 910.412 25.7739 911.399 24.1206C912.412 22.4406 913.785 21.1339 915.519 20.2006C917.252 19.2406 919.212 18.7606 921.399 18.7606C923.505 18.7606 925.399 19.2139 927.079 20.1206C928.785 21.0006 930.132 22.2806 931.119 23.9606C932.105 25.6139 932.599 27.6006 932.599 29.9206C932.599 30.1606 932.585 30.4406 932.559 30.7606C932.532 31.0539 932.505 31.3339 932.479 31.6006H914.999V27.9606H929.199L926.799 29.0406C926.799 27.9206 926.572 26.9473 926.119 26.1206C925.665 25.2939 925.039 24.6539 924.239 24.2006C923.439 23.7206 922.505 23.4806 921.439 23.4806C920.372 23.4806 919.425 23.7206 918.599 24.2006C917.799 24.6539 917.172 25.3073 916.719 26.1606C916.265 26.9873 916.039 27.9739 916.039 29.1206V30.0806C916.039 31.2539 916.292 32.2939 916.799 33.2006C917.332 34.0806 918.065 34.7606 918.999 35.2406C919.959 35.6939 921.079 35.9206 922.359 35.9206C923.505 35.9206 924.505 35.7473 925.359 35.4006C926.239 35.0539 927.039 34.5339 927.759 33.8406L931.079 37.4406C930.092 38.5606 928.852 39.4273 927.359 40.0406C925.865 40.6273 924.145 40.9206 922.199 40.9206Z" fill="white"/>
<g clip-path="url(#clip0_900_1771)">
<g clip-path="url(#clip1_900_1771)">
<path d="M860.116 58.2477C818.055 58.2003 774.342 57.0377 731.757 57.7495C709.233 58.1291 686.76 59.007 664.366 60.0985C648.685 60.668 632.952 61.9373 617.218 61.795C613.416 61.5695 612.76 59.0782 616.222 58.4257C624.718 57.2868 633.712 56.9783 642.392 56.1597C660.223 54.7005 678.107 53.4311 695.886 51.877C652.303 53.5735 606.231 56.6936 566.006 59.2206C596.083 54.6886 635.652 51.7346 669.794 50.0144C680.572 49.4331 691.375 48.9229 702.179 48.4365C709.547 48.2586 717.047 47.44 724.389 47.9857C727.037 48.3297 729.371 49.9076 727.352 51.0109C724.442 52.399 719.984 52.7786 716.076 53.2769C706.951 54.1904 697.799 54.9853 688.595 55.7326C695.309 55.4479 702.021 55.1988 708.761 55.0208C759.238 53.4904 810.346 53.6921 860.116 58.2359V58.2477Z" fill="#AB5DFA"/>
</g>
</g>
<defs>
<clipPath id="clip0_900_1771">
<rect width="294.11" height="16" fill="white" transform="translate(566.006 47.8008)"/>
</clipPath>
<clipPath id="clip1_900_1771">
<rect width="294.11" height="14.0052" fill="white" transform="translate(566.006 47.8008)"/>
</clipPath>
</defs>
</svg>
