<svg width="39" height="40" viewBox="0 0 39 40" fill="none" xmlns="http://www.w3.org/2000/svg">
<g clip-path="url(#clip0_900_1360)">
<g clip-path="url(#clip1_900_1360)">
<path d="M19.2 39.1998C29.8039 39.1998 38.4 30.6037 38.4 19.9998C38.4 9.39594 29.8039 0.799805 19.2 0.799805C8.59613 0.799805 0 9.39594 0 19.9998C0 30.6037 8.59613 39.1998 19.2 39.1998Z" fill="#653F8A"/>
<path d="M27 11.2002H13C12.2043 11.2002 11.4413 11.5269 10.8786 12.1086C10.316 12.6902 10 13.4791 10 14.3016V24.6399C10 25.4624 10.316 26.2512 10.8786 26.8329C11.4413 27.4145 12.2043 27.7413 13 27.7413H27C27.7956 27.7413 28.5586 27.4145 29.1213 26.8329C29.6839 26.2512 30 25.4624 30 24.6399V14.3016C30 13.4791 29.6839 12.6902 29.1213 12.1086C28.5586 11.5269 27.7956 11.2002 27 11.2002ZM26.33 13.2678L20 18.1785L13.67 13.2678H26.33ZM27 25.6736H13C12.7347 25.6736 12.4804 25.5648 12.2929 25.3708C12.1054 25.177 12 24.914 12 24.6399V14.5601L19.4 20.2978C19.573 20.432 19.7836 20.5046 20 20.5046C20.2163 20.5046 20.4269 20.432 20.6 20.2978L28 14.5601V24.6399C28 24.914 27.8946 25.177 27.707 25.3708C27.5195 25.5648 27.2652 25.6736 27 25.6736Z" fill="white"/>
</g>
</g>
<defs>
<clipPath id="clip0_900_1360">
<rect width="38.4" height="38.4" fill="white" transform="translate(0 0.799805)"/>
</clipPath>
<clipPath id="clip1_900_1360">
<rect width="38.4" height="38.4" fill="white" transform="translate(0 0.799805)"/>
</clipPath>
</defs>
</svg>
