<svg width="40" height="40" viewBox="0 0 40 40" fill="none" xmlns="http://www.w3.org/2000/svg">
<g clip-path="url(#clip0_900_1394)">
<g clip-path="url(#clip1_900_1394)">
<g clip-path="url(#clip2_900_1394)">
<path d="M20.3667 39.6004C31.1813 39.6004 39.9482 30.8252 39.9482 20.0004C39.9482 9.17561 31.1813 0.400391 20.3667 0.400391C9.5521 0.400391 0.785156 9.17561 0.785156 20.0004C0.785156 30.8252 9.5521 39.6004 20.3667 39.6004Z" fill="#653F8A"/>
<path d="M23.7029 16.5069C22.9882 16.5043 22.28 16.6477 21.619 16.9286C20.9579 17.2096 20.3568 17.6226 19.8501 18.1442C19.3435 18.6658 18.9412 19.2857 18.6663 19.9684C18.3914 20.651 18.2492 21.383 18.248 22.1225V27.7962C18.248 28.0265 18.3364 28.2473 18.4938 28.4102C18.6512 28.5731 18.8647 28.6646 19.0872 28.6646H21.0454C21.268 28.6646 21.4814 28.5731 21.6388 28.4102C21.7962 28.2473 21.8846 28.0265 21.8846 27.7962V22.1225C21.8844 21.8596 21.9378 21.5994 22.0413 21.3592C22.1448 21.1189 22.296 20.904 22.4852 20.7282C22.6743 20.5525 22.8972 20.4201 23.1391 20.3394C23.381 20.2588 23.6367 20.2318 23.8894 20.2603C24.3426 20.3194 24.759 20.5485 25.0598 20.9042C25.3606 21.2599 25.5248 21.7175 25.5212 22.1901V27.7962C25.5212 28.0265 25.6096 28.2473 25.767 28.4102C25.9244 28.5731 26.1378 28.6646 26.3604 28.6646H28.3185C28.5411 28.6646 28.7546 28.5731 28.912 28.4102C29.0693 28.2473 29.1577 28.0265 29.1577 27.7962V22.1225C29.1565 21.383 29.0144 20.651 28.7395 19.9684C28.4646 19.2857 28.0623 18.6658 27.5556 18.1442C27.049 17.6226 26.4479 17.2096 25.7868 16.9286C25.1257 16.6477 24.4176 16.5043 23.7029 16.5069Z" fill="white"/>
<path d="M15.7299 17.375H13.2122C12.7488 17.375 12.373 17.7638 12.373 18.2434V27.7959C12.373 28.2755 12.7488 28.6643 13.2122 28.6643H15.7299C16.1934 28.6643 16.5691 28.2755 16.5691 27.7959V18.2434C16.5691 17.7638 16.1934 17.375 15.7299 17.375Z" fill="white"/>
<path d="M14.4711 15.638C15.6298 15.638 16.5691 14.666 16.5691 13.4669C16.5691 12.2679 15.6298 11.2959 14.4711 11.2959C13.3124 11.2959 12.373 12.2679 12.373 13.4669C12.373 14.666 13.3124 15.638 14.4711 15.638Z" fill="white"/>
</g>
</g>
</g>
<defs>
<clipPath id="clip0_900_1394">
<rect width="40" height="39.2" fill="white" transform="translate(0 0.400391)"/>
</clipPath>
<clipPath id="clip1_900_1394">
<rect width="40" height="39.2" fill="white" transform="translate(0 0.400391)"/>
</clipPath>
<clipPath id="clip2_900_1394">
<rect width="40" height="39.2" fill="white" transform="translate(0 0.400391)"/>
</clipPath>
</defs>
</svg>
