<svg width="40" height="40" viewBox="0 0 40 40" fill="none" xmlns="http://www.w3.org/2000/svg">
<g clip-path="url(#clip0_900_1376)">
<g clip-path="url(#clip1_900_1376)">
<g clip-path="url(#clip2_900_1376)">
<path d="M20.3969 39.6004C31.2217 39.6004 39.9969 30.8252 39.9969 20.0004C39.9969 9.17561 31.2217 0.400391 20.3969 0.400391C9.57209 0.400391 0.796875 9.17561 0.796875 20.0004C0.796875 30.8252 9.57209 39.6004 20.3969 39.6004Z" fill="#653F8A"/>
<path d="M26.6384 9.33808C26.259 8.94592 25.7409 8.72248 25.1973 8.72248H15.8973C15.3537 8.72248 14.8357 8.94592 14.4563 9.33808C14.0775 9.72976 13.8673 10.2577 13.8673 10.805V30.034C13.8673 30.5812 14.0775 31.1091 14.4563 31.5008C14.8357 31.893 15.3537 32.1164 15.8973 32.1164H25.1973C25.7409 32.1164 26.259 31.893 26.6384 31.5008C27.0172 31.1091 27.2273 30.5812 27.2273 30.034V10.805C27.2273 10.2577 27.0172 9.72976 26.6384 9.33808ZM14.0503 8.87248C14.543 8.36314 15.2077 8.08008 15.8973 8.08008H25.1973C25.8869 8.08008 26.5517 8.36314 27.0444 8.87248C27.5376 9.38232 27.8173 10.0772 27.8173 10.805V30.034C27.8173 30.7617 27.5376 31.4566 27.0444 31.9664C26.5517 32.4758 25.8869 32.7588 25.1973 32.7588H15.8973C15.2077 32.7588 14.543 32.4758 14.0503 31.9664C13.5571 31.4566 13.2773 30.7617 13.2773 30.034V10.805C13.2773 10.0772 13.5571 9.38232 14.0503 8.87248Z" fill="white"/>
<path d="M26.6384 9.33808L26.2933 9.67184M26.6384 9.33808C26.259 8.94592 25.7409 8.72248 25.1973 8.72248H15.8973C15.3537 8.72248 14.8357 8.94592 14.4563 9.33808C14.0775 9.72976 13.8673 10.2577 13.8673 10.805V30.034C13.8673 30.5812 14.0775 31.1091 14.4563 31.5008C14.8357 31.893 15.3537 32.1164 15.8973 32.1164H25.1973C25.7409 32.1164 26.259 31.893 26.6384 31.5008C27.0172 31.1091 27.2273 30.5812 27.2273 30.034V10.805C27.2273 10.2577 27.0172 9.72976 26.6384 9.33808ZM14.0503 8.87248C14.543 8.36314 15.2077 8.08008 15.8973 8.08008H25.1973C25.8869 8.08008 26.5517 8.36314 27.0444 8.87248C27.5376 9.38232 27.8173 10.0772 27.8173 10.805V30.034C27.8173 30.7617 27.5376 31.4566 27.0444 31.9664C26.5517 32.4758 25.8869 32.7588 25.1973 32.7588H15.8973C15.2077 32.7588 14.543 32.4758 14.0503 31.9664C13.5571 31.4566 13.2773 30.7617 13.2773 30.034V10.805C13.2773 10.0772 13.5571 9.38232 14.0503 8.87248Z" stroke="white" stroke-width="0.96"/>
<path d="M21.2976 29.2313C21.0956 29.4401 20.8251 29.5544 20.5466 29.5544C20.268 29.5544 19.9975 29.4401 19.7955 29.2313C19.593 29.022 19.4766 28.7347 19.4766 28.432C19.4766 28.1293 19.593 27.842 19.7955 27.6326C19.9975 27.4238 20.268 27.3096 20.5466 27.3096C20.8251 27.3096 21.0956 27.4238 21.2976 27.6326C21.5001 27.842 21.6166 28.1293 21.6166 28.432C21.6166 28.7347 21.5001 29.022 21.2976 29.2313Z" fill="white" stroke="white" stroke-width="0.96"/>
</g>
</g>
</g>
<defs>
<clipPath id="clip0_900_1376">
<rect width="40" height="39.2" fill="white" transform="translate(0 0.400391)"/>
</clipPath>
<clipPath id="clip1_900_1376">
<rect width="40" height="39.2" fill="white" transform="translate(0 0.400391)"/>
</clipPath>
<clipPath id="clip2_900_1376">
<rect width="40" height="39.2" fill="white" transform="translate(0 0.400391)"/>
</clipPath>
</defs>
</svg>
