<svg width="40" height="40" viewBox="0 0 40 40" fill="none" xmlns="http://www.w3.org/2000/svg">
<g clip-path="url(#clip0_900_1342)">
<path d="M19.6 39.9998C30.4248 39.9998 39.2 31.2246 39.2 20.3998C39.2 9.57502 30.4248 0.799805 19.6 0.799805C8.77522 0.799805 0 9.57502 0 20.3998C0 31.2246 8.77522 39.9998 19.6 39.9998Z" fill="#AF63FB" fill-opacity="0.5"/>
<path d="M22.8992 24.5947H16.2992C16.0075 24.5947 15.7277 24.7146 15.5215 24.9278C15.3151 25.1411 15.1992 25.4303 15.1992 25.7319C15.1992 26.0335 15.3151 26.3228 15.5215 26.5361C15.7277 26.7494 16.0075 26.8691 16.2992 26.8691H22.8992C23.191 26.8691 23.4708 26.7494 23.6771 26.5361C23.8834 26.3228 23.9992 26.0335 23.9992 25.7319C23.9992 25.4303 23.8834 25.1411 23.6771 24.9278C23.4708 24.7146 23.191 24.5947 22.8992 24.5947Z" fill="white"/>
<path d="M16.2992 22.3203H19.5992C19.891 22.3203 20.1708 22.2005 20.3771 21.9873C20.5834 21.774 20.6992 21.4847 20.6992 21.1831C20.6992 20.8815 20.5834 20.5922 20.3771 20.379C20.1708 20.1657 19.891 20.0459 19.5992 20.0459H16.2992C16.0075 20.0459 15.7277 20.1657 15.5215 20.379C15.3151 20.5922 15.1992 20.8815 15.1992 21.1831C15.1992 21.4847 15.3151 21.774 15.5215 21.9873C15.7277 22.2005 16.0075 22.3203 16.2992 22.3203Z" fill="white"/>
<path d="M28.1148 15.8725L22.1308 9.04929C22.0279 8.93153 21.9024 8.83729 21.7622 8.77262C21.622 8.70799 21.4703 8.67441 21.3168 8.67403H13.6168C13.2513 8.66953 12.8885 8.73949 12.5493 8.87993C12.2099 9.02041 11.9007 9.22857 11.6392 9.49257C11.3777 9.75657 11.169 10.0712 11.0252 10.4186C10.8813 10.7659 10.8051 11.1392 10.8008 11.517V28.575C10.8051 28.9529 10.8813 29.3262 11.0252 29.6735C11.169 30.0209 11.3777 30.3355 11.6392 30.5995C11.9007 30.8635 12.2099 31.0717 12.5493 31.2122C12.8885 31.3526 13.2513 31.4226 13.6168 31.4181H25.5848C25.9502 31.4226 26.313 31.3526 26.6523 31.2122C26.9917 31.0717 27.3009 30.8635 27.5624 30.5995C27.8239 30.3355 28.0325 30.0209 28.1764 29.6735C28.3202 29.3262 28.3965 28.9529 28.4008 28.575V16.6344C28.4001 16.3526 28.2981 16.081 28.1148 15.8725ZM21.8008 12.0856L24.8148 15.4972H22.6148C22.4996 15.4901 22.3869 15.4592 22.2834 15.4065C22.1798 15.3538 22.0875 15.2803 22.0117 15.1904C21.936 15.1004 21.8783 14.9957 21.8421 14.8824C21.8058 14.7691 21.7918 14.6495 21.8008 14.5306V12.0856ZM25.5848 29.1437H13.6168C13.5402 29.1482 13.4635 29.1372 13.391 29.1111C13.3186 29.085 13.2518 29.0444 13.1946 28.9915C13.1374 28.9387 13.0908 28.8747 13.0576 28.8033C13.0243 28.7318 13.005 28.6542 13.0008 28.575V11.517C13.005 11.4378 13.0243 11.3602 13.0576 11.2888C13.0908 11.2174 13.1374 11.1534 13.1946 11.1006C13.2518 11.0477 13.3186 11.0071 13.391 10.981C13.4635 10.9549 13.5402 10.9438 13.6168 10.9484H19.6008V14.5306C19.583 15.3683 19.8865 16.1792 20.445 16.7865C21.0035 17.3937 21.7717 17.7478 22.5818 17.7716H26.2008V28.575C26.1965 28.6542 26.1773 28.7318 26.144 28.8033C26.1108 28.8747 26.0641 28.9387 26.0069 28.9915C25.9497 29.0444 25.8829 29.085 25.8105 29.1111C25.7381 29.1372 25.6613 29.1482 25.5848 29.1437Z" fill="white"/>
</g>
<defs>
<clipPath id="clip0_900_1342">
<rect width="39.2" height="39.2" fill="white" transform="translate(0 0.799805)"/>
</clipPath>
</defs>
</svg>
