<svg width="40" height="40" viewBox="0 0 40 40" fill="none" xmlns="http://www.w3.org/2000/svg">
<g clip-path="url(#clip0_900_1452)">
<g clip-path="url(#clip1_900_1452)">
<g clip-path="url(#clip2_900_1452)">
<path d="M19.6 39.6004C30.4248 39.6004 39.2 30.8252 39.2 20.0004C39.2 9.17561 30.4248 0.400391 19.6 0.400391C8.77522 0.400391 0 9.17561 0 20.0004C0 30.8252 8.77522 39.6004 19.6 39.6004Z" fill="#653F8A"/>
<path d="M31.4187 15.8756L19.3197 10.7754L7.2207 15.8756L19.3197 20.9757L31.4187 15.8756ZM31.4187 15.8756V23.5258" stroke="white" stroke-width="1.6" stroke-linecap="round" stroke-linejoin="round"/>
<path d="M12.0586 17.916V24.8013C12.0586 25.8158 12.8235 26.7887 14.1848 27.5061C15.5463 28.2234 17.3927 28.6264 19.318 28.6264C21.2433 28.6264 23.0898 28.2234 24.4512 27.5061C25.8126 26.7887 26.5775 25.8158 26.5775 24.8013V17.916" stroke="white" stroke-width="1.6" stroke-linecap="round" stroke-linejoin="round"/>
</g>
</g>
</g>
<defs>
<clipPath id="clip0_900_1452">
<rect width="39.2" height="39.2" fill="white" transform="translate(0 0.400391)"/>
</clipPath>
<clipPath id="clip1_900_1452">
<rect width="39.2" height="39.2" fill="white" transform="translate(0 0.400391)"/>
</clipPath>
<clipPath id="clip2_900_1452">
<rect width="39.2" height="39.2" fill="white" transform="translate(0 0.400391)"/>
</clipPath>
</defs>
</svg>
