<svg width="161" height="100" viewBox="0 0 161 100" fill="none" xmlns="http://www.w3.org/2000/svg">
<path d="M80.517 66.6428C82.1253 66.6428 83.6677 66.0235 84.8049 64.9212C85.9421 63.8189 86.581 62.3238 86.581 60.7648H74.4531C74.4531 62.3238 75.092 63.8189 76.2292 64.9212C77.3664 66.0235 78.9088 66.6428 80.517 66.6428ZM77.4851 56.3562C77.4851 56.746 77.3254 57.1198 77.041 57.3954C76.7568 57.671 76.3712 57.8258 75.9691 57.8258C75.567 57.8258 75.1814 57.671 74.8972 57.3954C74.6129 57.1198 74.4531 56.746 74.4531 56.3562C74.4531 55.9665 74.6129 55.5927 74.8972 55.3171C75.1814 55.0415 75.567 54.8867 75.9691 54.8867C76.3712 54.8867 76.7568 55.0415 77.041 55.3171C77.3254 55.5927 77.4851 55.9665 77.4851 56.3562ZM85.065 57.8258C85.467 57.8258 85.8526 57.671 86.1369 57.3954C86.4212 57.1198 86.581 56.746 86.581 56.3562C86.581 55.9665 86.4212 55.5927 86.1369 55.3171C85.8526 55.0415 85.467 54.8867 85.065 54.8867C84.6629 54.8867 84.2773 55.0415 83.993 55.3171C83.7087 55.5927 83.549 55.9665 83.549 56.3562C83.549 56.746 83.7087 57.1198 83.993 57.3954C84.2773 57.671 84.6629 57.8258 85.065 57.8258Z" fill="#8F25F8"/>
<path fill-rule="evenodd" clip-rule="evenodd" d="M95.6769 59.2947C95.6769 67.4109 88.8899 73.9899 80.5172 73.9899C72.1445 73.9899 65.3574 67.4109 65.3574 59.2947C65.3574 51.1786 72.1445 44.5996 80.5172 44.5996C88.8899 44.5996 95.6769 51.1786 95.6769 59.2947ZM92.6449 59.2947C92.6449 62.4126 91.3672 65.4029 89.0928 67.6076C86.8184 69.8123 83.7337 71.0509 80.5172 71.0509C77.3006 71.0509 74.2159 69.8123 71.9415 67.6076C69.6671 65.4029 68.3893 62.4126 68.3893 59.2947C68.3893 56.1768 69.6671 53.1866 71.9415 50.9819C74.2159 48.7772 77.3006 47.5386 80.5172 47.5386C83.7337 47.5386 86.8184 48.7772 89.0928 50.9819C91.3672 53.1866 92.6449 56.1768 92.6449 59.2947Z" fill="#8F25F8"/>
<path d="M56.013 95.2232C55.0956 95.2232 54.2103 95.1112 53.357 94.8872C52.5143 94.6526 51.8263 94.3538 51.293 93.9912L52.333 91.6552C52.8343 91.9752 53.4103 92.2418 54.061 92.4552C54.7223 92.6578 55.3783 92.7592 56.029 92.7592C56.4663 92.7592 56.8183 92.7218 57.085 92.6472C57.3516 92.5618 57.5436 92.4552 57.661 92.3272C57.789 92.1886 57.853 92.0286 57.853 91.8472C57.853 91.5912 57.7356 91.3886 57.501 91.2392C57.2663 91.0898 56.9623 90.9672 56.589 90.8712C56.2156 90.7752 55.7996 90.6792 55.341 90.5832C54.893 90.4872 54.4396 90.3646 53.981 90.2152C53.533 90.0658 53.1223 89.8738 52.749 89.6392C52.3756 89.3938 52.0716 89.0792 51.837 88.6952C51.6023 88.3006 51.485 87.8046 51.485 87.2072C51.485 86.5352 51.6663 85.9272 52.029 85.3832C52.4023 84.8392 52.957 84.4018 53.693 84.0712C54.429 83.7406 55.3463 83.5752 56.445 83.5752C57.181 83.5752 57.901 83.6606 58.605 83.8312C59.3196 83.9912 59.9543 84.2312 60.509 84.5512L59.533 86.9032C58.9996 86.6152 58.4716 86.4018 57.949 86.2632C57.4263 86.1138 56.9196 86.0392 56.429 86.0392C55.9916 86.0392 55.6396 86.0872 55.373 86.1832C55.1063 86.2686 54.9143 86.3858 54.797 86.5352C54.6796 86.6846 54.621 86.8552 54.621 87.0472C54.621 87.2926 54.733 87.4898 54.957 87.6392C55.1916 87.7778 55.4956 87.8952 55.869 87.9912C56.253 88.0766 56.669 88.1672 57.117 88.2632C57.5756 88.3592 58.029 88.4818 58.477 88.6312C58.9356 88.7698 59.3516 88.9618 59.725 89.2072C60.0983 89.4418 60.397 89.7566 60.621 90.1512C60.8556 90.5352 60.973 91.0206 60.973 91.6072C60.973 92.2578 60.7863 92.8606 60.413 93.4152C60.0503 93.9592 59.501 94.3966 58.765 94.7272C58.0396 95.0578 57.1223 95.2232 56.013 95.2232ZM66.1643 95.1432C65.055 95.1432 64.191 94.8712 63.5723 94.3272C62.9537 93.7726 62.6443 92.9406 62.6443 91.8312V84.3912H65.6843V91.7992C65.6843 92.1086 65.7697 92.3538 65.9403 92.5352C66.111 92.7058 66.3297 92.7912 66.5963 92.7912C66.959 92.7912 67.2683 92.7006 67.5243 92.5192L68.2763 94.6472C68.0203 94.8178 67.7057 94.9406 67.3323 95.0152C66.959 95.1006 66.5697 95.1432 66.1643 95.1432ZM61.3803 88.9192V86.6472H67.6683V88.9192H61.3803ZM69.4486 94.9992V86.3272H72.3446V88.8552L71.9126 88.1352C72.1686 87.4846 72.5846 86.9992 73.1606 86.6792C73.7366 86.3486 74.4353 86.1832 75.2566 86.1832V88.9192C75.1179 88.8978 74.9953 88.8872 74.8886 88.8872C74.7926 88.8766 74.6859 88.8712 74.5686 88.8712C73.9499 88.8712 73.4486 89.0418 73.0646 89.3832C72.6806 89.7138 72.4886 90.2578 72.4886 91.0152V94.9992H69.4486ZM80.785 95.1432C79.8356 95.1432 78.993 94.9512 78.257 94.5672C77.521 94.1832 76.9396 93.6552 76.513 92.9832C76.097 92.3006 75.889 91.5218 75.889 90.6472C75.889 89.7726 76.097 88.9992 76.513 88.3272C76.9396 87.6552 77.521 87.1326 78.257 86.7592C78.993 86.3752 79.8356 86.1832 80.785 86.1832C81.7343 86.1832 82.577 86.3752 83.313 86.7592C84.0596 87.1326 84.641 87.6552 85.057 88.3272C85.473 88.9992 85.681 89.7726 85.681 90.6472C85.681 91.5218 85.473 92.3006 85.057 92.9832C84.641 93.6552 84.0596 94.1832 83.313 94.5672C82.577 94.9512 81.7343 95.1432 80.785 95.1432ZM80.785 92.7272C81.137 92.7272 81.4463 92.6472 81.713 92.4872C81.9903 92.3272 82.209 92.0926 82.369 91.7832C82.529 91.4632 82.609 91.0846 82.609 90.6472C82.609 90.2098 82.529 89.8418 82.369 89.5432C82.209 89.2338 81.9903 88.9992 81.713 88.8392C81.4463 88.6792 81.137 88.5992 80.785 88.5992C80.4436 88.5992 80.1343 88.6792 79.857 88.8392C79.5903 88.9992 79.3716 89.2338 79.201 89.5432C79.041 89.8418 78.961 90.2098 78.961 90.6472C78.961 91.0846 79.041 91.4632 79.201 91.7832C79.3716 92.0926 79.5903 92.3272 79.857 92.4872C80.1343 92.6472 80.4436 92.7272 80.785 92.7272ZM92.7372 86.1832C93.4092 86.1832 94.0172 86.3218 94.5612 86.5992C95.1052 86.8658 95.5319 87.2818 95.8412 87.8472C96.1612 88.4126 96.3212 89.1432 96.3212 90.0392V94.9992H93.2812V90.5352C93.2812 89.9166 93.1532 89.4686 92.8972 89.1912C92.6519 88.9032 92.3052 88.7592 91.8572 88.7592C91.5372 88.7592 91.2439 88.8338 90.9772 88.9832C90.7106 89.1218 90.5026 89.3406 90.3532 89.6392C90.2038 89.9378 90.1292 90.3272 90.1292 90.8072V94.9992H87.0892V86.3272H89.9852V88.7912L89.4252 88.0712C89.7559 87.4418 90.2092 86.9726 90.7852 86.6632C91.3612 86.3432 92.0119 86.1832 92.7372 86.1832ZM102.579 98.2472C101.747 98.2472 100.953 98.1512 100.195 97.9592C99.4486 97.7672 98.8086 97.4846 98.2752 97.1112L99.3792 94.9832C99.7419 95.2712 100.19 95.4952 100.723 95.6552C101.267 95.8258 101.795 95.9112 102.307 95.9112C103.129 95.9112 103.721 95.7298 104.083 95.3672C104.446 95.0152 104.627 94.4978 104.627 93.8152V92.7912L104.787 90.3592L104.771 87.9112V86.3272H107.667V93.4152C107.667 95.0578 107.225 96.2738 106.339 97.0632C105.454 97.8526 104.201 98.2472 102.579 98.2472ZM102.051 94.5512C101.283 94.5512 100.574 94.3806 99.9232 94.0392C99.2832 93.6872 98.7659 93.2018 98.3712 92.5832C97.9872 91.9538 97.7952 91.2126 97.7952 90.3592C97.7952 89.5058 97.9872 88.7698 98.3712 88.1512C98.7659 87.5218 99.2832 87.0366 99.9232 86.6952C100.574 86.3538 101.283 86.1832 102.051 86.1832C102.787 86.1832 103.417 86.3326 103.939 86.6312C104.462 86.9192 104.857 87.3726 105.123 87.9912C105.401 88.6098 105.539 89.3992 105.539 90.3592C105.539 91.3192 105.401 92.1086 105.123 92.7272C104.857 93.3458 104.462 93.8046 103.939 94.1032C103.417 94.4018 102.787 94.5512 102.051 94.5512ZM102.771 92.1352C103.134 92.1352 103.454 92.0606 103.731 91.9112C104.019 91.7618 104.243 91.5538 104.403 91.2872C104.574 91.0206 104.659 90.7112 104.659 90.3592C104.659 90.0072 104.574 89.6978 104.403 89.4312C104.243 89.1646 104.019 88.9618 103.731 88.8232C103.454 88.6738 103.134 88.5992 102.771 88.5992C102.409 88.5992 102.083 88.6738 101.795 88.8232C101.507 88.9618 101.278 89.1646 101.107 89.4312C100.947 89.6978 100.867 90.0072 100.867 90.3592C100.867 90.7112 100.947 91.0206 101.107 91.2872C101.278 91.5538 101.507 91.7618 101.795 91.9112C102.083 92.0606 102.409 92.1352 102.771 92.1352Z" fill="#8F25F8"/>
<g clip-path="url(#clip0_900_1724)">
<mask id="path-4-inside-1_900_1724" fill="white">
<path d="M136.725 137.161C105.483 168.403 54.8296 168.403 23.5877 137.161C-7.65424 105.919 -7.65424 55.2658 23.5877 24.0239C54.8296 -7.21809 105.483 -7.21809 136.725 24.0239C167.967 55.2658 167.967 105.919 136.725 137.161Z"/>
</mask>
<path d="M115.512 45.2371C135.038 64.7633 135.038 96.4215 115.512 115.948L157.938 158.374C200.896 115.416 200.896 45.7683 157.938 2.81065L115.512 45.2371ZM44.8009 45.2371C64.3271 25.7108 95.9854 25.7108 115.512 45.2371L157.938 2.81065C114.98 -40.147 45.3322 -40.147 2.3745 2.81065L44.8009 45.2371ZM44.8009 115.948C25.2747 96.4215 25.2747 64.7633 44.8009 45.2371L2.3745 2.81065C-40.5832 45.7683 -40.5832 115.416 2.3745 158.374L44.8009 115.948ZM2.3745 158.374C45.3322 201.332 114.98 201.332 157.938 158.374L115.512 115.948C95.9854 135.474 64.3271 135.474 44.8009 115.948L2.3745 158.374Z" fill="#EEEEEE" mask="url(#path-4-inside-1_900_1724)"/>
</g>
<defs>
<clipPath id="clip0_900_1724">
<rect width="160" height="80" fill="white" transform="translate(0.15625 0.599609)"/>
</clipPath>
</defs>
</svg>
