<svg width="161" height="100" viewBox="0 0 161 100" fill="none" xmlns="http://www.w3.org/2000/svg">
<path d="M59.2433 94.8007L55.6113 83.6007H58.8753L61.9313 93.2967H60.2833L63.4993 83.6007H66.4113L69.4513 93.2967H67.8673L71.0193 83.6007H74.0433L70.4113 94.8007H67.0193L64.4273 86.5607H65.3393L62.6353 94.8007H59.2433ZM78.9378 94.9447C77.9138 94.9447 77.0178 94.7527 76.2498 94.3687C75.4925 93.9741 74.9005 93.4407 74.4738 92.7687C74.0578 92.0861 73.8498 91.3127 73.8498 90.4487C73.8498 89.5847 74.0525 88.8167 74.4578 88.1447C74.8738 87.4621 75.4445 86.9341 76.1698 86.5607C76.8952 86.1767 77.7112 85.9847 78.6178 85.9847C79.4712 85.9847 80.2498 86.1607 80.9538 86.5127C81.6578 86.8541 82.2178 87.3607 82.6338 88.0327C83.0498 88.7047 83.2578 89.5207 83.2578 90.4807C83.2578 90.5873 83.2525 90.7101 83.2418 90.8487C83.2312 90.9874 83.2205 91.1154 83.2098 91.2327H76.3458V89.6327H81.5938L80.4418 90.0807C80.4525 89.6861 80.3778 89.3447 80.2178 89.0567C80.0685 88.7687 79.8552 88.5447 79.5778 88.3847C79.3112 88.2247 78.9965 88.1447 78.6338 88.1447C78.2712 88.1447 77.9512 88.2247 77.6738 88.3847C77.4072 88.5447 77.1992 88.7741 77.0498 89.0727C76.9005 89.3607 76.8258 89.7021 76.8258 90.0967V90.5607C76.8258 90.9874 76.9112 91.3554 77.0818 91.6647C77.2632 91.9741 77.5192 92.2141 77.8498 92.3847C78.1805 92.5447 78.5752 92.6247 79.0338 92.6247C79.4605 92.6247 79.8232 92.5661 80.1218 92.4487C80.4312 92.3207 80.7352 92.1287 81.0338 91.8727L82.6338 93.5367C82.2178 93.9953 81.7058 94.3474 81.0978 94.5927C80.4898 94.8274 79.7698 94.9447 78.9378 94.9447ZM89.7211 94.8007V93.1847L89.5131 92.7847V89.8087C89.5131 89.3287 89.3637 88.9607 89.0651 88.7047C88.7771 88.4381 88.3131 88.3047 87.6731 88.3047C87.2571 88.3047 86.8357 88.3741 86.4091 88.5127C85.9824 88.6407 85.6197 88.8221 85.3211 89.0567L84.2971 86.9927C84.7877 86.6727 85.3744 86.4274 86.0571 86.2567C86.7504 86.0754 87.4384 85.9847 88.1211 85.9847C89.5291 85.9847 90.6171 86.3101 91.3851 86.9607C92.1637 87.6007 92.5531 88.6087 92.5531 89.9847V94.8007H89.7211ZM87.1611 94.9447C86.4677 94.9447 85.8811 94.8274 85.4011 94.5927C84.9211 94.3581 84.5531 94.0381 84.2971 93.6327C84.0517 93.2274 83.9291 92.7741 83.9291 92.2727C83.9291 91.7394 84.0624 91.2807 84.3291 90.8967C84.6064 90.5021 85.0277 90.2034 85.5931 90.0007C86.1584 89.7874 86.8891 89.6807 87.7851 89.6807H89.8331V91.2647H88.2011C87.7104 91.2647 87.3637 91.3447 87.1611 91.5047C86.9691 91.6647 86.8731 91.8781 86.8731 92.1447C86.8731 92.4114 86.9744 92.6247 87.1771 92.7847C87.3797 92.9447 87.6571 93.0247 88.0091 93.0247C88.3397 93.0247 88.6384 92.9447 88.9051 92.7847C89.1824 92.6141 89.3851 92.3581 89.5131 92.0167L89.9291 93.1367C89.7691 93.7341 89.4544 94.1874 88.9851 94.4967C88.5264 94.7954 87.9184 94.9447 87.1611 94.9447ZM97 93.2007L97.08 89.5687L100.616 86.1287H104.216L100.296 90.1767L98.744 91.4247L97 93.2007ZM94.472 94.8007V82.9287H97.512V94.8007H94.472ZM100.84 94.8007L98.184 91.4727L100.072 89.1367L104.52 94.8007H100.84Z" fill="#C58585"/>
<path d="M79.7547 72.4C87.0448 72.4 92.9547 66.4902 92.9547 59.2C92.9547 51.9098 87.0448 46 79.7547 46C72.4645 46 66.5547 51.9098 66.5547 59.2C66.5547 66.4902 72.4645 72.4 79.7547 72.4Z" stroke="#C58585" stroke-width="4" stroke-linecap="round"/>
<path d="M74.4746 55.3068V55.1748" stroke="#C58585" stroke-width="4" stroke-linecap="round"/>
<path d="M85.0371 55.3068V55.1748" stroke="#C58585" stroke-width="4" stroke-linecap="round"/>
<path d="M85.0346 64.4805C84.3746 62.5005 82.6706 60.5205 79.7546 60.5205C76.8385 60.5205 75.1346 62.5005 74.4746 64.4805" stroke="#C58585" stroke-width="4" stroke-linecap="round" stroke-linejoin="round"/>
<g clip-path="url(#clip0_900_1680)">
<mask id="path-6-inside-1_900_1680" fill="white">
<path d="M116.475 9.11147C155.842 29.17 171.495 77.3441 151.437 116.711C131.378 156.078 83.2041 171.731 43.8369 151.673C4.46977 131.614 -11.183 83.44 8.87557 44.0728C28.9341 4.70567 77.1082 -10.9471 116.475 9.11147Z"/>
</mask>
<path d="M35.6058 57.6925C48.1424 33.088 78.2511 23.3051 102.856 35.8417L130.095 -17.6187C75.9652 -45.1992 9.72586 -23.6767 -17.8546 30.4531L35.6058 57.6925ZM57.4566 124.942C32.8522 112.406 23.0692 82.297 35.6058 57.6925L-17.8546 30.4531C-45.4351 84.583 -23.9126 150.822 30.2172 178.403L57.4566 124.942ZM124.706 103.092C112.17 127.696 82.0611 137.479 57.4566 124.942L30.2172 178.403C84.3471 205.983 150.586 184.461 178.167 130.331L124.706 103.092ZM178.167 130.331C205.747 76.2011 184.225 9.96175 130.095 -17.6187L102.856 35.8417C127.46 48.3783 137.243 78.487 124.706 103.092L178.167 130.331Z" fill="#EEEEEE" mask="url(#path-6-inside-1_900_1680)"/>
</g>
<defs>
<clipPath id="clip0_900_1680">
<rect width="160" height="80" fill="white" transform="translate(0.15625 0.400391)"/>
</clipPath>
</defs>
</svg>
