<svg width="1440" height="1100" viewBox="0 0 1440 1100" fill="none" xmlns="http://www.w3.org/2000/svg">
<g clip-path="url(#clip0_271_877)">
<rect width="1440" height="1102" fill="#100919"/>
<mask id="mask0_271_877" style="mask-type:alpha" maskUnits="userSpaceOnUse" x="0" y="-1951" width="1440" height="4752">
<rect y="-1951" width="1440" height="4752" fill="#D9D9D9"/>
</mask>
<g mask="url(#mask0_271_877)">
<g opacity="0.45">
<line opacity="0.8" x1="143.5" y1="992.02" x2="143.5" y2="1234.53" stroke="url(#paint0_linear_271_877)" stroke-opacity="0.8"/>
<line x1="1296.5" y1="452.681" x2="1296.5" y2="662.353" stroke="url(#paint1_linear_271_877)" stroke-opacity="0.8"/>
<line x1="719.5" y1="1036.91" x2="719.5" y2="1149.32" stroke="url(#paint2_linear_271_877)" stroke-opacity="0.8"/>
<line x1="824" y1="1097.11" x2="626" y2="1097.11" stroke="url(#paint3_linear_271_877)" stroke-opacity="0.8"/>
<line x1="538" y1="566.859" x2="340" y2="566.859" stroke="url(#paint4_linear_271_877)" stroke-opacity="0.8"/>
<g opacity="0.2">
<mask id="mask1_271_877" style="mask-type:alpha" maskUnits="userSpaceOnUse" x="-1" y="383" width="1438" height="871">
<rect width="1438" height="870.268" transform="matrix(-1 0 0 1 1437 383.211)" fill="url(#paint5_linear_271_877)"/>
</mask>
<g mask="url(#mask1_271_877)">
<rect width="144" height="144" transform="matrix(-1 0 0 1 1440 381.948)" stroke="white"/>
<rect width="144" height="144" transform="matrix(-1 0 0 1 1296 381.948)" stroke="white"/>
<rect width="144" height="144" transform="matrix(-1 0 0 1 1152 381.948)" stroke="white"/>
<rect width="144" height="144" transform="matrix(-1 0 0 1 1008 381.948)" stroke="white"/>
<rect width="144" height="144" transform="matrix(-1 0 0 1 864 381.948)" stroke="white"/>
<rect width="144" height="144" transform="matrix(-1 0 0 1 720 381.948)" stroke="white"/>
<rect width="144" height="144" transform="matrix(-1 0 0 1 576 381.948)" stroke="white"/>
<rect width="144" height="144" transform="matrix(-1 0 0 1 432 381.948)" stroke="white"/>
<rect width="144" height="144" transform="matrix(-1 0 0 1 288 381.948)" stroke="white"/>
<rect width="144" height="144" transform="matrix(-1 0 0 1 144 381.948)" stroke="white"/>
<rect width="144" height="144" transform="matrix(-1 0 0 1 1440 525.948)" stroke="white"/>
<rect width="144" height="144" transform="matrix(-1 0 0 1 1296 525.948)" stroke="white"/>
<rect width="144" height="144" transform="matrix(-1 0 0 1 1152 525.948)" stroke="white"/>
<rect width="144" height="144" transform="matrix(-1 0 0 1 1008 525.948)" stroke="white"/>
<rect width="144" height="144" transform="matrix(-1 0 0 1 864 525.948)" stroke="white"/>
<rect width="144" height="144" transform="matrix(-1 0 0 1 720 525.948)" stroke="white"/>
<rect width="144" height="144" transform="matrix(-1 0 0 1 576 525.948)" stroke="white"/>
<rect width="144" height="144" transform="matrix(-1 0 0 1 432 525.948)" stroke="white"/>
<rect width="144" height="144" transform="matrix(-1 0 0 1 288 525.948)" stroke="white"/>
<rect width="144" height="144" transform="matrix(-1 0 0 1 144 525.948)" stroke="white"/>
<rect width="144" height="144" transform="matrix(-1 0 0 1 1440 669.948)" stroke="white"/>
<rect width="144" height="144" transform="matrix(-1 0 0 1 1296 669.948)" stroke="white"/>
<rect width="144" height="144" transform="matrix(-1 0 0 1 1152 669.948)" stroke="white"/>
<rect width="144" height="144" transform="matrix(-1 0 0 1 1008 669.948)" stroke="white"/>
<rect width="144" height="144" transform="matrix(-1 0 0 1 864 669.948)" stroke="white"/>
<rect width="144" height="144" transform="matrix(-1 0 0 1 720 669.948)" stroke="white"/>
<rect width="144" height="144" transform="matrix(-1 0 0 1 576 669.948)" stroke="white"/>
<rect width="144" height="144" transform="matrix(-1 0 0 1 432 669.948)" stroke="white"/>
<rect width="144" height="144" transform="matrix(-1 0 0 1 288 669.948)" stroke="white"/>
<rect width="144" height="144" transform="matrix(-1 0 0 1 144 669.948)" stroke="white"/>
<rect width="144" height="144" transform="matrix(-1 0 0 1 1440 813.948)" stroke="white"/>
<rect width="144" height="144" transform="matrix(-1 0 0 1 1296 813.948)" stroke="white"/>
<rect width="144" height="144" transform="matrix(-1 0 0 1 1152 813.948)" stroke="white"/>
<rect width="144" height="144" transform="matrix(-1 0 0 1 1008 813.948)" stroke="white"/>
<rect width="144" height="144" transform="matrix(-1 0 0 1 864 813.948)" stroke="white"/>
<rect width="144" height="144" transform="matrix(-1 0 0 1 720 813.948)" stroke="white"/>
<rect width="144" height="144" transform="matrix(-1 0 0 1 576 813.948)" stroke="white"/>
<rect width="144" height="144" transform="matrix(-1 0 0 1 432 813.948)" stroke="white"/>
<rect width="144" height="144" transform="matrix(-1 0 0 1 288 813.948)" stroke="white"/>
<rect width="144" height="144" transform="matrix(-1 0 0 1 144 813.948)" stroke="white"/>
<rect width="144" height="144" transform="matrix(-1 0 0 1 1440 957.948)" stroke="white"/>
<rect width="144" height="144" transform="matrix(-1 0 0 1 1296 957.948)" stroke="white"/>
<rect width="144" height="144" transform="matrix(-1 0 0 1 1152 957.948)" stroke="white"/>
<rect width="144" height="144" transform="matrix(-1 0 0 1 1008 957.948)" stroke="white"/>
<rect width="144" height="144" transform="matrix(-1 0 0 1 864 957.948)" stroke="white"/>
<rect width="144" height="144" transform="matrix(-1 0 0 1 720 957.948)" stroke="white"/>
<rect width="144" height="144" transform="matrix(-1 0 0 1 576 957.948)" stroke="white"/>
<rect width="144" height="144" transform="matrix(-1 0 0 1 432 957.948)" stroke="white"/>
<rect width="144" height="144" transform="matrix(-1 0 0 1 288 957.948)" stroke="white"/>
<rect width="144" height="144" transform="matrix(-1 0 0 1 144 957.948)" stroke="white"/>
</g>
</g>
</g>
<ellipse opacity="0.17" cx="1234.5" cy="1096.11" rx="359.5" ry="357.693" fill="url(#paint6_radial_271_877)"/>
<ellipse opacity="0.2" cx="1394.5" cy="867.267" rx="359.5" ry="357.693" fill="url(#paint7_radial_271_877)"/>
<ellipse opacity="0.17" cx="46.5" cy="523.005" rx="359.5" ry="357.693" fill="url(#paint8_radial_271_877)"/>
<ellipse opacity="0.2" cx="150.5" cy="345.9" rx="359.5" ry="357.693" fill="url(#paint9_radial_271_877)"/>
<ellipse opacity="0.17" cx="761.5" cy="62.3322" rx="359.5" ry="357.693" fill="url(#paint10_radial_271_877)"/>
<ellipse opacity="0.2" cx="691.5" cy="-163.527" rx="359.5" ry="357.693" fill="url(#paint11_radial_271_877)"/>
</g>
</g>
<defs>
<linearGradient id="paint0_linear_271_877" x1="142.999" y1="1234.53" x2="143" y2="1004.89" gradientUnits="userSpaceOnUse">
<stop stop-color="white" stop-opacity="0"/>
<stop offset="0.515625" stop-color="white" stop-opacity="0.760723"/>
<stop offset="1" stop-color="white" stop-opacity="0"/>
</linearGradient>
<linearGradient id="paint1_linear_271_877" x1="1296" y1="662.353" x2="1296" y2="463.811" gradientUnits="userSpaceOnUse">
<stop stop-color="white" stop-opacity="0"/>
<stop offset="0.515625" stop-color="white" stop-opacity="0.760723"/>
<stop offset="1" stop-color="white" stop-opacity="0"/>
</linearGradient>
<linearGradient id="paint2_linear_271_877" x1="718.999" y1="1149.32" x2="718.999" y2="1042.88" gradientUnits="userSpaceOnUse">
<stop stop-color="white" stop-opacity="0"/>
<stop offset="0.515625" stop-color="white" stop-opacity="0.760723"/>
<stop offset="1" stop-color="white" stop-opacity="0"/>
</linearGradient>
<linearGradient id="paint3_linear_271_877" x1="626" y1="1096.61" x2="813.49" y2="1096.61" gradientUnits="userSpaceOnUse">
<stop stop-color="white" stop-opacity="0"/>
<stop offset="0.515625" stop-color="white" stop-opacity="0.760723"/>
<stop offset="1" stop-color="white" stop-opacity="0"/>
</linearGradient>
<linearGradient id="paint4_linear_271_877" x1="340" y1="566.359" x2="527.49" y2="566.359" gradientUnits="userSpaceOnUse">
<stop stop-color="white" stop-opacity="0"/>
<stop offset="0.515625" stop-color="white" stop-opacity="0.760723"/>
<stop offset="1" stop-color="white" stop-opacity="0"/>
</linearGradient>
<linearGradient id="paint5_linear_271_877" x1="623" y1="15.7736" x2="765.315" y2="845.869" gradientUnits="userSpaceOnUse">
<stop stop-color="white" stop-opacity="0"/>
<stop offset="0.458333" stop-color="white" stop-opacity="0.71"/>
<stop offset="1" stop-color="#D9D9D9" stop-opacity="0"/>
</linearGradient>
<radialGradient id="paint6_radial_271_877" cx="0" cy="0" r="1" gradientUnits="userSpaceOnUse" gradientTransform="translate(1234.5 1096.11) rotate(90) scale(357.693 359.5)">
<stop stop-color="#821DB6"/>
<stop offset="1" stop-color="#252D47" stop-opacity="0"/>
</radialGradient>
<radialGradient id="paint7_radial_271_877" cx="0" cy="0" r="1" gradientUnits="userSpaceOnUse" gradientTransform="translate(1394.5 867.267) rotate(90) scale(357.693 359.5)">
<stop stop-color="#5A5BED"/>
<stop offset="1" stop-color="#252D47" stop-opacity="0"/>
</radialGradient>
<radialGradient id="paint8_radial_271_877" cx="0" cy="0" r="1" gradientUnits="userSpaceOnUse" gradientTransform="translate(46.5 523.005) rotate(90) scale(357.693 359.5)">
<stop stop-color="#821DB6"/>
<stop offset="1" stop-color="#252D47" stop-opacity="0"/>
</radialGradient>
<radialGradient id="paint9_radial_271_877" cx="0" cy="0" r="1" gradientUnits="userSpaceOnUse" gradientTransform="translate(150.5 345.9) rotate(90) scale(357.693 359.5)">
<stop stop-color="#5A5BED"/>
<stop offset="1" stop-color="#252D47" stop-opacity="0"/>
</radialGradient>
<radialGradient id="paint10_radial_271_877" cx="0" cy="0" r="1" gradientUnits="userSpaceOnUse" gradientTransform="translate(761.5 62.3322) rotate(90) scale(357.693 359.5)">
<stop stop-color="#821DB6"/>
<stop offset="1" stop-color="#252D47" stop-opacity="0"/>
</radialGradient>
<radialGradient id="paint11_radial_271_877" cx="0" cy="0" r="1" gradientUnits="userSpaceOnUse" gradientTransform="translate(691.5 -163.527) rotate(90) scale(357.693 359.5)">
<stop stop-color="#5A5BED"/>
<stop offset="1" stop-color="#252D47" stop-opacity="0"/>
</radialGradient>
<clipPath id="clip0_271_877">
<rect width="1440" height="1102" fill="white"/>
</clipPath>
</defs>
</svg>
