<svg width="101" height="132" viewBox="0 0 101 132" fill="none" xmlns="http://www.w3.org/2000/svg">
<g clip-path="url(#clip0_4162_3281)">
<path d="M70.536 79.4605C78.5601 76.5021 84.9597 71.6574 89.7267 64.9305C94.4936 58.2035 96.8792 50.4945 96.8792 41.8035C96.8792 29.8513 92.7423 20.0187 84.4769 12.2892C76.2073 4.56385 65.7977 0.701172 53.244 0.701172H2.73047V20.7061H52.0655C59.0053 20.7061 64.6029 22.6702 68.8584 26.5901C73.1139 30.5142 75.2375 35.5226 75.2375 41.6153C75.2375 47.708 73.1261 52.7941 68.9034 56.6855C64.6765 60.5768 59.0667 62.5286 52.0655 62.5286H30.5753L32.568 82.4435H48.7184L76.6001 130.514H100.5L70.536 79.4605Z" fill="#A045F6"/>
<path d="M27.5265 118.329L20.7709 50.7687L27.5224 31.9422C23.1646 31.0052 18.6472 30.4978 14.0112 30.4978C9.37516 30.4978 4.86188 31.0011 0.5 31.9422L7.2556 50.7687L0.5 118.329L14.0112 131.84L27.5224 118.329H27.5265Z" fill="#FFC207"/>
</g>
<defs>
<clipPath id="clip0_4162_3281">
<rect width="100" height="131.139" fill="white" transform="translate(0.5 0.701172)"/>
</clipPath>
</defs>
</svg>
