<svg width="1440" height="6536" viewBox="0 0 1440 6536" fill="none" xmlns="http://www.w3.org/2000/svg">
<g clip-path="url(#clip0_455_3384)">
<rect width="1440" height="6536" fill="#100919"/>
<mask id="mask0_455_3384" style="mask-type:alpha" maskUnits="userSpaceOnUse" x="0" y="1940" width="1440" height="4596">
<rect y="1940" width="1440" height="4596" fill="#D9D9D9"/>
</mask>
<g mask="url(#mask0_455_3384)">
<ellipse opacity="0.3" cx="1258.5" cy="5844.31" rx="359.5" ry="357.693" fill="url(#paint0_radial_455_3384)"/>
<ellipse opacity="0.3" cx="269.5" cy="6228.84" rx="359.5" ry="357.693" fill="url(#paint1_radial_455_3384)"/>
<g opacity="0.45">
<line opacity="0.8" x1="143.5" y1="4883.02" x2="143.5" y2="5125.53" stroke="url(#paint2_linear_455_3384)" stroke-opacity="0.8"/>
<line x1="1296.5" y1="4343.68" x2="1296.5" y2="4553.35" stroke="url(#paint3_linear_455_3384)" stroke-opacity="0.8"/>
<line x1="719.5" y1="4927.91" x2="719.5" y2="5040.32" stroke="url(#paint4_linear_455_3384)" stroke-opacity="0.8"/>
<line x1="824" y1="4988.11" x2="626" y2="4988.11" stroke="url(#paint5_linear_455_3384)" stroke-opacity="0.8"/>
<line x1="538" y1="4457.86" x2="340" y2="4457.86" stroke="url(#paint6_linear_455_3384)" stroke-opacity="0.8"/>
<g opacity="0.2">
<mask id="mask1_455_3384" style="mask-type:alpha" maskUnits="userSpaceOnUse" x="-1" y="4274" width="1438" height="871">
<rect width="1438" height="870.268" transform="matrix(-1 0 0 1 1437 4274.21)" fill="url(#paint7_linear_455_3384)"/>
</mask>
<g mask="url(#mask1_455_3384)">
<rect width="144" height="144" transform="matrix(-1 0 0 1 1440 4272.95)" stroke="white"/>
<rect width="144" height="144" transform="matrix(-1 0 0 1 1296 4272.95)" stroke="white"/>
<rect width="144" height="144" transform="matrix(-1 0 0 1 1152 4272.95)" stroke="white"/>
<rect width="144" height="144" transform="matrix(-1 0 0 1 1008 4272.95)" stroke="white"/>
<rect width="144" height="144" transform="matrix(-1 0 0 1 864 4272.95)" stroke="white"/>
<rect width="144" height="144" transform="matrix(-1 0 0 1 720 4272.95)" stroke="white"/>
<rect width="144" height="144" transform="matrix(-1 0 0 1 576 4272.95)" stroke="white"/>
<rect width="144" height="144" transform="matrix(-1 0 0 1 432 4272.95)" stroke="white"/>
<rect width="144" height="144" transform="matrix(-1 0 0 1 288 4272.95)" stroke="white"/>
<rect width="144" height="144" transform="matrix(-1 0 0 1 144 4272.95)" stroke="white"/>
<rect width="144" height="144" transform="matrix(-1 0 0 1 1440 4416.95)" stroke="white"/>
<rect width="144" height="144" transform="matrix(-1 0 0 1 1296 4416.95)" stroke="white"/>
<rect width="144" height="144" transform="matrix(-1 0 0 1 1152 4416.95)" stroke="white"/>
<rect width="144" height="144" transform="matrix(-1 0 0 1 1008 4416.95)" stroke="white"/>
<rect width="144" height="144" transform="matrix(-1 0 0 1 864 4416.95)" stroke="white"/>
<rect width="144" height="144" transform="matrix(-1 0 0 1 720 4416.95)" stroke="white"/>
<rect width="144" height="144" transform="matrix(-1 0 0 1 576 4416.95)" stroke="white"/>
<rect width="144" height="144" transform="matrix(-1 0 0 1 432 4416.95)" stroke="white"/>
<rect width="144" height="144" transform="matrix(-1 0 0 1 288 4416.95)" stroke="white"/>
<rect width="144" height="144" transform="matrix(-1 0 0 1 144 4416.95)" stroke="white"/>
<rect width="144" height="144" transform="matrix(-1 0 0 1 1440 4560.95)" stroke="white"/>
<rect width="144" height="144" transform="matrix(-1 0 0 1 1296 4560.95)" stroke="white"/>
<rect width="144" height="144" transform="matrix(-1 0 0 1 1152 4560.95)" stroke="white"/>
<rect width="144" height="144" transform="matrix(-1 0 0 1 1008 4560.95)" stroke="white"/>
<rect width="144" height="144" transform="matrix(-1 0 0 1 864 4560.95)" stroke="white"/>
<rect width="144" height="144" transform="matrix(-1 0 0 1 720 4560.95)" stroke="white"/>
<rect width="144" height="144" transform="matrix(-1 0 0 1 576 4560.95)" stroke="white"/>
<rect width="144" height="144" transform="matrix(-1 0 0 1 432 4560.95)" stroke="white"/>
<rect width="144" height="144" transform="matrix(-1 0 0 1 288 4560.95)" stroke="white"/>
<rect width="144" height="144" transform="matrix(-1 0 0 1 144 4560.95)" stroke="white"/>
<rect width="144" height="144" transform="matrix(-1 0 0 1 1440 4704.95)" stroke="white"/>
<rect width="144" height="144" transform="matrix(-1 0 0 1 1296 4704.95)" stroke="white"/>
<rect width="144" height="144" transform="matrix(-1 0 0 1 1152 4704.95)" stroke="white"/>
<rect width="144" height="144" transform="matrix(-1 0 0 1 1008 4704.95)" stroke="white"/>
<rect width="144" height="144" transform="matrix(-1 0 0 1 864 4704.95)" stroke="white"/>
<rect width="144" height="144" transform="matrix(-1 0 0 1 720 4704.95)" stroke="white"/>
<rect width="144" height="144" transform="matrix(-1 0 0 1 576 4704.95)" stroke="white"/>
<rect width="144" height="144" transform="matrix(-1 0 0 1 432 4704.95)" stroke="white"/>
<rect width="144" height="144" transform="matrix(-1 0 0 1 288 4704.95)" stroke="white"/>
<rect width="144" height="144" transform="matrix(-1 0 0 1 144 4704.95)" stroke="white"/>
<rect width="144" height="144" transform="matrix(-1 0 0 1 1440 4848.95)" stroke="white"/>
<rect width="144" height="144" transform="matrix(-1 0 0 1 1296 4848.95)" stroke="white"/>
<rect width="144" height="144" transform="matrix(-1 0 0 1 1152 4848.95)" stroke="white"/>
<rect width="144" height="144" transform="matrix(-1 0 0 1 1008 4848.95)" stroke="white"/>
<rect width="144" height="144" transform="matrix(-1 0 0 1 864 4848.95)" stroke="white"/>
<rect width="144" height="144" transform="matrix(-1 0 0 1 720 4848.95)" stroke="white"/>
<rect width="144" height="144" transform="matrix(-1 0 0 1 576 4848.95)" stroke="white"/>
<rect width="144" height="144" transform="matrix(-1 0 0 1 432 4848.95)" stroke="white"/>
<rect width="144" height="144" transform="matrix(-1 0 0 1 288 4848.95)" stroke="white"/>
<rect width="144" height="144" transform="matrix(-1 0 0 1 144 4848.95)" stroke="white"/>
<rect width="144" height="144" transform="matrix(-1 0 0 1 1440 4992.95)" stroke="white"/>
<rect width="144" height="144" transform="matrix(-1 0 0 1 1296 4992.95)" stroke="white"/>
<rect width="144" height="144" transform="matrix(-1 0 0 1 1152 4992.95)" stroke="white"/>
<rect width="144" height="144" transform="matrix(-1 0 0 1 1008 4992.95)" stroke="white"/>
<rect width="144" height="144" transform="matrix(-1 0 0 1 864 4992.95)" stroke="white"/>
<rect width="144" height="144" transform="matrix(-1 0 0 1 720 4992.95)" stroke="white"/>
<rect width="144" height="144" transform="matrix(-1 0 0 1 576 4992.95)" stroke="white"/>
<rect width="144" height="144" transform="matrix(-1 0 0 1 432 4992.95)" stroke="white"/>
<rect width="144" height="144" transform="matrix(-1 0 0 1 288 4992.95)" stroke="white"/>
<rect width="144" height="144" transform="matrix(-1 0 0 1 144 4992.95)" stroke="white"/>
<rect width="144" height="144" transform="matrix(-1 0 0 1 1440 5136.95)" stroke="white"/>
<rect width="144" height="144" transform="matrix(-1 0 0 1 1296 5136.95)" stroke="white"/>
<rect width="144" height="144" transform="matrix(-1 0 0 1 1152 5136.95)" stroke="white"/>
<rect width="144" height="144" transform="matrix(-1 0 0 1 1008 5136.95)" stroke="white"/>
<rect width="144" height="144" transform="matrix(-1 0 0 1 864 5136.95)" stroke="white"/>
<rect width="144" height="144" transform="matrix(-1 0 0 1 720 5136.95)" stroke="white"/>
<rect width="144" height="144" transform="matrix(-1 0 0 1 576 5136.95)" stroke="white"/>
<rect width="144" height="144" transform="matrix(-1 0 0 1 432 5136.95)" stroke="white"/>
<rect width="144" height="144" transform="matrix(-1 0 0 1 288 5136.95)" stroke="white"/>
<rect width="144" height="144" transform="matrix(-1 0 0 1 144 5136.95)" stroke="white"/>
</g>
</g>
</g>
<ellipse opacity="0.17" cx="1234.5" cy="4987.11" rx="359.5" ry="357.693" fill="url(#paint8_radial_455_3384)"/>
<ellipse opacity="0.2" cx="1394.5" cy="4758.27" rx="359.5" ry="357.693" fill="url(#paint9_radial_455_3384)"/>
<ellipse opacity="0.17" cx="46.5" cy="4414.01" rx="359.5" ry="357.693" fill="url(#paint10_radial_455_3384)"/>
<ellipse opacity="0.2" cx="150.5" cy="4236.9" rx="359.5" ry="357.693" fill="url(#paint11_radial_455_3384)"/>
<ellipse opacity="0.17" cx="761.5" cy="3953.33" rx="359.5" ry="357.693" fill="url(#paint12_radial_455_3384)"/>
<ellipse opacity="0.2" cx="691.5" cy="3727.47" rx="359.5" ry="357.693" fill="url(#paint13_radial_455_3384)"/>
<line opacity="0.8" x1="147.4" y1="2419.58" x2="147.4" y2="2610.61" stroke="url(#paint14_linear_455_3384)" stroke-opacity="0.8"/>
<line x1="1299.6" y1="1994.72" x2="1299.6" y2="2159.89" stroke="url(#paint15_linear_455_3384)" stroke-opacity="0.8"/>
<line x1="723" y1="2467.34" x2="723" y2="2555.89" stroke="url(#paint16_linear_455_3384)" stroke-opacity="0.8"/>
<line x1="827.427" y1="2512.61" x2="629.565" y2="2512.61" stroke="url(#paint17_linear_455_3384)" stroke-opacity="0.8"/>
<line x1="541.626" y1="2082.78" x2="343.763" y2="2082.78" stroke="url(#paint18_linear_455_3384)" stroke-opacity="0.8"/>
<g opacity="0.2">
<mask id="mask2_455_3384" style="mask-type:alpha" maskUnits="userSpaceOnUse" x="0" y="1940" width="1440" height="796">
<rect width="1440" height="795.98" transform="matrix(-1 0 0 1 1440 1940)" fill="url(#paint19_linear_455_3384)"/>
</mask>
<g mask="url(#mask2_455_3384)">
<rect width="144" height="144" transform="matrix(-1 0 0 1 1443 1939)" stroke="white"/>
<rect width="144" height="144" transform="matrix(-1 0 0 1 1299 1939)" stroke="white"/>
<rect width="144" height="144" transform="matrix(-1 0 0 1 1155 1939)" stroke="white"/>
<rect width="144" height="144" transform="matrix(-1 0 0 1 1011 1939)" stroke="white"/>
<rect width="144" height="144" transform="matrix(-1 0 0 1 867.004 1939)" stroke="white"/>
<rect width="144" height="144" transform="matrix(-1 0 0 1 723.004 1939)" stroke="white"/>
<rect width="144" height="144" transform="matrix(-1 0 0 1 579.004 1939)" stroke="white"/>
<rect width="144" height="144" transform="matrix(-1 0 0 1 435.004 1939)" stroke="white"/>
<rect width="144" height="144" transform="matrix(-1 0 0 1 291.004 1939)" stroke="white"/>
<rect width="144" height="144" transform="matrix(-1 0 0 1 147.004 1939)" stroke="white"/>
<rect width="144" height="144" transform="matrix(-1 0 0 1 1443 2083)" stroke="white"/>
<rect width="144" height="144" transform="matrix(-1 0 0 1 1299 2083)" stroke="white"/>
<rect width="144" height="144" transform="matrix(-1 0 0 1 1155 2083)" stroke="white"/>
<rect width="144" height="144" transform="matrix(-1 0 0 1 1011 2083)" stroke="white"/>
<rect width="144" height="144" transform="matrix(-1 0 0 1 867.004 2083)" stroke="white"/>
<rect width="144" height="144" transform="matrix(-1 0 0 1 723.004 2083)" stroke="white"/>
<rect width="144" height="144" transform="matrix(-1 0 0 1 579.004 2083)" stroke="white"/>
<rect width="144" height="144" transform="matrix(-1 0 0 1 435.004 2083)" stroke="white"/>
<rect width="144" height="144" transform="matrix(-1 0 0 1 291.004 2083)" stroke="white"/>
<rect width="144" height="144" transform="matrix(-1 0 0 1 147.004 2083)" stroke="white"/>
<rect width="144" height="144" transform="matrix(-1 0 0 1 1443 2227)" stroke="white"/>
<rect width="144" height="144" transform="matrix(-1 0 0 1 1299 2227)" stroke="white"/>
<rect width="144" height="144" transform="matrix(-1 0 0 1 1155 2227)" stroke="white"/>
<rect width="144" height="144" transform="matrix(-1 0 0 1 1011 2227)" stroke="white"/>
<rect width="144" height="144" transform="matrix(-1 0 0 1 867.004 2227)" stroke="white"/>
<rect width="144" height="144" transform="matrix(-1 0 0 1 723.004 2227)" stroke="white"/>
<rect width="144" height="144" transform="matrix(-1 0 0 1 579.004 2227)" stroke="white"/>
<rect width="144" height="144" transform="matrix(-1 0 0 1 435.004 2227)" stroke="white"/>
<rect width="144" height="144" transform="matrix(-1 0 0 1 291.004 2227)" stroke="white"/>
<rect width="144" height="144" transform="matrix(-1 0 0 1 147.004 2227)" stroke="white"/>
<rect width="144" height="144" transform="matrix(-1 0 0 1 1443 2371)" stroke="white"/>
<rect width="144" height="144" transform="matrix(-1 0 0 1 1299 2371)" stroke="white"/>
<rect width="144" height="144" transform="matrix(-1 0 0 1 1155 2371)" stroke="white"/>
<rect width="144" height="144" transform="matrix(-1 0 0 1 1011 2371)" stroke="white"/>
<rect width="144" height="144" transform="matrix(-1 0 0 1 867.004 2371)" stroke="white"/>
<rect width="144" height="144" transform="matrix(-1 0 0 1 723.004 2371)" stroke="white"/>
<rect width="144" height="144" transform="matrix(-1 0 0 1 579.004 2371)" stroke="white"/>
<rect width="144" height="144" transform="matrix(-1 0 0 1 435.004 2371)" stroke="white"/>
<rect width="144" height="144" transform="matrix(-1 0 0 1 291.004 2371)" stroke="white"/>
<rect width="144" height="144" transform="matrix(-1 0 0 1 147.004 2371)" stroke="white"/>
<rect width="144" height="144" transform="matrix(-1 0 0 1 1443 2515)" stroke="white"/>
<rect width="144" height="144" transform="matrix(-1 0 0 1 1299 2515)" stroke="white"/>
<rect width="144" height="144" transform="matrix(-1 0 0 1 1155 2515)" stroke="white"/>
<rect width="144" height="144" transform="matrix(-1 0 0 1 1011 2515)" stroke="white"/>
<rect width="144" height="144" transform="matrix(-1 0 0 1 867.004 2515)" stroke="white"/>
<rect width="144" height="144" transform="matrix(-1 0 0 1 723.004 2515)" stroke="white"/>
<rect width="144" height="144" transform="matrix(-1 0 0 1 579.004 2515)" stroke="white"/>
<rect width="144" height="144" transform="matrix(-1 0 0 1 435.004 2515)" stroke="white"/>
<rect width="144" height="144" transform="matrix(-1 0 0 1 291.004 2515)" stroke="white"/>
<rect width="144" height="144" transform="matrix(-1 0 0 1 147.004 2515)" stroke="white"/>
<rect width="144" height="144" transform="matrix(-1 0 0 1 1443 2659)" stroke="white"/>
<rect width="144" height="144" transform="matrix(-1 0 0 1 1299 2659)" stroke="white"/>
<rect width="144" height="144" transform="matrix(-1 0 0 1 1155 2659)" stroke="white"/>
<rect width="144" height="144" transform="matrix(-1 0 0 1 1011 2659)" stroke="white"/>
<rect width="144" height="144" transform="matrix(-1 0 0 1 867.004 2659)" stroke="white"/>
<rect width="144" height="144" transform="matrix(-1 0 0 1 723.004 2659)" stroke="white"/>
<rect width="144" height="144" transform="matrix(-1 0 0 1 579.004 2659)" stroke="white"/>
<rect width="144" height="144" transform="matrix(-1 0 0 1 435.004 2659)" stroke="white"/>
<rect width="144" height="144" transform="matrix(-1 0 0 1 291.004 2659)" stroke="white"/>
<rect width="144" height="144" transform="matrix(-1 0 0 1 147.004 2659)" stroke="white"/>
</g>
</g>
<ellipse opacity="0.4" cx="1069.5" cy="2308.64" rx="370.5" ry="368.638" fill="url(#paint20_radial_455_3384)"/>
<ellipse opacity="0.17" cx="66.5" cy="2781.25" rx="359.5" ry="357.693" fill="url(#paint21_radial_455_3384)"/>
<ellipse opacity="0.2" cx="170.5" cy="2604.15" rx="359.5" ry="357.693" fill="url(#paint22_radial_455_3384)"/>
<ellipse opacity="0.17" cx="1306.5" cy="3316.55" rx="359.5" ry="357.693" fill="url(#paint23_radial_455_3384)"/>
<ellipse opacity="0.2" cx="1410.5" cy="3139.44" rx="359.5" ry="357.693" fill="url(#paint24_radial_455_3384)"/>
</g>
<g opacity="0.3" filter="url(#filter0_f_455_3384)">
<path d="M571.545 496.69C558.191 496.69 544.884 495.117 531.899 492.002L-227 310V912L526.939 679.216C543.184 674.2 560.09 671.649 577.092 671.649H889.52C937.834 671.649 977 632.483 977 584.17V584.17C977 535.856 937.834 496.69 889.52 496.69H571.545Z" fill="url(#paint25_linear_455_3384)"/>
<path d="M780.455 496.69C793.809 496.69 807.116 495.117 820.101 492.002L1579 310V912L825.061 679.216C808.816 674.2 791.91 671.649 774.908 671.649H462.48C414.166 671.649 375 632.483 375 584.17V584.17C375 535.856 414.166 496.69 462.48 496.69H780.455Z" fill="url(#paint26_linear_455_3384)"/>
</g>
</g>
<defs>
<filter id="filter0_f_455_3384" x="-287" y="250" width="1926" height="722" filterUnits="userSpaceOnUse" color-interpolation-filters="sRGB">
<feFlood flood-opacity="0" result="BackgroundImageFix"/>
<feBlend mode="normal" in="SourceGraphic" in2="BackgroundImageFix" result="shape"/>
<feGaussianBlur stdDeviation="30" result="effect1_foregroundBlur_455_3384"/>
</filter>
<radialGradient id="paint0_radial_455_3384" cx="0" cy="0" r="1" gradientUnits="userSpaceOnUse" gradientTransform="translate(1258.5 5844.31) rotate(90) scale(357.693 359.5)">
<stop stop-color="#821DB6"/>
<stop offset="1" stop-color="#252D47" stop-opacity="0"/>
</radialGradient>
<radialGradient id="paint1_radial_455_3384" cx="0" cy="0" r="1" gradientUnits="userSpaceOnUse" gradientTransform="translate(269.5 6228.84) rotate(90) scale(357.693 359.5)">
<stop stop-color="#5A5BED"/>
<stop offset="1" stop-color="#252D47" stop-opacity="0"/>
</radialGradient>
<linearGradient id="paint2_linear_455_3384" x1="142.999" y1="5125.53" x2="143" y2="4895.89" gradientUnits="userSpaceOnUse">
<stop stop-color="white" stop-opacity="0"/>
<stop offset="0.515625" stop-color="white" stop-opacity="0.760723"/>
<stop offset="1" stop-color="white" stop-opacity="0"/>
</linearGradient>
<linearGradient id="paint3_linear_455_3384" x1="1296" y1="4553.35" x2="1296" y2="4354.81" gradientUnits="userSpaceOnUse">
<stop stop-color="white" stop-opacity="0"/>
<stop offset="0.515625" stop-color="white" stop-opacity="0.760723"/>
<stop offset="1" stop-color="white" stop-opacity="0"/>
</linearGradient>
<linearGradient id="paint4_linear_455_3384" x1="718.999" y1="5040.32" x2="718.999" y2="4933.88" gradientUnits="userSpaceOnUse">
<stop stop-color="white" stop-opacity="0"/>
<stop offset="0.515625" stop-color="white" stop-opacity="0.760723"/>
<stop offset="1" stop-color="white" stop-opacity="0"/>
</linearGradient>
<linearGradient id="paint5_linear_455_3384" x1="626" y1="4987.6" x2="813.49" y2="4987.61" gradientUnits="userSpaceOnUse">
<stop stop-color="white" stop-opacity="0"/>
<stop offset="0.515625" stop-color="white" stop-opacity="0.760723"/>
<stop offset="1" stop-color="white" stop-opacity="0"/>
</linearGradient>
<linearGradient id="paint6_linear_455_3384" x1="340" y1="4457.36" x2="527.49" y2="4457.36" gradientUnits="userSpaceOnUse">
<stop stop-color="white" stop-opacity="0"/>
<stop offset="0.515625" stop-color="white" stop-opacity="0.760723"/>
<stop offset="1" stop-color="white" stop-opacity="0"/>
</linearGradient>
<linearGradient id="paint7_linear_455_3384" x1="623" y1="15.7736" x2="765.315" y2="845.869" gradientUnits="userSpaceOnUse">
<stop stop-color="white" stop-opacity="0"/>
<stop offset="0.458333" stop-color="white" stop-opacity="0.71"/>
<stop offset="1" stop-color="#D9D9D9" stop-opacity="0"/>
</linearGradient>
<radialGradient id="paint8_radial_455_3384" cx="0" cy="0" r="1" gradientUnits="userSpaceOnUse" gradientTransform="translate(1234.5 4987.11) rotate(90) scale(357.693 359.5)">
<stop stop-color="#821DB6"/>
<stop offset="1" stop-color="#252D47" stop-opacity="0"/>
</radialGradient>
<radialGradient id="paint9_radial_455_3384" cx="0" cy="0" r="1" gradientUnits="userSpaceOnUse" gradientTransform="translate(1394.5 4758.27) rotate(90) scale(357.693 359.5)">
<stop stop-color="#5A5BED"/>
<stop offset="1" stop-color="#252D47" stop-opacity="0"/>
</radialGradient>
<radialGradient id="paint10_radial_455_3384" cx="0" cy="0" r="1" gradientUnits="userSpaceOnUse" gradientTransform="translate(46.5 4414.01) rotate(90) scale(357.693 359.5)">
<stop stop-color="#821DB6"/>
<stop offset="1" stop-color="#252D47" stop-opacity="0"/>
</radialGradient>
<radialGradient id="paint11_radial_455_3384" cx="0" cy="0" r="1" gradientUnits="userSpaceOnUse" gradientTransform="translate(150.5 4236.9) rotate(90) scale(357.693 359.5)">
<stop stop-color="#5A5BED"/>
<stop offset="1" stop-color="#252D47" stop-opacity="0"/>
</radialGradient>
<radialGradient id="paint12_radial_455_3384" cx="0" cy="0" r="1" gradientUnits="userSpaceOnUse" gradientTransform="translate(761.5 3953.33) rotate(90) scale(357.693 359.5)">
<stop stop-color="#821DB6"/>
<stop offset="1" stop-color="#252D47" stop-opacity="0"/>
</radialGradient>
<radialGradient id="paint13_radial_455_3384" cx="0" cy="0" r="1" gradientUnits="userSpaceOnUse" gradientTransform="translate(691.5 3727.47) rotate(90) scale(357.693 359.5)">
<stop stop-color="#5A5BED"/>
<stop offset="1" stop-color="#252D47" stop-opacity="0"/>
</radialGradient>
<linearGradient id="paint14_linear_455_3384" x1="146.899" y1="2610.61" x2="146.9" y2="2429.72" gradientUnits="userSpaceOnUse">
<stop stop-color="white" stop-opacity="0"/>
<stop offset="0.515625" stop-color="white" stop-opacity="0.760723"/>
<stop offset="1" stop-color="white" stop-opacity="0"/>
</linearGradient>
<linearGradient id="paint15_linear_455_3384" x1="1299.1" y1="2159.89" x2="1299.1" y2="2003.49" gradientUnits="userSpaceOnUse">
<stop stop-color="white" stop-opacity="0"/>
<stop offset="0.515625" stop-color="white" stop-opacity="0.760723"/>
<stop offset="1" stop-color="white" stop-opacity="0"/>
</linearGradient>
<linearGradient id="paint16_linear_455_3384" x1="722.5" y1="2555.89" x2="722.5" y2="2472.04" gradientUnits="userSpaceOnUse">
<stop stop-color="white" stop-opacity="0"/>
<stop offset="0.515625" stop-color="white" stop-opacity="0.760723"/>
<stop offset="1" stop-color="white" stop-opacity="0"/>
</linearGradient>
<linearGradient id="paint17_linear_455_3384" x1="629.565" y1="2512.11" x2="816.925" y2="2512.11" gradientUnits="userSpaceOnUse">
<stop stop-color="white" stop-opacity="0"/>
<stop offset="0.515625" stop-color="white" stop-opacity="0.760723"/>
<stop offset="1" stop-color="white" stop-opacity="0"/>
</linearGradient>
<linearGradient id="paint18_linear_455_3384" x1="343.764" y1="2082.28" x2="531.123" y2="2082.28" gradientUnits="userSpaceOnUse">
<stop stop-color="white" stop-opacity="0"/>
<stop offset="0.515625" stop-color="white" stop-opacity="0.760723"/>
<stop offset="1" stop-color="white" stop-opacity="0"/>
</linearGradient>
<linearGradient id="paint19_linear_455_3384" x1="1848.85" y1="-20.613" x2="194.673" y2="809.279" gradientUnits="userSpaceOnUse">
<stop stop-color="white" stop-opacity="0.71"/>
<stop offset="1" stop-color="#D9D9D9" stop-opacity="0"/>
</linearGradient>
<radialGradient id="paint20_radial_455_3384" cx="0" cy="0" r="1" gradientUnits="userSpaceOnUse" gradientTransform="translate(1069.5 2308.64) rotate(90) scale(368.638 370.5)">
<stop stop-color="#821DB6"/>
<stop offset="1" stop-color="#252D47" stop-opacity="0"/>
</radialGradient>
<radialGradient id="paint21_radial_455_3384" cx="0" cy="0" r="1" gradientUnits="userSpaceOnUse" gradientTransform="translate(66.5 2781.25) rotate(90) scale(357.693 359.5)">
<stop stop-color="#821DB6"/>
<stop offset="1" stop-color="#252D47" stop-opacity="0"/>
</radialGradient>
<radialGradient id="paint22_radial_455_3384" cx="0" cy="0" r="1" gradientUnits="userSpaceOnUse" gradientTransform="translate(170.5 2604.15) rotate(90) scale(357.693 359.5)">
<stop stop-color="#5A5BED"/>
<stop offset="1" stop-color="#252D47" stop-opacity="0"/>
</radialGradient>
<radialGradient id="paint23_radial_455_3384" cx="0" cy="0" r="1" gradientUnits="userSpaceOnUse" gradientTransform="translate(1306.5 3316.55) rotate(90) scale(357.693 359.5)">
<stop stop-color="#821DB6"/>
<stop offset="1" stop-color="#252D47" stop-opacity="0"/>
</radialGradient>
<radialGradient id="paint24_radial_455_3384" cx="0" cy="0" r="1" gradientUnits="userSpaceOnUse" gradientTransform="translate(1410.5 3139.44) rotate(90) scale(357.693 359.5)">
<stop stop-color="#5A5BED"/>
<stop offset="1" stop-color="#252D47" stop-opacity="0"/>
</radialGradient>
<linearGradient id="paint25_linear_455_3384" x1="676" y1="310" x2="676" y2="912" gradientUnits="userSpaceOnUse">
<stop stop-color="#8ADCFF"/>
<stop offset="0.433923" stop-color="#8CE3FF" stop-opacity="0"/>
</linearGradient>
<linearGradient id="paint26_linear_455_3384" x1="676" y1="310" x2="676" y2="912" gradientUnits="userSpaceOnUse">
<stop stop-color="#8ADCFF"/>
<stop offset="0.433923" stop-color="#8CE3FF" stop-opacity="0"/>
</linearGradient>
<clipPath id="clip0_455_3384">
<rect width="1440" height="6536" fill="white"/>
</clipPath>
</defs>
</svg>
