<svg width="21" height="22" viewBox="0 0 21 22" fill="none" xmlns="http://www.w3.org/2000/svg">
<path d="M9 18.25H4C2.423 18.25 1.75 17.577 1.75 16V4C1.75 2.423 2.423 1.75 4 1.75H9.25V4C9.25 6.418 10.582 7.75 13 7.75H15.25V10C15.25 10.414 15.586 10.75 16 10.75C16.414 10.75 16.75 10.414 16.75 10V7C16.75 6.801 16.671 6.61 16.53 6.47L10.53 0.470001C10.389 0.329001 10.199 0.25 10 0.25H4C1.582 0.25 0.25 1.582 0.25 4V16C0.25 18.418 1.582 19.75 4 19.75H9C9.414 19.75 9.75 19.414 9.75 19C9.75 18.586 9.414 18.25 9 18.25ZM10.75 4V2.811L14.189 6.25H13C11.423 6.25 10.75 5.577 10.75 4ZM12 9.25C12.414 9.25 12.75 9.586 12.75 10C12.75 10.414 12.414 10.75 12 10.75H5C4.586 10.75 4.25 10.414 4.25 10C4.25 9.586 4.586 9.25 5 9.25H12ZM9.75 14C9.75 14.414 9.414 14.75 9 14.75H5C4.586 14.75 4.25 14.414 4.25 14C4.25 13.586 4.586 13.25 5 13.25H9C9.414 13.25 9.75 13.586 9.75 14ZM16 12.25C13.381 12.25 11.25 14.381 11.25 17C11.25 19.619 13.381 21.75 16 21.75C18.619 21.75 20.75 19.619 20.75 17C20.75 14.381 18.619 12.25 16 12.25ZM16 20.25C14.208 20.25 12.75 18.792 12.75 17C12.75 15.208 14.208 13.75 16 13.75C17.792 13.75 19.25 15.208 19.25 17C19.25 18.792 17.792 20.25 16 20.25ZM17.78 15.636C18.073 15.929 18.073 16.404 17.78 16.697L16.113 18.364C15.972 18.504 15.782 18.583 15.583 18.583C15.384 18.583 15.193 18.504 15.053 18.363L14.22 17.53C13.927 17.237 13.927 16.762 14.22 16.469C14.513 16.177 14.988 16.176 15.281 16.469L15.584 16.772L16.7209 15.636C17.0129 15.344 17.487 15.344 17.78 15.636Z" fill="white"/>
</svg>
