<svg width="51" height="52" viewBox="0 0 51 52" fill="none" xmlns="http://www.w3.org/2000/svg">
<circle opacity="0.1" cx="25.5" cy="26" r="25.5" fill="#5A5BED"/>
<path fill-rule="evenodd" clip-rule="evenodd" d="M32.5 16.6436C32.5 15.8978 32.2036 15.1823 31.6762 14.6549C31.1488 14.1275 30.4333 13.8311 29.6875 13.8311H20.3125C19.5667 13.8311 18.8512 14.1275 18.3238 14.6549C17.7964 15.1823 17.5 15.8978 17.5 16.6436V19.4375C17.5 19.9553 17.9197 20.375 18.4375 20.375H31.5625C32.0803 20.375 32.5 19.9553 32.5 19.4375V16.6436ZM30.625 16.6436V18.5H19.375V16.6436C19.375 16.3952 19.4737 16.1567 19.6495 15.9809C19.8253 15.8051 20.0638 15.7061 20.3125 15.7061H29.6875C29.9362 15.7061 30.1747 15.8051 30.3505 15.9809C30.5263 16.1567 30.625 16.3952 30.625 16.6436Z" fill="white"/>
<path fill-rule="evenodd" clip-rule="evenodd" d="M38.125 29.7152C38.0305 29.738 37.9309 29.75 37.8283 29.75H31.5625C31.5625 31.3034 30.3034 32.5625 28.75 32.5625H21.25C19.6966 32.5625 18.4375 31.3034 18.4375 29.75V29.7398C18.3847 29.7467 18.3307 29.75 18.2758 29.75H11.875V35.375C11.875 36.9284 13.1341 38.1875 14.6875 38.1875H35.3125C36.8659 38.1875 38.125 36.9284 38.125 35.375V29.7152ZM29.6875 27.875V29.75C29.6875 30.2678 29.2678 30.6875 28.75 30.6875H21.25C20.7322 30.6875 20.3125 30.2678 20.3125 29.75V27.875C20.3125 27.3572 20.7322 26.9375 21.25 26.9375H28.75C29.2678 26.9375 29.6875 27.3572 29.6875 27.875ZM11.875 27.875H18.2758C18.3307 27.875 18.3847 27.8783 18.4375 27.8852V27.875C18.4375 26.3216 19.6966 25.0625 21.25 25.0625H28.75C30.3034 25.0625 31.5625 26.3216 31.5625 27.875H37.8283C37.9309 27.875 38.0305 27.887 38.125 27.9098V21.3125C38.125 19.7591 36.8659 18.5 35.3125 18.5H14.6875C13.1341 18.5 11.875 19.7591 11.875 21.3125V27.875Z" fill="white"/>
</svg>
