<svg width="51" height="52" viewBox="0 0 51 52" fill="none" xmlns="http://www.w3.org/2000/svg">
<circle opacity="0.1" cx="25.5" cy="26" r="25.5" fill="#5A5BED"/>
<g clip-path="url(#clip0_129_5992)">
<path d="M17.9413 28.6455L10.9139 35.6731C10.3246 36.2625 10 37.0462 10 37.8795C10 38.7131 10.3246 39.4968 10.9139 40.0862C11.5033 40.6755 12.287 41.0001 13.1206 41.0001C13.9539 41.0001 14.7376 40.6755 15.327 40.0862L22.3546 33.0588C20.5466 31.9725 19.0276 30.4534 17.9413 28.6455Z" fill="white"/>
<path d="M28.9361 16.0586C25.6251 16.0586 22.9312 18.7525 22.9312 22.0635C22.9312 25.3748 25.6251 28.0685 28.9361 28.0685C32.2473 28.0685 34.941 25.3748 34.941 22.0635C34.941 18.7525 32.2471 16.0586 28.9361 16.0586ZM32.3249 20.9132L28.7839 24.4542C28.6127 24.6256 28.3882 24.7112 28.1636 24.7112C27.9393 24.7112 27.7148 24.6256 27.5436 24.4544L25.5473 22.4581C25.2049 22.1157 25.2049 21.5602 25.5473 21.2178C25.8899 20.8752 26.4452 20.8752 26.7878 21.2178L28.1636 22.5936L31.0844 19.6729C31.427 19.3305 31.9823 19.3305 32.3249 19.6729C32.6676 20.0153 32.6676 20.5708 32.3249 20.9132Z" fill="white"/>
<path d="M28.9362 11C22.8356 11 17.8726 15.9631 17.8726 22.0637C17.8726 28.1641 22.8359 33.1274 28.9362 33.1274C35.0369 33.1274 39.9999 28.1641 39.9999 22.0637C39.9999 15.9631 35.0369 11 28.9362 11ZM28.9362 29.8228C24.658 29.8228 21.1772 26.3422 21.1772 22.0637C21.1772 17.7852 24.658 14.3046 28.9362 14.3046C33.2147 14.3046 36.6956 17.7852 36.6956 22.0637C36.6956 26.3422 33.2147 29.8228 28.9362 29.8228Z" fill="white"/>
</g>
<defs>
<clipPath id="clip0_129_5992">
<rect width="30" height="30" fill="white" transform="translate(10 11)"/>
</clipPath>
</defs>
</svg>
