<svg width="51" height="52" viewBox="0 0 51 52" fill="none" xmlns="http://www.w3.org/2000/svg">
<circle opacity="0.1" cx="25.5" cy="26" r="25.5" fill="#5A5BED"/>
<path d="M36.4736 25.6121C37.2675 21.8132 33.9254 18.3891 30.225 18.9864C25.9082 11.8931 15.122 15.1308 15.122 23.2121C8.43771 26.7873 11.0189 36.9264 18.5505 36.9264H32.2991C35.8478 36.9264 38.7277 34.0465 38.7277 30.4978C38.7278 28.5864 37.9049 26.8209 36.4736 25.6121ZM29.3335 29.2209L25.9049 32.6494C25.4205 33.1512 24.5763 33.1546 24.0877 32.6494L20.6591 29.2209C20.1536 28.7236 20.1536 27.9092 20.6591 27.4036C21.1651 26.9064 21.9708 26.9064 22.4763 27.4036L23.7105 28.6378V23.1693C23.7105 22.4578 24.2852 21.8836 24.9963 21.8836C25.7078 21.8836 26.282 22.4578 26.282 23.1693V28.6378L27.5162 27.4036C28.0221 26.9064 28.8279 26.9064 29.3334 27.4036C29.839 27.9093 29.839 28.7237 29.3335 29.2209Z" fill="white"/>
</svg>
