<svg width="60" height="60" viewBox="0 0 60 60" fill="none" xmlns="http://www.w3.org/2000/svg">
<path d="M39.7998 23.1006C39.4498 23.1006 39.1499 23.2506 38.9499 23.5506C36.9499 26.3506 33.6998 28.2006 29.9998 28.2006C26.2998 28.2006 23.0498 26.3506 21.0498 23.5506C20.8498 23.3006 20.5498 23.1006 20.1998 23.1006H18.8498C18.1998 23.1006 17.7498 23.7006 17.8498 24.3506L23.3498 48.4006C23.4498 48.8506 23.8498 49.2006 24.3498 49.2006H35.5998C36.0498 49.2006 36.4998 48.9006 36.5998 48.4006L42.0998 24.3506C42.2498 23.7006 41.7498 23.1006 41.0998 23.1006H39.7998Z" fill="#F16C7A"/>
<path d="M29.9994 27.1004C35.4394 27.1004 39.8494 22.6904 39.8494 17.2504C39.8494 11.8104 35.4394 7.40039 29.9994 7.40039C24.5594 7.40039 20.1494 11.8104 20.1494 17.2504C20.1494 22.6904 24.5594 27.1004 29.9994 27.1004Z" fill="#D7E057"/>
<path d="M33.8998 36.501H26.0998C25.6498 36.501 25.2998 36.851 25.2998 37.301C25.2998 37.751 25.6498 38.101 26.0998 38.101H33.8498C34.2998 38.101 34.6498 37.751 34.6498 37.301C34.6998 36.851 34.3498 36.501 33.8998 36.501Z" fill="#3A312A"/>
<path d="M26.0998 34.4008H33.8498C34.2998 34.4008 34.6498 34.0508 34.6498 33.6008C34.6498 33.1508 34.2998 32.8008 33.8498 32.8008H26.0998C25.6498 32.8008 25.2998 33.1508 25.2998 33.6008C25.2998 34.0508 25.6498 34.4008 26.0998 34.4008Z" fill="#3A312A"/>
<path d="M33.8998 40.2012H26.0998C25.6498 40.2012 25.2998 40.5512 25.2998 41.0012C25.2998 41.4512 25.6498 41.8012 26.0998 41.8012H33.8498C34.2998 41.8012 34.6498 41.4512 34.6498 41.0012C34.6498 40.5512 34.3498 40.2012 33.8998 40.2012Z" fill="#3A312A"/>
<path d="M18.7001 52.6H41.3001C41.7501 52.6 42.0501 52.25 42.0501 51.85V48.25C42.0501 47.8 41.7001 47.5 41.3001 47.5H18.7001C18.2501 47.5 17.9501 47.85 17.9501 48.25V51.85C17.9001 52.25 18.2501 52.6 18.7001 52.6Z" fill="#8AC6DD"/>
<path d="M35.6996 15.4002C35.3996 15.4002 35.1996 15.6002 35.1496 15.8502L31.8496 15.3502L30.2996 12.2502C30.4496 12.1502 30.5996 11.9502 30.5996 11.7502C30.5996 11.4502 30.3496 11.2002 30.0496 11.2002C29.7496 11.2002 29.4996 11.4502 29.4996 11.7502C29.4996 12.0002 29.6496 12.2002 29.8496 12.2502L28.3496 15.3502L24.9496 15.8502C24.8996 15.6002 24.6996 15.3502 24.3996 15.3502C24.0996 15.3502 23.8496 15.6002 23.8496 15.9002C23.8496 16.2002 24.0996 16.4502 24.3996 16.4502C24.5496 16.4502 24.6996 16.4002 24.7996 16.3002L27.2496 18.7002L26.6496 22.1002C26.5996 22.1002 26.5996 22.1002 26.5496 22.1002C26.2496 22.1002 25.9996 22.3502 25.9996 22.6502C25.9996 22.9502 26.2496 23.2002 26.5496 23.2002C26.8496 23.2002 27.0996 22.9502 27.0996 22.6502C27.0996 22.5502 27.0496 22.4502 27.0496 22.4002L30.0996 20.8002L33.1496 22.4002C33.0996 22.5002 33.0996 22.5502 33.0996 22.6502C33.0996 22.9502 33.3496 23.2002 33.6496 23.2002C33.9496 23.2002 34.1996 22.9502 34.1996 22.6502C34.1996 22.3502 33.9496 22.1002 33.6496 22.1002C33.5996 22.1002 33.5996 22.1002 33.5496 22.1002L32.9496 18.7002L35.3996 16.3502C35.4996 16.4502 35.5996 16.5002 35.7496 16.5002C36.0496 16.5002 36.2996 16.2502 36.2996 15.9502C36.2496 15.6502 35.9996 15.4002 35.6996 15.4002Z" fill="#F7E3C7"/>
</svg>
