<svg width="50" height="51" viewBox="0 0 50 51" fill="none" xmlns="http://www.w3.org/2000/svg">
<path d="M41.2497 8.4668H6.24967C5.47613 8.4668 4.73426 8.77591 4.18728 9.32613C3.6403 9.87635 3.33301 10.6226 3.33301 11.4007V36.3392C3.33301 37.1173 3.6403 37.8636 4.18728 38.4138C4.73426 38.964 5.47613 39.2732 6.24967 39.2732H26.6663V43.6741C26.667 43.9394 26.7393 44.1997 26.8754 44.427C27.0115 44.6543 27.2064 44.8403 27.4393 44.965C27.6673 45.0828 27.9222 45.138 28.1782 45.1251C28.4342 45.1123 28.6824 45.0317 28.8976 44.8916L32.4997 42.5005L36.0726 44.8916C36.2919 45.0369 36.5462 45.12 36.8085 45.132C37.0709 45.1439 37.3316 45.0844 37.5631 44.9597C37.7946 44.835 37.9884 44.6497 38.1239 44.4234C38.2594 44.1971 38.3317 43.9382 38.333 43.6741V39.2732H41.2497C42.0232 39.2732 42.7651 38.964 43.3121 38.4138C43.859 37.8636 44.1663 37.1173 44.1663 36.3392V11.4007C44.1663 10.6226 43.859 9.87635 43.3121 9.32613C42.7651 8.77591 42.0232 8.4668 41.2497 8.4668ZM33.3601 33.3173C32.4392 33.5035 31.4831 33.3866 30.6334 32.9838C29.7836 32.5811 29.0853 31.914 28.6416 31.0811C28.198 30.2482 28.0326 29.2938 28.17 28.3591C28.3074 27.4243 28.7402 26.5589 29.4044 25.8907C30.0686 25.2226 30.9289 24.7872 31.8582 24.649C32.7874 24.5109 33.7362 24.6772 34.5642 25.1235C35.3922 25.5697 36.0554 26.2722 36.4557 27.127C36.8561 27.9818 36.9723 28.9435 36.7872 29.8699C36.6172 30.7203 36.2013 31.5012 35.5916 32.1146C34.9818 32.7279 34.2055 33.1463 33.3601 33.3173ZM35.4163 40.9308L33.3018 39.4639C33.0636 39.3061 32.7848 39.222 32.4997 39.222C32.2146 39.222 31.9357 39.3061 31.6976 39.4639L29.583 40.9308V35.7231C30.503 36.127 31.4959 36.3354 32.4997 36.3354C33.5034 36.3354 34.4964 36.127 35.4163 35.7231V40.9308ZM41.2497 36.3392H38.333V33.4053C38.9733 32.5593 39.4203 31.5817 39.6421 30.5421C39.8639 29.5025 39.8551 28.4265 39.6163 27.3907C39.225 25.6265 38.1999 24.0697 36.7376 23.0191C35.2752 21.9685 33.4788 21.4981 31.6928 21.6981C29.9069 21.8981 28.2572 22.7545 27.0604 24.1029C25.8637 25.4513 25.204 27.1967 25.208 29.0044C25.2005 30.5926 25.713 32.1392 26.6663 33.4053V36.3392H6.24967V11.4007H41.2497V36.3392Z" fill="white"/>
<path d="M10.9375 19.5498H39.0625C39.4769 19.5498 39.8743 19.3852 40.1674 19.0922C40.4604 18.7991 40.625 18.4017 40.625 17.9873C40.625 17.5729 40.4604 17.1755 40.1674 16.8825C39.8743 16.5894 39.4769 16.4248 39.0625 16.4248H10.9375C10.5231 16.4248 10.1257 16.5894 9.83265 16.8825C9.53962 17.1755 9.375 17.5729 9.375 17.9873C9.375 18.4017 9.53962 18.7991 9.83265 19.0922C10.1257 19.3852 10.5231 19.5498 10.9375 19.5498Z" fill="white"/>
<path d="M10.9375 25.7998H23.4375C23.8519 25.7998 24.2493 25.6352 24.5424 25.3422C24.8354 25.0491 25 24.6517 25 24.2373C25 23.8229 24.8354 23.4255 24.5424 23.1325C24.2493 22.8394 23.8519 22.6748 23.4375 22.6748H10.9375C10.5231 22.6748 10.1257 22.8394 9.83265 23.1325C9.53962 23.4255 9.375 23.8229 9.375 24.2373C9.375 24.6517 9.53962 25.0491 9.83265 25.3422C10.1257 25.6352 10.5231 25.7998 10.9375 25.7998Z" fill="white"/>
<path d="M10.9375 32.0498H23.4375C23.8519 32.0498 24.2493 31.8852 24.5424 31.5922C24.8354 31.2991 25 30.9017 25 30.4873C25 30.0729 24.8354 29.6755 24.5424 29.3824C24.2493 29.0894 23.8519 28.9248 23.4375 28.9248H10.9375C10.5231 28.9248 10.1257 29.0894 9.83265 29.3824C9.53962 29.6755 9.375 30.0729 9.375 30.4873C9.375 30.9017 9.53962 31.2991 9.83265 31.5922C10.1257 31.8852 10.5231 32.0498 10.9375 32.0498Z" fill="white"/>
</svg>
