<svg width="57" height="59" viewBox="0 0 57 59" fill="none" xmlns="http://www.w3.org/2000/svg">
<path d="M24.4909 48.9255H10.9492C6.67818 48.9255 4.85547 47.1028 4.85547 42.8318V10.3318C4.85547 6.06075 6.67818 4.23804 10.9492 4.23804H25.168V10.3318C25.168 16.8805 28.7755 20.488 35.3242 20.488H41.418V26.5818C41.418 27.703 42.328 28.613 43.4492 28.613C44.5705 28.613 45.4805 27.703 45.4805 26.5818V18.4568C45.4805 17.9178 45.2666 17.4005 44.8847 17.0214L28.6347 0.771374C28.2528 0.389499 27.7382 0.175537 27.1992 0.175537H10.9492C4.40047 0.175537 0.792969 3.78304 0.792969 10.3318V42.8318C0.792969 49.3805 4.40047 52.988 10.9492 52.988H24.4909C25.6121 52.988 26.5221 52.078 26.5221 50.9568C26.5221 49.8355 25.6121 48.9255 24.4909 48.9255ZM29.2305 10.3318V7.11159L38.5443 16.4255H35.3242C31.0532 16.4255 29.2305 14.6028 29.2305 10.3318ZM32.6159 24.5505C33.7371 24.5505 34.6471 25.4605 34.6471 26.5818C34.6471 27.703 33.7371 28.613 32.6159 28.613H13.6576C12.5363 28.613 11.6263 27.703 11.6263 26.5818C11.6263 25.4605 12.5363 24.5505 13.6576 24.5505H32.6159ZM26.5221 37.4151C26.5221 38.5364 25.6121 39.4464 24.4909 39.4464H13.6576C12.5363 39.4464 11.6263 38.5364 11.6263 37.4151C11.6263 36.2939 12.5363 35.3839 13.6576 35.3839H24.4909C25.6121 35.3839 26.5221 36.2939 26.5221 37.4151ZM43.4492 32.6755C36.3561 32.6755 30.5846 38.447 30.5846 45.5401C30.5846 52.6332 36.3561 58.4047 43.4492 58.4047C50.5423 58.4047 56.3138 52.6332 56.3138 45.5401C56.3138 38.447 50.5423 32.6755 43.4492 32.6755ZM43.4492 54.3422C38.5959 54.3422 34.6471 50.3935 34.6471 45.5401C34.6471 40.6868 38.5959 36.738 43.4492 36.738C48.3026 36.738 52.2513 40.6868 52.2513 45.5401C52.2513 50.3935 48.3026 54.3422 43.4492 54.3422ZM48.2701 41.8459C49.0637 42.6395 49.0637 43.9259 48.2701 44.7195L43.7554 49.2343C43.3735 49.6135 42.8588 49.8274 42.3199 49.8274C41.7809 49.8274 41.2635 49.6135 40.8844 49.2316L38.6283 46.9755C37.8348 46.182 37.8348 44.8955 38.6283 44.102C39.4218 43.3111 40.7084 43.3084 41.5019 44.102L42.3225 44.9226L45.4018 41.8459C46.1926 41.0551 47.4766 41.0551 48.2701 41.8459Z" fill="white"/>
</svg>
