<svg width="15" height="15" viewBox="0 0 15 15" fill="none" xmlns="http://www.w3.org/2000/svg">
<path d="M9.27734 5.64783C10.8008 7.17126 10.7754 9.60876 9.27734 11.0814C9.27734 11.1068 9.27734 11.1068 9.27734 11.1068L7.57617 12.808C6.07812 14.306 3.61523 14.306 2.11719 12.808C0.619141 11.3099 0.619141 8.84705 2.11719 7.349L3.05664 6.40955C3.31055 6.15564 3.74219 6.33337 3.74219 6.68884C3.76758 7.12048 3.84375 7.57751 3.99609 8.00916C4.04688 8.1615 4.02148 8.33923 3.89453 8.4408L3.56445 8.77087C2.85352 9.48181 2.82812 10.6498 3.53906 11.3607C4.25 12.097 5.41797 12.097 6.12891 11.3607L7.85547 9.65955C8.56641 8.94861 8.56641 7.80603 7.85547 7.0697C7.75391 6.99353 7.65234 6.91736 7.57617 6.86658C7.47461 6.79041 7.39844 6.68884 7.39844 6.5365C7.39844 6.28259 7.5 6.0033 7.70312 5.77478L8.23633 5.24158C8.38867 5.11462 8.5918 5.08923 8.76953 5.21619C8.94727 5.34314 9.125 5.49548 9.27734 5.64783ZM12.8574 2.06775C14.3555 3.5658 14.3555 6.02869 12.8574 7.52673L11.918 8.46619C11.6641 8.72009 11.2324 8.54236 11.2324 8.18689C11.207 7.75525 11.1309 7.29822 10.9785 6.86658C10.9277 6.71423 10.9531 6.5365 11.0801 6.43494L11.4102 6.10486C12.1211 5.39392 12.1465 4.22595 11.4355 3.51501C10.7246 2.77869 9.55664 2.77869 8.8457 3.51501L7.11914 5.21619C6.4082 5.92712 6.4082 7.0697 7.11914 7.80603C7.2207 7.8822 7.32227 7.95837 7.39844 8.00916C7.5 8.08533 7.57617 8.18689 7.57617 8.33923C7.57617 8.59314 7.47461 8.87244 7.27148 9.10095L6.73828 9.63416C6.58594 9.76111 6.38281 9.7865 6.20508 9.65955C6.02734 9.53259 5.84961 9.38025 5.69727 9.22791C4.17383 7.70447 4.19922 5.26697 5.69727 3.79431C5.69727 3.76892 5.69727 3.76892 5.69727 3.76892L7.39844 2.06775C8.89648 0.569702 11.3594 0.569702 12.8574 2.06775Z" fill="white"/>
</svg>
