<svg width="41" height="41" viewBox="0 0 41 41" fill="none" xmlns="http://www.w3.org/2000/svg">
<path d="M0.417969 10.4492C7.23919 6.75686 12.7488 4.2641 19.9638 0.417969L39.7069 10.4492H35.5272H4.59764H0.417969Z" fill="#F7E3C7"/>
<path d="M20.2146 1.36533L38.093 10.4492H39.7069L19.9638 0.417969C12.7488 4.2641 7.23919 6.75686 0.417969 10.4492H2.43909C8.47153 7.25591 13.6339 4.87333 20.2146 1.36533Z" fill="#DEE0E0"/>
<path d="M39.7069 33.8555V35.5273L30.3453 39.707H9.62662L0.417969 35.5273V33.8555H12.957L14.6289 36.3633H25.496L27.1679 33.8555H39.7069Z" fill="#73665C"/>
<path d="M1.39325 34.6636H13.4957L12.957 33.8555H0.417969V35.5273L1.39325 35.97V34.6636Z" fill="#60534A"/>
<path d="M27.1679 33.8555L25.496 36.3633H14.6289L12.957 33.8555H27.1679Z" fill="#F7E3C7"/>
<path d="M14.3224 34.6078H26.6664L27.1679 33.8555H12.957L14.6289 36.3633H15.4927L14.3224 34.6078Z" fill="#E2BF7F"/>
<path d="M32.1836 18.3906V29.6757H28.0039V18.3906C28.0039 17.2362 28.9393 16.3008 30.0937 16.3008C30.6705 16.3008 31.1938 16.5348 31.5717 16.9127C31.9495 17.2905 32.1836 17.8138 32.1836 18.3906Z" fill="#D7E057"/>
<path d="M28.8955 19.0036C28.8955 17.8492 29.8309 16.9138 30.9853 16.9138C31.2298 16.9138 31.4643 16.9562 31.6825 17.0333C31.647 16.9918 31.6103 16.9513 31.5717 16.9127C31.1938 16.5348 30.6705 16.3008 30.0937 16.3008C28.9393 16.3008 28.0039 17.2362 28.0039 18.3906V29.6757H28.8955V19.0036Z" fill="#E8A664"/>
<path d="M12.1211 18.3906V29.6757H7.94141V18.3906C7.94141 17.2362 8.87682 16.3008 10.0312 16.3008C10.608 16.3008 11.1313 16.5348 11.5092 16.9127C11.887 17.2905 12.1211 17.8138 12.1211 18.3906Z" fill="#D7E057"/>
<path d="M8.66591 19.1151C8.66591 17.9607 9.60132 17.0253 10.7557 17.0253C11.1468 17.0253 11.5131 17.1331 11.8262 17.3201C11.7374 17.1713 11.6309 17.0344 11.5093 16.9127C11.1313 16.5348 10.608 16.3008 10.0312 16.3008C8.87682 16.3008 7.94141 17.2362 7.94141 18.3906V29.6757H8.66591V19.1151Z" fill="#E8A664"/>
<path d="M22.1523 18.3906V29.6757H17.9727V18.3906C17.9727 17.2362 18.9081 16.3008 20.0625 16.3008C20.6393 16.3008 21.1626 16.5348 21.5404 16.9127C21.9183 17.2905 22.1523 17.8138 22.1523 18.3906Z" fill="#D7E057"/>
<path d="M18.725 19.0036C18.725 17.8492 19.6604 16.9138 20.8148 16.9138C21.1396 16.9138 21.4473 16.9879 21.7217 17.1202C21.6657 17.0471 21.6054 16.9776 21.5404 16.9127C21.1626 16.5348 20.6393 16.3008 20.0625 16.3008C18.9081 16.3008 17.9727 17.2362 17.9727 18.3906V29.6757H18.725V19.0036Z" fill="#E8A664"/>
<path d="M20.0625 3.76172C21.2169 3.76172 22.1523 4.69713 22.1523 5.85156C22.1523 7.00598 21.2169 7.94139 20.0625 7.94139C18.9081 7.94139 17.9727 7.00598 17.9727 5.85156C17.9727 4.69713 18.9081 3.76172 20.0625 3.76172Z" fill="#F16C7A"/>
<path d="M18.3906 6.93827C18.3906 5.78384 19.326 4.84843 20.4805 4.84843C21.1596 4.84843 21.7626 5.17236 22.1442 5.67392C22.054 4.60275 21.157 3.76172 20.0625 3.76172C18.9081 3.76172 17.9727 4.69713 17.9727 5.85156C17.9727 6.32687 18.1315 6.7649 18.3986 7.11591C18.3937 7.05731 18.3906 6.99821 18.3906 6.93827Z" fill="#D65B5B"/>
<path d="M35.5273 10.4492V13.793H4.55176L4.59773 10.4492H35.5273Z" fill="#73665C"/>
<path d="M5.40583 11.2852H35.5273V10.4492H4.59773L4.55176 13.793H5.37131L5.40583 11.2852Z" fill="#60534A"/>
<path d="M35.5274 14.211H4.55179C4.43995 14.211 4.33278 14.1662 4.2542 14.0865C4.17562 14.0068 4.13232 13.8991 4.13383 13.7872L4.1798 10.4435C4.18298 10.2127 4.37692 10.0284 4.60346 10.0313C4.83426 10.0345 5.01883 10.2241 5.01565 10.4549L4.97561 13.375H35.1094V10.4493C35.1094 10.2185 35.2965 10.0313 35.5274 10.0313C35.7582 10.0313 35.9453 10.2185 35.9453 10.4493V13.793C35.9453 14.0238 35.7582 14.211 35.5274 14.211Z" fill="#3A312A"/>
<path d="M12.1211 30.0937C11.8903 30.0937 11.7031 29.9066 11.7031 29.6757V18.3906C11.7031 17.9438 11.5292 17.5238 11.2137 17.2082C10.8981 16.8925 10.478 16.7187 10.0312 16.7187C9.10937 16.7187 8.35937 17.4687 8.35937 18.3906V29.6757C8.35937 29.9066 8.17221 30.0937 7.9414 30.0937C7.7106 30.0937 7.52344 29.9066 7.52344 29.6757V18.3906C7.52344 17.0078 8.64844 15.8828 10.0312 15.8828C10.7014 15.8828 11.3312 16.1436 11.8048 16.6171C12.2783 17.0906 12.539 17.7204 12.539 18.3906V29.6757C12.539 29.9066 12.3519 30.0937 12.1211 30.0937Z" fill="#3A312A"/>
<path d="M39.7069 10.8671H0.418008C0.226663 10.8671 0.05981 10.7372 0.0128305 10.5518C-0.0341491 10.3664 0.0508655 10.1727 0.219056 10.0816C3.77596 8.15629 6.91732 6.58632 10.2431 4.92414C13.2272 3.43275 16.313 1.89054 19.7672 0.049141C19.8876 -0.0150588 20.0316 -0.0163963 20.1532 0.0453793L39.8963 10.0766C40.0687 10.1641 40.1585 10.3586 40.1135 10.5466C40.0684 10.7346 39.9003 10.8671 39.7069 10.8671ZM2.08169 10.0312H37.9616L19.9683 0.889088C16.5819 2.69061 13.5505 4.20566 10.6167 5.67189C7.76144 7.09891 5.04232 8.45789 2.08169 10.0312Z" fill="#3A312A"/>
<path d="M22.1523 30.0937C21.9214 30.0937 21.7344 29.9066 21.7344 29.6757V18.3906C21.7344 17.9437 21.5606 17.5238 21.2449 17.2082C20.9293 16.8925 20.5094 16.7187 20.0625 16.7187C19.1406 16.7187 18.3906 17.4687 18.3906 18.3906V29.6757C18.3906 29.9066 18.2035 30.0937 17.9727 30.0937C17.7419 30.0937 17.5547 29.9066 17.5547 29.6757V18.3906C17.5547 17.0078 18.6797 15.8828 20.0625 15.8828C20.7327 15.8828 21.3625 16.1436 21.836 16.6172C22.3095 17.0907 22.5703 17.7204 22.5703 18.3906V29.6757C22.5703 29.9066 22.3832 30.0937 22.1523 30.0937Z" fill="#3A312A"/>
<path d="M32.1836 30.0937C31.9527 30.0937 31.7656 29.9066 31.7656 29.6757V18.3906C31.7656 17.9437 31.5918 17.5238 31.2762 17.2082C30.9605 16.8925 30.5406 16.7187 30.0937 16.7187C29.1719 16.7187 28.4219 17.4687 28.4219 18.3906V29.6757C28.4219 29.9066 28.2348 30.0937 28.0039 30.0937C27.773 30.0937 27.5859 29.9066 27.5859 29.6757V18.3906C27.5859 17.0078 28.7109 15.8828 30.0937 15.8828C30.7639 15.8828 31.3937 16.1436 31.8673 16.6172C32.3407 17.0907 32.6015 17.7204 32.6015 18.3906V29.6757C32.6015 29.9066 32.4145 30.0937 32.1836 30.0937Z" fill="#3A312A"/>
<path d="M20.0625 8.35936C18.6797 8.35936 17.5547 7.23436 17.5547 5.85155C17.5547 4.46875 18.6797 3.34375 20.0625 3.34375C21.4453 3.34375 22.5703 4.46875 22.5703 5.85155C22.5703 7.23436 21.4453 8.35936 20.0625 8.35936ZM20.0625 4.17968C19.1406 4.17968 18.3906 4.92969 18.3906 5.85155C18.3906 6.77342 19.1406 7.52342 20.0625 7.52342C20.9844 7.52342 21.7344 6.77342 21.7344 5.85155C21.7344 4.92969 20.9844 4.17968 20.0625 4.17968Z" fill="#3A312A"/>
<path d="M10.8672 8.4707H5.01562C4.78482 8.4707 4.59766 8.28353 4.59766 8.05273C4.59766 7.82193 4.78482 7.63477 5.01562 7.63477H10.8672C11.098 7.63477 11.2851 7.82193 11.2851 8.05273C11.2851 8.28353 11.098 8.4707 10.8672 8.4707Z" fill="#3A312A"/>
<path d="M30.3453 40.125H9.62662C9.56702 40.125 9.50817 40.1123 9.45392 40.0876L0.245263 35.9079C0.0958817 35.8401 0 35.6913 0 35.5273V33.8555C0 33.6246 0.187166 33.4375 0.417967 33.4375H12.957C13.1878 33.4375 13.375 33.6246 13.375 33.8555C13.375 34.0864 13.1878 34.2734 12.957 34.2734H0.835935V35.258L9.71707 39.289H30.2562L39.2889 35.2562V34.2734H27.1679C26.937 34.2734 26.7499 34.0864 26.7499 33.8555C26.7499 33.6246 26.937 33.4375 27.1679 33.4375H39.7069C39.9378 33.4375 40.1249 33.6246 40.1249 33.8555V35.5273C40.1249 35.6923 40.0279 35.8418 39.8773 35.9089L30.5156 40.0886C30.462 40.1126 30.4039 40.125 30.3453 40.125Z" fill="#3A312A"/>
<path d="M25.496 36.7812H14.6289C14.4891 36.7812 14.3586 36.7114 14.2811 36.5951L12.6093 34.0873C12.5237 33.959 12.5158 33.7941 12.5885 33.6582C12.6613 33.5223 12.8029 33.4375 12.957 33.4375H27.1679C27.322 33.4375 27.4636 33.5223 27.5364 33.6583C27.6091 33.7942 27.6011 33.9591 27.5156 34.0874L25.8438 36.5952C25.7663 36.7114 25.6358 36.7812 25.496 36.7812ZM14.8526 35.9453H25.2723L26.3869 34.2734H13.738L14.8526 35.9453Z" fill="#3A312A"/>
<path d="M36.3632 30.0937H3.76172C3.53092 30.0937 3.34375 29.9067 3.34375 29.6758C3.34375 29.4449 3.53092 29.2578 3.76172 29.2578H36.3632C36.5941 29.2578 36.7811 29.4449 36.7811 29.6758C36.7811 29.9067 36.5941 30.0937 36.3632 30.0937Z" fill="black"/>
</svg>
