<svg width="122" height="48" viewBox="0 0 122 48" fill="none" xmlns="http://www.w3.org/2000/svg">
<path d="M15.3974 17.3279V22.2815H25.1955C24.8956 25.0604 24.1291 27.0942 22.9626 28.5239C21.5296 30.2557 19.2966 32.1485 15.3974 32.1485C9.36519 32.1485 4.64942 26.2686 4.64942 18.9791C4.64942 11.6896 9.36519 5.80971 15.3974 5.80971C18.6468 5.80971 21.0296 7.36023 22.7793 9.35377L25.6621 5.87012C23.2292 3.0107 19.9632 0.835938 15.3974 0.835938C7.13228 0.835938 0.183594 8.97117 0.183594 18.959C0.183594 28.9468 7.13228 37.082 15.3974 37.082C19.8632 37.082 23.2292 35.31 25.8621 32.0076C28.5616 28.7454 29.4114 24.1341 29.4114 20.429C29.4114 19.2812 29.3447 18.2139 29.1948 17.3279H15.3974ZM41.6591 13.3006C36.3101 13.3006 31.9442 18.2139 31.9442 25C31.9442 31.7257 36.3101 36.6994 41.6591 36.6994C47.0081 36.6994 51.3739 31.7458 51.3739 25C51.3739 18.2139 47.0081 13.3006 41.6591 13.3006ZM41.6591 32.0881C38.7263 32.0881 36.1934 29.1683 36.1934 25C36.1934 20.7914 38.7263 17.9119 41.6591 17.9119C44.5919 17.9119 47.1247 20.7914 47.1247 25C47.1247 29.1683 44.5919 32.0881 41.6591 32.0881ZM89.2834 15.9183H89.1334C88.1836 14.549 86.3506 13.3006 84.0344 13.3006C79.202 13.3006 74.9861 18.3951 74.9861 25C74.9861 31.5646 79.202 36.6994 84.0344 36.6994C86.3506 36.6994 88.1836 35.4509 89.1334 34.0414H89.2834V35.6724C89.2834 40.1428 87.3004 42.5391 84.1177 42.5391C81.5182 42.5391 79.9018 40.2838 79.2353 38.3708L75.536 40.2233C76.6025 43.3244 79.4186 47.1302 84.1177 47.1302C89.1001 47.1302 93.316 43.5862 93.316 34.9475V13.9047H89.2834V15.9183ZM84.401 32.0881C81.4682 32.0881 79.2353 29.0676 79.2353 25C79.2353 20.872 81.4682 17.9119 84.401 17.9119C87.3004 17.9119 89.5667 20.9324 89.5667 25.0403C89.5833 29.128 87.3004 32.0881 84.401 32.0881ZM63.3216 13.3006C57.9727 13.3006 53.6068 18.2139 53.6068 25C53.6068 31.7257 57.9727 36.6994 63.3216 36.6994C68.6706 36.6994 73.0365 31.7458 73.0365 25C73.0365 18.2139 68.6706 13.3006 63.3216 13.3006ZM63.3216 32.0881C60.3889 32.0881 57.856 29.1683 57.856 25C57.856 20.7914 60.3889 17.9119 63.3216 17.9119C66.2544 17.9119 68.7873 20.7914 68.7873 25C68.7873 29.1683 66.2544 32.0881 63.3216 32.0881ZM96.6487 1.31922H100.831V36.6994H96.6487V1.31922ZM113.745 32.0881C111.579 32.0881 110.046 30.9 109.046 28.5441L121.994 22.0802L121.561 20.7511C120.761 18.1334 118.295 13.3006 113.279 13.3006C108.296 13.3006 104.147 18.0327 104.147 25C104.147 31.5646 108.246 36.6994 113.745 36.6994C118.178 36.6994 120.744 33.4171 121.811 31.5243L118.511 28.8662C117.411 30.7994 115.912 32.0881 113.745 32.0881ZM113.445 17.6904C115.162 17.6904 116.628 18.7576 117.111 20.2679L108.363 24.6375C108.363 19.7242 111.246 17.6904 113.445 17.6904Z" fill="white"/>
</svg>
