<svg width="110" height="48" viewBox="0 0 110 48" fill="none" xmlns="http://www.w3.org/2000/svg">
<g clip-path="url(#clip0_129_5927)">
<path d="M25.2639 25.1871C25.635 25.0015 26.0432 24.7788 26.4143 24.5933C26.5628 24.5191 27.0824 24.3335 27.1566 24.1851C27.1937 24.1109 27.1566 23.8882 27.1566 23.7769V9.52629C27.1566 9.48918 27.1937 9.2294 27.1566 9.19229C27.1195 9.15518 26.8226 9.19229 26.7855 9.19229H25.969C25.6721 9.19229 25.7092 9.2294 25.5237 9.45207C24.8185 10.3798 24.1134 11.3076 23.4083 12.2725C23.0743 12.7178 22.7403 13.126 22.4434 13.5714C22.2207 13.8683 22.2207 13.9054 21.8125 13.9054L21.9238 11.4561C21.9609 10.8623 21.9609 10.2685 21.998 9.67473C21.998 9.45207 22.0351 9.2294 22.0351 9.00674C22.0351 8.93252 21.998 8.70985 22.0351 8.67274C22.1094 8.56141 22.7774 8.63563 22.9629 8.63563H36.8428C36.917 8.63563 37.251 8.59852 37.3252 8.63563C37.3995 8.67274 37.3623 8.89541 37.3623 9.00674C37.3995 9.48918 37.3995 10.0087 37.4366 10.4912C37.4737 11.5674 37.5108 12.6065 37.585 13.6827V13.9054C37.3995 13.9054 37.251 13.9425 37.1026 13.8311C36.9541 13.7198 36.8428 13.4972 36.7314 13.3487C36.2861 12.7549 35.8408 12.124 35.3583 11.5303L34.0223 9.74896C33.9481 9.63762 33.8367 9.37785 33.6883 9.30362C33.5769 9.2294 33.3543 9.26651 33.2058 9.26651H32.612C32.5378 9.26651 32.2409 9.2294 32.1667 9.26651C32.1296 9.30362 32.1667 9.30362 32.1296 9.37785C32.0553 9.67473 32.1296 10.0458 32.1296 10.3427V23.2573C32.1296 23.5171 32.0553 23.8882 32.1296 24.148C32.2038 24.4077 32.7976 24.5933 33.0574 24.7046C33.3172 24.8531 33.7625 24.9644 33.9852 25.1871C34.0594 25.2613 34.1336 25.6324 34.0594 25.7437C34.0223 25.7808 33.8367 25.7437 33.7996 25.7437H25.635C25.5608 25.7437 25.301 25.7808 25.2639 25.7437C25.2268 25.5953 25.2639 25.2984 25.2639 25.1871ZM39.0324 24.5191V8.78407C39.0324 8.56141 39.1066 8.22741 39.0324 8.00475C38.9582 7.74497 38.5128 7.70786 38.253 7.59653C38.1046 7.55941 37.6221 7.44808 37.5479 7.29964V7.00275H37.6592C37.8077 6.92853 38.1046 6.92853 38.2901 6.89142C38.6241 6.8172 38.9582 6.78009 39.2551 6.70587C39.9973 6.55742 40.7766 6.40898 41.5189 6.29765C41.9642 6.22342 42.4096 6.11209 42.8549 6.03787C42.9662 6.03787 43.4116 5.96365 43.4487 6.03787C43.4858 6.07498 43.4487 6.22342 43.4487 6.26054V13.9425C44.8589 12.5323 47.3083 11.7529 49.2753 12.2354C50.9824 12.6436 51.5391 14.2394 51.5391 15.8722C51.5762 17.9505 51.5391 19.9915 51.5391 22.0698V23.7397C51.5391 23.9253 51.4649 24.3706 51.5391 24.5562C51.5762 24.6304 51.7246 24.6675 51.7989 24.7417C52.0586 24.8902 52.3555 25.0386 52.6153 25.1871C52.6524 25.2242 52.7638 25.2613 52.7638 25.2984C52.8009 25.3355 52.8009 25.6695 52.7638 25.7066C52.7267 25.7808 52.7267 25.7437 52.6153 25.7437C52.2071 25.818 51.7618 25.7437 51.3906 25.7437H46.0465C46.0094 25.7437 45.8238 25.7808 45.7867 25.7437C45.7496 25.7066 45.7496 25.2984 45.7867 25.2613C45.8981 25.1128 46.3434 24.9644 46.4919 24.8531C46.6032 24.7788 46.9372 24.6675 47.0114 24.5562C47.0857 24.4449 47.0114 24.0366 47.0114 23.9253V22.4038C47.0114 20.2513 47.0485 18.0618 47.0114 15.9094C47.0114 15.2785 46.9001 14.5363 46.2692 14.2023C45.9352 14.0167 45.4898 13.9796 45.1187 13.9796C44.8218 13.9796 44.5249 14.0538 44.2652 14.128C44.0425 14.2023 43.6343 14.3507 43.4858 14.5363C43.3745 14.6847 43.4487 14.9074 43.4487 15.0929V23.8511C43.4487 24.0366 43.3745 24.4077 43.4487 24.5562C43.4858 24.6304 43.6342 24.7046 43.7456 24.7417C44.0054 24.8902 44.3394 25.0386 44.5992 25.1871C44.6363 25.2242 44.7105 25.2242 44.7105 25.2613C44.7476 25.2984 44.7476 25.6324 44.7105 25.6695C44.6734 25.7066 44.6363 25.7066 44.562 25.7066C44.1538 25.7437 43.7085 25.7066 43.3002 25.7066H37.9561C37.919 25.7066 37.7335 25.7437 37.6964 25.7066C37.6592 25.6695 37.6964 25.2984 37.7335 25.2242C37.8448 25.0757 38.253 24.9273 38.4015 24.8531C38.6613 24.7417 38.8468 24.6304 39.0324 24.5191ZM56.6605 19.3978C56.7347 21.0307 57.2543 22.8491 58.7388 23.7397C59.5181 24.1851 60.483 24.3335 61.3737 24.2593C62.45 24.148 63.3407 23.6284 64.2685 23.146C64.2685 23.2944 64.3056 23.5542 64.2685 23.7026C64.1942 23.8511 64.0087 24.0366 63.8973 24.148C63.7489 24.2964 63.5633 24.482 63.3778 24.6304C62.7469 25.15 62.0417 25.5211 61.2995 25.7808C59.8893 26.2633 58.2563 26.2262 56.809 25.8551C55.6585 25.5582 54.6194 25.0015 53.84 24.1109C53.0607 23.2202 52.6153 22.0698 52.4298 20.8822C52.0215 18.3216 52.504 15.3898 54.6194 13.6827C56.475 12.1983 59.4439 11.9014 61.6335 12.792C64.3056 13.8683 64.7509 16.9113 64.7509 19.4349H57.6625C57.3285 19.3978 56.9945 19.3978 56.6605 19.3978ZM56.5863 18.7669C57.3285 18.7298 58.0708 18.6927 58.8501 18.6184C59.2955 18.5813 59.7779 18.5813 60.2233 18.5442C60.2975 18.5442 60.483 18.5442 60.5573 18.5071C60.6686 18.4329 60.5944 17.6907 60.5944 17.5422C60.5573 16.2062 60.5202 14.5734 59.7408 13.4229C59.1841 12.6065 58.3306 12.7549 57.811 13.4972C56.7347 14.9445 56.5863 17.0969 56.5863 18.7669ZM0.398926 32.3124C0.398926 30.2341 0.807156 28.0817 1.95762 26.3375C3.07098 24.6304 4.85235 23.5171 6.78217 22.9604C9.12021 22.2924 11.718 22.3666 14.1303 22.812C14.6499 22.9233 15.1694 23.0346 15.6519 23.1831C15.7261 23.2202 16.0601 23.2944 16.0972 23.3686V23.48C16.2086 23.9253 16.1344 24.482 16.1344 24.9273C16.1715 26.0777 16.1715 27.2653 16.2086 28.4157C16.0601 28.4157 15.8003 28.4528 15.689 28.4157C15.6148 28.3786 15.5406 28.193 15.5035 28.1188C15.2066 27.6735 14.9097 27.2282 14.6499 26.7457C14.019 25.7437 13.351 24.7417 12.7201 23.7397C12.3861 23.1831 11.4583 23.1831 10.8645 23.1831C10.1965 23.1831 9.52845 23.2944 8.97177 23.6284C7.70996 24.4077 7.11617 25.9293 6.78217 27.3024C6.2626 29.4919 6.29971 31.7928 6.41105 34.0194C6.52238 35.7265 6.67083 37.545 7.33885 39.1036C7.74708 40.0685 8.4522 40.9221 9.52845 41.1447C9.86245 41.219 10.1965 41.219 10.5676 41.1818C10.7902 41.1447 11.5696 41.1076 11.6809 40.885C11.718 40.8107 11.6809 40.6252 11.6809 40.551V34.4648C11.6809 34.205 11.7552 34.0937 11.5325 33.9452C11.2727 33.7968 10.9758 33.6483 10.716 33.4628C10.5305 33.3515 10.1593 33.2401 10.048 33.0917C9.97379 33.0175 9.93668 32.6092 10.0109 32.535C10.048 32.4608 10.048 32.4979 10.1593 32.4979C10.4934 32.4237 10.9387 32.4979 11.2727 32.4979H17.025C17.3962 32.4979 17.8044 32.4608 18.1755 32.4979H18.324C18.3611 32.535 18.3611 33.0546 18.324 33.1288C18.2497 33.2401 17.8786 33.3886 17.7302 33.4628C17.4704 33.6112 17.1735 33.7597 16.9137 33.9452C16.6168 34.0937 16.6539 34.0937 16.6539 34.4277V40.4767C16.6539 40.551 16.691 40.7365 16.6539 40.8107C16.5797 40.9963 15.8003 41.1076 15.5777 41.1818C14.9468 41.3674 14.2788 41.5158 13.6107 41.6272C12.3118 41.8498 11.0129 41.9241 9.714 41.8869C7.63574 41.8127 5.44614 41.3674 3.73899 40.1056C2.25452 39.0294 1.28961 37.3965 0.844268 35.6152C0.510261 34.5761 0.398926 33.4257 0.398926 32.3124ZM17.5075 28.9353C17.5075 28.861 17.4704 28.5642 17.5075 28.527C17.5446 28.4899 17.5817 28.527 17.6188 28.4899C17.8415 28.3786 18.1384 28.3786 18.3982 28.3415C19.2518 28.193 20.1053 28.0446 20.996 27.8962C21.664 27.7848 22.332 27.6364 22.9629 27.5622C23.1485 27.525 23.3712 27.5251 23.5567 27.5993C23.7423 27.6364 23.6681 27.5993 23.7052 27.7477C23.7794 28.193 23.7052 28.7126 23.7052 29.1579V36.9141C23.7052 37.8419 23.4454 39.549 24.3361 40.1056C24.7814 40.4025 25.4123 40.4025 25.9319 40.2912C26.3401 40.217 27.1195 39.9201 27.2679 39.4747C27.305 39.3634 27.2679 39.215 27.2679 39.1036V30.0115C27.2679 29.9373 27.305 29.7146 27.2679 29.6404C27.1566 29.529 26.7855 29.4177 26.6741 29.3806C26.4515 29.3064 26.2659 29.195 26.0432 29.1208C25.969 29.0837 25.7092 29.0466 25.6721 28.9724C25.635 28.9353 25.635 28.6013 25.6721 28.5642C25.7092 28.527 25.7092 28.5642 25.7463 28.527C25.9319 28.4157 26.2659 28.4528 26.4515 28.4157C27.973 28.1559 29.5317 27.8219 31.0904 27.5993C31.276 27.5622 31.4616 27.5622 31.6471 27.5993C31.8327 27.6364 31.7585 27.5622 31.7956 27.7477C31.8698 28.1188 31.7956 28.6384 31.7956 29.0466V39.7345C31.7956 39.8459 31.7585 40.0314 31.7956 40.1799C31.8327 40.2912 31.7956 40.2541 31.9811 40.3283C32.3522 40.4767 32.7605 40.6623 33.1316 40.8107C33.2429 40.8478 33.28 40.8478 33.3172 40.9221C33.3543 40.9963 33.3543 41.2561 33.3172 41.2561C33.2429 41.3303 32.8718 41.2932 32.7976 41.3303C31.9811 41.4416 31.1647 41.5158 30.3111 41.6272C29.5689 41.7014 28.8266 41.8127 28.1215 41.8869C27.973 41.9241 27.8246 41.9241 27.6761 41.8869C27.6019 41.8869 27.3793 41.8869 27.3421 41.8498C27.305 41.7756 27.3421 41.4787 27.3421 41.4045V40.7736C27.3421 40.6623 27.4164 40.3654 27.3421 40.2541C27.2679 40.1427 27.1195 40.2912 27.0081 40.3654C26.7112 40.6252 26.3772 40.885 26.0432 41.0705C24.8185 41.8127 23.2969 42.1467 21.8867 41.8498C20.8476 41.6272 19.9569 41.0334 19.5115 40.0314C19.1775 39.3263 19.1033 38.547 19.1033 37.8048V30.0115C19.1033 29.9373 19.1404 29.7146 19.1033 29.6404C19.0291 29.529 18.5837 29.4177 18.4724 29.3435C18.1013 29.195 17.8044 29.0837 17.5075 28.9353ZM52.504 27.5251C52.5782 27.5251 52.9122 27.5251 52.9493 27.5993C52.9864 27.6364 52.9493 27.8962 52.9493 27.9333V31.199C52.9493 31.3104 52.9122 31.4959 52.9493 31.6072V31.6815C53.0978 31.8299 53.1349 31.3475 53.172 31.3104C53.506 29.9373 54.1369 28.3415 55.5472 27.7848C55.8069 27.6735 56.0667 27.6364 56.3265 27.5993C56.5492 27.5993 57.1801 27.5251 57.2914 27.7106C57.3285 27.7848 57.2914 27.9704 57.2914 28.0446V31.8299C56.4007 31.6444 55.3987 31.6815 54.5451 31.867C54.1369 31.9412 53.7658 32.0526 53.3947 32.2381C53.2091 32.3123 53.172 32.2752 53.1349 32.4237C53.0978 32.5721 53.1349 32.8319 53.1349 32.9803V40.1427C53.1349 40.217 53.0978 40.3283 53.1349 40.4025C53.2091 40.5138 53.4689 40.5881 53.5802 40.6252C53.7658 40.7365 53.9885 40.8478 54.174 40.9592C54.2482 40.9963 54.3596 41.0334 54.3967 41.1076C54.4338 41.1447 54.4338 41.5901 54.3967 41.6272C54.3596 41.6643 54.1369 41.6272 54.0627 41.6272H47.9021C47.7166 41.6272 47.3825 41.7014 47.2341 41.6272H47.1228C47.0857 41.5901 47.1228 41.1818 47.1228 41.1447C47.197 40.9221 47.6794 40.7736 47.9021 40.6623C48.0506 40.5881 48.3475 40.4767 48.4217 40.3283C48.4588 40.2541 48.4217 40.0314 48.4217 39.9572V29.6404C48.4217 29.6033 48.4588 29.4177 48.4217 29.3806C48.3846 29.3435 48.199 29.3064 48.1248 29.3064C47.9021 29.2321 47.6794 29.1579 47.4568 29.1208C47.2341 29.0466 46.6774 29.0095 46.863 28.6384C46.9001 28.527 47.0485 28.5642 47.197 28.527C48.8299 28.2302 50.4257 27.9333 52.0586 27.6364C52.2071 27.5622 52.3555 27.5622 52.504 27.5251ZM66.4952 27.859V24.0366C66.4952 23.9253 66.5323 23.7026 66.4952 23.5913C66.4581 23.5171 66.3096 23.48 66.1983 23.4429C65.9014 23.3315 65.6045 23.2202 65.2705 23.1089C65.0478 23.0346 64.9365 23.0717 64.9365 22.812C64.9365 22.5893 64.8994 22.6635 65.0849 22.6264C65.4931 22.478 65.9756 22.478 66.3838 22.4038C67.6085 22.1811 68.7961 21.9584 70.0208 21.7358C70.2806 21.6986 70.5404 21.6244 70.8001 21.6615C71.097 21.6986 71.1341 21.6244 71.1341 21.8842C71.1713 22.478 71.1341 23.1089 71.1341 23.7026V39.9572C71.1341 40.1056 71.097 40.1056 71.2084 40.1799C71.431 40.3283 71.8022 40.4025 72.0248 40.4767C72.1733 40.5138 72.5815 40.5881 72.6557 40.6994C72.6928 40.7365 72.6928 41.1447 72.6557 41.1818C72.6186 41.219 72.396 41.219 72.3588 41.219C71.8393 41.2932 71.3568 41.3674 70.8372 41.4045C69.6868 41.553 68.5363 41.7014 67.3487 41.8498C67.1632 41.8869 66.7178 41.9612 66.6436 41.8127C66.5694 41.6643 66.6436 41.1818 66.6436 41.0334C66.6436 40.9221 66.7178 40.4396 66.6436 40.3654C66.5694 40.2912 65.7529 41.0334 65.6416 41.1076C65.1962 41.4045 64.7138 41.6272 64.1942 41.7756C63.3778 41.9983 62.45 41.9983 61.6335 41.8127C58.0708 40.9963 57.3285 36.7657 57.6254 33.6855C57.7739 32.0526 58.2934 30.4197 59.4068 29.2321C60.4459 28.1559 61.8562 27.5993 63.3035 27.4879C64.4169 27.3766 65.4931 27.4508 66.4952 27.859ZM66.4952 39.6974V28.861C66.4952 28.6384 66.458 28.6013 66.1983 28.4528C65.6787 28.1559 65.0107 28.0446 64.454 28.2673C63.6004 28.6013 63.1922 29.6033 62.9695 30.4197C62.5242 31.9041 62.4871 33.4999 62.5242 35.0586C62.5613 36.3945 62.5984 38.0274 63.3407 39.215C64.0087 40.2541 65.5303 40.5139 66.4952 39.6974ZM78.7792 27.5251C78.9648 27.5622 79.1874 27.4879 79.2616 27.6735C79.2988 27.7848 79.2616 28.0446 79.2616 28.1559V39.7716C79.2616 39.9201 79.2245 40.1427 79.2616 40.2912C79.2988 40.4396 79.4472 40.4767 79.5956 40.551C79.8183 40.6623 80.0039 40.7736 80.2266 40.885C80.3008 40.9221 80.5234 40.9963 80.5606 41.1076C80.5606 41.1447 80.5977 41.5901 80.5606 41.6272H80.4492C80.2266 41.6643 79.9297 41.6272 79.6699 41.6272H74.0289C73.8804 41.6272 73.4722 41.7014 73.3609 41.6272C73.2866 41.5901 73.2495 41.1447 73.3237 41.0705C73.398 40.9592 73.6578 40.885 73.7691 40.8478C73.9918 40.7365 74.2144 40.5881 74.4371 40.4767C74.6227 40.3654 74.5855 40.4025 74.5855 40.2541C74.6598 39.6974 74.5855 39.0665 74.5855 38.5099V30.2341C74.5855 30.0857 74.6227 29.8259 74.5855 29.6775C74.5484 29.529 74.3629 29.529 74.2144 29.4548C73.9547 29.3435 73.732 29.2693 73.4722 29.1579C73.398 29.1208 73.1011 29.0837 73.0269 28.9724C72.9897 28.9353 72.9897 28.5642 73.0269 28.527C73.064 28.4899 73.1382 28.527 73.1753 28.4899C73.4722 28.3786 73.8062 28.3786 74.1402 28.3044C74.6227 28.2302 75.068 28.1188 75.5505 28.0446C76.4782 27.8962 77.3689 27.7106 78.2967 27.5622C78.4823 27.5993 78.6307 27.5622 78.7792 27.5251ZM79.2988 24.0737C79.2245 26.3004 76.2185 27.2653 74.8453 25.5211C74.2144 24.7046 74.1773 23.5913 74.734 22.7378C75.2907 21.8842 76.3669 21.5131 77.3689 21.7358C78.4823 21.9584 79.2988 22.9233 79.2988 24.0737ZM95.5537 40.3654V29.7146C95.5537 29.6775 95.5909 29.4919 95.5537 29.4548C95.5166 29.3806 95.294 29.3435 95.2197 29.3435L94.5517 29.1208C94.4404 29.0837 94.1435 29.0466 94.0693 28.9353C93.9951 28.861 94.0322 28.6755 94.0322 28.5642C94.0322 28.3415 94.1064 28.3786 94.3291 28.3415L96.7785 27.8962L99.2278 27.4508C99.3763 27.4137 99.4876 27.3766 99.6361 27.3766C99.7103 27.3766 100.081 27.3766 100.156 27.4137C100.193 27.4508 100.156 27.6735 100.156 27.7477V28.4528C100.156 28.5642 100.081 28.8982 100.156 29.0095C100.23 29.1579 100.378 29.0095 100.49 28.8982C100.824 28.6384 101.158 28.4157 101.529 28.2302C102.865 27.4879 104.461 27.1539 105.982 27.3766C107.021 27.525 107.875 28.0817 108.246 29.0837C108.506 29.7888 108.543 30.531 108.543 31.2732V39.7345C108.543 39.883 108.506 40.1427 108.543 40.2912C108.58 40.4396 108.691 40.4767 108.877 40.551C109.062 40.6623 109.285 40.7736 109.471 40.885C109.545 40.9221 109.805 40.9963 109.842 41.1076C109.879 41.1818 109.879 41.553 109.842 41.5901C109.805 41.6643 109.879 41.5901 109.768 41.6272C109.619 41.7014 109.285 41.6272 109.1 41.6272H103.793C103.57 41.6272 102.716 41.7385 102.605 41.5901C102.568 41.553 102.568 41.1447 102.605 41.0705C102.642 40.9963 102.865 40.9221 102.939 40.885C103.162 40.7736 103.347 40.6623 103.57 40.551C103.644 40.5138 103.867 40.4396 103.904 40.3654C103.941 40.2912 103.904 40.1427 103.904 40.0685V31.6444C103.904 31.0506 103.941 30.3826 103.57 29.863C103.273 29.4177 102.753 29.3064 102.234 29.2693C101.826 29.2693 101.455 29.3064 101.083 29.4177C100.898 29.4919 100.341 29.6404 100.23 29.863C100.193 29.9373 100.23 30.0857 100.23 30.1599V39.7716C100.23 39.883 100.193 40.1427 100.23 40.2541C100.267 40.4025 100.49 40.4396 100.601 40.5138C100.787 40.6252 101.009 40.7365 101.195 40.8478C101.269 40.885 101.417 40.9592 101.455 40.9963C101.492 41.0334 101.492 41.4787 101.455 41.5158C101.455 41.553 101.417 41.5158 101.38 41.5158C101.232 41.5901 100.861 41.5158 100.712 41.5158H94.4775C94.2919 41.5158 94.2548 41.553 94.2177 41.4416C94.1806 41.3674 94.1806 41.0334 94.2177 40.9592C94.2548 40.885 94.4775 40.8107 94.5517 40.7736C94.9229 40.7365 95.2197 40.551 95.5537 40.3654ZM87.686 33.537C87.686 32.5721 87.7232 31.5701 87.6489 30.5681C87.5376 29.4919 87.2407 28.3044 86.016 28.0817C85.6449 28.0075 84.9769 27.8962 84.7171 28.193C84.4573 28.4528 84.2717 28.8239 84.0491 29.1208L82.1564 31.6815C82.045 31.8299 81.9337 32.1268 81.7852 32.201C81.7481 32.2381 81.377 32.2381 81.377 32.201C81.3399 32.1639 81.377 31.9041 81.377 31.8299V28.8239C81.377 28.7126 81.3399 28.527 81.377 28.4157C81.4512 28.2302 82.2677 28.1188 82.4533 28.0446C83.4924 27.7848 84.5686 27.5993 85.6449 27.5251C87.1665 27.4137 88.8736 27.4508 90.2839 28.1188C91.3972 28.6384 92.1023 29.5661 92.2879 30.7537C92.3992 31.3475 92.3621 32.0155 92.3621 32.6092V40.0314C92.3621 40.1427 92.2879 40.4396 92.3621 40.5138C92.3992 40.551 92.5848 40.5881 92.6219 40.5881C92.9188 40.6623 93.1786 40.7365 93.4755 40.8107C93.661 40.8478 93.6982 40.8478 93.6982 41.0334C93.6982 41.219 93.7353 41.219 93.5126 41.2932C93.2528 41.4045 92.993 41.5158 92.7333 41.5901C91.3601 41.9983 89.2076 42.1096 88.2056 40.8478C88.1314 40.7365 87.9087 40.2541 87.7974 40.217C87.6489 40.1798 87.2036 40.7736 87.0551 40.885C86.4613 41.4045 85.682 41.7014 84.9026 41.8127C83.4553 41.9983 81.8966 41.7014 81.0059 40.4396C80.2637 39.3634 80.1152 37.6934 80.6719 36.5059C81.6739 34.2421 84.6429 34.0194 86.7953 33.6483C87.0551 33.6483 87.352 33.5741 87.686 33.537ZM87.686 39.6974V34.205C86.5727 34.2792 85.4222 34.3534 85.014 35.5781C84.7171 36.3945 84.7171 37.3594 84.8284 38.213C84.9026 38.8068 85.0511 39.549 85.6078 39.9201C86.2016 40.3283 87.2036 40.2541 87.686 39.6974ZM40.7024 33.537C40.7024 32.5721 40.7395 31.5701 40.6653 30.5681C40.554 29.4919 40.2571 28.3044 39.0324 28.0817C38.6613 28.0075 37.9932 27.8962 37.7335 28.193C37.4737 28.4528 37.2881 28.8239 37.0654 29.1208L35.1727 31.6815C35.0614 31.8299 34.9501 32.1268 34.8016 32.201C34.7645 32.2381 34.3934 32.2381 34.3934 32.201C34.3563 32.1639 34.3934 31.9041 34.3934 31.8299V28.861C34.3934 28.7497 34.3563 28.5642 34.3934 28.4528C34.4676 28.2673 35.247 28.1559 35.4696 28.0817C36.5088 27.8219 37.585 27.6364 38.6241 27.5622C40.1457 27.4508 41.8529 27.4879 43.2631 28.1559C44.3765 28.6755 45.0816 29.6033 45.2672 30.7908C45.3785 31.3846 45.3414 32.0526 45.3414 32.6463V40.0685C45.3414 40.1799 45.2672 40.4767 45.3414 40.551C45.3785 40.5881 45.5641 40.6252 45.6012 40.6252C45.8981 40.6994 46.1579 40.7736 46.4548 40.8478C46.6403 40.885 46.6774 40.885 46.6774 41.0705C46.6774 41.2561 46.7145 41.2561 46.4919 41.3303C46.2321 41.4416 45.9723 41.553 45.7125 41.6272C44.3394 42.0354 42.1869 42.1467 41.1849 40.885C41.1106 40.7736 40.888 40.2912 40.7766 40.2541C40.6282 40.217 40.1828 40.8107 40.0715 40.9221C39.4777 41.4416 38.6984 41.7385 37.919 41.8498C36.4717 42.0354 34.913 41.7385 34.0223 40.4767C33.28 39.4005 33.1316 37.7305 33.6883 36.543C34.6903 34.2792 37.6592 34.0566 39.7746 33.6855C40.0715 33.6483 40.3684 33.5741 40.7024 33.537ZM40.7024 39.6974V34.205C39.5891 34.2792 38.4386 34.3534 38.0304 35.5781C37.7335 36.3945 37.7335 37.3594 37.8448 38.213C37.919 38.8068 38.0675 39.549 38.6241 39.9201C39.2179 40.3283 40.22 40.2541 40.7024 39.6974Z" fill="white"/>
</g>
<defs>
<clipPath id="clip0_129_5927">
<rect width="109.48" height="48" fill="white" transform="translate(0.436035)"/>
</clipPath>
</defs>
</svg>
