<svg width="166" height="32" viewBox="0 0 166 32" fill="none" xmlns="http://www.w3.org/2000/svg">
<path d="M165.504 14.5346V10.515H160.513V4.26642L160.345 4.31784L155.656 5.75264L155.564 5.78064V10.5156H148.164V7.8777C148.164 6.64918 148.438 5.70922 148.979 5.08267C149.517 4.46326 150.286 4.14842 151.266 4.14842C151.971 4.14842 152.701 4.31441 153.436 4.64183L153.62 4.72411V0.491137L153.533 0.459138C152.848 0.212862 151.916 0.0888672 150.761 0.0888672C149.305 0.0888672 147.982 0.405712 146.828 1.03369C145.674 1.66223 144.766 2.5602 144.13 3.7013C143.496 4.84125 143.174 6.15805 143.174 7.61514V10.5147H139.698V14.5346H143.174V31.4682H148.164V14.5346H155.564V25.2956C155.564 29.7277 157.654 31.9736 161.777 31.9736C162.454 31.9736 163.168 31.8942 163.896 31.7388C164.637 31.579 165.141 31.4196 165.439 31.2493L165.504 31.2105V27.1535L165.301 27.2878C165.03 27.4684 164.693 27.6158 164.298 27.7255C163.901 27.8369 163.569 27.8932 163.312 27.8932C162.346 27.8932 161.632 27.6329 161.189 27.1192C160.74 26.601 160.513 25.6947 160.513 24.427V14.5346H165.504ZM128.556 27.894C126.745 27.894 125.317 27.2935 124.311 26.1107C123.298 24.9219 122.786 23.2268 122.786 21.0732C122.786 18.8516 123.298 17.1125 124.311 15.9025C125.318 14.7009 126.732 14.0906 128.515 14.0906C130.246 14.0906 131.623 14.6734 132.609 15.8231C133.601 16.9791 134.104 18.7041 134.104 20.952C134.104 23.2274 133.631 24.975 132.698 26.1444C131.771 27.3044 130.378 27.894 128.556 27.894ZM128.778 10.0102C125.323 10.0102 122.579 11.0227 120.622 13.0195C118.666 15.0166 117.675 17.7799 117.675 21.234C117.675 24.5148 118.643 27.1538 120.551 29.076C122.461 30.9991 125.058 31.9733 128.273 31.9733C131.622 31.9733 134.311 30.9468 136.267 28.9223C138.223 26.9001 139.214 24.1625 139.214 20.7895C139.214 17.4573 138.284 14.7989 136.45 12.8892C134.614 10.9787 132.033 10.0102 128.778 10.0102ZM109.63 10.0102C107.28 10.0102 105.336 10.6116 103.851 11.7967C102.356 12.9892 101.599 14.5532 101.599 16.4454C101.599 17.429 101.762 18.303 102.084 19.0441C102.408 19.7875 102.909 20.4423 103.575 20.9918C104.236 21.5366 105.256 22.1077 106.608 22.6885C107.744 23.156 108.592 23.5514 109.13 23.8634C109.657 24.1691 110.03 24.4759 110.241 24.7753C110.446 25.0679 110.55 25.4687 110.55 25.963C110.55 27.3706 109.495 28.0558 107.326 28.0558C106.522 28.0558 105.604 27.8878 104.599 27.5563C103.6 27.2301 102.658 26.7525 101.805 26.1401L101.598 25.9916V30.7954L101.674 30.8308C102.38 31.1565 103.27 31.4313 104.319 31.6476C105.367 31.8642 106.318 31.9742 107.144 31.9742C109.695 31.9742 111.749 31.3702 113.247 30.1777C114.755 28.9771 115.52 27.3764 115.52 25.4187C115.52 24.0062 115.108 22.7951 114.297 21.8183C113.492 20.8492 112.094 19.9598 110.144 19.1735C108.59 18.5501 107.595 18.0324 107.185 17.635C106.789 17.2513 106.588 16.7085 106.588 16.0211C106.588 15.4117 106.836 14.9237 107.345 14.5283C107.858 14.1312 108.573 13.9289 109.469 13.9289C110.3 13.9289 111.151 14.0603 111.996 14.3174C112.842 14.5749 113.584 14.9197 114.204 15.3414L114.408 15.4805V10.9236L114.33 10.8902C113.758 10.6447 113.004 10.435 112.088 10.2647C111.176 10.0956 110.349 10.0102 109.63 10.0102ZM88.5911 27.894C86.7807 27.894 85.3522 27.2935 84.3462 26.1107C83.3337 24.9219 82.8217 23.2274 82.8217 21.0732C82.8217 18.8516 83.3343 17.1125 84.3474 15.9025C85.3533 14.7009 86.7672 14.0906 88.5511 14.0906C90.2805 14.0906 91.6578 14.6734 92.6446 15.8231C93.6363 16.9791 94.1391 18.7041 94.1391 20.952C94.1391 23.2274 93.6657 24.975 92.7329 26.1444C91.8061 27.3044 90.4136 27.894 88.5911 27.894ZM88.8137 10.0102C85.3576 10.0102 82.6132 11.0227 80.6575 13.0195C78.7022 15.0166 77.71 17.7799 77.71 21.234C77.71 24.5162 78.6785 27.1538 80.5876 29.076C82.4963 30.9991 85.0942 31.9733 88.3083 31.9733C91.657 31.9733 94.3471 30.9468 96.303 28.9223C98.2583 26.9001 99.2494 24.1625 99.2494 20.7895C99.2494 17.4573 98.3195 14.7989 96.4847 12.8892C94.6488 10.9787 92.0678 10.0102 88.8137 10.0102ZM70.1361 14.1437V10.5153H65.2075V31.4682H70.1361V20.7498C70.1361 18.9273 70.5492 17.4299 71.3646 16.2991C72.1697 15.1817 73.2425 14.6154 74.5524 14.6154C74.9964 14.6154 75.4947 14.6886 76.0344 14.8334C76.5686 14.9774 76.9555 15.1334 77.1837 15.2983L77.3909 15.4483V10.4793L77.3109 10.445C76.852 10.2499 76.2026 10.1516 75.381 10.1516C74.1425 10.1516 73.0339 10.5496 72.0846 11.333C71.2512 12.0218 70.6489 12.9661 70.1884 14.1437H70.1361ZM56.3808 10.0102C54.1198 10.0102 52.1027 10.495 50.3874 11.451C48.6683 12.4089 47.339 13.7766 46.4345 15.516C45.5339 17.2508 45.0765 19.2775 45.0765 21.5377C45.0765 23.5174 45.5199 25.3342 46.3962 26.9352C47.2727 28.5392 48.5135 29.794 50.0843 30.6642C51.6528 31.5333 53.4655 31.9739 55.4726 31.9739C57.815 31.9739 59.8149 31.5056 61.4183 30.5822L61.4828 30.5451V26.0296L61.2757 26.181C60.538 26.7157 59.7255 27.1388 58.8644 27.4364C57.9933 27.7403 57.199 27.894 56.5028 27.894C54.5689 27.894 53.0161 27.2889 51.8893 26.0958C50.76 24.9013 50.1871 23.2237 50.1871 21.1129C50.1871 18.9887 50.7845 17.2682 51.9613 15.9988C53.1347 14.7329 54.69 14.0906 56.5842 14.0906C58.2041 14.0906 59.7826 14.6391 61.2763 15.7225L61.4828 15.8728V11.1147L61.4163 11.077C60.8543 10.7624 60.0875 10.5027 59.1361 10.3056C58.1884 10.109 57.2616 10.0102 56.3808 10.0102ZM41.6821 10.5153H36.7533V31.4682H41.6821V10.5153ZM39.268 1.58909C38.4569 1.58909 37.7495 1.86537 37.1681 2.41249C36.5844 2.96132 36.2884 3.65244 36.2884 4.46784C36.2884 5.27038 36.581 5.94863 37.1589 6.4829C37.7335 7.01545 38.4432 7.28544 39.2683 7.28544C40.0934 7.28544 40.8056 7.01545 41.387 6.48376C41.9718 5.94863 42.2687 5.27066 42.2687 4.46784C42.2687 3.68072 41.9798 2.99704 41.411 2.43477C40.8425 1.87365 40.1214 1.58909 39.268 1.58909ZM26.9706 8.96937V31.4682H32.0006V2.2305H25.039L16.19 23.9473L7.60276 2.2305H0.357422V31.4682H5.08461V8.96709H5.24688L14.315 31.4682H17.8819L26.8083 8.96909H26.9706V8.96937Z" fill="white"/>
</svg>
