<svg width="184" height="40" viewBox="0 0 184 40" fill="none" xmlns="http://www.w3.org/2000/svg">
<path fill-rule="evenodd" clip-rule="evenodd" d="M180.912 16.7745C180.573 16.7749 180.237 16.7083 179.925 16.5787C179.612 16.4491 179.327 16.2589 179.088 16.0192C178.849 15.7794 178.659 15.4948 178.53 15.1815C178.401 14.8683 178.335 14.5327 178.336 14.194C178.336 13.5096 178.608 12.8532 179.092 12.3693C179.576 11.8853 180.232 11.6134 180.917 11.6134C181.601 11.6134 182.258 11.8853 182.742 12.3693C183.226 12.8532 183.497 13.5096 183.497 14.194C183.497 14.5333 183.43 14.8693 183.3 15.1827C183.17 15.4961 182.98 15.7809 182.74 16.0205C182.5 16.2602 182.214 16.4502 181.901 16.5796C181.587 16.709 181.251 16.7752 180.912 16.7745ZM180.912 12.0831C179.756 12.0831 178.825 13.0211 178.825 14.194C178.825 15.3681 179.756 16.3049 180.912 16.3049C182.06 16.3049 183.008 15.3669 183.008 14.194C183.008 13.0198 182.059 12.0831 180.912 12.0831ZM180.527 14.6069V15.6675H179.916V12.7205H181.082C181.655 12.7205 182.135 13.0211 182.135 13.6495C182.144 13.8324 182.094 14.0133 181.992 14.1655C181.89 14.3177 181.742 14.4331 181.57 14.4946L182.181 15.6675H181.514L180.977 14.6069H180.527ZM181.514 13.6689C181.514 13.3773 181.269 13.3024 181.034 13.3024H180.527V14.034H181.043C181.269 14.034 181.514 13.9411 181.514 13.6689ZM76.6363 30.9676L67.8107 17.7293V30.9676H63.8883V11.7722H68.4236L76.7588 24.2994V11.7722H80.6813V30.9676H76.6363ZM83.018 24.4465C83.018 20.5486 86.2295 17.5823 90.201 17.5823C94.148 17.5823 97.3104 20.4751 97.3104 24.373C97.3104 28.3199 94.0989 31.2618 90.152 31.2618C86.1805 31.2618 83.018 28.3935 83.018 24.4465ZM86.9405 24.3975C86.9405 26.3832 88.3869 27.7561 90.1765 27.7561C91.9661 27.7561 93.388 26.3832 93.388 24.3975C93.388 22.4363 91.9416 21.0634 90.152 21.0634C88.3623 21.0634 86.9405 22.4363 86.9405 24.3975ZM106.687 17.8764V21.6273C106.172 21.5292 105.633 21.5292 105.461 21.5292C103.622 21.5292 102.348 22.804 102.348 25.231V30.9676H98.5968V17.8764H102.225V19.7886H102.274C102.985 18.2932 104.309 17.7293 105.657 17.7293C105.951 17.7293 106.417 17.8029 106.687 17.8764ZM117.733 30.9676V29.3005H117.684C116.458 31.0901 114.497 31.2127 113.614 31.2127C109.815 31.2127 107.388 27.9277 107.388 24.3975C107.388 21.0879 109.913 17.6313 113.663 17.6313C114.423 17.6313 116.238 17.7784 117.586 19.3719H117.635V11.0122H121.435V30.9676H117.733ZM117.733 24.3975C117.733 22.4363 116.287 21.0879 114.497 21.0879C112.707 21.0879 111.261 22.4363 111.261 24.3975C111.261 26.3832 112.707 27.7561 114.497 27.7561C116.287 27.7561 117.733 26.3832 117.733 24.3975ZM129.562 30.9676L122.624 11.7722H126.915L131.891 26.3587L136.892 11.7722H141.109L134.147 30.9676H129.562ZM156.738 17.9255C156.738 22.1666 153.747 24.2014 149.727 24.2014H146.711V30.9676H142.74V11.7722H149.874C153.723 11.7722 156.738 13.8559 156.738 17.9255ZM152.742 18.0235C152.742 16.1604 151.173 15.523 149.531 15.523H146.711V20.4996H149.555C151.124 20.4996 152.742 19.8131 152.742 18.0235ZM171.485 30.9676L162.659 17.7293V30.9676H158.737V11.7722H163.272L171.607 24.2994V11.7722H175.53V30.9676H171.485ZM5.06432 39.9995C1.94438 35.6983 0.26844 30.5188 0.277379 25.2052C0.277379 11.2844 11.539 0.000976562 25.4301 0.000976562C39.3226 0.000976562 50.5829 11.2844 50.5829 25.2052C50.592 30.5188 48.916 35.6984 45.7959 39.9995L33.715 20.3422L32.5486 22.3163L33.7318 27.8051L25.4301 13.5734L20.2948 22.2608L21.4909 27.8051L17.1388 20.3525L5.06432 39.9995Z" fill="white"/>
</svg>
