<svg width="115" height="48" viewBox="0 0 115 48" fill="none" xmlns="http://www.w3.org/2000/svg">
<g clip-path="url(#clip0_129_5918)">
<mask id="mask0_129_5918" style="mask-type:luminance" maskUnits="userSpaceOnUse" x="0" y="8" width="115" height="33">
<path d="M0.271484 8.00098H114.662V40.0273H0.271484V8.00098Z" fill="white"/>
</mask>
<g mask="url(#mask0_129_5918)">
<path d="M17.3309 18.2743C17.3309 15.5993 16.003 14.1947 12.8209 14.1947H8.75082V22.3988H12.8161C16.0046 22.3988 17.3309 21.0389 17.3309 18.2743ZM26.215 18.3639C26.215 21.6533 24.572 23.9347 21.489 25.6962L28.2949 39.2951H18.766L13.3265 28.0192H8.75082V39.2919H0.271484V8.5791H14.1472C22.4553 8.5791 26.215 12.5724 26.215 18.3639ZM89.2933 8.65062L85.9815 15.1445H96.8095V39.3586H105.34V15.1445H114.662V8.65062H89.2933ZM81.8651 8.61702H86.5047L68.2501 23.5742V18.3699L81.8651 8.61702Z" fill="white"/>
<path d="M81.8165 8.61719H86.6642L79.6247 22.3329L71.9453 25.8158L81.8165 8.61719Z" fill="white"/>
<path d="M71.93 25.8151L79.6094 22.3322L87.9768 39.2669H78.4079L71.93 25.8151ZM68.4073 8.64062H59.9199V39.3054H68.4073V8.64062Z" fill="white"/>
<path fill-rule="evenodd" clip-rule="evenodd" d="M42.8372 8.00098C38.46 8.00098 34.9243 9.44086 32.2781 12.3014C29.6319 15.162 28.3008 19.0129 28.3008 23.9693V24.0573C28.3008 29.0169 29.6266 32.9217 32.2781 35.7716C34.9323 38.6226 38.4648 40.0273 42.8372 40.0273C47.2097 40.0273 50.747 38.6226 53.3548 35.7716C56.0063 32.9195 57.3321 29.0148 57.3321 24.0573V23.9693C57.3321 19.0097 56.0058 15.1556 53.3548 12.3014C50.747 9.44886 47.2129 8.00098 42.8372 8.00098ZM42.7956 14.2405C41.0102 14.2405 39.5671 15.1444 38.4856 16.9283C37.4041 18.7121 36.8617 21.1215 36.8617 24.2205V24.2749C36.8617 27.3755 37.4029 29.8164 38.4856 31.5975C39.5687 33.3798 41.0102 34.2565 42.7956 34.2565C44.5811 34.2565 46.0242 33.3798 47.0881 31.5975C48.152 29.8153 48.712 27.3739 48.712 24.2749V24.2205C48.712 21.1215 48.1712 18.7121 47.0881 16.9283C46.005 15.1444 44.5891 14.2469 42.7956 14.2469V14.2405Z" fill="white"/>
</g>
</g>
<defs>
<clipPath id="clip0_129_5918">
<rect width="114.391" height="48" fill="white" transform="translate(0.271484)"/>
</clipPath>
</defs>
</svg>
