<svg width="134" height="48" viewBox="0 0 134 48" fill="none" xmlns="http://www.w3.org/2000/svg">
<g clip-path="url(#clip0_129_5929)">
<path d="M42.516 13.0014H49.1815L54.3472 26.8333H54.5139L59.1797 13.0014H65.5119L57.5133 33.3327H50.8478L42.516 13.0014ZM18.0202 18.0009H11.8547V24.8335C11.8547 26.0001 12.0213 27.4999 13.0211 28.1665C14.0209 28.8331 15.5207 28.6665 16.6871 28.4998C17.3537 28.4998 17.687 28.3332 18.0202 27.9999V33.166C17.1871 33.3327 16.5205 33.4993 15.6873 33.666C11.3547 34.1659 5.02252 33.3327 5.02252 27.6666V18.0009H0.689941V13.0014H5.02252V7.002H11.8547V13.0014H18.0202V18.0009ZM35.5172 13.0014H41.6828V33.3327H35.5172V13.0014ZM35.1839 7.50195C35.1839 5.6688 36.6836 4.16895 38.5167 4.16895C40.3497 4.16895 41.8494 5.6688 41.8494 7.50195C41.8494 9.33509 40.3497 10.8349 38.5167 10.8349C36.8503 10.8349 35.1839 9.33509 35.1839 7.50195ZM112.504 23.167C112.504 25.8334 114.17 28.3332 117.003 28.3332C120.002 28.3332 121.502 26.0001 121.502 23.167C121.502 20.5006 119.836 18.0009 117.003 18.0009C114.003 18.0009 112.504 20.334 112.504 23.167ZM106.838 23.167C106.838 18.8341 109.171 14.6679 113.337 13.168C117.503 11.6682 122.502 12.8347 125.168 16.3344C127.668 19.6674 128.001 24.6669 126.001 28.4998C124.002 32.4994 119.336 34.3326 115.003 33.4993C109.837 32.6661 106.838 28.1665 106.838 23.167ZM100.173 12.8347V15.6678H100.006C99.8392 15.5011 99.6726 15.3345 99.3393 14.8345C95.34 11.3349 88.3413 12.0015 85.8417 17.001C84.5086 19.5007 84.342 22.6671 84.6752 25.5001C85.0085 27.9999 86.0083 30.8329 88.1746 32.3328C90.6742 33.9993 94.0069 34.3326 96.8398 33.166C98.1729 32.6661 99.0061 31.6662 99.3393 31.1662V33.166C99.3393 34.6659 99.0061 35.8324 98.1729 36.6657C96.3399 38.4988 93.0071 38.3322 90.6742 37.8322C89.5077 37.4989 88.1746 36.999 87.0082 36.1657L84.1753 40.6653C85.8417 41.8318 87.3414 42.4984 89.0078 42.9984C93.507 44.1649 99.6726 44.1649 103.005 40.6653C105.005 38.6655 105.672 35.8324 105.672 31.8328V12.8347H100.173ZM98.6728 26.8333C97.0064 28.8331 93.6737 28.8331 92.0073 26.8333C90.3409 24.8335 90.3409 21.3339 92.0073 19.3341C93.6737 17.3343 97.0064 17.3343 98.6728 19.3341C100.339 21.3339 100.339 24.8335 98.6728 26.8333C99.506 25.8334 97.8396 27.8332 98.6728 26.8333ZM19.6866 13.0014H26.0188V16.3344C26.6854 15.0012 27.5186 14.1679 28.3518 13.5013C30.3514 12.1681 33.5175 12.6681 33.8508 12.8347V18.5008C32.5177 18.1675 29.8515 17.6676 28.0185 18.8341C26.852 19.5007 25.8522 20.5006 25.8522 25.0002V33.4993H19.52V13.0014H19.6866ZM71.3442 25.1668C70.1778 26.0001 69.1779 27.4999 70.3444 28.6665C71.5109 29.833 73.5105 29.6664 74.8436 29.1664C76.3434 28.6665 77.5098 27.4999 77.5098 25.6668V24.3336C77.6765 24.5002 73.0106 24.1669 71.3442 25.1668ZM77.6765 30.8329C76.8433 31.8328 76.0101 32.6661 74.8436 33.166C70.3444 34.9992 64.0122 33.166 64.0122 27.6666C64.0122 21.8338 70.3444 20.6673 74.8436 20.5006H77.6765C77.6765 19.3341 77.3432 18.5008 76.51 17.8342C75.0103 16.501 72.6773 16.6677 70.8443 17.5009C70.0111 18.0009 69.178 18.5008 68.5114 19.3341L65.1786 15.8344C66.3451 14.8345 67.6782 14.0013 69.3446 13.3347C72.0108 12.3348 75.3435 12.1681 78.0097 13.0014C80.6759 13.668 82.3423 15.8344 83.0089 18.5008C83.3421 19.834 83.3421 21.3339 83.3421 23.0004V33.3327H77.6765V30.8329Z" fill="white"/>
</g>
<defs>
<clipPath id="clip0_129_5929">
<rect width="133.31" height="48" fill="white" transform="translate(0.689941)"/>
</clipPath>
</defs>
</svg>
